%TF.GenerationSoftware,KiCad,Pcbnew,(5.1.10)-1*%
%TF.CreationDate,2021-10-31T13:05:10-04:00*%
%TF.ProjectId,CAN_Gauge,43414e5f-4761-4756-9765-2e6b69636164,rev?*%
%TF.SameCoordinates,Original*%
%TF.FileFunction,Other,User*%
%FSLAX46Y46*%
G04 Gerber Fmt 4.6, Leading zero omitted, Abs format (unit mm)*
G04 Created by KiCad (PCBNEW (5.1.10)-1) date 2021-10-31 13:05:10*
%MOMM*%
%LPD*%
G01*
G04 APERTURE LIST*
%ADD10C,0.050000*%
G04 APERTURE END LIST*
D10*
%TO.C,SW1*%
X143953763Y-116275231D02*
X139357569Y-111679037D01*
X146428637Y-104607969D02*
X151024831Y-109204163D01*
X151024831Y-109204163D02*
X143953763Y-116275231D01*
X146428637Y-104607969D02*
X139357569Y-111679037D01*
%TO.C,JP1*%
X131990500Y-98926000D02*
X131990500Y-102226000D01*
X131990500Y-98926000D02*
X134490500Y-98926000D01*
X134490500Y-102226000D02*
X131990500Y-102226000D01*
X134490500Y-102226000D02*
X134490500Y-98926000D01*
%TO.C,R5*%
X122610500Y-112902500D02*
X122610500Y-114762500D01*
X123550500Y-112902500D02*
X122610500Y-112902500D01*
X123550500Y-114762500D02*
X123550500Y-112902500D01*
X122610500Y-114762500D02*
X123550500Y-114762500D01*
%TO.C,C6*%
X124874000Y-115794000D02*
X124874000Y-113974000D01*
X123954000Y-115794000D02*
X124874000Y-115794000D01*
X123954000Y-113974000D02*
X123954000Y-115794000D01*
X124874000Y-113974000D02*
X123954000Y-113974000D01*
%TO.C,R30*%
X113911000Y-104285000D02*
X114851000Y-104285000D01*
X114851000Y-104285000D02*
X114851000Y-102425000D01*
X114851000Y-102425000D02*
X113911000Y-102425000D01*
X113911000Y-102425000D02*
X113911000Y-104285000D01*
%TO.C,D11*%
X111849229Y-106046158D02*
X113309229Y-106046158D01*
X113309229Y-106046158D02*
X113309229Y-103086158D01*
X113309229Y-103086158D02*
X111849229Y-103086158D01*
X111849229Y-103086158D02*
X111849229Y-106046158D01*
%TO.C,R29*%
X111879000Y-94506000D02*
X112819000Y-94506000D01*
X112819000Y-94506000D02*
X112819000Y-92646000D01*
X112819000Y-92646000D02*
X111879000Y-92646000D01*
X111879000Y-92646000D02*
X111879000Y-94506000D01*
%TO.C,R21*%
X114190400Y-83279200D02*
X115130400Y-83279200D01*
X115130400Y-83279200D02*
X115130400Y-81419200D01*
X115130400Y-81419200D02*
X114190400Y-81419200D01*
X114190400Y-81419200D02*
X114190400Y-83279200D01*
%TO.C,D9*%
X111034000Y-93112000D02*
X109574000Y-93112000D01*
X109574000Y-93112000D02*
X109574000Y-96072000D01*
X109574000Y-96072000D02*
X111034000Y-96072000D01*
X111034000Y-96072000D02*
X111034000Y-93112000D01*
%TO.C,D8*%
X111849229Y-86097842D02*
X113309229Y-86097842D01*
X113309229Y-86097842D02*
X113309229Y-83137842D01*
X113309229Y-83137842D02*
X111849229Y-83137842D01*
X111849229Y-83137842D02*
X111849229Y-86097842D01*
%TO.C,D3*%
X153298771Y-86097842D02*
X154758771Y-86097842D01*
X154758771Y-86097842D02*
X154758771Y-83137842D01*
X154758771Y-83137842D02*
X153298771Y-83137842D01*
X153298771Y-83137842D02*
X153298771Y-86097842D01*
%TO.C,D1*%
X152957500Y-106105000D02*
X154417500Y-106105000D01*
X154417500Y-106105000D02*
X154417500Y-103145000D01*
X154417500Y-103145000D02*
X152957500Y-103145000D01*
X152957500Y-103145000D02*
X152957500Y-106105000D01*
%TO.C,D10*%
X121068000Y-109292000D02*
X121068000Y-107832000D01*
X121068000Y-107832000D02*
X118108000Y-107832000D01*
X118108000Y-107832000D02*
X118108000Y-109292000D01*
X118108000Y-109292000D02*
X121068000Y-109292000D01*
%TO.C,R19*%
X120391000Y-77739000D02*
X118531000Y-77739000D01*
X120391000Y-78679000D02*
X120391000Y-77739000D01*
X118531000Y-78679000D02*
X120391000Y-78679000D01*
X118531000Y-77739000D02*
X118531000Y-78679000D01*
%TO.C,D7*%
X119060500Y-77347030D02*
X122020500Y-77347030D01*
X119060500Y-75887030D02*
X119060500Y-77347030D01*
X122020500Y-75887030D02*
X119060500Y-75887030D01*
X122020500Y-77347030D02*
X122020500Y-75887030D01*
%TO.C,R18*%
X129283000Y-74234000D02*
X129283000Y-73294000D01*
X129283000Y-73294000D02*
X127423000Y-73294000D01*
X127423000Y-73294000D02*
X127423000Y-74234000D01*
X127423000Y-74234000D02*
X129283000Y-74234000D01*
%TO.C,R17*%
X145580000Y-78679000D02*
X147440000Y-78679000D01*
X145580000Y-77739000D02*
X145580000Y-78679000D01*
X147440000Y-77739000D02*
X145580000Y-77739000D01*
X147440000Y-78679000D02*
X147440000Y-77739000D01*
%TO.C,R16*%
X137454000Y-74361000D02*
X139314000Y-74361000D01*
X137454000Y-73421000D02*
X137454000Y-74361000D01*
X139314000Y-73421000D02*
X137454000Y-73421000D01*
X139314000Y-74361000D02*
X139314000Y-73421000D01*
%TO.C,D6*%
X126689248Y-71442493D02*
X126689248Y-72902493D01*
X126689248Y-72902493D02*
X129649248Y-72902493D01*
X129649248Y-72902493D02*
X129649248Y-71442493D01*
X129649248Y-71442493D02*
X126689248Y-71442493D01*
%TO.C,D4*%
X147547500Y-75891500D02*
X144587500Y-75891500D01*
X147547500Y-77351500D02*
X147547500Y-75891500D01*
X144587500Y-77351500D02*
X147547500Y-77351500D01*
X144587500Y-75891500D02*
X144587500Y-77351500D01*
%TO.C,D5*%
X139292500Y-71573500D02*
X136332500Y-71573500D01*
X139292500Y-73033500D02*
X139292500Y-71573500D01*
X136332500Y-73033500D02*
X139292500Y-73033500D01*
X136332500Y-71573500D02*
X136332500Y-73033500D01*
%TO.C,R4*%
X124820500Y-113621500D02*
X124820500Y-111761500D01*
X123880500Y-113621500D02*
X124820500Y-113621500D01*
X123880500Y-111761500D02*
X123880500Y-113621500D01*
X124820500Y-111761500D02*
X123880500Y-111761500D01*
%TO.C,R9*%
X120645000Y-110556000D02*
X120645000Y-109616000D01*
X120645000Y-109616000D02*
X118785000Y-109616000D01*
X118785000Y-109616000D02*
X118785000Y-110556000D01*
X118785000Y-110556000D02*
X120645000Y-110556000D01*
%TO.C,R8*%
X154043000Y-93617000D02*
X154983000Y-93617000D01*
X154983000Y-93617000D02*
X154983000Y-91757000D01*
X154983000Y-91757000D02*
X154043000Y-91757000D01*
X154043000Y-91757000D02*
X154043000Y-93617000D01*
%TO.C,R7*%
X151947500Y-83330000D02*
X152887500Y-83330000D01*
X152887500Y-83330000D02*
X152887500Y-81470000D01*
X152887500Y-81470000D02*
X151947500Y-81470000D01*
X151947500Y-81470000D02*
X151947500Y-83330000D01*
%TO.C,R3*%
X127122000Y-106847600D02*
X127122000Y-105907600D01*
X127122000Y-105907600D02*
X125262000Y-105907600D01*
X125262000Y-105907600D02*
X125262000Y-106847600D01*
X125262000Y-106847600D02*
X127122000Y-106847600D01*
%TO.C,R2*%
X154932000Y-102761000D02*
X155872000Y-102761000D01*
X155872000Y-102761000D02*
X155872000Y-100901000D01*
X155872000Y-100901000D02*
X154932000Y-100901000D01*
X154932000Y-100901000D02*
X154932000Y-102761000D01*
%TO.C,D2*%
X157034000Y-93112000D02*
X155574000Y-93112000D01*
X155574000Y-93112000D02*
X155574000Y-96072000D01*
X155574000Y-96072000D02*
X157034000Y-96072000D01*
X157034000Y-96072000D02*
X157034000Y-93112000D01*
%TD*%
M02*
