%TF.GenerationSoftware,KiCad,Pcbnew,(5.1.10)-1*%
%TF.CreationDate,2021-10-31T13:05:10-04:00*%
%TF.ProjectId,CAN_Gauge,43414e5f-4761-4756-9765-2e6b69636164,rev?*%
%TF.SameCoordinates,Original*%
%TF.FileFunction,Other,User*%
%FSLAX46Y46*%
G04 Gerber Fmt 4.6, Leading zero omitted, Abs format (unit mm)*
G04 Created by KiCad (PCBNEW (5.1.10)-1) date 2021-10-31 13:05:10*
%MOMM*%
%LPD*%
G01*
G04 APERTURE LIST*
%ADD10C,0.050000*%
G04 APERTURE END LIST*
D10*
%TO.C,L1*%
X152467400Y-95173600D02*
X150767400Y-95173600D01*
X150767400Y-95173600D02*
X150767400Y-91673600D01*
X150767400Y-91673600D02*
X152467400Y-91673600D01*
X152467400Y-91673600D02*
X152467400Y-95173600D01*
%TO.C,C11*%
X152088600Y-86330000D02*
X152088600Y-88630000D01*
X152088600Y-88630000D02*
X147488600Y-88630000D01*
X147488600Y-88630000D02*
X147488600Y-86330000D01*
X147488600Y-86330000D02*
X152088600Y-86330000D01*
%TO.C,D12*%
X152589600Y-96458400D02*
X150289600Y-96458400D01*
X150289600Y-101158400D02*
X150289600Y-96458400D01*
X152589600Y-101158400D02*
X150289600Y-101158400D01*
X152589600Y-96458400D02*
X152589600Y-101158400D01*
%TO.C,U3*%
X149872400Y-96615600D02*
X149872400Y-89215600D01*
X144472400Y-96615600D02*
X149872400Y-96615600D01*
X144472400Y-89215600D02*
X144472400Y-96615600D01*
X149872400Y-89215600D02*
X144472400Y-89215600D01*
%TO.C,C10*%
X148398400Y-101011600D02*
X145438400Y-101011600D01*
X148398400Y-99551600D02*
X148398400Y-101011600D01*
X145438400Y-99551600D02*
X148398400Y-99551600D01*
X145438400Y-101011600D02*
X145438400Y-99551600D01*
%TO.C,U1*%
X130460800Y-82910000D02*
X130460800Y-86210000D01*
X131890800Y-82910000D02*
X130460800Y-82910000D01*
X131890800Y-82460000D02*
X131890800Y-82910000D01*
X132340800Y-82460000D02*
X131890800Y-82460000D01*
X132340800Y-81030000D02*
X132340800Y-82460000D01*
X135640800Y-81030000D02*
X132340800Y-81030000D01*
X140820800Y-82910000D02*
X140820800Y-86210000D01*
X139390800Y-82910000D02*
X140820800Y-82910000D01*
X139390800Y-82460000D02*
X139390800Y-82910000D01*
X138940800Y-82460000D02*
X139390800Y-82460000D01*
X138940800Y-81030000D02*
X138940800Y-82460000D01*
X135640800Y-81030000D02*
X138940800Y-81030000D01*
X130460800Y-89510000D02*
X130460800Y-86210000D01*
X131890800Y-89510000D02*
X130460800Y-89510000D01*
X131890800Y-89960000D02*
X131890800Y-89510000D01*
X132340800Y-89960000D02*
X131890800Y-89960000D01*
X132340800Y-91390000D02*
X132340800Y-89960000D01*
X135640800Y-91390000D02*
X132340800Y-91390000D01*
X140820800Y-89510000D02*
X140820800Y-86210000D01*
X139390800Y-89510000D02*
X140820800Y-89510000D01*
X139390800Y-89960000D02*
X139390800Y-89510000D01*
X138940800Y-89960000D02*
X139390800Y-89960000D01*
X138940800Y-91390000D02*
X138940800Y-89960000D01*
X135640800Y-91390000D02*
X138940800Y-91390000D01*
%TO.C,R22*%
X119724800Y-78780400D02*
X121584800Y-78780400D01*
X119724800Y-79720400D02*
X119724800Y-78780400D01*
X121584800Y-79720400D02*
X119724800Y-79720400D01*
X121584800Y-78780400D02*
X121584800Y-79720400D01*
%TO.C,R6*%
X119674000Y-77256400D02*
X121534000Y-77256400D01*
X119674000Y-78196400D02*
X119674000Y-77256400D01*
X121534000Y-78196400D02*
X119674000Y-78196400D01*
X121534000Y-77256400D02*
X121534000Y-78196400D01*
%TO.C,L2*%
X141947800Y-86679800D02*
X143807800Y-86679800D01*
X141947800Y-87619800D02*
X141947800Y-86679800D01*
X143807800Y-87619800D02*
X141947800Y-87619800D01*
X143807800Y-86679800D02*
X143807800Y-87619800D01*
%TO.C,J2*%
X141442000Y-105318000D02*
X141442000Y-115088000D01*
X124802000Y-105318000D02*
X141442000Y-105318000D01*
X124802000Y-115088000D02*
X124802000Y-105318000D01*
X141442000Y-115088000D02*
X124802000Y-115088000D01*
%TO.C,H4*%
X135554000Y-71592000D02*
G75*
G03*
X135554000Y-71592000I-2250000J0D01*
G01*
%TO.C,J1*%
X114958000Y-80336000D02*
X114958000Y-89036000D01*
X114958000Y-89036000D02*
X126758000Y-89036000D01*
X126758000Y-89036000D02*
X126758000Y-80336000D01*
X126758000Y-80336000D02*
X114958000Y-80336000D01*
%TO.C,H3*%
X158204578Y-98585908D02*
G75*
G03*
X158204578Y-98585908I-2250000J0D01*
G01*
%TO.C,H2*%
X112903422Y-98585908D02*
G75*
G03*
X112903422Y-98585908I-2250000J0D01*
G01*
%TO.C,H1*%
X135554000Y-117592000D02*
G75*
G03*
X135554000Y-117592000I-2250000J0D01*
G01*
%TO.C,D22*%
X146984000Y-107325000D02*
X146984000Y-114625000D01*
X146984000Y-114625000D02*
X142484000Y-114625000D01*
X142484000Y-114625000D02*
X142484000Y-107325000D01*
X142484000Y-107325000D02*
X146984000Y-107325000D01*
%TO.C,C9*%
X147598000Y-110708800D02*
X147598000Y-106008800D01*
X149998000Y-110708800D02*
X147598000Y-110708800D01*
X149998000Y-106008800D02*
X149998000Y-110708800D01*
X147598000Y-106008800D02*
X149998000Y-106008800D01*
%TO.C,R26*%
X138676000Y-95059000D02*
X139616000Y-95059000D01*
X139616000Y-95059000D02*
X139616000Y-96919000D01*
X139616000Y-96919000D02*
X138676000Y-96919000D01*
X138676000Y-96919000D02*
X138676000Y-95059000D01*
%TO.C,R25*%
X135218800Y-95366800D02*
X135218800Y-94426800D01*
X135218800Y-94426800D02*
X137078800Y-94426800D01*
X137078800Y-94426800D02*
X137078800Y-95366800D01*
X137078800Y-95366800D02*
X135218800Y-95366800D01*
%TO.C,R24*%
X135885000Y-95519000D02*
X135885000Y-96459000D01*
X135885000Y-96459000D02*
X134025000Y-96459000D01*
X134025000Y-96459000D02*
X134025000Y-95519000D01*
X134025000Y-95519000D02*
X135885000Y-95519000D01*
%TO.C,C18*%
X125070000Y-95148000D02*
X125070000Y-96068000D01*
X125070000Y-96068000D02*
X123250000Y-96068000D01*
X123250000Y-96068000D02*
X123250000Y-95148000D01*
X123250000Y-95148000D02*
X125070000Y-95148000D01*
%TO.C,C17*%
X141480000Y-95079000D02*
X142400000Y-95079000D01*
X142400000Y-95079000D02*
X142400000Y-96899000D01*
X142400000Y-96899000D02*
X141480000Y-96899000D01*
X141480000Y-96899000D02*
X141480000Y-95079000D01*
%TO.C,C16*%
X127102000Y-95910000D02*
X127102000Y-96830000D01*
X127102000Y-96830000D02*
X125282000Y-96830000D01*
X125282000Y-96830000D02*
X125282000Y-95910000D01*
X125282000Y-95910000D02*
X127102000Y-95910000D01*
%TO.C,C15*%
X140083000Y-95079000D02*
X141003000Y-95079000D01*
X141003000Y-95079000D02*
X141003000Y-96899000D01*
X141003000Y-96899000D02*
X140083000Y-96899000D01*
X140083000Y-96899000D02*
X140083000Y-95079000D01*
%TO.C,C14*%
X128907000Y-94952000D02*
X129827000Y-94952000D01*
X129827000Y-94952000D02*
X129827000Y-96772000D01*
X129827000Y-96772000D02*
X128907000Y-96772000D01*
X128907000Y-96772000D02*
X128907000Y-94952000D01*
%TO.C,C13*%
X130304000Y-94952000D02*
X131224000Y-94952000D01*
X131224000Y-94952000D02*
X131224000Y-96772000D01*
X131224000Y-96772000D02*
X130304000Y-96772000D01*
X130304000Y-96772000D02*
X130304000Y-94952000D01*
%TO.C,C8*%
X123636500Y-114615500D02*
X123636500Y-112795500D01*
X124556500Y-114615500D02*
X123636500Y-114615500D01*
X124556500Y-112795500D02*
X124556500Y-114615500D01*
X123636500Y-112795500D02*
X124556500Y-112795500D01*
%TO.C,C7*%
X123636500Y-112583500D02*
X123636500Y-110763500D01*
X124556500Y-112583500D02*
X123636500Y-112583500D01*
X124556500Y-110763500D02*
X124556500Y-112583500D01*
X123636500Y-110763500D02*
X124556500Y-110763500D01*
%TO.C,C5*%
X120498000Y-104704000D02*
X118678000Y-104704000D01*
X120498000Y-103784000D02*
X120498000Y-104704000D01*
X118678000Y-103784000D02*
X120498000Y-103784000D01*
X118678000Y-104704000D02*
X118678000Y-103784000D01*
%TO.C,C4*%
X143789800Y-85196800D02*
X141969800Y-85196800D01*
X143789800Y-84276800D02*
X143789800Y-85196800D01*
X141969800Y-84276800D02*
X143789800Y-84276800D01*
X141969800Y-85196800D02*
X141969800Y-84276800D01*
%TO.C,C3*%
X143789800Y-86339800D02*
X141969800Y-86339800D01*
X143789800Y-85419800D02*
X143789800Y-86339800D01*
X141969800Y-85419800D02*
X143789800Y-85419800D01*
X141969800Y-86339800D02*
X141969800Y-85419800D01*
%TO.C,C2*%
X141581600Y-91590400D02*
X141581600Y-89770400D01*
X142501600Y-91590400D02*
X141581600Y-91590400D01*
X142501600Y-89770400D02*
X142501600Y-91590400D01*
X141581600Y-89770400D02*
X142501600Y-89770400D01*
%TO.C,C1*%
X130512800Y-79988800D02*
X130512800Y-81808800D01*
X129592800Y-79988800D02*
X130512800Y-79988800D01*
X129592800Y-81808800D02*
X129592800Y-79988800D01*
X130512800Y-81808800D02*
X129592800Y-81808800D01*
%TO.C,R15*%
X115483000Y-101107000D02*
X117343000Y-101107000D01*
X115483000Y-102047000D02*
X115483000Y-101107000D01*
X117343000Y-102047000D02*
X115483000Y-102047000D01*
X117343000Y-101107000D02*
X117343000Y-102047000D01*
%TO.C,R14*%
X115483000Y-99837000D02*
X117343000Y-99837000D01*
X115483000Y-100777000D02*
X115483000Y-99837000D01*
X117343000Y-100777000D02*
X115483000Y-100777000D01*
X117343000Y-99837000D02*
X117343000Y-100777000D01*
%TO.C,R13*%
X115610000Y-95138000D02*
X117470000Y-95138000D01*
X115610000Y-96078000D02*
X115610000Y-95138000D01*
X117470000Y-96078000D02*
X115610000Y-96078000D01*
X117470000Y-95138000D02*
X117470000Y-96078000D01*
%TO.C,R12*%
X117470000Y-94681000D02*
X115610000Y-94681000D01*
X117470000Y-93741000D02*
X117470000Y-94681000D01*
X115610000Y-93741000D02*
X117470000Y-93741000D01*
X115610000Y-94681000D02*
X115610000Y-93741000D01*
%TO.C,R11*%
X115610000Y-92344000D02*
X117470000Y-92344000D01*
X115610000Y-93284000D02*
X115610000Y-92344000D01*
X117470000Y-93284000D02*
X115610000Y-93284000D01*
X117470000Y-92344000D02*
X117470000Y-93284000D01*
%TO.C,R10*%
X115483000Y-98567000D02*
X117343000Y-98567000D01*
X115483000Y-99507000D02*
X115483000Y-98567000D01*
X117343000Y-99507000D02*
X115483000Y-99507000D01*
X117343000Y-98567000D02*
X117343000Y-99507000D01*
%TO.C,R1*%
X139034600Y-92877600D02*
X137174600Y-92877600D01*
X139034600Y-91937600D02*
X139034600Y-92877600D01*
X137174600Y-91937600D02*
X139034600Y-91937600D01*
X137174600Y-92877600D02*
X137174600Y-91937600D01*
%TO.C,D21*%
X144891600Y-105079600D02*
X144891600Y-101579600D01*
X151891600Y-105079600D02*
X144891600Y-105079600D01*
X151891600Y-101579600D02*
X151891600Y-105079600D01*
X144891600Y-101579600D02*
X151891600Y-101579600D01*
%TO.C,U2*%
X122288000Y-105116000D02*
X116888000Y-105116000D01*
X116888000Y-105116000D02*
X116888000Y-112516000D01*
X116888000Y-112516000D02*
X122288000Y-112516000D01*
X122288000Y-112516000D02*
X122288000Y-105116000D01*
%TD*%
M02*
