%TF.GenerationSoftware,KiCad,Pcbnew,(5.1.10)-1*%
%TF.CreationDate,2021-10-31T13:05:10-04:00*%
%TF.ProjectId,CAN_Gauge,43414e5f-4761-4756-9765-2e6b69636164,rev?*%
%TF.SameCoordinates,Original*%
%TF.FileFunction,Copper,L2,Bot*%
%TF.FilePolarity,Positive*%
%FSLAX46Y46*%
G04 Gerber Fmt 4.6, Leading zero omitted, Abs format (unit mm)*
G04 Created by KiCad (PCBNEW (5.1.10)-1) date 2021-10-31 13:05:10*
%MOMM*%
%LPD*%
G01*
G04 APERTURE LIST*
%TA.AperFunction,SMDPad,CuDef*%
%ADD10C,0.100000*%
%TD*%
%TA.AperFunction,SMDPad,CuDef*%
%ADD11R,1.500000X1.000000*%
%TD*%
%TA.AperFunction,ComponentPad*%
%ADD12C,1.500000*%
%TD*%
%TA.AperFunction,ViaPad*%
%ADD13C,0.800000*%
%TD*%
%TA.AperFunction,ViaPad*%
%ADD14C,1.000000*%
%TD*%
%TA.AperFunction,Conductor*%
%ADD15C,0.500000*%
%TD*%
%TA.AperFunction,Conductor*%
%ADD16C,0.250000*%
%TD*%
%TA.AperFunction,Conductor*%
%ADD17C,0.254000*%
%TD*%
%TA.AperFunction,Conductor*%
%ADD18C,0.100000*%
%TD*%
G04 APERTURE END LIST*
%TA.AperFunction,SMDPad,CuDef*%
D10*
%TO.P,SW1,2*%
%TO.N,GND*%
G36*
X144059829Y-113835713D02*
G01*
X144979068Y-114754952D01*
X143883053Y-115850967D01*
X142963814Y-114931728D01*
X144059829Y-113835713D01*
G37*
%TD.AperFunction*%
%TA.AperFunction,SMDPad,CuDef*%
%TO.P,SW1,1*%
%TO.N,BTN_IN*%
G36*
X140877848Y-110653732D02*
G01*
X141797087Y-111572971D01*
X140701072Y-112668986D01*
X139781833Y-111749747D01*
X140877848Y-110653732D01*
G37*
%TD.AperFunction*%
%TA.AperFunction,SMDPad,CuDef*%
G36*
X146499347Y-105032233D02*
G01*
X147418586Y-105951472D01*
X146322571Y-107047487D01*
X145403332Y-106128248D01*
X146499347Y-105032233D01*
G37*
%TD.AperFunction*%
%TA.AperFunction,SMDPad,CuDef*%
%TO.P,SW1,2*%
%TO.N,GND*%
G36*
X149681328Y-108214214D02*
G01*
X150600567Y-109133453D01*
X149504552Y-110229468D01*
X148585313Y-109310229D01*
X149681328Y-108214214D01*
G37*
%TD.AperFunction*%
%TD*%
D11*
%TO.P,JP1,1*%
%TO.N,/OLED/SA0*%
X133240500Y-99926000D03*
%TO.P,JP1,2*%
%TO.N,GND*%
X133240500Y-101226000D03*
%TD*%
%TO.P,R5,2*%
%TO.N,CANL*%
%TA.AperFunction,SMDPad,CuDef*%
G36*
G01*
X123265500Y-113592500D02*
X122895500Y-113592500D01*
G75*
G02*
X122760500Y-113457500I0J135000D01*
G01*
X122760500Y-113187500D01*
G75*
G02*
X122895500Y-113052500I135000J0D01*
G01*
X123265500Y-113052500D01*
G75*
G02*
X123400500Y-113187500I0J-135000D01*
G01*
X123400500Y-113457500D01*
G75*
G02*
X123265500Y-113592500I-135000J0D01*
G01*
G37*
%TD.AperFunction*%
%TO.P,R5,1*%
%TO.N,Net-(C6-Pad1)*%
%TA.AperFunction,SMDPad,CuDef*%
G36*
G01*
X123265500Y-114612500D02*
X122895500Y-114612500D01*
G75*
G02*
X122760500Y-114477500I0J135000D01*
G01*
X122760500Y-114207500D01*
G75*
G02*
X122895500Y-114072500I135000J0D01*
G01*
X123265500Y-114072500D01*
G75*
G02*
X123400500Y-114207500I0J-135000D01*
G01*
X123400500Y-114477500D01*
G75*
G02*
X123265500Y-114612500I-135000J0D01*
G01*
G37*
%TD.AperFunction*%
%TD*%
%TO.P,C6,2*%
%TO.N,GND*%
%TA.AperFunction,SMDPad,CuDef*%
G36*
G01*
X124244000Y-115084000D02*
X124584000Y-115084000D01*
G75*
G02*
X124724000Y-115224000I0J-140000D01*
G01*
X124724000Y-115504000D01*
G75*
G02*
X124584000Y-115644000I-140000J0D01*
G01*
X124244000Y-115644000D01*
G75*
G02*
X124104000Y-115504000I0J140000D01*
G01*
X124104000Y-115224000D01*
G75*
G02*
X124244000Y-115084000I140000J0D01*
G01*
G37*
%TD.AperFunction*%
%TO.P,C6,1*%
%TO.N,Net-(C6-Pad1)*%
%TA.AperFunction,SMDPad,CuDef*%
G36*
G01*
X124244000Y-114124000D02*
X124584000Y-114124000D01*
G75*
G02*
X124724000Y-114264000I0J-140000D01*
G01*
X124724000Y-114544000D01*
G75*
G02*
X124584000Y-114684000I-140000J0D01*
G01*
X124244000Y-114684000D01*
G75*
G02*
X124104000Y-114544000I0J140000D01*
G01*
X124104000Y-114264000D01*
G75*
G02*
X124244000Y-114124000I140000J0D01*
G01*
G37*
%TD.AperFunction*%
%TD*%
D12*
%TO.P,J2,8*%
%TO.N,CANH*%
X128622000Y-109118000D03*
%TO.P,J2,7*%
%TO.N,BTN_IN*%
X131622000Y-109118000D03*
%TO.P,J2,6*%
%TO.N,SPARE_1*%
X134622000Y-109118000D03*
%TO.P,J2,5*%
%TO.N,12V_IN*%
X137622000Y-109118000D03*
%TO.P,J2,4*%
%TO.N,CANL*%
X128622000Y-112118000D03*
%TO.P,J2,3*%
%TO.N,+3V3*%
X131622000Y-112118000D03*
%TO.P,J2,2*%
%TO.N,SPARE_2*%
X134622000Y-112118000D03*
%TO.P,J2,1*%
%TO.N,GND*%
%TA.AperFunction,ComponentPad*%
G36*
G01*
X138372000Y-111618000D02*
X138372000Y-112618000D01*
G75*
G02*
X138122000Y-112868000I-250000J0D01*
G01*
X137122000Y-112868000D01*
G75*
G02*
X136872000Y-112618000I0J250000D01*
G01*
X136872000Y-111618000D01*
G75*
G02*
X137122000Y-111368000I250000J0D01*
G01*
X138122000Y-111368000D01*
G75*
G02*
X138372000Y-111618000I0J-250000D01*
G01*
G37*
%TD.AperFunction*%
%TD*%
%TO.P,R30,2*%
%TO.N,LED10*%
%TA.AperFunction,SMDPad,CuDef*%
G36*
G01*
X114566000Y-103115000D02*
X114196000Y-103115000D01*
G75*
G02*
X114061000Y-102980000I0J135000D01*
G01*
X114061000Y-102710000D01*
G75*
G02*
X114196000Y-102575000I135000J0D01*
G01*
X114566000Y-102575000D01*
G75*
G02*
X114701000Y-102710000I0J-135000D01*
G01*
X114701000Y-102980000D01*
G75*
G02*
X114566000Y-103115000I-135000J0D01*
G01*
G37*
%TD.AperFunction*%
%TO.P,R30,1*%
%TO.N,Net-(D11-Pad2)*%
%TA.AperFunction,SMDPad,CuDef*%
G36*
G01*
X114566000Y-104135000D02*
X114196000Y-104135000D01*
G75*
G02*
X114061000Y-104000000I0J135000D01*
G01*
X114061000Y-103730000D01*
G75*
G02*
X114196000Y-103595000I135000J0D01*
G01*
X114566000Y-103595000D01*
G75*
G02*
X114701000Y-103730000I0J-135000D01*
G01*
X114701000Y-104000000D01*
G75*
G02*
X114566000Y-104135000I-135000J0D01*
G01*
G37*
%TD.AperFunction*%
%TD*%
%TO.P,D11,2*%
%TO.N,Net-(D11-Pad2)*%
%TA.AperFunction,SMDPad,CuDef*%
G36*
G01*
X112835479Y-104216158D02*
X112322979Y-104216158D01*
G75*
G02*
X112104229Y-103997408I0J218750D01*
G01*
X112104229Y-103559908D01*
G75*
G02*
X112322979Y-103341158I218750J0D01*
G01*
X112835479Y-103341158D01*
G75*
G02*
X113054229Y-103559908I0J-218750D01*
G01*
X113054229Y-103997408D01*
G75*
G02*
X112835479Y-104216158I-218750J0D01*
G01*
G37*
%TD.AperFunction*%
%TO.P,D11,1*%
%TO.N,GND*%
%TA.AperFunction,SMDPad,CuDef*%
G36*
G01*
X112835479Y-105791158D02*
X112322979Y-105791158D01*
G75*
G02*
X112104229Y-105572408I0J218750D01*
G01*
X112104229Y-105134908D01*
G75*
G02*
X112322979Y-104916158I218750J0D01*
G01*
X112835479Y-104916158D01*
G75*
G02*
X113054229Y-105134908I0J-218750D01*
G01*
X113054229Y-105572408D01*
G75*
G02*
X112835479Y-105791158I-218750J0D01*
G01*
G37*
%TD.AperFunction*%
%TD*%
%TO.P,R29,2*%
%TO.N,LED9*%
%TA.AperFunction,SMDPad,CuDef*%
G36*
G01*
X112534000Y-93336000D02*
X112164000Y-93336000D01*
G75*
G02*
X112029000Y-93201000I0J135000D01*
G01*
X112029000Y-92931000D01*
G75*
G02*
X112164000Y-92796000I135000J0D01*
G01*
X112534000Y-92796000D01*
G75*
G02*
X112669000Y-92931000I0J-135000D01*
G01*
X112669000Y-93201000D01*
G75*
G02*
X112534000Y-93336000I-135000J0D01*
G01*
G37*
%TD.AperFunction*%
%TO.P,R29,1*%
%TO.N,Net-(D9-Pad2)*%
%TA.AperFunction,SMDPad,CuDef*%
G36*
G01*
X112534000Y-94356000D02*
X112164000Y-94356000D01*
G75*
G02*
X112029000Y-94221000I0J135000D01*
G01*
X112029000Y-93951000D01*
G75*
G02*
X112164000Y-93816000I135000J0D01*
G01*
X112534000Y-93816000D01*
G75*
G02*
X112669000Y-93951000I0J-135000D01*
G01*
X112669000Y-94221000D01*
G75*
G02*
X112534000Y-94356000I-135000J0D01*
G01*
G37*
%TD.AperFunction*%
%TD*%
%TO.P,R21,2*%
%TO.N,LED8*%
%TA.AperFunction,SMDPad,CuDef*%
G36*
G01*
X114845400Y-82109200D02*
X114475400Y-82109200D01*
G75*
G02*
X114340400Y-81974200I0J135000D01*
G01*
X114340400Y-81704200D01*
G75*
G02*
X114475400Y-81569200I135000J0D01*
G01*
X114845400Y-81569200D01*
G75*
G02*
X114980400Y-81704200I0J-135000D01*
G01*
X114980400Y-81974200D01*
G75*
G02*
X114845400Y-82109200I-135000J0D01*
G01*
G37*
%TD.AperFunction*%
%TO.P,R21,1*%
%TO.N,Net-(D8-Pad2)*%
%TA.AperFunction,SMDPad,CuDef*%
G36*
G01*
X114845400Y-83129200D02*
X114475400Y-83129200D01*
G75*
G02*
X114340400Y-82994200I0J135000D01*
G01*
X114340400Y-82724200D01*
G75*
G02*
X114475400Y-82589200I135000J0D01*
G01*
X114845400Y-82589200D01*
G75*
G02*
X114980400Y-82724200I0J-135000D01*
G01*
X114980400Y-82994200D01*
G75*
G02*
X114845400Y-83129200I-135000J0D01*
G01*
G37*
%TD.AperFunction*%
%TD*%
%TO.P,D9,2*%
%TO.N,Net-(D9-Pad2)*%
%TA.AperFunction,SMDPad,CuDef*%
G36*
G01*
X110047750Y-94942000D02*
X110560250Y-94942000D01*
G75*
G02*
X110779000Y-95160750I0J-218750D01*
G01*
X110779000Y-95598250D01*
G75*
G02*
X110560250Y-95817000I-218750J0D01*
G01*
X110047750Y-95817000D01*
G75*
G02*
X109829000Y-95598250I0J218750D01*
G01*
X109829000Y-95160750D01*
G75*
G02*
X110047750Y-94942000I218750J0D01*
G01*
G37*
%TD.AperFunction*%
%TO.P,D9,1*%
%TO.N,GND*%
%TA.AperFunction,SMDPad,CuDef*%
G36*
G01*
X110047750Y-93367000D02*
X110560250Y-93367000D01*
G75*
G02*
X110779000Y-93585750I0J-218750D01*
G01*
X110779000Y-94023250D01*
G75*
G02*
X110560250Y-94242000I-218750J0D01*
G01*
X110047750Y-94242000D01*
G75*
G02*
X109829000Y-94023250I0J218750D01*
G01*
X109829000Y-93585750D01*
G75*
G02*
X110047750Y-93367000I218750J0D01*
G01*
G37*
%TD.AperFunction*%
%TD*%
%TO.P,D8,2*%
%TO.N,Net-(D8-Pad2)*%
%TA.AperFunction,SMDPad,CuDef*%
G36*
G01*
X112835479Y-84267842D02*
X112322979Y-84267842D01*
G75*
G02*
X112104229Y-84049092I0J218750D01*
G01*
X112104229Y-83611592D01*
G75*
G02*
X112322979Y-83392842I218750J0D01*
G01*
X112835479Y-83392842D01*
G75*
G02*
X113054229Y-83611592I0J-218750D01*
G01*
X113054229Y-84049092D01*
G75*
G02*
X112835479Y-84267842I-218750J0D01*
G01*
G37*
%TD.AperFunction*%
%TO.P,D8,1*%
%TO.N,GND*%
%TA.AperFunction,SMDPad,CuDef*%
G36*
G01*
X112835479Y-85842842D02*
X112322979Y-85842842D01*
G75*
G02*
X112104229Y-85624092I0J218750D01*
G01*
X112104229Y-85186592D01*
G75*
G02*
X112322979Y-84967842I218750J0D01*
G01*
X112835479Y-84967842D01*
G75*
G02*
X113054229Y-85186592I0J-218750D01*
G01*
X113054229Y-85624092D01*
G75*
G02*
X112835479Y-85842842I-218750J0D01*
G01*
G37*
%TD.AperFunction*%
%TD*%
%TO.P,D3,2*%
%TO.N,Net-(D3-Pad2)*%
%TA.AperFunction,SMDPad,CuDef*%
G36*
G01*
X154285021Y-84267842D02*
X153772521Y-84267842D01*
G75*
G02*
X153553771Y-84049092I0J218750D01*
G01*
X153553771Y-83611592D01*
G75*
G02*
X153772521Y-83392842I218750J0D01*
G01*
X154285021Y-83392842D01*
G75*
G02*
X154503771Y-83611592I0J-218750D01*
G01*
X154503771Y-84049092D01*
G75*
G02*
X154285021Y-84267842I-218750J0D01*
G01*
G37*
%TD.AperFunction*%
%TO.P,D3,1*%
%TO.N,GND*%
%TA.AperFunction,SMDPad,CuDef*%
G36*
G01*
X154285021Y-85842842D02*
X153772521Y-85842842D01*
G75*
G02*
X153553771Y-85624092I0J218750D01*
G01*
X153553771Y-85186592D01*
G75*
G02*
X153772521Y-84967842I218750J0D01*
G01*
X154285021Y-84967842D01*
G75*
G02*
X154503771Y-85186592I0J-218750D01*
G01*
X154503771Y-85624092D01*
G75*
G02*
X154285021Y-85842842I-218750J0D01*
G01*
G37*
%TD.AperFunction*%
%TD*%
%TO.P,D1,2*%
%TO.N,Net-(D1-Pad2)*%
%TA.AperFunction,SMDPad,CuDef*%
G36*
G01*
X153943750Y-104275000D02*
X153431250Y-104275000D01*
G75*
G02*
X153212500Y-104056250I0J218750D01*
G01*
X153212500Y-103618750D01*
G75*
G02*
X153431250Y-103400000I218750J0D01*
G01*
X153943750Y-103400000D01*
G75*
G02*
X154162500Y-103618750I0J-218750D01*
G01*
X154162500Y-104056250D01*
G75*
G02*
X153943750Y-104275000I-218750J0D01*
G01*
G37*
%TD.AperFunction*%
%TO.P,D1,1*%
%TO.N,GND*%
%TA.AperFunction,SMDPad,CuDef*%
G36*
G01*
X153943750Y-105850000D02*
X153431250Y-105850000D01*
G75*
G02*
X153212500Y-105631250I0J218750D01*
G01*
X153212500Y-105193750D01*
G75*
G02*
X153431250Y-104975000I218750J0D01*
G01*
X153943750Y-104975000D01*
G75*
G02*
X154162500Y-105193750I0J-218750D01*
G01*
X154162500Y-105631250D01*
G75*
G02*
X153943750Y-105850000I-218750J0D01*
G01*
G37*
%TD.AperFunction*%
%TD*%
%TO.P,D10,2*%
%TO.N,Net-(D10-Pad2)*%
%TA.AperFunction,SMDPad,CuDef*%
G36*
G01*
X119238000Y-108305750D02*
X119238000Y-108818250D01*
G75*
G02*
X119019250Y-109037000I-218750J0D01*
G01*
X118581750Y-109037000D01*
G75*
G02*
X118363000Y-108818250I0J218750D01*
G01*
X118363000Y-108305750D01*
G75*
G02*
X118581750Y-108087000I218750J0D01*
G01*
X119019250Y-108087000D01*
G75*
G02*
X119238000Y-108305750I0J-218750D01*
G01*
G37*
%TD.AperFunction*%
%TO.P,D10,1*%
%TO.N,GND*%
%TA.AperFunction,SMDPad,CuDef*%
G36*
G01*
X120813000Y-108305750D02*
X120813000Y-108818250D01*
G75*
G02*
X120594250Y-109037000I-218750J0D01*
G01*
X120156750Y-109037000D01*
G75*
G02*
X119938000Y-108818250I0J218750D01*
G01*
X119938000Y-108305750D01*
G75*
G02*
X120156750Y-108087000I218750J0D01*
G01*
X120594250Y-108087000D01*
G75*
G02*
X120813000Y-108305750I0J-218750D01*
G01*
G37*
%TD.AperFunction*%
%TD*%
%TO.P,R19,2*%
%TO.N,LED7*%
%TA.AperFunction,SMDPad,CuDef*%
G36*
G01*
X119701000Y-78394000D02*
X119701000Y-78024000D01*
G75*
G02*
X119836000Y-77889000I135000J0D01*
G01*
X120106000Y-77889000D01*
G75*
G02*
X120241000Y-78024000I0J-135000D01*
G01*
X120241000Y-78394000D01*
G75*
G02*
X120106000Y-78529000I-135000J0D01*
G01*
X119836000Y-78529000D01*
G75*
G02*
X119701000Y-78394000I0J135000D01*
G01*
G37*
%TD.AperFunction*%
%TO.P,R19,1*%
%TO.N,Net-(D7-Pad2)*%
%TA.AperFunction,SMDPad,CuDef*%
G36*
G01*
X118681000Y-78394000D02*
X118681000Y-78024000D01*
G75*
G02*
X118816000Y-77889000I135000J0D01*
G01*
X119086000Y-77889000D01*
G75*
G02*
X119221000Y-78024000I0J-135000D01*
G01*
X119221000Y-78394000D01*
G75*
G02*
X119086000Y-78529000I-135000J0D01*
G01*
X118816000Y-78529000D01*
G75*
G02*
X118681000Y-78394000I0J135000D01*
G01*
G37*
%TD.AperFunction*%
%TD*%
%TO.P,D7,2*%
%TO.N,Net-(D7-Pad2)*%
%TA.AperFunction,SMDPad,CuDef*%
G36*
G01*
X120190500Y-76360780D02*
X120190500Y-76873280D01*
G75*
G02*
X119971750Y-77092030I-218750J0D01*
G01*
X119534250Y-77092030D01*
G75*
G02*
X119315500Y-76873280I0J218750D01*
G01*
X119315500Y-76360780D01*
G75*
G02*
X119534250Y-76142030I218750J0D01*
G01*
X119971750Y-76142030D01*
G75*
G02*
X120190500Y-76360780I0J-218750D01*
G01*
G37*
%TD.AperFunction*%
%TO.P,D7,1*%
%TO.N,GND*%
%TA.AperFunction,SMDPad,CuDef*%
G36*
G01*
X121765500Y-76360780D02*
X121765500Y-76873280D01*
G75*
G02*
X121546750Y-77092030I-218750J0D01*
G01*
X121109250Y-77092030D01*
G75*
G02*
X120890500Y-76873280I0J218750D01*
G01*
X120890500Y-76360780D01*
G75*
G02*
X121109250Y-76142030I218750J0D01*
G01*
X121546750Y-76142030D01*
G75*
G02*
X121765500Y-76360780I0J-218750D01*
G01*
G37*
%TD.AperFunction*%
%TD*%
%TO.P,R18,1*%
%TO.N,Net-(D6-Pad2)*%
%TA.AperFunction,SMDPad,CuDef*%
G36*
G01*
X129133000Y-73579000D02*
X129133000Y-73949000D01*
G75*
G02*
X128998000Y-74084000I-135000J0D01*
G01*
X128728000Y-74084000D01*
G75*
G02*
X128593000Y-73949000I0J135000D01*
G01*
X128593000Y-73579000D01*
G75*
G02*
X128728000Y-73444000I135000J0D01*
G01*
X128998000Y-73444000D01*
G75*
G02*
X129133000Y-73579000I0J-135000D01*
G01*
G37*
%TD.AperFunction*%
%TO.P,R18,2*%
%TO.N,LED6*%
%TA.AperFunction,SMDPad,CuDef*%
G36*
G01*
X128113000Y-73579000D02*
X128113000Y-73949000D01*
G75*
G02*
X127978000Y-74084000I-135000J0D01*
G01*
X127708000Y-74084000D01*
G75*
G02*
X127573000Y-73949000I0J135000D01*
G01*
X127573000Y-73579000D01*
G75*
G02*
X127708000Y-73444000I135000J0D01*
G01*
X127978000Y-73444000D01*
G75*
G02*
X128113000Y-73579000I0J-135000D01*
G01*
G37*
%TD.AperFunction*%
%TD*%
%TO.P,R17,2*%
%TO.N,LED4*%
%TA.AperFunction,SMDPad,CuDef*%
G36*
G01*
X146270000Y-78024000D02*
X146270000Y-78394000D01*
G75*
G02*
X146135000Y-78529000I-135000J0D01*
G01*
X145865000Y-78529000D01*
G75*
G02*
X145730000Y-78394000I0J135000D01*
G01*
X145730000Y-78024000D01*
G75*
G02*
X145865000Y-77889000I135000J0D01*
G01*
X146135000Y-77889000D01*
G75*
G02*
X146270000Y-78024000I0J-135000D01*
G01*
G37*
%TD.AperFunction*%
%TO.P,R17,1*%
%TO.N,Net-(D4-Pad2)*%
%TA.AperFunction,SMDPad,CuDef*%
G36*
G01*
X147290000Y-78024000D02*
X147290000Y-78394000D01*
G75*
G02*
X147155000Y-78529000I-135000J0D01*
G01*
X146885000Y-78529000D01*
G75*
G02*
X146750000Y-78394000I0J135000D01*
G01*
X146750000Y-78024000D01*
G75*
G02*
X146885000Y-77889000I135000J0D01*
G01*
X147155000Y-77889000D01*
G75*
G02*
X147290000Y-78024000I0J-135000D01*
G01*
G37*
%TD.AperFunction*%
%TD*%
%TO.P,R16,2*%
%TO.N,LED5*%
%TA.AperFunction,SMDPad,CuDef*%
G36*
G01*
X138144000Y-73706000D02*
X138144000Y-74076000D01*
G75*
G02*
X138009000Y-74211000I-135000J0D01*
G01*
X137739000Y-74211000D01*
G75*
G02*
X137604000Y-74076000I0J135000D01*
G01*
X137604000Y-73706000D01*
G75*
G02*
X137739000Y-73571000I135000J0D01*
G01*
X138009000Y-73571000D01*
G75*
G02*
X138144000Y-73706000I0J-135000D01*
G01*
G37*
%TD.AperFunction*%
%TO.P,R16,1*%
%TO.N,Net-(D5-Pad2)*%
%TA.AperFunction,SMDPad,CuDef*%
G36*
G01*
X139164000Y-73706000D02*
X139164000Y-74076000D01*
G75*
G02*
X139029000Y-74211000I-135000J0D01*
G01*
X138759000Y-74211000D01*
G75*
G02*
X138624000Y-74076000I0J135000D01*
G01*
X138624000Y-73706000D01*
G75*
G02*
X138759000Y-73571000I135000J0D01*
G01*
X139029000Y-73571000D01*
G75*
G02*
X139164000Y-73706000I0J-135000D01*
G01*
G37*
%TD.AperFunction*%
%TD*%
%TO.P,D6,1*%
%TO.N,GND*%
%TA.AperFunction,SMDPad,CuDef*%
G36*
G01*
X126944248Y-72428743D02*
X126944248Y-71916243D01*
G75*
G02*
X127162998Y-71697493I218750J0D01*
G01*
X127600498Y-71697493D01*
G75*
G02*
X127819248Y-71916243I0J-218750D01*
G01*
X127819248Y-72428743D01*
G75*
G02*
X127600498Y-72647493I-218750J0D01*
G01*
X127162998Y-72647493D01*
G75*
G02*
X126944248Y-72428743I0J218750D01*
G01*
G37*
%TD.AperFunction*%
%TO.P,D6,2*%
%TO.N,Net-(D6-Pad2)*%
%TA.AperFunction,SMDPad,CuDef*%
G36*
G01*
X128519248Y-72428743D02*
X128519248Y-71916243D01*
G75*
G02*
X128737998Y-71697493I218750J0D01*
G01*
X129175498Y-71697493D01*
G75*
G02*
X129394248Y-71916243I0J-218750D01*
G01*
X129394248Y-72428743D01*
G75*
G02*
X129175498Y-72647493I-218750J0D01*
G01*
X128737998Y-72647493D01*
G75*
G02*
X128519248Y-72428743I0J218750D01*
G01*
G37*
%TD.AperFunction*%
%TD*%
%TO.P,D4,2*%
%TO.N,Net-(D4-Pad2)*%
%TA.AperFunction,SMDPad,CuDef*%
G36*
G01*
X146417500Y-76877750D02*
X146417500Y-76365250D01*
G75*
G02*
X146636250Y-76146500I218750J0D01*
G01*
X147073750Y-76146500D01*
G75*
G02*
X147292500Y-76365250I0J-218750D01*
G01*
X147292500Y-76877750D01*
G75*
G02*
X147073750Y-77096500I-218750J0D01*
G01*
X146636250Y-77096500D01*
G75*
G02*
X146417500Y-76877750I0J218750D01*
G01*
G37*
%TD.AperFunction*%
%TO.P,D4,1*%
%TO.N,GND*%
%TA.AperFunction,SMDPad,CuDef*%
G36*
G01*
X144842500Y-76877750D02*
X144842500Y-76365250D01*
G75*
G02*
X145061250Y-76146500I218750J0D01*
G01*
X145498750Y-76146500D01*
G75*
G02*
X145717500Y-76365250I0J-218750D01*
G01*
X145717500Y-76877750D01*
G75*
G02*
X145498750Y-77096500I-218750J0D01*
G01*
X145061250Y-77096500D01*
G75*
G02*
X144842500Y-76877750I0J218750D01*
G01*
G37*
%TD.AperFunction*%
%TD*%
%TO.P,D5,2*%
%TO.N,Net-(D5-Pad2)*%
%TA.AperFunction,SMDPad,CuDef*%
G36*
G01*
X138162500Y-72559750D02*
X138162500Y-72047250D01*
G75*
G02*
X138381250Y-71828500I218750J0D01*
G01*
X138818750Y-71828500D01*
G75*
G02*
X139037500Y-72047250I0J-218750D01*
G01*
X139037500Y-72559750D01*
G75*
G02*
X138818750Y-72778500I-218750J0D01*
G01*
X138381250Y-72778500D01*
G75*
G02*
X138162500Y-72559750I0J218750D01*
G01*
G37*
%TD.AperFunction*%
%TO.P,D5,1*%
%TO.N,GND*%
%TA.AperFunction,SMDPad,CuDef*%
G36*
G01*
X136587500Y-72559750D02*
X136587500Y-72047250D01*
G75*
G02*
X136806250Y-71828500I218750J0D01*
G01*
X137243750Y-71828500D01*
G75*
G02*
X137462500Y-72047250I0J-218750D01*
G01*
X137462500Y-72559750D01*
G75*
G02*
X137243750Y-72778500I-218750J0D01*
G01*
X136806250Y-72778500D01*
G75*
G02*
X136587500Y-72559750I0J218750D01*
G01*
G37*
%TD.AperFunction*%
%TD*%
%TO.P,R4,2*%
%TO.N,Net-(C6-Pad1)*%
%TA.AperFunction,SMDPad,CuDef*%
G36*
G01*
X124165500Y-112931500D02*
X124535500Y-112931500D01*
G75*
G02*
X124670500Y-113066500I0J-135000D01*
G01*
X124670500Y-113336500D01*
G75*
G02*
X124535500Y-113471500I-135000J0D01*
G01*
X124165500Y-113471500D01*
G75*
G02*
X124030500Y-113336500I0J135000D01*
G01*
X124030500Y-113066500D01*
G75*
G02*
X124165500Y-112931500I135000J0D01*
G01*
G37*
%TD.AperFunction*%
%TO.P,R4,1*%
%TO.N,CANH*%
%TA.AperFunction,SMDPad,CuDef*%
G36*
G01*
X124165500Y-111911500D02*
X124535500Y-111911500D01*
G75*
G02*
X124670500Y-112046500I0J-135000D01*
G01*
X124670500Y-112316500D01*
G75*
G02*
X124535500Y-112451500I-135000J0D01*
G01*
X124165500Y-112451500D01*
G75*
G02*
X124030500Y-112316500I0J135000D01*
G01*
X124030500Y-112046500D01*
G75*
G02*
X124165500Y-111911500I135000J0D01*
G01*
G37*
%TD.AperFunction*%
%TD*%
%TO.P,R9,2*%
%TO.N,Net-(D10-Pad2)*%
%TA.AperFunction,SMDPad,CuDef*%
G36*
G01*
X119475000Y-109901000D02*
X119475000Y-110271000D01*
G75*
G02*
X119340000Y-110406000I-135000J0D01*
G01*
X119070000Y-110406000D01*
G75*
G02*
X118935000Y-110271000I0J135000D01*
G01*
X118935000Y-109901000D01*
G75*
G02*
X119070000Y-109766000I135000J0D01*
G01*
X119340000Y-109766000D01*
G75*
G02*
X119475000Y-109901000I0J-135000D01*
G01*
G37*
%TD.AperFunction*%
%TO.P,R9,1*%
%TO.N,+3V3*%
%TA.AperFunction,SMDPad,CuDef*%
G36*
G01*
X120495000Y-109901000D02*
X120495000Y-110271000D01*
G75*
G02*
X120360000Y-110406000I-135000J0D01*
G01*
X120090000Y-110406000D01*
G75*
G02*
X119955000Y-110271000I0J135000D01*
G01*
X119955000Y-109901000D01*
G75*
G02*
X120090000Y-109766000I135000J0D01*
G01*
X120360000Y-109766000D01*
G75*
G02*
X120495000Y-109901000I0J-135000D01*
G01*
G37*
%TD.AperFunction*%
%TD*%
%TO.P,R8,2*%
%TO.N,LED2*%
%TA.AperFunction,SMDPad,CuDef*%
G36*
G01*
X154698000Y-92447000D02*
X154328000Y-92447000D01*
G75*
G02*
X154193000Y-92312000I0J135000D01*
G01*
X154193000Y-92042000D01*
G75*
G02*
X154328000Y-91907000I135000J0D01*
G01*
X154698000Y-91907000D01*
G75*
G02*
X154833000Y-92042000I0J-135000D01*
G01*
X154833000Y-92312000D01*
G75*
G02*
X154698000Y-92447000I-135000J0D01*
G01*
G37*
%TD.AperFunction*%
%TO.P,R8,1*%
%TO.N,Net-(D2-Pad2)*%
%TA.AperFunction,SMDPad,CuDef*%
G36*
G01*
X154698000Y-93467000D02*
X154328000Y-93467000D01*
G75*
G02*
X154193000Y-93332000I0J135000D01*
G01*
X154193000Y-93062000D01*
G75*
G02*
X154328000Y-92927000I135000J0D01*
G01*
X154698000Y-92927000D01*
G75*
G02*
X154833000Y-93062000I0J-135000D01*
G01*
X154833000Y-93332000D01*
G75*
G02*
X154698000Y-93467000I-135000J0D01*
G01*
G37*
%TD.AperFunction*%
%TD*%
%TO.P,R7,2*%
%TO.N,LED3*%
%TA.AperFunction,SMDPad,CuDef*%
G36*
G01*
X152602500Y-82160000D02*
X152232500Y-82160000D01*
G75*
G02*
X152097500Y-82025000I0J135000D01*
G01*
X152097500Y-81755000D01*
G75*
G02*
X152232500Y-81620000I135000J0D01*
G01*
X152602500Y-81620000D01*
G75*
G02*
X152737500Y-81755000I0J-135000D01*
G01*
X152737500Y-82025000D01*
G75*
G02*
X152602500Y-82160000I-135000J0D01*
G01*
G37*
%TD.AperFunction*%
%TO.P,R7,1*%
%TO.N,Net-(D3-Pad2)*%
%TA.AperFunction,SMDPad,CuDef*%
G36*
G01*
X152602500Y-83180000D02*
X152232500Y-83180000D01*
G75*
G02*
X152097500Y-83045000I0J135000D01*
G01*
X152097500Y-82775000D01*
G75*
G02*
X152232500Y-82640000I135000J0D01*
G01*
X152602500Y-82640000D01*
G75*
G02*
X152737500Y-82775000I0J-135000D01*
G01*
X152737500Y-83045000D01*
G75*
G02*
X152602500Y-83180000I-135000J0D01*
G01*
G37*
%TD.AperFunction*%
%TD*%
%TO.P,R3,2*%
%TO.N,USER_INPUT*%
%TA.AperFunction,SMDPad,CuDef*%
G36*
G01*
X125952000Y-106192600D02*
X125952000Y-106562600D01*
G75*
G02*
X125817000Y-106697600I-135000J0D01*
G01*
X125547000Y-106697600D01*
G75*
G02*
X125412000Y-106562600I0J135000D01*
G01*
X125412000Y-106192600D01*
G75*
G02*
X125547000Y-106057600I135000J0D01*
G01*
X125817000Y-106057600D01*
G75*
G02*
X125952000Y-106192600I0J-135000D01*
G01*
G37*
%TD.AperFunction*%
%TO.P,R3,1*%
%TO.N,BTN_IN*%
%TA.AperFunction,SMDPad,CuDef*%
G36*
G01*
X126972000Y-106192600D02*
X126972000Y-106562600D01*
G75*
G02*
X126837000Y-106697600I-135000J0D01*
G01*
X126567000Y-106697600D01*
G75*
G02*
X126432000Y-106562600I0J135000D01*
G01*
X126432000Y-106192600D01*
G75*
G02*
X126567000Y-106057600I135000J0D01*
G01*
X126837000Y-106057600D01*
G75*
G02*
X126972000Y-106192600I0J-135000D01*
G01*
G37*
%TD.AperFunction*%
%TD*%
%TO.P,R2,2*%
%TO.N,LED1*%
%TA.AperFunction,SMDPad,CuDef*%
G36*
G01*
X155587000Y-101591000D02*
X155217000Y-101591000D01*
G75*
G02*
X155082000Y-101456000I0J135000D01*
G01*
X155082000Y-101186000D01*
G75*
G02*
X155217000Y-101051000I135000J0D01*
G01*
X155587000Y-101051000D01*
G75*
G02*
X155722000Y-101186000I0J-135000D01*
G01*
X155722000Y-101456000D01*
G75*
G02*
X155587000Y-101591000I-135000J0D01*
G01*
G37*
%TD.AperFunction*%
%TO.P,R2,1*%
%TO.N,Net-(D1-Pad2)*%
%TA.AperFunction,SMDPad,CuDef*%
G36*
G01*
X155587000Y-102611000D02*
X155217000Y-102611000D01*
G75*
G02*
X155082000Y-102476000I0J135000D01*
G01*
X155082000Y-102206000D01*
G75*
G02*
X155217000Y-102071000I135000J0D01*
G01*
X155587000Y-102071000D01*
G75*
G02*
X155722000Y-102206000I0J-135000D01*
G01*
X155722000Y-102476000D01*
G75*
G02*
X155587000Y-102611000I-135000J0D01*
G01*
G37*
%TD.AperFunction*%
%TD*%
%TO.P,D2,2*%
%TO.N,Net-(D2-Pad2)*%
%TA.AperFunction,SMDPad,CuDef*%
G36*
G01*
X156047750Y-94942000D02*
X156560250Y-94942000D01*
G75*
G02*
X156779000Y-95160750I0J-218750D01*
G01*
X156779000Y-95598250D01*
G75*
G02*
X156560250Y-95817000I-218750J0D01*
G01*
X156047750Y-95817000D01*
G75*
G02*
X155829000Y-95598250I0J218750D01*
G01*
X155829000Y-95160750D01*
G75*
G02*
X156047750Y-94942000I218750J0D01*
G01*
G37*
%TD.AperFunction*%
%TO.P,D2,1*%
%TO.N,GND*%
%TA.AperFunction,SMDPad,CuDef*%
G36*
G01*
X156047750Y-93367000D02*
X156560250Y-93367000D01*
G75*
G02*
X156779000Y-93585750I0J-218750D01*
G01*
X156779000Y-94023250D01*
G75*
G02*
X156560250Y-94242000I-218750J0D01*
G01*
X156047750Y-94242000D01*
G75*
G02*
X155829000Y-94023250I0J218750D01*
G01*
X155829000Y-93585750D01*
G75*
G02*
X156047750Y-93367000I218750J0D01*
G01*
G37*
%TD.AperFunction*%
%TD*%
D13*
%TO.N,GND*%
X154614600Y-95785800D03*
X131399000Y-81460200D03*
X140543000Y-94084000D03*
X129824200Y-97538400D03*
X123144000Y-97894000D03*
X143464000Y-97640000D03*
X120350000Y-103101000D03*
X130002000Y-94592000D03*
X118445000Y-100434000D03*
X115016000Y-94338000D03*
X144784800Y-85371800D03*
X114127000Y-87861000D03*
X134510503Y-98275003D03*
X124350500Y-110086000D03*
X122540740Y-110879740D03*
X125906250Y-115324750D03*
X131551400Y-98021000D03*
X145902400Y-97233600D03*
X139984200Y-90756600D03*
X118699000Y-79987000D03*
X138130000Y-116486800D03*
X142270200Y-115953400D03*
X148823400Y-112422800D03*
X153166800Y-107698400D03*
X149433000Y-100256200D03*
X153928800Y-101754800D03*
X127741400Y-97538400D03*
D14*
X147934400Y-85778200D03*
D13*
%TO.N,+3V3*%
X121492988Y-109578000D03*
%TO.N,/OLED/SA0*%
X133329400Y-97894000D03*
%TO.N,CANH*%
X122925499Y-112209501D03*
%TO.N,CANL*%
X121810500Y-113388000D03*
%TO.N,SWCLK*%
X129494000Y-90845500D03*
X121493000Y-89829500D03*
%TO.N,NRST*%
X116032000Y-86654500D03*
X141381200Y-87124400D03*
%TO.N,SWDIO*%
X128859613Y-89893789D03*
X125557000Y-89919510D03*
%TO.N,SPARE_1*%
X117175000Y-97640000D03*
%TO.N,SPARE_2*%
X116923000Y-102591000D03*
%TO.N,LED1*%
X153991190Y-86464000D03*
%TO.N,USER_INPUT*%
X131145000Y-92052000D03*
%TO.N,LED3*%
X140365200Y-80469600D03*
%TO.N,LED2*%
X154995600Y-87378400D03*
%TO.N,SPARE_2_IN*%
X118191000Y-94211000D03*
X132732494Y-93576000D03*
%TO.N,SPARE_1_IN*%
X131970500Y-92814000D03*
X118191000Y-92867011D03*
%TO.N,LED5*%
X137698200Y-75186402D03*
%TO.N,LED4*%
X138790400Y-78437600D03*
%TO.N,LED6*%
X136047200Y-75389600D03*
%TO.N,LED7*%
X134320000Y-78031200D03*
%TO.N,LED8*%
X133812000Y-79301200D03*
%TO.N,LED9*%
X126700000Y-86718000D03*
%TO.N,LED10*%
X130192500Y-91607500D03*
%TO.N,CAN_TX*%
X127779500Y-89194500D03*
X118367376Y-90869790D03*
%TO.N,CAN_RX*%
X115016000Y-90782000D03*
X128655403Y-87936811D03*
%TD*%
D15*
%TO.N,GND*%
X110585500Y-94086000D02*
X110304000Y-93804500D01*
%TO.N,+3V3*%
X120225000Y-110086000D02*
X120984988Y-110086000D01*
X120984988Y-110086000D02*
X121492988Y-109578000D01*
D16*
%TO.N,Net-(C6-Pad1)*%
X124350500Y-114340500D02*
X124414000Y-114404000D01*
X124350500Y-113201500D02*
X124350500Y-114340500D01*
X124352500Y-114342500D02*
X124414000Y-114404000D01*
X123080500Y-114342500D02*
X124352500Y-114342500D01*
%TO.N,Net-(D2-Pad2)*%
X154513000Y-93588500D02*
X156304000Y-95379500D01*
X154513000Y-93197000D02*
X154513000Y-93588500D01*
%TO.N,Net-(D4-Pad2)*%
X146865730Y-78054730D02*
X147020000Y-78209000D01*
X146865730Y-76617030D02*
X146865730Y-78054730D01*
%TO.N,Net-(D6-Pad2)*%
X128956748Y-73670252D02*
X128863000Y-73764000D01*
X128956748Y-72172493D02*
X128956748Y-73670252D01*
%TO.N,Net-(D7-Pad2)*%
X119742270Y-77417730D02*
X118951000Y-78209000D01*
X119742270Y-76617030D02*
X119742270Y-77417730D01*
%TO.N,Net-(D3-Pad2)*%
X153108429Y-82910000D02*
X154028771Y-83830342D01*
X152417500Y-82910000D02*
X153108429Y-82910000D01*
%TO.N,Net-(D5-Pad2)*%
X138894000Y-72496000D02*
X138894000Y-73891000D01*
X138701500Y-72303500D02*
X138894000Y-72496000D01*
%TO.N,Net-(D10-Pad2)*%
X119205000Y-108966500D02*
X118800500Y-108562000D01*
X119205000Y-110086000D02*
X119205000Y-108966500D01*
%TO.N,Net-(D1-Pad2)*%
X155402000Y-102341000D02*
X155402000Y-102405429D01*
X155402000Y-102405429D02*
X154028771Y-103778658D01*
%TO.N,Net-(D8-Pad2)*%
X113552371Y-82857200D02*
X112579229Y-83830342D01*
X114660400Y-82857200D02*
X113552371Y-82857200D01*
%TO.N,Net-(D9-Pad2)*%
X111597500Y-94086000D02*
X110304000Y-95379500D01*
X112349000Y-94086000D02*
X111597500Y-94086000D01*
%TO.N,Net-(D11-Pad2)*%
X114294658Y-103778658D02*
X114381000Y-103865000D01*
X112665571Y-103865000D02*
X112579229Y-103778658D01*
X114381000Y-103865000D02*
X112665571Y-103865000D01*
%TO.N,/OLED/SA0*%
X133240500Y-98148000D02*
X133177000Y-98084500D01*
X133240500Y-99926000D02*
X133240500Y-98148000D01*
%TO.N,CANH*%
X122953500Y-112181500D02*
X122925499Y-112209501D01*
X124350500Y-112181500D02*
X122953500Y-112181500D01*
%TO.N,CANL*%
X121876000Y-113322500D02*
X121810500Y-113388000D01*
X123080500Y-113322500D02*
X121876000Y-113322500D01*
%TO.N,SWCLK*%
X122464499Y-90800999D02*
X121493000Y-89829500D01*
X129367000Y-90655000D02*
X129221001Y-90800999D01*
X129221001Y-90800999D02*
X122464499Y-90800999D01*
%TO.N,NRST*%
X116032000Y-86654500D02*
X116730500Y-85956000D01*
X116693501Y-85992999D02*
X116032000Y-86654500D01*
X127829199Y-85992999D02*
X116693501Y-85992999D01*
X141381200Y-87124400D02*
X140249799Y-85992999D01*
X140249799Y-85992999D02*
X127829199Y-85992999D01*
%TO.N,SWDIO*%
X125557000Y-89893000D02*
X125557000Y-89893000D01*
X128859613Y-89893789D02*
X128459614Y-90293788D01*
X128459614Y-90293788D02*
X125931278Y-90293788D01*
X125931278Y-90293788D02*
X125557000Y-89919510D01*
%TO.N,BTN_IN*%
X128881600Y-106377600D02*
X131622000Y-109118000D01*
X126702000Y-106377600D02*
X128881600Y-106377600D01*
X145623000Y-106834800D02*
X146486600Y-105971200D01*
X144340721Y-106834800D02*
X145623000Y-106834800D01*
X140492200Y-111457600D02*
X141584955Y-109577445D01*
X139614924Y-111926524D02*
X140492200Y-111457600D01*
X141584955Y-109577445D02*
X144327045Y-106835355D01*
X138028400Y-110340000D02*
X139614924Y-111926524D01*
X133456400Y-110340000D02*
X138028400Y-110340000D01*
X132234400Y-109118000D02*
X133456400Y-110340000D01*
X131622000Y-109118000D02*
X132234400Y-109118000D01*
%TO.N,SPARE_1*%
X131139010Y-105635010D02*
X134622000Y-109118000D01*
X121439030Y-105635010D02*
X131139010Y-105635010D01*
X119486400Y-103682380D02*
X121439030Y-105635010D01*
X119486400Y-99951400D02*
X119486400Y-103682380D01*
X117175000Y-97640000D02*
X119486400Y-99951400D01*
%TO.N,SPARE_2*%
X133862800Y-112118000D02*
X134622000Y-112118000D01*
X132338800Y-110594000D02*
X133862800Y-112118000D01*
X130827500Y-110594000D02*
X132338800Y-110594000D01*
X130129000Y-109895500D02*
X130827500Y-110594000D01*
X128668500Y-107165000D02*
X130129000Y-108625500D01*
X121696200Y-107165000D02*
X128668500Y-107165000D01*
X116923000Y-102591000D02*
X117122200Y-102591000D01*
X130129000Y-108625500D02*
X130129000Y-109895500D01*
X117122200Y-102591000D02*
X121696200Y-107165000D01*
%TO.N,LED1*%
X152182601Y-98421601D02*
X152182601Y-88272589D01*
X155402000Y-101321000D02*
X155082000Y-101321000D01*
X152182601Y-88272589D02*
X153991190Y-86464000D01*
X155082000Y-101321000D02*
X152182601Y-98421601D01*
%TO.N,USER_INPUT*%
X121545210Y-106377600D02*
X125682000Y-106377600D01*
X131145000Y-92052000D02*
X130864499Y-92332501D01*
X129563998Y-92052000D02*
X115574800Y-92052000D01*
X118165600Y-102997990D02*
X121545210Y-106377600D01*
X118165600Y-102161200D02*
X118165600Y-102997990D01*
X114196011Y-98191611D02*
X118165600Y-102161200D01*
X114196011Y-93430789D02*
X114196011Y-98191611D01*
X115574800Y-92052000D02*
X114196011Y-93430789D01*
X129844499Y-92332501D02*
X129563998Y-92052000D01*
X130864499Y-92332501D02*
X129844499Y-92332501D01*
%TO.N,LED3*%
X141785600Y-81890000D02*
X140365200Y-80469600D01*
X152417500Y-81890000D02*
X141785600Y-81890000D01*
%TO.N,LED2*%
X154513000Y-87861000D02*
X154995600Y-87378400D01*
X154513000Y-92177000D02*
X154513000Y-87861000D01*
%TO.N,SPARE_2_IN*%
X118826000Y-93576000D02*
X132732494Y-93576000D01*
X118191000Y-94211000D02*
X118826000Y-93576000D01*
%TO.N,SPARE_1_IN*%
X131970500Y-92814000D02*
X131769935Y-92814000D01*
X131970500Y-92814000D02*
X118244011Y-92814000D01*
X118244011Y-92814000D02*
X118191000Y-92867011D01*
%TO.N,LED5*%
X137874000Y-73891000D02*
X137874000Y-75010602D01*
X137874000Y-75010602D02*
X137698200Y-75186402D01*
%TO.N,LED4*%
X139019000Y-78209000D02*
X138790400Y-78437600D01*
X146000000Y-78209000D02*
X139019000Y-78209000D01*
%TO.N,LED6*%
X129468600Y-75389600D02*
X136047200Y-75389600D01*
X127843000Y-73764000D02*
X129468600Y-75389600D01*
%TO.N,LED7*%
X119971000Y-78209000D02*
X134142200Y-78209000D01*
X134142200Y-78209000D02*
X134320000Y-78031200D01*
%TO.N,LED8*%
X129036802Y-79301200D02*
X133812000Y-79301200D01*
X126498802Y-81839200D02*
X129036802Y-79301200D01*
X114660400Y-81839200D02*
X126498802Y-81839200D01*
%TO.N,LED9*%
X112349000Y-92375998D02*
X112349000Y-93066000D01*
X118006998Y-86718000D02*
X112349000Y-92375998D01*
X126700000Y-86718000D02*
X118006998Y-86718000D01*
%TO.N,LED10*%
X113746000Y-102210000D02*
X114381000Y-102845000D01*
X113746000Y-93169600D02*
X113746000Y-102210000D01*
X115320800Y-91594800D02*
X113746000Y-93169600D01*
X130129000Y-91544000D02*
X130078200Y-91594800D01*
X130078200Y-91594800D02*
X115320800Y-91594800D01*
%TO.N,CAN_TX*%
X120259667Y-88977499D02*
X118367376Y-90869790D01*
X122312002Y-89194500D02*
X122095001Y-88977499D01*
X122095001Y-88977499D02*
X120259667Y-88977499D01*
X127525500Y-89194500D02*
X122312002Y-89194500D01*
%TO.N,CAN_RX*%
X115016000Y-90782000D02*
X115016000Y-90782000D01*
X117371010Y-88426990D02*
X115016000Y-90782000D01*
X126642010Y-88426990D02*
X117371010Y-88426990D01*
X128223214Y-88369000D02*
X126700000Y-88369000D01*
X128655403Y-87936811D02*
X128223214Y-88369000D01*
%TD*%
D17*
%TO.N,GND*%
X132261748Y-70322013D02*
X132034013Y-70549748D01*
X131855082Y-70817537D01*
X131731832Y-71115088D01*
X131669000Y-71430967D01*
X131669000Y-71753033D01*
X131731832Y-72068912D01*
X131855082Y-72366463D01*
X132034013Y-72634252D01*
X132261748Y-72861987D01*
X132529537Y-73040918D01*
X132827088Y-73164168D01*
X133142967Y-73227000D01*
X133465033Y-73227000D01*
X133780912Y-73164168D01*
X134078463Y-73040918D01*
X134346252Y-72861987D01*
X134429739Y-72778500D01*
X136208676Y-72778500D01*
X136215955Y-72852405D01*
X136237512Y-72923470D01*
X136272519Y-72988963D01*
X136319631Y-73046369D01*
X136377037Y-73093481D01*
X136442530Y-73128488D01*
X136513595Y-73150045D01*
X136587500Y-73157324D01*
X136807750Y-73155500D01*
X136902000Y-73061250D01*
X136902000Y-72426500D01*
X136304750Y-72426500D01*
X136210500Y-72520750D01*
X136208676Y-72778500D01*
X134429739Y-72778500D01*
X134573987Y-72634252D01*
X134752918Y-72366463D01*
X134876168Y-72068912D01*
X134923988Y-71828500D01*
X136208676Y-71828500D01*
X136210500Y-72086250D01*
X136304750Y-72180500D01*
X136902000Y-72180500D01*
X136902000Y-71545750D01*
X136807750Y-71451500D01*
X136587500Y-71449676D01*
X136513595Y-71456955D01*
X136442530Y-71478512D01*
X136377037Y-71513519D01*
X136319631Y-71560631D01*
X136272519Y-71618037D01*
X136237512Y-71683530D01*
X136215955Y-71754595D01*
X136208676Y-71828500D01*
X134923988Y-71828500D01*
X134939000Y-71753033D01*
X134939000Y-71430967D01*
X134876168Y-71115088D01*
X134752918Y-70817537D01*
X134573987Y-70549748D01*
X134346252Y-70322013D01*
X134293893Y-70287028D01*
X135719837Y-70372187D01*
X137636469Y-70640689D01*
X139525709Y-71060618D01*
X141375613Y-71629320D01*
X143174486Y-72343200D01*
X144910955Y-73197744D01*
X146574041Y-74187549D01*
X148153229Y-75306358D01*
X149638536Y-76547097D01*
X151020570Y-77901921D01*
X152290595Y-79362265D01*
X153440580Y-80918897D01*
X154463255Y-82561975D01*
X154593643Y-82814147D01*
X154452179Y-82771234D01*
X154285021Y-82754770D01*
X154028000Y-82754770D01*
X153672232Y-82399002D01*
X153648430Y-82369999D01*
X153532705Y-82275026D01*
X153400676Y-82204454D01*
X153356131Y-82190942D01*
X153360718Y-82175819D01*
X153375572Y-82025000D01*
X153375572Y-81755000D01*
X153360718Y-81604181D01*
X153316725Y-81459158D01*
X153245286Y-81325504D01*
X153149144Y-81208356D01*
X153031996Y-81112214D01*
X152898342Y-81040775D01*
X152753319Y-80996782D01*
X152602500Y-80981928D01*
X152232500Y-80981928D01*
X152081681Y-80996782D01*
X151936658Y-81040775D01*
X151803004Y-81112214D01*
X151781332Y-81130000D01*
X142100402Y-81130000D01*
X141400200Y-80429799D01*
X141400200Y-80367661D01*
X141360426Y-80167702D01*
X141282405Y-79979344D01*
X141169137Y-79809826D01*
X141024974Y-79665663D01*
X140855456Y-79552395D01*
X140667098Y-79474374D01*
X140467139Y-79434600D01*
X140263261Y-79434600D01*
X140063302Y-79474374D01*
X139874944Y-79552395D01*
X139705426Y-79665663D01*
X139561263Y-79809826D01*
X139447995Y-79979344D01*
X139369974Y-80167702D01*
X139330200Y-80367661D01*
X139330200Y-80571539D01*
X139369974Y-80771498D01*
X139447995Y-80959856D01*
X139561263Y-81129374D01*
X139705426Y-81273537D01*
X139874944Y-81386805D01*
X140063302Y-81464826D01*
X140263261Y-81504600D01*
X140325399Y-81504600D01*
X141221801Y-82401003D01*
X141245599Y-82430001D01*
X141274597Y-82453799D01*
X141361323Y-82524974D01*
X141479615Y-82588203D01*
X141493353Y-82595546D01*
X141636614Y-82639003D01*
X141748267Y-82650000D01*
X141748277Y-82650000D01*
X141785600Y-82653676D01*
X141822923Y-82650000D01*
X151471739Y-82650000D01*
X151459428Y-82775000D01*
X151459428Y-83045000D01*
X151474282Y-83195819D01*
X151518275Y-83340842D01*
X151589714Y-83474496D01*
X151685856Y-83591644D01*
X151803004Y-83687786D01*
X151936658Y-83759225D01*
X152081681Y-83803218D01*
X152232500Y-83818072D01*
X152602500Y-83818072D01*
X152753319Y-83803218D01*
X152886458Y-83762830D01*
X152915699Y-83792071D01*
X152915699Y-84049092D01*
X152932163Y-84216250D01*
X152980921Y-84376984D01*
X153060100Y-84525117D01*
X153166656Y-84654957D01*
X153259987Y-84731551D01*
X153238790Y-84757379D01*
X153203783Y-84822872D01*
X153182226Y-84893937D01*
X153174947Y-84967842D01*
X153176771Y-85188092D01*
X153271021Y-85282342D01*
X153905771Y-85282342D01*
X153905771Y-85262342D01*
X154151771Y-85262342D01*
X154151771Y-85282342D01*
X154786521Y-85282342D01*
X154880771Y-85188092D01*
X154882595Y-84967842D01*
X154875316Y-84893937D01*
X154853759Y-84822872D01*
X154818752Y-84757379D01*
X154797555Y-84731551D01*
X154890886Y-84654957D01*
X154997442Y-84525117D01*
X155076621Y-84376984D01*
X155125379Y-84216250D01*
X155141843Y-84049092D01*
X155141843Y-83874366D01*
X155352155Y-84281110D01*
X156101659Y-86065434D01*
X156707029Y-87903666D01*
X157164438Y-89784183D01*
X157470993Y-91695097D01*
X157624757Y-93624326D01*
X157624757Y-95559674D01*
X157470993Y-97488903D01*
X157414852Y-97838860D01*
X157403496Y-97811445D01*
X157224565Y-97543656D01*
X156996830Y-97315921D01*
X156729041Y-97136990D01*
X156431490Y-97013740D01*
X156115611Y-96950908D01*
X155793545Y-96950908D01*
X155477666Y-97013740D01*
X155180115Y-97136990D01*
X154912326Y-97315921D01*
X154684591Y-97543656D01*
X154505660Y-97811445D01*
X154382410Y-98108996D01*
X154319578Y-98424875D01*
X154319578Y-98746941D01*
X154382410Y-99062820D01*
X154505660Y-99360371D01*
X154684591Y-99628160D01*
X154912326Y-99855895D01*
X155180115Y-100034826D01*
X155477666Y-100158076D01*
X155793545Y-100220908D01*
X156115611Y-100220908D01*
X156431490Y-100158076D01*
X156729041Y-100034826D01*
X156996830Y-99855895D01*
X157071719Y-99781006D01*
X156707029Y-101280334D01*
X156360072Y-102333884D01*
X156360072Y-102206000D01*
X156345218Y-102055181D01*
X156301225Y-101910158D01*
X156258914Y-101831000D01*
X156301225Y-101751842D01*
X156345218Y-101606819D01*
X156360072Y-101456000D01*
X156360072Y-101186000D01*
X156345218Y-101035181D01*
X156301225Y-100890158D01*
X156229786Y-100756504D01*
X156133644Y-100639356D01*
X156016496Y-100543214D01*
X155882842Y-100471775D01*
X155737819Y-100427782D01*
X155587000Y-100412928D01*
X155248731Y-100412928D01*
X152942601Y-98106800D01*
X152942601Y-88587390D01*
X153758101Y-87771891D01*
X153749324Y-87861000D01*
X153753001Y-87898332D01*
X153753000Y-91529907D01*
X153685214Y-91612504D01*
X153613775Y-91746158D01*
X153569782Y-91891181D01*
X153554928Y-92042000D01*
X153554928Y-92312000D01*
X153569782Y-92462819D01*
X153613775Y-92607842D01*
X153656086Y-92687000D01*
X153613775Y-92766158D01*
X153569782Y-92911181D01*
X153554928Y-93062000D01*
X153554928Y-93332000D01*
X153569782Y-93482819D01*
X153613775Y-93627842D01*
X153685214Y-93761496D01*
X153781356Y-93878644D01*
X153825847Y-93915157D01*
X153878026Y-94012776D01*
X153972999Y-94128501D01*
X154002001Y-94152302D01*
X155190928Y-95341230D01*
X155190928Y-95598250D01*
X155207392Y-95765408D01*
X155256150Y-95926142D01*
X155335329Y-96074275D01*
X155441885Y-96204115D01*
X155571725Y-96310671D01*
X155719858Y-96389850D01*
X155880592Y-96438608D01*
X156047750Y-96455072D01*
X156560250Y-96455072D01*
X156727408Y-96438608D01*
X156888142Y-96389850D01*
X157036275Y-96310671D01*
X157166115Y-96204115D01*
X157272671Y-96074275D01*
X157351850Y-95926142D01*
X157400608Y-95765408D01*
X157417072Y-95598250D01*
X157417072Y-95160750D01*
X157400608Y-94993592D01*
X157351850Y-94832858D01*
X157272671Y-94684725D01*
X157166115Y-94554885D01*
X157072784Y-94478291D01*
X157093981Y-94452463D01*
X157128988Y-94386970D01*
X157150545Y-94315905D01*
X157157824Y-94242000D01*
X157156000Y-94021750D01*
X157061750Y-93927500D01*
X156427000Y-93927500D01*
X156427000Y-93947500D01*
X156181000Y-93947500D01*
X156181000Y-93927500D01*
X156161000Y-93927500D01*
X156161000Y-93681500D01*
X156181000Y-93681500D01*
X156181000Y-93084250D01*
X156427000Y-93084250D01*
X156427000Y-93681500D01*
X157061750Y-93681500D01*
X157156000Y-93587250D01*
X157157824Y-93367000D01*
X157150545Y-93293095D01*
X157128988Y-93222030D01*
X157093981Y-93156537D01*
X157046869Y-93099131D01*
X156989463Y-93052019D01*
X156923970Y-93017012D01*
X156852905Y-92995455D01*
X156779000Y-92988176D01*
X156521250Y-92990000D01*
X156427000Y-93084250D01*
X156181000Y-93084250D01*
X156086750Y-92990000D01*
X155829000Y-92988176D01*
X155755095Y-92995455D01*
X155684030Y-93017012D01*
X155618537Y-93052019D01*
X155561131Y-93099131D01*
X155514019Y-93156537D01*
X155479012Y-93222030D01*
X155471072Y-93248205D01*
X155471072Y-93062000D01*
X155456218Y-92911181D01*
X155412225Y-92766158D01*
X155369914Y-92687000D01*
X155412225Y-92607842D01*
X155456218Y-92462819D01*
X155471072Y-92312000D01*
X155471072Y-92042000D01*
X155456218Y-91891181D01*
X155412225Y-91746158D01*
X155340786Y-91612504D01*
X155273000Y-91529907D01*
X155273000Y-88378499D01*
X155297498Y-88373626D01*
X155485856Y-88295605D01*
X155655374Y-88182337D01*
X155799537Y-88038174D01*
X155912805Y-87868656D01*
X155990826Y-87680298D01*
X156030600Y-87480339D01*
X156030600Y-87276461D01*
X155990826Y-87076502D01*
X155912805Y-86888144D01*
X155799537Y-86718626D01*
X155655374Y-86574463D01*
X155485856Y-86461195D01*
X155297498Y-86383174D01*
X155097539Y-86343400D01*
X155022478Y-86343400D01*
X154986416Y-86162102D01*
X154908395Y-85973744D01*
X154873753Y-85921899D01*
X154875316Y-85916747D01*
X154882595Y-85842842D01*
X154880771Y-85622592D01*
X154786521Y-85528342D01*
X154436897Y-85528342D01*
X154293088Y-85468774D01*
X154093129Y-85429000D01*
X153889251Y-85429000D01*
X153689292Y-85468774D01*
X153545483Y-85528342D01*
X153271021Y-85528342D01*
X153176771Y-85622592D01*
X153175116Y-85822390D01*
X153073985Y-85973744D01*
X152995964Y-86162102D01*
X152956190Y-86362061D01*
X152956190Y-86424198D01*
X151671599Y-87708790D01*
X151642601Y-87732588D01*
X151618803Y-87761586D01*
X151618802Y-87761587D01*
X151547627Y-87848313D01*
X151477055Y-87980343D01*
X151468064Y-88009985D01*
X151433599Y-88123603D01*
X151422602Y-88235256D01*
X151418925Y-88272589D01*
X151422602Y-88309921D01*
X151422601Y-98384279D01*
X151418925Y-98421601D01*
X151422601Y-98458923D01*
X151422601Y-98458933D01*
X151433598Y-98570586D01*
X151465271Y-98675000D01*
X151477055Y-98713847D01*
X151547627Y-98845877D01*
X151583203Y-98889226D01*
X151642600Y-98961602D01*
X151671604Y-98985405D01*
X154518205Y-101832008D01*
X154534157Y-101851446D01*
X154502775Y-101910158D01*
X154458782Y-102055181D01*
X154443928Y-102206000D01*
X154443928Y-102288699D01*
X153968283Y-102764344D01*
X153943750Y-102761928D01*
X153431250Y-102761928D01*
X153264092Y-102778392D01*
X153103358Y-102827150D01*
X152955225Y-102906329D01*
X152825385Y-103012885D01*
X152718829Y-103142725D01*
X152639650Y-103290858D01*
X152590892Y-103451592D01*
X152574428Y-103618750D01*
X152574428Y-104056250D01*
X152590892Y-104223408D01*
X152639650Y-104384142D01*
X152718829Y-104532275D01*
X152825385Y-104662115D01*
X152918716Y-104738709D01*
X152897519Y-104764537D01*
X152862512Y-104830030D01*
X152840955Y-104901095D01*
X152833676Y-104975000D01*
X152835500Y-105195250D01*
X152929750Y-105289500D01*
X153564500Y-105289500D01*
X153564500Y-105269500D01*
X153810500Y-105269500D01*
X153810500Y-105289500D01*
X154445250Y-105289500D01*
X154539500Y-105195250D01*
X154541324Y-104975000D01*
X154534045Y-104901095D01*
X154512488Y-104830030D01*
X154477481Y-104764537D01*
X154456284Y-104738709D01*
X154549615Y-104662115D01*
X154656171Y-104532275D01*
X154735350Y-104384142D01*
X154784108Y-104223408D01*
X154797796Y-104084434D01*
X155638202Y-103244029D01*
X155737819Y-103234218D01*
X155882842Y-103190225D01*
X156016496Y-103118786D01*
X156133102Y-103023089D01*
X156101659Y-103118566D01*
X155352155Y-104902890D01*
X154463255Y-106622025D01*
X153440580Y-108265103D01*
X152290595Y-109821735D01*
X151020570Y-111282079D01*
X149638536Y-112636903D01*
X148153229Y-113877642D01*
X146574041Y-114996451D01*
X144910955Y-115986256D01*
X143174486Y-116840800D01*
X141375613Y-117554680D01*
X139525709Y-118123382D01*
X137636469Y-118543311D01*
X135719837Y-118811813D01*
X134293893Y-118896972D01*
X134346252Y-118861987D01*
X134573987Y-118634252D01*
X134752918Y-118366463D01*
X134876168Y-118068912D01*
X134939000Y-117753033D01*
X134939000Y-117430967D01*
X134876168Y-117115088D01*
X134752918Y-116817537D01*
X134573987Y-116549748D01*
X134346252Y-116322013D01*
X134078463Y-116143082D01*
X133780912Y-116019832D01*
X133465033Y-115957000D01*
X133142967Y-115957000D01*
X132827088Y-116019832D01*
X132529537Y-116143082D01*
X132261748Y-116322013D01*
X132034013Y-116549748D01*
X131855082Y-116817537D01*
X131731832Y-117115088D01*
X131669000Y-117430967D01*
X131669000Y-117753033D01*
X131731832Y-118068912D01*
X131855082Y-118366463D01*
X132034013Y-118634252D01*
X132261748Y-118861987D01*
X132315508Y-118897908D01*
X131852968Y-118888710D01*
X129927177Y-118696619D01*
X128022736Y-118352131D01*
X126151684Y-117857425D01*
X124325852Y-117215626D01*
X122556783Y-116430794D01*
X121106542Y-115644000D01*
X123725176Y-115644000D01*
X123732455Y-115717905D01*
X123754012Y-115788970D01*
X123789019Y-115854463D01*
X123836131Y-115911869D01*
X123893537Y-115958981D01*
X123959030Y-115993988D01*
X124030095Y-116015545D01*
X124104000Y-116022824D01*
X124196750Y-116021000D01*
X124291000Y-115926750D01*
X124291000Y-115487000D01*
X124537000Y-115487000D01*
X124537000Y-115926750D01*
X124631250Y-116021000D01*
X124724000Y-116022824D01*
X124797905Y-116015545D01*
X124868970Y-115993988D01*
X124934463Y-115958981D01*
X124991869Y-115911869D01*
X125038981Y-115854463D01*
X125073988Y-115788970D01*
X125095545Y-115717905D01*
X125099450Y-115678256D01*
X143310473Y-115678256D01*
X143310473Y-115811546D01*
X143615184Y-116118836D01*
X143672589Y-116165948D01*
X143738083Y-116200955D01*
X143809147Y-116222512D01*
X143883053Y-116229791D01*
X143956958Y-116222512D01*
X144028022Y-116200955D01*
X144093516Y-116165948D01*
X144150922Y-116118836D01*
X144544021Y-115723158D01*
X144544021Y-115589868D01*
X143971441Y-115017288D01*
X143310473Y-115678256D01*
X125099450Y-115678256D01*
X125102824Y-115644000D01*
X125101000Y-115581250D01*
X125006750Y-115487000D01*
X124537000Y-115487000D01*
X124291000Y-115487000D01*
X123821250Y-115487000D01*
X123727000Y-115581250D01*
X123725176Y-115644000D01*
X121106542Y-115644000D01*
X120855660Y-115507890D01*
X119233241Y-114452749D01*
X117717990Y-113286061D01*
X120775500Y-113286061D01*
X120775500Y-113489939D01*
X120815274Y-113689898D01*
X120893295Y-113878256D01*
X121006563Y-114047774D01*
X121150726Y-114191937D01*
X121320244Y-114305205D01*
X121508602Y-114383226D01*
X121708561Y-114423000D01*
X121912439Y-114423000D01*
X122112398Y-114383226D01*
X122122428Y-114379071D01*
X122122428Y-114477500D01*
X122137282Y-114628319D01*
X122181275Y-114773342D01*
X122252714Y-114906996D01*
X122348856Y-115024144D01*
X122466004Y-115120286D01*
X122599658Y-115191725D01*
X122744681Y-115235718D01*
X122895500Y-115250572D01*
X123265500Y-115250572D01*
X123416319Y-115235718D01*
X123561342Y-115191725D01*
X123694996Y-115120286D01*
X123710313Y-115107715D01*
X123726245Y-115120791D01*
X123727000Y-115146750D01*
X123821250Y-115241000D01*
X123905376Y-115241000D01*
X123946245Y-115262845D01*
X124092206Y-115307122D01*
X124244000Y-115322072D01*
X124584000Y-115322072D01*
X124735794Y-115307122D01*
X124881755Y-115262845D01*
X124922624Y-115241000D01*
X125006750Y-115241000D01*
X125101000Y-115146750D01*
X125101755Y-115120791D01*
X125134180Y-115094180D01*
X125230943Y-114976274D01*
X125254753Y-114931728D01*
X142584990Y-114931728D01*
X142592269Y-115005634D01*
X142613826Y-115076698D01*
X142648833Y-115142192D01*
X142695945Y-115199597D01*
X143003235Y-115504308D01*
X143136525Y-115504308D01*
X143797493Y-114843340D01*
X144145389Y-114843340D01*
X144717969Y-115415920D01*
X144851259Y-115415920D01*
X145246937Y-115022821D01*
X145294049Y-114965415D01*
X145329056Y-114899921D01*
X145350613Y-114828857D01*
X145357892Y-114754952D01*
X145350613Y-114681046D01*
X145329056Y-114609982D01*
X145294049Y-114544488D01*
X145246937Y-114487083D01*
X144939647Y-114182372D01*
X144806357Y-114182372D01*
X144145389Y-114843340D01*
X143797493Y-114843340D01*
X143224913Y-114270760D01*
X143091623Y-114270760D01*
X142695945Y-114663859D01*
X142648833Y-114721265D01*
X142613826Y-114786759D01*
X142592269Y-114857823D01*
X142584990Y-114931728D01*
X125254753Y-114931728D01*
X125302845Y-114841755D01*
X125347122Y-114695794D01*
X125362072Y-114544000D01*
X125362072Y-114264000D01*
X125347122Y-114112206D01*
X125302845Y-113966245D01*
X125301390Y-113963522D01*
X143398861Y-113963522D01*
X143398861Y-114096812D01*
X143971441Y-114669392D01*
X144632409Y-114008424D01*
X144632409Y-113875134D01*
X144327698Y-113567844D01*
X144270293Y-113520732D01*
X144204799Y-113485725D01*
X144133735Y-113464168D01*
X144059829Y-113456889D01*
X143985924Y-113464168D01*
X143914860Y-113485725D01*
X143849366Y-113520732D01*
X143791960Y-113567844D01*
X143398861Y-113963522D01*
X125301390Y-113963522D01*
X125230943Y-113831726D01*
X125177643Y-113766780D01*
X125178286Y-113765996D01*
X125249725Y-113632342D01*
X125293718Y-113487319D01*
X125308572Y-113336500D01*
X125308572Y-113066500D01*
X125293718Y-112915681D01*
X125249725Y-112770658D01*
X125207414Y-112691500D01*
X125249725Y-112612342D01*
X125293718Y-112467319D01*
X125308572Y-112316500D01*
X125308572Y-112046500D01*
X125302179Y-111981589D01*
X127237000Y-111981589D01*
X127237000Y-112254411D01*
X127290225Y-112521989D01*
X127394629Y-112774043D01*
X127546201Y-113000886D01*
X127739114Y-113193799D01*
X127965957Y-113345371D01*
X128218011Y-113449775D01*
X128485589Y-113503000D01*
X128758411Y-113503000D01*
X129025989Y-113449775D01*
X129278043Y-113345371D01*
X129504886Y-113193799D01*
X129697799Y-113000886D01*
X129849371Y-112774043D01*
X129953775Y-112521989D01*
X130007000Y-112254411D01*
X130007000Y-111981589D01*
X129953775Y-111714011D01*
X129849371Y-111461957D01*
X129697799Y-111235114D01*
X129504886Y-111042201D01*
X129278043Y-110890629D01*
X129025989Y-110786225D01*
X128758411Y-110733000D01*
X128485589Y-110733000D01*
X128218011Y-110786225D01*
X127965957Y-110890629D01*
X127739114Y-111042201D01*
X127546201Y-111235114D01*
X127394629Y-111461957D01*
X127290225Y-111714011D01*
X127237000Y-111981589D01*
X125302179Y-111981589D01*
X125293718Y-111895681D01*
X125249725Y-111750658D01*
X125178286Y-111617004D01*
X125082144Y-111499856D01*
X124964996Y-111403714D01*
X124831342Y-111332275D01*
X124686319Y-111288282D01*
X124535500Y-111273428D01*
X124165500Y-111273428D01*
X124014681Y-111288282D01*
X123869658Y-111332275D01*
X123736004Y-111403714D01*
X123714332Y-111421500D01*
X123601209Y-111421500D01*
X123585273Y-111405564D01*
X123415755Y-111292296D01*
X123227397Y-111214275D01*
X123027438Y-111174501D01*
X122823560Y-111174501D01*
X122623601Y-111214275D01*
X122435243Y-111292296D01*
X122265725Y-111405564D01*
X122121562Y-111549727D01*
X122008294Y-111719245D01*
X121930273Y-111907603D01*
X121890499Y-112107562D01*
X121890499Y-112311440D01*
X121898766Y-112353000D01*
X121708561Y-112353000D01*
X121508602Y-112392774D01*
X121320244Y-112470795D01*
X121150726Y-112584063D01*
X121006563Y-112728226D01*
X120893295Y-112897744D01*
X120815274Y-113086102D01*
X120775500Y-113286061D01*
X117717990Y-113286061D01*
X117699781Y-113272041D01*
X116264976Y-111973233D01*
X114937897Y-110564535D01*
X113726935Y-109054853D01*
X113218281Y-108305750D01*
X117724928Y-108305750D01*
X117724928Y-108818250D01*
X117741392Y-108985408D01*
X117790150Y-109146142D01*
X117869329Y-109294275D01*
X117975885Y-109424115D01*
X118105725Y-109530671D01*
X118253858Y-109609850D01*
X118345883Y-109637766D01*
X118311782Y-109750181D01*
X118296928Y-109901000D01*
X118296928Y-110271000D01*
X118311782Y-110421819D01*
X118355775Y-110566842D01*
X118427214Y-110700496D01*
X118523356Y-110817644D01*
X118640504Y-110913786D01*
X118774158Y-110985225D01*
X118919181Y-111029218D01*
X119070000Y-111044072D01*
X119340000Y-111044072D01*
X119490819Y-111029218D01*
X119635842Y-110985225D01*
X119715000Y-110942914D01*
X119794158Y-110985225D01*
X119939181Y-111029218D01*
X120090000Y-111044072D01*
X120360000Y-111044072D01*
X120510819Y-111029218D01*
X120655842Y-110985225D01*
X120682455Y-110971000D01*
X120941519Y-110971000D01*
X120984988Y-110975281D01*
X121028457Y-110971000D01*
X121028465Y-110971000D01*
X121158478Y-110958195D01*
X121325301Y-110907589D01*
X121479047Y-110825411D01*
X121613805Y-110714817D01*
X121641522Y-110681044D01*
X121738031Y-110584535D01*
X121794886Y-110573226D01*
X121983244Y-110495205D01*
X122152762Y-110381937D01*
X122296925Y-110237774D01*
X122410193Y-110068256D01*
X122488214Y-109879898D01*
X122527988Y-109679939D01*
X122527988Y-109476061D01*
X122488214Y-109276102D01*
X122410193Y-109087744D01*
X122296925Y-108918226D01*
X122152762Y-108774063D01*
X121983244Y-108660795D01*
X121794886Y-108582774D01*
X121594927Y-108543000D01*
X121391049Y-108543000D01*
X121191090Y-108582774D01*
X121002732Y-108660795D01*
X120966507Y-108685000D01*
X120498500Y-108685000D01*
X120498500Y-108705000D01*
X120252500Y-108705000D01*
X120252500Y-108685000D01*
X120232500Y-108685000D01*
X120232500Y-108439000D01*
X120252500Y-108439000D01*
X120252500Y-107804250D01*
X120498500Y-107804250D01*
X120498500Y-108439000D01*
X121095750Y-108439000D01*
X121190000Y-108344750D01*
X121191824Y-108087000D01*
X121184545Y-108013095D01*
X121162988Y-107942030D01*
X121127981Y-107876537D01*
X121080869Y-107819131D01*
X121023463Y-107772019D01*
X120957970Y-107737012D01*
X120886905Y-107715455D01*
X120813000Y-107708176D01*
X120592750Y-107710000D01*
X120498500Y-107804250D01*
X120252500Y-107804250D01*
X120158250Y-107710000D01*
X119938000Y-107708176D01*
X119864095Y-107715455D01*
X119793030Y-107737012D01*
X119727537Y-107772019D01*
X119701709Y-107793216D01*
X119625115Y-107699885D01*
X119495275Y-107593329D01*
X119347142Y-107514150D01*
X119186408Y-107465392D01*
X119019250Y-107448928D01*
X118581750Y-107448928D01*
X118414592Y-107465392D01*
X118253858Y-107514150D01*
X118105725Y-107593329D01*
X117975885Y-107699885D01*
X117869329Y-107829725D01*
X117790150Y-107977858D01*
X117741392Y-108138592D01*
X117724928Y-108305750D01*
X113218281Y-108305750D01*
X112639745Y-107453733D01*
X111855913Y-106075074D01*
X111893766Y-106106139D01*
X111959259Y-106141146D01*
X112030324Y-106162703D01*
X112104229Y-106169982D01*
X112361979Y-106168158D01*
X112456229Y-106073908D01*
X112456229Y-105476658D01*
X112702229Y-105476658D01*
X112702229Y-106073908D01*
X112796479Y-106168158D01*
X113054229Y-106169982D01*
X113128134Y-106162703D01*
X113199199Y-106141146D01*
X113264692Y-106106139D01*
X113322098Y-106059027D01*
X113369210Y-106001621D01*
X113404217Y-105936128D01*
X113425774Y-105865063D01*
X113433053Y-105791158D01*
X113431229Y-105570908D01*
X113336979Y-105476658D01*
X112702229Y-105476658D01*
X112456229Y-105476658D01*
X111821479Y-105476658D01*
X111727229Y-105570908D01*
X111725405Y-105791158D01*
X111731882Y-105856919D01*
X111683201Y-105771296D01*
X110863351Y-104018180D01*
X110185378Y-102205469D01*
X109653568Y-100344624D01*
X109540939Y-99785664D01*
X109611170Y-99855895D01*
X109878959Y-100034826D01*
X110176510Y-100158076D01*
X110492389Y-100220908D01*
X110814455Y-100220908D01*
X111130334Y-100158076D01*
X111427885Y-100034826D01*
X111695674Y-99855895D01*
X111923409Y-99628160D01*
X112102340Y-99360371D01*
X112225590Y-99062820D01*
X112288422Y-98746941D01*
X112288422Y-98424875D01*
X112225590Y-98108996D01*
X112102340Y-97811445D01*
X111923409Y-97543656D01*
X111695674Y-97315921D01*
X111427885Y-97136990D01*
X111130334Y-97013740D01*
X110814455Y-96950908D01*
X110492389Y-96950908D01*
X110176510Y-97013740D01*
X109878959Y-97136990D01*
X109611170Y-97315921D01*
X109383435Y-97543656D01*
X109204504Y-97811445D01*
X109197173Y-97829144D01*
X109040943Y-96525817D01*
X108986630Y-95160750D01*
X109190928Y-95160750D01*
X109190928Y-95598250D01*
X109207392Y-95765408D01*
X109256150Y-95926142D01*
X109335329Y-96074275D01*
X109441885Y-96204115D01*
X109571725Y-96310671D01*
X109719858Y-96389850D01*
X109880592Y-96438608D01*
X110047750Y-96455072D01*
X110560250Y-96455072D01*
X110727408Y-96438608D01*
X110888142Y-96389850D01*
X111036275Y-96310671D01*
X111166115Y-96204115D01*
X111272671Y-96074275D01*
X111351850Y-95926142D01*
X111400608Y-95765408D01*
X111417072Y-95598250D01*
X111417072Y-95341229D01*
X111838780Y-94919522D01*
X111868158Y-94935225D01*
X112013181Y-94979218D01*
X112164000Y-94994072D01*
X112534000Y-94994072D01*
X112684819Y-94979218D01*
X112829842Y-94935225D01*
X112963496Y-94863786D01*
X112986000Y-94845317D01*
X112986001Y-102172668D01*
X112982324Y-102210000D01*
X112986001Y-102247333D01*
X112996998Y-102358986D01*
X113010180Y-102402442D01*
X113040454Y-102502246D01*
X113111026Y-102634276D01*
X113182201Y-102721002D01*
X113206000Y-102750001D01*
X113234998Y-102773799D01*
X113305450Y-102844251D01*
X113163371Y-102768308D01*
X113002637Y-102719550D01*
X112835479Y-102703086D01*
X112322979Y-102703086D01*
X112155821Y-102719550D01*
X111995087Y-102768308D01*
X111846954Y-102847487D01*
X111717114Y-102954043D01*
X111610558Y-103083883D01*
X111531379Y-103232016D01*
X111482621Y-103392750D01*
X111466157Y-103559908D01*
X111466157Y-103997408D01*
X111482621Y-104164566D01*
X111531379Y-104325300D01*
X111610558Y-104473433D01*
X111717114Y-104603273D01*
X111810445Y-104679867D01*
X111789248Y-104705695D01*
X111754241Y-104771188D01*
X111732684Y-104842253D01*
X111725405Y-104916158D01*
X111727229Y-105136408D01*
X111821479Y-105230658D01*
X112456229Y-105230658D01*
X112456229Y-105210658D01*
X112702229Y-105210658D01*
X112702229Y-105230658D01*
X113336979Y-105230658D01*
X113431229Y-105136408D01*
X113433053Y-104916158D01*
X113425774Y-104842253D01*
X113404217Y-104771188D01*
X113369210Y-104705695D01*
X113348013Y-104679867D01*
X113414869Y-104625000D01*
X113744832Y-104625000D01*
X113766504Y-104642786D01*
X113900158Y-104714225D01*
X114045181Y-104758218D01*
X114196000Y-104773072D01*
X114566000Y-104773072D01*
X114716819Y-104758218D01*
X114861842Y-104714225D01*
X114995496Y-104642786D01*
X115112644Y-104546644D01*
X115208786Y-104429496D01*
X115280225Y-104295842D01*
X115324218Y-104150819D01*
X115339072Y-104000000D01*
X115339072Y-103730000D01*
X115324218Y-103579181D01*
X115280225Y-103434158D01*
X115237914Y-103355000D01*
X115280225Y-103275842D01*
X115324218Y-103130819D01*
X115339072Y-102980000D01*
X115339072Y-102710000D01*
X115324218Y-102559181D01*
X115280225Y-102414158D01*
X115208786Y-102280504D01*
X115112644Y-102163356D01*
X114995496Y-102067214D01*
X114861842Y-101995775D01*
X114716819Y-101951782D01*
X114566000Y-101936928D01*
X114547729Y-101936928D01*
X114506000Y-101895199D01*
X114506000Y-99576401D01*
X116553411Y-101623813D01*
X116432744Y-101673795D01*
X116263226Y-101787063D01*
X116119063Y-101931226D01*
X116005795Y-102100744D01*
X115927774Y-102289102D01*
X115888000Y-102489061D01*
X115888000Y-102692939D01*
X115927774Y-102892898D01*
X116005795Y-103081256D01*
X116119063Y-103250774D01*
X116263226Y-103394937D01*
X116432744Y-103508205D01*
X116621102Y-103586226D01*
X116821061Y-103626000D01*
X117024939Y-103626000D01*
X117072866Y-103616467D01*
X121132400Y-107676002D01*
X121156199Y-107705001D01*
X121271924Y-107799974D01*
X121403953Y-107870546D01*
X121547214Y-107914003D01*
X121658867Y-107925000D01*
X121658877Y-107925000D01*
X121696200Y-107928676D01*
X121733523Y-107925000D01*
X124515089Y-107925000D01*
X124487000Y-108066212D01*
X124487000Y-108289788D01*
X124530617Y-108509067D01*
X124616176Y-108715624D01*
X124740388Y-108901520D01*
X124898480Y-109059612D01*
X125084376Y-109183824D01*
X125290933Y-109269383D01*
X125510212Y-109313000D01*
X125733788Y-109313000D01*
X125953067Y-109269383D01*
X126159624Y-109183824D01*
X126345520Y-109059612D01*
X126503612Y-108901520D01*
X126627824Y-108715624D01*
X126713383Y-108509067D01*
X126757000Y-108289788D01*
X126757000Y-108066212D01*
X126728911Y-107925000D01*
X127914517Y-107925000D01*
X127739114Y-108042201D01*
X127546201Y-108235114D01*
X127394629Y-108461957D01*
X127290225Y-108714011D01*
X127237000Y-108981589D01*
X127237000Y-109254411D01*
X127290225Y-109521989D01*
X127394629Y-109774043D01*
X127546201Y-110000886D01*
X127739114Y-110193799D01*
X127965957Y-110345371D01*
X128218011Y-110449775D01*
X128485589Y-110503000D01*
X128758411Y-110503000D01*
X129025989Y-110449775D01*
X129278043Y-110345371D01*
X129447268Y-110232298D01*
X129494026Y-110319776D01*
X129545041Y-110381937D01*
X129589000Y-110435501D01*
X129617998Y-110459299D01*
X130263701Y-111105002D01*
X130287499Y-111134001D01*
X130403224Y-111228974D01*
X130511597Y-111286902D01*
X130394629Y-111461957D01*
X130290225Y-111714011D01*
X130237000Y-111981589D01*
X130237000Y-112254411D01*
X130290225Y-112521989D01*
X130394629Y-112774043D01*
X130546201Y-113000886D01*
X130739114Y-113193799D01*
X130965957Y-113345371D01*
X131218011Y-113449775D01*
X131485589Y-113503000D01*
X131758411Y-113503000D01*
X132025989Y-113449775D01*
X132278043Y-113345371D01*
X132504886Y-113193799D01*
X132697799Y-113000886D01*
X132849371Y-112774043D01*
X132953775Y-112521989D01*
X132993297Y-112323300D01*
X133299005Y-112629008D01*
X133322799Y-112658001D01*
X133351792Y-112681795D01*
X133351796Y-112681799D01*
X133358802Y-112687548D01*
X133394629Y-112774043D01*
X133546201Y-113000886D01*
X133739114Y-113193799D01*
X133965957Y-113345371D01*
X134218011Y-113449775D01*
X134485589Y-113503000D01*
X134758411Y-113503000D01*
X135025989Y-113449775D01*
X135278043Y-113345371D01*
X135504886Y-113193799D01*
X135697799Y-113000886D01*
X135786590Y-112868000D01*
X136493176Y-112868000D01*
X136500455Y-112941905D01*
X136522012Y-113012970D01*
X136557019Y-113078463D01*
X136604131Y-113135869D01*
X136661537Y-113182981D01*
X136727030Y-113217988D01*
X136798095Y-113239545D01*
X136872000Y-113246824D01*
X137404750Y-113245000D01*
X137499000Y-113150750D01*
X137499000Y-112241000D01*
X136589250Y-112241000D01*
X136495000Y-112335250D01*
X136493176Y-112868000D01*
X135786590Y-112868000D01*
X135849371Y-112774043D01*
X135953775Y-112521989D01*
X136007000Y-112254411D01*
X136007000Y-111981589D01*
X135953775Y-111714011D01*
X135849371Y-111461957D01*
X135697799Y-111235114D01*
X135562685Y-111100000D01*
X136604291Y-111100000D01*
X136604131Y-111100131D01*
X136557019Y-111157537D01*
X136522012Y-111223030D01*
X136500455Y-111294095D01*
X136493176Y-111368000D01*
X136495000Y-111900750D01*
X136589250Y-111995000D01*
X137499000Y-111995000D01*
X137499000Y-111975000D01*
X137745000Y-111975000D01*
X137745000Y-111995000D01*
X137765000Y-111995000D01*
X137765000Y-112241000D01*
X137745000Y-112241000D01*
X137745000Y-113150750D01*
X137839250Y-113245000D01*
X138372000Y-113246824D01*
X138445905Y-113239545D01*
X138516970Y-113217988D01*
X138582463Y-113182981D01*
X138639869Y-113135869D01*
X138686981Y-113078463D01*
X138721988Y-113012970D01*
X138743545Y-112941905D01*
X138750824Y-112868000D01*
X138749000Y-112335250D01*
X138654752Y-112241002D01*
X138749000Y-112241002D01*
X138749000Y-112135402D01*
X139103921Y-112490323D01*
X139103927Y-112490328D01*
X139130458Y-112516859D01*
X139161650Y-112537700D01*
X139190648Y-112561498D01*
X139223747Y-112579190D01*
X139254936Y-112600029D01*
X139289579Y-112614379D01*
X139322677Y-112632070D01*
X139358592Y-112642965D01*
X139393247Y-112657319D01*
X139430036Y-112664636D01*
X139465938Y-112675527D01*
X139503279Y-112679205D01*
X139540078Y-112686524D01*
X139577596Y-112686524D01*
X139614924Y-112690200D01*
X139652257Y-112686523D01*
X139689784Y-112686523D01*
X139726579Y-112679204D01*
X139763910Y-112675527D01*
X139795623Y-112665907D01*
X140249887Y-113120171D01*
X140346578Y-113199523D01*
X140456892Y-113258488D01*
X140576590Y-113294798D01*
X140701072Y-113307058D01*
X140825554Y-113294798D01*
X140945252Y-113258488D01*
X141055566Y-113199523D01*
X141152257Y-113120171D01*
X142248272Y-112024156D01*
X142327624Y-111927465D01*
X142386589Y-111817151D01*
X142422899Y-111697453D01*
X142435159Y-111572971D01*
X142422899Y-111448489D01*
X142386589Y-111328791D01*
X142327624Y-111218477D01*
X142248272Y-111121786D01*
X141817047Y-110690561D01*
X142185416Y-110056757D01*
X148931972Y-110056757D01*
X148931972Y-110190047D01*
X149236683Y-110497337D01*
X149294088Y-110544449D01*
X149359582Y-110579456D01*
X149430646Y-110601013D01*
X149504552Y-110608292D01*
X149578457Y-110601013D01*
X149649521Y-110579456D01*
X149715015Y-110544449D01*
X149772421Y-110497337D01*
X150165520Y-110101659D01*
X150165520Y-109968369D01*
X149592940Y-109395789D01*
X148931972Y-110056757D01*
X142185416Y-110056757D01*
X142192318Y-110044883D01*
X142926972Y-109310229D01*
X148206489Y-109310229D01*
X148213768Y-109384135D01*
X148235325Y-109455199D01*
X148270332Y-109520693D01*
X148317444Y-109578098D01*
X148624734Y-109882809D01*
X148758024Y-109882809D01*
X149418992Y-109221841D01*
X149766888Y-109221841D01*
X150339468Y-109794421D01*
X150472758Y-109794421D01*
X150868436Y-109401322D01*
X150915548Y-109343916D01*
X150950555Y-109278422D01*
X150972112Y-109207358D01*
X150979391Y-109133453D01*
X150972112Y-109059547D01*
X150950555Y-108988483D01*
X150915548Y-108922989D01*
X150868436Y-108865584D01*
X150561146Y-108560873D01*
X150427856Y-108560873D01*
X149766888Y-109221841D01*
X149418992Y-109221841D01*
X148846412Y-108649261D01*
X148713122Y-108649261D01*
X148317444Y-109042360D01*
X148270332Y-109099766D01*
X148235325Y-109165260D01*
X148213768Y-109236324D01*
X148206489Y-109310229D01*
X142926972Y-109310229D01*
X143895178Y-108342023D01*
X149020360Y-108342023D01*
X149020360Y-108475313D01*
X149592940Y-109047893D01*
X150253908Y-108386925D01*
X150253908Y-108253635D01*
X149949197Y-107946345D01*
X149891792Y-107899233D01*
X149826298Y-107864226D01*
X149755234Y-107842669D01*
X149681328Y-107835390D01*
X149607423Y-107842669D01*
X149536359Y-107864226D01*
X149470865Y-107899233D01*
X149413459Y-107946345D01*
X149020360Y-108342023D01*
X143895178Y-108342023D01*
X144642402Y-107594800D01*
X145585678Y-107594800D01*
X145623000Y-107598476D01*
X145660322Y-107594800D01*
X145660333Y-107594800D01*
X145771986Y-107583803D01*
X145915247Y-107540346D01*
X145919437Y-107538106D01*
X145968077Y-107578024D01*
X146078391Y-107636989D01*
X146198089Y-107673299D01*
X146322571Y-107685559D01*
X146447053Y-107673299D01*
X146566751Y-107636989D01*
X146677065Y-107578024D01*
X146773756Y-107498672D01*
X147869771Y-106402657D01*
X147949123Y-106305966D01*
X148008088Y-106195652D01*
X148044398Y-106075954D01*
X148056658Y-105951472D01*
X148046665Y-105850000D01*
X152833676Y-105850000D01*
X152840955Y-105923905D01*
X152862512Y-105994970D01*
X152897519Y-106060463D01*
X152944631Y-106117869D01*
X153002037Y-106164981D01*
X153067530Y-106199988D01*
X153138595Y-106221545D01*
X153212500Y-106228824D01*
X153470250Y-106227000D01*
X153564500Y-106132750D01*
X153564500Y-105535500D01*
X153810500Y-105535500D01*
X153810500Y-106132750D01*
X153904750Y-106227000D01*
X154162500Y-106228824D01*
X154236405Y-106221545D01*
X154307470Y-106199988D01*
X154372963Y-106164981D01*
X154430369Y-106117869D01*
X154477481Y-106060463D01*
X154512488Y-105994970D01*
X154534045Y-105923905D01*
X154541324Y-105850000D01*
X154539500Y-105629750D01*
X154445250Y-105535500D01*
X153810500Y-105535500D01*
X153564500Y-105535500D01*
X152929750Y-105535500D01*
X152835500Y-105629750D01*
X152833676Y-105850000D01*
X148046665Y-105850000D01*
X148044398Y-105826990D01*
X148008088Y-105707292D01*
X147949123Y-105596978D01*
X147869771Y-105500287D01*
X146950532Y-104581048D01*
X146853841Y-104501696D01*
X146743527Y-104442731D01*
X146623829Y-104406421D01*
X146499347Y-104394161D01*
X146374865Y-104406421D01*
X146255167Y-104442731D01*
X146144853Y-104501696D01*
X146048162Y-104581048D01*
X144952147Y-105677063D01*
X144872795Y-105773754D01*
X144813830Y-105884068D01*
X144777520Y-106003766D01*
X144770524Y-106074800D01*
X144358733Y-106074800D01*
X144327045Y-106071679D01*
X144178059Y-106086353D01*
X144034798Y-106129809D01*
X143902769Y-106200381D01*
X143816042Y-106271556D01*
X141746867Y-108340732D01*
X141757000Y-108289788D01*
X141757000Y-108066212D01*
X141713383Y-107846933D01*
X141627824Y-107640376D01*
X141503612Y-107454480D01*
X141345520Y-107296388D01*
X141159624Y-107172176D01*
X140953067Y-107086617D01*
X140733788Y-107043000D01*
X140510212Y-107043000D01*
X140290933Y-107086617D01*
X140084376Y-107172176D01*
X139898480Y-107296388D01*
X139740388Y-107454480D01*
X139616176Y-107640376D01*
X139530617Y-107846933D01*
X139487000Y-108066212D01*
X139487000Y-108289788D01*
X139530617Y-108509067D01*
X139616176Y-108715624D01*
X139740388Y-108901520D01*
X139898480Y-109059612D01*
X140084376Y-109183824D01*
X140290933Y-109269383D01*
X140510212Y-109313000D01*
X140733788Y-109313000D01*
X140876059Y-109284701D01*
X140225944Y-110403266D01*
X139696206Y-110933004D01*
X138724350Y-109961149D01*
X138849371Y-109774043D01*
X138953775Y-109521989D01*
X139007000Y-109254411D01*
X139007000Y-108981589D01*
X138953775Y-108714011D01*
X138849371Y-108461957D01*
X138697799Y-108235114D01*
X138504886Y-108042201D01*
X138278043Y-107890629D01*
X138025989Y-107786225D01*
X137758411Y-107733000D01*
X137485589Y-107733000D01*
X137218011Y-107786225D01*
X136965957Y-107890629D01*
X136739114Y-108042201D01*
X136546201Y-108235114D01*
X136394629Y-108461957D01*
X136290225Y-108714011D01*
X136237000Y-108981589D01*
X136237000Y-109254411D01*
X136290225Y-109521989D01*
X136314254Y-109580000D01*
X135929746Y-109580000D01*
X135953775Y-109521989D01*
X136007000Y-109254411D01*
X136007000Y-108981589D01*
X135953775Y-108714011D01*
X135849371Y-108461957D01*
X135697799Y-108235114D01*
X135504886Y-108042201D01*
X135278043Y-107890629D01*
X135025989Y-107786225D01*
X134758411Y-107733000D01*
X134485589Y-107733000D01*
X134340635Y-107761833D01*
X132523801Y-105945000D01*
X144319353Y-105945000D01*
X144353000Y-105948314D01*
X144487283Y-105935088D01*
X144616406Y-105895919D01*
X144735407Y-105832312D01*
X144839711Y-105746711D01*
X144925312Y-105642407D01*
X144988919Y-105523406D01*
X145028088Y-105394283D01*
X145038000Y-105293647D01*
X145038000Y-105293646D01*
X145041314Y-105260000D01*
X145038000Y-105226353D01*
X145038000Y-104277647D01*
X145041314Y-104244000D01*
X145028088Y-104109717D01*
X144988919Y-103980594D01*
X144925312Y-103861593D01*
X144839711Y-103757289D01*
X144735407Y-103671688D01*
X144616406Y-103608081D01*
X144487283Y-103568912D01*
X144386647Y-103559000D01*
X144353000Y-103555686D01*
X144319353Y-103559000D01*
X122796647Y-103559000D01*
X122763000Y-103555686D01*
X122729353Y-103559000D01*
X122628717Y-103568912D01*
X122499594Y-103608081D01*
X122380593Y-103671688D01*
X122276289Y-103757289D01*
X122190688Y-103861593D01*
X122127081Y-103980594D01*
X122087912Y-104109717D01*
X122074686Y-104244000D01*
X122078001Y-104277656D01*
X122078000Y-104875010D01*
X121753832Y-104875010D01*
X120246400Y-103367579D01*
X120246400Y-101726000D01*
X132111676Y-101726000D01*
X132118955Y-101799905D01*
X132140512Y-101870970D01*
X132175519Y-101936463D01*
X132222631Y-101993869D01*
X132280037Y-102040981D01*
X132345530Y-102075988D01*
X132416595Y-102097545D01*
X132490500Y-102104824D01*
X133023250Y-102103000D01*
X133117500Y-102008750D01*
X133117500Y-101349000D01*
X133363500Y-101349000D01*
X133363500Y-102008750D01*
X133457750Y-102103000D01*
X133990500Y-102104824D01*
X134064405Y-102097545D01*
X134135470Y-102075988D01*
X134200963Y-102040981D01*
X134258369Y-101993869D01*
X134305481Y-101936463D01*
X134340488Y-101870970D01*
X134362045Y-101799905D01*
X134369324Y-101726000D01*
X134367500Y-101443250D01*
X134273250Y-101349000D01*
X133363500Y-101349000D01*
X133117500Y-101349000D01*
X132207750Y-101349000D01*
X132113500Y-101443250D01*
X132111676Y-101726000D01*
X120246400Y-101726000D01*
X120246400Y-99988722D01*
X120250076Y-99951399D01*
X120246400Y-99914076D01*
X120246400Y-99914067D01*
X120235403Y-99802414D01*
X120191946Y-99659153D01*
X120121374Y-99527124D01*
X120038384Y-99426000D01*
X131852428Y-99426000D01*
X131852428Y-100426000D01*
X131864688Y-100550482D01*
X131900998Y-100670180D01*
X131959963Y-100780494D01*
X132039315Y-100877185D01*
X132113042Y-100937691D01*
X132113500Y-101008750D01*
X132207750Y-101103000D01*
X133117500Y-101103000D01*
X133117500Y-101083000D01*
X133363500Y-101083000D01*
X133363500Y-101103000D01*
X134273250Y-101103000D01*
X134367500Y-101008750D01*
X134367958Y-100937691D01*
X134441685Y-100877185D01*
X134521037Y-100780494D01*
X134580002Y-100670180D01*
X134616312Y-100550482D01*
X134628572Y-100426000D01*
X134628572Y-99426000D01*
X134616312Y-99301518D01*
X134580002Y-99181820D01*
X134521037Y-99071506D01*
X134441685Y-98974815D01*
X134344994Y-98895463D01*
X134234680Y-98836498D01*
X134114982Y-98800188D01*
X134000500Y-98788913D01*
X134000500Y-98686611D01*
X134133337Y-98553774D01*
X134246605Y-98384256D01*
X134324626Y-98195898D01*
X134364400Y-97995939D01*
X134364400Y-97792061D01*
X134324626Y-97592102D01*
X134246605Y-97403744D01*
X134133337Y-97234226D01*
X133989174Y-97090063D01*
X133819656Y-96976795D01*
X133631298Y-96898774D01*
X133431339Y-96859000D01*
X133227461Y-96859000D01*
X133027502Y-96898774D01*
X132839144Y-96976795D01*
X132669626Y-97090063D01*
X132525463Y-97234226D01*
X132412195Y-97403744D01*
X132334174Y-97592102D01*
X132294400Y-97792061D01*
X132294400Y-97995939D01*
X132334174Y-98195898D01*
X132412195Y-98384256D01*
X132480501Y-98486483D01*
X132480501Y-98788913D01*
X132366018Y-98800188D01*
X132246320Y-98836498D01*
X132136006Y-98895463D01*
X132039315Y-98974815D01*
X131959963Y-99071506D01*
X131900998Y-99181820D01*
X131864688Y-99301518D01*
X131852428Y-99426000D01*
X120038384Y-99426000D01*
X120026401Y-99411399D01*
X119997404Y-99387602D01*
X118210000Y-97600199D01*
X118210000Y-97538061D01*
X118170226Y-97338102D01*
X118092205Y-97149744D01*
X117978937Y-96980226D01*
X117834774Y-96836063D01*
X117665256Y-96722795D01*
X117476898Y-96644774D01*
X117276939Y-96605000D01*
X117073061Y-96605000D01*
X116873102Y-96644774D01*
X116684744Y-96722795D01*
X116515226Y-96836063D01*
X116371063Y-96980226D01*
X116257795Y-97149744D01*
X116179774Y-97338102D01*
X116140000Y-97538061D01*
X116140000Y-97741939D01*
X116179774Y-97941898D01*
X116257795Y-98130256D01*
X116371063Y-98299774D01*
X116515226Y-98443937D01*
X116684744Y-98557205D01*
X116873102Y-98635226D01*
X117073061Y-98675000D01*
X117135199Y-98675000D01*
X118726400Y-100266202D01*
X118726400Y-101646543D01*
X118705601Y-101621199D01*
X118676604Y-101597402D01*
X114956011Y-97876810D01*
X114956011Y-93745590D01*
X115889602Y-92812000D01*
X117156000Y-92812000D01*
X117156000Y-92968950D01*
X117195774Y-93168909D01*
X117273795Y-93357267D01*
X117387063Y-93526785D01*
X117399284Y-93539006D01*
X117387063Y-93551226D01*
X117273795Y-93720744D01*
X117195774Y-93909102D01*
X117156000Y-94109061D01*
X117156000Y-94312939D01*
X117195774Y-94512898D01*
X117273795Y-94701256D01*
X117387063Y-94870774D01*
X117531226Y-95014937D01*
X117700744Y-95128205D01*
X117889102Y-95206226D01*
X118089061Y-95246000D01*
X118292939Y-95246000D01*
X118492898Y-95206226D01*
X118681256Y-95128205D01*
X118850774Y-95014937D01*
X118994937Y-94870774D01*
X119108205Y-94701256D01*
X119186226Y-94512898D01*
X119221413Y-94336000D01*
X132028783Y-94336000D01*
X132072720Y-94379937D01*
X132242238Y-94493205D01*
X132430596Y-94571226D01*
X132630555Y-94611000D01*
X132834433Y-94611000D01*
X133034392Y-94571226D01*
X133222750Y-94493205D01*
X133392268Y-94379937D01*
X133536431Y-94235774D01*
X133649699Y-94066256D01*
X133727720Y-93877898D01*
X133767494Y-93677939D01*
X133767494Y-93474061D01*
X133727720Y-93274102D01*
X133649699Y-93085744D01*
X133536431Y-92916226D01*
X133392268Y-92772063D01*
X133222750Y-92658795D01*
X133034392Y-92580774D01*
X132977120Y-92569382D01*
X132965726Y-92512102D01*
X132887705Y-92323744D01*
X132774437Y-92154226D01*
X132630274Y-92010063D01*
X132460756Y-91896795D01*
X132272398Y-91818774D01*
X132149003Y-91794229D01*
X132140226Y-91750102D01*
X132062205Y-91561744D01*
X131948937Y-91392226D01*
X131804774Y-91248063D01*
X131635256Y-91134795D01*
X131446898Y-91056774D01*
X131246939Y-91017000D01*
X131043061Y-91017000D01*
X131042764Y-91017059D01*
X130996437Y-90947726D01*
X130852274Y-90803563D01*
X130682756Y-90690295D01*
X130503648Y-90616105D01*
X130489226Y-90543602D01*
X130411205Y-90355244D01*
X130297937Y-90185726D01*
X130153774Y-90041563D01*
X129984256Y-89928295D01*
X129894613Y-89891163D01*
X129894613Y-89791850D01*
X129854839Y-89591891D01*
X129776818Y-89403533D01*
X129663550Y-89234015D01*
X129519387Y-89089852D01*
X129349869Y-88976584D01*
X129161511Y-88898563D01*
X129078146Y-88881981D01*
X129145659Y-88854016D01*
X129315177Y-88740748D01*
X129459340Y-88596585D01*
X129572608Y-88427067D01*
X129650629Y-88238709D01*
X129690403Y-88038750D01*
X129690403Y-87834872D01*
X129650629Y-87634913D01*
X129572608Y-87446555D01*
X129459340Y-87277037D01*
X129315177Y-87132874D01*
X129145659Y-87019606D01*
X128957301Y-86941585D01*
X128757342Y-86901811D01*
X128553464Y-86901811D01*
X128353505Y-86941585D01*
X128165147Y-87019606D01*
X127995629Y-87132874D01*
X127851466Y-87277037D01*
X127738198Y-87446555D01*
X127670911Y-87609000D01*
X127229475Y-87609000D01*
X127359774Y-87521937D01*
X127503937Y-87377774D01*
X127617205Y-87208256D01*
X127695226Y-87019898D01*
X127735000Y-86819939D01*
X127735000Y-86752999D01*
X139934998Y-86752999D01*
X140346200Y-87164202D01*
X140346200Y-87226339D01*
X140385974Y-87426298D01*
X140463995Y-87614656D01*
X140577263Y-87784174D01*
X140721426Y-87928337D01*
X140890944Y-88041605D01*
X141079302Y-88119626D01*
X141279261Y-88159400D01*
X141483139Y-88159400D01*
X141683098Y-88119626D01*
X141871456Y-88041605D01*
X142040974Y-87928337D01*
X142185137Y-87784174D01*
X142298405Y-87614656D01*
X142376426Y-87426298D01*
X142416200Y-87226339D01*
X142416200Y-87022461D01*
X142376426Y-86822502D01*
X142298405Y-86634144D01*
X142185137Y-86464626D01*
X142040974Y-86320463D01*
X141871456Y-86207195D01*
X141683098Y-86129174D01*
X141483139Y-86089400D01*
X141421002Y-86089400D01*
X140813603Y-85482001D01*
X140789800Y-85452998D01*
X140674075Y-85358025D01*
X140542046Y-85287453D01*
X140398785Y-85243996D01*
X140287132Y-85232999D01*
X140287121Y-85232999D01*
X140249799Y-85229323D01*
X140212477Y-85232999D01*
X116965202Y-85232999D01*
X116879485Y-85206998D01*
X116730499Y-85192324D01*
X116581513Y-85206998D01*
X116438253Y-85250454D01*
X116306223Y-85321027D01*
X116219497Y-85392201D01*
X116182498Y-85429200D01*
X116153500Y-85452998D01*
X116129701Y-85481997D01*
X115992198Y-85619500D01*
X115930061Y-85619500D01*
X115730102Y-85659274D01*
X115541744Y-85737295D01*
X115372226Y-85850563D01*
X115228063Y-85994726D01*
X115114795Y-86164244D01*
X115036774Y-86352602D01*
X114997000Y-86552561D01*
X114997000Y-86756439D01*
X115036774Y-86956398D01*
X115114795Y-87144756D01*
X115228063Y-87314274D01*
X115372226Y-87458437D01*
X115541744Y-87571705D01*
X115730102Y-87649726D01*
X115930061Y-87689500D01*
X115960696Y-87689500D01*
X111838003Y-91812194D01*
X111808999Y-91835997D01*
X111779629Y-91871785D01*
X111714026Y-91951722D01*
X111659357Y-92054000D01*
X111643454Y-92083752D01*
X111599997Y-92227013D01*
X111589000Y-92338666D01*
X111589000Y-92338676D01*
X111585324Y-92375998D01*
X111589000Y-92413320D01*
X111589000Y-92418907D01*
X111521214Y-92501504D01*
X111449775Y-92635158D01*
X111405782Y-92780181D01*
X111390928Y-92931000D01*
X111390928Y-93201000D01*
X111405604Y-93350013D01*
X111305253Y-93380454D01*
X111173224Y-93451026D01*
X111157018Y-93464326D01*
X111157824Y-93367000D01*
X111150545Y-93293095D01*
X111128988Y-93222030D01*
X111093981Y-93156537D01*
X111046869Y-93099131D01*
X110989463Y-93052019D01*
X110923970Y-93017012D01*
X110852905Y-92995455D01*
X110779000Y-92988176D01*
X110521250Y-92990000D01*
X110427000Y-93084250D01*
X110427000Y-93681500D01*
X110447000Y-93681500D01*
X110447000Y-93927500D01*
X110427000Y-93927500D01*
X110427000Y-93947500D01*
X110181000Y-93947500D01*
X110181000Y-93927500D01*
X109546250Y-93927500D01*
X109452000Y-94021750D01*
X109450176Y-94242000D01*
X109457455Y-94315905D01*
X109479012Y-94386970D01*
X109514019Y-94452463D01*
X109535216Y-94478291D01*
X109441885Y-94554885D01*
X109335329Y-94684725D01*
X109256150Y-94832858D01*
X109207392Y-94993592D01*
X109190928Y-95160750D01*
X108986630Y-95160750D01*
X108964000Y-94592000D01*
X109012740Y-93367000D01*
X109450176Y-93367000D01*
X109452000Y-93587250D01*
X109546250Y-93681500D01*
X110181000Y-93681500D01*
X110181000Y-93084250D01*
X110086750Y-92990000D01*
X109829000Y-92988176D01*
X109755095Y-92995455D01*
X109684030Y-93017012D01*
X109618537Y-93052019D01*
X109561131Y-93099131D01*
X109514019Y-93156537D01*
X109479012Y-93222030D01*
X109457455Y-93293095D01*
X109450176Y-93367000D01*
X109012740Y-93367000D01*
X109040943Y-92658183D01*
X109271284Y-90736592D01*
X109653568Y-88839376D01*
X110185378Y-86978531D01*
X110610137Y-85842842D01*
X111725405Y-85842842D01*
X111732684Y-85916747D01*
X111754241Y-85987812D01*
X111789248Y-86053305D01*
X111836360Y-86110711D01*
X111893766Y-86157823D01*
X111959259Y-86192830D01*
X112030324Y-86214387D01*
X112104229Y-86221666D01*
X112361979Y-86219842D01*
X112456229Y-86125592D01*
X112456229Y-85528342D01*
X112702229Y-85528342D01*
X112702229Y-86125592D01*
X112796479Y-86219842D01*
X113054229Y-86221666D01*
X113128134Y-86214387D01*
X113199199Y-86192830D01*
X113264692Y-86157823D01*
X113322098Y-86110711D01*
X113369210Y-86053305D01*
X113404217Y-85987812D01*
X113425774Y-85916747D01*
X113433053Y-85842842D01*
X113431229Y-85622592D01*
X113336979Y-85528342D01*
X112702229Y-85528342D01*
X112456229Y-85528342D01*
X111821479Y-85528342D01*
X111727229Y-85622592D01*
X111725405Y-85842842D01*
X110610137Y-85842842D01*
X110863351Y-85165820D01*
X111466157Y-83876817D01*
X111466157Y-84049092D01*
X111482621Y-84216250D01*
X111531379Y-84376984D01*
X111610558Y-84525117D01*
X111717114Y-84654957D01*
X111810445Y-84731551D01*
X111789248Y-84757379D01*
X111754241Y-84822872D01*
X111732684Y-84893937D01*
X111725405Y-84967842D01*
X111727229Y-85188092D01*
X111821479Y-85282342D01*
X112456229Y-85282342D01*
X112456229Y-85262342D01*
X112702229Y-85262342D01*
X112702229Y-85282342D01*
X113336979Y-85282342D01*
X113431229Y-85188092D01*
X113433053Y-84967842D01*
X113425774Y-84893937D01*
X113404217Y-84822872D01*
X113369210Y-84757379D01*
X113348013Y-84731551D01*
X113441344Y-84654957D01*
X113547900Y-84525117D01*
X113627079Y-84376984D01*
X113675837Y-84216250D01*
X113692301Y-84049092D01*
X113692301Y-83792072D01*
X113867173Y-83617200D01*
X114021795Y-83617200D01*
X114045904Y-83636986D01*
X114179558Y-83708425D01*
X114324581Y-83752418D01*
X114475400Y-83767272D01*
X114845400Y-83767272D01*
X114996219Y-83752418D01*
X115141242Y-83708425D01*
X115274896Y-83636986D01*
X115392044Y-83540844D01*
X115488186Y-83423696D01*
X115559625Y-83290042D01*
X115603618Y-83145019D01*
X115618472Y-82994200D01*
X115618472Y-82724200D01*
X115606161Y-82599200D01*
X126461480Y-82599200D01*
X126498802Y-82602876D01*
X126536124Y-82599200D01*
X126536135Y-82599200D01*
X126647788Y-82588203D01*
X126791049Y-82544746D01*
X126923078Y-82474174D01*
X127038803Y-82379201D01*
X127062606Y-82350197D01*
X129351604Y-80061200D01*
X133108289Y-80061200D01*
X133152226Y-80105137D01*
X133321744Y-80218405D01*
X133510102Y-80296426D01*
X133710061Y-80336200D01*
X133913939Y-80336200D01*
X134113898Y-80296426D01*
X134302256Y-80218405D01*
X134471774Y-80105137D01*
X134615937Y-79960974D01*
X134729205Y-79791456D01*
X134807226Y-79603098D01*
X134847000Y-79403139D01*
X134847000Y-79199261D01*
X134807226Y-78999302D01*
X134789675Y-78956930D01*
X134810256Y-78948405D01*
X134979774Y-78835137D01*
X135123937Y-78690974D01*
X135237205Y-78521456D01*
X135314164Y-78335661D01*
X137755400Y-78335661D01*
X137755400Y-78539539D01*
X137795174Y-78739498D01*
X137873195Y-78927856D01*
X137986463Y-79097374D01*
X138130626Y-79241537D01*
X138300144Y-79354805D01*
X138488502Y-79432826D01*
X138688461Y-79472600D01*
X138892339Y-79472600D01*
X139092298Y-79432826D01*
X139280656Y-79354805D01*
X139450174Y-79241537D01*
X139594337Y-79097374D01*
X139680114Y-78969000D01*
X145352907Y-78969000D01*
X145435504Y-79036786D01*
X145569158Y-79108225D01*
X145714181Y-79152218D01*
X145865000Y-79167072D01*
X146135000Y-79167072D01*
X146285819Y-79152218D01*
X146430842Y-79108225D01*
X146510000Y-79065914D01*
X146589158Y-79108225D01*
X146734181Y-79152218D01*
X146885000Y-79167072D01*
X147155000Y-79167072D01*
X147305819Y-79152218D01*
X147450842Y-79108225D01*
X147584496Y-79036786D01*
X147701644Y-78940644D01*
X147797786Y-78823496D01*
X147869225Y-78689842D01*
X147913218Y-78544819D01*
X147928072Y-78394000D01*
X147928072Y-78024000D01*
X147913218Y-77873181D01*
X147869225Y-77728158D01*
X147797786Y-77594504D01*
X147701644Y-77477356D01*
X147691550Y-77469072D01*
X147786171Y-77353775D01*
X147865350Y-77205642D01*
X147914108Y-77044908D01*
X147930572Y-76877750D01*
X147930572Y-76365250D01*
X147914108Y-76198092D01*
X147865350Y-76037358D01*
X147786171Y-75889225D01*
X147679615Y-75759385D01*
X147549775Y-75652829D01*
X147401642Y-75573650D01*
X147240908Y-75524892D01*
X147073750Y-75508428D01*
X146636250Y-75508428D01*
X146469092Y-75524892D01*
X146308358Y-75573650D01*
X146160225Y-75652829D01*
X146030385Y-75759385D01*
X145953791Y-75852716D01*
X145927963Y-75831519D01*
X145862470Y-75796512D01*
X145791405Y-75774955D01*
X145717500Y-75767676D01*
X145497250Y-75769500D01*
X145403000Y-75863750D01*
X145403000Y-76498500D01*
X145423000Y-76498500D01*
X145423000Y-76744500D01*
X145403000Y-76744500D01*
X145403000Y-76764500D01*
X145157000Y-76764500D01*
X145157000Y-76744500D01*
X144559750Y-76744500D01*
X144465500Y-76838750D01*
X144463676Y-77096500D01*
X144470955Y-77170405D01*
X144492512Y-77241470D01*
X144527519Y-77306963D01*
X144574631Y-77364369D01*
X144632037Y-77411481D01*
X144697530Y-77446488D01*
X144705811Y-77449000D01*
X139108294Y-77449000D01*
X139092298Y-77442374D01*
X138892339Y-77402600D01*
X138688461Y-77402600D01*
X138488502Y-77442374D01*
X138300144Y-77520395D01*
X138130626Y-77633663D01*
X137986463Y-77777826D01*
X137873195Y-77947344D01*
X137795174Y-78135702D01*
X137755400Y-78335661D01*
X135314164Y-78335661D01*
X135315226Y-78333098D01*
X135355000Y-78133139D01*
X135355000Y-77929261D01*
X135315226Y-77729302D01*
X135237205Y-77540944D01*
X135123937Y-77371426D01*
X134979774Y-77227263D01*
X134810256Y-77113995D01*
X134621898Y-77035974D01*
X134421939Y-76996200D01*
X134218061Y-76996200D01*
X134018102Y-77035974D01*
X133829744Y-77113995D01*
X133660226Y-77227263D01*
X133516063Y-77371426D01*
X133464230Y-77449000D01*
X121887453Y-77449000D01*
X121910470Y-77442018D01*
X121975963Y-77407011D01*
X122033369Y-77359899D01*
X122080481Y-77302493D01*
X122115488Y-77237000D01*
X122137045Y-77165935D01*
X122144324Y-77092030D01*
X122142500Y-76834280D01*
X122048250Y-76740030D01*
X121451000Y-76740030D01*
X121451000Y-76760030D01*
X121205000Y-76760030D01*
X121205000Y-76740030D01*
X121185000Y-76740030D01*
X121185000Y-76494030D01*
X121205000Y-76494030D01*
X121205000Y-75859280D01*
X121451000Y-75859280D01*
X121451000Y-76494030D01*
X122048250Y-76494030D01*
X122142500Y-76399780D01*
X122144324Y-76142030D01*
X122137045Y-76068125D01*
X122115488Y-75997060D01*
X122080481Y-75931567D01*
X122033369Y-75874161D01*
X121975963Y-75827049D01*
X121910470Y-75792042D01*
X121839405Y-75770485D01*
X121765500Y-75763206D01*
X121545250Y-75765030D01*
X121451000Y-75859280D01*
X121205000Y-75859280D01*
X121110750Y-75765030D01*
X120890500Y-75763206D01*
X120816595Y-75770485D01*
X120745530Y-75792042D01*
X120680037Y-75827049D01*
X120654209Y-75848246D01*
X120577615Y-75754915D01*
X120447775Y-75648359D01*
X120299642Y-75569180D01*
X120138908Y-75520422D01*
X119971750Y-75503958D01*
X119534250Y-75503958D01*
X119367092Y-75520422D01*
X119206358Y-75569180D01*
X119058225Y-75648359D01*
X118928385Y-75754915D01*
X118821829Y-75884755D01*
X118742650Y-76032888D01*
X118693892Y-76193622D01*
X118677428Y-76360780D01*
X118677428Y-76873280D01*
X118693892Y-77040438D01*
X118742650Y-77201172D01*
X118771583Y-77255303D01*
X118665181Y-77265782D01*
X118520158Y-77309775D01*
X118386504Y-77381214D01*
X118269356Y-77477356D01*
X118173214Y-77594504D01*
X118101775Y-77728158D01*
X118057782Y-77873181D01*
X118042928Y-78024000D01*
X118042928Y-78394000D01*
X118057782Y-78544819D01*
X118101775Y-78689842D01*
X118173214Y-78823496D01*
X118269356Y-78940644D01*
X118386504Y-79036786D01*
X118520158Y-79108225D01*
X118665181Y-79152218D01*
X118816000Y-79167072D01*
X119086000Y-79167072D01*
X119236819Y-79152218D01*
X119381842Y-79108225D01*
X119461000Y-79065914D01*
X119540158Y-79108225D01*
X119685181Y-79152218D01*
X119836000Y-79167072D01*
X120106000Y-79167072D01*
X120256819Y-79152218D01*
X120401842Y-79108225D01*
X120535496Y-79036786D01*
X120618093Y-78969000D01*
X128294200Y-78969000D01*
X126184001Y-81079200D01*
X115296568Y-81079200D01*
X115274896Y-81061414D01*
X115141242Y-80989975D01*
X114996219Y-80945982D01*
X114845400Y-80931128D01*
X114475400Y-80931128D01*
X114324581Y-80945982D01*
X114179558Y-80989975D01*
X114045904Y-81061414D01*
X113928756Y-81157556D01*
X113832614Y-81274704D01*
X113761175Y-81408358D01*
X113717182Y-81553381D01*
X113702328Y-81704200D01*
X113702328Y-81974200D01*
X113714442Y-82097200D01*
X113589704Y-82097200D01*
X113552371Y-82093523D01*
X113515038Y-82097200D01*
X113403385Y-82108197D01*
X113260124Y-82151654D01*
X113128095Y-82222226D01*
X113012370Y-82317199D01*
X112988572Y-82346197D01*
X112579999Y-82754770D01*
X112322979Y-82754770D01*
X112155821Y-82771234D01*
X112025416Y-82810792D01*
X112639745Y-81730267D01*
X113726935Y-80129147D01*
X114937897Y-78619465D01*
X116264976Y-77210767D01*
X117699781Y-75911959D01*
X119233241Y-74731251D01*
X120855660Y-73676110D01*
X122556783Y-72753206D01*
X122795067Y-72647493D01*
X126565424Y-72647493D01*
X126572703Y-72721398D01*
X126594260Y-72792463D01*
X126629267Y-72857956D01*
X126676379Y-72915362D01*
X126733785Y-72962474D01*
X126799278Y-72997481D01*
X126870343Y-73019038D01*
X126944248Y-73026317D01*
X127164498Y-73024493D01*
X127258746Y-72930245D01*
X127258746Y-72952429D01*
X127161356Y-73032356D01*
X127065214Y-73149504D01*
X126993775Y-73283158D01*
X126949782Y-73428181D01*
X126934928Y-73579000D01*
X126934928Y-73949000D01*
X126949782Y-74099819D01*
X126993775Y-74244842D01*
X127065214Y-74378496D01*
X127161356Y-74495644D01*
X127278504Y-74591786D01*
X127412158Y-74663225D01*
X127557181Y-74707218D01*
X127708000Y-74722072D01*
X127726271Y-74722072D01*
X128904801Y-75900603D01*
X128928599Y-75929601D01*
X129044324Y-76024574D01*
X129176353Y-76095146D01*
X129319614Y-76138603D01*
X129354409Y-76142030D01*
X129468600Y-76153277D01*
X129505933Y-76149600D01*
X135343489Y-76149600D01*
X135387426Y-76193537D01*
X135556944Y-76306805D01*
X135745302Y-76384826D01*
X135945261Y-76424600D01*
X136149139Y-76424600D01*
X136349098Y-76384826D01*
X136537456Y-76306805D01*
X136706974Y-76193537D01*
X136851137Y-76049374D01*
X136949800Y-75901713D01*
X137038426Y-75990339D01*
X137207944Y-76103607D01*
X137396302Y-76181628D01*
X137596261Y-76221402D01*
X137800139Y-76221402D01*
X138000098Y-76181628D01*
X138084903Y-76146500D01*
X144463676Y-76146500D01*
X144465500Y-76404250D01*
X144559750Y-76498500D01*
X145157000Y-76498500D01*
X145157000Y-75863750D01*
X145062750Y-75769500D01*
X144842500Y-75767676D01*
X144768595Y-75774955D01*
X144697530Y-75796512D01*
X144632037Y-75831519D01*
X144574631Y-75878631D01*
X144527519Y-75936037D01*
X144492512Y-76001530D01*
X144470955Y-76072595D01*
X144463676Y-76146500D01*
X138084903Y-76146500D01*
X138188456Y-76103607D01*
X138357974Y-75990339D01*
X138502137Y-75846176D01*
X138615405Y-75676658D01*
X138693426Y-75488300D01*
X138733200Y-75288341D01*
X138733200Y-75084463D01*
X138693426Y-74884504D01*
X138675336Y-74840832D01*
X138759000Y-74849072D01*
X139029000Y-74849072D01*
X139179819Y-74834218D01*
X139324842Y-74790225D01*
X139458496Y-74718786D01*
X139575644Y-74622644D01*
X139671786Y-74505496D01*
X139743225Y-74371842D01*
X139787218Y-74226819D01*
X139802072Y-74076000D01*
X139802072Y-73706000D01*
X139787218Y-73555181D01*
X139743225Y-73410158D01*
X139671786Y-73276504D01*
X139654000Y-73254832D01*
X139654000Y-72743747D01*
X139659108Y-72726908D01*
X139675572Y-72559750D01*
X139675572Y-72047250D01*
X139659108Y-71880092D01*
X139610350Y-71719358D01*
X139531171Y-71571225D01*
X139424615Y-71441385D01*
X139294775Y-71334829D01*
X139146642Y-71255650D01*
X138985908Y-71206892D01*
X138818750Y-71190428D01*
X138381250Y-71190428D01*
X138214092Y-71206892D01*
X138053358Y-71255650D01*
X137905225Y-71334829D01*
X137775385Y-71441385D01*
X137698791Y-71534716D01*
X137672963Y-71513519D01*
X137607470Y-71478512D01*
X137536405Y-71456955D01*
X137462500Y-71449676D01*
X137242250Y-71451500D01*
X137148000Y-71545750D01*
X137148000Y-72180500D01*
X137168000Y-72180500D01*
X137168000Y-72426500D01*
X137148000Y-72426500D01*
X137148000Y-73061250D01*
X137221878Y-73135128D01*
X137192356Y-73159356D01*
X137096214Y-73276504D01*
X137024775Y-73410158D01*
X136980782Y-73555181D01*
X136965928Y-73706000D01*
X136965928Y-74076000D01*
X136980782Y-74226819D01*
X137024775Y-74371842D01*
X137033230Y-74387661D01*
X136894263Y-74526628D01*
X136795600Y-74674289D01*
X136706974Y-74585663D01*
X136537456Y-74472395D01*
X136349098Y-74394374D01*
X136149139Y-74354600D01*
X135945261Y-74354600D01*
X135745302Y-74394374D01*
X135556944Y-74472395D01*
X135387426Y-74585663D01*
X135343489Y-74629600D01*
X129783402Y-74629600D01*
X129591884Y-74438082D01*
X129640786Y-74378496D01*
X129712225Y-74244842D01*
X129756218Y-74099819D01*
X129771072Y-73949000D01*
X129771072Y-73579000D01*
X129756218Y-73428181D01*
X129716748Y-73298068D01*
X129716748Y-73087636D01*
X129781363Y-73034608D01*
X129887919Y-72904768D01*
X129967098Y-72756635D01*
X130015856Y-72595901D01*
X130032320Y-72428743D01*
X130032320Y-71916243D01*
X130015856Y-71749085D01*
X129967098Y-71588351D01*
X129887919Y-71440218D01*
X129781363Y-71310378D01*
X129651523Y-71203822D01*
X129503390Y-71124643D01*
X129342656Y-71075885D01*
X129175498Y-71059421D01*
X128737998Y-71059421D01*
X128570840Y-71075885D01*
X128410106Y-71124643D01*
X128261973Y-71203822D01*
X128132133Y-71310378D01*
X128055539Y-71403709D01*
X128029711Y-71382512D01*
X127964218Y-71347505D01*
X127893153Y-71325948D01*
X127819248Y-71318669D01*
X127598998Y-71320493D01*
X127504748Y-71414743D01*
X127504748Y-72049493D01*
X127524748Y-72049493D01*
X127524748Y-72295493D01*
X127504748Y-72295493D01*
X127504748Y-72315493D01*
X127258748Y-72315493D01*
X127258748Y-72295493D01*
X126661498Y-72295493D01*
X126567248Y-72389743D01*
X126565424Y-72647493D01*
X122795067Y-72647493D01*
X124325852Y-71968374D01*
X125096472Y-71697493D01*
X126565424Y-71697493D01*
X126567248Y-71955243D01*
X126661498Y-72049493D01*
X127258748Y-72049493D01*
X127258748Y-71414743D01*
X127164498Y-71320493D01*
X126944248Y-71318669D01*
X126870343Y-71325948D01*
X126799278Y-71347505D01*
X126733785Y-71382512D01*
X126676379Y-71429624D01*
X126629267Y-71487030D01*
X126594260Y-71552523D01*
X126572703Y-71623588D01*
X126565424Y-71697493D01*
X125096472Y-71697493D01*
X126151684Y-71326575D01*
X128022736Y-70831869D01*
X129927177Y-70487381D01*
X131852968Y-70295290D01*
X132315508Y-70286092D01*
X132261748Y-70322013D01*
%TA.AperFunction,Conductor*%
D18*
G36*
X132261748Y-70322013D02*
G01*
X132034013Y-70549748D01*
X131855082Y-70817537D01*
X131731832Y-71115088D01*
X131669000Y-71430967D01*
X131669000Y-71753033D01*
X131731832Y-72068912D01*
X131855082Y-72366463D01*
X132034013Y-72634252D01*
X132261748Y-72861987D01*
X132529537Y-73040918D01*
X132827088Y-73164168D01*
X133142967Y-73227000D01*
X133465033Y-73227000D01*
X133780912Y-73164168D01*
X134078463Y-73040918D01*
X134346252Y-72861987D01*
X134429739Y-72778500D01*
X136208676Y-72778500D01*
X136215955Y-72852405D01*
X136237512Y-72923470D01*
X136272519Y-72988963D01*
X136319631Y-73046369D01*
X136377037Y-73093481D01*
X136442530Y-73128488D01*
X136513595Y-73150045D01*
X136587500Y-73157324D01*
X136807750Y-73155500D01*
X136902000Y-73061250D01*
X136902000Y-72426500D01*
X136304750Y-72426500D01*
X136210500Y-72520750D01*
X136208676Y-72778500D01*
X134429739Y-72778500D01*
X134573987Y-72634252D01*
X134752918Y-72366463D01*
X134876168Y-72068912D01*
X134923988Y-71828500D01*
X136208676Y-71828500D01*
X136210500Y-72086250D01*
X136304750Y-72180500D01*
X136902000Y-72180500D01*
X136902000Y-71545750D01*
X136807750Y-71451500D01*
X136587500Y-71449676D01*
X136513595Y-71456955D01*
X136442530Y-71478512D01*
X136377037Y-71513519D01*
X136319631Y-71560631D01*
X136272519Y-71618037D01*
X136237512Y-71683530D01*
X136215955Y-71754595D01*
X136208676Y-71828500D01*
X134923988Y-71828500D01*
X134939000Y-71753033D01*
X134939000Y-71430967D01*
X134876168Y-71115088D01*
X134752918Y-70817537D01*
X134573987Y-70549748D01*
X134346252Y-70322013D01*
X134293893Y-70287028D01*
X135719837Y-70372187D01*
X137636469Y-70640689D01*
X139525709Y-71060618D01*
X141375613Y-71629320D01*
X143174486Y-72343200D01*
X144910955Y-73197744D01*
X146574041Y-74187549D01*
X148153229Y-75306358D01*
X149638536Y-76547097D01*
X151020570Y-77901921D01*
X152290595Y-79362265D01*
X153440580Y-80918897D01*
X154463255Y-82561975D01*
X154593643Y-82814147D01*
X154452179Y-82771234D01*
X154285021Y-82754770D01*
X154028000Y-82754770D01*
X153672232Y-82399002D01*
X153648430Y-82369999D01*
X153532705Y-82275026D01*
X153400676Y-82204454D01*
X153356131Y-82190942D01*
X153360718Y-82175819D01*
X153375572Y-82025000D01*
X153375572Y-81755000D01*
X153360718Y-81604181D01*
X153316725Y-81459158D01*
X153245286Y-81325504D01*
X153149144Y-81208356D01*
X153031996Y-81112214D01*
X152898342Y-81040775D01*
X152753319Y-80996782D01*
X152602500Y-80981928D01*
X152232500Y-80981928D01*
X152081681Y-80996782D01*
X151936658Y-81040775D01*
X151803004Y-81112214D01*
X151781332Y-81130000D01*
X142100402Y-81130000D01*
X141400200Y-80429799D01*
X141400200Y-80367661D01*
X141360426Y-80167702D01*
X141282405Y-79979344D01*
X141169137Y-79809826D01*
X141024974Y-79665663D01*
X140855456Y-79552395D01*
X140667098Y-79474374D01*
X140467139Y-79434600D01*
X140263261Y-79434600D01*
X140063302Y-79474374D01*
X139874944Y-79552395D01*
X139705426Y-79665663D01*
X139561263Y-79809826D01*
X139447995Y-79979344D01*
X139369974Y-80167702D01*
X139330200Y-80367661D01*
X139330200Y-80571539D01*
X139369974Y-80771498D01*
X139447995Y-80959856D01*
X139561263Y-81129374D01*
X139705426Y-81273537D01*
X139874944Y-81386805D01*
X140063302Y-81464826D01*
X140263261Y-81504600D01*
X140325399Y-81504600D01*
X141221801Y-82401003D01*
X141245599Y-82430001D01*
X141274597Y-82453799D01*
X141361323Y-82524974D01*
X141479615Y-82588203D01*
X141493353Y-82595546D01*
X141636614Y-82639003D01*
X141748267Y-82650000D01*
X141748277Y-82650000D01*
X141785600Y-82653676D01*
X141822923Y-82650000D01*
X151471739Y-82650000D01*
X151459428Y-82775000D01*
X151459428Y-83045000D01*
X151474282Y-83195819D01*
X151518275Y-83340842D01*
X151589714Y-83474496D01*
X151685856Y-83591644D01*
X151803004Y-83687786D01*
X151936658Y-83759225D01*
X152081681Y-83803218D01*
X152232500Y-83818072D01*
X152602500Y-83818072D01*
X152753319Y-83803218D01*
X152886458Y-83762830D01*
X152915699Y-83792071D01*
X152915699Y-84049092D01*
X152932163Y-84216250D01*
X152980921Y-84376984D01*
X153060100Y-84525117D01*
X153166656Y-84654957D01*
X153259987Y-84731551D01*
X153238790Y-84757379D01*
X153203783Y-84822872D01*
X153182226Y-84893937D01*
X153174947Y-84967842D01*
X153176771Y-85188092D01*
X153271021Y-85282342D01*
X153905771Y-85282342D01*
X153905771Y-85262342D01*
X154151771Y-85262342D01*
X154151771Y-85282342D01*
X154786521Y-85282342D01*
X154880771Y-85188092D01*
X154882595Y-84967842D01*
X154875316Y-84893937D01*
X154853759Y-84822872D01*
X154818752Y-84757379D01*
X154797555Y-84731551D01*
X154890886Y-84654957D01*
X154997442Y-84525117D01*
X155076621Y-84376984D01*
X155125379Y-84216250D01*
X155141843Y-84049092D01*
X155141843Y-83874366D01*
X155352155Y-84281110D01*
X156101659Y-86065434D01*
X156707029Y-87903666D01*
X157164438Y-89784183D01*
X157470993Y-91695097D01*
X157624757Y-93624326D01*
X157624757Y-95559674D01*
X157470993Y-97488903D01*
X157414852Y-97838860D01*
X157403496Y-97811445D01*
X157224565Y-97543656D01*
X156996830Y-97315921D01*
X156729041Y-97136990D01*
X156431490Y-97013740D01*
X156115611Y-96950908D01*
X155793545Y-96950908D01*
X155477666Y-97013740D01*
X155180115Y-97136990D01*
X154912326Y-97315921D01*
X154684591Y-97543656D01*
X154505660Y-97811445D01*
X154382410Y-98108996D01*
X154319578Y-98424875D01*
X154319578Y-98746941D01*
X154382410Y-99062820D01*
X154505660Y-99360371D01*
X154684591Y-99628160D01*
X154912326Y-99855895D01*
X155180115Y-100034826D01*
X155477666Y-100158076D01*
X155793545Y-100220908D01*
X156115611Y-100220908D01*
X156431490Y-100158076D01*
X156729041Y-100034826D01*
X156996830Y-99855895D01*
X157071719Y-99781006D01*
X156707029Y-101280334D01*
X156360072Y-102333884D01*
X156360072Y-102206000D01*
X156345218Y-102055181D01*
X156301225Y-101910158D01*
X156258914Y-101831000D01*
X156301225Y-101751842D01*
X156345218Y-101606819D01*
X156360072Y-101456000D01*
X156360072Y-101186000D01*
X156345218Y-101035181D01*
X156301225Y-100890158D01*
X156229786Y-100756504D01*
X156133644Y-100639356D01*
X156016496Y-100543214D01*
X155882842Y-100471775D01*
X155737819Y-100427782D01*
X155587000Y-100412928D01*
X155248731Y-100412928D01*
X152942601Y-98106800D01*
X152942601Y-88587390D01*
X153758101Y-87771891D01*
X153749324Y-87861000D01*
X153753001Y-87898332D01*
X153753000Y-91529907D01*
X153685214Y-91612504D01*
X153613775Y-91746158D01*
X153569782Y-91891181D01*
X153554928Y-92042000D01*
X153554928Y-92312000D01*
X153569782Y-92462819D01*
X153613775Y-92607842D01*
X153656086Y-92687000D01*
X153613775Y-92766158D01*
X153569782Y-92911181D01*
X153554928Y-93062000D01*
X153554928Y-93332000D01*
X153569782Y-93482819D01*
X153613775Y-93627842D01*
X153685214Y-93761496D01*
X153781356Y-93878644D01*
X153825847Y-93915157D01*
X153878026Y-94012776D01*
X153972999Y-94128501D01*
X154002001Y-94152302D01*
X155190928Y-95341230D01*
X155190928Y-95598250D01*
X155207392Y-95765408D01*
X155256150Y-95926142D01*
X155335329Y-96074275D01*
X155441885Y-96204115D01*
X155571725Y-96310671D01*
X155719858Y-96389850D01*
X155880592Y-96438608D01*
X156047750Y-96455072D01*
X156560250Y-96455072D01*
X156727408Y-96438608D01*
X156888142Y-96389850D01*
X157036275Y-96310671D01*
X157166115Y-96204115D01*
X157272671Y-96074275D01*
X157351850Y-95926142D01*
X157400608Y-95765408D01*
X157417072Y-95598250D01*
X157417072Y-95160750D01*
X157400608Y-94993592D01*
X157351850Y-94832858D01*
X157272671Y-94684725D01*
X157166115Y-94554885D01*
X157072784Y-94478291D01*
X157093981Y-94452463D01*
X157128988Y-94386970D01*
X157150545Y-94315905D01*
X157157824Y-94242000D01*
X157156000Y-94021750D01*
X157061750Y-93927500D01*
X156427000Y-93927500D01*
X156427000Y-93947500D01*
X156181000Y-93947500D01*
X156181000Y-93927500D01*
X156161000Y-93927500D01*
X156161000Y-93681500D01*
X156181000Y-93681500D01*
X156181000Y-93084250D01*
X156427000Y-93084250D01*
X156427000Y-93681500D01*
X157061750Y-93681500D01*
X157156000Y-93587250D01*
X157157824Y-93367000D01*
X157150545Y-93293095D01*
X157128988Y-93222030D01*
X157093981Y-93156537D01*
X157046869Y-93099131D01*
X156989463Y-93052019D01*
X156923970Y-93017012D01*
X156852905Y-92995455D01*
X156779000Y-92988176D01*
X156521250Y-92990000D01*
X156427000Y-93084250D01*
X156181000Y-93084250D01*
X156086750Y-92990000D01*
X155829000Y-92988176D01*
X155755095Y-92995455D01*
X155684030Y-93017012D01*
X155618537Y-93052019D01*
X155561131Y-93099131D01*
X155514019Y-93156537D01*
X155479012Y-93222030D01*
X155471072Y-93248205D01*
X155471072Y-93062000D01*
X155456218Y-92911181D01*
X155412225Y-92766158D01*
X155369914Y-92687000D01*
X155412225Y-92607842D01*
X155456218Y-92462819D01*
X155471072Y-92312000D01*
X155471072Y-92042000D01*
X155456218Y-91891181D01*
X155412225Y-91746158D01*
X155340786Y-91612504D01*
X155273000Y-91529907D01*
X155273000Y-88378499D01*
X155297498Y-88373626D01*
X155485856Y-88295605D01*
X155655374Y-88182337D01*
X155799537Y-88038174D01*
X155912805Y-87868656D01*
X155990826Y-87680298D01*
X156030600Y-87480339D01*
X156030600Y-87276461D01*
X155990826Y-87076502D01*
X155912805Y-86888144D01*
X155799537Y-86718626D01*
X155655374Y-86574463D01*
X155485856Y-86461195D01*
X155297498Y-86383174D01*
X155097539Y-86343400D01*
X155022478Y-86343400D01*
X154986416Y-86162102D01*
X154908395Y-85973744D01*
X154873753Y-85921899D01*
X154875316Y-85916747D01*
X154882595Y-85842842D01*
X154880771Y-85622592D01*
X154786521Y-85528342D01*
X154436897Y-85528342D01*
X154293088Y-85468774D01*
X154093129Y-85429000D01*
X153889251Y-85429000D01*
X153689292Y-85468774D01*
X153545483Y-85528342D01*
X153271021Y-85528342D01*
X153176771Y-85622592D01*
X153175116Y-85822390D01*
X153073985Y-85973744D01*
X152995964Y-86162102D01*
X152956190Y-86362061D01*
X152956190Y-86424198D01*
X151671599Y-87708790D01*
X151642601Y-87732588D01*
X151618803Y-87761586D01*
X151618802Y-87761587D01*
X151547627Y-87848313D01*
X151477055Y-87980343D01*
X151468064Y-88009985D01*
X151433599Y-88123603D01*
X151422602Y-88235256D01*
X151418925Y-88272589D01*
X151422602Y-88309921D01*
X151422601Y-98384279D01*
X151418925Y-98421601D01*
X151422601Y-98458923D01*
X151422601Y-98458933D01*
X151433598Y-98570586D01*
X151465271Y-98675000D01*
X151477055Y-98713847D01*
X151547627Y-98845877D01*
X151583203Y-98889226D01*
X151642600Y-98961602D01*
X151671604Y-98985405D01*
X154518205Y-101832008D01*
X154534157Y-101851446D01*
X154502775Y-101910158D01*
X154458782Y-102055181D01*
X154443928Y-102206000D01*
X154443928Y-102288699D01*
X153968283Y-102764344D01*
X153943750Y-102761928D01*
X153431250Y-102761928D01*
X153264092Y-102778392D01*
X153103358Y-102827150D01*
X152955225Y-102906329D01*
X152825385Y-103012885D01*
X152718829Y-103142725D01*
X152639650Y-103290858D01*
X152590892Y-103451592D01*
X152574428Y-103618750D01*
X152574428Y-104056250D01*
X152590892Y-104223408D01*
X152639650Y-104384142D01*
X152718829Y-104532275D01*
X152825385Y-104662115D01*
X152918716Y-104738709D01*
X152897519Y-104764537D01*
X152862512Y-104830030D01*
X152840955Y-104901095D01*
X152833676Y-104975000D01*
X152835500Y-105195250D01*
X152929750Y-105289500D01*
X153564500Y-105289500D01*
X153564500Y-105269500D01*
X153810500Y-105269500D01*
X153810500Y-105289500D01*
X154445250Y-105289500D01*
X154539500Y-105195250D01*
X154541324Y-104975000D01*
X154534045Y-104901095D01*
X154512488Y-104830030D01*
X154477481Y-104764537D01*
X154456284Y-104738709D01*
X154549615Y-104662115D01*
X154656171Y-104532275D01*
X154735350Y-104384142D01*
X154784108Y-104223408D01*
X154797796Y-104084434D01*
X155638202Y-103244029D01*
X155737819Y-103234218D01*
X155882842Y-103190225D01*
X156016496Y-103118786D01*
X156133102Y-103023089D01*
X156101659Y-103118566D01*
X155352155Y-104902890D01*
X154463255Y-106622025D01*
X153440580Y-108265103D01*
X152290595Y-109821735D01*
X151020570Y-111282079D01*
X149638536Y-112636903D01*
X148153229Y-113877642D01*
X146574041Y-114996451D01*
X144910955Y-115986256D01*
X143174486Y-116840800D01*
X141375613Y-117554680D01*
X139525709Y-118123382D01*
X137636469Y-118543311D01*
X135719837Y-118811813D01*
X134293893Y-118896972D01*
X134346252Y-118861987D01*
X134573987Y-118634252D01*
X134752918Y-118366463D01*
X134876168Y-118068912D01*
X134939000Y-117753033D01*
X134939000Y-117430967D01*
X134876168Y-117115088D01*
X134752918Y-116817537D01*
X134573987Y-116549748D01*
X134346252Y-116322013D01*
X134078463Y-116143082D01*
X133780912Y-116019832D01*
X133465033Y-115957000D01*
X133142967Y-115957000D01*
X132827088Y-116019832D01*
X132529537Y-116143082D01*
X132261748Y-116322013D01*
X132034013Y-116549748D01*
X131855082Y-116817537D01*
X131731832Y-117115088D01*
X131669000Y-117430967D01*
X131669000Y-117753033D01*
X131731832Y-118068912D01*
X131855082Y-118366463D01*
X132034013Y-118634252D01*
X132261748Y-118861987D01*
X132315508Y-118897908D01*
X131852968Y-118888710D01*
X129927177Y-118696619D01*
X128022736Y-118352131D01*
X126151684Y-117857425D01*
X124325852Y-117215626D01*
X122556783Y-116430794D01*
X121106542Y-115644000D01*
X123725176Y-115644000D01*
X123732455Y-115717905D01*
X123754012Y-115788970D01*
X123789019Y-115854463D01*
X123836131Y-115911869D01*
X123893537Y-115958981D01*
X123959030Y-115993988D01*
X124030095Y-116015545D01*
X124104000Y-116022824D01*
X124196750Y-116021000D01*
X124291000Y-115926750D01*
X124291000Y-115487000D01*
X124537000Y-115487000D01*
X124537000Y-115926750D01*
X124631250Y-116021000D01*
X124724000Y-116022824D01*
X124797905Y-116015545D01*
X124868970Y-115993988D01*
X124934463Y-115958981D01*
X124991869Y-115911869D01*
X125038981Y-115854463D01*
X125073988Y-115788970D01*
X125095545Y-115717905D01*
X125099450Y-115678256D01*
X143310473Y-115678256D01*
X143310473Y-115811546D01*
X143615184Y-116118836D01*
X143672589Y-116165948D01*
X143738083Y-116200955D01*
X143809147Y-116222512D01*
X143883053Y-116229791D01*
X143956958Y-116222512D01*
X144028022Y-116200955D01*
X144093516Y-116165948D01*
X144150922Y-116118836D01*
X144544021Y-115723158D01*
X144544021Y-115589868D01*
X143971441Y-115017288D01*
X143310473Y-115678256D01*
X125099450Y-115678256D01*
X125102824Y-115644000D01*
X125101000Y-115581250D01*
X125006750Y-115487000D01*
X124537000Y-115487000D01*
X124291000Y-115487000D01*
X123821250Y-115487000D01*
X123727000Y-115581250D01*
X123725176Y-115644000D01*
X121106542Y-115644000D01*
X120855660Y-115507890D01*
X119233241Y-114452749D01*
X117717990Y-113286061D01*
X120775500Y-113286061D01*
X120775500Y-113489939D01*
X120815274Y-113689898D01*
X120893295Y-113878256D01*
X121006563Y-114047774D01*
X121150726Y-114191937D01*
X121320244Y-114305205D01*
X121508602Y-114383226D01*
X121708561Y-114423000D01*
X121912439Y-114423000D01*
X122112398Y-114383226D01*
X122122428Y-114379071D01*
X122122428Y-114477500D01*
X122137282Y-114628319D01*
X122181275Y-114773342D01*
X122252714Y-114906996D01*
X122348856Y-115024144D01*
X122466004Y-115120286D01*
X122599658Y-115191725D01*
X122744681Y-115235718D01*
X122895500Y-115250572D01*
X123265500Y-115250572D01*
X123416319Y-115235718D01*
X123561342Y-115191725D01*
X123694996Y-115120286D01*
X123710313Y-115107715D01*
X123726245Y-115120791D01*
X123727000Y-115146750D01*
X123821250Y-115241000D01*
X123905376Y-115241000D01*
X123946245Y-115262845D01*
X124092206Y-115307122D01*
X124244000Y-115322072D01*
X124584000Y-115322072D01*
X124735794Y-115307122D01*
X124881755Y-115262845D01*
X124922624Y-115241000D01*
X125006750Y-115241000D01*
X125101000Y-115146750D01*
X125101755Y-115120791D01*
X125134180Y-115094180D01*
X125230943Y-114976274D01*
X125254753Y-114931728D01*
X142584990Y-114931728D01*
X142592269Y-115005634D01*
X142613826Y-115076698D01*
X142648833Y-115142192D01*
X142695945Y-115199597D01*
X143003235Y-115504308D01*
X143136525Y-115504308D01*
X143797493Y-114843340D01*
X144145389Y-114843340D01*
X144717969Y-115415920D01*
X144851259Y-115415920D01*
X145246937Y-115022821D01*
X145294049Y-114965415D01*
X145329056Y-114899921D01*
X145350613Y-114828857D01*
X145357892Y-114754952D01*
X145350613Y-114681046D01*
X145329056Y-114609982D01*
X145294049Y-114544488D01*
X145246937Y-114487083D01*
X144939647Y-114182372D01*
X144806357Y-114182372D01*
X144145389Y-114843340D01*
X143797493Y-114843340D01*
X143224913Y-114270760D01*
X143091623Y-114270760D01*
X142695945Y-114663859D01*
X142648833Y-114721265D01*
X142613826Y-114786759D01*
X142592269Y-114857823D01*
X142584990Y-114931728D01*
X125254753Y-114931728D01*
X125302845Y-114841755D01*
X125347122Y-114695794D01*
X125362072Y-114544000D01*
X125362072Y-114264000D01*
X125347122Y-114112206D01*
X125302845Y-113966245D01*
X125301390Y-113963522D01*
X143398861Y-113963522D01*
X143398861Y-114096812D01*
X143971441Y-114669392D01*
X144632409Y-114008424D01*
X144632409Y-113875134D01*
X144327698Y-113567844D01*
X144270293Y-113520732D01*
X144204799Y-113485725D01*
X144133735Y-113464168D01*
X144059829Y-113456889D01*
X143985924Y-113464168D01*
X143914860Y-113485725D01*
X143849366Y-113520732D01*
X143791960Y-113567844D01*
X143398861Y-113963522D01*
X125301390Y-113963522D01*
X125230943Y-113831726D01*
X125177643Y-113766780D01*
X125178286Y-113765996D01*
X125249725Y-113632342D01*
X125293718Y-113487319D01*
X125308572Y-113336500D01*
X125308572Y-113066500D01*
X125293718Y-112915681D01*
X125249725Y-112770658D01*
X125207414Y-112691500D01*
X125249725Y-112612342D01*
X125293718Y-112467319D01*
X125308572Y-112316500D01*
X125308572Y-112046500D01*
X125302179Y-111981589D01*
X127237000Y-111981589D01*
X127237000Y-112254411D01*
X127290225Y-112521989D01*
X127394629Y-112774043D01*
X127546201Y-113000886D01*
X127739114Y-113193799D01*
X127965957Y-113345371D01*
X128218011Y-113449775D01*
X128485589Y-113503000D01*
X128758411Y-113503000D01*
X129025989Y-113449775D01*
X129278043Y-113345371D01*
X129504886Y-113193799D01*
X129697799Y-113000886D01*
X129849371Y-112774043D01*
X129953775Y-112521989D01*
X130007000Y-112254411D01*
X130007000Y-111981589D01*
X129953775Y-111714011D01*
X129849371Y-111461957D01*
X129697799Y-111235114D01*
X129504886Y-111042201D01*
X129278043Y-110890629D01*
X129025989Y-110786225D01*
X128758411Y-110733000D01*
X128485589Y-110733000D01*
X128218011Y-110786225D01*
X127965957Y-110890629D01*
X127739114Y-111042201D01*
X127546201Y-111235114D01*
X127394629Y-111461957D01*
X127290225Y-111714011D01*
X127237000Y-111981589D01*
X125302179Y-111981589D01*
X125293718Y-111895681D01*
X125249725Y-111750658D01*
X125178286Y-111617004D01*
X125082144Y-111499856D01*
X124964996Y-111403714D01*
X124831342Y-111332275D01*
X124686319Y-111288282D01*
X124535500Y-111273428D01*
X124165500Y-111273428D01*
X124014681Y-111288282D01*
X123869658Y-111332275D01*
X123736004Y-111403714D01*
X123714332Y-111421500D01*
X123601209Y-111421500D01*
X123585273Y-111405564D01*
X123415755Y-111292296D01*
X123227397Y-111214275D01*
X123027438Y-111174501D01*
X122823560Y-111174501D01*
X122623601Y-111214275D01*
X122435243Y-111292296D01*
X122265725Y-111405564D01*
X122121562Y-111549727D01*
X122008294Y-111719245D01*
X121930273Y-111907603D01*
X121890499Y-112107562D01*
X121890499Y-112311440D01*
X121898766Y-112353000D01*
X121708561Y-112353000D01*
X121508602Y-112392774D01*
X121320244Y-112470795D01*
X121150726Y-112584063D01*
X121006563Y-112728226D01*
X120893295Y-112897744D01*
X120815274Y-113086102D01*
X120775500Y-113286061D01*
X117717990Y-113286061D01*
X117699781Y-113272041D01*
X116264976Y-111973233D01*
X114937897Y-110564535D01*
X113726935Y-109054853D01*
X113218281Y-108305750D01*
X117724928Y-108305750D01*
X117724928Y-108818250D01*
X117741392Y-108985408D01*
X117790150Y-109146142D01*
X117869329Y-109294275D01*
X117975885Y-109424115D01*
X118105725Y-109530671D01*
X118253858Y-109609850D01*
X118345883Y-109637766D01*
X118311782Y-109750181D01*
X118296928Y-109901000D01*
X118296928Y-110271000D01*
X118311782Y-110421819D01*
X118355775Y-110566842D01*
X118427214Y-110700496D01*
X118523356Y-110817644D01*
X118640504Y-110913786D01*
X118774158Y-110985225D01*
X118919181Y-111029218D01*
X119070000Y-111044072D01*
X119340000Y-111044072D01*
X119490819Y-111029218D01*
X119635842Y-110985225D01*
X119715000Y-110942914D01*
X119794158Y-110985225D01*
X119939181Y-111029218D01*
X120090000Y-111044072D01*
X120360000Y-111044072D01*
X120510819Y-111029218D01*
X120655842Y-110985225D01*
X120682455Y-110971000D01*
X120941519Y-110971000D01*
X120984988Y-110975281D01*
X121028457Y-110971000D01*
X121028465Y-110971000D01*
X121158478Y-110958195D01*
X121325301Y-110907589D01*
X121479047Y-110825411D01*
X121613805Y-110714817D01*
X121641522Y-110681044D01*
X121738031Y-110584535D01*
X121794886Y-110573226D01*
X121983244Y-110495205D01*
X122152762Y-110381937D01*
X122296925Y-110237774D01*
X122410193Y-110068256D01*
X122488214Y-109879898D01*
X122527988Y-109679939D01*
X122527988Y-109476061D01*
X122488214Y-109276102D01*
X122410193Y-109087744D01*
X122296925Y-108918226D01*
X122152762Y-108774063D01*
X121983244Y-108660795D01*
X121794886Y-108582774D01*
X121594927Y-108543000D01*
X121391049Y-108543000D01*
X121191090Y-108582774D01*
X121002732Y-108660795D01*
X120966507Y-108685000D01*
X120498500Y-108685000D01*
X120498500Y-108705000D01*
X120252500Y-108705000D01*
X120252500Y-108685000D01*
X120232500Y-108685000D01*
X120232500Y-108439000D01*
X120252500Y-108439000D01*
X120252500Y-107804250D01*
X120498500Y-107804250D01*
X120498500Y-108439000D01*
X121095750Y-108439000D01*
X121190000Y-108344750D01*
X121191824Y-108087000D01*
X121184545Y-108013095D01*
X121162988Y-107942030D01*
X121127981Y-107876537D01*
X121080869Y-107819131D01*
X121023463Y-107772019D01*
X120957970Y-107737012D01*
X120886905Y-107715455D01*
X120813000Y-107708176D01*
X120592750Y-107710000D01*
X120498500Y-107804250D01*
X120252500Y-107804250D01*
X120158250Y-107710000D01*
X119938000Y-107708176D01*
X119864095Y-107715455D01*
X119793030Y-107737012D01*
X119727537Y-107772019D01*
X119701709Y-107793216D01*
X119625115Y-107699885D01*
X119495275Y-107593329D01*
X119347142Y-107514150D01*
X119186408Y-107465392D01*
X119019250Y-107448928D01*
X118581750Y-107448928D01*
X118414592Y-107465392D01*
X118253858Y-107514150D01*
X118105725Y-107593329D01*
X117975885Y-107699885D01*
X117869329Y-107829725D01*
X117790150Y-107977858D01*
X117741392Y-108138592D01*
X117724928Y-108305750D01*
X113218281Y-108305750D01*
X112639745Y-107453733D01*
X111855913Y-106075074D01*
X111893766Y-106106139D01*
X111959259Y-106141146D01*
X112030324Y-106162703D01*
X112104229Y-106169982D01*
X112361979Y-106168158D01*
X112456229Y-106073908D01*
X112456229Y-105476658D01*
X112702229Y-105476658D01*
X112702229Y-106073908D01*
X112796479Y-106168158D01*
X113054229Y-106169982D01*
X113128134Y-106162703D01*
X113199199Y-106141146D01*
X113264692Y-106106139D01*
X113322098Y-106059027D01*
X113369210Y-106001621D01*
X113404217Y-105936128D01*
X113425774Y-105865063D01*
X113433053Y-105791158D01*
X113431229Y-105570908D01*
X113336979Y-105476658D01*
X112702229Y-105476658D01*
X112456229Y-105476658D01*
X111821479Y-105476658D01*
X111727229Y-105570908D01*
X111725405Y-105791158D01*
X111731882Y-105856919D01*
X111683201Y-105771296D01*
X110863351Y-104018180D01*
X110185378Y-102205469D01*
X109653568Y-100344624D01*
X109540939Y-99785664D01*
X109611170Y-99855895D01*
X109878959Y-100034826D01*
X110176510Y-100158076D01*
X110492389Y-100220908D01*
X110814455Y-100220908D01*
X111130334Y-100158076D01*
X111427885Y-100034826D01*
X111695674Y-99855895D01*
X111923409Y-99628160D01*
X112102340Y-99360371D01*
X112225590Y-99062820D01*
X112288422Y-98746941D01*
X112288422Y-98424875D01*
X112225590Y-98108996D01*
X112102340Y-97811445D01*
X111923409Y-97543656D01*
X111695674Y-97315921D01*
X111427885Y-97136990D01*
X111130334Y-97013740D01*
X110814455Y-96950908D01*
X110492389Y-96950908D01*
X110176510Y-97013740D01*
X109878959Y-97136990D01*
X109611170Y-97315921D01*
X109383435Y-97543656D01*
X109204504Y-97811445D01*
X109197173Y-97829144D01*
X109040943Y-96525817D01*
X108986630Y-95160750D01*
X109190928Y-95160750D01*
X109190928Y-95598250D01*
X109207392Y-95765408D01*
X109256150Y-95926142D01*
X109335329Y-96074275D01*
X109441885Y-96204115D01*
X109571725Y-96310671D01*
X109719858Y-96389850D01*
X109880592Y-96438608D01*
X110047750Y-96455072D01*
X110560250Y-96455072D01*
X110727408Y-96438608D01*
X110888142Y-96389850D01*
X111036275Y-96310671D01*
X111166115Y-96204115D01*
X111272671Y-96074275D01*
X111351850Y-95926142D01*
X111400608Y-95765408D01*
X111417072Y-95598250D01*
X111417072Y-95341229D01*
X111838780Y-94919522D01*
X111868158Y-94935225D01*
X112013181Y-94979218D01*
X112164000Y-94994072D01*
X112534000Y-94994072D01*
X112684819Y-94979218D01*
X112829842Y-94935225D01*
X112963496Y-94863786D01*
X112986000Y-94845317D01*
X112986001Y-102172668D01*
X112982324Y-102210000D01*
X112986001Y-102247333D01*
X112996998Y-102358986D01*
X113010180Y-102402442D01*
X113040454Y-102502246D01*
X113111026Y-102634276D01*
X113182201Y-102721002D01*
X113206000Y-102750001D01*
X113234998Y-102773799D01*
X113305450Y-102844251D01*
X113163371Y-102768308D01*
X113002637Y-102719550D01*
X112835479Y-102703086D01*
X112322979Y-102703086D01*
X112155821Y-102719550D01*
X111995087Y-102768308D01*
X111846954Y-102847487D01*
X111717114Y-102954043D01*
X111610558Y-103083883D01*
X111531379Y-103232016D01*
X111482621Y-103392750D01*
X111466157Y-103559908D01*
X111466157Y-103997408D01*
X111482621Y-104164566D01*
X111531379Y-104325300D01*
X111610558Y-104473433D01*
X111717114Y-104603273D01*
X111810445Y-104679867D01*
X111789248Y-104705695D01*
X111754241Y-104771188D01*
X111732684Y-104842253D01*
X111725405Y-104916158D01*
X111727229Y-105136408D01*
X111821479Y-105230658D01*
X112456229Y-105230658D01*
X112456229Y-105210658D01*
X112702229Y-105210658D01*
X112702229Y-105230658D01*
X113336979Y-105230658D01*
X113431229Y-105136408D01*
X113433053Y-104916158D01*
X113425774Y-104842253D01*
X113404217Y-104771188D01*
X113369210Y-104705695D01*
X113348013Y-104679867D01*
X113414869Y-104625000D01*
X113744832Y-104625000D01*
X113766504Y-104642786D01*
X113900158Y-104714225D01*
X114045181Y-104758218D01*
X114196000Y-104773072D01*
X114566000Y-104773072D01*
X114716819Y-104758218D01*
X114861842Y-104714225D01*
X114995496Y-104642786D01*
X115112644Y-104546644D01*
X115208786Y-104429496D01*
X115280225Y-104295842D01*
X115324218Y-104150819D01*
X115339072Y-104000000D01*
X115339072Y-103730000D01*
X115324218Y-103579181D01*
X115280225Y-103434158D01*
X115237914Y-103355000D01*
X115280225Y-103275842D01*
X115324218Y-103130819D01*
X115339072Y-102980000D01*
X115339072Y-102710000D01*
X115324218Y-102559181D01*
X115280225Y-102414158D01*
X115208786Y-102280504D01*
X115112644Y-102163356D01*
X114995496Y-102067214D01*
X114861842Y-101995775D01*
X114716819Y-101951782D01*
X114566000Y-101936928D01*
X114547729Y-101936928D01*
X114506000Y-101895199D01*
X114506000Y-99576401D01*
X116553411Y-101623813D01*
X116432744Y-101673795D01*
X116263226Y-101787063D01*
X116119063Y-101931226D01*
X116005795Y-102100744D01*
X115927774Y-102289102D01*
X115888000Y-102489061D01*
X115888000Y-102692939D01*
X115927774Y-102892898D01*
X116005795Y-103081256D01*
X116119063Y-103250774D01*
X116263226Y-103394937D01*
X116432744Y-103508205D01*
X116621102Y-103586226D01*
X116821061Y-103626000D01*
X117024939Y-103626000D01*
X117072866Y-103616467D01*
X121132400Y-107676002D01*
X121156199Y-107705001D01*
X121271924Y-107799974D01*
X121403953Y-107870546D01*
X121547214Y-107914003D01*
X121658867Y-107925000D01*
X121658877Y-107925000D01*
X121696200Y-107928676D01*
X121733523Y-107925000D01*
X124515089Y-107925000D01*
X124487000Y-108066212D01*
X124487000Y-108289788D01*
X124530617Y-108509067D01*
X124616176Y-108715624D01*
X124740388Y-108901520D01*
X124898480Y-109059612D01*
X125084376Y-109183824D01*
X125290933Y-109269383D01*
X125510212Y-109313000D01*
X125733788Y-109313000D01*
X125953067Y-109269383D01*
X126159624Y-109183824D01*
X126345520Y-109059612D01*
X126503612Y-108901520D01*
X126627824Y-108715624D01*
X126713383Y-108509067D01*
X126757000Y-108289788D01*
X126757000Y-108066212D01*
X126728911Y-107925000D01*
X127914517Y-107925000D01*
X127739114Y-108042201D01*
X127546201Y-108235114D01*
X127394629Y-108461957D01*
X127290225Y-108714011D01*
X127237000Y-108981589D01*
X127237000Y-109254411D01*
X127290225Y-109521989D01*
X127394629Y-109774043D01*
X127546201Y-110000886D01*
X127739114Y-110193799D01*
X127965957Y-110345371D01*
X128218011Y-110449775D01*
X128485589Y-110503000D01*
X128758411Y-110503000D01*
X129025989Y-110449775D01*
X129278043Y-110345371D01*
X129447268Y-110232298D01*
X129494026Y-110319776D01*
X129545041Y-110381937D01*
X129589000Y-110435501D01*
X129617998Y-110459299D01*
X130263701Y-111105002D01*
X130287499Y-111134001D01*
X130403224Y-111228974D01*
X130511597Y-111286902D01*
X130394629Y-111461957D01*
X130290225Y-111714011D01*
X130237000Y-111981589D01*
X130237000Y-112254411D01*
X130290225Y-112521989D01*
X130394629Y-112774043D01*
X130546201Y-113000886D01*
X130739114Y-113193799D01*
X130965957Y-113345371D01*
X131218011Y-113449775D01*
X131485589Y-113503000D01*
X131758411Y-113503000D01*
X132025989Y-113449775D01*
X132278043Y-113345371D01*
X132504886Y-113193799D01*
X132697799Y-113000886D01*
X132849371Y-112774043D01*
X132953775Y-112521989D01*
X132993297Y-112323300D01*
X133299005Y-112629008D01*
X133322799Y-112658001D01*
X133351792Y-112681795D01*
X133351796Y-112681799D01*
X133358802Y-112687548D01*
X133394629Y-112774043D01*
X133546201Y-113000886D01*
X133739114Y-113193799D01*
X133965957Y-113345371D01*
X134218011Y-113449775D01*
X134485589Y-113503000D01*
X134758411Y-113503000D01*
X135025989Y-113449775D01*
X135278043Y-113345371D01*
X135504886Y-113193799D01*
X135697799Y-113000886D01*
X135786590Y-112868000D01*
X136493176Y-112868000D01*
X136500455Y-112941905D01*
X136522012Y-113012970D01*
X136557019Y-113078463D01*
X136604131Y-113135869D01*
X136661537Y-113182981D01*
X136727030Y-113217988D01*
X136798095Y-113239545D01*
X136872000Y-113246824D01*
X137404750Y-113245000D01*
X137499000Y-113150750D01*
X137499000Y-112241000D01*
X136589250Y-112241000D01*
X136495000Y-112335250D01*
X136493176Y-112868000D01*
X135786590Y-112868000D01*
X135849371Y-112774043D01*
X135953775Y-112521989D01*
X136007000Y-112254411D01*
X136007000Y-111981589D01*
X135953775Y-111714011D01*
X135849371Y-111461957D01*
X135697799Y-111235114D01*
X135562685Y-111100000D01*
X136604291Y-111100000D01*
X136604131Y-111100131D01*
X136557019Y-111157537D01*
X136522012Y-111223030D01*
X136500455Y-111294095D01*
X136493176Y-111368000D01*
X136495000Y-111900750D01*
X136589250Y-111995000D01*
X137499000Y-111995000D01*
X137499000Y-111975000D01*
X137745000Y-111975000D01*
X137745000Y-111995000D01*
X137765000Y-111995000D01*
X137765000Y-112241000D01*
X137745000Y-112241000D01*
X137745000Y-113150750D01*
X137839250Y-113245000D01*
X138372000Y-113246824D01*
X138445905Y-113239545D01*
X138516970Y-113217988D01*
X138582463Y-113182981D01*
X138639869Y-113135869D01*
X138686981Y-113078463D01*
X138721988Y-113012970D01*
X138743545Y-112941905D01*
X138750824Y-112868000D01*
X138749000Y-112335250D01*
X138654752Y-112241002D01*
X138749000Y-112241002D01*
X138749000Y-112135402D01*
X139103921Y-112490323D01*
X139103927Y-112490328D01*
X139130458Y-112516859D01*
X139161650Y-112537700D01*
X139190648Y-112561498D01*
X139223747Y-112579190D01*
X139254936Y-112600029D01*
X139289579Y-112614379D01*
X139322677Y-112632070D01*
X139358592Y-112642965D01*
X139393247Y-112657319D01*
X139430036Y-112664636D01*
X139465938Y-112675527D01*
X139503279Y-112679205D01*
X139540078Y-112686524D01*
X139577596Y-112686524D01*
X139614924Y-112690200D01*
X139652257Y-112686523D01*
X139689784Y-112686523D01*
X139726579Y-112679204D01*
X139763910Y-112675527D01*
X139795623Y-112665907D01*
X140249887Y-113120171D01*
X140346578Y-113199523D01*
X140456892Y-113258488D01*
X140576590Y-113294798D01*
X140701072Y-113307058D01*
X140825554Y-113294798D01*
X140945252Y-113258488D01*
X141055566Y-113199523D01*
X141152257Y-113120171D01*
X142248272Y-112024156D01*
X142327624Y-111927465D01*
X142386589Y-111817151D01*
X142422899Y-111697453D01*
X142435159Y-111572971D01*
X142422899Y-111448489D01*
X142386589Y-111328791D01*
X142327624Y-111218477D01*
X142248272Y-111121786D01*
X141817047Y-110690561D01*
X142185416Y-110056757D01*
X148931972Y-110056757D01*
X148931972Y-110190047D01*
X149236683Y-110497337D01*
X149294088Y-110544449D01*
X149359582Y-110579456D01*
X149430646Y-110601013D01*
X149504552Y-110608292D01*
X149578457Y-110601013D01*
X149649521Y-110579456D01*
X149715015Y-110544449D01*
X149772421Y-110497337D01*
X150165520Y-110101659D01*
X150165520Y-109968369D01*
X149592940Y-109395789D01*
X148931972Y-110056757D01*
X142185416Y-110056757D01*
X142192318Y-110044883D01*
X142926972Y-109310229D01*
X148206489Y-109310229D01*
X148213768Y-109384135D01*
X148235325Y-109455199D01*
X148270332Y-109520693D01*
X148317444Y-109578098D01*
X148624734Y-109882809D01*
X148758024Y-109882809D01*
X149418992Y-109221841D01*
X149766888Y-109221841D01*
X150339468Y-109794421D01*
X150472758Y-109794421D01*
X150868436Y-109401322D01*
X150915548Y-109343916D01*
X150950555Y-109278422D01*
X150972112Y-109207358D01*
X150979391Y-109133453D01*
X150972112Y-109059547D01*
X150950555Y-108988483D01*
X150915548Y-108922989D01*
X150868436Y-108865584D01*
X150561146Y-108560873D01*
X150427856Y-108560873D01*
X149766888Y-109221841D01*
X149418992Y-109221841D01*
X148846412Y-108649261D01*
X148713122Y-108649261D01*
X148317444Y-109042360D01*
X148270332Y-109099766D01*
X148235325Y-109165260D01*
X148213768Y-109236324D01*
X148206489Y-109310229D01*
X142926972Y-109310229D01*
X143895178Y-108342023D01*
X149020360Y-108342023D01*
X149020360Y-108475313D01*
X149592940Y-109047893D01*
X150253908Y-108386925D01*
X150253908Y-108253635D01*
X149949197Y-107946345D01*
X149891792Y-107899233D01*
X149826298Y-107864226D01*
X149755234Y-107842669D01*
X149681328Y-107835390D01*
X149607423Y-107842669D01*
X149536359Y-107864226D01*
X149470865Y-107899233D01*
X149413459Y-107946345D01*
X149020360Y-108342023D01*
X143895178Y-108342023D01*
X144642402Y-107594800D01*
X145585678Y-107594800D01*
X145623000Y-107598476D01*
X145660322Y-107594800D01*
X145660333Y-107594800D01*
X145771986Y-107583803D01*
X145915247Y-107540346D01*
X145919437Y-107538106D01*
X145968077Y-107578024D01*
X146078391Y-107636989D01*
X146198089Y-107673299D01*
X146322571Y-107685559D01*
X146447053Y-107673299D01*
X146566751Y-107636989D01*
X146677065Y-107578024D01*
X146773756Y-107498672D01*
X147869771Y-106402657D01*
X147949123Y-106305966D01*
X148008088Y-106195652D01*
X148044398Y-106075954D01*
X148056658Y-105951472D01*
X148046665Y-105850000D01*
X152833676Y-105850000D01*
X152840955Y-105923905D01*
X152862512Y-105994970D01*
X152897519Y-106060463D01*
X152944631Y-106117869D01*
X153002037Y-106164981D01*
X153067530Y-106199988D01*
X153138595Y-106221545D01*
X153212500Y-106228824D01*
X153470250Y-106227000D01*
X153564500Y-106132750D01*
X153564500Y-105535500D01*
X153810500Y-105535500D01*
X153810500Y-106132750D01*
X153904750Y-106227000D01*
X154162500Y-106228824D01*
X154236405Y-106221545D01*
X154307470Y-106199988D01*
X154372963Y-106164981D01*
X154430369Y-106117869D01*
X154477481Y-106060463D01*
X154512488Y-105994970D01*
X154534045Y-105923905D01*
X154541324Y-105850000D01*
X154539500Y-105629750D01*
X154445250Y-105535500D01*
X153810500Y-105535500D01*
X153564500Y-105535500D01*
X152929750Y-105535500D01*
X152835500Y-105629750D01*
X152833676Y-105850000D01*
X148046665Y-105850000D01*
X148044398Y-105826990D01*
X148008088Y-105707292D01*
X147949123Y-105596978D01*
X147869771Y-105500287D01*
X146950532Y-104581048D01*
X146853841Y-104501696D01*
X146743527Y-104442731D01*
X146623829Y-104406421D01*
X146499347Y-104394161D01*
X146374865Y-104406421D01*
X146255167Y-104442731D01*
X146144853Y-104501696D01*
X146048162Y-104581048D01*
X144952147Y-105677063D01*
X144872795Y-105773754D01*
X144813830Y-105884068D01*
X144777520Y-106003766D01*
X144770524Y-106074800D01*
X144358733Y-106074800D01*
X144327045Y-106071679D01*
X144178059Y-106086353D01*
X144034798Y-106129809D01*
X143902769Y-106200381D01*
X143816042Y-106271556D01*
X141746867Y-108340732D01*
X141757000Y-108289788D01*
X141757000Y-108066212D01*
X141713383Y-107846933D01*
X141627824Y-107640376D01*
X141503612Y-107454480D01*
X141345520Y-107296388D01*
X141159624Y-107172176D01*
X140953067Y-107086617D01*
X140733788Y-107043000D01*
X140510212Y-107043000D01*
X140290933Y-107086617D01*
X140084376Y-107172176D01*
X139898480Y-107296388D01*
X139740388Y-107454480D01*
X139616176Y-107640376D01*
X139530617Y-107846933D01*
X139487000Y-108066212D01*
X139487000Y-108289788D01*
X139530617Y-108509067D01*
X139616176Y-108715624D01*
X139740388Y-108901520D01*
X139898480Y-109059612D01*
X140084376Y-109183824D01*
X140290933Y-109269383D01*
X140510212Y-109313000D01*
X140733788Y-109313000D01*
X140876059Y-109284701D01*
X140225944Y-110403266D01*
X139696206Y-110933004D01*
X138724350Y-109961149D01*
X138849371Y-109774043D01*
X138953775Y-109521989D01*
X139007000Y-109254411D01*
X139007000Y-108981589D01*
X138953775Y-108714011D01*
X138849371Y-108461957D01*
X138697799Y-108235114D01*
X138504886Y-108042201D01*
X138278043Y-107890629D01*
X138025989Y-107786225D01*
X137758411Y-107733000D01*
X137485589Y-107733000D01*
X137218011Y-107786225D01*
X136965957Y-107890629D01*
X136739114Y-108042201D01*
X136546201Y-108235114D01*
X136394629Y-108461957D01*
X136290225Y-108714011D01*
X136237000Y-108981589D01*
X136237000Y-109254411D01*
X136290225Y-109521989D01*
X136314254Y-109580000D01*
X135929746Y-109580000D01*
X135953775Y-109521989D01*
X136007000Y-109254411D01*
X136007000Y-108981589D01*
X135953775Y-108714011D01*
X135849371Y-108461957D01*
X135697799Y-108235114D01*
X135504886Y-108042201D01*
X135278043Y-107890629D01*
X135025989Y-107786225D01*
X134758411Y-107733000D01*
X134485589Y-107733000D01*
X134340635Y-107761833D01*
X132523801Y-105945000D01*
X144319353Y-105945000D01*
X144353000Y-105948314D01*
X144487283Y-105935088D01*
X144616406Y-105895919D01*
X144735407Y-105832312D01*
X144839711Y-105746711D01*
X144925312Y-105642407D01*
X144988919Y-105523406D01*
X145028088Y-105394283D01*
X145038000Y-105293647D01*
X145038000Y-105293646D01*
X145041314Y-105260000D01*
X145038000Y-105226353D01*
X145038000Y-104277647D01*
X145041314Y-104244000D01*
X145028088Y-104109717D01*
X144988919Y-103980594D01*
X144925312Y-103861593D01*
X144839711Y-103757289D01*
X144735407Y-103671688D01*
X144616406Y-103608081D01*
X144487283Y-103568912D01*
X144386647Y-103559000D01*
X144353000Y-103555686D01*
X144319353Y-103559000D01*
X122796647Y-103559000D01*
X122763000Y-103555686D01*
X122729353Y-103559000D01*
X122628717Y-103568912D01*
X122499594Y-103608081D01*
X122380593Y-103671688D01*
X122276289Y-103757289D01*
X122190688Y-103861593D01*
X122127081Y-103980594D01*
X122087912Y-104109717D01*
X122074686Y-104244000D01*
X122078001Y-104277656D01*
X122078000Y-104875010D01*
X121753832Y-104875010D01*
X120246400Y-103367579D01*
X120246400Y-101726000D01*
X132111676Y-101726000D01*
X132118955Y-101799905D01*
X132140512Y-101870970D01*
X132175519Y-101936463D01*
X132222631Y-101993869D01*
X132280037Y-102040981D01*
X132345530Y-102075988D01*
X132416595Y-102097545D01*
X132490500Y-102104824D01*
X133023250Y-102103000D01*
X133117500Y-102008750D01*
X133117500Y-101349000D01*
X133363500Y-101349000D01*
X133363500Y-102008750D01*
X133457750Y-102103000D01*
X133990500Y-102104824D01*
X134064405Y-102097545D01*
X134135470Y-102075988D01*
X134200963Y-102040981D01*
X134258369Y-101993869D01*
X134305481Y-101936463D01*
X134340488Y-101870970D01*
X134362045Y-101799905D01*
X134369324Y-101726000D01*
X134367500Y-101443250D01*
X134273250Y-101349000D01*
X133363500Y-101349000D01*
X133117500Y-101349000D01*
X132207750Y-101349000D01*
X132113500Y-101443250D01*
X132111676Y-101726000D01*
X120246400Y-101726000D01*
X120246400Y-99988722D01*
X120250076Y-99951399D01*
X120246400Y-99914076D01*
X120246400Y-99914067D01*
X120235403Y-99802414D01*
X120191946Y-99659153D01*
X120121374Y-99527124D01*
X120038384Y-99426000D01*
X131852428Y-99426000D01*
X131852428Y-100426000D01*
X131864688Y-100550482D01*
X131900998Y-100670180D01*
X131959963Y-100780494D01*
X132039315Y-100877185D01*
X132113042Y-100937691D01*
X132113500Y-101008750D01*
X132207750Y-101103000D01*
X133117500Y-101103000D01*
X133117500Y-101083000D01*
X133363500Y-101083000D01*
X133363500Y-101103000D01*
X134273250Y-101103000D01*
X134367500Y-101008750D01*
X134367958Y-100937691D01*
X134441685Y-100877185D01*
X134521037Y-100780494D01*
X134580002Y-100670180D01*
X134616312Y-100550482D01*
X134628572Y-100426000D01*
X134628572Y-99426000D01*
X134616312Y-99301518D01*
X134580002Y-99181820D01*
X134521037Y-99071506D01*
X134441685Y-98974815D01*
X134344994Y-98895463D01*
X134234680Y-98836498D01*
X134114982Y-98800188D01*
X134000500Y-98788913D01*
X134000500Y-98686611D01*
X134133337Y-98553774D01*
X134246605Y-98384256D01*
X134324626Y-98195898D01*
X134364400Y-97995939D01*
X134364400Y-97792061D01*
X134324626Y-97592102D01*
X134246605Y-97403744D01*
X134133337Y-97234226D01*
X133989174Y-97090063D01*
X133819656Y-96976795D01*
X133631298Y-96898774D01*
X133431339Y-96859000D01*
X133227461Y-96859000D01*
X133027502Y-96898774D01*
X132839144Y-96976795D01*
X132669626Y-97090063D01*
X132525463Y-97234226D01*
X132412195Y-97403744D01*
X132334174Y-97592102D01*
X132294400Y-97792061D01*
X132294400Y-97995939D01*
X132334174Y-98195898D01*
X132412195Y-98384256D01*
X132480501Y-98486483D01*
X132480501Y-98788913D01*
X132366018Y-98800188D01*
X132246320Y-98836498D01*
X132136006Y-98895463D01*
X132039315Y-98974815D01*
X131959963Y-99071506D01*
X131900998Y-99181820D01*
X131864688Y-99301518D01*
X131852428Y-99426000D01*
X120038384Y-99426000D01*
X120026401Y-99411399D01*
X119997404Y-99387602D01*
X118210000Y-97600199D01*
X118210000Y-97538061D01*
X118170226Y-97338102D01*
X118092205Y-97149744D01*
X117978937Y-96980226D01*
X117834774Y-96836063D01*
X117665256Y-96722795D01*
X117476898Y-96644774D01*
X117276939Y-96605000D01*
X117073061Y-96605000D01*
X116873102Y-96644774D01*
X116684744Y-96722795D01*
X116515226Y-96836063D01*
X116371063Y-96980226D01*
X116257795Y-97149744D01*
X116179774Y-97338102D01*
X116140000Y-97538061D01*
X116140000Y-97741939D01*
X116179774Y-97941898D01*
X116257795Y-98130256D01*
X116371063Y-98299774D01*
X116515226Y-98443937D01*
X116684744Y-98557205D01*
X116873102Y-98635226D01*
X117073061Y-98675000D01*
X117135199Y-98675000D01*
X118726400Y-100266202D01*
X118726400Y-101646543D01*
X118705601Y-101621199D01*
X118676604Y-101597402D01*
X114956011Y-97876810D01*
X114956011Y-93745590D01*
X115889602Y-92812000D01*
X117156000Y-92812000D01*
X117156000Y-92968950D01*
X117195774Y-93168909D01*
X117273795Y-93357267D01*
X117387063Y-93526785D01*
X117399284Y-93539006D01*
X117387063Y-93551226D01*
X117273795Y-93720744D01*
X117195774Y-93909102D01*
X117156000Y-94109061D01*
X117156000Y-94312939D01*
X117195774Y-94512898D01*
X117273795Y-94701256D01*
X117387063Y-94870774D01*
X117531226Y-95014937D01*
X117700744Y-95128205D01*
X117889102Y-95206226D01*
X118089061Y-95246000D01*
X118292939Y-95246000D01*
X118492898Y-95206226D01*
X118681256Y-95128205D01*
X118850774Y-95014937D01*
X118994937Y-94870774D01*
X119108205Y-94701256D01*
X119186226Y-94512898D01*
X119221413Y-94336000D01*
X132028783Y-94336000D01*
X132072720Y-94379937D01*
X132242238Y-94493205D01*
X132430596Y-94571226D01*
X132630555Y-94611000D01*
X132834433Y-94611000D01*
X133034392Y-94571226D01*
X133222750Y-94493205D01*
X133392268Y-94379937D01*
X133536431Y-94235774D01*
X133649699Y-94066256D01*
X133727720Y-93877898D01*
X133767494Y-93677939D01*
X133767494Y-93474061D01*
X133727720Y-93274102D01*
X133649699Y-93085744D01*
X133536431Y-92916226D01*
X133392268Y-92772063D01*
X133222750Y-92658795D01*
X133034392Y-92580774D01*
X132977120Y-92569382D01*
X132965726Y-92512102D01*
X132887705Y-92323744D01*
X132774437Y-92154226D01*
X132630274Y-92010063D01*
X132460756Y-91896795D01*
X132272398Y-91818774D01*
X132149003Y-91794229D01*
X132140226Y-91750102D01*
X132062205Y-91561744D01*
X131948937Y-91392226D01*
X131804774Y-91248063D01*
X131635256Y-91134795D01*
X131446898Y-91056774D01*
X131246939Y-91017000D01*
X131043061Y-91017000D01*
X131042764Y-91017059D01*
X130996437Y-90947726D01*
X130852274Y-90803563D01*
X130682756Y-90690295D01*
X130503648Y-90616105D01*
X130489226Y-90543602D01*
X130411205Y-90355244D01*
X130297937Y-90185726D01*
X130153774Y-90041563D01*
X129984256Y-89928295D01*
X129894613Y-89891163D01*
X129894613Y-89791850D01*
X129854839Y-89591891D01*
X129776818Y-89403533D01*
X129663550Y-89234015D01*
X129519387Y-89089852D01*
X129349869Y-88976584D01*
X129161511Y-88898563D01*
X129078146Y-88881981D01*
X129145659Y-88854016D01*
X129315177Y-88740748D01*
X129459340Y-88596585D01*
X129572608Y-88427067D01*
X129650629Y-88238709D01*
X129690403Y-88038750D01*
X129690403Y-87834872D01*
X129650629Y-87634913D01*
X129572608Y-87446555D01*
X129459340Y-87277037D01*
X129315177Y-87132874D01*
X129145659Y-87019606D01*
X128957301Y-86941585D01*
X128757342Y-86901811D01*
X128553464Y-86901811D01*
X128353505Y-86941585D01*
X128165147Y-87019606D01*
X127995629Y-87132874D01*
X127851466Y-87277037D01*
X127738198Y-87446555D01*
X127670911Y-87609000D01*
X127229475Y-87609000D01*
X127359774Y-87521937D01*
X127503937Y-87377774D01*
X127617205Y-87208256D01*
X127695226Y-87019898D01*
X127735000Y-86819939D01*
X127735000Y-86752999D01*
X139934998Y-86752999D01*
X140346200Y-87164202D01*
X140346200Y-87226339D01*
X140385974Y-87426298D01*
X140463995Y-87614656D01*
X140577263Y-87784174D01*
X140721426Y-87928337D01*
X140890944Y-88041605D01*
X141079302Y-88119626D01*
X141279261Y-88159400D01*
X141483139Y-88159400D01*
X141683098Y-88119626D01*
X141871456Y-88041605D01*
X142040974Y-87928337D01*
X142185137Y-87784174D01*
X142298405Y-87614656D01*
X142376426Y-87426298D01*
X142416200Y-87226339D01*
X142416200Y-87022461D01*
X142376426Y-86822502D01*
X142298405Y-86634144D01*
X142185137Y-86464626D01*
X142040974Y-86320463D01*
X141871456Y-86207195D01*
X141683098Y-86129174D01*
X141483139Y-86089400D01*
X141421002Y-86089400D01*
X140813603Y-85482001D01*
X140789800Y-85452998D01*
X140674075Y-85358025D01*
X140542046Y-85287453D01*
X140398785Y-85243996D01*
X140287132Y-85232999D01*
X140287121Y-85232999D01*
X140249799Y-85229323D01*
X140212477Y-85232999D01*
X116965202Y-85232999D01*
X116879485Y-85206998D01*
X116730499Y-85192324D01*
X116581513Y-85206998D01*
X116438253Y-85250454D01*
X116306223Y-85321027D01*
X116219497Y-85392201D01*
X116182498Y-85429200D01*
X116153500Y-85452998D01*
X116129701Y-85481997D01*
X115992198Y-85619500D01*
X115930061Y-85619500D01*
X115730102Y-85659274D01*
X115541744Y-85737295D01*
X115372226Y-85850563D01*
X115228063Y-85994726D01*
X115114795Y-86164244D01*
X115036774Y-86352602D01*
X114997000Y-86552561D01*
X114997000Y-86756439D01*
X115036774Y-86956398D01*
X115114795Y-87144756D01*
X115228063Y-87314274D01*
X115372226Y-87458437D01*
X115541744Y-87571705D01*
X115730102Y-87649726D01*
X115930061Y-87689500D01*
X115960696Y-87689500D01*
X111838003Y-91812194D01*
X111808999Y-91835997D01*
X111779629Y-91871785D01*
X111714026Y-91951722D01*
X111659357Y-92054000D01*
X111643454Y-92083752D01*
X111599997Y-92227013D01*
X111589000Y-92338666D01*
X111589000Y-92338676D01*
X111585324Y-92375998D01*
X111589000Y-92413320D01*
X111589000Y-92418907D01*
X111521214Y-92501504D01*
X111449775Y-92635158D01*
X111405782Y-92780181D01*
X111390928Y-92931000D01*
X111390928Y-93201000D01*
X111405604Y-93350013D01*
X111305253Y-93380454D01*
X111173224Y-93451026D01*
X111157018Y-93464326D01*
X111157824Y-93367000D01*
X111150545Y-93293095D01*
X111128988Y-93222030D01*
X111093981Y-93156537D01*
X111046869Y-93099131D01*
X110989463Y-93052019D01*
X110923970Y-93017012D01*
X110852905Y-92995455D01*
X110779000Y-92988176D01*
X110521250Y-92990000D01*
X110427000Y-93084250D01*
X110427000Y-93681500D01*
X110447000Y-93681500D01*
X110447000Y-93927500D01*
X110427000Y-93927500D01*
X110427000Y-93947500D01*
X110181000Y-93947500D01*
X110181000Y-93927500D01*
X109546250Y-93927500D01*
X109452000Y-94021750D01*
X109450176Y-94242000D01*
X109457455Y-94315905D01*
X109479012Y-94386970D01*
X109514019Y-94452463D01*
X109535216Y-94478291D01*
X109441885Y-94554885D01*
X109335329Y-94684725D01*
X109256150Y-94832858D01*
X109207392Y-94993592D01*
X109190928Y-95160750D01*
X108986630Y-95160750D01*
X108964000Y-94592000D01*
X109012740Y-93367000D01*
X109450176Y-93367000D01*
X109452000Y-93587250D01*
X109546250Y-93681500D01*
X110181000Y-93681500D01*
X110181000Y-93084250D01*
X110086750Y-92990000D01*
X109829000Y-92988176D01*
X109755095Y-92995455D01*
X109684030Y-93017012D01*
X109618537Y-93052019D01*
X109561131Y-93099131D01*
X109514019Y-93156537D01*
X109479012Y-93222030D01*
X109457455Y-93293095D01*
X109450176Y-93367000D01*
X109012740Y-93367000D01*
X109040943Y-92658183D01*
X109271284Y-90736592D01*
X109653568Y-88839376D01*
X110185378Y-86978531D01*
X110610137Y-85842842D01*
X111725405Y-85842842D01*
X111732684Y-85916747D01*
X111754241Y-85987812D01*
X111789248Y-86053305D01*
X111836360Y-86110711D01*
X111893766Y-86157823D01*
X111959259Y-86192830D01*
X112030324Y-86214387D01*
X112104229Y-86221666D01*
X112361979Y-86219842D01*
X112456229Y-86125592D01*
X112456229Y-85528342D01*
X112702229Y-85528342D01*
X112702229Y-86125592D01*
X112796479Y-86219842D01*
X113054229Y-86221666D01*
X113128134Y-86214387D01*
X113199199Y-86192830D01*
X113264692Y-86157823D01*
X113322098Y-86110711D01*
X113369210Y-86053305D01*
X113404217Y-85987812D01*
X113425774Y-85916747D01*
X113433053Y-85842842D01*
X113431229Y-85622592D01*
X113336979Y-85528342D01*
X112702229Y-85528342D01*
X112456229Y-85528342D01*
X111821479Y-85528342D01*
X111727229Y-85622592D01*
X111725405Y-85842842D01*
X110610137Y-85842842D01*
X110863351Y-85165820D01*
X111466157Y-83876817D01*
X111466157Y-84049092D01*
X111482621Y-84216250D01*
X111531379Y-84376984D01*
X111610558Y-84525117D01*
X111717114Y-84654957D01*
X111810445Y-84731551D01*
X111789248Y-84757379D01*
X111754241Y-84822872D01*
X111732684Y-84893937D01*
X111725405Y-84967842D01*
X111727229Y-85188092D01*
X111821479Y-85282342D01*
X112456229Y-85282342D01*
X112456229Y-85262342D01*
X112702229Y-85262342D01*
X112702229Y-85282342D01*
X113336979Y-85282342D01*
X113431229Y-85188092D01*
X113433053Y-84967842D01*
X113425774Y-84893937D01*
X113404217Y-84822872D01*
X113369210Y-84757379D01*
X113348013Y-84731551D01*
X113441344Y-84654957D01*
X113547900Y-84525117D01*
X113627079Y-84376984D01*
X113675837Y-84216250D01*
X113692301Y-84049092D01*
X113692301Y-83792072D01*
X113867173Y-83617200D01*
X114021795Y-83617200D01*
X114045904Y-83636986D01*
X114179558Y-83708425D01*
X114324581Y-83752418D01*
X114475400Y-83767272D01*
X114845400Y-83767272D01*
X114996219Y-83752418D01*
X115141242Y-83708425D01*
X115274896Y-83636986D01*
X115392044Y-83540844D01*
X115488186Y-83423696D01*
X115559625Y-83290042D01*
X115603618Y-83145019D01*
X115618472Y-82994200D01*
X115618472Y-82724200D01*
X115606161Y-82599200D01*
X126461480Y-82599200D01*
X126498802Y-82602876D01*
X126536124Y-82599200D01*
X126536135Y-82599200D01*
X126647788Y-82588203D01*
X126791049Y-82544746D01*
X126923078Y-82474174D01*
X127038803Y-82379201D01*
X127062606Y-82350197D01*
X129351604Y-80061200D01*
X133108289Y-80061200D01*
X133152226Y-80105137D01*
X133321744Y-80218405D01*
X133510102Y-80296426D01*
X133710061Y-80336200D01*
X133913939Y-80336200D01*
X134113898Y-80296426D01*
X134302256Y-80218405D01*
X134471774Y-80105137D01*
X134615937Y-79960974D01*
X134729205Y-79791456D01*
X134807226Y-79603098D01*
X134847000Y-79403139D01*
X134847000Y-79199261D01*
X134807226Y-78999302D01*
X134789675Y-78956930D01*
X134810256Y-78948405D01*
X134979774Y-78835137D01*
X135123937Y-78690974D01*
X135237205Y-78521456D01*
X135314164Y-78335661D01*
X137755400Y-78335661D01*
X137755400Y-78539539D01*
X137795174Y-78739498D01*
X137873195Y-78927856D01*
X137986463Y-79097374D01*
X138130626Y-79241537D01*
X138300144Y-79354805D01*
X138488502Y-79432826D01*
X138688461Y-79472600D01*
X138892339Y-79472600D01*
X139092298Y-79432826D01*
X139280656Y-79354805D01*
X139450174Y-79241537D01*
X139594337Y-79097374D01*
X139680114Y-78969000D01*
X145352907Y-78969000D01*
X145435504Y-79036786D01*
X145569158Y-79108225D01*
X145714181Y-79152218D01*
X145865000Y-79167072D01*
X146135000Y-79167072D01*
X146285819Y-79152218D01*
X146430842Y-79108225D01*
X146510000Y-79065914D01*
X146589158Y-79108225D01*
X146734181Y-79152218D01*
X146885000Y-79167072D01*
X147155000Y-79167072D01*
X147305819Y-79152218D01*
X147450842Y-79108225D01*
X147584496Y-79036786D01*
X147701644Y-78940644D01*
X147797786Y-78823496D01*
X147869225Y-78689842D01*
X147913218Y-78544819D01*
X147928072Y-78394000D01*
X147928072Y-78024000D01*
X147913218Y-77873181D01*
X147869225Y-77728158D01*
X147797786Y-77594504D01*
X147701644Y-77477356D01*
X147691550Y-77469072D01*
X147786171Y-77353775D01*
X147865350Y-77205642D01*
X147914108Y-77044908D01*
X147930572Y-76877750D01*
X147930572Y-76365250D01*
X147914108Y-76198092D01*
X147865350Y-76037358D01*
X147786171Y-75889225D01*
X147679615Y-75759385D01*
X147549775Y-75652829D01*
X147401642Y-75573650D01*
X147240908Y-75524892D01*
X147073750Y-75508428D01*
X146636250Y-75508428D01*
X146469092Y-75524892D01*
X146308358Y-75573650D01*
X146160225Y-75652829D01*
X146030385Y-75759385D01*
X145953791Y-75852716D01*
X145927963Y-75831519D01*
X145862470Y-75796512D01*
X145791405Y-75774955D01*
X145717500Y-75767676D01*
X145497250Y-75769500D01*
X145403000Y-75863750D01*
X145403000Y-76498500D01*
X145423000Y-76498500D01*
X145423000Y-76744500D01*
X145403000Y-76744500D01*
X145403000Y-76764500D01*
X145157000Y-76764500D01*
X145157000Y-76744500D01*
X144559750Y-76744500D01*
X144465500Y-76838750D01*
X144463676Y-77096500D01*
X144470955Y-77170405D01*
X144492512Y-77241470D01*
X144527519Y-77306963D01*
X144574631Y-77364369D01*
X144632037Y-77411481D01*
X144697530Y-77446488D01*
X144705811Y-77449000D01*
X139108294Y-77449000D01*
X139092298Y-77442374D01*
X138892339Y-77402600D01*
X138688461Y-77402600D01*
X138488502Y-77442374D01*
X138300144Y-77520395D01*
X138130626Y-77633663D01*
X137986463Y-77777826D01*
X137873195Y-77947344D01*
X137795174Y-78135702D01*
X137755400Y-78335661D01*
X135314164Y-78335661D01*
X135315226Y-78333098D01*
X135355000Y-78133139D01*
X135355000Y-77929261D01*
X135315226Y-77729302D01*
X135237205Y-77540944D01*
X135123937Y-77371426D01*
X134979774Y-77227263D01*
X134810256Y-77113995D01*
X134621898Y-77035974D01*
X134421939Y-76996200D01*
X134218061Y-76996200D01*
X134018102Y-77035974D01*
X133829744Y-77113995D01*
X133660226Y-77227263D01*
X133516063Y-77371426D01*
X133464230Y-77449000D01*
X121887453Y-77449000D01*
X121910470Y-77442018D01*
X121975963Y-77407011D01*
X122033369Y-77359899D01*
X122080481Y-77302493D01*
X122115488Y-77237000D01*
X122137045Y-77165935D01*
X122144324Y-77092030D01*
X122142500Y-76834280D01*
X122048250Y-76740030D01*
X121451000Y-76740030D01*
X121451000Y-76760030D01*
X121205000Y-76760030D01*
X121205000Y-76740030D01*
X121185000Y-76740030D01*
X121185000Y-76494030D01*
X121205000Y-76494030D01*
X121205000Y-75859280D01*
X121451000Y-75859280D01*
X121451000Y-76494030D01*
X122048250Y-76494030D01*
X122142500Y-76399780D01*
X122144324Y-76142030D01*
X122137045Y-76068125D01*
X122115488Y-75997060D01*
X122080481Y-75931567D01*
X122033369Y-75874161D01*
X121975963Y-75827049D01*
X121910470Y-75792042D01*
X121839405Y-75770485D01*
X121765500Y-75763206D01*
X121545250Y-75765030D01*
X121451000Y-75859280D01*
X121205000Y-75859280D01*
X121110750Y-75765030D01*
X120890500Y-75763206D01*
X120816595Y-75770485D01*
X120745530Y-75792042D01*
X120680037Y-75827049D01*
X120654209Y-75848246D01*
X120577615Y-75754915D01*
X120447775Y-75648359D01*
X120299642Y-75569180D01*
X120138908Y-75520422D01*
X119971750Y-75503958D01*
X119534250Y-75503958D01*
X119367092Y-75520422D01*
X119206358Y-75569180D01*
X119058225Y-75648359D01*
X118928385Y-75754915D01*
X118821829Y-75884755D01*
X118742650Y-76032888D01*
X118693892Y-76193622D01*
X118677428Y-76360780D01*
X118677428Y-76873280D01*
X118693892Y-77040438D01*
X118742650Y-77201172D01*
X118771583Y-77255303D01*
X118665181Y-77265782D01*
X118520158Y-77309775D01*
X118386504Y-77381214D01*
X118269356Y-77477356D01*
X118173214Y-77594504D01*
X118101775Y-77728158D01*
X118057782Y-77873181D01*
X118042928Y-78024000D01*
X118042928Y-78394000D01*
X118057782Y-78544819D01*
X118101775Y-78689842D01*
X118173214Y-78823496D01*
X118269356Y-78940644D01*
X118386504Y-79036786D01*
X118520158Y-79108225D01*
X118665181Y-79152218D01*
X118816000Y-79167072D01*
X119086000Y-79167072D01*
X119236819Y-79152218D01*
X119381842Y-79108225D01*
X119461000Y-79065914D01*
X119540158Y-79108225D01*
X119685181Y-79152218D01*
X119836000Y-79167072D01*
X120106000Y-79167072D01*
X120256819Y-79152218D01*
X120401842Y-79108225D01*
X120535496Y-79036786D01*
X120618093Y-78969000D01*
X128294200Y-78969000D01*
X126184001Y-81079200D01*
X115296568Y-81079200D01*
X115274896Y-81061414D01*
X115141242Y-80989975D01*
X114996219Y-80945982D01*
X114845400Y-80931128D01*
X114475400Y-80931128D01*
X114324581Y-80945982D01*
X114179558Y-80989975D01*
X114045904Y-81061414D01*
X113928756Y-81157556D01*
X113832614Y-81274704D01*
X113761175Y-81408358D01*
X113717182Y-81553381D01*
X113702328Y-81704200D01*
X113702328Y-81974200D01*
X113714442Y-82097200D01*
X113589704Y-82097200D01*
X113552371Y-82093523D01*
X113515038Y-82097200D01*
X113403385Y-82108197D01*
X113260124Y-82151654D01*
X113128095Y-82222226D01*
X113012370Y-82317199D01*
X112988572Y-82346197D01*
X112579999Y-82754770D01*
X112322979Y-82754770D01*
X112155821Y-82771234D01*
X112025416Y-82810792D01*
X112639745Y-81730267D01*
X113726935Y-80129147D01*
X114937897Y-78619465D01*
X116264976Y-77210767D01*
X117699781Y-75911959D01*
X119233241Y-74731251D01*
X120855660Y-73676110D01*
X122556783Y-72753206D01*
X122795067Y-72647493D01*
X126565424Y-72647493D01*
X126572703Y-72721398D01*
X126594260Y-72792463D01*
X126629267Y-72857956D01*
X126676379Y-72915362D01*
X126733785Y-72962474D01*
X126799278Y-72997481D01*
X126870343Y-73019038D01*
X126944248Y-73026317D01*
X127164498Y-73024493D01*
X127258746Y-72930245D01*
X127258746Y-72952429D01*
X127161356Y-73032356D01*
X127065214Y-73149504D01*
X126993775Y-73283158D01*
X126949782Y-73428181D01*
X126934928Y-73579000D01*
X126934928Y-73949000D01*
X126949782Y-74099819D01*
X126993775Y-74244842D01*
X127065214Y-74378496D01*
X127161356Y-74495644D01*
X127278504Y-74591786D01*
X127412158Y-74663225D01*
X127557181Y-74707218D01*
X127708000Y-74722072D01*
X127726271Y-74722072D01*
X128904801Y-75900603D01*
X128928599Y-75929601D01*
X129044324Y-76024574D01*
X129176353Y-76095146D01*
X129319614Y-76138603D01*
X129354409Y-76142030D01*
X129468600Y-76153277D01*
X129505933Y-76149600D01*
X135343489Y-76149600D01*
X135387426Y-76193537D01*
X135556944Y-76306805D01*
X135745302Y-76384826D01*
X135945261Y-76424600D01*
X136149139Y-76424600D01*
X136349098Y-76384826D01*
X136537456Y-76306805D01*
X136706974Y-76193537D01*
X136851137Y-76049374D01*
X136949800Y-75901713D01*
X137038426Y-75990339D01*
X137207944Y-76103607D01*
X137396302Y-76181628D01*
X137596261Y-76221402D01*
X137800139Y-76221402D01*
X138000098Y-76181628D01*
X138084903Y-76146500D01*
X144463676Y-76146500D01*
X144465500Y-76404250D01*
X144559750Y-76498500D01*
X145157000Y-76498500D01*
X145157000Y-75863750D01*
X145062750Y-75769500D01*
X144842500Y-75767676D01*
X144768595Y-75774955D01*
X144697530Y-75796512D01*
X144632037Y-75831519D01*
X144574631Y-75878631D01*
X144527519Y-75936037D01*
X144492512Y-76001530D01*
X144470955Y-76072595D01*
X144463676Y-76146500D01*
X138084903Y-76146500D01*
X138188456Y-76103607D01*
X138357974Y-75990339D01*
X138502137Y-75846176D01*
X138615405Y-75676658D01*
X138693426Y-75488300D01*
X138733200Y-75288341D01*
X138733200Y-75084463D01*
X138693426Y-74884504D01*
X138675336Y-74840832D01*
X138759000Y-74849072D01*
X139029000Y-74849072D01*
X139179819Y-74834218D01*
X139324842Y-74790225D01*
X139458496Y-74718786D01*
X139575644Y-74622644D01*
X139671786Y-74505496D01*
X139743225Y-74371842D01*
X139787218Y-74226819D01*
X139802072Y-74076000D01*
X139802072Y-73706000D01*
X139787218Y-73555181D01*
X139743225Y-73410158D01*
X139671786Y-73276504D01*
X139654000Y-73254832D01*
X139654000Y-72743747D01*
X139659108Y-72726908D01*
X139675572Y-72559750D01*
X139675572Y-72047250D01*
X139659108Y-71880092D01*
X139610350Y-71719358D01*
X139531171Y-71571225D01*
X139424615Y-71441385D01*
X139294775Y-71334829D01*
X139146642Y-71255650D01*
X138985908Y-71206892D01*
X138818750Y-71190428D01*
X138381250Y-71190428D01*
X138214092Y-71206892D01*
X138053358Y-71255650D01*
X137905225Y-71334829D01*
X137775385Y-71441385D01*
X137698791Y-71534716D01*
X137672963Y-71513519D01*
X137607470Y-71478512D01*
X137536405Y-71456955D01*
X137462500Y-71449676D01*
X137242250Y-71451500D01*
X137148000Y-71545750D01*
X137148000Y-72180500D01*
X137168000Y-72180500D01*
X137168000Y-72426500D01*
X137148000Y-72426500D01*
X137148000Y-73061250D01*
X137221878Y-73135128D01*
X137192356Y-73159356D01*
X137096214Y-73276504D01*
X137024775Y-73410158D01*
X136980782Y-73555181D01*
X136965928Y-73706000D01*
X136965928Y-74076000D01*
X136980782Y-74226819D01*
X137024775Y-74371842D01*
X137033230Y-74387661D01*
X136894263Y-74526628D01*
X136795600Y-74674289D01*
X136706974Y-74585663D01*
X136537456Y-74472395D01*
X136349098Y-74394374D01*
X136149139Y-74354600D01*
X135945261Y-74354600D01*
X135745302Y-74394374D01*
X135556944Y-74472395D01*
X135387426Y-74585663D01*
X135343489Y-74629600D01*
X129783402Y-74629600D01*
X129591884Y-74438082D01*
X129640786Y-74378496D01*
X129712225Y-74244842D01*
X129756218Y-74099819D01*
X129771072Y-73949000D01*
X129771072Y-73579000D01*
X129756218Y-73428181D01*
X129716748Y-73298068D01*
X129716748Y-73087636D01*
X129781363Y-73034608D01*
X129887919Y-72904768D01*
X129967098Y-72756635D01*
X130015856Y-72595901D01*
X130032320Y-72428743D01*
X130032320Y-71916243D01*
X130015856Y-71749085D01*
X129967098Y-71588351D01*
X129887919Y-71440218D01*
X129781363Y-71310378D01*
X129651523Y-71203822D01*
X129503390Y-71124643D01*
X129342656Y-71075885D01*
X129175498Y-71059421D01*
X128737998Y-71059421D01*
X128570840Y-71075885D01*
X128410106Y-71124643D01*
X128261973Y-71203822D01*
X128132133Y-71310378D01*
X128055539Y-71403709D01*
X128029711Y-71382512D01*
X127964218Y-71347505D01*
X127893153Y-71325948D01*
X127819248Y-71318669D01*
X127598998Y-71320493D01*
X127504748Y-71414743D01*
X127504748Y-72049493D01*
X127524748Y-72049493D01*
X127524748Y-72295493D01*
X127504748Y-72295493D01*
X127504748Y-72315493D01*
X127258748Y-72315493D01*
X127258748Y-72295493D01*
X126661498Y-72295493D01*
X126567248Y-72389743D01*
X126565424Y-72647493D01*
X122795067Y-72647493D01*
X124325852Y-71968374D01*
X125096472Y-71697493D01*
X126565424Y-71697493D01*
X126567248Y-71955243D01*
X126661498Y-72049493D01*
X127258748Y-72049493D01*
X127258748Y-71414743D01*
X127164498Y-71320493D01*
X126944248Y-71318669D01*
X126870343Y-71325948D01*
X126799278Y-71347505D01*
X126733785Y-71382512D01*
X126676379Y-71429624D01*
X126629267Y-71487030D01*
X126594260Y-71552523D01*
X126572703Y-71623588D01*
X126565424Y-71697493D01*
X125096472Y-71697493D01*
X126151684Y-71326575D01*
X128022736Y-70831869D01*
X129927177Y-70487381D01*
X131852968Y-70295290D01*
X132315508Y-70286092D01*
X132261748Y-70322013D01*
G37*
%TD.AperFunction*%
%TD*%
M02*
