%TF.GenerationSoftware,KiCad,Pcbnew,(5.1.10)-1*%
%TF.CreationDate,2021-10-31T13:05:10-04:00*%
%TF.ProjectId,CAN_Gauge,43414e5f-4761-4756-9765-2e6b69636164,rev?*%
%TF.SameCoordinates,Original*%
%TF.FileFunction,Legend,Bot*%
%TF.FilePolarity,Positive*%
%FSLAX46Y46*%
G04 Gerber Fmt 4.6, Leading zero omitted, Abs format (unit mm)*
G04 Created by KiCad (PCBNEW (5.1.10)-1) date 2021-10-31 13:05:10*
%MOMM*%
%LPD*%
G01*
G04 APERTURE LIST*
%ADD10C,0.120000*%
%ADD11C,0.150000*%
G04 APERTURE END LIST*
D10*
%TO.C,SW1*%
X140623290Y-110441600D02*
X140644503Y-110462813D01*
X145191200Y-115009510D02*
X145169987Y-114988297D01*
X149759110Y-110441600D02*
X149737897Y-110420387D01*
X145212413Y-105894903D02*
X145191200Y-105873690D01*
X141988006Y-111806316D02*
X143826484Y-113644794D01*
X145191200Y-105873690D02*
X140623290Y-110441600D01*
X146555916Y-107238406D02*
X148394394Y-109076884D01*
X149759110Y-110441600D02*
X145191200Y-115009510D01*
%TO.C,U4*%
X115804000Y-103323000D02*
X150804000Y-103323000D01*
X115804000Y-79323000D02*
X150804000Y-79323000D01*
X115804000Y-79323000D02*
X115804000Y-103323000D01*
X150804000Y-79323000D02*
X150804000Y-103323000D01*
%TO.C,JP1*%
X134240500Y-99176000D02*
X132240500Y-99176000D01*
X134240500Y-101976000D02*
X134240500Y-99176000D01*
X132240500Y-101976000D02*
X134240500Y-101976000D01*
X132240500Y-99176000D02*
X132240500Y-101976000D01*
%TO.C,R5*%
X122700500Y-113986141D02*
X122700500Y-113678859D01*
X123460500Y-113986141D02*
X123460500Y-113678859D01*
%TO.C,C6*%
X124774000Y-114776164D02*
X124774000Y-114991836D01*
X124054000Y-114776164D02*
X124054000Y-114991836D01*
%TO.C,R30*%
X114761000Y-103508641D02*
X114761000Y-103201359D01*
X114001000Y-103508641D02*
X114001000Y-103201359D01*
%TO.C,D11*%
X113314229Y-103766158D02*
X113314229Y-106051158D01*
X113314229Y-106051158D02*
X111844229Y-106051158D01*
X111844229Y-106051158D02*
X111844229Y-103766158D01*
%TO.C,R29*%
X112729000Y-93729641D02*
X112729000Y-93422359D01*
X111969000Y-93729641D02*
X111969000Y-93422359D01*
%TO.C,R21*%
X115040400Y-82502841D02*
X115040400Y-82195559D01*
X114280400Y-82502841D02*
X114280400Y-82195559D01*
%TO.C,D9*%
X109569000Y-95392000D02*
X109569000Y-93107000D01*
X109569000Y-93107000D02*
X111039000Y-93107000D01*
X111039000Y-93107000D02*
X111039000Y-95392000D01*
%TO.C,D8*%
X113314229Y-83817842D02*
X113314229Y-86102842D01*
X113314229Y-86102842D02*
X111844229Y-86102842D01*
X111844229Y-86102842D02*
X111844229Y-83817842D01*
%TO.C,D3*%
X154763771Y-83817842D02*
X154763771Y-86102842D01*
X154763771Y-86102842D02*
X153293771Y-86102842D01*
X153293771Y-86102842D02*
X153293771Y-83817842D01*
%TO.C,D1*%
X154422500Y-103825000D02*
X154422500Y-106110000D01*
X154422500Y-106110000D02*
X152952500Y-106110000D01*
X152952500Y-106110000D02*
X152952500Y-103825000D01*
%TO.C,D10*%
X118788000Y-107827000D02*
X121073000Y-107827000D01*
X121073000Y-107827000D02*
X121073000Y-109297000D01*
X121073000Y-109297000D02*
X118788000Y-109297000D01*
%TO.C,R19*%
X119307359Y-77829000D02*
X119614641Y-77829000D01*
X119307359Y-78589000D02*
X119614641Y-78589000D01*
%TO.C,D7*%
X122025500Y-77352030D02*
X119740500Y-77352030D01*
X122025500Y-75882030D02*
X122025500Y-77352030D01*
X119740500Y-75882030D02*
X122025500Y-75882030D01*
%TO.C,R18*%
X128506641Y-73384000D02*
X128199359Y-73384000D01*
X128506641Y-74144000D02*
X128199359Y-74144000D01*
%TO.C,R17*%
X146663641Y-78589000D02*
X146356359Y-78589000D01*
X146663641Y-77829000D02*
X146356359Y-77829000D01*
%TO.C,R16*%
X138537641Y-74271000D02*
X138230359Y-74271000D01*
X138537641Y-73511000D02*
X138230359Y-73511000D01*
%TO.C,D6*%
X128969248Y-72907493D02*
X126684248Y-72907493D01*
X126684248Y-72907493D02*
X126684248Y-71437493D01*
X126684248Y-71437493D02*
X128969248Y-71437493D01*
%TO.C,D4*%
X144582500Y-75886500D02*
X146867500Y-75886500D01*
X144582500Y-77356500D02*
X144582500Y-75886500D01*
X146867500Y-77356500D02*
X144582500Y-77356500D01*
%TO.C,D5*%
X136327500Y-71568500D02*
X138612500Y-71568500D01*
X136327500Y-73038500D02*
X136327500Y-71568500D01*
X138612500Y-73038500D02*
X136327500Y-73038500D01*
%TO.C,R4*%
X124730500Y-112537859D02*
X124730500Y-112845141D01*
X123970500Y-112537859D02*
X123970500Y-112845141D01*
%TO.C,R9*%
X119868641Y-109706000D02*
X119561359Y-109706000D01*
X119868641Y-110466000D02*
X119561359Y-110466000D01*
%TO.C,R8*%
X154893000Y-92840641D02*
X154893000Y-92533359D01*
X154133000Y-92840641D02*
X154133000Y-92533359D01*
%TO.C,R7*%
X152797500Y-82553641D02*
X152797500Y-82246359D01*
X152037500Y-82553641D02*
X152037500Y-82246359D01*
%TO.C,R3*%
X126345641Y-105997600D02*
X126038359Y-105997600D01*
X126345641Y-106757600D02*
X126038359Y-106757600D01*
%TO.C,R2*%
X155782000Y-101984641D02*
X155782000Y-101677359D01*
X155022000Y-101984641D02*
X155022000Y-101677359D01*
%TO.C,D2*%
X155569000Y-95392000D02*
X155569000Y-93107000D01*
X155569000Y-93107000D02*
X157039000Y-93107000D01*
X157039000Y-93107000D02*
X157039000Y-95392000D01*
%TO.C,SW1*%
D11*
X143556436Y-106921218D02*
X143489093Y-107055905D01*
X143320734Y-107224264D01*
X143219719Y-107257936D01*
X143152375Y-107257936D01*
X143051360Y-107224264D01*
X142984017Y-107156921D01*
X142950345Y-107055905D01*
X142950345Y-106988562D01*
X142984017Y-106887547D01*
X143085032Y-106719188D01*
X143118704Y-106618173D01*
X143118704Y-106550829D01*
X143085032Y-106449814D01*
X143017688Y-106382470D01*
X142916673Y-106348799D01*
X142849330Y-106348799D01*
X142748314Y-106382470D01*
X142579956Y-106550829D01*
X142512612Y-106685516D01*
X142243238Y-106887547D02*
X142781986Y-107763012D01*
X142142223Y-107392623D01*
X142512612Y-108032386D01*
X141637147Y-107493638D01*
X141704490Y-108840508D02*
X142108551Y-108436447D01*
X141906521Y-108638478D02*
X141199414Y-107931371D01*
X141367773Y-107965043D01*
X141502460Y-107965043D01*
X141603475Y-107931371D01*
%TO.C,JP1*%
X130892880Y-99742666D02*
X131607166Y-99742666D01*
X131750023Y-99695047D01*
X131845261Y-99599809D01*
X131892880Y-99456952D01*
X131892880Y-99361714D01*
X131892880Y-100218857D02*
X130892880Y-100218857D01*
X130892880Y-100599809D01*
X130940500Y-100695047D01*
X130988119Y-100742666D01*
X131083357Y-100790285D01*
X131226214Y-100790285D01*
X131321452Y-100742666D01*
X131369071Y-100695047D01*
X131416690Y-100599809D01*
X131416690Y-100218857D01*
X131892880Y-101742666D02*
X131892880Y-101171238D01*
X131892880Y-101456952D02*
X130892880Y-101456952D01*
X131035738Y-101361714D01*
X131130976Y-101266476D01*
X131178595Y-101171238D01*
%TO.C,R5*%
X122326380Y-113678533D02*
X121850190Y-113345200D01*
X122326380Y-113107104D02*
X121326380Y-113107104D01*
X121326380Y-113488057D01*
X121374000Y-113583295D01*
X121421619Y-113630914D01*
X121516857Y-113678533D01*
X121659714Y-113678533D01*
X121754952Y-113630914D01*
X121802571Y-113583295D01*
X121850190Y-113488057D01*
X121850190Y-113107104D01*
X121326380Y-114583295D02*
X121326380Y-114107104D01*
X121802571Y-114059485D01*
X121754952Y-114107104D01*
X121707333Y-114202342D01*
X121707333Y-114440438D01*
X121754952Y-114535676D01*
X121802571Y-114583295D01*
X121897809Y-114630914D01*
X122135904Y-114630914D01*
X122231142Y-114583295D01*
X122278761Y-114535676D01*
X122326380Y-114440438D01*
X122326380Y-114202342D01*
X122278761Y-114107104D01*
X122231142Y-114059485D01*
%TO.C,C6*%
X125088666Y-116945542D02*
X125136285Y-116993161D01*
X125279142Y-117040780D01*
X125374380Y-117040780D01*
X125517238Y-116993161D01*
X125612476Y-116897923D01*
X125660095Y-116802685D01*
X125707714Y-116612209D01*
X125707714Y-116469352D01*
X125660095Y-116278876D01*
X125612476Y-116183638D01*
X125517238Y-116088400D01*
X125374380Y-116040780D01*
X125279142Y-116040780D01*
X125136285Y-116088400D01*
X125088666Y-116136019D01*
X124231523Y-116040780D02*
X124422000Y-116040780D01*
X124517238Y-116088400D01*
X124564857Y-116136019D01*
X124660095Y-116278876D01*
X124707714Y-116469352D01*
X124707714Y-116850304D01*
X124660095Y-116945542D01*
X124612476Y-116993161D01*
X124517238Y-117040780D01*
X124326761Y-117040780D01*
X124231523Y-116993161D01*
X124183904Y-116945542D01*
X124136285Y-116850304D01*
X124136285Y-116612209D01*
X124183904Y-116516971D01*
X124231523Y-116469352D01*
X124326761Y-116421733D01*
X124517238Y-116421733D01*
X124612476Y-116469352D01*
X124660095Y-116516971D01*
X124707714Y-116612209D01*
%TO.C,R30*%
X114833380Y-99918142D02*
X114357190Y-99584809D01*
X114833380Y-99346714D02*
X113833380Y-99346714D01*
X113833380Y-99727666D01*
X113881000Y-99822904D01*
X113928619Y-99870523D01*
X114023857Y-99918142D01*
X114166714Y-99918142D01*
X114261952Y-99870523D01*
X114309571Y-99822904D01*
X114357190Y-99727666D01*
X114357190Y-99346714D01*
X113833380Y-100251476D02*
X113833380Y-100870523D01*
X114214333Y-100537190D01*
X114214333Y-100680047D01*
X114261952Y-100775285D01*
X114309571Y-100822904D01*
X114404809Y-100870523D01*
X114642904Y-100870523D01*
X114738142Y-100822904D01*
X114785761Y-100775285D01*
X114833380Y-100680047D01*
X114833380Y-100394333D01*
X114785761Y-100299095D01*
X114738142Y-100251476D01*
X113833380Y-101489571D02*
X113833380Y-101584809D01*
X113881000Y-101680047D01*
X113928619Y-101727666D01*
X114023857Y-101775285D01*
X114214333Y-101822904D01*
X114452428Y-101822904D01*
X114642904Y-101775285D01*
X114738142Y-101727666D01*
X114785761Y-101680047D01*
X114833380Y-101584809D01*
X114833380Y-101489571D01*
X114785761Y-101394333D01*
X114738142Y-101346714D01*
X114642904Y-101299095D01*
X114452428Y-101251476D01*
X114214333Y-101251476D01*
X114023857Y-101299095D01*
X113928619Y-101346714D01*
X113881000Y-101394333D01*
X113833380Y-101489571D01*
%TO.C,D11*%
X113182380Y-99346714D02*
X112182380Y-99346714D01*
X112182380Y-99584809D01*
X112230000Y-99727666D01*
X112325238Y-99822904D01*
X112420476Y-99870523D01*
X112610952Y-99918142D01*
X112753809Y-99918142D01*
X112944285Y-99870523D01*
X113039523Y-99822904D01*
X113134761Y-99727666D01*
X113182380Y-99584809D01*
X113182380Y-99346714D01*
X113182380Y-100870523D02*
X113182380Y-100299095D01*
X113182380Y-100584809D02*
X112182380Y-100584809D01*
X112325238Y-100489571D01*
X112420476Y-100394333D01*
X112468095Y-100299095D01*
X113182380Y-101822904D02*
X113182380Y-101251476D01*
X113182380Y-101537190D02*
X112182380Y-101537190D01*
X112325238Y-101441952D01*
X112420476Y-101346714D01*
X112468095Y-101251476D01*
%TO.C,R29*%
X112928380Y-90266142D02*
X112452190Y-89932809D01*
X112928380Y-89694714D02*
X111928380Y-89694714D01*
X111928380Y-90075666D01*
X111976000Y-90170904D01*
X112023619Y-90218523D01*
X112118857Y-90266142D01*
X112261714Y-90266142D01*
X112356952Y-90218523D01*
X112404571Y-90170904D01*
X112452190Y-90075666D01*
X112452190Y-89694714D01*
X112023619Y-90647095D02*
X111976000Y-90694714D01*
X111928380Y-90789952D01*
X111928380Y-91028047D01*
X111976000Y-91123285D01*
X112023619Y-91170904D01*
X112118857Y-91218523D01*
X112214095Y-91218523D01*
X112356952Y-91170904D01*
X112928380Y-90599476D01*
X112928380Y-91218523D01*
X112928380Y-91694714D02*
X112928380Y-91885190D01*
X112880761Y-91980428D01*
X112833142Y-92028047D01*
X112690285Y-92123285D01*
X112499809Y-92170904D01*
X112118857Y-92170904D01*
X112023619Y-92123285D01*
X111976000Y-92075666D01*
X111928380Y-91980428D01*
X111928380Y-91789952D01*
X111976000Y-91694714D01*
X112023619Y-91647095D01*
X112118857Y-91599476D01*
X112356952Y-91599476D01*
X112452190Y-91647095D01*
X112499809Y-91694714D01*
X112547428Y-91789952D01*
X112547428Y-91980428D01*
X112499809Y-92075666D01*
X112452190Y-92123285D01*
X112356952Y-92170904D01*
%TO.C,R21*%
X114960380Y-84957542D02*
X114484190Y-84624209D01*
X114960380Y-84386114D02*
X113960380Y-84386114D01*
X113960380Y-84767066D01*
X114008000Y-84862304D01*
X114055619Y-84909923D01*
X114150857Y-84957542D01*
X114293714Y-84957542D01*
X114388952Y-84909923D01*
X114436571Y-84862304D01*
X114484190Y-84767066D01*
X114484190Y-84386114D01*
X114055619Y-85338495D02*
X114008000Y-85386114D01*
X113960380Y-85481352D01*
X113960380Y-85719447D01*
X114008000Y-85814685D01*
X114055619Y-85862304D01*
X114150857Y-85909923D01*
X114246095Y-85909923D01*
X114388952Y-85862304D01*
X114960380Y-85290876D01*
X114960380Y-85909923D01*
X114960380Y-86862304D02*
X114960380Y-86290876D01*
X114960380Y-86576590D02*
X113960380Y-86576590D01*
X114103238Y-86481352D01*
X114198476Y-86386114D01*
X114246095Y-86290876D01*
%TO.C,D9*%
X110845580Y-90805904D02*
X109845580Y-90805904D01*
X109845580Y-91044000D01*
X109893200Y-91186857D01*
X109988438Y-91282095D01*
X110083676Y-91329714D01*
X110274152Y-91377333D01*
X110417009Y-91377333D01*
X110607485Y-91329714D01*
X110702723Y-91282095D01*
X110797961Y-91186857D01*
X110845580Y-91044000D01*
X110845580Y-90805904D01*
X110845580Y-91853523D02*
X110845580Y-92044000D01*
X110797961Y-92139238D01*
X110750342Y-92186857D01*
X110607485Y-92282095D01*
X110417009Y-92329714D01*
X110036057Y-92329714D01*
X109940819Y-92282095D01*
X109893200Y-92234476D01*
X109845580Y-92139238D01*
X109845580Y-91948761D01*
X109893200Y-91853523D01*
X109940819Y-91805904D01*
X110036057Y-91758285D01*
X110274152Y-91758285D01*
X110369390Y-91805904D01*
X110417009Y-91853523D01*
X110464628Y-91948761D01*
X110464628Y-92139238D01*
X110417009Y-92234476D01*
X110369390Y-92282095D01*
X110274152Y-92329714D01*
%TO.C,D8*%
X113131580Y-86843504D02*
X112131580Y-86843504D01*
X112131580Y-87081600D01*
X112179200Y-87224457D01*
X112274438Y-87319695D01*
X112369676Y-87367314D01*
X112560152Y-87414933D01*
X112703009Y-87414933D01*
X112893485Y-87367314D01*
X112988723Y-87319695D01*
X113083961Y-87224457D01*
X113131580Y-87081600D01*
X113131580Y-86843504D01*
X112560152Y-87986361D02*
X112512533Y-87891123D01*
X112464914Y-87843504D01*
X112369676Y-87795885D01*
X112322057Y-87795885D01*
X112226819Y-87843504D01*
X112179200Y-87891123D01*
X112131580Y-87986361D01*
X112131580Y-88176838D01*
X112179200Y-88272076D01*
X112226819Y-88319695D01*
X112322057Y-88367314D01*
X112369676Y-88367314D01*
X112464914Y-88319695D01*
X112512533Y-88272076D01*
X112560152Y-88176838D01*
X112560152Y-87986361D01*
X112607771Y-87891123D01*
X112655390Y-87843504D01*
X112750628Y-87795885D01*
X112941104Y-87795885D01*
X113036342Y-87843504D01*
X113083961Y-87891123D01*
X113131580Y-87986361D01*
X113131580Y-88176838D01*
X113083961Y-88272076D01*
X113036342Y-88319695D01*
X112941104Y-88367314D01*
X112750628Y-88367314D01*
X112655390Y-88319695D01*
X112607771Y-88272076D01*
X112560152Y-88176838D01*
%TO.C,D3*%
X154520880Y-86614904D02*
X153520880Y-86614904D01*
X153520880Y-86853000D01*
X153568500Y-86995857D01*
X153663738Y-87091095D01*
X153758976Y-87138714D01*
X153949452Y-87186333D01*
X154092309Y-87186333D01*
X154282785Y-87138714D01*
X154378023Y-87091095D01*
X154473261Y-86995857D01*
X154520880Y-86853000D01*
X154520880Y-86614904D01*
X153520880Y-87519666D02*
X153520880Y-88138714D01*
X153901833Y-87805380D01*
X153901833Y-87948238D01*
X153949452Y-88043476D01*
X153997071Y-88091095D01*
X154092309Y-88138714D01*
X154330404Y-88138714D01*
X154425642Y-88091095D01*
X154473261Y-88043476D01*
X154520880Y-87948238D01*
X154520880Y-87662523D01*
X154473261Y-87567285D01*
X154425642Y-87519666D01*
%TO.C,D1*%
X152603180Y-103505904D02*
X151603180Y-103505904D01*
X151603180Y-103744000D01*
X151650800Y-103886857D01*
X151746038Y-103982095D01*
X151841276Y-104029714D01*
X152031752Y-104077333D01*
X152174609Y-104077333D01*
X152365085Y-104029714D01*
X152460323Y-103982095D01*
X152555561Y-103886857D01*
X152603180Y-103744000D01*
X152603180Y-103505904D01*
X152603180Y-105029714D02*
X152603180Y-104458285D01*
X152603180Y-104744000D02*
X151603180Y-104744000D01*
X151746038Y-104648761D01*
X151841276Y-104553523D01*
X151888895Y-104458285D01*
%TO.C,D10*%
X117563785Y-109077880D02*
X117563785Y-108077880D01*
X117325690Y-108077880D01*
X117182833Y-108125500D01*
X117087595Y-108220738D01*
X117039976Y-108315976D01*
X116992357Y-108506452D01*
X116992357Y-108649309D01*
X117039976Y-108839785D01*
X117087595Y-108935023D01*
X117182833Y-109030261D01*
X117325690Y-109077880D01*
X117563785Y-109077880D01*
X116039976Y-109077880D02*
X116611404Y-109077880D01*
X116325690Y-109077880D02*
X116325690Y-108077880D01*
X116420928Y-108220738D01*
X116516166Y-108315976D01*
X116611404Y-108363595D01*
X115420928Y-108077880D02*
X115325690Y-108077880D01*
X115230452Y-108125500D01*
X115182833Y-108173119D01*
X115135214Y-108268357D01*
X115087595Y-108458833D01*
X115087595Y-108696928D01*
X115135214Y-108887404D01*
X115182833Y-108982642D01*
X115230452Y-109030261D01*
X115325690Y-109077880D01*
X115420928Y-109077880D01*
X115516166Y-109030261D01*
X115563785Y-108982642D01*
X115611404Y-108887404D01*
X115659023Y-108696928D01*
X115659023Y-108458833D01*
X115611404Y-108268357D01*
X115563785Y-108173119D01*
X115516166Y-108125500D01*
X115420928Y-108077880D01*
%TO.C,R19*%
X123024857Y-78851880D02*
X123358190Y-78375690D01*
X123596285Y-78851880D02*
X123596285Y-77851880D01*
X123215333Y-77851880D01*
X123120095Y-77899500D01*
X123072476Y-77947119D01*
X123024857Y-78042357D01*
X123024857Y-78185214D01*
X123072476Y-78280452D01*
X123120095Y-78328071D01*
X123215333Y-78375690D01*
X123596285Y-78375690D01*
X122072476Y-78851880D02*
X122643904Y-78851880D01*
X122358190Y-78851880D02*
X122358190Y-77851880D01*
X122453428Y-77994738D01*
X122548666Y-78089976D01*
X122643904Y-78137595D01*
X121596285Y-78851880D02*
X121405809Y-78851880D01*
X121310571Y-78804261D01*
X121262952Y-78756642D01*
X121167714Y-78613785D01*
X121120095Y-78423309D01*
X121120095Y-78042357D01*
X121167714Y-77947119D01*
X121215333Y-77899500D01*
X121310571Y-77851880D01*
X121501047Y-77851880D01*
X121596285Y-77899500D01*
X121643904Y-77947119D01*
X121691523Y-78042357D01*
X121691523Y-78280452D01*
X121643904Y-78375690D01*
X121596285Y-78423309D01*
X121501047Y-78470928D01*
X121310571Y-78470928D01*
X121215333Y-78423309D01*
X121167714Y-78375690D01*
X121120095Y-78280452D01*
%TO.C,D7*%
X124199595Y-76883380D02*
X124199595Y-75883380D01*
X123961500Y-75883380D01*
X123818642Y-75931000D01*
X123723404Y-76026238D01*
X123675785Y-76121476D01*
X123628166Y-76311952D01*
X123628166Y-76454809D01*
X123675785Y-76645285D01*
X123723404Y-76740523D01*
X123818642Y-76835761D01*
X123961500Y-76883380D01*
X124199595Y-76883380D01*
X123294833Y-75883380D02*
X122628166Y-75883380D01*
X123056738Y-76883380D01*
%TO.C,R18*%
X125564857Y-74470380D02*
X125898190Y-73994190D01*
X126136285Y-74470380D02*
X126136285Y-73470380D01*
X125755333Y-73470380D01*
X125660095Y-73518000D01*
X125612476Y-73565619D01*
X125564857Y-73660857D01*
X125564857Y-73803714D01*
X125612476Y-73898952D01*
X125660095Y-73946571D01*
X125755333Y-73994190D01*
X126136285Y-73994190D01*
X124612476Y-74470380D02*
X125183904Y-74470380D01*
X124898190Y-74470380D02*
X124898190Y-73470380D01*
X124993428Y-73613238D01*
X125088666Y-73708476D01*
X125183904Y-73756095D01*
X124041047Y-73898952D02*
X124136285Y-73851333D01*
X124183904Y-73803714D01*
X124231523Y-73708476D01*
X124231523Y-73660857D01*
X124183904Y-73565619D01*
X124136285Y-73518000D01*
X124041047Y-73470380D01*
X123850571Y-73470380D01*
X123755333Y-73518000D01*
X123707714Y-73565619D01*
X123660095Y-73660857D01*
X123660095Y-73708476D01*
X123707714Y-73803714D01*
X123755333Y-73851333D01*
X123850571Y-73898952D01*
X124041047Y-73898952D01*
X124136285Y-73946571D01*
X124183904Y-73994190D01*
X124231523Y-74089428D01*
X124231523Y-74279904D01*
X124183904Y-74375142D01*
X124136285Y-74422761D01*
X124041047Y-74470380D01*
X123850571Y-74470380D01*
X123755333Y-74422761D01*
X123707714Y-74375142D01*
X123660095Y-74279904D01*
X123660095Y-74089428D01*
X123707714Y-73994190D01*
X123755333Y-73946571D01*
X123850571Y-73898952D01*
%TO.C,R17*%
X143852857Y-78585180D02*
X144186190Y-78108990D01*
X144424285Y-78585180D02*
X144424285Y-77585180D01*
X144043333Y-77585180D01*
X143948095Y-77632800D01*
X143900476Y-77680419D01*
X143852857Y-77775657D01*
X143852857Y-77918514D01*
X143900476Y-78013752D01*
X143948095Y-78061371D01*
X144043333Y-78108990D01*
X144424285Y-78108990D01*
X142900476Y-78585180D02*
X143471904Y-78585180D01*
X143186190Y-78585180D02*
X143186190Y-77585180D01*
X143281428Y-77728038D01*
X143376666Y-77823276D01*
X143471904Y-77870895D01*
X142567142Y-77585180D02*
X141900476Y-77585180D01*
X142329047Y-78585180D01*
%TO.C,R16*%
X141693857Y-74597380D02*
X142027190Y-74121190D01*
X142265285Y-74597380D02*
X142265285Y-73597380D01*
X141884333Y-73597380D01*
X141789095Y-73645000D01*
X141741476Y-73692619D01*
X141693857Y-73787857D01*
X141693857Y-73930714D01*
X141741476Y-74025952D01*
X141789095Y-74073571D01*
X141884333Y-74121190D01*
X142265285Y-74121190D01*
X140741476Y-74597380D02*
X141312904Y-74597380D01*
X141027190Y-74597380D02*
X141027190Y-73597380D01*
X141122428Y-73740238D01*
X141217666Y-73835476D01*
X141312904Y-73883095D01*
X139884333Y-73597380D02*
X140074809Y-73597380D01*
X140170047Y-73645000D01*
X140217666Y-73692619D01*
X140312904Y-73835476D01*
X140360523Y-74025952D01*
X140360523Y-74406904D01*
X140312904Y-74502142D01*
X140265285Y-74549761D01*
X140170047Y-74597380D01*
X139979571Y-74597380D01*
X139884333Y-74549761D01*
X139836714Y-74502142D01*
X139789095Y-74406904D01*
X139789095Y-74168809D01*
X139836714Y-74073571D01*
X139884333Y-74025952D01*
X139979571Y-73978333D01*
X140170047Y-73978333D01*
X140265285Y-74025952D01*
X140312904Y-74073571D01*
X140360523Y-74168809D01*
%TO.C,D6*%
X126041095Y-73073380D02*
X126041095Y-72073380D01*
X125803000Y-72073380D01*
X125660142Y-72121000D01*
X125564904Y-72216238D01*
X125517285Y-72311476D01*
X125469666Y-72501952D01*
X125469666Y-72644809D01*
X125517285Y-72835285D01*
X125564904Y-72930523D01*
X125660142Y-73025761D01*
X125803000Y-73073380D01*
X126041095Y-73073380D01*
X124612523Y-72073380D02*
X124803000Y-72073380D01*
X124898238Y-72121000D01*
X124945857Y-72168619D01*
X125041095Y-72311476D01*
X125088714Y-72501952D01*
X125088714Y-72882904D01*
X125041095Y-72978142D01*
X124993476Y-73025761D01*
X124898238Y-73073380D01*
X124707761Y-73073380D01*
X124612523Y-73025761D01*
X124564904Y-72978142D01*
X124517285Y-72882904D01*
X124517285Y-72644809D01*
X124564904Y-72549571D01*
X124612523Y-72501952D01*
X124707761Y-72454333D01*
X124898238Y-72454333D01*
X124993476Y-72501952D01*
X125041095Y-72549571D01*
X125088714Y-72644809D01*
%TO.C,D4*%
X143643295Y-76857980D02*
X143643295Y-75857980D01*
X143405200Y-75857980D01*
X143262342Y-75905600D01*
X143167104Y-76000838D01*
X143119485Y-76096076D01*
X143071866Y-76286552D01*
X143071866Y-76429409D01*
X143119485Y-76619885D01*
X143167104Y-76715123D01*
X143262342Y-76810361D01*
X143405200Y-76857980D01*
X143643295Y-76857980D01*
X142214723Y-76191314D02*
X142214723Y-76857980D01*
X142452819Y-75810361D02*
X142690914Y-76524647D01*
X142071866Y-76524647D01*
%TO.C,D5*%
X141670843Y-73331387D02*
X141670843Y-72331387D01*
X141432748Y-72331387D01*
X141289890Y-72379007D01*
X141194652Y-72474245D01*
X141147033Y-72569483D01*
X141099414Y-72759959D01*
X141099414Y-72902816D01*
X141147033Y-73093292D01*
X141194652Y-73188530D01*
X141289890Y-73283768D01*
X141432748Y-73331387D01*
X141670843Y-73331387D01*
X140194652Y-72331387D02*
X140670843Y-72331387D01*
X140718462Y-72807578D01*
X140670843Y-72759959D01*
X140575605Y-72712340D01*
X140337509Y-72712340D01*
X140242271Y-72759959D01*
X140194652Y-72807578D01*
X140147033Y-72902816D01*
X140147033Y-73140911D01*
X140194652Y-73236149D01*
X140242271Y-73283768D01*
X140337509Y-73331387D01*
X140575605Y-73331387D01*
X140670843Y-73283768D01*
X140718462Y-73236149D01*
%TO.C,R4*%
X123545580Y-111646533D02*
X123069390Y-111313200D01*
X123545580Y-111075104D02*
X122545580Y-111075104D01*
X122545580Y-111456057D01*
X122593200Y-111551295D01*
X122640819Y-111598914D01*
X122736057Y-111646533D01*
X122878914Y-111646533D01*
X122974152Y-111598914D01*
X123021771Y-111551295D01*
X123069390Y-111456057D01*
X123069390Y-111075104D01*
X122878914Y-112503676D02*
X123545580Y-112503676D01*
X122497961Y-112265580D02*
X123212247Y-112027485D01*
X123212247Y-112646533D01*
%TO.C,R9*%
X117024166Y-110538380D02*
X117357500Y-110062190D01*
X117595595Y-110538380D02*
X117595595Y-109538380D01*
X117214642Y-109538380D01*
X117119404Y-109586000D01*
X117071785Y-109633619D01*
X117024166Y-109728857D01*
X117024166Y-109871714D01*
X117071785Y-109966952D01*
X117119404Y-110014571D01*
X117214642Y-110062190D01*
X117595595Y-110062190D01*
X116547976Y-110538380D02*
X116357500Y-110538380D01*
X116262261Y-110490761D01*
X116214642Y-110443142D01*
X116119404Y-110300285D01*
X116071785Y-110109809D01*
X116071785Y-109728857D01*
X116119404Y-109633619D01*
X116167023Y-109586000D01*
X116262261Y-109538380D01*
X116452738Y-109538380D01*
X116547976Y-109586000D01*
X116595595Y-109633619D01*
X116643214Y-109728857D01*
X116643214Y-109966952D01*
X116595595Y-110062190D01*
X116547976Y-110109809D01*
X116452738Y-110157428D01*
X116262261Y-110157428D01*
X116167023Y-110109809D01*
X116119404Y-110062190D01*
X116071785Y-109966952D01*
%TO.C,R8*%
X154965380Y-90361333D02*
X154489190Y-90028000D01*
X154965380Y-89789904D02*
X153965380Y-89789904D01*
X153965380Y-90170857D01*
X154013000Y-90266095D01*
X154060619Y-90313714D01*
X154155857Y-90361333D01*
X154298714Y-90361333D01*
X154393952Y-90313714D01*
X154441571Y-90266095D01*
X154489190Y-90170857D01*
X154489190Y-89789904D01*
X154393952Y-90932761D02*
X154346333Y-90837523D01*
X154298714Y-90789904D01*
X154203476Y-90742285D01*
X154155857Y-90742285D01*
X154060619Y-90789904D01*
X154013000Y-90837523D01*
X153965380Y-90932761D01*
X153965380Y-91123238D01*
X154013000Y-91218476D01*
X154060619Y-91266095D01*
X154155857Y-91313714D01*
X154203476Y-91313714D01*
X154298714Y-91266095D01*
X154346333Y-91218476D01*
X154393952Y-91123238D01*
X154393952Y-90932761D01*
X154441571Y-90837523D01*
X154489190Y-90789904D01*
X154584428Y-90742285D01*
X154774904Y-90742285D01*
X154870142Y-90789904D01*
X154917761Y-90837523D01*
X154965380Y-90932761D01*
X154965380Y-91123238D01*
X154917761Y-91218476D01*
X154870142Y-91266095D01*
X154774904Y-91313714D01*
X154584428Y-91313714D01*
X154489190Y-91266095D01*
X154441571Y-91218476D01*
X154393952Y-91123238D01*
%TO.C,R7*%
X152933380Y-84328833D02*
X152457190Y-83995500D01*
X152933380Y-83757404D02*
X151933380Y-83757404D01*
X151933380Y-84138357D01*
X151981000Y-84233595D01*
X152028619Y-84281214D01*
X152123857Y-84328833D01*
X152266714Y-84328833D01*
X152361952Y-84281214D01*
X152409571Y-84233595D01*
X152457190Y-84138357D01*
X152457190Y-83757404D01*
X151933380Y-84662166D02*
X151933380Y-85328833D01*
X152933380Y-84900261D01*
%TO.C,R3*%
X128492266Y-106880780D02*
X128825600Y-106404590D01*
X129063695Y-106880780D02*
X129063695Y-105880780D01*
X128682742Y-105880780D01*
X128587504Y-105928400D01*
X128539885Y-105976019D01*
X128492266Y-106071257D01*
X128492266Y-106214114D01*
X128539885Y-106309352D01*
X128587504Y-106356971D01*
X128682742Y-106404590D01*
X129063695Y-106404590D01*
X128158933Y-105880780D02*
X127539885Y-105880780D01*
X127873219Y-106261733D01*
X127730361Y-106261733D01*
X127635123Y-106309352D01*
X127587504Y-106356971D01*
X127539885Y-106452209D01*
X127539885Y-106690304D01*
X127587504Y-106785542D01*
X127635123Y-106833161D01*
X127730361Y-106880780D01*
X128016076Y-106880780D01*
X128111314Y-106833161D01*
X128158933Y-106785542D01*
%TO.C,R2*%
X154330380Y-101638933D02*
X153854190Y-101305600D01*
X154330380Y-101067504D02*
X153330380Y-101067504D01*
X153330380Y-101448457D01*
X153378000Y-101543695D01*
X153425619Y-101591314D01*
X153520857Y-101638933D01*
X153663714Y-101638933D01*
X153758952Y-101591314D01*
X153806571Y-101543695D01*
X153854190Y-101448457D01*
X153854190Y-101067504D01*
X153425619Y-102019885D02*
X153378000Y-102067504D01*
X153330380Y-102162742D01*
X153330380Y-102400838D01*
X153378000Y-102496076D01*
X153425619Y-102543695D01*
X153520857Y-102591314D01*
X153616095Y-102591314D01*
X153758952Y-102543695D01*
X154330380Y-101972266D01*
X154330380Y-102591314D01*
%TO.C,D2*%
X156870380Y-91110704D02*
X155870380Y-91110704D01*
X155870380Y-91348800D01*
X155918000Y-91491657D01*
X156013238Y-91586895D01*
X156108476Y-91634514D01*
X156298952Y-91682133D01*
X156441809Y-91682133D01*
X156632285Y-91634514D01*
X156727523Y-91586895D01*
X156822761Y-91491657D01*
X156870380Y-91348800D01*
X156870380Y-91110704D01*
X155965619Y-92063085D02*
X155918000Y-92110704D01*
X155870380Y-92205942D01*
X155870380Y-92444038D01*
X155918000Y-92539276D01*
X155965619Y-92586895D01*
X156060857Y-92634514D01*
X156156095Y-92634514D01*
X156298952Y-92586895D01*
X156870380Y-92015466D01*
X156870380Y-92634514D01*
%TD*%
M02*
