%TF.GenerationSoftware,KiCad,Pcbnew,(5.1.10)-1*%
%TF.CreationDate,2021-10-31T13:05:10-04:00*%
%TF.ProjectId,CAN_Gauge,43414e5f-4761-4756-9765-2e6b69636164,rev?*%
%TF.SameCoordinates,Original*%
%TF.FileFunction,Other,Fab,Top*%
%FSLAX46Y46*%
G04 Gerber Fmt 4.6, Leading zero omitted, Abs format (unit mm)*
G04 Created by KiCad (PCBNEW (5.1.10)-1) date 2021-10-31 13:05:10*
%MOMM*%
%LPD*%
G01*
G04 APERTURE LIST*
%ADD10C,0.100000*%
%ADD11C,0.150000*%
%ADD12C,0.080000*%
%ADD13C,0.120000*%
%ADD14C,0.060000*%
%ADD15C,0.040000*%
G04 APERTURE END LIST*
D10*
%TO.C,L1*%
X152067400Y-94423600D02*
X151167400Y-94423600D01*
X151167400Y-94423600D02*
X151167400Y-92423600D01*
X151167400Y-92423600D02*
X152067400Y-92423600D01*
X152067400Y-92423600D02*
X152067400Y-94423600D01*
%TO.C,C11*%
X151388600Y-86680000D02*
X151388600Y-88280000D01*
X151388600Y-88280000D02*
X148188600Y-88280000D01*
X148188600Y-88280000D02*
X148188600Y-86680000D01*
X148188600Y-86680000D02*
X151388600Y-86680000D01*
%TO.C,D12*%
X152339600Y-97408400D02*
X152339600Y-100208400D01*
X152339600Y-100208400D02*
X150539600Y-100208400D01*
X150539600Y-100208400D02*
X150539600Y-97408400D01*
X150539600Y-97408400D02*
X152339600Y-97408400D01*
X151439600Y-98058400D02*
X151439600Y-98458400D01*
X151439600Y-98458400D02*
X151989600Y-98458400D01*
X151439600Y-98458400D02*
X150889600Y-98458400D01*
X151439600Y-98458400D02*
X151839600Y-99058400D01*
X151839600Y-99058400D02*
X151039600Y-99058400D01*
X151039600Y-99058400D02*
X151439600Y-98458400D01*
X151439600Y-99058400D02*
X151439600Y-99558400D01*
%TO.C,U3*%
X148647400Y-90965600D02*
X149622400Y-91940600D01*
X144722400Y-90965600D02*
X148647400Y-90965600D01*
X144722400Y-94865600D02*
X144722400Y-90965600D01*
X149622400Y-94865600D02*
X144722400Y-94865600D01*
X149622400Y-91940600D02*
X149622400Y-94865600D01*
%TO.C,C10*%
X147718400Y-100681600D02*
X146118400Y-100681600D01*
X147718400Y-99881600D02*
X147718400Y-100681600D01*
X146118400Y-99881600D02*
X147718400Y-99881600D01*
X146118400Y-100681600D02*
X146118400Y-99881600D01*
%TO.C,U1*%
X139140800Y-88710000D02*
X138140800Y-89710000D01*
X139140800Y-82710000D02*
X139140800Y-88710000D01*
X132140800Y-82710000D02*
X139140800Y-82710000D01*
X132140800Y-89710000D02*
X132140800Y-82710000D01*
X138140800Y-89710000D02*
X132140800Y-89710000D01*
%TO.C,R22*%
X120129800Y-78980400D02*
X121179800Y-78980400D01*
X120129800Y-79520400D02*
X120129800Y-78980400D01*
X121179800Y-79520400D02*
X120129800Y-79520400D01*
X121179800Y-78980400D02*
X121179800Y-79520400D01*
%TO.C,R6*%
X120079000Y-77456400D02*
X121129000Y-77456400D01*
X120079000Y-77996400D02*
X120079000Y-77456400D01*
X121129000Y-77996400D02*
X120079000Y-77996400D01*
X121129000Y-77456400D02*
X121129000Y-77996400D01*
%TO.C,L2*%
X142377800Y-86899800D02*
X143377800Y-86899800D01*
X142377800Y-87399800D02*
X142377800Y-86899800D01*
X143377800Y-87399800D02*
X142377800Y-87399800D01*
X143377800Y-86899800D02*
X143377800Y-87399800D01*
%TO.C,J2*%
X137622000Y-113380893D02*
X137122000Y-114088000D01*
X138122000Y-114088000D02*
X137622000Y-113380893D01*
X132422000Y-105818000D02*
X132422000Y-107218000D01*
X133822000Y-105818000D02*
X132422000Y-105818000D01*
X133822000Y-107218000D02*
X133822000Y-105818000D01*
X125297000Y-113458000D02*
X126497000Y-114088000D01*
X140947000Y-113458000D02*
X139747000Y-114088000D01*
X126497000Y-114088000D02*
X139747000Y-114088000D01*
X126497000Y-114588000D02*
X126497000Y-114088000D01*
X125297000Y-114588000D02*
X126497000Y-114588000D01*
X125297000Y-107218000D02*
X125297000Y-114588000D01*
X140947000Y-107218000D02*
X125297000Y-107218000D01*
X140947000Y-114588000D02*
X140947000Y-107218000D01*
X139747000Y-114588000D02*
X140947000Y-114588000D01*
X139747000Y-114088000D02*
X139747000Y-114588000D01*
%TO.C,J1*%
X123398000Y-88496000D02*
X118318000Y-88496000D01*
X119268000Y-80876000D02*
X123398000Y-80876000D01*
X118318000Y-88496000D02*
X118318000Y-81826000D01*
X118318000Y-81826000D02*
X119268000Y-80876000D01*
X123398000Y-80876000D02*
X123398000Y-88496000D01*
X118318000Y-81826000D02*
X117258000Y-81826000D01*
X117258000Y-81826000D02*
X117258000Y-82466000D01*
X117258000Y-82466000D02*
X118318000Y-82466000D01*
X123398000Y-81826000D02*
X124458000Y-81826000D01*
X124458000Y-81826000D02*
X124458000Y-82466000D01*
X124458000Y-82466000D02*
X123398000Y-82466000D01*
X118318000Y-84366000D02*
X117258000Y-84366000D01*
X117258000Y-84366000D02*
X117258000Y-85006000D01*
X117258000Y-85006000D02*
X118318000Y-85006000D01*
X123398000Y-84366000D02*
X124458000Y-84366000D01*
X124458000Y-84366000D02*
X124458000Y-85006000D01*
X124458000Y-85006000D02*
X123398000Y-85006000D01*
X118318000Y-86906000D02*
X117258000Y-86906000D01*
X117258000Y-86906000D02*
X117258000Y-87546000D01*
X117258000Y-87546000D02*
X118318000Y-87546000D01*
X123398000Y-86906000D02*
X124458000Y-86906000D01*
X124458000Y-86906000D02*
X124458000Y-87546000D01*
X124458000Y-87546000D02*
X123398000Y-87546000D01*
%TO.C,D22*%
X142734000Y-113275000D02*
X142734000Y-108675000D01*
X142734000Y-108675000D02*
X146734000Y-108675000D01*
X146734000Y-113275000D02*
X142734000Y-113275000D01*
X146734000Y-113275000D02*
X146734000Y-108675000D01*
X144732980Y-110325560D02*
X144732980Y-109423860D01*
X144732980Y-111476180D02*
X144732980Y-112474400D01*
X145533080Y-110325560D02*
X143932880Y-110325560D01*
X143983680Y-111476180D02*
X145533080Y-111476180D01*
X144732980Y-110325560D02*
X143983680Y-111476180D01*
X144732980Y-110325560D02*
X145533080Y-111476180D01*
%TO.C,C9*%
X147998000Y-109958800D02*
X147998000Y-106758800D01*
X149598000Y-109958800D02*
X147998000Y-109958800D01*
X149598000Y-106758800D02*
X149598000Y-109958800D01*
X147998000Y-106758800D02*
X149598000Y-106758800D01*
%TO.C,R26*%
X138876000Y-95464000D02*
X139416000Y-95464000D01*
X139416000Y-95464000D02*
X139416000Y-96514000D01*
X139416000Y-96514000D02*
X138876000Y-96514000D01*
X138876000Y-96514000D02*
X138876000Y-95464000D01*
%TO.C,R25*%
X135623800Y-95166800D02*
X135623800Y-94626800D01*
X135623800Y-94626800D02*
X136673800Y-94626800D01*
X136673800Y-94626800D02*
X136673800Y-95166800D01*
X136673800Y-95166800D02*
X135623800Y-95166800D01*
%TO.C,R24*%
X135480000Y-95719000D02*
X135480000Y-96259000D01*
X135480000Y-96259000D02*
X134430000Y-96259000D01*
X134430000Y-96259000D02*
X134430000Y-95719000D01*
X134430000Y-95719000D02*
X135480000Y-95719000D01*
%TO.C,C18*%
X124660000Y-95358000D02*
X124660000Y-95858000D01*
X124660000Y-95858000D02*
X123660000Y-95858000D01*
X123660000Y-95858000D02*
X123660000Y-95358000D01*
X123660000Y-95358000D02*
X124660000Y-95358000D01*
%TO.C,C17*%
X141690000Y-95489000D02*
X142190000Y-95489000D01*
X142190000Y-95489000D02*
X142190000Y-96489000D01*
X142190000Y-96489000D02*
X141690000Y-96489000D01*
X141690000Y-96489000D02*
X141690000Y-95489000D01*
%TO.C,C16*%
X126692000Y-96120000D02*
X126692000Y-96620000D01*
X126692000Y-96620000D02*
X125692000Y-96620000D01*
X125692000Y-96620000D02*
X125692000Y-96120000D01*
X125692000Y-96120000D02*
X126692000Y-96120000D01*
%TO.C,C15*%
X140293000Y-95489000D02*
X140793000Y-95489000D01*
X140793000Y-95489000D02*
X140793000Y-96489000D01*
X140793000Y-96489000D02*
X140293000Y-96489000D01*
X140293000Y-96489000D02*
X140293000Y-95489000D01*
%TO.C,C14*%
X129117000Y-95362000D02*
X129617000Y-95362000D01*
X129617000Y-95362000D02*
X129617000Y-96362000D01*
X129617000Y-96362000D02*
X129117000Y-96362000D01*
X129117000Y-96362000D02*
X129117000Y-95362000D01*
%TO.C,C13*%
X130514000Y-95362000D02*
X131014000Y-95362000D01*
X131014000Y-95362000D02*
X131014000Y-96362000D01*
X131014000Y-96362000D02*
X130514000Y-96362000D01*
X130514000Y-96362000D02*
X130514000Y-95362000D01*
%TO.C,C8*%
X123846500Y-114205500D02*
X123846500Y-113205500D01*
X124346500Y-114205500D02*
X123846500Y-114205500D01*
X124346500Y-113205500D02*
X124346500Y-114205500D01*
X123846500Y-113205500D02*
X124346500Y-113205500D01*
%TO.C,C7*%
X123846500Y-112173500D02*
X123846500Y-111173500D01*
X124346500Y-112173500D02*
X123846500Y-112173500D01*
X124346500Y-111173500D02*
X124346500Y-112173500D01*
X123846500Y-111173500D02*
X124346500Y-111173500D01*
%TO.C,C5*%
X120088000Y-104494000D02*
X119088000Y-104494000D01*
X120088000Y-103994000D02*
X120088000Y-104494000D01*
X119088000Y-103994000D02*
X120088000Y-103994000D01*
X119088000Y-104494000D02*
X119088000Y-103994000D01*
%TO.C,C4*%
X143379800Y-84986800D02*
X142379800Y-84986800D01*
X143379800Y-84486800D02*
X143379800Y-84986800D01*
X142379800Y-84486800D02*
X143379800Y-84486800D01*
X142379800Y-84986800D02*
X142379800Y-84486800D01*
%TO.C,C3*%
X143379800Y-86129800D02*
X142379800Y-86129800D01*
X143379800Y-85629800D02*
X143379800Y-86129800D01*
X142379800Y-85629800D02*
X143379800Y-85629800D01*
X142379800Y-86129800D02*
X142379800Y-85629800D01*
%TO.C,C2*%
X141791600Y-91180400D02*
X141791600Y-90180400D01*
X142291600Y-91180400D02*
X141791600Y-91180400D01*
X142291600Y-90180400D02*
X142291600Y-91180400D01*
X141791600Y-90180400D02*
X142291600Y-90180400D01*
%TO.C,C1*%
X130302800Y-80398800D02*
X130302800Y-81398800D01*
X129802800Y-80398800D02*
X130302800Y-80398800D01*
X129802800Y-81398800D02*
X129802800Y-80398800D01*
X130302800Y-81398800D02*
X129802800Y-81398800D01*
%TO.C,R15*%
X115888000Y-101307000D02*
X116938000Y-101307000D01*
X115888000Y-101847000D02*
X115888000Y-101307000D01*
X116938000Y-101847000D02*
X115888000Y-101847000D01*
X116938000Y-101307000D02*
X116938000Y-101847000D01*
%TO.C,R14*%
X115888000Y-100037000D02*
X116938000Y-100037000D01*
X115888000Y-100577000D02*
X115888000Y-100037000D01*
X116938000Y-100577000D02*
X115888000Y-100577000D01*
X116938000Y-100037000D02*
X116938000Y-100577000D01*
%TO.C,R13*%
X116015000Y-95338000D02*
X117065000Y-95338000D01*
X116015000Y-95878000D02*
X116015000Y-95338000D01*
X117065000Y-95878000D02*
X116015000Y-95878000D01*
X117065000Y-95338000D02*
X117065000Y-95878000D01*
%TO.C,R12*%
X117065000Y-94481000D02*
X116015000Y-94481000D01*
X117065000Y-93941000D02*
X117065000Y-94481000D01*
X116015000Y-93941000D02*
X117065000Y-93941000D01*
X116015000Y-94481000D02*
X116015000Y-93941000D01*
%TO.C,R11*%
X116015000Y-92544000D02*
X117065000Y-92544000D01*
X116015000Y-93084000D02*
X116015000Y-92544000D01*
X117065000Y-93084000D02*
X116015000Y-93084000D01*
X117065000Y-92544000D02*
X117065000Y-93084000D01*
%TO.C,R10*%
X115888000Y-98767000D02*
X116938000Y-98767000D01*
X115888000Y-99307000D02*
X115888000Y-98767000D01*
X116938000Y-99307000D02*
X115888000Y-99307000D01*
X116938000Y-98767000D02*
X116938000Y-99307000D01*
%TO.C,R1*%
X138629600Y-92677600D02*
X137579600Y-92677600D01*
X138629600Y-92137600D02*
X138629600Y-92677600D01*
X137579600Y-92137600D02*
X138629600Y-92137600D01*
X137579600Y-92677600D02*
X137579600Y-92137600D01*
%TO.C,D21*%
X147742160Y-103330620D02*
X148892780Y-102530520D01*
X147742160Y-103330620D02*
X148892780Y-104079920D01*
X148892780Y-104079920D02*
X148892780Y-102530520D01*
X147742160Y-102530520D02*
X147742160Y-104130720D01*
X148892780Y-103330620D02*
X149891000Y-103330620D01*
X147742160Y-103330620D02*
X146840460Y-103330620D01*
X150691600Y-101829600D02*
X146091600Y-101829600D01*
X150691600Y-101829600D02*
X150691600Y-104829600D01*
X146091600Y-104829600D02*
X146091600Y-101829600D01*
X150691600Y-104829600D02*
X146091600Y-104829600D01*
%TO.C,U2*%
X122038000Y-107841000D02*
X122038000Y-110766000D01*
X122038000Y-110766000D02*
X117138000Y-110766000D01*
X117138000Y-110766000D02*
X117138000Y-106866000D01*
X117138000Y-106866000D02*
X121063000Y-106866000D01*
X121063000Y-106866000D02*
X122038000Y-107841000D01*
%TD*%
%TO.C,L1*%
D11*
X153619780Y-95066457D02*
X153619780Y-95637885D01*
X153619780Y-95352171D02*
X152619780Y-95352171D01*
X152762638Y-95447409D01*
X152857876Y-95542647D01*
X152905495Y-95637885D01*
X152619780Y-94447409D02*
X152619780Y-94352171D01*
X152667400Y-94256933D01*
X152715019Y-94209314D01*
X152810257Y-94161695D01*
X153000733Y-94114076D01*
X153238828Y-94114076D01*
X153429304Y-94161695D01*
X153524542Y-94209314D01*
X153572161Y-94256933D01*
X153619780Y-94352171D01*
X153619780Y-94447409D01*
X153572161Y-94542647D01*
X153524542Y-94590266D01*
X153429304Y-94637885D01*
X153238828Y-94685504D01*
X153000733Y-94685504D01*
X152810257Y-94637885D01*
X152715019Y-94590266D01*
X152667400Y-94542647D01*
X152619780Y-94447409D01*
X152619780Y-93495028D02*
X152619780Y-93399790D01*
X152667400Y-93304552D01*
X152715019Y-93256933D01*
X152810257Y-93209314D01*
X153000733Y-93161695D01*
X153238828Y-93161695D01*
X153429304Y-93209314D01*
X153524542Y-93256933D01*
X153572161Y-93304552D01*
X153619780Y-93399790D01*
X153619780Y-93495028D01*
X153572161Y-93590266D01*
X153524542Y-93637885D01*
X153429304Y-93685504D01*
X153238828Y-93733123D01*
X153000733Y-93733123D01*
X152810257Y-93685504D01*
X152715019Y-93637885D01*
X152667400Y-93590266D01*
X152619780Y-93495028D01*
X152953114Y-92304552D02*
X153619780Y-92304552D01*
X152953114Y-92733123D02*
X153476923Y-92733123D01*
X153572161Y-92685504D01*
X153619780Y-92590266D01*
X153619780Y-92447409D01*
X153572161Y-92352171D01*
X153524542Y-92304552D01*
X153619780Y-91828361D02*
X152619780Y-91828361D01*
X153095971Y-91828361D02*
X153095971Y-91256933D01*
X153619780Y-91256933D02*
X152619780Y-91256933D01*
D12*
X151843590Y-93506933D02*
X151843590Y-93745028D01*
X151343590Y-93745028D01*
X151843590Y-93078361D02*
X151843590Y-93364076D01*
X151843590Y-93221219D02*
X151343590Y-93221219D01*
X151415019Y-93268838D01*
X151462638Y-93316457D01*
X151486447Y-93364076D01*
%TO.C,C11*%
D11*
X148669552Y-86082380D02*
X148098123Y-86082380D01*
X148383838Y-86082380D02*
X148383838Y-85082380D01*
X148288600Y-85225238D01*
X148193361Y-85320476D01*
X148098123Y-85368095D01*
X149050504Y-85177619D02*
X149098123Y-85130000D01*
X149193361Y-85082380D01*
X149431457Y-85082380D01*
X149526695Y-85130000D01*
X149574314Y-85177619D01*
X149621933Y-85272857D01*
X149621933Y-85368095D01*
X149574314Y-85510952D01*
X149002885Y-86082380D01*
X149621933Y-86082380D01*
X150240980Y-85082380D02*
X150336219Y-85082380D01*
X150431457Y-85130000D01*
X150479076Y-85177619D01*
X150526695Y-85272857D01*
X150574314Y-85463333D01*
X150574314Y-85701428D01*
X150526695Y-85891904D01*
X150479076Y-85987142D01*
X150431457Y-86034761D01*
X150336219Y-86082380D01*
X150240980Y-86082380D01*
X150145742Y-86034761D01*
X150098123Y-85987142D01*
X150050504Y-85891904D01*
X150002885Y-85701428D01*
X150002885Y-85463333D01*
X150050504Y-85272857D01*
X150098123Y-85177619D01*
X150145742Y-85130000D01*
X150240980Y-85082380D01*
X151431457Y-85415714D02*
X151431457Y-86082380D01*
X151002885Y-85415714D02*
X151002885Y-85939523D01*
X151050504Y-86034761D01*
X151145742Y-86082380D01*
X151288600Y-86082380D01*
X151383838Y-86034761D01*
X151431457Y-85987142D01*
D13*
X149274314Y-87765714D02*
X149236219Y-87803809D01*
X149121933Y-87841904D01*
X149045742Y-87841904D01*
X148931457Y-87803809D01*
X148855266Y-87727619D01*
X148817171Y-87651428D01*
X148779076Y-87499047D01*
X148779076Y-87384761D01*
X148817171Y-87232380D01*
X148855266Y-87156190D01*
X148931457Y-87080000D01*
X149045742Y-87041904D01*
X149121933Y-87041904D01*
X149236219Y-87080000D01*
X149274314Y-87118095D01*
X150036219Y-87841904D02*
X149579076Y-87841904D01*
X149807647Y-87841904D02*
X149807647Y-87041904D01*
X149731457Y-87156190D01*
X149655266Y-87232380D01*
X149579076Y-87270476D01*
X150798123Y-87841904D02*
X150340980Y-87841904D01*
X150569552Y-87841904D02*
X150569552Y-87041904D01*
X150493361Y-87156190D01*
X150417171Y-87232380D01*
X150340980Y-87270476D01*
%TO.C,D12*%
D11*
X149910780Y-100443257D02*
X149910780Y-101014685D01*
X149910780Y-100728971D02*
X148910780Y-100728971D01*
X149053638Y-100824209D01*
X149148876Y-100919447D01*
X149196495Y-101014685D01*
X149910780Y-100014685D02*
X148910780Y-100014685D01*
X149910780Y-99443257D01*
X148910780Y-99443257D01*
X148910780Y-98490876D02*
X148910780Y-98967066D01*
X149386971Y-99014685D01*
X149339352Y-98967066D01*
X149291733Y-98871828D01*
X149291733Y-98633733D01*
X149339352Y-98538495D01*
X149386971Y-98490876D01*
X149482209Y-98443257D01*
X149720304Y-98443257D01*
X149815542Y-98490876D01*
X149863161Y-98538495D01*
X149910780Y-98633733D01*
X149910780Y-98871828D01*
X149863161Y-98967066D01*
X149815542Y-99014685D01*
X149339352Y-97871828D02*
X149291733Y-97967066D01*
X149244114Y-98014685D01*
X149148876Y-98062304D01*
X149101257Y-98062304D01*
X149006019Y-98014685D01*
X148958400Y-97967066D01*
X148910780Y-97871828D01*
X148910780Y-97681352D01*
X148958400Y-97586114D01*
X149006019Y-97538495D01*
X149101257Y-97490876D01*
X149148876Y-97490876D01*
X149244114Y-97538495D01*
X149291733Y-97586114D01*
X149339352Y-97681352D01*
X149339352Y-97871828D01*
X149386971Y-97967066D01*
X149434590Y-98014685D01*
X149529828Y-98062304D01*
X149720304Y-98062304D01*
X149815542Y-98014685D01*
X149863161Y-97967066D01*
X149910780Y-97871828D01*
X149910780Y-97681352D01*
X149863161Y-97586114D01*
X149815542Y-97538495D01*
X149720304Y-97490876D01*
X149529828Y-97490876D01*
X149434590Y-97538495D01*
X149386971Y-97586114D01*
X149339352Y-97681352D01*
X149910780Y-96538495D02*
X149910780Y-97109923D01*
X149910780Y-96824209D02*
X148910780Y-96824209D01*
X149053638Y-96919447D01*
X149148876Y-97014685D01*
X149196495Y-97109923D01*
X148910780Y-96205161D02*
X148910780Y-95538495D01*
X149910780Y-95967066D01*
X153891980Y-100022685D02*
X152891980Y-100022685D01*
X152891980Y-99784590D01*
X152939600Y-99641733D01*
X153034838Y-99546495D01*
X153130076Y-99498876D01*
X153320552Y-99451257D01*
X153463409Y-99451257D01*
X153653885Y-99498876D01*
X153749123Y-99546495D01*
X153844361Y-99641733D01*
X153891980Y-99784590D01*
X153891980Y-100022685D01*
X153891980Y-98498876D02*
X153891980Y-99070304D01*
X153891980Y-98784590D02*
X152891980Y-98784590D01*
X153034838Y-98879828D01*
X153130076Y-98975066D01*
X153177695Y-99070304D01*
X152987219Y-98117923D02*
X152939600Y-98070304D01*
X152891980Y-97975066D01*
X152891980Y-97736971D01*
X152939600Y-97641733D01*
X152987219Y-97594114D01*
X153082457Y-97546495D01*
X153177695Y-97546495D01*
X153320552Y-97594114D01*
X153891980Y-98165542D01*
X153891980Y-97546495D01*
%TO.C,U3*%
X143320019Y-94629885D02*
X143272400Y-94582266D01*
X143224780Y-94487028D01*
X143224780Y-94248933D01*
X143272400Y-94153695D01*
X143320019Y-94106076D01*
X143415257Y-94058457D01*
X143510495Y-94058457D01*
X143653352Y-94106076D01*
X144224780Y-94677504D01*
X144224780Y-94058457D01*
X143224780Y-93153695D02*
X143224780Y-93629885D01*
X143700971Y-93677504D01*
X143653352Y-93629885D01*
X143605733Y-93534647D01*
X143605733Y-93296552D01*
X143653352Y-93201314D01*
X143700971Y-93153695D01*
X143796209Y-93106076D01*
X144034304Y-93106076D01*
X144129542Y-93153695D01*
X144177161Y-93201314D01*
X144224780Y-93296552D01*
X144224780Y-93534647D01*
X144177161Y-93629885D01*
X144129542Y-93677504D01*
X144224780Y-92629885D02*
X144224780Y-92439409D01*
X144177161Y-92344171D01*
X144129542Y-92296552D01*
X143986685Y-92201314D01*
X143796209Y-92153695D01*
X143415257Y-92153695D01*
X143320019Y-92201314D01*
X143272400Y-92248933D01*
X143224780Y-92344171D01*
X143224780Y-92534647D01*
X143272400Y-92629885D01*
X143320019Y-92677504D01*
X143415257Y-92725123D01*
X143653352Y-92725123D01*
X143748590Y-92677504D01*
X143796209Y-92629885D01*
X143843828Y-92534647D01*
X143843828Y-92344171D01*
X143796209Y-92248933D01*
X143748590Y-92201314D01*
X143653352Y-92153695D01*
X143558114Y-91296552D02*
X144224780Y-91296552D01*
X143177161Y-91534647D02*
X143891447Y-91772742D01*
X143891447Y-91153695D01*
X146635733Y-93662266D02*
X147429066Y-93662266D01*
X147522400Y-93615600D01*
X147569066Y-93568933D01*
X147615733Y-93475600D01*
X147615733Y-93288933D01*
X147569066Y-93195600D01*
X147522400Y-93148933D01*
X147429066Y-93102266D01*
X146635733Y-93102266D01*
X146635733Y-92728933D02*
X146635733Y-92122266D01*
X147009066Y-92448933D01*
X147009066Y-92308933D01*
X147055733Y-92215600D01*
X147102400Y-92168933D01*
X147195733Y-92122266D01*
X147429066Y-92122266D01*
X147522400Y-92168933D01*
X147569066Y-92215600D01*
X147615733Y-92308933D01*
X147615733Y-92588933D01*
X147569066Y-92682266D01*
X147522400Y-92728933D01*
%TO.C,C10*%
X143811742Y-100683180D02*
X143240314Y-100683180D01*
X143526028Y-100683180D02*
X143526028Y-99683180D01*
X143430790Y-99826038D01*
X143335552Y-99921276D01*
X143240314Y-99968895D01*
X144430790Y-99683180D02*
X144526028Y-99683180D01*
X144621266Y-99730800D01*
X144668885Y-99778419D01*
X144716504Y-99873657D01*
X144764123Y-100064133D01*
X144764123Y-100302228D01*
X144716504Y-100492704D01*
X144668885Y-100587942D01*
X144621266Y-100635561D01*
X144526028Y-100683180D01*
X144430790Y-100683180D01*
X144335552Y-100635561D01*
X144287933Y-100587942D01*
X144240314Y-100492704D01*
X144192695Y-100302228D01*
X144192695Y-100064133D01*
X144240314Y-99873657D01*
X144287933Y-99778419D01*
X144335552Y-99730800D01*
X144430790Y-99683180D01*
X145621266Y-100016514D02*
X145621266Y-100683180D01*
X145192695Y-100016514D02*
X145192695Y-100540323D01*
X145240314Y-100635561D01*
X145335552Y-100683180D01*
X145478409Y-100683180D01*
X145573647Y-100635561D01*
X145621266Y-100587942D01*
D14*
X146661257Y-100424457D02*
X146642209Y-100443504D01*
X146585066Y-100462552D01*
X146546971Y-100462552D01*
X146489828Y-100443504D01*
X146451733Y-100405409D01*
X146432685Y-100367314D01*
X146413638Y-100291123D01*
X146413638Y-100233980D01*
X146432685Y-100157790D01*
X146451733Y-100119695D01*
X146489828Y-100081600D01*
X146546971Y-100062552D01*
X146585066Y-100062552D01*
X146642209Y-100081600D01*
X146661257Y-100100647D01*
X147042209Y-100462552D02*
X146813638Y-100462552D01*
X146927923Y-100462552D02*
X146927923Y-100062552D01*
X146889828Y-100119695D01*
X146851733Y-100157790D01*
X146813638Y-100176838D01*
X147289828Y-100062552D02*
X147327923Y-100062552D01*
X147366019Y-100081600D01*
X147385066Y-100100647D01*
X147404114Y-100138742D01*
X147423161Y-100214933D01*
X147423161Y-100310171D01*
X147404114Y-100386361D01*
X147385066Y-100424457D01*
X147366019Y-100443504D01*
X147327923Y-100462552D01*
X147289828Y-100462552D01*
X147251733Y-100443504D01*
X147232685Y-100424457D01*
X147213638Y-100386361D01*
X147194590Y-100310171D01*
X147194590Y-100214933D01*
X147213638Y-100138742D01*
X147232685Y-100100647D01*
X147251733Y-100081600D01*
X147289828Y-100062552D01*
%TO.C,U4*%
D11*
X126416685Y-98133780D02*
X126416685Y-98943304D01*
X126464304Y-99038542D01*
X126511923Y-99086161D01*
X126607161Y-99133780D01*
X126797638Y-99133780D01*
X126892876Y-99086161D01*
X126940495Y-99038542D01*
X126988114Y-98943304D01*
X126988114Y-98133780D01*
X127988114Y-98181400D02*
X127892876Y-98133780D01*
X127750019Y-98133780D01*
X127607161Y-98181400D01*
X127511923Y-98276638D01*
X127464304Y-98371876D01*
X127416685Y-98562352D01*
X127416685Y-98705209D01*
X127464304Y-98895685D01*
X127511923Y-98990923D01*
X127607161Y-99086161D01*
X127750019Y-99133780D01*
X127845257Y-99133780D01*
X127988114Y-99086161D01*
X128035733Y-99038542D01*
X128035733Y-98705209D01*
X127845257Y-98705209D01*
X128464304Y-98752828D02*
X129226209Y-98752828D01*
X129654780Y-98229019D02*
X129702400Y-98181400D01*
X129797638Y-98133780D01*
X130035733Y-98133780D01*
X130130971Y-98181400D01*
X130178590Y-98229019D01*
X130226209Y-98324257D01*
X130226209Y-98419495D01*
X130178590Y-98562352D01*
X129607161Y-99133780D01*
X130226209Y-99133780D01*
X130797638Y-98562352D02*
X130702400Y-98514733D01*
X130654780Y-98467114D01*
X130607161Y-98371876D01*
X130607161Y-98324257D01*
X130654780Y-98229019D01*
X130702400Y-98181400D01*
X130797638Y-98133780D01*
X130988114Y-98133780D01*
X131083352Y-98181400D01*
X131130971Y-98229019D01*
X131178590Y-98324257D01*
X131178590Y-98371876D01*
X131130971Y-98467114D01*
X131083352Y-98514733D01*
X130988114Y-98562352D01*
X130797638Y-98562352D01*
X130702400Y-98609971D01*
X130654780Y-98657590D01*
X130607161Y-98752828D01*
X130607161Y-98943304D01*
X130654780Y-99038542D01*
X130702400Y-99086161D01*
X130797638Y-99133780D01*
X130988114Y-99133780D01*
X131083352Y-99086161D01*
X131130971Y-99038542D01*
X131178590Y-98943304D01*
X131178590Y-98752828D01*
X131130971Y-98657590D01*
X131083352Y-98609971D01*
X130988114Y-98562352D01*
X132035733Y-98133780D02*
X131845257Y-98133780D01*
X131750019Y-98181400D01*
X131702400Y-98229019D01*
X131607161Y-98371876D01*
X131559542Y-98562352D01*
X131559542Y-98943304D01*
X131607161Y-99038542D01*
X131654780Y-99086161D01*
X131750019Y-99133780D01*
X131940495Y-99133780D01*
X132035733Y-99086161D01*
X132083352Y-99038542D01*
X132130971Y-98943304D01*
X132130971Y-98705209D01*
X132083352Y-98609971D01*
X132035733Y-98562352D01*
X131940495Y-98514733D01*
X131750019Y-98514733D01*
X131654780Y-98562352D01*
X131607161Y-98609971D01*
X131559542Y-98705209D01*
X132988114Y-98467114D02*
X132988114Y-99133780D01*
X132750019Y-98086161D02*
X132511923Y-98800447D01*
X133130971Y-98800447D01*
X133511923Y-99133780D02*
X133511923Y-98133780D01*
X133511923Y-98609971D02*
X134083352Y-98609971D01*
X134083352Y-99133780D02*
X134083352Y-98133780D01*
X134511923Y-99086161D02*
X134654780Y-99133780D01*
X134892876Y-99133780D01*
X134988114Y-99086161D01*
X135035733Y-99038542D01*
X135083352Y-98943304D01*
X135083352Y-98848066D01*
X135035733Y-98752828D01*
X134988114Y-98705209D01*
X134892876Y-98657590D01*
X134702400Y-98609971D01*
X134607161Y-98562352D01*
X134559542Y-98514733D01*
X134511923Y-98419495D01*
X134511923Y-98324257D01*
X134559542Y-98229019D01*
X134607161Y-98181400D01*
X134702400Y-98133780D01*
X134940495Y-98133780D01*
X135083352Y-98181400D01*
X135416685Y-98133780D02*
X135654780Y-99133780D01*
X135845257Y-98419495D01*
X136035733Y-99133780D01*
X136273828Y-98133780D01*
X136654780Y-98609971D02*
X136988114Y-98609971D01*
X137130971Y-99133780D02*
X136654780Y-99133780D01*
X136654780Y-98133780D01*
X137130971Y-98133780D01*
X138083352Y-98181400D02*
X137988114Y-98133780D01*
X137845257Y-98133780D01*
X137702400Y-98181400D01*
X137607161Y-98276638D01*
X137559542Y-98371876D01*
X137511923Y-98562352D01*
X137511923Y-98705209D01*
X137559542Y-98895685D01*
X137607161Y-98990923D01*
X137702400Y-99086161D01*
X137845257Y-99133780D01*
X137940495Y-99133780D01*
X138083352Y-99086161D01*
X138130971Y-99038542D01*
X138130971Y-98705209D01*
X137940495Y-98705209D01*
X138750019Y-98133780D02*
X138845257Y-98133780D01*
X138940495Y-98181400D01*
X138988114Y-98229019D01*
X139035733Y-98324257D01*
X139083352Y-98514733D01*
X139083352Y-98752828D01*
X139035733Y-98943304D01*
X138988114Y-99038542D01*
X138940495Y-99086161D01*
X138845257Y-99133780D01*
X138750019Y-99133780D01*
X138654780Y-99086161D01*
X138607161Y-99038542D01*
X138559542Y-98943304D01*
X138511923Y-98752828D01*
X138511923Y-98514733D01*
X138559542Y-98324257D01*
X138607161Y-98229019D01*
X138654780Y-98181400D01*
X138750019Y-98133780D01*
X140035733Y-99133780D02*
X139464304Y-99133780D01*
X139750019Y-99133780D02*
X139750019Y-98133780D01*
X139654780Y-98276638D01*
X139559542Y-98371876D01*
X139464304Y-98419495D01*
%TO.C,U1*%
X132803076Y-82068161D02*
X132945933Y-82115780D01*
X133184028Y-82115780D01*
X133279266Y-82068161D01*
X133326885Y-82020542D01*
X133374504Y-81925304D01*
X133374504Y-81830066D01*
X133326885Y-81734828D01*
X133279266Y-81687209D01*
X133184028Y-81639590D01*
X132993552Y-81591971D01*
X132898314Y-81544352D01*
X132850695Y-81496733D01*
X132803076Y-81401495D01*
X132803076Y-81306257D01*
X132850695Y-81211019D01*
X132898314Y-81163400D01*
X132993552Y-81115780D01*
X133231647Y-81115780D01*
X133374504Y-81163400D01*
X133660219Y-81115780D02*
X134231647Y-81115780D01*
X133945933Y-82115780D02*
X133945933Y-81115780D01*
X134564980Y-82115780D02*
X134564980Y-81115780D01*
X134898314Y-81830066D01*
X135231647Y-81115780D01*
X135231647Y-82115780D01*
X135612600Y-81115780D02*
X136231647Y-81115780D01*
X135898314Y-81496733D01*
X136041171Y-81496733D01*
X136136409Y-81544352D01*
X136184028Y-81591971D01*
X136231647Y-81687209D01*
X136231647Y-81925304D01*
X136184028Y-82020542D01*
X136136409Y-82068161D01*
X136041171Y-82115780D01*
X135755457Y-82115780D01*
X135660219Y-82068161D01*
X135612600Y-82020542D01*
X136612600Y-81211019D02*
X136660219Y-81163400D01*
X136755457Y-81115780D01*
X136993552Y-81115780D01*
X137088790Y-81163400D01*
X137136409Y-81211019D01*
X137184028Y-81306257D01*
X137184028Y-81401495D01*
X137136409Y-81544352D01*
X136564980Y-82115780D01*
X137184028Y-82115780D01*
X137945933Y-81591971D02*
X137612600Y-81591971D01*
X137612600Y-82115780D02*
X137612600Y-81115780D01*
X138088790Y-81115780D01*
X138660219Y-81115780D02*
X138755457Y-81115780D01*
X138850695Y-81163400D01*
X138898314Y-81211019D01*
X138945933Y-81306257D01*
X138993552Y-81496733D01*
X138993552Y-81734828D01*
X138945933Y-81925304D01*
X138898314Y-82020542D01*
X138850695Y-82068161D01*
X138755457Y-82115780D01*
X138660219Y-82115780D01*
X138564980Y-82068161D01*
X138517361Y-82020542D01*
X138469742Y-81925304D01*
X138422123Y-81734828D01*
X138422123Y-81496733D01*
X138469742Y-81306257D01*
X138517361Y-81211019D01*
X138564980Y-81163400D01*
X138660219Y-81115780D01*
X139850695Y-81449114D02*
X139850695Y-82115780D01*
X139612600Y-81068161D02*
X139374504Y-81782447D01*
X139993552Y-81782447D01*
X140326885Y-81211019D02*
X140374504Y-81163400D01*
X140469742Y-81115780D01*
X140707838Y-81115780D01*
X140803076Y-81163400D01*
X140850695Y-81211019D01*
X140898314Y-81306257D01*
X140898314Y-81401495D01*
X140850695Y-81544352D01*
X140279266Y-82115780D01*
X140898314Y-82115780D01*
X141326885Y-82115780D02*
X141326885Y-81115780D01*
X141898314Y-82115780D02*
X141469742Y-81544352D01*
X141898314Y-81115780D02*
X141326885Y-81687209D01*
X142755457Y-81115780D02*
X142564980Y-81115780D01*
X142469742Y-81163400D01*
X142422123Y-81211019D01*
X142326885Y-81353876D01*
X142279266Y-81544352D01*
X142279266Y-81925304D01*
X142326885Y-82020542D01*
X142374504Y-82068161D01*
X142469742Y-82115780D01*
X142660219Y-82115780D01*
X142755457Y-82068161D01*
X142803076Y-82020542D01*
X142850695Y-81925304D01*
X142850695Y-81687209D01*
X142803076Y-81591971D01*
X142755457Y-81544352D01*
X142660219Y-81496733D01*
X142469742Y-81496733D01*
X142374504Y-81544352D01*
X142326885Y-81591971D01*
X142279266Y-81687209D01*
X143136409Y-81115780D02*
X143707838Y-81115780D01*
X143422123Y-82115780D02*
X143422123Y-81115780D01*
X143945933Y-82115780D02*
X144469742Y-81449114D01*
X143945933Y-81449114D02*
X144469742Y-82115780D01*
X134878895Y-85662380D02*
X134878895Y-86471904D01*
X134926514Y-86567142D01*
X134974133Y-86614761D01*
X135069371Y-86662380D01*
X135259847Y-86662380D01*
X135355085Y-86614761D01*
X135402704Y-86567142D01*
X135450323Y-86471904D01*
X135450323Y-85662380D01*
X136450323Y-86662380D02*
X135878895Y-86662380D01*
X136164609Y-86662380D02*
X136164609Y-85662380D01*
X136069371Y-85805238D01*
X135974133Y-85900476D01*
X135878895Y-85948095D01*
%TO.C,R22*%
X121837561Y-79651980D02*
X121266133Y-79651980D01*
X121551847Y-79651980D02*
X121551847Y-78651980D01*
X121456609Y-78794838D01*
X121361371Y-78890076D01*
X121266133Y-78937695D01*
X122456609Y-78651980D02*
X122551847Y-78651980D01*
X122647085Y-78699600D01*
X122694704Y-78747219D01*
X122742323Y-78842457D01*
X122789942Y-79032933D01*
X122789942Y-79271028D01*
X122742323Y-79461504D01*
X122694704Y-79556742D01*
X122647085Y-79604361D01*
X122551847Y-79651980D01*
X122456609Y-79651980D01*
X122361371Y-79604361D01*
X122313752Y-79556742D01*
X122266133Y-79461504D01*
X122218514Y-79271028D01*
X122218514Y-79032933D01*
X122266133Y-78842457D01*
X122313752Y-78747219D01*
X122361371Y-78699600D01*
X122456609Y-78651980D01*
X123218514Y-79651980D02*
X123218514Y-78651980D01*
X123313752Y-79271028D02*
X123599466Y-79651980D01*
X123599466Y-78985314D02*
X123218514Y-79366266D01*
D15*
X120487657Y-79368019D02*
X120400990Y-79244209D01*
X120339085Y-79368019D02*
X120339085Y-79108019D01*
X120438133Y-79108019D01*
X120462895Y-79120400D01*
X120475276Y-79132780D01*
X120487657Y-79157542D01*
X120487657Y-79194685D01*
X120475276Y-79219447D01*
X120462895Y-79231828D01*
X120438133Y-79244209D01*
X120339085Y-79244209D01*
X120586704Y-79132780D02*
X120599085Y-79120400D01*
X120623847Y-79108019D01*
X120685752Y-79108019D01*
X120710514Y-79120400D01*
X120722895Y-79132780D01*
X120735276Y-79157542D01*
X120735276Y-79182304D01*
X120722895Y-79219447D01*
X120574323Y-79368019D01*
X120735276Y-79368019D01*
X120834323Y-79132780D02*
X120846704Y-79120400D01*
X120871466Y-79108019D01*
X120933371Y-79108019D01*
X120958133Y-79120400D01*
X120970514Y-79132780D01*
X120982895Y-79157542D01*
X120982895Y-79182304D01*
X120970514Y-79219447D01*
X120821942Y-79368019D01*
X120982895Y-79368019D01*
%TO.C,R6*%
D11*
X121786761Y-78204180D02*
X121215333Y-78204180D01*
X121501047Y-78204180D02*
X121501047Y-77204180D01*
X121405809Y-77347038D01*
X121310571Y-77442276D01*
X121215333Y-77489895D01*
X122405809Y-77204180D02*
X122501047Y-77204180D01*
X122596285Y-77251800D01*
X122643904Y-77299419D01*
X122691523Y-77394657D01*
X122739142Y-77585133D01*
X122739142Y-77823228D01*
X122691523Y-78013704D01*
X122643904Y-78108942D01*
X122596285Y-78156561D01*
X122501047Y-78204180D01*
X122405809Y-78204180D01*
X122310571Y-78156561D01*
X122262952Y-78108942D01*
X122215333Y-78013704D01*
X122167714Y-77823228D01*
X122167714Y-77585133D01*
X122215333Y-77394657D01*
X122262952Y-77299419D01*
X122310571Y-77251800D01*
X122405809Y-77204180D01*
X123167714Y-78204180D02*
X123167714Y-77204180D01*
X123262952Y-77823228D02*
X123548666Y-78204180D01*
X123548666Y-77537514D02*
X123167714Y-77918466D01*
D15*
X120560666Y-77844019D02*
X120474000Y-77720209D01*
X120412095Y-77844019D02*
X120412095Y-77584019D01*
X120511142Y-77584019D01*
X120535904Y-77596400D01*
X120548285Y-77608780D01*
X120560666Y-77633542D01*
X120560666Y-77670685D01*
X120548285Y-77695447D01*
X120535904Y-77707828D01*
X120511142Y-77720209D01*
X120412095Y-77720209D01*
X120783523Y-77584019D02*
X120734000Y-77584019D01*
X120709238Y-77596400D01*
X120696857Y-77608780D01*
X120672095Y-77645923D01*
X120659714Y-77695447D01*
X120659714Y-77794495D01*
X120672095Y-77819257D01*
X120684476Y-77831638D01*
X120709238Y-77844019D01*
X120758761Y-77844019D01*
X120783523Y-77831638D01*
X120795904Y-77819257D01*
X120808285Y-77794495D01*
X120808285Y-77732590D01*
X120795904Y-77707828D01*
X120783523Y-77695447D01*
X120758761Y-77683066D01*
X120709238Y-77683066D01*
X120684476Y-77695447D01*
X120672095Y-77707828D01*
X120659714Y-77732590D01*
%TO.C,L2*%
D11*
X142068276Y-85432180D02*
X142687323Y-85432180D01*
X142353990Y-85813133D01*
X142496847Y-85813133D01*
X142592085Y-85860752D01*
X142639704Y-85908371D01*
X142687323Y-86003609D01*
X142687323Y-86241704D01*
X142639704Y-86336942D01*
X142592085Y-86384561D01*
X142496847Y-86432180D01*
X142211133Y-86432180D01*
X142115895Y-86384561D01*
X142068276Y-86336942D01*
X143306371Y-85432180D02*
X143401609Y-85432180D01*
X143496847Y-85479800D01*
X143544466Y-85527419D01*
X143592085Y-85622657D01*
X143639704Y-85813133D01*
X143639704Y-86051228D01*
X143592085Y-86241704D01*
X143544466Y-86336942D01*
X143496847Y-86384561D01*
X143401609Y-86432180D01*
X143306371Y-86432180D01*
X143211133Y-86384561D01*
X143163514Y-86336942D01*
X143115895Y-86241704D01*
X143068276Y-86051228D01*
X143068276Y-85813133D01*
X143115895Y-85622657D01*
X143163514Y-85527419D01*
X143211133Y-85479800D01*
X143306371Y-85432180D01*
D15*
X142836133Y-87262895D02*
X142717085Y-87262895D01*
X142717085Y-87012895D01*
X142907561Y-87036704D02*
X142919466Y-87024800D01*
X142943276Y-87012895D01*
X143002800Y-87012895D01*
X143026609Y-87024800D01*
X143038514Y-87036704D01*
X143050419Y-87060514D01*
X143050419Y-87084323D01*
X143038514Y-87120038D01*
X142895657Y-87262895D01*
X143050419Y-87262895D01*
%TO.C,J2*%
D11*
X129438904Y-110849542D02*
X129391285Y-110897161D01*
X129248428Y-110944780D01*
X129153190Y-110944780D01*
X129010333Y-110897161D01*
X128915095Y-110801923D01*
X128867476Y-110706685D01*
X128819857Y-110516209D01*
X128819857Y-110373352D01*
X128867476Y-110182876D01*
X128915095Y-110087638D01*
X129010333Y-109992400D01*
X129153190Y-109944780D01*
X129248428Y-109944780D01*
X129391285Y-109992400D01*
X129438904Y-110040019D01*
X130010333Y-110944780D02*
X129915095Y-110897161D01*
X129867476Y-110849542D01*
X129819857Y-110754304D01*
X129819857Y-110468590D01*
X129867476Y-110373352D01*
X129915095Y-110325733D01*
X130010333Y-110278114D01*
X130153190Y-110278114D01*
X130248428Y-110325733D01*
X130296047Y-110373352D01*
X130343666Y-110468590D01*
X130343666Y-110754304D01*
X130296047Y-110849542D01*
X130248428Y-110897161D01*
X130153190Y-110944780D01*
X130010333Y-110944780D01*
X130772238Y-110278114D02*
X130772238Y-110944780D01*
X130772238Y-110373352D02*
X130819857Y-110325733D01*
X130915095Y-110278114D01*
X131057952Y-110278114D01*
X131153190Y-110325733D01*
X131200809Y-110420971D01*
X131200809Y-110944780D01*
X131677000Y-110278114D02*
X131677000Y-110944780D01*
X131677000Y-110373352D02*
X131724619Y-110325733D01*
X131819857Y-110278114D01*
X131962714Y-110278114D01*
X132057952Y-110325733D01*
X132105571Y-110420971D01*
X132105571Y-110944780D01*
X132343666Y-111040019D02*
X133105571Y-111040019D01*
X133534142Y-109944780D02*
X133629380Y-109944780D01*
X133724619Y-109992400D01*
X133772238Y-110040019D01*
X133819857Y-110135257D01*
X133867476Y-110325733D01*
X133867476Y-110563828D01*
X133819857Y-110754304D01*
X133772238Y-110849542D01*
X133724619Y-110897161D01*
X133629380Y-110944780D01*
X133534142Y-110944780D01*
X133438904Y-110897161D01*
X133391285Y-110849542D01*
X133343666Y-110754304D01*
X133296047Y-110563828D01*
X133296047Y-110325733D01*
X133343666Y-110135257D01*
X133391285Y-110040019D01*
X133438904Y-109992400D01*
X133534142Y-109944780D01*
X134819857Y-110944780D02*
X134248428Y-110944780D01*
X134534142Y-110944780D02*
X134534142Y-109944780D01*
X134438904Y-110087638D01*
X134343666Y-110182876D01*
X134248428Y-110230495D01*
X135153190Y-110944780D02*
X135677000Y-110278114D01*
X135153190Y-110278114D02*
X135677000Y-110944780D01*
X136248428Y-109944780D02*
X136343666Y-109944780D01*
X136438904Y-109992400D01*
X136486523Y-110040019D01*
X136534142Y-110135257D01*
X136581761Y-110325733D01*
X136581761Y-110563828D01*
X136534142Y-110754304D01*
X136486523Y-110849542D01*
X136438904Y-110897161D01*
X136343666Y-110944780D01*
X136248428Y-110944780D01*
X136153190Y-110897161D01*
X136105571Y-110849542D01*
X136057952Y-110754304D01*
X136010333Y-110563828D01*
X136010333Y-110325733D01*
X136057952Y-110135257D01*
X136105571Y-110040019D01*
X136153190Y-109992400D01*
X136248428Y-109944780D01*
X137153190Y-110373352D02*
X137057952Y-110325733D01*
X137010333Y-110278114D01*
X136962714Y-110182876D01*
X136962714Y-110135257D01*
X137010333Y-110040019D01*
X137057952Y-109992400D01*
X137153190Y-109944780D01*
X137343666Y-109944780D01*
X137438904Y-109992400D01*
X137486523Y-110040019D01*
X137534142Y-110135257D01*
X137534142Y-110182876D01*
X137486523Y-110278114D01*
X137438904Y-110325733D01*
X137343666Y-110373352D01*
X137153190Y-110373352D01*
X137057952Y-110420971D01*
X137010333Y-110468590D01*
X136962714Y-110563828D01*
X136962714Y-110754304D01*
X137010333Y-110849542D01*
X137057952Y-110897161D01*
X137153190Y-110944780D01*
X137343666Y-110944780D01*
X137438904Y-110897161D01*
X137486523Y-110849542D01*
X137534142Y-110754304D01*
X137534142Y-110563828D01*
X137486523Y-110468590D01*
X137438904Y-110420971D01*
X137343666Y-110373352D01*
X132792866Y-108344580D02*
X132792866Y-109058866D01*
X132745247Y-109201723D01*
X132650009Y-109296961D01*
X132507152Y-109344580D01*
X132411914Y-109344580D01*
X133221438Y-108439819D02*
X133269057Y-108392200D01*
X133364295Y-108344580D01*
X133602390Y-108344580D01*
X133697628Y-108392200D01*
X133745247Y-108439819D01*
X133792866Y-108535057D01*
X133792866Y-108630295D01*
X133745247Y-108773152D01*
X133173819Y-109344580D01*
X133792866Y-109344580D01*
%TO.C,H4*%
X129127885Y-69568180D02*
X129127885Y-68568180D01*
X129461219Y-69282466D01*
X129794552Y-68568180D01*
X129794552Y-69568180D01*
X130413600Y-69568180D02*
X130318361Y-69520561D01*
X130270742Y-69472942D01*
X130223123Y-69377704D01*
X130223123Y-69091990D01*
X130270742Y-68996752D01*
X130318361Y-68949133D01*
X130413600Y-68901514D01*
X130556457Y-68901514D01*
X130651695Y-68949133D01*
X130699314Y-68996752D01*
X130746933Y-69091990D01*
X130746933Y-69377704D01*
X130699314Y-69472942D01*
X130651695Y-69520561D01*
X130556457Y-69568180D01*
X130413600Y-69568180D01*
X131604076Y-68901514D02*
X131604076Y-69568180D01*
X131175504Y-68901514D02*
X131175504Y-69425323D01*
X131223123Y-69520561D01*
X131318361Y-69568180D01*
X131461219Y-69568180D01*
X131556457Y-69520561D01*
X131604076Y-69472942D01*
X132080266Y-68901514D02*
X132080266Y-69568180D01*
X132080266Y-68996752D02*
X132127885Y-68949133D01*
X132223123Y-68901514D01*
X132365980Y-68901514D01*
X132461219Y-68949133D01*
X132508838Y-69044371D01*
X132508838Y-69568180D01*
X132842171Y-68901514D02*
X133223123Y-68901514D01*
X132985028Y-68568180D02*
X132985028Y-69425323D01*
X133032647Y-69520561D01*
X133127885Y-69568180D01*
X133223123Y-69568180D01*
X133556457Y-69568180D02*
X133556457Y-68901514D01*
X133556457Y-68568180D02*
X133508838Y-68615800D01*
X133556457Y-68663419D01*
X133604076Y-68615800D01*
X133556457Y-68568180D01*
X133556457Y-68663419D01*
X134032647Y-68901514D02*
X134032647Y-69568180D01*
X134032647Y-68996752D02*
X134080266Y-68949133D01*
X134175504Y-68901514D01*
X134318361Y-68901514D01*
X134413600Y-68949133D01*
X134461219Y-69044371D01*
X134461219Y-69568180D01*
X135365980Y-68901514D02*
X135365980Y-69711038D01*
X135318361Y-69806276D01*
X135270742Y-69853895D01*
X135175504Y-69901514D01*
X135032647Y-69901514D01*
X134937409Y-69853895D01*
X135365980Y-69520561D02*
X135270742Y-69568180D01*
X135080266Y-69568180D01*
X134985028Y-69520561D01*
X134937409Y-69472942D01*
X134889790Y-69377704D01*
X134889790Y-69091990D01*
X134937409Y-68996752D01*
X134985028Y-68949133D01*
X135080266Y-68901514D01*
X135270742Y-68901514D01*
X135365980Y-68949133D01*
X135842171Y-69568180D02*
X135842171Y-68568180D01*
X135842171Y-69044371D02*
X136413600Y-69044371D01*
X136413600Y-69568180D02*
X136413600Y-68568180D01*
X137032647Y-69568180D02*
X136937409Y-69520561D01*
X136889790Y-69472942D01*
X136842171Y-69377704D01*
X136842171Y-69091990D01*
X136889790Y-68996752D01*
X136937409Y-68949133D01*
X137032647Y-68901514D01*
X137175504Y-68901514D01*
X137270742Y-68949133D01*
X137318361Y-68996752D01*
X137365980Y-69091990D01*
X137365980Y-69377704D01*
X137318361Y-69472942D01*
X137270742Y-69520561D01*
X137175504Y-69568180D01*
X137032647Y-69568180D01*
X137937409Y-69568180D02*
X137842171Y-69520561D01*
X137794552Y-69425323D01*
X137794552Y-68568180D01*
X138699314Y-69520561D02*
X138604076Y-69568180D01*
X138413600Y-69568180D01*
X138318361Y-69520561D01*
X138270742Y-69425323D01*
X138270742Y-69044371D01*
X138318361Y-68949133D01*
X138413600Y-68901514D01*
X138604076Y-68901514D01*
X138699314Y-68949133D01*
X138746933Y-69044371D01*
X138746933Y-69139609D01*
X138270742Y-69234847D01*
X132842095Y-72044380D02*
X132842095Y-71044380D01*
X132842095Y-71520571D02*
X133413523Y-71520571D01*
X133413523Y-72044380D02*
X133413523Y-71044380D01*
X134318285Y-71377714D02*
X134318285Y-72044380D01*
X134080190Y-70996761D02*
X133842095Y-71711047D01*
X134461142Y-71711047D01*
%TO.C,J1*%
X113215142Y-89913142D02*
X113167523Y-89960761D01*
X113024666Y-90008380D01*
X112929428Y-90008380D01*
X112786571Y-89960761D01*
X112691333Y-89865523D01*
X112643714Y-89770285D01*
X112596095Y-89579809D01*
X112596095Y-89436952D01*
X112643714Y-89246476D01*
X112691333Y-89151238D01*
X112786571Y-89056000D01*
X112929428Y-89008380D01*
X113024666Y-89008380D01*
X113167523Y-89056000D01*
X113215142Y-89103619D01*
X113786571Y-90008380D02*
X113691333Y-89960761D01*
X113643714Y-89913142D01*
X113596095Y-89817904D01*
X113596095Y-89532190D01*
X113643714Y-89436952D01*
X113691333Y-89389333D01*
X113786571Y-89341714D01*
X113929428Y-89341714D01*
X114024666Y-89389333D01*
X114072285Y-89436952D01*
X114119904Y-89532190D01*
X114119904Y-89817904D01*
X114072285Y-89913142D01*
X114024666Y-89960761D01*
X113929428Y-90008380D01*
X113786571Y-90008380D01*
X114548476Y-89341714D02*
X114548476Y-90008380D01*
X114548476Y-89436952D02*
X114596095Y-89389333D01*
X114691333Y-89341714D01*
X114834190Y-89341714D01*
X114929428Y-89389333D01*
X114977047Y-89484571D01*
X114977047Y-90008380D01*
X115453238Y-89341714D02*
X115453238Y-90008380D01*
X115453238Y-89436952D02*
X115500857Y-89389333D01*
X115596095Y-89341714D01*
X115738952Y-89341714D01*
X115834190Y-89389333D01*
X115881809Y-89484571D01*
X115881809Y-90008380D01*
X116119904Y-90103619D02*
X116881809Y-90103619D01*
X117310380Y-89008380D02*
X117405619Y-89008380D01*
X117500857Y-89056000D01*
X117548476Y-89103619D01*
X117596095Y-89198857D01*
X117643714Y-89389333D01*
X117643714Y-89627428D01*
X117596095Y-89817904D01*
X117548476Y-89913142D01*
X117500857Y-89960761D01*
X117405619Y-90008380D01*
X117310380Y-90008380D01*
X117215142Y-89960761D01*
X117167523Y-89913142D01*
X117119904Y-89817904D01*
X117072285Y-89627428D01*
X117072285Y-89389333D01*
X117119904Y-89198857D01*
X117167523Y-89103619D01*
X117215142Y-89056000D01*
X117310380Y-89008380D01*
X118024666Y-89103619D02*
X118072285Y-89056000D01*
X118167523Y-89008380D01*
X118405619Y-89008380D01*
X118500857Y-89056000D01*
X118548476Y-89103619D01*
X118596095Y-89198857D01*
X118596095Y-89294095D01*
X118548476Y-89436952D01*
X117977047Y-90008380D01*
X118596095Y-90008380D01*
X118929428Y-90008380D02*
X119453238Y-89341714D01*
X118929428Y-89341714D02*
X119453238Y-90008380D01*
X120024666Y-89008380D02*
X120119904Y-89008380D01*
X120215142Y-89056000D01*
X120262761Y-89103619D01*
X120310380Y-89198857D01*
X120358000Y-89389333D01*
X120358000Y-89627428D01*
X120310380Y-89817904D01*
X120262761Y-89913142D01*
X120215142Y-89960761D01*
X120119904Y-90008380D01*
X120024666Y-90008380D01*
X119929428Y-89960761D01*
X119881809Y-89913142D01*
X119834190Y-89817904D01*
X119786571Y-89627428D01*
X119786571Y-89389333D01*
X119834190Y-89198857D01*
X119881809Y-89103619D01*
X119929428Y-89056000D01*
X120024666Y-89008380D01*
X120691333Y-89008380D02*
X121310380Y-89008380D01*
X120977047Y-89389333D01*
X121119904Y-89389333D01*
X121215142Y-89436952D01*
X121262761Y-89484571D01*
X121310380Y-89579809D01*
X121310380Y-89817904D01*
X121262761Y-89913142D01*
X121215142Y-89960761D01*
X121119904Y-90008380D01*
X120834190Y-90008380D01*
X120738952Y-89960761D01*
X120691333Y-89913142D01*
X121500857Y-90103619D02*
X122262761Y-90103619D01*
X122691333Y-89008380D02*
X122881809Y-89008380D01*
X122977047Y-89056000D01*
X123072285Y-89151238D01*
X123119904Y-89341714D01*
X123119904Y-89675047D01*
X123072285Y-89865523D01*
X122977047Y-89960761D01*
X122881809Y-90008380D01*
X122691333Y-90008380D01*
X122596095Y-89960761D01*
X122500857Y-89865523D01*
X122453238Y-89675047D01*
X122453238Y-89341714D01*
X122500857Y-89151238D01*
X122596095Y-89056000D01*
X122691333Y-89008380D01*
X123977047Y-90008380D02*
X123977047Y-89008380D01*
X123977047Y-89960761D02*
X123881809Y-90008380D01*
X123691333Y-90008380D01*
X123596095Y-89960761D01*
X123548476Y-89913142D01*
X123500857Y-89817904D01*
X123500857Y-89532190D01*
X123548476Y-89436952D01*
X123596095Y-89389333D01*
X123691333Y-89341714D01*
X123881809Y-89341714D01*
X123977047Y-89389333D01*
X124881809Y-90008380D02*
X124881809Y-89008380D01*
X124881809Y-89960761D02*
X124786571Y-90008380D01*
X124596095Y-90008380D01*
X124500857Y-89960761D01*
X124453238Y-89913142D01*
X124405619Y-89817904D01*
X124405619Y-89532190D01*
X124453238Y-89436952D01*
X124500857Y-89389333D01*
X124596095Y-89341714D01*
X124786571Y-89341714D01*
X124881809Y-89389333D01*
X125119904Y-90103619D02*
X125881809Y-90103619D01*
X126119904Y-89484571D02*
X126453238Y-89484571D01*
X126596095Y-90008380D02*
X126119904Y-90008380D01*
X126119904Y-89008380D01*
X126596095Y-89008380D01*
X126929428Y-89341714D02*
X127167523Y-90008380D01*
X127405619Y-89341714D01*
X128167523Y-89960761D02*
X128072285Y-90008380D01*
X127881809Y-90008380D01*
X127786571Y-89960761D01*
X127738952Y-89865523D01*
X127738952Y-89484571D01*
X127786571Y-89389333D01*
X127881809Y-89341714D01*
X128072285Y-89341714D01*
X128167523Y-89389333D01*
X128215142Y-89484571D01*
X128215142Y-89579809D01*
X127738952Y-89675047D01*
X128643714Y-89341714D02*
X128643714Y-90008380D01*
X128643714Y-89436952D02*
X128691333Y-89389333D01*
X128786571Y-89341714D01*
X128929428Y-89341714D01*
X129024666Y-89389333D01*
X129072285Y-89484571D01*
X129072285Y-90008380D01*
X120310380Y-85019333D02*
X121024666Y-85019333D01*
X121167523Y-85066952D01*
X121262761Y-85162190D01*
X121310380Y-85305047D01*
X121310380Y-85400285D01*
X121310380Y-84019333D02*
X121310380Y-84590761D01*
X121310380Y-84305047D02*
X120310380Y-84305047D01*
X120453238Y-84400285D01*
X120548476Y-84495523D01*
X120596095Y-84590761D01*
%TO.C,H3*%
X154832685Y-97533580D02*
X154832685Y-96533580D01*
X155166019Y-97247866D01*
X155499352Y-96533580D01*
X155499352Y-97533580D01*
X156118400Y-97533580D02*
X156023161Y-97485961D01*
X155975542Y-97438342D01*
X155927923Y-97343104D01*
X155927923Y-97057390D01*
X155975542Y-96962152D01*
X156023161Y-96914533D01*
X156118400Y-96866914D01*
X156261257Y-96866914D01*
X156356495Y-96914533D01*
X156404114Y-96962152D01*
X156451733Y-97057390D01*
X156451733Y-97343104D01*
X156404114Y-97438342D01*
X156356495Y-97485961D01*
X156261257Y-97533580D01*
X156118400Y-97533580D01*
X157308876Y-96866914D02*
X157308876Y-97533580D01*
X156880304Y-96866914D02*
X156880304Y-97390723D01*
X156927923Y-97485961D01*
X157023161Y-97533580D01*
X157166019Y-97533580D01*
X157261257Y-97485961D01*
X157308876Y-97438342D01*
X157785066Y-96866914D02*
X157785066Y-97533580D01*
X157785066Y-96962152D02*
X157832685Y-96914533D01*
X157927923Y-96866914D01*
X158070780Y-96866914D01*
X158166019Y-96914533D01*
X158213638Y-97009771D01*
X158213638Y-97533580D01*
X158546971Y-96866914D02*
X158927923Y-96866914D01*
X158689828Y-96533580D02*
X158689828Y-97390723D01*
X158737447Y-97485961D01*
X158832685Y-97533580D01*
X158927923Y-97533580D01*
X159261257Y-97533580D02*
X159261257Y-96866914D01*
X159261257Y-96533580D02*
X159213638Y-96581200D01*
X159261257Y-96628819D01*
X159308876Y-96581200D01*
X159261257Y-96533580D01*
X159261257Y-96628819D01*
X159737447Y-96866914D02*
X159737447Y-97533580D01*
X159737447Y-96962152D02*
X159785066Y-96914533D01*
X159880304Y-96866914D01*
X160023161Y-96866914D01*
X160118400Y-96914533D01*
X160166019Y-97009771D01*
X160166019Y-97533580D01*
X161070780Y-96866914D02*
X161070780Y-97676438D01*
X161023161Y-97771676D01*
X160975542Y-97819295D01*
X160880304Y-97866914D01*
X160737447Y-97866914D01*
X160642209Y-97819295D01*
X161070780Y-97485961D02*
X160975542Y-97533580D01*
X160785066Y-97533580D01*
X160689828Y-97485961D01*
X160642209Y-97438342D01*
X160594590Y-97343104D01*
X160594590Y-97057390D01*
X160642209Y-96962152D01*
X160689828Y-96914533D01*
X160785066Y-96866914D01*
X160975542Y-96866914D01*
X161070780Y-96914533D01*
X161546971Y-97533580D02*
X161546971Y-96533580D01*
X161546971Y-97009771D02*
X162118400Y-97009771D01*
X162118400Y-97533580D02*
X162118400Y-96533580D01*
X162737447Y-97533580D02*
X162642209Y-97485961D01*
X162594590Y-97438342D01*
X162546971Y-97343104D01*
X162546971Y-97057390D01*
X162594590Y-96962152D01*
X162642209Y-96914533D01*
X162737447Y-96866914D01*
X162880304Y-96866914D01*
X162975542Y-96914533D01*
X163023161Y-96962152D01*
X163070780Y-97057390D01*
X163070780Y-97343104D01*
X163023161Y-97438342D01*
X162975542Y-97485961D01*
X162880304Y-97533580D01*
X162737447Y-97533580D01*
X163642209Y-97533580D02*
X163546971Y-97485961D01*
X163499352Y-97390723D01*
X163499352Y-96533580D01*
X164404114Y-97485961D02*
X164308876Y-97533580D01*
X164118400Y-97533580D01*
X164023161Y-97485961D01*
X163975542Y-97390723D01*
X163975542Y-97009771D01*
X164023161Y-96914533D01*
X164118400Y-96866914D01*
X164308876Y-96866914D01*
X164404114Y-96914533D01*
X164451733Y-97009771D01*
X164451733Y-97105009D01*
X163975542Y-97200247D01*
X155492673Y-99038288D02*
X155492673Y-98038288D01*
X155492673Y-98514479D02*
X156064101Y-98514479D01*
X156064101Y-99038288D02*
X156064101Y-98038288D01*
X156445054Y-98038288D02*
X157064101Y-98038288D01*
X156730768Y-98419241D01*
X156873625Y-98419241D01*
X156968863Y-98466860D01*
X157016482Y-98514479D01*
X157064101Y-98609717D01*
X157064101Y-98847812D01*
X157016482Y-98943050D01*
X156968863Y-98990669D01*
X156873625Y-99038288D01*
X156587911Y-99038288D01*
X156492673Y-98990669D01*
X156445054Y-98943050D01*
%TO.C,H2*%
X103016685Y-97406580D02*
X103016685Y-96406580D01*
X103350019Y-97120866D01*
X103683352Y-96406580D01*
X103683352Y-97406580D01*
X104302400Y-97406580D02*
X104207161Y-97358961D01*
X104159542Y-97311342D01*
X104111923Y-97216104D01*
X104111923Y-96930390D01*
X104159542Y-96835152D01*
X104207161Y-96787533D01*
X104302400Y-96739914D01*
X104445257Y-96739914D01*
X104540495Y-96787533D01*
X104588114Y-96835152D01*
X104635733Y-96930390D01*
X104635733Y-97216104D01*
X104588114Y-97311342D01*
X104540495Y-97358961D01*
X104445257Y-97406580D01*
X104302400Y-97406580D01*
X105492876Y-96739914D02*
X105492876Y-97406580D01*
X105064304Y-96739914D02*
X105064304Y-97263723D01*
X105111923Y-97358961D01*
X105207161Y-97406580D01*
X105350019Y-97406580D01*
X105445257Y-97358961D01*
X105492876Y-97311342D01*
X105969066Y-96739914D02*
X105969066Y-97406580D01*
X105969066Y-96835152D02*
X106016685Y-96787533D01*
X106111923Y-96739914D01*
X106254780Y-96739914D01*
X106350019Y-96787533D01*
X106397638Y-96882771D01*
X106397638Y-97406580D01*
X106730971Y-96739914D02*
X107111923Y-96739914D01*
X106873828Y-96406580D02*
X106873828Y-97263723D01*
X106921447Y-97358961D01*
X107016685Y-97406580D01*
X107111923Y-97406580D01*
X107445257Y-97406580D02*
X107445257Y-96739914D01*
X107445257Y-96406580D02*
X107397638Y-96454200D01*
X107445257Y-96501819D01*
X107492876Y-96454200D01*
X107445257Y-96406580D01*
X107445257Y-96501819D01*
X107921447Y-96739914D02*
X107921447Y-97406580D01*
X107921447Y-96835152D02*
X107969066Y-96787533D01*
X108064304Y-96739914D01*
X108207161Y-96739914D01*
X108302400Y-96787533D01*
X108350019Y-96882771D01*
X108350019Y-97406580D01*
X109254780Y-96739914D02*
X109254780Y-97549438D01*
X109207161Y-97644676D01*
X109159542Y-97692295D01*
X109064304Y-97739914D01*
X108921447Y-97739914D01*
X108826209Y-97692295D01*
X109254780Y-97358961D02*
X109159542Y-97406580D01*
X108969066Y-97406580D01*
X108873828Y-97358961D01*
X108826209Y-97311342D01*
X108778590Y-97216104D01*
X108778590Y-96930390D01*
X108826209Y-96835152D01*
X108873828Y-96787533D01*
X108969066Y-96739914D01*
X109159542Y-96739914D01*
X109254780Y-96787533D01*
X109730971Y-97406580D02*
X109730971Y-96406580D01*
X109730971Y-96882771D02*
X110302400Y-96882771D01*
X110302400Y-97406580D02*
X110302400Y-96406580D01*
X110921447Y-97406580D02*
X110826209Y-97358961D01*
X110778590Y-97311342D01*
X110730971Y-97216104D01*
X110730971Y-96930390D01*
X110778590Y-96835152D01*
X110826209Y-96787533D01*
X110921447Y-96739914D01*
X111064304Y-96739914D01*
X111159542Y-96787533D01*
X111207161Y-96835152D01*
X111254780Y-96930390D01*
X111254780Y-97216104D01*
X111207161Y-97311342D01*
X111159542Y-97358961D01*
X111064304Y-97406580D01*
X110921447Y-97406580D01*
X111826209Y-97406580D02*
X111730971Y-97358961D01*
X111683352Y-97263723D01*
X111683352Y-96406580D01*
X112588114Y-97358961D02*
X112492876Y-97406580D01*
X112302400Y-97406580D01*
X112207161Y-97358961D01*
X112159542Y-97263723D01*
X112159542Y-96882771D01*
X112207161Y-96787533D01*
X112302400Y-96739914D01*
X112492876Y-96739914D01*
X112588114Y-96787533D01*
X112635733Y-96882771D01*
X112635733Y-96978009D01*
X112159542Y-97073247D01*
X110191517Y-99038288D02*
X110191517Y-98038288D01*
X110191517Y-98514479D02*
X110762945Y-98514479D01*
X110762945Y-99038288D02*
X110762945Y-98038288D01*
X111191517Y-98133527D02*
X111239136Y-98085908D01*
X111334374Y-98038288D01*
X111572469Y-98038288D01*
X111667707Y-98085908D01*
X111715326Y-98133527D01*
X111762945Y-98228765D01*
X111762945Y-98324003D01*
X111715326Y-98466860D01*
X111143898Y-99038288D01*
X111762945Y-99038288D01*
%TO.C,H1*%
X128518285Y-121144380D02*
X128518285Y-120144380D01*
X128851619Y-120858666D01*
X129184952Y-120144380D01*
X129184952Y-121144380D01*
X129804000Y-121144380D02*
X129708761Y-121096761D01*
X129661142Y-121049142D01*
X129613523Y-120953904D01*
X129613523Y-120668190D01*
X129661142Y-120572952D01*
X129708761Y-120525333D01*
X129804000Y-120477714D01*
X129946857Y-120477714D01*
X130042095Y-120525333D01*
X130089714Y-120572952D01*
X130137333Y-120668190D01*
X130137333Y-120953904D01*
X130089714Y-121049142D01*
X130042095Y-121096761D01*
X129946857Y-121144380D01*
X129804000Y-121144380D01*
X130994476Y-120477714D02*
X130994476Y-121144380D01*
X130565904Y-120477714D02*
X130565904Y-121001523D01*
X130613523Y-121096761D01*
X130708761Y-121144380D01*
X130851619Y-121144380D01*
X130946857Y-121096761D01*
X130994476Y-121049142D01*
X131470666Y-120477714D02*
X131470666Y-121144380D01*
X131470666Y-120572952D02*
X131518285Y-120525333D01*
X131613523Y-120477714D01*
X131756380Y-120477714D01*
X131851619Y-120525333D01*
X131899238Y-120620571D01*
X131899238Y-121144380D01*
X132232571Y-120477714D02*
X132613523Y-120477714D01*
X132375428Y-120144380D02*
X132375428Y-121001523D01*
X132423047Y-121096761D01*
X132518285Y-121144380D01*
X132613523Y-121144380D01*
X132946857Y-121144380D02*
X132946857Y-120477714D01*
X132946857Y-120144380D02*
X132899238Y-120192000D01*
X132946857Y-120239619D01*
X132994476Y-120192000D01*
X132946857Y-120144380D01*
X132946857Y-120239619D01*
X133423047Y-120477714D02*
X133423047Y-121144380D01*
X133423047Y-120572952D02*
X133470666Y-120525333D01*
X133565904Y-120477714D01*
X133708761Y-120477714D01*
X133804000Y-120525333D01*
X133851619Y-120620571D01*
X133851619Y-121144380D01*
X134756380Y-120477714D02*
X134756380Y-121287238D01*
X134708761Y-121382476D01*
X134661142Y-121430095D01*
X134565904Y-121477714D01*
X134423047Y-121477714D01*
X134327809Y-121430095D01*
X134756380Y-121096761D02*
X134661142Y-121144380D01*
X134470666Y-121144380D01*
X134375428Y-121096761D01*
X134327809Y-121049142D01*
X134280190Y-120953904D01*
X134280190Y-120668190D01*
X134327809Y-120572952D01*
X134375428Y-120525333D01*
X134470666Y-120477714D01*
X134661142Y-120477714D01*
X134756380Y-120525333D01*
X135232571Y-121144380D02*
X135232571Y-120144380D01*
X135232571Y-120620571D02*
X135804000Y-120620571D01*
X135804000Y-121144380D02*
X135804000Y-120144380D01*
X136423047Y-121144380D02*
X136327809Y-121096761D01*
X136280190Y-121049142D01*
X136232571Y-120953904D01*
X136232571Y-120668190D01*
X136280190Y-120572952D01*
X136327809Y-120525333D01*
X136423047Y-120477714D01*
X136565904Y-120477714D01*
X136661142Y-120525333D01*
X136708761Y-120572952D01*
X136756380Y-120668190D01*
X136756380Y-120953904D01*
X136708761Y-121049142D01*
X136661142Y-121096761D01*
X136565904Y-121144380D01*
X136423047Y-121144380D01*
X137327809Y-121144380D02*
X137232571Y-121096761D01*
X137184952Y-121001523D01*
X137184952Y-120144380D01*
X138089714Y-121096761D02*
X137994476Y-121144380D01*
X137804000Y-121144380D01*
X137708761Y-121096761D01*
X137661142Y-121001523D01*
X137661142Y-120620571D01*
X137708761Y-120525333D01*
X137804000Y-120477714D01*
X137994476Y-120477714D01*
X138089714Y-120525333D01*
X138137333Y-120620571D01*
X138137333Y-120715809D01*
X137661142Y-120811047D01*
X132842095Y-118044380D02*
X132842095Y-117044380D01*
X132842095Y-117520571D02*
X133413523Y-117520571D01*
X133413523Y-118044380D02*
X133413523Y-117044380D01*
X134413523Y-118044380D02*
X133842095Y-118044380D01*
X134127809Y-118044380D02*
X134127809Y-117044380D01*
X134032571Y-117187238D01*
X133937333Y-117282476D01*
X133842095Y-117330095D01*
%TO.C,D22*%
X142420961Y-117862361D02*
X142468580Y-117719504D01*
X142468580Y-117481409D01*
X142420961Y-117386171D01*
X142373342Y-117338552D01*
X142278104Y-117290933D01*
X142182866Y-117290933D01*
X142087628Y-117338552D01*
X142040009Y-117386171D01*
X141992390Y-117481409D01*
X141944771Y-117671885D01*
X141897152Y-117767123D01*
X141849533Y-117814742D01*
X141754295Y-117862361D01*
X141659057Y-117862361D01*
X141563819Y-117814742D01*
X141516200Y-117767123D01*
X141468580Y-117671885D01*
X141468580Y-117433790D01*
X141516200Y-117290933D01*
X142468580Y-116862361D02*
X141468580Y-116862361D01*
X142182866Y-116529028D01*
X141468580Y-116195695D01*
X142468580Y-116195695D01*
X141944771Y-115386171D02*
X141992390Y-115243314D01*
X142040009Y-115195695D01*
X142135247Y-115148076D01*
X142278104Y-115148076D01*
X142373342Y-115195695D01*
X142420961Y-115243314D01*
X142468580Y-115338552D01*
X142468580Y-115719504D01*
X141468580Y-115719504D01*
X141468580Y-115386171D01*
X141516200Y-115290933D01*
X141563819Y-115243314D01*
X141659057Y-115195695D01*
X141754295Y-115195695D01*
X141849533Y-115243314D01*
X141897152Y-115290933D01*
X141944771Y-115386171D01*
X141944771Y-115719504D01*
X141468580Y-114433790D02*
X142182866Y-114433790D01*
X142325723Y-114481409D01*
X142420961Y-114576647D01*
X142468580Y-114719504D01*
X142468580Y-114814742D01*
X142468580Y-113433790D02*
X142468580Y-114005219D01*
X142468580Y-113719504D02*
X141468580Y-113719504D01*
X141611438Y-113814742D01*
X141706676Y-113909980D01*
X141754295Y-114005219D01*
X141468580Y-112576647D02*
X141468580Y-112767123D01*
X141516200Y-112862361D01*
X141563819Y-112909980D01*
X141706676Y-113005219D01*
X141897152Y-113052838D01*
X142278104Y-113052838D01*
X142373342Y-113005219D01*
X142420961Y-112957600D01*
X142468580Y-112862361D01*
X142468580Y-112671885D01*
X142420961Y-112576647D01*
X142373342Y-112529028D01*
X142278104Y-112481409D01*
X142040009Y-112481409D01*
X141944771Y-112529028D01*
X141897152Y-112576647D01*
X141849533Y-112671885D01*
X141849533Y-112862361D01*
X141897152Y-112957600D01*
X141944771Y-113005219D01*
X142040009Y-113052838D01*
X142373342Y-111481409D02*
X142420961Y-111529028D01*
X142468580Y-111671885D01*
X142468580Y-111767123D01*
X142420961Y-111909980D01*
X142325723Y-112005219D01*
X142230485Y-112052838D01*
X142040009Y-112100457D01*
X141897152Y-112100457D01*
X141706676Y-112052838D01*
X141611438Y-112005219D01*
X141516200Y-111909980D01*
X141468580Y-111767123D01*
X141468580Y-111671885D01*
X141516200Y-111529028D01*
X141563819Y-111481409D01*
X142468580Y-111052838D02*
X141468580Y-111052838D01*
X141468580Y-110814742D01*
X141516200Y-110671885D01*
X141611438Y-110576647D01*
X141706676Y-110529028D01*
X141897152Y-110481409D01*
X142040009Y-110481409D01*
X142230485Y-110529028D01*
X142325723Y-110576647D01*
X142420961Y-110671885D01*
X142468580Y-110814742D01*
X142468580Y-111052838D01*
X142087628Y-110052838D02*
X142087628Y-109290933D01*
X142468580Y-108814742D02*
X141468580Y-108814742D01*
X142182866Y-108481409D01*
X141468580Y-108148076D01*
X142468580Y-108148076D01*
X141468580Y-107767123D02*
X141468580Y-107148076D01*
X141849533Y-107481409D01*
X141849533Y-107338552D01*
X141897152Y-107243314D01*
X141944771Y-107195695D01*
X142040009Y-107148076D01*
X142278104Y-107148076D01*
X142373342Y-107195695D01*
X142420961Y-107243314D01*
X142468580Y-107338552D01*
X142468580Y-107624266D01*
X142420961Y-107719504D01*
X142373342Y-107767123D01*
X141420961Y-106005219D02*
X142706676Y-106862361D01*
X142468580Y-105671885D02*
X141468580Y-105671885D01*
X141944771Y-105671885D02*
X141944771Y-105100457D01*
X142468580Y-105100457D02*
X141468580Y-105100457D01*
X148132780Y-113383085D02*
X147132780Y-113383085D01*
X147132780Y-113144990D01*
X147180400Y-113002133D01*
X147275638Y-112906895D01*
X147370876Y-112859276D01*
X147561352Y-112811657D01*
X147704209Y-112811657D01*
X147894685Y-112859276D01*
X147989923Y-112906895D01*
X148085161Y-113002133D01*
X148132780Y-113144990D01*
X148132780Y-113383085D01*
X147228019Y-112430704D02*
X147180400Y-112383085D01*
X147132780Y-112287847D01*
X147132780Y-112049752D01*
X147180400Y-111954514D01*
X147228019Y-111906895D01*
X147323257Y-111859276D01*
X147418495Y-111859276D01*
X147561352Y-111906895D01*
X148132780Y-112478323D01*
X148132780Y-111859276D01*
X147228019Y-111478323D02*
X147180400Y-111430704D01*
X147132780Y-111335466D01*
X147132780Y-111097371D01*
X147180400Y-111002133D01*
X147228019Y-110954514D01*
X147323257Y-110906895D01*
X147418495Y-110906895D01*
X147561352Y-110954514D01*
X148132780Y-111525942D01*
X148132780Y-110906895D01*
%TO.C,C9*%
X150952180Y-109433457D02*
X150952180Y-110004885D01*
X150952180Y-109719171D02*
X149952180Y-109719171D01*
X150095038Y-109814409D01*
X150190276Y-109909647D01*
X150237895Y-110004885D01*
X149952180Y-108814409D02*
X149952180Y-108719171D01*
X149999800Y-108623933D01*
X150047419Y-108576314D01*
X150142657Y-108528695D01*
X150333133Y-108481076D01*
X150571228Y-108481076D01*
X150761704Y-108528695D01*
X150856942Y-108576314D01*
X150904561Y-108623933D01*
X150952180Y-108719171D01*
X150952180Y-108814409D01*
X150904561Y-108909647D01*
X150856942Y-108957266D01*
X150761704Y-109004885D01*
X150571228Y-109052504D01*
X150333133Y-109052504D01*
X150142657Y-109004885D01*
X150047419Y-108957266D01*
X149999800Y-108909647D01*
X149952180Y-108814409D01*
X150285514Y-107623933D02*
X150952180Y-107623933D01*
X150285514Y-108052504D02*
X150809323Y-108052504D01*
X150904561Y-108004885D01*
X150952180Y-107909647D01*
X150952180Y-107766790D01*
X150904561Y-107671552D01*
X150856942Y-107623933D01*
D13*
X149083714Y-108492133D02*
X149121809Y-108530228D01*
X149159904Y-108644514D01*
X149159904Y-108720704D01*
X149121809Y-108834990D01*
X149045619Y-108911180D01*
X148969428Y-108949276D01*
X148817047Y-108987371D01*
X148702761Y-108987371D01*
X148550380Y-108949276D01*
X148474190Y-108911180D01*
X148398000Y-108834990D01*
X148359904Y-108720704D01*
X148359904Y-108644514D01*
X148398000Y-108530228D01*
X148436095Y-108492133D01*
X149159904Y-108111180D02*
X149159904Y-107958800D01*
X149121809Y-107882609D01*
X149083714Y-107844514D01*
X148969428Y-107768323D01*
X148817047Y-107730228D01*
X148512285Y-107730228D01*
X148436095Y-107768323D01*
X148398000Y-107806419D01*
X148359904Y-107882609D01*
X148359904Y-108034990D01*
X148398000Y-108111180D01*
X148436095Y-108149276D01*
X148512285Y-108187371D01*
X148702761Y-108187371D01*
X148778952Y-108149276D01*
X148817047Y-108111180D01*
X148855142Y-108034990D01*
X148855142Y-107882609D01*
X148817047Y-107806419D01*
X148778952Y-107768323D01*
X148702761Y-107730228D01*
%TO.C,R26*%
D11*
X138379180Y-96533438D02*
X138379180Y-97104866D01*
X138379180Y-96819152D02*
X137379180Y-96819152D01*
X137522038Y-96914390D01*
X137617276Y-97009628D01*
X137664895Y-97104866D01*
X137379180Y-95914390D02*
X137379180Y-95819152D01*
X137426800Y-95723914D01*
X137474419Y-95676295D01*
X137569657Y-95628676D01*
X137760133Y-95581057D01*
X137998228Y-95581057D01*
X138188704Y-95628676D01*
X138283942Y-95676295D01*
X138331561Y-95723914D01*
X138379180Y-95819152D01*
X138379180Y-95914390D01*
X138331561Y-96009628D01*
X138283942Y-96057247D01*
X138188704Y-96104866D01*
X137998228Y-96152485D01*
X137760133Y-96152485D01*
X137569657Y-96104866D01*
X137474419Y-96057247D01*
X137426800Y-96009628D01*
X137379180Y-95914390D01*
X138379180Y-95152485D02*
X137379180Y-95152485D01*
X137998228Y-95057247D02*
X138379180Y-94771533D01*
X137712514Y-94771533D02*
X138093466Y-95152485D01*
D15*
X139263619Y-96156142D02*
X139139809Y-96242809D01*
X139263619Y-96304714D02*
X139003619Y-96304714D01*
X139003619Y-96205666D01*
X139016000Y-96180904D01*
X139028380Y-96168523D01*
X139053142Y-96156142D01*
X139090285Y-96156142D01*
X139115047Y-96168523D01*
X139127428Y-96180904D01*
X139139809Y-96205666D01*
X139139809Y-96304714D01*
X139028380Y-96057095D02*
X139016000Y-96044714D01*
X139003619Y-96019952D01*
X139003619Y-95958047D01*
X139016000Y-95933285D01*
X139028380Y-95920904D01*
X139053142Y-95908523D01*
X139077904Y-95908523D01*
X139115047Y-95920904D01*
X139263619Y-96069476D01*
X139263619Y-95908523D01*
X139003619Y-95685666D02*
X139003619Y-95735190D01*
X139016000Y-95759952D01*
X139028380Y-95772333D01*
X139065523Y-95797095D01*
X139115047Y-95809476D01*
X139214095Y-95809476D01*
X139238857Y-95797095D01*
X139251238Y-95784714D01*
X139263619Y-95759952D01*
X139263619Y-95710428D01*
X139251238Y-95685666D01*
X139238857Y-95673285D01*
X139214095Y-95660904D01*
X139152190Y-95660904D01*
X139127428Y-95673285D01*
X139115047Y-95685666D01*
X139102666Y-95710428D01*
X139102666Y-95759952D01*
X139115047Y-95784714D01*
X139127428Y-95797095D01*
X139152190Y-95809476D01*
%TO.C,R25*%
D11*
X133140561Y-94917380D02*
X132569133Y-94917380D01*
X132854847Y-94917380D02*
X132854847Y-93917380D01*
X132759609Y-94060238D01*
X132664371Y-94155476D01*
X132569133Y-94203095D01*
X133759609Y-93917380D02*
X133854847Y-93917380D01*
X133950085Y-93965000D01*
X133997704Y-94012619D01*
X134045323Y-94107857D01*
X134092942Y-94298333D01*
X134092942Y-94536428D01*
X134045323Y-94726904D01*
X133997704Y-94822142D01*
X133950085Y-94869761D01*
X133854847Y-94917380D01*
X133759609Y-94917380D01*
X133664371Y-94869761D01*
X133616752Y-94822142D01*
X133569133Y-94726904D01*
X133521514Y-94536428D01*
X133521514Y-94298333D01*
X133569133Y-94107857D01*
X133616752Y-94012619D01*
X133664371Y-93965000D01*
X133759609Y-93917380D01*
X134521514Y-94917380D02*
X134521514Y-93917380D01*
X134616752Y-94536428D02*
X134902466Y-94917380D01*
X134902466Y-94250714D02*
X134521514Y-94631666D01*
D15*
X135981657Y-95014419D02*
X135894990Y-94890609D01*
X135833085Y-95014419D02*
X135833085Y-94754419D01*
X135932133Y-94754419D01*
X135956895Y-94766800D01*
X135969276Y-94779180D01*
X135981657Y-94803942D01*
X135981657Y-94841085D01*
X135969276Y-94865847D01*
X135956895Y-94878228D01*
X135932133Y-94890609D01*
X135833085Y-94890609D01*
X136080704Y-94779180D02*
X136093085Y-94766800D01*
X136117847Y-94754419D01*
X136179752Y-94754419D01*
X136204514Y-94766800D01*
X136216895Y-94779180D01*
X136229276Y-94803942D01*
X136229276Y-94828704D01*
X136216895Y-94865847D01*
X136068323Y-95014419D01*
X136229276Y-95014419D01*
X136464514Y-94754419D02*
X136340704Y-94754419D01*
X136328323Y-94878228D01*
X136340704Y-94865847D01*
X136365466Y-94853466D01*
X136427371Y-94853466D01*
X136452133Y-94865847D01*
X136464514Y-94878228D01*
X136476895Y-94902990D01*
X136476895Y-94964895D01*
X136464514Y-94989657D01*
X136452133Y-95002038D01*
X136427371Y-95014419D01*
X136365466Y-95014419D01*
X136340704Y-95002038D01*
X136328323Y-94989657D01*
%TO.C,R24*%
D11*
X132327761Y-96441380D02*
X131756333Y-96441380D01*
X132042047Y-96441380D02*
X132042047Y-95441380D01*
X131946809Y-95584238D01*
X131851571Y-95679476D01*
X131756333Y-95727095D01*
X132946809Y-95441380D02*
X133042047Y-95441380D01*
X133137285Y-95489000D01*
X133184904Y-95536619D01*
X133232523Y-95631857D01*
X133280142Y-95822333D01*
X133280142Y-96060428D01*
X133232523Y-96250904D01*
X133184904Y-96346142D01*
X133137285Y-96393761D01*
X133042047Y-96441380D01*
X132946809Y-96441380D01*
X132851571Y-96393761D01*
X132803952Y-96346142D01*
X132756333Y-96250904D01*
X132708714Y-96060428D01*
X132708714Y-95822333D01*
X132756333Y-95631857D01*
X132803952Y-95536619D01*
X132851571Y-95489000D01*
X132946809Y-95441380D01*
X133708714Y-96441380D02*
X133708714Y-95441380D01*
X133803952Y-96060428D02*
X134089666Y-96441380D01*
X134089666Y-95774714D02*
X133708714Y-96155666D01*
D15*
X134787857Y-96106619D02*
X134701190Y-95982809D01*
X134639285Y-96106619D02*
X134639285Y-95846619D01*
X134738333Y-95846619D01*
X134763095Y-95859000D01*
X134775476Y-95871380D01*
X134787857Y-95896142D01*
X134787857Y-95933285D01*
X134775476Y-95958047D01*
X134763095Y-95970428D01*
X134738333Y-95982809D01*
X134639285Y-95982809D01*
X134886904Y-95871380D02*
X134899285Y-95859000D01*
X134924047Y-95846619D01*
X134985952Y-95846619D01*
X135010714Y-95859000D01*
X135023095Y-95871380D01*
X135035476Y-95896142D01*
X135035476Y-95920904D01*
X135023095Y-95958047D01*
X134874523Y-96106619D01*
X135035476Y-96106619D01*
X135258333Y-95933285D02*
X135258333Y-96106619D01*
X135196428Y-95834238D02*
X135134523Y-96019952D01*
X135295476Y-96019952D01*
%TO.C,C18*%
D11*
X120320019Y-94952419D02*
X120367638Y-94904800D01*
X120462876Y-94857180D01*
X120700971Y-94857180D01*
X120796209Y-94904800D01*
X120843828Y-94952419D01*
X120891447Y-95047657D01*
X120891447Y-95142895D01*
X120843828Y-95285752D01*
X120272400Y-95857180D01*
X120891447Y-95857180D01*
X121320019Y-95761942D02*
X121367638Y-95809561D01*
X121320019Y-95857180D01*
X121272400Y-95809561D01*
X121320019Y-95761942D01*
X121320019Y-95857180D01*
X121748590Y-94952419D02*
X121796209Y-94904800D01*
X121891447Y-94857180D01*
X122129542Y-94857180D01*
X122224780Y-94904800D01*
X122272400Y-94952419D01*
X122320019Y-95047657D01*
X122320019Y-95142895D01*
X122272400Y-95285752D01*
X121700971Y-95857180D01*
X122320019Y-95857180D01*
X123177161Y-95190514D02*
X123177161Y-95857180D01*
X122748590Y-95190514D02*
X122748590Y-95714323D01*
X122796209Y-95809561D01*
X122891447Y-95857180D01*
X123034304Y-95857180D01*
X123129542Y-95809561D01*
X123177161Y-95761942D01*
D15*
X123999285Y-95697285D02*
X123987380Y-95709190D01*
X123951666Y-95721095D01*
X123927857Y-95721095D01*
X123892142Y-95709190D01*
X123868333Y-95685380D01*
X123856428Y-95661571D01*
X123844523Y-95613952D01*
X123844523Y-95578238D01*
X123856428Y-95530619D01*
X123868333Y-95506809D01*
X123892142Y-95483000D01*
X123927857Y-95471095D01*
X123951666Y-95471095D01*
X123987380Y-95483000D01*
X123999285Y-95494904D01*
X124237380Y-95721095D02*
X124094523Y-95721095D01*
X124165952Y-95721095D02*
X124165952Y-95471095D01*
X124142142Y-95506809D01*
X124118333Y-95530619D01*
X124094523Y-95542523D01*
X124380238Y-95578238D02*
X124356428Y-95566333D01*
X124344523Y-95554428D01*
X124332619Y-95530619D01*
X124332619Y-95518714D01*
X124344523Y-95494904D01*
X124356428Y-95483000D01*
X124380238Y-95471095D01*
X124427857Y-95471095D01*
X124451666Y-95483000D01*
X124463571Y-95494904D01*
X124475476Y-95518714D01*
X124475476Y-95530619D01*
X124463571Y-95554428D01*
X124451666Y-95566333D01*
X124427857Y-95578238D01*
X124380238Y-95578238D01*
X124356428Y-95590142D01*
X124344523Y-95602047D01*
X124332619Y-95625857D01*
X124332619Y-95673476D01*
X124344523Y-95697285D01*
X124356428Y-95709190D01*
X124380238Y-95721095D01*
X124427857Y-95721095D01*
X124451666Y-95709190D01*
X124463571Y-95697285D01*
X124475476Y-95673476D01*
X124475476Y-95625857D01*
X124463571Y-95602047D01*
X124451666Y-95590142D01*
X124427857Y-95578238D01*
%TO.C,C17*%
D11*
X142290780Y-94682466D02*
X142290780Y-95253895D01*
X142290780Y-94968180D02*
X141290780Y-94968180D01*
X141433638Y-95063419D01*
X141528876Y-95158657D01*
X141576495Y-95253895D01*
X141624114Y-93825323D02*
X142290780Y-93825323D01*
X141624114Y-94253895D02*
X142147923Y-94253895D01*
X142243161Y-94206276D01*
X142290780Y-94111038D01*
X142290780Y-93968180D01*
X142243161Y-93872942D01*
X142195542Y-93825323D01*
D15*
X142029285Y-96149714D02*
X142041190Y-96161619D01*
X142053095Y-96197333D01*
X142053095Y-96221142D01*
X142041190Y-96256857D01*
X142017380Y-96280666D01*
X141993571Y-96292571D01*
X141945952Y-96304476D01*
X141910238Y-96304476D01*
X141862619Y-96292571D01*
X141838809Y-96280666D01*
X141815000Y-96256857D01*
X141803095Y-96221142D01*
X141803095Y-96197333D01*
X141815000Y-96161619D01*
X141826904Y-96149714D01*
X142053095Y-95911619D02*
X142053095Y-96054476D01*
X142053095Y-95983047D02*
X141803095Y-95983047D01*
X141838809Y-96006857D01*
X141862619Y-96030666D01*
X141874523Y-96054476D01*
X141803095Y-95828285D02*
X141803095Y-95661619D01*
X142053095Y-95768761D01*
%TO.C,C16*%
D11*
X122656819Y-96451019D02*
X122704438Y-96403400D01*
X122799676Y-96355780D01*
X123037771Y-96355780D01*
X123133009Y-96403400D01*
X123180628Y-96451019D01*
X123228247Y-96546257D01*
X123228247Y-96641495D01*
X123180628Y-96784352D01*
X122609200Y-97355780D01*
X123228247Y-97355780D01*
X123656819Y-97260542D02*
X123704438Y-97308161D01*
X123656819Y-97355780D01*
X123609200Y-97308161D01*
X123656819Y-97260542D01*
X123656819Y-97355780D01*
X124085390Y-96451019D02*
X124133009Y-96403400D01*
X124228247Y-96355780D01*
X124466342Y-96355780D01*
X124561580Y-96403400D01*
X124609200Y-96451019D01*
X124656819Y-96546257D01*
X124656819Y-96641495D01*
X124609200Y-96784352D01*
X124037771Y-97355780D01*
X124656819Y-97355780D01*
X125513961Y-96689114D02*
X125513961Y-97355780D01*
X125085390Y-96689114D02*
X125085390Y-97212923D01*
X125133009Y-97308161D01*
X125228247Y-97355780D01*
X125371104Y-97355780D01*
X125466342Y-97308161D01*
X125513961Y-97260542D01*
D15*
X126031285Y-96459285D02*
X126019380Y-96471190D01*
X125983666Y-96483095D01*
X125959857Y-96483095D01*
X125924142Y-96471190D01*
X125900333Y-96447380D01*
X125888428Y-96423571D01*
X125876523Y-96375952D01*
X125876523Y-96340238D01*
X125888428Y-96292619D01*
X125900333Y-96268809D01*
X125924142Y-96245000D01*
X125959857Y-96233095D01*
X125983666Y-96233095D01*
X126019380Y-96245000D01*
X126031285Y-96256904D01*
X126269380Y-96483095D02*
X126126523Y-96483095D01*
X126197952Y-96483095D02*
X126197952Y-96233095D01*
X126174142Y-96268809D01*
X126150333Y-96292619D01*
X126126523Y-96304523D01*
X126483666Y-96233095D02*
X126436047Y-96233095D01*
X126412238Y-96245000D01*
X126400333Y-96256904D01*
X126376523Y-96292619D01*
X126364619Y-96340238D01*
X126364619Y-96435476D01*
X126376523Y-96459285D01*
X126388428Y-96471190D01*
X126412238Y-96483095D01*
X126459857Y-96483095D01*
X126483666Y-96471190D01*
X126495571Y-96459285D01*
X126507476Y-96435476D01*
X126507476Y-96375952D01*
X126495571Y-96352142D01*
X126483666Y-96340238D01*
X126459857Y-96328333D01*
X126412238Y-96328333D01*
X126388428Y-96340238D01*
X126376523Y-96352142D01*
X126364619Y-96375952D01*
%TO.C,C15*%
D11*
X140944580Y-94682466D02*
X140944580Y-95253895D01*
X140944580Y-94968180D02*
X139944580Y-94968180D01*
X140087438Y-95063419D01*
X140182676Y-95158657D01*
X140230295Y-95253895D01*
X140277914Y-93825323D02*
X140944580Y-93825323D01*
X140277914Y-94253895D02*
X140801723Y-94253895D01*
X140896961Y-94206276D01*
X140944580Y-94111038D01*
X140944580Y-93968180D01*
X140896961Y-93872942D01*
X140849342Y-93825323D01*
D15*
X140632285Y-96149714D02*
X140644190Y-96161619D01*
X140656095Y-96197333D01*
X140656095Y-96221142D01*
X140644190Y-96256857D01*
X140620380Y-96280666D01*
X140596571Y-96292571D01*
X140548952Y-96304476D01*
X140513238Y-96304476D01*
X140465619Y-96292571D01*
X140441809Y-96280666D01*
X140418000Y-96256857D01*
X140406095Y-96221142D01*
X140406095Y-96197333D01*
X140418000Y-96161619D01*
X140429904Y-96149714D01*
X140656095Y-95911619D02*
X140656095Y-96054476D01*
X140656095Y-95983047D02*
X140406095Y-95983047D01*
X140441809Y-96006857D01*
X140465619Y-96030666D01*
X140477523Y-96054476D01*
X140406095Y-95685428D02*
X140406095Y-95804476D01*
X140525142Y-95816380D01*
X140513238Y-95804476D01*
X140501333Y-95780666D01*
X140501333Y-95721142D01*
X140513238Y-95697333D01*
X140525142Y-95685428D01*
X140548952Y-95673523D01*
X140608476Y-95673523D01*
X140632285Y-95685428D01*
X140644190Y-95697333D01*
X140656095Y-95721142D01*
X140656095Y-95780666D01*
X140644190Y-95804476D01*
X140632285Y-95816380D01*
%TO.C,C14*%
D11*
X129539980Y-94428466D02*
X129539980Y-94999895D01*
X129539980Y-94714180D02*
X128539980Y-94714180D01*
X128682838Y-94809419D01*
X128778076Y-94904657D01*
X128825695Y-94999895D01*
X128873314Y-93571323D02*
X129539980Y-93571323D01*
X128873314Y-93999895D02*
X129397123Y-93999895D01*
X129492361Y-93952276D01*
X129539980Y-93857038D01*
X129539980Y-93714180D01*
X129492361Y-93618942D01*
X129444742Y-93571323D01*
D15*
X129456285Y-96022714D02*
X129468190Y-96034619D01*
X129480095Y-96070333D01*
X129480095Y-96094142D01*
X129468190Y-96129857D01*
X129444380Y-96153666D01*
X129420571Y-96165571D01*
X129372952Y-96177476D01*
X129337238Y-96177476D01*
X129289619Y-96165571D01*
X129265809Y-96153666D01*
X129242000Y-96129857D01*
X129230095Y-96094142D01*
X129230095Y-96070333D01*
X129242000Y-96034619D01*
X129253904Y-96022714D01*
X129480095Y-95784619D02*
X129480095Y-95927476D01*
X129480095Y-95856047D02*
X129230095Y-95856047D01*
X129265809Y-95879857D01*
X129289619Y-95903666D01*
X129301523Y-95927476D01*
X129313428Y-95570333D02*
X129480095Y-95570333D01*
X129218190Y-95629857D02*
X129396761Y-95689380D01*
X129396761Y-95534619D01*
%TO.C,C13*%
D11*
X131165580Y-94453866D02*
X131165580Y-95025295D01*
X131165580Y-94739580D02*
X130165580Y-94739580D01*
X130308438Y-94834819D01*
X130403676Y-94930057D01*
X130451295Y-95025295D01*
X130498914Y-93596723D02*
X131165580Y-93596723D01*
X130498914Y-94025295D02*
X131022723Y-94025295D01*
X131117961Y-93977676D01*
X131165580Y-93882438D01*
X131165580Y-93739580D01*
X131117961Y-93644342D01*
X131070342Y-93596723D01*
D15*
X130853285Y-96022714D02*
X130865190Y-96034619D01*
X130877095Y-96070333D01*
X130877095Y-96094142D01*
X130865190Y-96129857D01*
X130841380Y-96153666D01*
X130817571Y-96165571D01*
X130769952Y-96177476D01*
X130734238Y-96177476D01*
X130686619Y-96165571D01*
X130662809Y-96153666D01*
X130639000Y-96129857D01*
X130627095Y-96094142D01*
X130627095Y-96070333D01*
X130639000Y-96034619D01*
X130650904Y-96022714D01*
X130877095Y-95784619D02*
X130877095Y-95927476D01*
X130877095Y-95856047D02*
X130627095Y-95856047D01*
X130662809Y-95879857D01*
X130686619Y-95903666D01*
X130698523Y-95927476D01*
X130627095Y-95701285D02*
X130627095Y-95546523D01*
X130722333Y-95629857D01*
X130722333Y-95594142D01*
X130734238Y-95570333D01*
X130746142Y-95558428D01*
X130769952Y-95546523D01*
X130829476Y-95546523D01*
X130853285Y-95558428D01*
X130865190Y-95570333D01*
X130877095Y-95594142D01*
X130877095Y-95665571D01*
X130865190Y-95689380D01*
X130853285Y-95701285D01*
%TO.C,C8*%
D11*
X122443980Y-116100885D02*
X122443980Y-116005647D01*
X122491600Y-115910409D01*
X122539219Y-115862790D01*
X122634457Y-115815171D01*
X122824933Y-115767552D01*
X123063028Y-115767552D01*
X123253504Y-115815171D01*
X123348742Y-115862790D01*
X123396361Y-115910409D01*
X123443980Y-116005647D01*
X123443980Y-116100885D01*
X123396361Y-116196123D01*
X123348742Y-116243742D01*
X123253504Y-116291361D01*
X123063028Y-116338980D01*
X122824933Y-116338980D01*
X122634457Y-116291361D01*
X122539219Y-116243742D01*
X122491600Y-116196123D01*
X122443980Y-116100885D01*
X123348742Y-115338980D02*
X123396361Y-115291361D01*
X123443980Y-115338980D01*
X123396361Y-115386600D01*
X123348742Y-115338980D01*
X123443980Y-115338980D01*
X123443980Y-114338980D02*
X123443980Y-114910409D01*
X123443980Y-114624695D02*
X122443980Y-114624695D01*
X122586838Y-114719933D01*
X122682076Y-114815171D01*
X122729695Y-114910409D01*
X122777314Y-113481838D02*
X123443980Y-113481838D01*
X122777314Y-113910409D02*
X123301123Y-113910409D01*
X123396361Y-113862790D01*
X123443980Y-113767552D01*
X123443980Y-113624695D01*
X123396361Y-113529457D01*
X123348742Y-113481838D01*
D15*
X124185785Y-113747166D02*
X124197690Y-113759071D01*
X124209595Y-113794785D01*
X124209595Y-113818595D01*
X124197690Y-113854309D01*
X124173880Y-113878119D01*
X124150071Y-113890023D01*
X124102452Y-113901928D01*
X124066738Y-113901928D01*
X124019119Y-113890023D01*
X123995309Y-113878119D01*
X123971500Y-113854309D01*
X123959595Y-113818595D01*
X123959595Y-113794785D01*
X123971500Y-113759071D01*
X123983404Y-113747166D01*
X124066738Y-113604309D02*
X124054833Y-113628119D01*
X124042928Y-113640023D01*
X124019119Y-113651928D01*
X124007214Y-113651928D01*
X123983404Y-113640023D01*
X123971500Y-113628119D01*
X123959595Y-113604309D01*
X123959595Y-113556690D01*
X123971500Y-113532880D01*
X123983404Y-113520976D01*
X124007214Y-113509071D01*
X124019119Y-113509071D01*
X124042928Y-113520976D01*
X124054833Y-113532880D01*
X124066738Y-113556690D01*
X124066738Y-113604309D01*
X124078642Y-113628119D01*
X124090547Y-113640023D01*
X124114357Y-113651928D01*
X124161976Y-113651928D01*
X124185785Y-113640023D01*
X124197690Y-113628119D01*
X124209595Y-113604309D01*
X124209595Y-113556690D01*
X124197690Y-113532880D01*
X124185785Y-113520976D01*
X124161976Y-113509071D01*
X124114357Y-113509071D01*
X124090547Y-113520976D01*
X124078642Y-113532880D01*
X124066738Y-113556690D01*
%TO.C,C7*%
D11*
X122570980Y-112036885D02*
X122570980Y-111941647D01*
X122618600Y-111846409D01*
X122666219Y-111798790D01*
X122761457Y-111751171D01*
X122951933Y-111703552D01*
X123190028Y-111703552D01*
X123380504Y-111751171D01*
X123475742Y-111798790D01*
X123523361Y-111846409D01*
X123570980Y-111941647D01*
X123570980Y-112036885D01*
X123523361Y-112132123D01*
X123475742Y-112179742D01*
X123380504Y-112227361D01*
X123190028Y-112274980D01*
X122951933Y-112274980D01*
X122761457Y-112227361D01*
X122666219Y-112179742D01*
X122618600Y-112132123D01*
X122570980Y-112036885D01*
X123475742Y-111274980D02*
X123523361Y-111227361D01*
X123570980Y-111274980D01*
X123523361Y-111322600D01*
X123475742Y-111274980D01*
X123570980Y-111274980D01*
X123570980Y-110274980D02*
X123570980Y-110846409D01*
X123570980Y-110560695D02*
X122570980Y-110560695D01*
X122713838Y-110655933D01*
X122809076Y-110751171D01*
X122856695Y-110846409D01*
X122904314Y-109417838D02*
X123570980Y-109417838D01*
X122904314Y-109846409D02*
X123428123Y-109846409D01*
X123523361Y-109798790D01*
X123570980Y-109703552D01*
X123570980Y-109560695D01*
X123523361Y-109465457D01*
X123475742Y-109417838D01*
D15*
X124185785Y-111715166D02*
X124197690Y-111727071D01*
X124209595Y-111762785D01*
X124209595Y-111786595D01*
X124197690Y-111822309D01*
X124173880Y-111846119D01*
X124150071Y-111858023D01*
X124102452Y-111869928D01*
X124066738Y-111869928D01*
X124019119Y-111858023D01*
X123995309Y-111846119D01*
X123971500Y-111822309D01*
X123959595Y-111786595D01*
X123959595Y-111762785D01*
X123971500Y-111727071D01*
X123983404Y-111715166D01*
X123959595Y-111631833D02*
X123959595Y-111465166D01*
X124209595Y-111572309D01*
%TO.C,C5*%
D11*
X118373714Y-104856380D02*
X118468952Y-104856380D01*
X118564190Y-104904000D01*
X118611809Y-104951619D01*
X118659428Y-105046857D01*
X118707047Y-105237333D01*
X118707047Y-105475428D01*
X118659428Y-105665904D01*
X118611809Y-105761142D01*
X118564190Y-105808761D01*
X118468952Y-105856380D01*
X118373714Y-105856380D01*
X118278476Y-105808761D01*
X118230857Y-105761142D01*
X118183238Y-105665904D01*
X118135619Y-105475428D01*
X118135619Y-105237333D01*
X118183238Y-105046857D01*
X118230857Y-104951619D01*
X118278476Y-104904000D01*
X118373714Y-104856380D01*
X119135619Y-105761142D02*
X119183238Y-105808761D01*
X119135619Y-105856380D01*
X119088000Y-105808761D01*
X119135619Y-105761142D01*
X119135619Y-105856380D01*
X120135619Y-105856380D02*
X119564190Y-105856380D01*
X119849904Y-105856380D02*
X119849904Y-104856380D01*
X119754666Y-104999238D01*
X119659428Y-105094476D01*
X119564190Y-105142095D01*
X120992761Y-105189714D02*
X120992761Y-105856380D01*
X120564190Y-105189714D02*
X120564190Y-105713523D01*
X120611809Y-105808761D01*
X120707047Y-105856380D01*
X120849904Y-105856380D01*
X120945142Y-105808761D01*
X120992761Y-105761142D01*
D15*
X119546333Y-104333285D02*
X119534428Y-104345190D01*
X119498714Y-104357095D01*
X119474904Y-104357095D01*
X119439190Y-104345190D01*
X119415380Y-104321380D01*
X119403476Y-104297571D01*
X119391571Y-104249952D01*
X119391571Y-104214238D01*
X119403476Y-104166619D01*
X119415380Y-104142809D01*
X119439190Y-104119000D01*
X119474904Y-104107095D01*
X119498714Y-104107095D01*
X119534428Y-104119000D01*
X119546333Y-104130904D01*
X119772523Y-104107095D02*
X119653476Y-104107095D01*
X119641571Y-104226142D01*
X119653476Y-104214238D01*
X119677285Y-104202333D01*
X119736809Y-104202333D01*
X119760619Y-104214238D01*
X119772523Y-104226142D01*
X119784428Y-104249952D01*
X119784428Y-104309476D01*
X119772523Y-104333285D01*
X119760619Y-104345190D01*
X119736809Y-104357095D01*
X119677285Y-104357095D01*
X119653476Y-104345190D01*
X119641571Y-104333285D01*
%TO.C,C4*%
D11*
X142713133Y-86349180D02*
X142141704Y-86349180D01*
X142427419Y-86349180D02*
X142427419Y-85349180D01*
X142332180Y-85492038D01*
X142236942Y-85587276D01*
X142141704Y-85634895D01*
X143570276Y-85682514D02*
X143570276Y-86349180D01*
X143141704Y-85682514D02*
X143141704Y-86206323D01*
X143189323Y-86301561D01*
X143284561Y-86349180D01*
X143427419Y-86349180D01*
X143522657Y-86301561D01*
X143570276Y-86253942D01*
D15*
X142838133Y-84826085D02*
X142826228Y-84837990D01*
X142790514Y-84849895D01*
X142766704Y-84849895D01*
X142730990Y-84837990D01*
X142707180Y-84814180D01*
X142695276Y-84790371D01*
X142683371Y-84742752D01*
X142683371Y-84707038D01*
X142695276Y-84659419D01*
X142707180Y-84635609D01*
X142730990Y-84611800D01*
X142766704Y-84599895D01*
X142790514Y-84599895D01*
X142826228Y-84611800D01*
X142838133Y-84623704D01*
X143052419Y-84683228D02*
X143052419Y-84849895D01*
X142992895Y-84587990D02*
X142933371Y-84766561D01*
X143088133Y-84766561D01*
%TO.C,C3*%
D11*
X141665514Y-86492180D02*
X141760752Y-86492180D01*
X141855990Y-86539800D01*
X141903609Y-86587419D01*
X141951228Y-86682657D01*
X141998847Y-86873133D01*
X141998847Y-87111228D01*
X141951228Y-87301704D01*
X141903609Y-87396942D01*
X141855990Y-87444561D01*
X141760752Y-87492180D01*
X141665514Y-87492180D01*
X141570276Y-87444561D01*
X141522657Y-87396942D01*
X141475038Y-87301704D01*
X141427419Y-87111228D01*
X141427419Y-86873133D01*
X141475038Y-86682657D01*
X141522657Y-86587419D01*
X141570276Y-86539800D01*
X141665514Y-86492180D01*
X142427419Y-87396942D02*
X142475038Y-87444561D01*
X142427419Y-87492180D01*
X142379800Y-87444561D01*
X142427419Y-87396942D01*
X142427419Y-87492180D01*
X143427419Y-87492180D02*
X142855990Y-87492180D01*
X143141704Y-87492180D02*
X143141704Y-86492180D01*
X143046466Y-86635038D01*
X142951228Y-86730276D01*
X142855990Y-86777895D01*
X144284561Y-86825514D02*
X144284561Y-87492180D01*
X143855990Y-86825514D02*
X143855990Y-87349323D01*
X143903609Y-87444561D01*
X143998847Y-87492180D01*
X144141704Y-87492180D01*
X144236942Y-87444561D01*
X144284561Y-87396942D01*
D15*
X142838133Y-85969085D02*
X142826228Y-85980990D01*
X142790514Y-85992895D01*
X142766704Y-85992895D01*
X142730990Y-85980990D01*
X142707180Y-85957180D01*
X142695276Y-85933371D01*
X142683371Y-85885752D01*
X142683371Y-85850038D01*
X142695276Y-85802419D01*
X142707180Y-85778609D01*
X142730990Y-85754800D01*
X142766704Y-85742895D01*
X142790514Y-85742895D01*
X142826228Y-85754800D01*
X142838133Y-85766704D01*
X142921466Y-85742895D02*
X143076228Y-85742895D01*
X142992895Y-85838133D01*
X143028609Y-85838133D01*
X143052419Y-85850038D01*
X143064323Y-85861942D01*
X143076228Y-85885752D01*
X143076228Y-85945276D01*
X143064323Y-85969085D01*
X143052419Y-85980990D01*
X143028609Y-85992895D01*
X142957180Y-85992895D01*
X142933371Y-85980990D01*
X142921466Y-85969085D01*
%TO.C,C2*%
D11*
X141333980Y-90847066D02*
X141333980Y-91418495D01*
X141333980Y-91132780D02*
X140333980Y-91132780D01*
X140476838Y-91228019D01*
X140572076Y-91323257D01*
X140619695Y-91418495D01*
X140667314Y-89989923D02*
X141333980Y-89989923D01*
X140667314Y-90418495D02*
X141191123Y-90418495D01*
X141286361Y-90370876D01*
X141333980Y-90275638D01*
X141333980Y-90132780D01*
X141286361Y-90037542D01*
X141238742Y-89989923D01*
D15*
X142130885Y-90722066D02*
X142142790Y-90733971D01*
X142154695Y-90769685D01*
X142154695Y-90793495D01*
X142142790Y-90829209D01*
X142118980Y-90853019D01*
X142095171Y-90864923D01*
X142047552Y-90876828D01*
X142011838Y-90876828D01*
X141964219Y-90864923D01*
X141940409Y-90853019D01*
X141916600Y-90829209D01*
X141904695Y-90793495D01*
X141904695Y-90769685D01*
X141916600Y-90733971D01*
X141928504Y-90722066D01*
X141928504Y-90626828D02*
X141916600Y-90614923D01*
X141904695Y-90591114D01*
X141904695Y-90531590D01*
X141916600Y-90507780D01*
X141928504Y-90495876D01*
X141952314Y-90483971D01*
X141976123Y-90483971D01*
X142011838Y-90495876D01*
X142154695Y-90638733D01*
X142154695Y-90483971D01*
%TO.C,C1*%
D11*
X130665180Y-82113085D02*
X130665180Y-82017847D01*
X130712800Y-81922609D01*
X130760419Y-81874990D01*
X130855657Y-81827371D01*
X131046133Y-81779752D01*
X131284228Y-81779752D01*
X131474704Y-81827371D01*
X131569942Y-81874990D01*
X131617561Y-81922609D01*
X131665180Y-82017847D01*
X131665180Y-82113085D01*
X131617561Y-82208323D01*
X131569942Y-82255942D01*
X131474704Y-82303561D01*
X131284228Y-82351180D01*
X131046133Y-82351180D01*
X130855657Y-82303561D01*
X130760419Y-82255942D01*
X130712800Y-82208323D01*
X130665180Y-82113085D01*
X131569942Y-81351180D02*
X131617561Y-81303561D01*
X131665180Y-81351180D01*
X131617561Y-81398800D01*
X131569942Y-81351180D01*
X131665180Y-81351180D01*
X131665180Y-80351180D02*
X131665180Y-80922609D01*
X131665180Y-80636895D02*
X130665180Y-80636895D01*
X130808038Y-80732133D01*
X130903276Y-80827371D01*
X130950895Y-80922609D01*
X130998514Y-79494038D02*
X131665180Y-79494038D01*
X130998514Y-79922609D02*
X131522323Y-79922609D01*
X131617561Y-79874990D01*
X131665180Y-79779752D01*
X131665180Y-79636895D01*
X131617561Y-79541657D01*
X131569942Y-79494038D01*
D15*
X130142085Y-80940466D02*
X130153990Y-80952371D01*
X130165895Y-80988085D01*
X130165895Y-81011895D01*
X130153990Y-81047609D01*
X130130180Y-81071419D01*
X130106371Y-81083323D01*
X130058752Y-81095228D01*
X130023038Y-81095228D01*
X129975419Y-81083323D01*
X129951609Y-81071419D01*
X129927800Y-81047609D01*
X129915895Y-81011895D01*
X129915895Y-80988085D01*
X129927800Y-80952371D01*
X129939704Y-80940466D01*
X130165895Y-80702371D02*
X130165895Y-80845228D01*
X130165895Y-80773800D02*
X129915895Y-80773800D01*
X129951609Y-80797609D01*
X129975419Y-80821419D01*
X129987323Y-80845228D01*
%TO.C,R15*%
D11*
X118535561Y-102308780D02*
X117964133Y-102308780D01*
X118249847Y-102308780D02*
X118249847Y-101308780D01*
X118154609Y-101451638D01*
X118059371Y-101546876D01*
X117964133Y-101594495D01*
X119154609Y-101308780D02*
X119249847Y-101308780D01*
X119345085Y-101356400D01*
X119392704Y-101404019D01*
X119440323Y-101499257D01*
X119487942Y-101689733D01*
X119487942Y-101927828D01*
X119440323Y-102118304D01*
X119392704Y-102213542D01*
X119345085Y-102261161D01*
X119249847Y-102308780D01*
X119154609Y-102308780D01*
X119059371Y-102261161D01*
X119011752Y-102213542D01*
X118964133Y-102118304D01*
X118916514Y-101927828D01*
X118916514Y-101689733D01*
X118964133Y-101499257D01*
X119011752Y-101404019D01*
X119059371Y-101356400D01*
X119154609Y-101308780D01*
X119916514Y-102308780D02*
X119916514Y-101308780D01*
X120011752Y-101927828D02*
X120297466Y-102308780D01*
X120297466Y-101642114D02*
X119916514Y-102023066D01*
D15*
X116245857Y-101694619D02*
X116159190Y-101570809D01*
X116097285Y-101694619D02*
X116097285Y-101434619D01*
X116196333Y-101434619D01*
X116221095Y-101447000D01*
X116233476Y-101459380D01*
X116245857Y-101484142D01*
X116245857Y-101521285D01*
X116233476Y-101546047D01*
X116221095Y-101558428D01*
X116196333Y-101570809D01*
X116097285Y-101570809D01*
X116493476Y-101694619D02*
X116344904Y-101694619D01*
X116419190Y-101694619D02*
X116419190Y-101434619D01*
X116394428Y-101471761D01*
X116369666Y-101496523D01*
X116344904Y-101508904D01*
X116728714Y-101434619D02*
X116604904Y-101434619D01*
X116592523Y-101558428D01*
X116604904Y-101546047D01*
X116629666Y-101533666D01*
X116691571Y-101533666D01*
X116716333Y-101546047D01*
X116728714Y-101558428D01*
X116741095Y-101583190D01*
X116741095Y-101645095D01*
X116728714Y-101669857D01*
X116716333Y-101682238D01*
X116691571Y-101694619D01*
X116629666Y-101694619D01*
X116604904Y-101682238D01*
X116592523Y-101669857D01*
%TO.C,R14*%
D11*
X118484761Y-100886380D02*
X117913333Y-100886380D01*
X118199047Y-100886380D02*
X118199047Y-99886380D01*
X118103809Y-100029238D01*
X118008571Y-100124476D01*
X117913333Y-100172095D01*
X119103809Y-99886380D02*
X119199047Y-99886380D01*
X119294285Y-99934000D01*
X119341904Y-99981619D01*
X119389523Y-100076857D01*
X119437142Y-100267333D01*
X119437142Y-100505428D01*
X119389523Y-100695904D01*
X119341904Y-100791142D01*
X119294285Y-100838761D01*
X119199047Y-100886380D01*
X119103809Y-100886380D01*
X119008571Y-100838761D01*
X118960952Y-100791142D01*
X118913333Y-100695904D01*
X118865714Y-100505428D01*
X118865714Y-100267333D01*
X118913333Y-100076857D01*
X118960952Y-99981619D01*
X119008571Y-99934000D01*
X119103809Y-99886380D01*
X119865714Y-100886380D02*
X119865714Y-99886380D01*
X119960952Y-100505428D02*
X120246666Y-100886380D01*
X120246666Y-100219714D02*
X119865714Y-100600666D01*
D15*
X116245857Y-100424619D02*
X116159190Y-100300809D01*
X116097285Y-100424619D02*
X116097285Y-100164619D01*
X116196333Y-100164619D01*
X116221095Y-100177000D01*
X116233476Y-100189380D01*
X116245857Y-100214142D01*
X116245857Y-100251285D01*
X116233476Y-100276047D01*
X116221095Y-100288428D01*
X116196333Y-100300809D01*
X116097285Y-100300809D01*
X116493476Y-100424619D02*
X116344904Y-100424619D01*
X116419190Y-100424619D02*
X116419190Y-100164619D01*
X116394428Y-100201761D01*
X116369666Y-100226523D01*
X116344904Y-100238904D01*
X116716333Y-100251285D02*
X116716333Y-100424619D01*
X116654428Y-100152238D02*
X116592523Y-100337952D01*
X116753476Y-100337952D01*
%TO.C,R13*%
D11*
X113912761Y-94485580D02*
X113341333Y-94485580D01*
X113627047Y-94485580D02*
X113627047Y-93485580D01*
X113531809Y-93628438D01*
X113436571Y-93723676D01*
X113341333Y-93771295D01*
X114531809Y-93485580D02*
X114627047Y-93485580D01*
X114722285Y-93533200D01*
X114769904Y-93580819D01*
X114817523Y-93676057D01*
X114865142Y-93866533D01*
X114865142Y-94104628D01*
X114817523Y-94295104D01*
X114769904Y-94390342D01*
X114722285Y-94437961D01*
X114627047Y-94485580D01*
X114531809Y-94485580D01*
X114436571Y-94437961D01*
X114388952Y-94390342D01*
X114341333Y-94295104D01*
X114293714Y-94104628D01*
X114293714Y-93866533D01*
X114341333Y-93676057D01*
X114388952Y-93580819D01*
X114436571Y-93533200D01*
X114531809Y-93485580D01*
X115293714Y-94485580D02*
X115293714Y-93485580D01*
X115388952Y-94104628D02*
X115674666Y-94485580D01*
X115674666Y-93818914D02*
X115293714Y-94199866D01*
D15*
X116372857Y-95725619D02*
X116286190Y-95601809D01*
X116224285Y-95725619D02*
X116224285Y-95465619D01*
X116323333Y-95465619D01*
X116348095Y-95478000D01*
X116360476Y-95490380D01*
X116372857Y-95515142D01*
X116372857Y-95552285D01*
X116360476Y-95577047D01*
X116348095Y-95589428D01*
X116323333Y-95601809D01*
X116224285Y-95601809D01*
X116620476Y-95725619D02*
X116471904Y-95725619D01*
X116546190Y-95725619D02*
X116546190Y-95465619D01*
X116521428Y-95502761D01*
X116496666Y-95527523D01*
X116471904Y-95539904D01*
X116707142Y-95465619D02*
X116868095Y-95465619D01*
X116781428Y-95564666D01*
X116818571Y-95564666D01*
X116843333Y-95577047D01*
X116855714Y-95589428D01*
X116868095Y-95614190D01*
X116868095Y-95676095D01*
X116855714Y-95700857D01*
X116843333Y-95713238D01*
X116818571Y-95725619D01*
X116744285Y-95725619D01*
X116719523Y-95713238D01*
X116707142Y-95700857D01*
%TO.C,R12*%
D11*
X113963561Y-95984180D02*
X113392133Y-95984180D01*
X113677847Y-95984180D02*
X113677847Y-94984180D01*
X113582609Y-95127038D01*
X113487371Y-95222276D01*
X113392133Y-95269895D01*
X114582609Y-94984180D02*
X114677847Y-94984180D01*
X114773085Y-95031800D01*
X114820704Y-95079419D01*
X114868323Y-95174657D01*
X114915942Y-95365133D01*
X114915942Y-95603228D01*
X114868323Y-95793704D01*
X114820704Y-95888942D01*
X114773085Y-95936561D01*
X114677847Y-95984180D01*
X114582609Y-95984180D01*
X114487371Y-95936561D01*
X114439752Y-95888942D01*
X114392133Y-95793704D01*
X114344514Y-95603228D01*
X114344514Y-95365133D01*
X114392133Y-95174657D01*
X114439752Y-95079419D01*
X114487371Y-95031800D01*
X114582609Y-94984180D01*
X115344514Y-95984180D02*
X115344514Y-94984180D01*
X115439752Y-95603228D02*
X115725466Y-95984180D01*
X115725466Y-95317514D02*
X115344514Y-95698466D01*
D15*
X116372857Y-94328619D02*
X116286190Y-94204809D01*
X116224285Y-94328619D02*
X116224285Y-94068619D01*
X116323333Y-94068619D01*
X116348095Y-94081000D01*
X116360476Y-94093380D01*
X116372857Y-94118142D01*
X116372857Y-94155285D01*
X116360476Y-94180047D01*
X116348095Y-94192428D01*
X116323333Y-94204809D01*
X116224285Y-94204809D01*
X116620476Y-94328619D02*
X116471904Y-94328619D01*
X116546190Y-94328619D02*
X116546190Y-94068619D01*
X116521428Y-94105761D01*
X116496666Y-94130523D01*
X116471904Y-94142904D01*
X116719523Y-94093380D02*
X116731904Y-94081000D01*
X116756666Y-94068619D01*
X116818571Y-94068619D01*
X116843333Y-94081000D01*
X116855714Y-94093380D01*
X116868095Y-94118142D01*
X116868095Y-94142904D01*
X116855714Y-94180047D01*
X116707142Y-94328619D01*
X116868095Y-94328619D01*
%TO.C,R11*%
D11*
X113963561Y-92961580D02*
X113392133Y-92961580D01*
X113677847Y-92961580D02*
X113677847Y-91961580D01*
X113582609Y-92104438D01*
X113487371Y-92199676D01*
X113392133Y-92247295D01*
X114582609Y-91961580D02*
X114677847Y-91961580D01*
X114773085Y-92009200D01*
X114820704Y-92056819D01*
X114868323Y-92152057D01*
X114915942Y-92342533D01*
X114915942Y-92580628D01*
X114868323Y-92771104D01*
X114820704Y-92866342D01*
X114773085Y-92913961D01*
X114677847Y-92961580D01*
X114582609Y-92961580D01*
X114487371Y-92913961D01*
X114439752Y-92866342D01*
X114392133Y-92771104D01*
X114344514Y-92580628D01*
X114344514Y-92342533D01*
X114392133Y-92152057D01*
X114439752Y-92056819D01*
X114487371Y-92009200D01*
X114582609Y-91961580D01*
X115344514Y-92961580D02*
X115344514Y-91961580D01*
X115439752Y-92580628D02*
X115725466Y-92961580D01*
X115725466Y-92294914D02*
X115344514Y-92675866D01*
D15*
X116372857Y-92931619D02*
X116286190Y-92807809D01*
X116224285Y-92931619D02*
X116224285Y-92671619D01*
X116323333Y-92671619D01*
X116348095Y-92684000D01*
X116360476Y-92696380D01*
X116372857Y-92721142D01*
X116372857Y-92758285D01*
X116360476Y-92783047D01*
X116348095Y-92795428D01*
X116323333Y-92807809D01*
X116224285Y-92807809D01*
X116620476Y-92931619D02*
X116471904Y-92931619D01*
X116546190Y-92931619D02*
X116546190Y-92671619D01*
X116521428Y-92708761D01*
X116496666Y-92733523D01*
X116471904Y-92745904D01*
X116868095Y-92931619D02*
X116719523Y-92931619D01*
X116793809Y-92931619D02*
X116793809Y-92671619D01*
X116769047Y-92708761D01*
X116744285Y-92733523D01*
X116719523Y-92745904D01*
%TO.C,R10*%
D11*
X118433961Y-99463980D02*
X117862533Y-99463980D01*
X118148247Y-99463980D02*
X118148247Y-98463980D01*
X118053009Y-98606838D01*
X117957771Y-98702076D01*
X117862533Y-98749695D01*
X119053009Y-98463980D02*
X119148247Y-98463980D01*
X119243485Y-98511600D01*
X119291104Y-98559219D01*
X119338723Y-98654457D01*
X119386342Y-98844933D01*
X119386342Y-99083028D01*
X119338723Y-99273504D01*
X119291104Y-99368742D01*
X119243485Y-99416361D01*
X119148247Y-99463980D01*
X119053009Y-99463980D01*
X118957771Y-99416361D01*
X118910152Y-99368742D01*
X118862533Y-99273504D01*
X118814914Y-99083028D01*
X118814914Y-98844933D01*
X118862533Y-98654457D01*
X118910152Y-98559219D01*
X118957771Y-98511600D01*
X119053009Y-98463980D01*
X119814914Y-99463980D02*
X119814914Y-98463980D01*
X119910152Y-99083028D02*
X120195866Y-99463980D01*
X120195866Y-98797314D02*
X119814914Y-99178266D01*
D15*
X116245857Y-99154619D02*
X116159190Y-99030809D01*
X116097285Y-99154619D02*
X116097285Y-98894619D01*
X116196333Y-98894619D01*
X116221095Y-98907000D01*
X116233476Y-98919380D01*
X116245857Y-98944142D01*
X116245857Y-98981285D01*
X116233476Y-99006047D01*
X116221095Y-99018428D01*
X116196333Y-99030809D01*
X116097285Y-99030809D01*
X116493476Y-99154619D02*
X116344904Y-99154619D01*
X116419190Y-99154619D02*
X116419190Y-98894619D01*
X116394428Y-98931761D01*
X116369666Y-98956523D01*
X116344904Y-98968904D01*
X116654428Y-98894619D02*
X116679190Y-98894619D01*
X116703952Y-98907000D01*
X116716333Y-98919380D01*
X116728714Y-98944142D01*
X116741095Y-98993666D01*
X116741095Y-99055571D01*
X116728714Y-99105095D01*
X116716333Y-99129857D01*
X116703952Y-99142238D01*
X116679190Y-99154619D01*
X116654428Y-99154619D01*
X116629666Y-99142238D01*
X116617285Y-99129857D01*
X116604904Y-99105095D01*
X116592523Y-99055571D01*
X116592523Y-98993666D01*
X116604904Y-98944142D01*
X116617285Y-98919380D01*
X116629666Y-98907000D01*
X116654428Y-98894619D01*
%TO.C,R1*%
D11*
X137560161Y-91767780D02*
X136988733Y-91767780D01*
X137274447Y-91767780D02*
X137274447Y-90767780D01*
X137179209Y-90910638D01*
X137083971Y-91005876D01*
X136988733Y-91053495D01*
X138179209Y-90767780D02*
X138274447Y-90767780D01*
X138369685Y-90815400D01*
X138417304Y-90863019D01*
X138464923Y-90958257D01*
X138512542Y-91148733D01*
X138512542Y-91386828D01*
X138464923Y-91577304D01*
X138417304Y-91672542D01*
X138369685Y-91720161D01*
X138274447Y-91767780D01*
X138179209Y-91767780D01*
X138083971Y-91720161D01*
X138036352Y-91672542D01*
X137988733Y-91577304D01*
X137941114Y-91386828D01*
X137941114Y-91148733D01*
X137988733Y-90958257D01*
X138036352Y-90863019D01*
X138083971Y-90815400D01*
X138179209Y-90767780D01*
X138941114Y-91767780D02*
X138941114Y-90767780D01*
X139036352Y-91386828D02*
X139322066Y-91767780D01*
X139322066Y-91101114D02*
X138941114Y-91482066D01*
D15*
X138061266Y-92525219D02*
X137974600Y-92401409D01*
X137912695Y-92525219D02*
X137912695Y-92265219D01*
X138011742Y-92265219D01*
X138036504Y-92277600D01*
X138048885Y-92289980D01*
X138061266Y-92314742D01*
X138061266Y-92351885D01*
X138048885Y-92376647D01*
X138036504Y-92389028D01*
X138011742Y-92401409D01*
X137912695Y-92401409D01*
X138308885Y-92525219D02*
X138160314Y-92525219D01*
X138234600Y-92525219D02*
X138234600Y-92265219D01*
X138209838Y-92302361D01*
X138185076Y-92327123D01*
X138160314Y-92339504D01*
%TO.C,D21*%
D11*
X143582076Y-106334361D02*
X143724933Y-106381980D01*
X143963028Y-106381980D01*
X144058266Y-106334361D01*
X144105885Y-106286742D01*
X144153504Y-106191504D01*
X144153504Y-106096266D01*
X144105885Y-106001028D01*
X144058266Y-105953409D01*
X143963028Y-105905790D01*
X143772552Y-105858171D01*
X143677314Y-105810552D01*
X143629695Y-105762933D01*
X143582076Y-105667695D01*
X143582076Y-105572457D01*
X143629695Y-105477219D01*
X143677314Y-105429600D01*
X143772552Y-105381980D01*
X144010647Y-105381980D01*
X144153504Y-105429600D01*
X144534457Y-106334361D02*
X144677314Y-106381980D01*
X144915409Y-106381980D01*
X145010647Y-106334361D01*
X145058266Y-106286742D01*
X145105885Y-106191504D01*
X145105885Y-106096266D01*
X145058266Y-106001028D01*
X145010647Y-105953409D01*
X144915409Y-105905790D01*
X144724933Y-105858171D01*
X144629695Y-105810552D01*
X144582076Y-105762933D01*
X144534457Y-105667695D01*
X144534457Y-105572457D01*
X144582076Y-105477219D01*
X144629695Y-105429600D01*
X144724933Y-105381980D01*
X144963028Y-105381980D01*
X145105885Y-105429600D01*
X146058266Y-106381980D02*
X145486838Y-106381980D01*
X145772552Y-106381980D02*
X145772552Y-105381980D01*
X145677314Y-105524838D01*
X145582076Y-105620076D01*
X145486838Y-105667695D01*
X146915409Y-105381980D02*
X146724933Y-105381980D01*
X146629695Y-105429600D01*
X146582076Y-105477219D01*
X146486838Y-105620076D01*
X146439219Y-105810552D01*
X146439219Y-106191504D01*
X146486838Y-106286742D01*
X146534457Y-106334361D01*
X146629695Y-106381980D01*
X146820171Y-106381980D01*
X146915409Y-106334361D01*
X146963028Y-106286742D01*
X147010647Y-106191504D01*
X147010647Y-105953409D01*
X146963028Y-105858171D01*
X146915409Y-105810552D01*
X146820171Y-105762933D01*
X146629695Y-105762933D01*
X146534457Y-105810552D01*
X146486838Y-105858171D01*
X146439219Y-105953409D01*
X147439219Y-106381980D02*
X147439219Y-105381980D01*
X147439219Y-105858171D02*
X148010647Y-105858171D01*
X148010647Y-106381980D02*
X148010647Y-105381980D01*
X148486838Y-105858171D02*
X148820171Y-105858171D01*
X148963028Y-106381980D02*
X148486838Y-106381980D01*
X148486838Y-105381980D01*
X148963028Y-105381980D01*
X149296361Y-105381980D02*
X149915409Y-105381980D01*
X149582076Y-105762933D01*
X149724933Y-105762933D01*
X149820171Y-105810552D01*
X149867790Y-105858171D01*
X149915409Y-105953409D01*
X149915409Y-106191504D01*
X149867790Y-106286742D01*
X149820171Y-106334361D01*
X149724933Y-106381980D01*
X149439219Y-106381980D01*
X149343980Y-106334361D01*
X149296361Y-106286742D01*
X150105885Y-106477219D02*
X150867790Y-106477219D01*
X151439219Y-105858171D02*
X151582076Y-105905790D01*
X151629695Y-105953409D01*
X151677314Y-106048647D01*
X151677314Y-106191504D01*
X151629695Y-106286742D01*
X151582076Y-106334361D01*
X151486838Y-106381980D01*
X151105885Y-106381980D01*
X151105885Y-105381980D01*
X151439219Y-105381980D01*
X151534457Y-105429600D01*
X151582076Y-105477219D01*
X151629695Y-105572457D01*
X151629695Y-105667695D01*
X151582076Y-105762933D01*
X151534457Y-105810552D01*
X151439219Y-105858171D01*
X151105885Y-105858171D01*
X152820171Y-105334361D02*
X151963028Y-106620076D01*
X153153504Y-106381980D02*
X153153504Y-105381980D01*
X143214914Y-102842180D02*
X143214914Y-101842180D01*
X143453009Y-101842180D01*
X143595866Y-101889800D01*
X143691104Y-101985038D01*
X143738723Y-102080276D01*
X143786342Y-102270752D01*
X143786342Y-102413609D01*
X143738723Y-102604085D01*
X143691104Y-102699323D01*
X143595866Y-102794561D01*
X143453009Y-102842180D01*
X143214914Y-102842180D01*
X144167295Y-101937419D02*
X144214914Y-101889800D01*
X144310152Y-101842180D01*
X144548247Y-101842180D01*
X144643485Y-101889800D01*
X144691104Y-101937419D01*
X144738723Y-102032657D01*
X144738723Y-102127895D01*
X144691104Y-102270752D01*
X144119676Y-102842180D01*
X144738723Y-102842180D01*
X145691104Y-102842180D02*
X145119676Y-102842180D01*
X145405390Y-102842180D02*
X145405390Y-101842180D01*
X145310152Y-101985038D01*
X145214914Y-102080276D01*
X145119676Y-102127895D01*
%TO.C,U2*%
X116592761Y-113458857D02*
X116640380Y-113316000D01*
X116640380Y-113077904D01*
X116592761Y-112982666D01*
X116545142Y-112935047D01*
X116449904Y-112887428D01*
X116354666Y-112887428D01*
X116259428Y-112935047D01*
X116211809Y-112982666D01*
X116164190Y-113077904D01*
X116116571Y-113268380D01*
X116068952Y-113363619D01*
X116021333Y-113411238D01*
X115926095Y-113458857D01*
X115830857Y-113458857D01*
X115735619Y-113411238D01*
X115688000Y-113363619D01*
X115640380Y-113268380D01*
X115640380Y-113030285D01*
X115688000Y-112887428D01*
X116640380Y-112458857D02*
X115640380Y-112458857D01*
X116640380Y-111887428D01*
X115640380Y-111887428D01*
X115640380Y-110982666D02*
X115640380Y-111173142D01*
X115688000Y-111268380D01*
X115735619Y-111316000D01*
X115878476Y-111411238D01*
X116068952Y-111458857D01*
X116449904Y-111458857D01*
X116545142Y-111411238D01*
X116592761Y-111363619D01*
X116640380Y-111268380D01*
X116640380Y-111077904D01*
X116592761Y-110982666D01*
X116545142Y-110935047D01*
X116449904Y-110887428D01*
X116211809Y-110887428D01*
X116116571Y-110935047D01*
X116068952Y-110982666D01*
X116021333Y-111077904D01*
X116021333Y-111268380D01*
X116068952Y-111363619D01*
X116116571Y-111411238D01*
X116211809Y-111458857D01*
X115640380Y-109982666D02*
X115640380Y-110458857D01*
X116116571Y-110506476D01*
X116068952Y-110458857D01*
X116021333Y-110363619D01*
X116021333Y-110125523D01*
X116068952Y-110030285D01*
X116116571Y-109982666D01*
X116211809Y-109935047D01*
X116449904Y-109935047D01*
X116545142Y-109982666D01*
X116592761Y-110030285D01*
X116640380Y-110125523D01*
X116640380Y-110363619D01*
X116592761Y-110458857D01*
X116545142Y-110506476D01*
X116640380Y-109506476D02*
X115640380Y-109506476D01*
X116116571Y-109506476D02*
X116116571Y-108935047D01*
X116640380Y-108935047D02*
X115640380Y-108935047D01*
X115640380Y-108601714D02*
X116640380Y-108268380D01*
X115640380Y-107935047D01*
X116640380Y-107601714D02*
X115640380Y-107601714D01*
X115640380Y-107363619D01*
X115688000Y-107220761D01*
X115783238Y-107125523D01*
X115878476Y-107077904D01*
X116068952Y-107030285D01*
X116211809Y-107030285D01*
X116402285Y-107077904D01*
X116497523Y-107125523D01*
X116592761Y-107220761D01*
X116640380Y-107363619D01*
X116640380Y-107601714D01*
X115735619Y-106649333D02*
X115688000Y-106601714D01*
X115640380Y-106506476D01*
X115640380Y-106268380D01*
X115688000Y-106173142D01*
X115735619Y-106125523D01*
X115830857Y-106077904D01*
X115926095Y-106077904D01*
X116068952Y-106125523D01*
X116640380Y-106696952D01*
X116640380Y-106077904D01*
X115640380Y-105744571D02*
X115640380Y-105125523D01*
X116021333Y-105458857D01*
X116021333Y-105316000D01*
X116068952Y-105220761D01*
X116116571Y-105173142D01*
X116211809Y-105125523D01*
X116449904Y-105125523D01*
X116545142Y-105173142D01*
X116592761Y-105220761D01*
X116640380Y-105316000D01*
X116640380Y-105601714D01*
X116592761Y-105696952D01*
X116545142Y-105744571D01*
X115640380Y-104506476D02*
X115640380Y-104411238D01*
X115688000Y-104316000D01*
X115735619Y-104268380D01*
X115830857Y-104220761D01*
X116021333Y-104173142D01*
X116259428Y-104173142D01*
X116449904Y-104220761D01*
X116545142Y-104268380D01*
X116592761Y-104316000D01*
X116640380Y-104411238D01*
X116640380Y-104506476D01*
X116592761Y-104601714D01*
X116545142Y-104649333D01*
X116449904Y-104696952D01*
X116259428Y-104744571D01*
X116021333Y-104744571D01*
X115830857Y-104696952D01*
X115735619Y-104649333D01*
X115688000Y-104601714D01*
X115640380Y-104506476D01*
X119051333Y-109562666D02*
X119844666Y-109562666D01*
X119938000Y-109516000D01*
X119984666Y-109469333D01*
X120031333Y-109376000D01*
X120031333Y-109189333D01*
X119984666Y-109096000D01*
X119938000Y-109049333D01*
X119844666Y-109002666D01*
X119051333Y-109002666D01*
X119144666Y-108582666D02*
X119098000Y-108536000D01*
X119051333Y-108442666D01*
X119051333Y-108209333D01*
X119098000Y-108116000D01*
X119144666Y-108069333D01*
X119238000Y-108022666D01*
X119331333Y-108022666D01*
X119471333Y-108069333D01*
X120031333Y-108629333D01*
X120031333Y-108022666D01*
%TD*%
M02*
