%TF.GenerationSoftware,KiCad,Pcbnew,(5.1.10)-1*%
%TF.CreationDate,2021-10-31T13:05:10-04:00*%
%TF.ProjectId,CAN_Gauge,43414e5f-4761-4756-9765-2e6b69636164,rev?*%
%TF.SameCoordinates,Original*%
%TF.FileFunction,Paste,Bot*%
%TF.FilePolarity,Positive*%
%FSLAX46Y46*%
G04 Gerber Fmt 4.6, Leading zero omitted, Abs format (unit mm)*
G04 Created by KiCad (PCBNEW (5.1.10)-1) date 2021-10-31 13:05:10*
%MOMM*%
%LPD*%
G01*
G04 APERTURE LIST*
%ADD10C,0.100000*%
G04 APERTURE END LIST*
D10*
%TO.C,SW1*%
G36*
X144059829Y-113835713D02*
G01*
X144979068Y-114754952D01*
X143883053Y-115850967D01*
X142963814Y-114931728D01*
X144059829Y-113835713D01*
G37*
G36*
X140877848Y-110653732D02*
G01*
X141797087Y-111572971D01*
X140701072Y-112668986D01*
X139781833Y-111749747D01*
X140877848Y-110653732D01*
G37*
G36*
X146499347Y-105032233D02*
G01*
X147418586Y-105951472D01*
X146322571Y-107047487D01*
X145403332Y-106128248D01*
X146499347Y-105032233D01*
G37*
G36*
X149681328Y-108214214D02*
G01*
X150600567Y-109133453D01*
X149504552Y-110229468D01*
X148585313Y-109310229D01*
X149681328Y-108214214D01*
G37*
%TD*%
%TO.C,R5*%
G36*
G01*
X123265500Y-113592500D02*
X122895500Y-113592500D01*
G75*
G02*
X122760500Y-113457500I0J135000D01*
G01*
X122760500Y-113187500D01*
G75*
G02*
X122895500Y-113052500I135000J0D01*
G01*
X123265500Y-113052500D01*
G75*
G02*
X123400500Y-113187500I0J-135000D01*
G01*
X123400500Y-113457500D01*
G75*
G02*
X123265500Y-113592500I-135000J0D01*
G01*
G37*
G36*
G01*
X123265500Y-114612500D02*
X122895500Y-114612500D01*
G75*
G02*
X122760500Y-114477500I0J135000D01*
G01*
X122760500Y-114207500D01*
G75*
G02*
X122895500Y-114072500I135000J0D01*
G01*
X123265500Y-114072500D01*
G75*
G02*
X123400500Y-114207500I0J-135000D01*
G01*
X123400500Y-114477500D01*
G75*
G02*
X123265500Y-114612500I-135000J0D01*
G01*
G37*
%TD*%
%TO.C,C6*%
G36*
G01*
X124244000Y-115084000D02*
X124584000Y-115084000D01*
G75*
G02*
X124724000Y-115224000I0J-140000D01*
G01*
X124724000Y-115504000D01*
G75*
G02*
X124584000Y-115644000I-140000J0D01*
G01*
X124244000Y-115644000D01*
G75*
G02*
X124104000Y-115504000I0J140000D01*
G01*
X124104000Y-115224000D01*
G75*
G02*
X124244000Y-115084000I140000J0D01*
G01*
G37*
G36*
G01*
X124244000Y-114124000D02*
X124584000Y-114124000D01*
G75*
G02*
X124724000Y-114264000I0J-140000D01*
G01*
X124724000Y-114544000D01*
G75*
G02*
X124584000Y-114684000I-140000J0D01*
G01*
X124244000Y-114684000D01*
G75*
G02*
X124104000Y-114544000I0J140000D01*
G01*
X124104000Y-114264000D01*
G75*
G02*
X124244000Y-114124000I140000J0D01*
G01*
G37*
%TD*%
%TO.C,R30*%
G36*
G01*
X114566000Y-103115000D02*
X114196000Y-103115000D01*
G75*
G02*
X114061000Y-102980000I0J135000D01*
G01*
X114061000Y-102710000D01*
G75*
G02*
X114196000Y-102575000I135000J0D01*
G01*
X114566000Y-102575000D01*
G75*
G02*
X114701000Y-102710000I0J-135000D01*
G01*
X114701000Y-102980000D01*
G75*
G02*
X114566000Y-103115000I-135000J0D01*
G01*
G37*
G36*
G01*
X114566000Y-104135000D02*
X114196000Y-104135000D01*
G75*
G02*
X114061000Y-104000000I0J135000D01*
G01*
X114061000Y-103730000D01*
G75*
G02*
X114196000Y-103595000I135000J0D01*
G01*
X114566000Y-103595000D01*
G75*
G02*
X114701000Y-103730000I0J-135000D01*
G01*
X114701000Y-104000000D01*
G75*
G02*
X114566000Y-104135000I-135000J0D01*
G01*
G37*
%TD*%
%TO.C,D11*%
G36*
G01*
X112835479Y-104216158D02*
X112322979Y-104216158D01*
G75*
G02*
X112104229Y-103997408I0J218750D01*
G01*
X112104229Y-103559908D01*
G75*
G02*
X112322979Y-103341158I218750J0D01*
G01*
X112835479Y-103341158D01*
G75*
G02*
X113054229Y-103559908I0J-218750D01*
G01*
X113054229Y-103997408D01*
G75*
G02*
X112835479Y-104216158I-218750J0D01*
G01*
G37*
G36*
G01*
X112835479Y-105791158D02*
X112322979Y-105791158D01*
G75*
G02*
X112104229Y-105572408I0J218750D01*
G01*
X112104229Y-105134908D01*
G75*
G02*
X112322979Y-104916158I218750J0D01*
G01*
X112835479Y-104916158D01*
G75*
G02*
X113054229Y-105134908I0J-218750D01*
G01*
X113054229Y-105572408D01*
G75*
G02*
X112835479Y-105791158I-218750J0D01*
G01*
G37*
%TD*%
%TO.C,R29*%
G36*
G01*
X112534000Y-93336000D02*
X112164000Y-93336000D01*
G75*
G02*
X112029000Y-93201000I0J135000D01*
G01*
X112029000Y-92931000D01*
G75*
G02*
X112164000Y-92796000I135000J0D01*
G01*
X112534000Y-92796000D01*
G75*
G02*
X112669000Y-92931000I0J-135000D01*
G01*
X112669000Y-93201000D01*
G75*
G02*
X112534000Y-93336000I-135000J0D01*
G01*
G37*
G36*
G01*
X112534000Y-94356000D02*
X112164000Y-94356000D01*
G75*
G02*
X112029000Y-94221000I0J135000D01*
G01*
X112029000Y-93951000D01*
G75*
G02*
X112164000Y-93816000I135000J0D01*
G01*
X112534000Y-93816000D01*
G75*
G02*
X112669000Y-93951000I0J-135000D01*
G01*
X112669000Y-94221000D01*
G75*
G02*
X112534000Y-94356000I-135000J0D01*
G01*
G37*
%TD*%
%TO.C,R21*%
G36*
G01*
X114845400Y-82109200D02*
X114475400Y-82109200D01*
G75*
G02*
X114340400Y-81974200I0J135000D01*
G01*
X114340400Y-81704200D01*
G75*
G02*
X114475400Y-81569200I135000J0D01*
G01*
X114845400Y-81569200D01*
G75*
G02*
X114980400Y-81704200I0J-135000D01*
G01*
X114980400Y-81974200D01*
G75*
G02*
X114845400Y-82109200I-135000J0D01*
G01*
G37*
G36*
G01*
X114845400Y-83129200D02*
X114475400Y-83129200D01*
G75*
G02*
X114340400Y-82994200I0J135000D01*
G01*
X114340400Y-82724200D01*
G75*
G02*
X114475400Y-82589200I135000J0D01*
G01*
X114845400Y-82589200D01*
G75*
G02*
X114980400Y-82724200I0J-135000D01*
G01*
X114980400Y-82994200D01*
G75*
G02*
X114845400Y-83129200I-135000J0D01*
G01*
G37*
%TD*%
%TO.C,D9*%
G36*
G01*
X110047750Y-94942000D02*
X110560250Y-94942000D01*
G75*
G02*
X110779000Y-95160750I0J-218750D01*
G01*
X110779000Y-95598250D01*
G75*
G02*
X110560250Y-95817000I-218750J0D01*
G01*
X110047750Y-95817000D01*
G75*
G02*
X109829000Y-95598250I0J218750D01*
G01*
X109829000Y-95160750D01*
G75*
G02*
X110047750Y-94942000I218750J0D01*
G01*
G37*
G36*
G01*
X110047750Y-93367000D02*
X110560250Y-93367000D01*
G75*
G02*
X110779000Y-93585750I0J-218750D01*
G01*
X110779000Y-94023250D01*
G75*
G02*
X110560250Y-94242000I-218750J0D01*
G01*
X110047750Y-94242000D01*
G75*
G02*
X109829000Y-94023250I0J218750D01*
G01*
X109829000Y-93585750D01*
G75*
G02*
X110047750Y-93367000I218750J0D01*
G01*
G37*
%TD*%
%TO.C,D8*%
G36*
G01*
X112835479Y-84267842D02*
X112322979Y-84267842D01*
G75*
G02*
X112104229Y-84049092I0J218750D01*
G01*
X112104229Y-83611592D01*
G75*
G02*
X112322979Y-83392842I218750J0D01*
G01*
X112835479Y-83392842D01*
G75*
G02*
X113054229Y-83611592I0J-218750D01*
G01*
X113054229Y-84049092D01*
G75*
G02*
X112835479Y-84267842I-218750J0D01*
G01*
G37*
G36*
G01*
X112835479Y-85842842D02*
X112322979Y-85842842D01*
G75*
G02*
X112104229Y-85624092I0J218750D01*
G01*
X112104229Y-85186592D01*
G75*
G02*
X112322979Y-84967842I218750J0D01*
G01*
X112835479Y-84967842D01*
G75*
G02*
X113054229Y-85186592I0J-218750D01*
G01*
X113054229Y-85624092D01*
G75*
G02*
X112835479Y-85842842I-218750J0D01*
G01*
G37*
%TD*%
%TO.C,D3*%
G36*
G01*
X154285021Y-84267842D02*
X153772521Y-84267842D01*
G75*
G02*
X153553771Y-84049092I0J218750D01*
G01*
X153553771Y-83611592D01*
G75*
G02*
X153772521Y-83392842I218750J0D01*
G01*
X154285021Y-83392842D01*
G75*
G02*
X154503771Y-83611592I0J-218750D01*
G01*
X154503771Y-84049092D01*
G75*
G02*
X154285021Y-84267842I-218750J0D01*
G01*
G37*
G36*
G01*
X154285021Y-85842842D02*
X153772521Y-85842842D01*
G75*
G02*
X153553771Y-85624092I0J218750D01*
G01*
X153553771Y-85186592D01*
G75*
G02*
X153772521Y-84967842I218750J0D01*
G01*
X154285021Y-84967842D01*
G75*
G02*
X154503771Y-85186592I0J-218750D01*
G01*
X154503771Y-85624092D01*
G75*
G02*
X154285021Y-85842842I-218750J0D01*
G01*
G37*
%TD*%
%TO.C,D1*%
G36*
G01*
X153943750Y-104275000D02*
X153431250Y-104275000D01*
G75*
G02*
X153212500Y-104056250I0J218750D01*
G01*
X153212500Y-103618750D01*
G75*
G02*
X153431250Y-103400000I218750J0D01*
G01*
X153943750Y-103400000D01*
G75*
G02*
X154162500Y-103618750I0J-218750D01*
G01*
X154162500Y-104056250D01*
G75*
G02*
X153943750Y-104275000I-218750J0D01*
G01*
G37*
G36*
G01*
X153943750Y-105850000D02*
X153431250Y-105850000D01*
G75*
G02*
X153212500Y-105631250I0J218750D01*
G01*
X153212500Y-105193750D01*
G75*
G02*
X153431250Y-104975000I218750J0D01*
G01*
X153943750Y-104975000D01*
G75*
G02*
X154162500Y-105193750I0J-218750D01*
G01*
X154162500Y-105631250D01*
G75*
G02*
X153943750Y-105850000I-218750J0D01*
G01*
G37*
%TD*%
%TO.C,D10*%
G36*
G01*
X119238000Y-108305750D02*
X119238000Y-108818250D01*
G75*
G02*
X119019250Y-109037000I-218750J0D01*
G01*
X118581750Y-109037000D01*
G75*
G02*
X118363000Y-108818250I0J218750D01*
G01*
X118363000Y-108305750D01*
G75*
G02*
X118581750Y-108087000I218750J0D01*
G01*
X119019250Y-108087000D01*
G75*
G02*
X119238000Y-108305750I0J-218750D01*
G01*
G37*
G36*
G01*
X120813000Y-108305750D02*
X120813000Y-108818250D01*
G75*
G02*
X120594250Y-109037000I-218750J0D01*
G01*
X120156750Y-109037000D01*
G75*
G02*
X119938000Y-108818250I0J218750D01*
G01*
X119938000Y-108305750D01*
G75*
G02*
X120156750Y-108087000I218750J0D01*
G01*
X120594250Y-108087000D01*
G75*
G02*
X120813000Y-108305750I0J-218750D01*
G01*
G37*
%TD*%
%TO.C,R19*%
G36*
G01*
X119701000Y-78394000D02*
X119701000Y-78024000D01*
G75*
G02*
X119836000Y-77889000I135000J0D01*
G01*
X120106000Y-77889000D01*
G75*
G02*
X120241000Y-78024000I0J-135000D01*
G01*
X120241000Y-78394000D01*
G75*
G02*
X120106000Y-78529000I-135000J0D01*
G01*
X119836000Y-78529000D01*
G75*
G02*
X119701000Y-78394000I0J135000D01*
G01*
G37*
G36*
G01*
X118681000Y-78394000D02*
X118681000Y-78024000D01*
G75*
G02*
X118816000Y-77889000I135000J0D01*
G01*
X119086000Y-77889000D01*
G75*
G02*
X119221000Y-78024000I0J-135000D01*
G01*
X119221000Y-78394000D01*
G75*
G02*
X119086000Y-78529000I-135000J0D01*
G01*
X118816000Y-78529000D01*
G75*
G02*
X118681000Y-78394000I0J135000D01*
G01*
G37*
%TD*%
%TO.C,D7*%
G36*
G01*
X120190500Y-76360780D02*
X120190500Y-76873280D01*
G75*
G02*
X119971750Y-77092030I-218750J0D01*
G01*
X119534250Y-77092030D01*
G75*
G02*
X119315500Y-76873280I0J218750D01*
G01*
X119315500Y-76360780D01*
G75*
G02*
X119534250Y-76142030I218750J0D01*
G01*
X119971750Y-76142030D01*
G75*
G02*
X120190500Y-76360780I0J-218750D01*
G01*
G37*
G36*
G01*
X121765500Y-76360780D02*
X121765500Y-76873280D01*
G75*
G02*
X121546750Y-77092030I-218750J0D01*
G01*
X121109250Y-77092030D01*
G75*
G02*
X120890500Y-76873280I0J218750D01*
G01*
X120890500Y-76360780D01*
G75*
G02*
X121109250Y-76142030I218750J0D01*
G01*
X121546750Y-76142030D01*
G75*
G02*
X121765500Y-76360780I0J-218750D01*
G01*
G37*
%TD*%
%TO.C,R18*%
G36*
G01*
X129133000Y-73579000D02*
X129133000Y-73949000D01*
G75*
G02*
X128998000Y-74084000I-135000J0D01*
G01*
X128728000Y-74084000D01*
G75*
G02*
X128593000Y-73949000I0J135000D01*
G01*
X128593000Y-73579000D01*
G75*
G02*
X128728000Y-73444000I135000J0D01*
G01*
X128998000Y-73444000D01*
G75*
G02*
X129133000Y-73579000I0J-135000D01*
G01*
G37*
G36*
G01*
X128113000Y-73579000D02*
X128113000Y-73949000D01*
G75*
G02*
X127978000Y-74084000I-135000J0D01*
G01*
X127708000Y-74084000D01*
G75*
G02*
X127573000Y-73949000I0J135000D01*
G01*
X127573000Y-73579000D01*
G75*
G02*
X127708000Y-73444000I135000J0D01*
G01*
X127978000Y-73444000D01*
G75*
G02*
X128113000Y-73579000I0J-135000D01*
G01*
G37*
%TD*%
%TO.C,R17*%
G36*
G01*
X146270000Y-78024000D02*
X146270000Y-78394000D01*
G75*
G02*
X146135000Y-78529000I-135000J0D01*
G01*
X145865000Y-78529000D01*
G75*
G02*
X145730000Y-78394000I0J135000D01*
G01*
X145730000Y-78024000D01*
G75*
G02*
X145865000Y-77889000I135000J0D01*
G01*
X146135000Y-77889000D01*
G75*
G02*
X146270000Y-78024000I0J-135000D01*
G01*
G37*
G36*
G01*
X147290000Y-78024000D02*
X147290000Y-78394000D01*
G75*
G02*
X147155000Y-78529000I-135000J0D01*
G01*
X146885000Y-78529000D01*
G75*
G02*
X146750000Y-78394000I0J135000D01*
G01*
X146750000Y-78024000D01*
G75*
G02*
X146885000Y-77889000I135000J0D01*
G01*
X147155000Y-77889000D01*
G75*
G02*
X147290000Y-78024000I0J-135000D01*
G01*
G37*
%TD*%
%TO.C,R16*%
G36*
G01*
X138144000Y-73706000D02*
X138144000Y-74076000D01*
G75*
G02*
X138009000Y-74211000I-135000J0D01*
G01*
X137739000Y-74211000D01*
G75*
G02*
X137604000Y-74076000I0J135000D01*
G01*
X137604000Y-73706000D01*
G75*
G02*
X137739000Y-73571000I135000J0D01*
G01*
X138009000Y-73571000D01*
G75*
G02*
X138144000Y-73706000I0J-135000D01*
G01*
G37*
G36*
G01*
X139164000Y-73706000D02*
X139164000Y-74076000D01*
G75*
G02*
X139029000Y-74211000I-135000J0D01*
G01*
X138759000Y-74211000D01*
G75*
G02*
X138624000Y-74076000I0J135000D01*
G01*
X138624000Y-73706000D01*
G75*
G02*
X138759000Y-73571000I135000J0D01*
G01*
X139029000Y-73571000D01*
G75*
G02*
X139164000Y-73706000I0J-135000D01*
G01*
G37*
%TD*%
%TO.C,D6*%
G36*
G01*
X126944248Y-72428743D02*
X126944248Y-71916243D01*
G75*
G02*
X127162998Y-71697493I218750J0D01*
G01*
X127600498Y-71697493D01*
G75*
G02*
X127819248Y-71916243I0J-218750D01*
G01*
X127819248Y-72428743D01*
G75*
G02*
X127600498Y-72647493I-218750J0D01*
G01*
X127162998Y-72647493D01*
G75*
G02*
X126944248Y-72428743I0J218750D01*
G01*
G37*
G36*
G01*
X128519248Y-72428743D02*
X128519248Y-71916243D01*
G75*
G02*
X128737998Y-71697493I218750J0D01*
G01*
X129175498Y-71697493D01*
G75*
G02*
X129394248Y-71916243I0J-218750D01*
G01*
X129394248Y-72428743D01*
G75*
G02*
X129175498Y-72647493I-218750J0D01*
G01*
X128737998Y-72647493D01*
G75*
G02*
X128519248Y-72428743I0J218750D01*
G01*
G37*
%TD*%
%TO.C,D4*%
G36*
G01*
X146417500Y-76877750D02*
X146417500Y-76365250D01*
G75*
G02*
X146636250Y-76146500I218750J0D01*
G01*
X147073750Y-76146500D01*
G75*
G02*
X147292500Y-76365250I0J-218750D01*
G01*
X147292500Y-76877750D01*
G75*
G02*
X147073750Y-77096500I-218750J0D01*
G01*
X146636250Y-77096500D01*
G75*
G02*
X146417500Y-76877750I0J218750D01*
G01*
G37*
G36*
G01*
X144842500Y-76877750D02*
X144842500Y-76365250D01*
G75*
G02*
X145061250Y-76146500I218750J0D01*
G01*
X145498750Y-76146500D01*
G75*
G02*
X145717500Y-76365250I0J-218750D01*
G01*
X145717500Y-76877750D01*
G75*
G02*
X145498750Y-77096500I-218750J0D01*
G01*
X145061250Y-77096500D01*
G75*
G02*
X144842500Y-76877750I0J218750D01*
G01*
G37*
%TD*%
%TO.C,D5*%
G36*
G01*
X138162500Y-72559750D02*
X138162500Y-72047250D01*
G75*
G02*
X138381250Y-71828500I218750J0D01*
G01*
X138818750Y-71828500D01*
G75*
G02*
X139037500Y-72047250I0J-218750D01*
G01*
X139037500Y-72559750D01*
G75*
G02*
X138818750Y-72778500I-218750J0D01*
G01*
X138381250Y-72778500D01*
G75*
G02*
X138162500Y-72559750I0J218750D01*
G01*
G37*
G36*
G01*
X136587500Y-72559750D02*
X136587500Y-72047250D01*
G75*
G02*
X136806250Y-71828500I218750J0D01*
G01*
X137243750Y-71828500D01*
G75*
G02*
X137462500Y-72047250I0J-218750D01*
G01*
X137462500Y-72559750D01*
G75*
G02*
X137243750Y-72778500I-218750J0D01*
G01*
X136806250Y-72778500D01*
G75*
G02*
X136587500Y-72559750I0J218750D01*
G01*
G37*
%TD*%
%TO.C,R4*%
G36*
G01*
X124165500Y-112931500D02*
X124535500Y-112931500D01*
G75*
G02*
X124670500Y-113066500I0J-135000D01*
G01*
X124670500Y-113336500D01*
G75*
G02*
X124535500Y-113471500I-135000J0D01*
G01*
X124165500Y-113471500D01*
G75*
G02*
X124030500Y-113336500I0J135000D01*
G01*
X124030500Y-113066500D01*
G75*
G02*
X124165500Y-112931500I135000J0D01*
G01*
G37*
G36*
G01*
X124165500Y-111911500D02*
X124535500Y-111911500D01*
G75*
G02*
X124670500Y-112046500I0J-135000D01*
G01*
X124670500Y-112316500D01*
G75*
G02*
X124535500Y-112451500I-135000J0D01*
G01*
X124165500Y-112451500D01*
G75*
G02*
X124030500Y-112316500I0J135000D01*
G01*
X124030500Y-112046500D01*
G75*
G02*
X124165500Y-111911500I135000J0D01*
G01*
G37*
%TD*%
%TO.C,R9*%
G36*
G01*
X119475000Y-109901000D02*
X119475000Y-110271000D01*
G75*
G02*
X119340000Y-110406000I-135000J0D01*
G01*
X119070000Y-110406000D01*
G75*
G02*
X118935000Y-110271000I0J135000D01*
G01*
X118935000Y-109901000D01*
G75*
G02*
X119070000Y-109766000I135000J0D01*
G01*
X119340000Y-109766000D01*
G75*
G02*
X119475000Y-109901000I0J-135000D01*
G01*
G37*
G36*
G01*
X120495000Y-109901000D02*
X120495000Y-110271000D01*
G75*
G02*
X120360000Y-110406000I-135000J0D01*
G01*
X120090000Y-110406000D01*
G75*
G02*
X119955000Y-110271000I0J135000D01*
G01*
X119955000Y-109901000D01*
G75*
G02*
X120090000Y-109766000I135000J0D01*
G01*
X120360000Y-109766000D01*
G75*
G02*
X120495000Y-109901000I0J-135000D01*
G01*
G37*
%TD*%
%TO.C,R8*%
G36*
G01*
X154698000Y-92447000D02*
X154328000Y-92447000D01*
G75*
G02*
X154193000Y-92312000I0J135000D01*
G01*
X154193000Y-92042000D01*
G75*
G02*
X154328000Y-91907000I135000J0D01*
G01*
X154698000Y-91907000D01*
G75*
G02*
X154833000Y-92042000I0J-135000D01*
G01*
X154833000Y-92312000D01*
G75*
G02*
X154698000Y-92447000I-135000J0D01*
G01*
G37*
G36*
G01*
X154698000Y-93467000D02*
X154328000Y-93467000D01*
G75*
G02*
X154193000Y-93332000I0J135000D01*
G01*
X154193000Y-93062000D01*
G75*
G02*
X154328000Y-92927000I135000J0D01*
G01*
X154698000Y-92927000D01*
G75*
G02*
X154833000Y-93062000I0J-135000D01*
G01*
X154833000Y-93332000D01*
G75*
G02*
X154698000Y-93467000I-135000J0D01*
G01*
G37*
%TD*%
%TO.C,R7*%
G36*
G01*
X152602500Y-82160000D02*
X152232500Y-82160000D01*
G75*
G02*
X152097500Y-82025000I0J135000D01*
G01*
X152097500Y-81755000D01*
G75*
G02*
X152232500Y-81620000I135000J0D01*
G01*
X152602500Y-81620000D01*
G75*
G02*
X152737500Y-81755000I0J-135000D01*
G01*
X152737500Y-82025000D01*
G75*
G02*
X152602500Y-82160000I-135000J0D01*
G01*
G37*
G36*
G01*
X152602500Y-83180000D02*
X152232500Y-83180000D01*
G75*
G02*
X152097500Y-83045000I0J135000D01*
G01*
X152097500Y-82775000D01*
G75*
G02*
X152232500Y-82640000I135000J0D01*
G01*
X152602500Y-82640000D01*
G75*
G02*
X152737500Y-82775000I0J-135000D01*
G01*
X152737500Y-83045000D01*
G75*
G02*
X152602500Y-83180000I-135000J0D01*
G01*
G37*
%TD*%
%TO.C,R3*%
G36*
G01*
X125952000Y-106192600D02*
X125952000Y-106562600D01*
G75*
G02*
X125817000Y-106697600I-135000J0D01*
G01*
X125547000Y-106697600D01*
G75*
G02*
X125412000Y-106562600I0J135000D01*
G01*
X125412000Y-106192600D01*
G75*
G02*
X125547000Y-106057600I135000J0D01*
G01*
X125817000Y-106057600D01*
G75*
G02*
X125952000Y-106192600I0J-135000D01*
G01*
G37*
G36*
G01*
X126972000Y-106192600D02*
X126972000Y-106562600D01*
G75*
G02*
X126837000Y-106697600I-135000J0D01*
G01*
X126567000Y-106697600D01*
G75*
G02*
X126432000Y-106562600I0J135000D01*
G01*
X126432000Y-106192600D01*
G75*
G02*
X126567000Y-106057600I135000J0D01*
G01*
X126837000Y-106057600D01*
G75*
G02*
X126972000Y-106192600I0J-135000D01*
G01*
G37*
%TD*%
%TO.C,R2*%
G36*
G01*
X155587000Y-101591000D02*
X155217000Y-101591000D01*
G75*
G02*
X155082000Y-101456000I0J135000D01*
G01*
X155082000Y-101186000D01*
G75*
G02*
X155217000Y-101051000I135000J0D01*
G01*
X155587000Y-101051000D01*
G75*
G02*
X155722000Y-101186000I0J-135000D01*
G01*
X155722000Y-101456000D01*
G75*
G02*
X155587000Y-101591000I-135000J0D01*
G01*
G37*
G36*
G01*
X155587000Y-102611000D02*
X155217000Y-102611000D01*
G75*
G02*
X155082000Y-102476000I0J135000D01*
G01*
X155082000Y-102206000D01*
G75*
G02*
X155217000Y-102071000I135000J0D01*
G01*
X155587000Y-102071000D01*
G75*
G02*
X155722000Y-102206000I0J-135000D01*
G01*
X155722000Y-102476000D01*
G75*
G02*
X155587000Y-102611000I-135000J0D01*
G01*
G37*
%TD*%
%TO.C,D2*%
G36*
G01*
X156047750Y-94942000D02*
X156560250Y-94942000D01*
G75*
G02*
X156779000Y-95160750I0J-218750D01*
G01*
X156779000Y-95598250D01*
G75*
G02*
X156560250Y-95817000I-218750J0D01*
G01*
X156047750Y-95817000D01*
G75*
G02*
X155829000Y-95598250I0J218750D01*
G01*
X155829000Y-95160750D01*
G75*
G02*
X156047750Y-94942000I218750J0D01*
G01*
G37*
G36*
G01*
X156047750Y-93367000D02*
X156560250Y-93367000D01*
G75*
G02*
X156779000Y-93585750I0J-218750D01*
G01*
X156779000Y-94023250D01*
G75*
G02*
X156560250Y-94242000I-218750J0D01*
G01*
X156047750Y-94242000D01*
G75*
G02*
X155829000Y-94023250I0J218750D01*
G01*
X155829000Y-93585750D01*
G75*
G02*
X156047750Y-93367000I218750J0D01*
G01*
G37*
%TD*%
M02*
