M48
; DRILL file {KiCad (5.1.10)-1} date 10/31/21 13:05:12
; FORMAT={2:4/ absolute / inch / keep zeros}
; #@! TF.CreationDate,2021-10-31T13:05:12-04:00
; #@! TF.GenerationSoftware,Kicad,Pcbnew,(5.1.10)-1
; #@! TF.FileFunction,Plated,1,2,PTH
FMAT,2
INCH
T1C0.0157
T2C0.0197
T3C0.0394
%
G90
G05
T1
X044932Y-034591
X045282Y-035741
X045282Y-037141
X045682Y-034116
X046033Y-040390
X046132Y-038441
X046532Y-036562
X046532Y-037091
X046601Y-035776
X046632Y-039541
X046732Y-031491
X047382Y-040591
X047832Y-043141
X047832Y-035366
X047957Y-044641
X048244Y-043653
X048396Y-044177
X048482Y-038541
X048957Y-043341
X049432Y-035401
X049569Y-045403
X049882Y-034141
X050292Y-038401
X050307Y-035116
X050652Y-034621
X050732Y-035391
X050982Y-035766
X051112Y-038401
X051182Y-037241
X051257Y-036066
X051632Y-036241
X051732Y-032071
X051792Y-038591
X051957Y-036541
X052257Y-036841
X052492Y-038541
X052682Y-031221
X052882Y-030721
X052957Y-038691
X053562Y-029681
X054212Y-029601
X054382Y-045861
X054642Y-030881
X055112Y-035731
X055262Y-031681
X055332Y-037041
X055662Y-034301
X056012Y-045651
X056482Y-038441
X057002Y-033611
X057442Y-038281
X058592Y-044261
X058832Y-039471
X060302Y-042401
X060602Y-040061
X060626Y-034041
X060872Y-037711
X061022Y-034401
T2
X058242Y-033771
T3
X050639Y-042960
X050639Y-044141
X051820Y-042960
X051820Y-044141
X053001Y-042960
X053001Y-044141
X054182Y-042960
X054182Y-044141
T0
M30
