%TF.GenerationSoftware,KiCad,Pcbnew,(5.1.10)-1*%
%TF.CreationDate,2021-10-31T13:05:10-04:00*%
%TF.ProjectId,CAN_Gauge,43414e5f-4761-4756-9765-2e6b69636164,rev?*%
%TF.SameCoordinates,Original*%
%TF.FileFunction,OtherDrawing,Comment*%
%FSLAX46Y46*%
G04 Gerber Fmt 4.6, Leading zero omitted, Abs format (unit mm)*
G04 Created by KiCad (PCBNEW (5.1.10)-1) date 2021-10-31 13:05:10*
%MOMM*%
%LPD*%
G01*
G04 APERTURE LIST*
%ADD10C,0.150000*%
G04 APERTURE END LIST*
D10*
X134802600Y-64543800D02*
X134599400Y-65940800D01*
X139446857Y-68090380D02*
X138970666Y-68090380D01*
X138970666Y-67090380D01*
X139780190Y-67566571D02*
X140113523Y-67566571D01*
X140256380Y-68090380D02*
X139780190Y-68090380D01*
X139780190Y-67090380D01*
X140256380Y-67090380D01*
X140684952Y-68090380D02*
X140684952Y-67090380D01*
X140923047Y-67090380D01*
X141065904Y-67138000D01*
X141161142Y-67233238D01*
X141208761Y-67328476D01*
X141256380Y-67518952D01*
X141256380Y-67661809D01*
X141208761Y-67852285D01*
X141161142Y-67947523D01*
X141065904Y-68042761D01*
X140923047Y-68090380D01*
X140684952Y-68090380D01*
X142399238Y-67185619D02*
X142446857Y-67138000D01*
X142542095Y-67090380D01*
X142780190Y-67090380D01*
X142875428Y-67138000D01*
X142923047Y-67185619D01*
X142970666Y-67280857D01*
X142970666Y-67376095D01*
X142923047Y-67518952D01*
X142351619Y-68090380D01*
X142970666Y-68090380D01*
X143304000Y-67090380D02*
X143923047Y-67090380D01*
X143589714Y-67471333D01*
X143732571Y-67471333D01*
X143827809Y-67518952D01*
X143875428Y-67566571D01*
X143923047Y-67661809D01*
X143923047Y-67899904D01*
X143875428Y-67995142D01*
X143827809Y-68042761D01*
X143732571Y-68090380D01*
X143446857Y-68090380D01*
X143351619Y-68042761D01*
X143304000Y-67995142D01*
X144351619Y-67995142D02*
X144399238Y-68042761D01*
X144351619Y-68090380D01*
X144304000Y-68042761D01*
X144351619Y-67995142D01*
X144351619Y-68090380D01*
X145018285Y-67090380D02*
X145113523Y-67090380D01*
X145208761Y-67138000D01*
X145256380Y-67185619D01*
X145304000Y-67280857D01*
X145351619Y-67471333D01*
X145351619Y-67709428D01*
X145304000Y-67899904D01*
X145256380Y-67995142D01*
X145208761Y-68042761D01*
X145113523Y-68090380D01*
X145018285Y-68090380D01*
X144923047Y-68042761D01*
X144875428Y-67995142D01*
X144827809Y-67899904D01*
X144780190Y-67709428D01*
X144780190Y-67471333D01*
X144827809Y-67280857D01*
X144875428Y-67185619D01*
X144923047Y-67138000D01*
X145018285Y-67090380D01*
X145970666Y-67090380D02*
X146065904Y-67090380D01*
X146161142Y-67138000D01*
X146208761Y-67185619D01*
X146256380Y-67280857D01*
X146304000Y-67471333D01*
X146304000Y-67709428D01*
X146256380Y-67899904D01*
X146208761Y-67995142D01*
X146161142Y-68042761D01*
X146065904Y-68090380D01*
X145970666Y-68090380D01*
X145875428Y-68042761D01*
X145827809Y-67995142D01*
X145780190Y-67899904D01*
X145732571Y-67709428D01*
X145732571Y-67471333D01*
X145780190Y-67280857D01*
X145827809Y-67185619D01*
X145875428Y-67138000D01*
X145970666Y-67090380D01*
X146923047Y-67090380D02*
X147018285Y-67090380D01*
X147113523Y-67138000D01*
X147161142Y-67185619D01*
X147208761Y-67280857D01*
X147256380Y-67471333D01*
X147256380Y-67709428D01*
X147208761Y-67899904D01*
X147161142Y-67995142D01*
X147113523Y-68042761D01*
X147018285Y-68090380D01*
X146923047Y-68090380D01*
X146827809Y-68042761D01*
X146780190Y-67995142D01*
X146732571Y-67899904D01*
X146684952Y-67709428D01*
X146684952Y-67471333D01*
X146732571Y-67280857D01*
X146780190Y-67185619D01*
X146827809Y-67138000D01*
X146923047Y-67090380D01*
X148446857Y-68090380D02*
X148446857Y-67423714D01*
X148446857Y-67518952D02*
X148494476Y-67471333D01*
X148589714Y-67423714D01*
X148732571Y-67423714D01*
X148827809Y-67471333D01*
X148875428Y-67566571D01*
X148875428Y-68090380D01*
X148875428Y-67566571D02*
X148923047Y-67471333D01*
X149018285Y-67423714D01*
X149161142Y-67423714D01*
X149256380Y-67471333D01*
X149304000Y-67566571D01*
X149304000Y-68090380D01*
X149780190Y-68090380D02*
X149780190Y-67423714D01*
X149780190Y-67518952D02*
X149827809Y-67471333D01*
X149923047Y-67423714D01*
X150065904Y-67423714D01*
X150161142Y-67471333D01*
X150208761Y-67566571D01*
X150208761Y-68090380D01*
X150208761Y-67566571D02*
X150256380Y-67471333D01*
X150351619Y-67423714D01*
X150494476Y-67423714D01*
X150589714Y-67471333D01*
X150637333Y-67566571D01*
X150637333Y-68090380D01*
X133304000Y-68938000D02*
X156304000Y-68938000D01*
X133304000Y-94592000D02*
X133304000Y-68351579D01*
X156304000Y-94592000D02*
X156304000Y-68351579D01*
X156304000Y-68938000D02*
X155177496Y-69524421D01*
X156304000Y-68938000D02*
X155177496Y-68351579D01*
X133304000Y-68938000D02*
X134430504Y-69524421D01*
X133304000Y-68938000D02*
X134430504Y-68351579D01*
X144208309Y-63605746D02*
X144380238Y-62620637D01*
X144298367Y-63089737D02*
X144861287Y-63187982D01*
X144771229Y-63703991D02*
X144943158Y-62718882D01*
X145381058Y-63810424D02*
X145295426Y-63747140D01*
X145256703Y-63692043D01*
X145226167Y-63590036D01*
X145275290Y-63308576D01*
X145338574Y-63222943D01*
X145393671Y-63184220D01*
X145495678Y-63153684D01*
X145636408Y-63178246D01*
X145722041Y-63241530D01*
X145760763Y-63296627D01*
X145791299Y-63398634D01*
X145742177Y-63680094D01*
X145678892Y-63765726D01*
X145623795Y-63804449D01*
X145521788Y-63834985D01*
X145381058Y-63810424D01*
X146272348Y-63965979D02*
X146186715Y-63902695D01*
X146156179Y-63800687D01*
X146303547Y-62956308D01*
X147031094Y-64050062D02*
X146929087Y-64080598D01*
X146741447Y-64047850D01*
X146655815Y-63984566D01*
X146625279Y-63882558D01*
X146690776Y-63507279D01*
X146754060Y-63421646D01*
X146856067Y-63391110D01*
X147043707Y-63423859D01*
X147129340Y-63487143D01*
X147159875Y-63589150D01*
X147143501Y-63682970D01*
X146658027Y-63694919D01*
X148351211Y-63410360D02*
X148406308Y-63371638D01*
X148508315Y-63341102D01*
X148742865Y-63382037D01*
X148828498Y-63445321D01*
X148867221Y-63500419D01*
X148897757Y-63602426D01*
X148881383Y-63696245D01*
X148809911Y-63828788D01*
X148148746Y-64293463D01*
X148758576Y-64399895D01*
X149258875Y-63472095D02*
X149868705Y-63578528D01*
X149474838Y-63896498D01*
X149615568Y-63921059D01*
X149701201Y-63984343D01*
X149739924Y-64039440D01*
X149770459Y-64141447D01*
X149729524Y-64375997D01*
X149666240Y-64461630D01*
X149611143Y-64500353D01*
X149509136Y-64530889D01*
X149227676Y-64481766D01*
X149142043Y-64418482D01*
X149103320Y-64363385D01*
X150135339Y-64543501D02*
X150174062Y-64598598D01*
X150118965Y-64637321D01*
X150080242Y-64582224D01*
X150135339Y-64543501D01*
X150118965Y-64637321D01*
X150947634Y-63766831D02*
X151041454Y-63783205D01*
X151127087Y-63846489D01*
X151165809Y-63901586D01*
X151196345Y-64003593D01*
X151210507Y-64199420D01*
X151169571Y-64433970D01*
X151089913Y-64613423D01*
X151026629Y-64699056D01*
X150971532Y-64737779D01*
X150869525Y-64768314D01*
X150775705Y-64751940D01*
X150690072Y-64688656D01*
X150651349Y-64633559D01*
X150620813Y-64531552D01*
X150606652Y-64335725D01*
X150647587Y-64101175D01*
X150727246Y-63921722D01*
X150790530Y-63836090D01*
X150845627Y-63797367D01*
X150947634Y-63766831D01*
X151885833Y-63930573D02*
X151979653Y-63946947D01*
X152065286Y-64010231D01*
X152104009Y-64065328D01*
X152134545Y-64167335D01*
X152148706Y-64363162D01*
X152107771Y-64597712D01*
X152028112Y-64777165D01*
X151964828Y-64862798D01*
X151909731Y-64901521D01*
X151807724Y-64932056D01*
X151713904Y-64915682D01*
X151628271Y-64852398D01*
X151589548Y-64797301D01*
X151559013Y-64695294D01*
X151544851Y-64499467D01*
X151585787Y-64264917D01*
X151665445Y-64085464D01*
X151728729Y-63999832D01*
X151783826Y-63961109D01*
X151885833Y-63930573D01*
X152824033Y-64094315D02*
X152917852Y-64110689D01*
X153003485Y-64173973D01*
X153042208Y-64229070D01*
X153072744Y-64331077D01*
X153086905Y-64526904D01*
X153045970Y-64761454D01*
X152966312Y-64940907D01*
X152903027Y-65026540D01*
X152847930Y-65065263D01*
X152745923Y-65095798D01*
X152652103Y-65079424D01*
X152566471Y-65016140D01*
X152527748Y-64961043D01*
X152497212Y-64859036D01*
X152483050Y-64663209D01*
X152523986Y-64428659D01*
X152603644Y-64249206D01*
X152666928Y-64163574D01*
X152722025Y-64124851D01*
X152824033Y-64094315D01*
X154153222Y-65341411D02*
X154267842Y-64684672D01*
X154251468Y-64778492D02*
X154306565Y-64739769D01*
X154408572Y-64709233D01*
X154549302Y-64733795D01*
X154634934Y-64797079D01*
X154665470Y-64899086D01*
X154575412Y-65415095D01*
X154665470Y-64899086D02*
X154728754Y-64813453D01*
X154830761Y-64782917D01*
X154971491Y-64807478D01*
X155057124Y-64870763D01*
X155087660Y-64972770D01*
X154997602Y-65488779D01*
X155466701Y-65570650D02*
X155581321Y-64913911D01*
X155564947Y-65007731D02*
X155620044Y-64969008D01*
X155722051Y-64938472D01*
X155862781Y-64963033D01*
X155948414Y-65026318D01*
X155978949Y-65128325D01*
X155888891Y-65644334D01*
X155978949Y-65128325D02*
X156042233Y-65042692D01*
X156144241Y-65012156D01*
X156284970Y-65036717D01*
X156370603Y-65100001D01*
X156401139Y-65202008D01*
X156311081Y-65718018D01*
X161437019Y-67493442D02*
X138786441Y-63499534D01*
X155954578Y-98585908D02*
X161538849Y-66915931D01*
X133304000Y-94592000D02*
X138888271Y-62922023D01*
X138786441Y-63499534D02*
X139997662Y-63117638D01*
X138786441Y-63499534D02*
X139794000Y-64272661D01*
X161437019Y-67493442D02*
X160429460Y-66720315D01*
X161437019Y-67493442D02*
X160225798Y-67875338D01*
X127375428Y-58778171D02*
X127518285Y-58825790D01*
X127565904Y-58873409D01*
X127613523Y-58968647D01*
X127613523Y-59111504D01*
X127565904Y-59206742D01*
X127518285Y-59254361D01*
X127423047Y-59301980D01*
X127042095Y-59301980D01*
X127042095Y-58301980D01*
X127375428Y-58301980D01*
X127470666Y-58349600D01*
X127518285Y-58397219D01*
X127565904Y-58492457D01*
X127565904Y-58587695D01*
X127518285Y-58682933D01*
X127470666Y-58730552D01*
X127375428Y-58778171D01*
X127042095Y-58778171D01*
X128184952Y-59301980D02*
X128089714Y-59254361D01*
X128042095Y-59206742D01*
X127994476Y-59111504D01*
X127994476Y-58825790D01*
X128042095Y-58730552D01*
X128089714Y-58682933D01*
X128184952Y-58635314D01*
X128327809Y-58635314D01*
X128423047Y-58682933D01*
X128470666Y-58730552D01*
X128518285Y-58825790D01*
X128518285Y-59111504D01*
X128470666Y-59206742D01*
X128423047Y-59254361D01*
X128327809Y-59301980D01*
X128184952Y-59301980D01*
X129375428Y-59301980D02*
X129375428Y-58778171D01*
X129327809Y-58682933D01*
X129232571Y-58635314D01*
X129042095Y-58635314D01*
X128946857Y-58682933D01*
X129375428Y-59254361D02*
X129280190Y-59301980D01*
X129042095Y-59301980D01*
X128946857Y-59254361D01*
X128899238Y-59159123D01*
X128899238Y-59063885D01*
X128946857Y-58968647D01*
X129042095Y-58921028D01*
X129280190Y-58921028D01*
X129375428Y-58873409D01*
X129851619Y-59301980D02*
X129851619Y-58635314D01*
X129851619Y-58825790D02*
X129899238Y-58730552D01*
X129946857Y-58682933D01*
X130042095Y-58635314D01*
X130137333Y-58635314D01*
X130899238Y-59301980D02*
X130899238Y-58301980D01*
X130899238Y-59254361D02*
X130804000Y-59301980D01*
X130613523Y-59301980D01*
X130518285Y-59254361D01*
X130470666Y-59206742D01*
X130423047Y-59111504D01*
X130423047Y-58825790D01*
X130470666Y-58730552D01*
X130518285Y-58682933D01*
X130613523Y-58635314D01*
X130804000Y-58635314D01*
X130899238Y-58682933D01*
X132613523Y-58301980D02*
X132137333Y-58301980D01*
X132089714Y-58778171D01*
X132137333Y-58730552D01*
X132232571Y-58682933D01*
X132470666Y-58682933D01*
X132565904Y-58730552D01*
X132613523Y-58778171D01*
X132661142Y-58873409D01*
X132661142Y-59111504D01*
X132613523Y-59206742D01*
X132565904Y-59254361D01*
X132470666Y-59301980D01*
X132232571Y-59301980D01*
X132137333Y-59254361D01*
X132089714Y-59206742D01*
X133280190Y-58301980D02*
X133375428Y-58301980D01*
X133470666Y-58349600D01*
X133518285Y-58397219D01*
X133565904Y-58492457D01*
X133613523Y-58682933D01*
X133613523Y-58921028D01*
X133565904Y-59111504D01*
X133518285Y-59206742D01*
X133470666Y-59254361D01*
X133375428Y-59301980D01*
X133280190Y-59301980D01*
X133184952Y-59254361D01*
X133137333Y-59206742D01*
X133089714Y-59111504D01*
X133042095Y-58921028D01*
X133042095Y-58682933D01*
X133089714Y-58492457D01*
X133137333Y-58397219D01*
X133184952Y-58349600D01*
X133280190Y-58301980D01*
X134042095Y-59206742D02*
X134089714Y-59254361D01*
X134042095Y-59301980D01*
X133994476Y-59254361D01*
X134042095Y-59206742D01*
X134042095Y-59301980D01*
X134708761Y-58301980D02*
X134804000Y-58301980D01*
X134899238Y-58349600D01*
X134946857Y-58397219D01*
X134994476Y-58492457D01*
X135042095Y-58682933D01*
X135042095Y-58921028D01*
X134994476Y-59111504D01*
X134946857Y-59206742D01*
X134899238Y-59254361D01*
X134804000Y-59301980D01*
X134708761Y-59301980D01*
X134613523Y-59254361D01*
X134565904Y-59206742D01*
X134518285Y-59111504D01*
X134470666Y-58921028D01*
X134470666Y-58682933D01*
X134518285Y-58492457D01*
X134565904Y-58397219D01*
X134613523Y-58349600D01*
X134708761Y-58301980D01*
X135661142Y-58301980D02*
X135756380Y-58301980D01*
X135851619Y-58349600D01*
X135899238Y-58397219D01*
X135946857Y-58492457D01*
X135994476Y-58682933D01*
X135994476Y-58921028D01*
X135946857Y-59111504D01*
X135899238Y-59206742D01*
X135851619Y-59254361D01*
X135756380Y-59301980D01*
X135661142Y-59301980D01*
X135565904Y-59254361D01*
X135518285Y-59206742D01*
X135470666Y-59111504D01*
X135423047Y-58921028D01*
X135423047Y-58682933D01*
X135470666Y-58492457D01*
X135518285Y-58397219D01*
X135565904Y-58349600D01*
X135661142Y-58301980D01*
X136613523Y-58301980D02*
X136708761Y-58301980D01*
X136804000Y-58349600D01*
X136851619Y-58397219D01*
X136899238Y-58492457D01*
X136946857Y-58682933D01*
X136946857Y-58921028D01*
X136899238Y-59111504D01*
X136851619Y-59206742D01*
X136804000Y-59254361D01*
X136708761Y-59301980D01*
X136613523Y-59301980D01*
X136518285Y-59254361D01*
X136470666Y-59206742D01*
X136423047Y-59111504D01*
X136375428Y-58921028D01*
X136375428Y-58682933D01*
X136423047Y-58492457D01*
X136470666Y-58397219D01*
X136518285Y-58349600D01*
X136613523Y-58301980D01*
X138137333Y-59301980D02*
X138137333Y-58635314D01*
X138137333Y-58730552D02*
X138184952Y-58682933D01*
X138280190Y-58635314D01*
X138423047Y-58635314D01*
X138518285Y-58682933D01*
X138565904Y-58778171D01*
X138565904Y-59301980D01*
X138565904Y-58778171D02*
X138613523Y-58682933D01*
X138708761Y-58635314D01*
X138851619Y-58635314D01*
X138946857Y-58682933D01*
X138994476Y-58778171D01*
X138994476Y-59301980D01*
X139470666Y-59301980D02*
X139470666Y-58635314D01*
X139470666Y-58730552D02*
X139518285Y-58682933D01*
X139613523Y-58635314D01*
X139756380Y-58635314D01*
X139851619Y-58682933D01*
X139899238Y-58778171D01*
X139899238Y-59301980D01*
X139899238Y-58778171D02*
X139946857Y-58682933D01*
X140042095Y-58635314D01*
X140184952Y-58635314D01*
X140280190Y-58682933D01*
X140327809Y-58778171D01*
X140327809Y-59301980D01*
X108304000Y-60149600D02*
X158304000Y-60149600D01*
X108304000Y-94592000D02*
X108304000Y-59563179D01*
X158304000Y-94592000D02*
X158304000Y-59563179D01*
X158304000Y-60149600D02*
X157177496Y-60736021D01*
X158304000Y-60149600D02*
X157177496Y-59563179D01*
X108304000Y-60149600D02*
X109430504Y-60736021D01*
X108304000Y-60149600D02*
X109430504Y-59563179D01*
M02*
