%TF.GenerationSoftware,KiCad,Pcbnew,(5.1.10)-1*%
%TF.CreationDate,2021-10-31T13:05:10-04:00*%
%TF.ProjectId,CAN_Gauge,43414e5f-4761-4756-9765-2e6b69636164,rev?*%
%TF.SameCoordinates,Original*%
%TF.FileFunction,Paste,Top*%
%TF.FilePolarity,Positive*%
%FSLAX46Y46*%
G04 Gerber Fmt 4.6, Leading zero omitted, Abs format (unit mm)*
G04 Created by KiCad (PCBNEW (5.1.10)-1) date 2021-10-31 13:05:10*
%MOMM*%
%LPD*%
G01*
G04 APERTURE LIST*
%ADD10R,1.200000X0.900000*%
%ADD11R,3.150000X1.000000*%
%ADD12R,2.300000X2.500000*%
%ADD13R,2.500000X1.800000*%
G04 APERTURE END LIST*
%TO.C,L1*%
G36*
G01*
X151998650Y-92798600D02*
X151236150Y-92798600D01*
G75*
G02*
X151017400Y-92579850I0J218750D01*
G01*
X151017400Y-92142350D01*
G75*
G02*
X151236150Y-91923600I218750J0D01*
G01*
X151998650Y-91923600D01*
G75*
G02*
X152217400Y-92142350I0J-218750D01*
G01*
X152217400Y-92579850D01*
G75*
G02*
X151998650Y-92798600I-218750J0D01*
G01*
G37*
G36*
G01*
X151998650Y-94923600D02*
X151236150Y-94923600D01*
G75*
G02*
X151017400Y-94704850I0J218750D01*
G01*
X151017400Y-94267350D01*
G75*
G02*
X151236150Y-94048600I218750J0D01*
G01*
X151998650Y-94048600D01*
G75*
G02*
X152217400Y-94267350I0J-218750D01*
G01*
X152217400Y-94704850D01*
G75*
G02*
X151998650Y-94923600I-218750J0D01*
G01*
G37*
%TD*%
%TO.C,C11*%
G36*
G01*
X148888600Y-86829999D02*
X148888600Y-88130001D01*
G75*
G02*
X148638601Y-88380000I-249999J0D01*
G01*
X147988599Y-88380000D01*
G75*
G02*
X147738600Y-88130001I0J249999D01*
G01*
X147738600Y-86829999D01*
G75*
G02*
X147988599Y-86580000I249999J0D01*
G01*
X148638601Y-86580000D01*
G75*
G02*
X148888600Y-86829999I0J-249999D01*
G01*
G37*
G36*
G01*
X151838600Y-86829999D02*
X151838600Y-88130001D01*
G75*
G02*
X151588601Y-88380000I-249999J0D01*
G01*
X150938599Y-88380000D01*
G75*
G02*
X150688600Y-88130001I0J249999D01*
G01*
X150688600Y-86829999D01*
G75*
G02*
X150938599Y-86580000I249999J0D01*
G01*
X151588601Y-86580000D01*
G75*
G02*
X151838600Y-86829999I0J-249999D01*
G01*
G37*
%TD*%
D10*
%TO.C,D12*%
X151439600Y-100458400D03*
X151439600Y-97158400D03*
%TD*%
%TO.C,U3*%
G36*
G01*
X148927400Y-94415600D02*
X149227400Y-94415600D01*
G75*
G02*
X149377400Y-94565600I0J-150000D01*
G01*
X149377400Y-96215600D01*
G75*
G02*
X149227400Y-96365600I-150000J0D01*
G01*
X148927400Y-96365600D01*
G75*
G02*
X148777400Y-96215600I0J150000D01*
G01*
X148777400Y-94565600D01*
G75*
G02*
X148927400Y-94415600I150000J0D01*
G01*
G37*
G36*
G01*
X147657400Y-94415600D02*
X147957400Y-94415600D01*
G75*
G02*
X148107400Y-94565600I0J-150000D01*
G01*
X148107400Y-96215600D01*
G75*
G02*
X147957400Y-96365600I-150000J0D01*
G01*
X147657400Y-96365600D01*
G75*
G02*
X147507400Y-96215600I0J150000D01*
G01*
X147507400Y-94565600D01*
G75*
G02*
X147657400Y-94415600I150000J0D01*
G01*
G37*
G36*
G01*
X146387400Y-94415600D02*
X146687400Y-94415600D01*
G75*
G02*
X146837400Y-94565600I0J-150000D01*
G01*
X146837400Y-96215600D01*
G75*
G02*
X146687400Y-96365600I-150000J0D01*
G01*
X146387400Y-96365600D01*
G75*
G02*
X146237400Y-96215600I0J150000D01*
G01*
X146237400Y-94565600D01*
G75*
G02*
X146387400Y-94415600I150000J0D01*
G01*
G37*
G36*
G01*
X145117400Y-94415600D02*
X145417400Y-94415600D01*
G75*
G02*
X145567400Y-94565600I0J-150000D01*
G01*
X145567400Y-96215600D01*
G75*
G02*
X145417400Y-96365600I-150000J0D01*
G01*
X145117400Y-96365600D01*
G75*
G02*
X144967400Y-96215600I0J150000D01*
G01*
X144967400Y-94565600D01*
G75*
G02*
X145117400Y-94415600I150000J0D01*
G01*
G37*
G36*
G01*
X145117400Y-89465600D02*
X145417400Y-89465600D01*
G75*
G02*
X145567400Y-89615600I0J-150000D01*
G01*
X145567400Y-91265600D01*
G75*
G02*
X145417400Y-91415600I-150000J0D01*
G01*
X145117400Y-91415600D01*
G75*
G02*
X144967400Y-91265600I0J150000D01*
G01*
X144967400Y-89615600D01*
G75*
G02*
X145117400Y-89465600I150000J0D01*
G01*
G37*
G36*
G01*
X146387400Y-89465600D02*
X146687400Y-89465600D01*
G75*
G02*
X146837400Y-89615600I0J-150000D01*
G01*
X146837400Y-91265600D01*
G75*
G02*
X146687400Y-91415600I-150000J0D01*
G01*
X146387400Y-91415600D01*
G75*
G02*
X146237400Y-91265600I0J150000D01*
G01*
X146237400Y-89615600D01*
G75*
G02*
X146387400Y-89465600I150000J0D01*
G01*
G37*
G36*
G01*
X147657400Y-89465600D02*
X147957400Y-89465600D01*
G75*
G02*
X148107400Y-89615600I0J-150000D01*
G01*
X148107400Y-91265600D01*
G75*
G02*
X147957400Y-91415600I-150000J0D01*
G01*
X147657400Y-91415600D01*
G75*
G02*
X147507400Y-91265600I0J150000D01*
G01*
X147507400Y-89615600D01*
G75*
G02*
X147657400Y-89465600I150000J0D01*
G01*
G37*
G36*
G01*
X148927400Y-89465600D02*
X149227400Y-89465600D01*
G75*
G02*
X149377400Y-89615600I0J-150000D01*
G01*
X149377400Y-91265600D01*
G75*
G02*
X149227400Y-91415600I-150000J0D01*
G01*
X148927400Y-91415600D01*
G75*
G02*
X148777400Y-91265600I0J150000D01*
G01*
X148777400Y-89615600D01*
G75*
G02*
X148927400Y-89465600I150000J0D01*
G01*
G37*
%TD*%
%TO.C,C10*%
G36*
G01*
X147268400Y-100537850D02*
X147268400Y-100025350D01*
G75*
G02*
X147487150Y-99806600I218750J0D01*
G01*
X147924650Y-99806600D01*
G75*
G02*
X148143400Y-100025350I0J-218750D01*
G01*
X148143400Y-100537850D01*
G75*
G02*
X147924650Y-100756600I-218750J0D01*
G01*
X147487150Y-100756600D01*
G75*
G02*
X147268400Y-100537850I0J218750D01*
G01*
G37*
G36*
G01*
X145693400Y-100537850D02*
X145693400Y-100025350D01*
G75*
G02*
X145912150Y-99806600I218750J0D01*
G01*
X146349650Y-99806600D01*
G75*
G02*
X146568400Y-100025350I0J-218750D01*
G01*
X146568400Y-100537850D01*
G75*
G02*
X146349650Y-100756600I-218750J0D01*
G01*
X145912150Y-100756600D01*
G75*
G02*
X145693400Y-100537850I0J218750D01*
G01*
G37*
%TD*%
%TO.C,U4*%
G36*
G01*
X123304000Y-103723000D02*
X123304000Y-98923000D01*
G75*
G02*
X123404000Y-98823000I100000J0D01*
G01*
X123604000Y-98823000D01*
G75*
G02*
X123704000Y-98923000I0J-100000D01*
G01*
X123704000Y-103723000D01*
G75*
G02*
X123604000Y-103823000I-100000J0D01*
G01*
X123404000Y-103823000D01*
G75*
G02*
X123304000Y-103723000I0J100000D01*
G01*
G37*
G36*
G01*
X124004000Y-103723000D02*
X124004000Y-98923000D01*
G75*
G02*
X124104000Y-98823000I100000J0D01*
G01*
X124304000Y-98823000D01*
G75*
G02*
X124404000Y-98923000I0J-100000D01*
G01*
X124404000Y-103723000D01*
G75*
G02*
X124304000Y-103823000I-100000J0D01*
G01*
X124104000Y-103823000D01*
G75*
G02*
X124004000Y-103723000I0J100000D01*
G01*
G37*
G36*
G01*
X124704000Y-103723000D02*
X124704000Y-98923000D01*
G75*
G02*
X124804000Y-98823000I100000J0D01*
G01*
X125004000Y-98823000D01*
G75*
G02*
X125104000Y-98923000I0J-100000D01*
G01*
X125104000Y-103723000D01*
G75*
G02*
X125004000Y-103823000I-100000J0D01*
G01*
X124804000Y-103823000D01*
G75*
G02*
X124704000Y-103723000I0J100000D01*
G01*
G37*
G36*
G01*
X125404000Y-103723000D02*
X125404000Y-98923000D01*
G75*
G02*
X125504000Y-98823000I100000J0D01*
G01*
X125704000Y-98823000D01*
G75*
G02*
X125804000Y-98923000I0J-100000D01*
G01*
X125804000Y-103723000D01*
G75*
G02*
X125704000Y-103823000I-100000J0D01*
G01*
X125504000Y-103823000D01*
G75*
G02*
X125404000Y-103723000I0J100000D01*
G01*
G37*
G36*
G01*
X126104000Y-103723000D02*
X126104000Y-98923000D01*
G75*
G02*
X126204000Y-98823000I100000J0D01*
G01*
X126404000Y-98823000D01*
G75*
G02*
X126504000Y-98923000I0J-100000D01*
G01*
X126504000Y-103723000D01*
G75*
G02*
X126404000Y-103823000I-100000J0D01*
G01*
X126204000Y-103823000D01*
G75*
G02*
X126104000Y-103723000I0J100000D01*
G01*
G37*
G36*
G01*
X126804000Y-103723000D02*
X126804000Y-98923000D01*
G75*
G02*
X126904000Y-98823000I100000J0D01*
G01*
X127104000Y-98823000D01*
G75*
G02*
X127204000Y-98923000I0J-100000D01*
G01*
X127204000Y-103723000D01*
G75*
G02*
X127104000Y-103823000I-100000J0D01*
G01*
X126904000Y-103823000D01*
G75*
G02*
X126804000Y-103723000I0J100000D01*
G01*
G37*
G36*
G01*
X127504000Y-103723000D02*
X127504000Y-98923000D01*
G75*
G02*
X127604000Y-98823000I100000J0D01*
G01*
X127804000Y-98823000D01*
G75*
G02*
X127904000Y-98923000I0J-100000D01*
G01*
X127904000Y-103723000D01*
G75*
G02*
X127804000Y-103823000I-100000J0D01*
G01*
X127604000Y-103823000D01*
G75*
G02*
X127504000Y-103723000I0J100000D01*
G01*
G37*
G36*
G01*
X128204000Y-103723000D02*
X128204000Y-98923000D01*
G75*
G02*
X128304000Y-98823000I100000J0D01*
G01*
X128504000Y-98823000D01*
G75*
G02*
X128604000Y-98923000I0J-100000D01*
G01*
X128604000Y-103723000D01*
G75*
G02*
X128504000Y-103823000I-100000J0D01*
G01*
X128304000Y-103823000D01*
G75*
G02*
X128204000Y-103723000I0J100000D01*
G01*
G37*
G36*
G01*
X128904000Y-103723000D02*
X128904000Y-98923000D01*
G75*
G02*
X129004000Y-98823000I100000J0D01*
G01*
X129204000Y-98823000D01*
G75*
G02*
X129304000Y-98923000I0J-100000D01*
G01*
X129304000Y-103723000D01*
G75*
G02*
X129204000Y-103823000I-100000J0D01*
G01*
X129004000Y-103823000D01*
G75*
G02*
X128904000Y-103723000I0J100000D01*
G01*
G37*
G36*
G01*
X129604000Y-103723000D02*
X129604000Y-98923000D01*
G75*
G02*
X129704000Y-98823000I100000J0D01*
G01*
X129904000Y-98823000D01*
G75*
G02*
X130004000Y-98923000I0J-100000D01*
G01*
X130004000Y-103723000D01*
G75*
G02*
X129904000Y-103823000I-100000J0D01*
G01*
X129704000Y-103823000D01*
G75*
G02*
X129604000Y-103723000I0J100000D01*
G01*
G37*
G36*
G01*
X130304000Y-103723000D02*
X130304000Y-98923000D01*
G75*
G02*
X130404000Y-98823000I100000J0D01*
G01*
X130604000Y-98823000D01*
G75*
G02*
X130704000Y-98923000I0J-100000D01*
G01*
X130704000Y-103723000D01*
G75*
G02*
X130604000Y-103823000I-100000J0D01*
G01*
X130404000Y-103823000D01*
G75*
G02*
X130304000Y-103723000I0J100000D01*
G01*
G37*
G36*
G01*
X131004000Y-103723000D02*
X131004000Y-98923000D01*
G75*
G02*
X131104000Y-98823000I100000J0D01*
G01*
X131304000Y-98823000D01*
G75*
G02*
X131404000Y-98923000I0J-100000D01*
G01*
X131404000Y-103723000D01*
G75*
G02*
X131304000Y-103823000I-100000J0D01*
G01*
X131104000Y-103823000D01*
G75*
G02*
X131004000Y-103723000I0J100000D01*
G01*
G37*
G36*
G01*
X131704000Y-103723000D02*
X131704000Y-98923000D01*
G75*
G02*
X131804000Y-98823000I100000J0D01*
G01*
X132004000Y-98823000D01*
G75*
G02*
X132104000Y-98923000I0J-100000D01*
G01*
X132104000Y-103723000D01*
G75*
G02*
X132004000Y-103823000I-100000J0D01*
G01*
X131804000Y-103823000D01*
G75*
G02*
X131704000Y-103723000I0J100000D01*
G01*
G37*
G36*
G01*
X132404000Y-103723000D02*
X132404000Y-98923000D01*
G75*
G02*
X132504000Y-98823000I100000J0D01*
G01*
X132704000Y-98823000D01*
G75*
G02*
X132804000Y-98923000I0J-100000D01*
G01*
X132804000Y-103723000D01*
G75*
G02*
X132704000Y-103823000I-100000J0D01*
G01*
X132504000Y-103823000D01*
G75*
G02*
X132404000Y-103723000I0J100000D01*
G01*
G37*
G36*
G01*
X133104000Y-103723000D02*
X133104000Y-98923000D01*
G75*
G02*
X133204000Y-98823000I100000J0D01*
G01*
X133404000Y-98823000D01*
G75*
G02*
X133504000Y-98923000I0J-100000D01*
G01*
X133504000Y-103723000D01*
G75*
G02*
X133404000Y-103823000I-100000J0D01*
G01*
X133204000Y-103823000D01*
G75*
G02*
X133104000Y-103723000I0J100000D01*
G01*
G37*
G36*
G01*
X133804000Y-103723000D02*
X133804000Y-98923000D01*
G75*
G02*
X133904000Y-98823000I100000J0D01*
G01*
X134104000Y-98823000D01*
G75*
G02*
X134204000Y-98923000I0J-100000D01*
G01*
X134204000Y-103723000D01*
G75*
G02*
X134104000Y-103823000I-100000J0D01*
G01*
X133904000Y-103823000D01*
G75*
G02*
X133804000Y-103723000I0J100000D01*
G01*
G37*
G36*
G01*
X134504000Y-103723000D02*
X134504000Y-98923000D01*
G75*
G02*
X134604000Y-98823000I100000J0D01*
G01*
X134804000Y-98823000D01*
G75*
G02*
X134904000Y-98923000I0J-100000D01*
G01*
X134904000Y-103723000D01*
G75*
G02*
X134804000Y-103823000I-100000J0D01*
G01*
X134604000Y-103823000D01*
G75*
G02*
X134504000Y-103723000I0J100000D01*
G01*
G37*
G36*
G01*
X135204000Y-103723000D02*
X135204000Y-98923000D01*
G75*
G02*
X135304000Y-98823000I100000J0D01*
G01*
X135504000Y-98823000D01*
G75*
G02*
X135604000Y-98923000I0J-100000D01*
G01*
X135604000Y-103723000D01*
G75*
G02*
X135504000Y-103823000I-100000J0D01*
G01*
X135304000Y-103823000D01*
G75*
G02*
X135204000Y-103723000I0J100000D01*
G01*
G37*
G36*
G01*
X135904000Y-103723000D02*
X135904000Y-98923000D01*
G75*
G02*
X136004000Y-98823000I100000J0D01*
G01*
X136204000Y-98823000D01*
G75*
G02*
X136304000Y-98923000I0J-100000D01*
G01*
X136304000Y-103723000D01*
G75*
G02*
X136204000Y-103823000I-100000J0D01*
G01*
X136004000Y-103823000D01*
G75*
G02*
X135904000Y-103723000I0J100000D01*
G01*
G37*
G36*
G01*
X136604000Y-103723000D02*
X136604000Y-98923000D01*
G75*
G02*
X136704000Y-98823000I100000J0D01*
G01*
X136904000Y-98823000D01*
G75*
G02*
X137004000Y-98923000I0J-100000D01*
G01*
X137004000Y-103723000D01*
G75*
G02*
X136904000Y-103823000I-100000J0D01*
G01*
X136704000Y-103823000D01*
G75*
G02*
X136604000Y-103723000I0J100000D01*
G01*
G37*
G36*
G01*
X137304000Y-103723000D02*
X137304000Y-98923000D01*
G75*
G02*
X137404000Y-98823000I100000J0D01*
G01*
X137604000Y-98823000D01*
G75*
G02*
X137704000Y-98923000I0J-100000D01*
G01*
X137704000Y-103723000D01*
G75*
G02*
X137604000Y-103823000I-100000J0D01*
G01*
X137404000Y-103823000D01*
G75*
G02*
X137304000Y-103723000I0J100000D01*
G01*
G37*
G36*
G01*
X138004000Y-103723000D02*
X138004000Y-98923000D01*
G75*
G02*
X138104000Y-98823000I100000J0D01*
G01*
X138304000Y-98823000D01*
G75*
G02*
X138404000Y-98923000I0J-100000D01*
G01*
X138404000Y-103723000D01*
G75*
G02*
X138304000Y-103823000I-100000J0D01*
G01*
X138104000Y-103823000D01*
G75*
G02*
X138004000Y-103723000I0J100000D01*
G01*
G37*
G36*
G01*
X138704000Y-103723000D02*
X138704000Y-98923000D01*
G75*
G02*
X138804000Y-98823000I100000J0D01*
G01*
X139004000Y-98823000D01*
G75*
G02*
X139104000Y-98923000I0J-100000D01*
G01*
X139104000Y-103723000D01*
G75*
G02*
X139004000Y-103823000I-100000J0D01*
G01*
X138804000Y-103823000D01*
G75*
G02*
X138704000Y-103723000I0J100000D01*
G01*
G37*
G36*
G01*
X139404000Y-103723000D02*
X139404000Y-98923000D01*
G75*
G02*
X139504000Y-98823000I100000J0D01*
G01*
X139704000Y-98823000D01*
G75*
G02*
X139804000Y-98923000I0J-100000D01*
G01*
X139804000Y-103723000D01*
G75*
G02*
X139704000Y-103823000I-100000J0D01*
G01*
X139504000Y-103823000D01*
G75*
G02*
X139404000Y-103723000I0J100000D01*
G01*
G37*
G36*
G01*
X140104000Y-103723000D02*
X140104000Y-98923000D01*
G75*
G02*
X140204000Y-98823000I100000J0D01*
G01*
X140404000Y-98823000D01*
G75*
G02*
X140504000Y-98923000I0J-100000D01*
G01*
X140504000Y-103723000D01*
G75*
G02*
X140404000Y-103823000I-100000J0D01*
G01*
X140204000Y-103823000D01*
G75*
G02*
X140104000Y-103723000I0J100000D01*
G01*
G37*
G36*
G01*
X140804000Y-103723000D02*
X140804000Y-98923000D01*
G75*
G02*
X140904000Y-98823000I100000J0D01*
G01*
X141104000Y-98823000D01*
G75*
G02*
X141204000Y-98923000I0J-100000D01*
G01*
X141204000Y-103723000D01*
G75*
G02*
X141104000Y-103823000I-100000J0D01*
G01*
X140904000Y-103823000D01*
G75*
G02*
X140804000Y-103723000I0J100000D01*
G01*
G37*
G36*
G01*
X141504000Y-103723000D02*
X141504000Y-98923000D01*
G75*
G02*
X141604000Y-98823000I100000J0D01*
G01*
X141804000Y-98823000D01*
G75*
G02*
X141904000Y-98923000I0J-100000D01*
G01*
X141904000Y-103723000D01*
G75*
G02*
X141804000Y-103823000I-100000J0D01*
G01*
X141604000Y-103823000D01*
G75*
G02*
X141504000Y-103723000I0J100000D01*
G01*
G37*
G36*
G01*
X142204000Y-103723000D02*
X142204000Y-98923000D01*
G75*
G02*
X142304000Y-98823000I100000J0D01*
G01*
X142504000Y-98823000D01*
G75*
G02*
X142604000Y-98923000I0J-100000D01*
G01*
X142604000Y-103723000D01*
G75*
G02*
X142504000Y-103823000I-100000J0D01*
G01*
X142304000Y-103823000D01*
G75*
G02*
X142204000Y-103723000I0J100000D01*
G01*
G37*
G36*
G01*
X142904000Y-103723000D02*
X142904000Y-98923000D01*
G75*
G02*
X143004000Y-98823000I100000J0D01*
G01*
X143204000Y-98823000D01*
G75*
G02*
X143304000Y-98923000I0J-100000D01*
G01*
X143304000Y-103723000D01*
G75*
G02*
X143204000Y-103823000I-100000J0D01*
G01*
X143004000Y-103823000D01*
G75*
G02*
X142904000Y-103723000I0J100000D01*
G01*
G37*
G36*
G01*
X143604000Y-103723000D02*
X143604000Y-98923000D01*
G75*
G02*
X143704000Y-98823000I100000J0D01*
G01*
X143904000Y-98823000D01*
G75*
G02*
X144004000Y-98923000I0J-100000D01*
G01*
X144004000Y-103723000D01*
G75*
G02*
X143904000Y-103823000I-100000J0D01*
G01*
X143704000Y-103823000D01*
G75*
G02*
X143604000Y-103723000I0J100000D01*
G01*
G37*
%TD*%
%TO.C,U1*%
G36*
G01*
X138690800Y-89760000D02*
X138690800Y-91010000D01*
G75*
G02*
X138565800Y-91135000I-125000J0D01*
G01*
X138315800Y-91135000D01*
G75*
G02*
X138190800Y-91010000I0J125000D01*
G01*
X138190800Y-89760000D01*
G75*
G02*
X138315800Y-89635000I125000J0D01*
G01*
X138565800Y-89635000D01*
G75*
G02*
X138690800Y-89760000I0J-125000D01*
G01*
G37*
G36*
G01*
X137890800Y-89760000D02*
X137890800Y-91010000D01*
G75*
G02*
X137765800Y-91135000I-125000J0D01*
G01*
X137515800Y-91135000D01*
G75*
G02*
X137390800Y-91010000I0J125000D01*
G01*
X137390800Y-89760000D01*
G75*
G02*
X137515800Y-89635000I125000J0D01*
G01*
X137765800Y-89635000D01*
G75*
G02*
X137890800Y-89760000I0J-125000D01*
G01*
G37*
G36*
G01*
X137090800Y-89760000D02*
X137090800Y-91010000D01*
G75*
G02*
X136965800Y-91135000I-125000J0D01*
G01*
X136715800Y-91135000D01*
G75*
G02*
X136590800Y-91010000I0J125000D01*
G01*
X136590800Y-89760000D01*
G75*
G02*
X136715800Y-89635000I125000J0D01*
G01*
X136965800Y-89635000D01*
G75*
G02*
X137090800Y-89760000I0J-125000D01*
G01*
G37*
G36*
G01*
X136290800Y-89760000D02*
X136290800Y-91010000D01*
G75*
G02*
X136165800Y-91135000I-125000J0D01*
G01*
X135915800Y-91135000D01*
G75*
G02*
X135790800Y-91010000I0J125000D01*
G01*
X135790800Y-89760000D01*
G75*
G02*
X135915800Y-89635000I125000J0D01*
G01*
X136165800Y-89635000D01*
G75*
G02*
X136290800Y-89760000I0J-125000D01*
G01*
G37*
G36*
G01*
X135490800Y-89760000D02*
X135490800Y-91010000D01*
G75*
G02*
X135365800Y-91135000I-125000J0D01*
G01*
X135115800Y-91135000D01*
G75*
G02*
X134990800Y-91010000I0J125000D01*
G01*
X134990800Y-89760000D01*
G75*
G02*
X135115800Y-89635000I125000J0D01*
G01*
X135365800Y-89635000D01*
G75*
G02*
X135490800Y-89760000I0J-125000D01*
G01*
G37*
G36*
G01*
X134690800Y-89760000D02*
X134690800Y-91010000D01*
G75*
G02*
X134565800Y-91135000I-125000J0D01*
G01*
X134315800Y-91135000D01*
G75*
G02*
X134190800Y-91010000I0J125000D01*
G01*
X134190800Y-89760000D01*
G75*
G02*
X134315800Y-89635000I125000J0D01*
G01*
X134565800Y-89635000D01*
G75*
G02*
X134690800Y-89760000I0J-125000D01*
G01*
G37*
G36*
G01*
X133890800Y-89760000D02*
X133890800Y-91010000D01*
G75*
G02*
X133765800Y-91135000I-125000J0D01*
G01*
X133515800Y-91135000D01*
G75*
G02*
X133390800Y-91010000I0J125000D01*
G01*
X133390800Y-89760000D01*
G75*
G02*
X133515800Y-89635000I125000J0D01*
G01*
X133765800Y-89635000D01*
G75*
G02*
X133890800Y-89760000I0J-125000D01*
G01*
G37*
G36*
G01*
X133090800Y-89760000D02*
X133090800Y-91010000D01*
G75*
G02*
X132965800Y-91135000I-125000J0D01*
G01*
X132715800Y-91135000D01*
G75*
G02*
X132590800Y-91010000I0J125000D01*
G01*
X132590800Y-89760000D01*
G75*
G02*
X132715800Y-89635000I125000J0D01*
G01*
X132965800Y-89635000D01*
G75*
G02*
X133090800Y-89760000I0J-125000D01*
G01*
G37*
G36*
G01*
X132215800Y-88885000D02*
X132215800Y-89135000D01*
G75*
G02*
X132090800Y-89260000I-125000J0D01*
G01*
X130840800Y-89260000D01*
G75*
G02*
X130715800Y-89135000I0J125000D01*
G01*
X130715800Y-88885000D01*
G75*
G02*
X130840800Y-88760000I125000J0D01*
G01*
X132090800Y-88760000D01*
G75*
G02*
X132215800Y-88885000I0J-125000D01*
G01*
G37*
G36*
G01*
X132215800Y-88085000D02*
X132215800Y-88335000D01*
G75*
G02*
X132090800Y-88460000I-125000J0D01*
G01*
X130840800Y-88460000D01*
G75*
G02*
X130715800Y-88335000I0J125000D01*
G01*
X130715800Y-88085000D01*
G75*
G02*
X130840800Y-87960000I125000J0D01*
G01*
X132090800Y-87960000D01*
G75*
G02*
X132215800Y-88085000I0J-125000D01*
G01*
G37*
G36*
G01*
X132215800Y-87285000D02*
X132215800Y-87535000D01*
G75*
G02*
X132090800Y-87660000I-125000J0D01*
G01*
X130840800Y-87660000D01*
G75*
G02*
X130715800Y-87535000I0J125000D01*
G01*
X130715800Y-87285000D01*
G75*
G02*
X130840800Y-87160000I125000J0D01*
G01*
X132090800Y-87160000D01*
G75*
G02*
X132215800Y-87285000I0J-125000D01*
G01*
G37*
G36*
G01*
X132215800Y-86485000D02*
X132215800Y-86735000D01*
G75*
G02*
X132090800Y-86860000I-125000J0D01*
G01*
X130840800Y-86860000D01*
G75*
G02*
X130715800Y-86735000I0J125000D01*
G01*
X130715800Y-86485000D01*
G75*
G02*
X130840800Y-86360000I125000J0D01*
G01*
X132090800Y-86360000D01*
G75*
G02*
X132215800Y-86485000I0J-125000D01*
G01*
G37*
G36*
G01*
X132215800Y-85685000D02*
X132215800Y-85935000D01*
G75*
G02*
X132090800Y-86060000I-125000J0D01*
G01*
X130840800Y-86060000D01*
G75*
G02*
X130715800Y-85935000I0J125000D01*
G01*
X130715800Y-85685000D01*
G75*
G02*
X130840800Y-85560000I125000J0D01*
G01*
X132090800Y-85560000D01*
G75*
G02*
X132215800Y-85685000I0J-125000D01*
G01*
G37*
G36*
G01*
X132215800Y-84885000D02*
X132215800Y-85135000D01*
G75*
G02*
X132090800Y-85260000I-125000J0D01*
G01*
X130840800Y-85260000D01*
G75*
G02*
X130715800Y-85135000I0J125000D01*
G01*
X130715800Y-84885000D01*
G75*
G02*
X130840800Y-84760000I125000J0D01*
G01*
X132090800Y-84760000D01*
G75*
G02*
X132215800Y-84885000I0J-125000D01*
G01*
G37*
G36*
G01*
X132215800Y-84085000D02*
X132215800Y-84335000D01*
G75*
G02*
X132090800Y-84460000I-125000J0D01*
G01*
X130840800Y-84460000D01*
G75*
G02*
X130715800Y-84335000I0J125000D01*
G01*
X130715800Y-84085000D01*
G75*
G02*
X130840800Y-83960000I125000J0D01*
G01*
X132090800Y-83960000D01*
G75*
G02*
X132215800Y-84085000I0J-125000D01*
G01*
G37*
G36*
G01*
X132215800Y-83285000D02*
X132215800Y-83535000D01*
G75*
G02*
X132090800Y-83660000I-125000J0D01*
G01*
X130840800Y-83660000D01*
G75*
G02*
X130715800Y-83535000I0J125000D01*
G01*
X130715800Y-83285000D01*
G75*
G02*
X130840800Y-83160000I125000J0D01*
G01*
X132090800Y-83160000D01*
G75*
G02*
X132215800Y-83285000I0J-125000D01*
G01*
G37*
G36*
G01*
X133090800Y-81410000D02*
X133090800Y-82660000D01*
G75*
G02*
X132965800Y-82785000I-125000J0D01*
G01*
X132715800Y-82785000D01*
G75*
G02*
X132590800Y-82660000I0J125000D01*
G01*
X132590800Y-81410000D01*
G75*
G02*
X132715800Y-81285000I125000J0D01*
G01*
X132965800Y-81285000D01*
G75*
G02*
X133090800Y-81410000I0J-125000D01*
G01*
G37*
G36*
G01*
X133890800Y-81410000D02*
X133890800Y-82660000D01*
G75*
G02*
X133765800Y-82785000I-125000J0D01*
G01*
X133515800Y-82785000D01*
G75*
G02*
X133390800Y-82660000I0J125000D01*
G01*
X133390800Y-81410000D01*
G75*
G02*
X133515800Y-81285000I125000J0D01*
G01*
X133765800Y-81285000D01*
G75*
G02*
X133890800Y-81410000I0J-125000D01*
G01*
G37*
G36*
G01*
X134690800Y-81410000D02*
X134690800Y-82660000D01*
G75*
G02*
X134565800Y-82785000I-125000J0D01*
G01*
X134315800Y-82785000D01*
G75*
G02*
X134190800Y-82660000I0J125000D01*
G01*
X134190800Y-81410000D01*
G75*
G02*
X134315800Y-81285000I125000J0D01*
G01*
X134565800Y-81285000D01*
G75*
G02*
X134690800Y-81410000I0J-125000D01*
G01*
G37*
G36*
G01*
X135490800Y-81410000D02*
X135490800Y-82660000D01*
G75*
G02*
X135365800Y-82785000I-125000J0D01*
G01*
X135115800Y-82785000D01*
G75*
G02*
X134990800Y-82660000I0J125000D01*
G01*
X134990800Y-81410000D01*
G75*
G02*
X135115800Y-81285000I125000J0D01*
G01*
X135365800Y-81285000D01*
G75*
G02*
X135490800Y-81410000I0J-125000D01*
G01*
G37*
G36*
G01*
X136290800Y-81410000D02*
X136290800Y-82660000D01*
G75*
G02*
X136165800Y-82785000I-125000J0D01*
G01*
X135915800Y-82785000D01*
G75*
G02*
X135790800Y-82660000I0J125000D01*
G01*
X135790800Y-81410000D01*
G75*
G02*
X135915800Y-81285000I125000J0D01*
G01*
X136165800Y-81285000D01*
G75*
G02*
X136290800Y-81410000I0J-125000D01*
G01*
G37*
G36*
G01*
X137090800Y-81410000D02*
X137090800Y-82660000D01*
G75*
G02*
X136965800Y-82785000I-125000J0D01*
G01*
X136715800Y-82785000D01*
G75*
G02*
X136590800Y-82660000I0J125000D01*
G01*
X136590800Y-81410000D01*
G75*
G02*
X136715800Y-81285000I125000J0D01*
G01*
X136965800Y-81285000D01*
G75*
G02*
X137090800Y-81410000I0J-125000D01*
G01*
G37*
G36*
G01*
X137890800Y-81410000D02*
X137890800Y-82660000D01*
G75*
G02*
X137765800Y-82785000I-125000J0D01*
G01*
X137515800Y-82785000D01*
G75*
G02*
X137390800Y-82660000I0J125000D01*
G01*
X137390800Y-81410000D01*
G75*
G02*
X137515800Y-81285000I125000J0D01*
G01*
X137765800Y-81285000D01*
G75*
G02*
X137890800Y-81410000I0J-125000D01*
G01*
G37*
G36*
G01*
X138690800Y-81410000D02*
X138690800Y-82660000D01*
G75*
G02*
X138565800Y-82785000I-125000J0D01*
G01*
X138315800Y-82785000D01*
G75*
G02*
X138190800Y-82660000I0J125000D01*
G01*
X138190800Y-81410000D01*
G75*
G02*
X138315800Y-81285000I125000J0D01*
G01*
X138565800Y-81285000D01*
G75*
G02*
X138690800Y-81410000I0J-125000D01*
G01*
G37*
G36*
G01*
X140565800Y-83285000D02*
X140565800Y-83535000D01*
G75*
G02*
X140440800Y-83660000I-125000J0D01*
G01*
X139190800Y-83660000D01*
G75*
G02*
X139065800Y-83535000I0J125000D01*
G01*
X139065800Y-83285000D01*
G75*
G02*
X139190800Y-83160000I125000J0D01*
G01*
X140440800Y-83160000D01*
G75*
G02*
X140565800Y-83285000I0J-125000D01*
G01*
G37*
G36*
G01*
X140565800Y-84085000D02*
X140565800Y-84335000D01*
G75*
G02*
X140440800Y-84460000I-125000J0D01*
G01*
X139190800Y-84460000D01*
G75*
G02*
X139065800Y-84335000I0J125000D01*
G01*
X139065800Y-84085000D01*
G75*
G02*
X139190800Y-83960000I125000J0D01*
G01*
X140440800Y-83960000D01*
G75*
G02*
X140565800Y-84085000I0J-125000D01*
G01*
G37*
G36*
G01*
X140565800Y-84885000D02*
X140565800Y-85135000D01*
G75*
G02*
X140440800Y-85260000I-125000J0D01*
G01*
X139190800Y-85260000D01*
G75*
G02*
X139065800Y-85135000I0J125000D01*
G01*
X139065800Y-84885000D01*
G75*
G02*
X139190800Y-84760000I125000J0D01*
G01*
X140440800Y-84760000D01*
G75*
G02*
X140565800Y-84885000I0J-125000D01*
G01*
G37*
G36*
G01*
X140565800Y-85685000D02*
X140565800Y-85935000D01*
G75*
G02*
X140440800Y-86060000I-125000J0D01*
G01*
X139190800Y-86060000D01*
G75*
G02*
X139065800Y-85935000I0J125000D01*
G01*
X139065800Y-85685000D01*
G75*
G02*
X139190800Y-85560000I125000J0D01*
G01*
X140440800Y-85560000D01*
G75*
G02*
X140565800Y-85685000I0J-125000D01*
G01*
G37*
G36*
G01*
X140565800Y-86485000D02*
X140565800Y-86735000D01*
G75*
G02*
X140440800Y-86860000I-125000J0D01*
G01*
X139190800Y-86860000D01*
G75*
G02*
X139065800Y-86735000I0J125000D01*
G01*
X139065800Y-86485000D01*
G75*
G02*
X139190800Y-86360000I125000J0D01*
G01*
X140440800Y-86360000D01*
G75*
G02*
X140565800Y-86485000I0J-125000D01*
G01*
G37*
G36*
G01*
X140565800Y-87285000D02*
X140565800Y-87535000D01*
G75*
G02*
X140440800Y-87660000I-125000J0D01*
G01*
X139190800Y-87660000D01*
G75*
G02*
X139065800Y-87535000I0J125000D01*
G01*
X139065800Y-87285000D01*
G75*
G02*
X139190800Y-87160000I125000J0D01*
G01*
X140440800Y-87160000D01*
G75*
G02*
X140565800Y-87285000I0J-125000D01*
G01*
G37*
G36*
G01*
X140565800Y-88085000D02*
X140565800Y-88335000D01*
G75*
G02*
X140440800Y-88460000I-125000J0D01*
G01*
X139190800Y-88460000D01*
G75*
G02*
X139065800Y-88335000I0J125000D01*
G01*
X139065800Y-88085000D01*
G75*
G02*
X139190800Y-87960000I125000J0D01*
G01*
X140440800Y-87960000D01*
G75*
G02*
X140565800Y-88085000I0J-125000D01*
G01*
G37*
G36*
G01*
X140565800Y-88885000D02*
X140565800Y-89135000D01*
G75*
G02*
X140440800Y-89260000I-125000J0D01*
G01*
X139190800Y-89260000D01*
G75*
G02*
X139065800Y-89135000I0J125000D01*
G01*
X139065800Y-88885000D01*
G75*
G02*
X139190800Y-88760000I125000J0D01*
G01*
X140440800Y-88760000D01*
G75*
G02*
X140565800Y-88885000I0J-125000D01*
G01*
G37*
%TD*%
%TO.C,R22*%
G36*
G01*
X120414800Y-79065400D02*
X120414800Y-79435400D01*
G75*
G02*
X120279800Y-79570400I-135000J0D01*
G01*
X120009800Y-79570400D01*
G75*
G02*
X119874800Y-79435400I0J135000D01*
G01*
X119874800Y-79065400D01*
G75*
G02*
X120009800Y-78930400I135000J0D01*
G01*
X120279800Y-78930400D01*
G75*
G02*
X120414800Y-79065400I0J-135000D01*
G01*
G37*
G36*
G01*
X121434800Y-79065400D02*
X121434800Y-79435400D01*
G75*
G02*
X121299800Y-79570400I-135000J0D01*
G01*
X121029800Y-79570400D01*
G75*
G02*
X120894800Y-79435400I0J135000D01*
G01*
X120894800Y-79065400D01*
G75*
G02*
X121029800Y-78930400I135000J0D01*
G01*
X121299800Y-78930400D01*
G75*
G02*
X121434800Y-79065400I0J-135000D01*
G01*
G37*
%TD*%
%TO.C,R6*%
G36*
G01*
X120364000Y-77541400D02*
X120364000Y-77911400D01*
G75*
G02*
X120229000Y-78046400I-135000J0D01*
G01*
X119959000Y-78046400D01*
G75*
G02*
X119824000Y-77911400I0J135000D01*
G01*
X119824000Y-77541400D01*
G75*
G02*
X119959000Y-77406400I135000J0D01*
G01*
X120229000Y-77406400D01*
G75*
G02*
X120364000Y-77541400I0J-135000D01*
G01*
G37*
G36*
G01*
X121384000Y-77541400D02*
X121384000Y-77911400D01*
G75*
G02*
X121249000Y-78046400I-135000J0D01*
G01*
X120979000Y-78046400D01*
G75*
G02*
X120844000Y-77911400I0J135000D01*
G01*
X120844000Y-77541400D01*
G75*
G02*
X120979000Y-77406400I135000J0D01*
G01*
X121249000Y-77406400D01*
G75*
G02*
X121384000Y-77541400I0J-135000D01*
G01*
G37*
%TD*%
%TO.C,L2*%
G36*
G01*
X142687800Y-86977300D02*
X142687800Y-87322300D01*
G75*
G02*
X142540300Y-87469800I-147500J0D01*
G01*
X142245300Y-87469800D01*
G75*
G02*
X142097800Y-87322300I0J147500D01*
G01*
X142097800Y-86977300D01*
G75*
G02*
X142245300Y-86829800I147500J0D01*
G01*
X142540300Y-86829800D01*
G75*
G02*
X142687800Y-86977300I0J-147500D01*
G01*
G37*
G36*
G01*
X143657800Y-86977300D02*
X143657800Y-87322300D01*
G75*
G02*
X143510300Y-87469800I-147500J0D01*
G01*
X143215300Y-87469800D01*
G75*
G02*
X143067800Y-87322300I0J147500D01*
G01*
X143067800Y-86977300D01*
G75*
G02*
X143215300Y-86829800I147500J0D01*
G01*
X143510300Y-86829800D01*
G75*
G02*
X143657800Y-86977300I0J-147500D01*
G01*
G37*
%TD*%
D11*
%TO.C,J1*%
X123383000Y-87226000D03*
X118333000Y-87226000D03*
X123383000Y-84686000D03*
X118333000Y-84686000D03*
X123383000Y-82146000D03*
X118333000Y-82146000D03*
%TD*%
D12*
%TO.C,D22*%
X144734000Y-113125000D03*
X144734000Y-108825000D03*
%TD*%
%TO.C,C9*%
G36*
G01*
X148097999Y-109408800D02*
X149498001Y-109408800D01*
G75*
G02*
X149748000Y-109658799I0J-249999D01*
G01*
X149748000Y-110208801D01*
G75*
G02*
X149498001Y-110458800I-249999J0D01*
G01*
X148097999Y-110458800D01*
G75*
G02*
X147848000Y-110208801I0J249999D01*
G01*
X147848000Y-109658799D01*
G75*
G02*
X148097999Y-109408800I249999J0D01*
G01*
G37*
G36*
G01*
X148097999Y-106258800D02*
X149498001Y-106258800D01*
G75*
G02*
X149748000Y-106508799I0J-249999D01*
G01*
X149748000Y-107058801D01*
G75*
G02*
X149498001Y-107308800I-249999J0D01*
G01*
X148097999Y-107308800D01*
G75*
G02*
X147848000Y-107058801I0J249999D01*
G01*
X147848000Y-106508799D01*
G75*
G02*
X148097999Y-106258800I249999J0D01*
G01*
G37*
%TD*%
%TO.C,R26*%
G36*
G01*
X138961000Y-96229000D02*
X139331000Y-96229000D01*
G75*
G02*
X139466000Y-96364000I0J-135000D01*
G01*
X139466000Y-96634000D01*
G75*
G02*
X139331000Y-96769000I-135000J0D01*
G01*
X138961000Y-96769000D01*
G75*
G02*
X138826000Y-96634000I0J135000D01*
G01*
X138826000Y-96364000D01*
G75*
G02*
X138961000Y-96229000I135000J0D01*
G01*
G37*
G36*
G01*
X138961000Y-95209000D02*
X139331000Y-95209000D01*
G75*
G02*
X139466000Y-95344000I0J-135000D01*
G01*
X139466000Y-95614000D01*
G75*
G02*
X139331000Y-95749000I-135000J0D01*
G01*
X138961000Y-95749000D01*
G75*
G02*
X138826000Y-95614000I0J135000D01*
G01*
X138826000Y-95344000D01*
G75*
G02*
X138961000Y-95209000I135000J0D01*
G01*
G37*
%TD*%
%TO.C,R25*%
G36*
G01*
X136388800Y-95081800D02*
X136388800Y-94711800D01*
G75*
G02*
X136523800Y-94576800I135000J0D01*
G01*
X136793800Y-94576800D01*
G75*
G02*
X136928800Y-94711800I0J-135000D01*
G01*
X136928800Y-95081800D01*
G75*
G02*
X136793800Y-95216800I-135000J0D01*
G01*
X136523800Y-95216800D01*
G75*
G02*
X136388800Y-95081800I0J135000D01*
G01*
G37*
G36*
G01*
X135368800Y-95081800D02*
X135368800Y-94711800D01*
G75*
G02*
X135503800Y-94576800I135000J0D01*
G01*
X135773800Y-94576800D01*
G75*
G02*
X135908800Y-94711800I0J-135000D01*
G01*
X135908800Y-95081800D01*
G75*
G02*
X135773800Y-95216800I-135000J0D01*
G01*
X135503800Y-95216800D01*
G75*
G02*
X135368800Y-95081800I0J135000D01*
G01*
G37*
%TD*%
%TO.C,R24*%
G36*
G01*
X134715000Y-95804000D02*
X134715000Y-96174000D01*
G75*
G02*
X134580000Y-96309000I-135000J0D01*
G01*
X134310000Y-96309000D01*
G75*
G02*
X134175000Y-96174000I0J135000D01*
G01*
X134175000Y-95804000D01*
G75*
G02*
X134310000Y-95669000I135000J0D01*
G01*
X134580000Y-95669000D01*
G75*
G02*
X134715000Y-95804000I0J-135000D01*
G01*
G37*
G36*
G01*
X135735000Y-95804000D02*
X135735000Y-96174000D01*
G75*
G02*
X135600000Y-96309000I-135000J0D01*
G01*
X135330000Y-96309000D01*
G75*
G02*
X135195000Y-96174000I0J135000D01*
G01*
X135195000Y-95804000D01*
G75*
G02*
X135330000Y-95669000I135000J0D01*
G01*
X135600000Y-95669000D01*
G75*
G02*
X135735000Y-95804000I0J-135000D01*
G01*
G37*
%TD*%
%TO.C,C18*%
G36*
G01*
X123960000Y-95438000D02*
X123960000Y-95778000D01*
G75*
G02*
X123820000Y-95918000I-140000J0D01*
G01*
X123540000Y-95918000D01*
G75*
G02*
X123400000Y-95778000I0J140000D01*
G01*
X123400000Y-95438000D01*
G75*
G02*
X123540000Y-95298000I140000J0D01*
G01*
X123820000Y-95298000D01*
G75*
G02*
X123960000Y-95438000I0J-140000D01*
G01*
G37*
G36*
G01*
X124920000Y-95438000D02*
X124920000Y-95778000D01*
G75*
G02*
X124780000Y-95918000I-140000J0D01*
G01*
X124500000Y-95918000D01*
G75*
G02*
X124360000Y-95778000I0J140000D01*
G01*
X124360000Y-95438000D01*
G75*
G02*
X124500000Y-95298000I140000J0D01*
G01*
X124780000Y-95298000D01*
G75*
G02*
X124920000Y-95438000I0J-140000D01*
G01*
G37*
%TD*%
%TO.C,C17*%
G36*
G01*
X141770000Y-96189000D02*
X142110000Y-96189000D01*
G75*
G02*
X142250000Y-96329000I0J-140000D01*
G01*
X142250000Y-96609000D01*
G75*
G02*
X142110000Y-96749000I-140000J0D01*
G01*
X141770000Y-96749000D01*
G75*
G02*
X141630000Y-96609000I0J140000D01*
G01*
X141630000Y-96329000D01*
G75*
G02*
X141770000Y-96189000I140000J0D01*
G01*
G37*
G36*
G01*
X141770000Y-95229000D02*
X142110000Y-95229000D01*
G75*
G02*
X142250000Y-95369000I0J-140000D01*
G01*
X142250000Y-95649000D01*
G75*
G02*
X142110000Y-95789000I-140000J0D01*
G01*
X141770000Y-95789000D01*
G75*
G02*
X141630000Y-95649000I0J140000D01*
G01*
X141630000Y-95369000D01*
G75*
G02*
X141770000Y-95229000I140000J0D01*
G01*
G37*
%TD*%
%TO.C,C16*%
G36*
G01*
X125992000Y-96200000D02*
X125992000Y-96540000D01*
G75*
G02*
X125852000Y-96680000I-140000J0D01*
G01*
X125572000Y-96680000D01*
G75*
G02*
X125432000Y-96540000I0J140000D01*
G01*
X125432000Y-96200000D01*
G75*
G02*
X125572000Y-96060000I140000J0D01*
G01*
X125852000Y-96060000D01*
G75*
G02*
X125992000Y-96200000I0J-140000D01*
G01*
G37*
G36*
G01*
X126952000Y-96200000D02*
X126952000Y-96540000D01*
G75*
G02*
X126812000Y-96680000I-140000J0D01*
G01*
X126532000Y-96680000D01*
G75*
G02*
X126392000Y-96540000I0J140000D01*
G01*
X126392000Y-96200000D01*
G75*
G02*
X126532000Y-96060000I140000J0D01*
G01*
X126812000Y-96060000D01*
G75*
G02*
X126952000Y-96200000I0J-140000D01*
G01*
G37*
%TD*%
%TO.C,C15*%
G36*
G01*
X140373000Y-96189000D02*
X140713000Y-96189000D01*
G75*
G02*
X140853000Y-96329000I0J-140000D01*
G01*
X140853000Y-96609000D01*
G75*
G02*
X140713000Y-96749000I-140000J0D01*
G01*
X140373000Y-96749000D01*
G75*
G02*
X140233000Y-96609000I0J140000D01*
G01*
X140233000Y-96329000D01*
G75*
G02*
X140373000Y-96189000I140000J0D01*
G01*
G37*
G36*
G01*
X140373000Y-95229000D02*
X140713000Y-95229000D01*
G75*
G02*
X140853000Y-95369000I0J-140000D01*
G01*
X140853000Y-95649000D01*
G75*
G02*
X140713000Y-95789000I-140000J0D01*
G01*
X140373000Y-95789000D01*
G75*
G02*
X140233000Y-95649000I0J140000D01*
G01*
X140233000Y-95369000D01*
G75*
G02*
X140373000Y-95229000I140000J0D01*
G01*
G37*
%TD*%
%TO.C,C14*%
G36*
G01*
X129197000Y-96062000D02*
X129537000Y-96062000D01*
G75*
G02*
X129677000Y-96202000I0J-140000D01*
G01*
X129677000Y-96482000D01*
G75*
G02*
X129537000Y-96622000I-140000J0D01*
G01*
X129197000Y-96622000D01*
G75*
G02*
X129057000Y-96482000I0J140000D01*
G01*
X129057000Y-96202000D01*
G75*
G02*
X129197000Y-96062000I140000J0D01*
G01*
G37*
G36*
G01*
X129197000Y-95102000D02*
X129537000Y-95102000D01*
G75*
G02*
X129677000Y-95242000I0J-140000D01*
G01*
X129677000Y-95522000D01*
G75*
G02*
X129537000Y-95662000I-140000J0D01*
G01*
X129197000Y-95662000D01*
G75*
G02*
X129057000Y-95522000I0J140000D01*
G01*
X129057000Y-95242000D01*
G75*
G02*
X129197000Y-95102000I140000J0D01*
G01*
G37*
%TD*%
%TO.C,C13*%
G36*
G01*
X130594000Y-96062000D02*
X130934000Y-96062000D01*
G75*
G02*
X131074000Y-96202000I0J-140000D01*
G01*
X131074000Y-96482000D01*
G75*
G02*
X130934000Y-96622000I-140000J0D01*
G01*
X130594000Y-96622000D01*
G75*
G02*
X130454000Y-96482000I0J140000D01*
G01*
X130454000Y-96202000D01*
G75*
G02*
X130594000Y-96062000I140000J0D01*
G01*
G37*
G36*
G01*
X130594000Y-95102000D02*
X130934000Y-95102000D01*
G75*
G02*
X131074000Y-95242000I0J-140000D01*
G01*
X131074000Y-95522000D01*
G75*
G02*
X130934000Y-95662000I-140000J0D01*
G01*
X130594000Y-95662000D01*
G75*
G02*
X130454000Y-95522000I0J140000D01*
G01*
X130454000Y-95242000D01*
G75*
G02*
X130594000Y-95102000I140000J0D01*
G01*
G37*
%TD*%
%TO.C,C8*%
G36*
G01*
X123926500Y-113905500D02*
X124266500Y-113905500D01*
G75*
G02*
X124406500Y-114045500I0J-140000D01*
G01*
X124406500Y-114325500D01*
G75*
G02*
X124266500Y-114465500I-140000J0D01*
G01*
X123926500Y-114465500D01*
G75*
G02*
X123786500Y-114325500I0J140000D01*
G01*
X123786500Y-114045500D01*
G75*
G02*
X123926500Y-113905500I140000J0D01*
G01*
G37*
G36*
G01*
X123926500Y-112945500D02*
X124266500Y-112945500D01*
G75*
G02*
X124406500Y-113085500I0J-140000D01*
G01*
X124406500Y-113365500D01*
G75*
G02*
X124266500Y-113505500I-140000J0D01*
G01*
X123926500Y-113505500D01*
G75*
G02*
X123786500Y-113365500I0J140000D01*
G01*
X123786500Y-113085500D01*
G75*
G02*
X123926500Y-112945500I140000J0D01*
G01*
G37*
%TD*%
%TO.C,C7*%
G36*
G01*
X123926500Y-111873500D02*
X124266500Y-111873500D01*
G75*
G02*
X124406500Y-112013500I0J-140000D01*
G01*
X124406500Y-112293500D01*
G75*
G02*
X124266500Y-112433500I-140000J0D01*
G01*
X123926500Y-112433500D01*
G75*
G02*
X123786500Y-112293500I0J140000D01*
G01*
X123786500Y-112013500D01*
G75*
G02*
X123926500Y-111873500I140000J0D01*
G01*
G37*
G36*
G01*
X123926500Y-110913500D02*
X124266500Y-110913500D01*
G75*
G02*
X124406500Y-111053500I0J-140000D01*
G01*
X124406500Y-111333500D01*
G75*
G02*
X124266500Y-111473500I-140000J0D01*
G01*
X123926500Y-111473500D01*
G75*
G02*
X123786500Y-111333500I0J140000D01*
G01*
X123786500Y-111053500D01*
G75*
G02*
X123926500Y-110913500I140000J0D01*
G01*
G37*
%TD*%
%TO.C,C5*%
G36*
G01*
X119788000Y-104414000D02*
X119788000Y-104074000D01*
G75*
G02*
X119928000Y-103934000I140000J0D01*
G01*
X120208000Y-103934000D01*
G75*
G02*
X120348000Y-104074000I0J-140000D01*
G01*
X120348000Y-104414000D01*
G75*
G02*
X120208000Y-104554000I-140000J0D01*
G01*
X119928000Y-104554000D01*
G75*
G02*
X119788000Y-104414000I0J140000D01*
G01*
G37*
G36*
G01*
X118828000Y-104414000D02*
X118828000Y-104074000D01*
G75*
G02*
X118968000Y-103934000I140000J0D01*
G01*
X119248000Y-103934000D01*
G75*
G02*
X119388000Y-104074000I0J-140000D01*
G01*
X119388000Y-104414000D01*
G75*
G02*
X119248000Y-104554000I-140000J0D01*
G01*
X118968000Y-104554000D01*
G75*
G02*
X118828000Y-104414000I0J140000D01*
G01*
G37*
%TD*%
%TO.C,C4*%
G36*
G01*
X143079800Y-84906800D02*
X143079800Y-84566800D01*
G75*
G02*
X143219800Y-84426800I140000J0D01*
G01*
X143499800Y-84426800D01*
G75*
G02*
X143639800Y-84566800I0J-140000D01*
G01*
X143639800Y-84906800D01*
G75*
G02*
X143499800Y-85046800I-140000J0D01*
G01*
X143219800Y-85046800D01*
G75*
G02*
X143079800Y-84906800I0J140000D01*
G01*
G37*
G36*
G01*
X142119800Y-84906800D02*
X142119800Y-84566800D01*
G75*
G02*
X142259800Y-84426800I140000J0D01*
G01*
X142539800Y-84426800D01*
G75*
G02*
X142679800Y-84566800I0J-140000D01*
G01*
X142679800Y-84906800D01*
G75*
G02*
X142539800Y-85046800I-140000J0D01*
G01*
X142259800Y-85046800D01*
G75*
G02*
X142119800Y-84906800I0J140000D01*
G01*
G37*
%TD*%
%TO.C,C3*%
G36*
G01*
X143079800Y-86049800D02*
X143079800Y-85709800D01*
G75*
G02*
X143219800Y-85569800I140000J0D01*
G01*
X143499800Y-85569800D01*
G75*
G02*
X143639800Y-85709800I0J-140000D01*
G01*
X143639800Y-86049800D01*
G75*
G02*
X143499800Y-86189800I-140000J0D01*
G01*
X143219800Y-86189800D01*
G75*
G02*
X143079800Y-86049800I0J140000D01*
G01*
G37*
G36*
G01*
X142119800Y-86049800D02*
X142119800Y-85709800D01*
G75*
G02*
X142259800Y-85569800I140000J0D01*
G01*
X142539800Y-85569800D01*
G75*
G02*
X142679800Y-85709800I0J-140000D01*
G01*
X142679800Y-86049800D01*
G75*
G02*
X142539800Y-86189800I-140000J0D01*
G01*
X142259800Y-86189800D01*
G75*
G02*
X142119800Y-86049800I0J140000D01*
G01*
G37*
%TD*%
%TO.C,C2*%
G36*
G01*
X141871600Y-90880400D02*
X142211600Y-90880400D01*
G75*
G02*
X142351600Y-91020400I0J-140000D01*
G01*
X142351600Y-91300400D01*
G75*
G02*
X142211600Y-91440400I-140000J0D01*
G01*
X141871600Y-91440400D01*
G75*
G02*
X141731600Y-91300400I0J140000D01*
G01*
X141731600Y-91020400D01*
G75*
G02*
X141871600Y-90880400I140000J0D01*
G01*
G37*
G36*
G01*
X141871600Y-89920400D02*
X142211600Y-89920400D01*
G75*
G02*
X142351600Y-90060400I0J-140000D01*
G01*
X142351600Y-90340400D01*
G75*
G02*
X142211600Y-90480400I-140000J0D01*
G01*
X141871600Y-90480400D01*
G75*
G02*
X141731600Y-90340400I0J140000D01*
G01*
X141731600Y-90060400D01*
G75*
G02*
X141871600Y-89920400I140000J0D01*
G01*
G37*
%TD*%
%TO.C,C1*%
G36*
G01*
X130222800Y-80698800D02*
X129882800Y-80698800D01*
G75*
G02*
X129742800Y-80558800I0J140000D01*
G01*
X129742800Y-80278800D01*
G75*
G02*
X129882800Y-80138800I140000J0D01*
G01*
X130222800Y-80138800D01*
G75*
G02*
X130362800Y-80278800I0J-140000D01*
G01*
X130362800Y-80558800D01*
G75*
G02*
X130222800Y-80698800I-140000J0D01*
G01*
G37*
G36*
G01*
X130222800Y-81658800D02*
X129882800Y-81658800D01*
G75*
G02*
X129742800Y-81518800I0J140000D01*
G01*
X129742800Y-81238800D01*
G75*
G02*
X129882800Y-81098800I140000J0D01*
G01*
X130222800Y-81098800D01*
G75*
G02*
X130362800Y-81238800I0J-140000D01*
G01*
X130362800Y-81518800D01*
G75*
G02*
X130222800Y-81658800I-140000J0D01*
G01*
G37*
%TD*%
%TO.C,R15*%
G36*
G01*
X116173000Y-101392000D02*
X116173000Y-101762000D01*
G75*
G02*
X116038000Y-101897000I-135000J0D01*
G01*
X115768000Y-101897000D01*
G75*
G02*
X115633000Y-101762000I0J135000D01*
G01*
X115633000Y-101392000D01*
G75*
G02*
X115768000Y-101257000I135000J0D01*
G01*
X116038000Y-101257000D01*
G75*
G02*
X116173000Y-101392000I0J-135000D01*
G01*
G37*
G36*
G01*
X117193000Y-101392000D02*
X117193000Y-101762000D01*
G75*
G02*
X117058000Y-101897000I-135000J0D01*
G01*
X116788000Y-101897000D01*
G75*
G02*
X116653000Y-101762000I0J135000D01*
G01*
X116653000Y-101392000D01*
G75*
G02*
X116788000Y-101257000I135000J0D01*
G01*
X117058000Y-101257000D01*
G75*
G02*
X117193000Y-101392000I0J-135000D01*
G01*
G37*
%TD*%
%TO.C,R14*%
G36*
G01*
X116173000Y-100122000D02*
X116173000Y-100492000D01*
G75*
G02*
X116038000Y-100627000I-135000J0D01*
G01*
X115768000Y-100627000D01*
G75*
G02*
X115633000Y-100492000I0J135000D01*
G01*
X115633000Y-100122000D01*
G75*
G02*
X115768000Y-99987000I135000J0D01*
G01*
X116038000Y-99987000D01*
G75*
G02*
X116173000Y-100122000I0J-135000D01*
G01*
G37*
G36*
G01*
X117193000Y-100122000D02*
X117193000Y-100492000D01*
G75*
G02*
X117058000Y-100627000I-135000J0D01*
G01*
X116788000Y-100627000D01*
G75*
G02*
X116653000Y-100492000I0J135000D01*
G01*
X116653000Y-100122000D01*
G75*
G02*
X116788000Y-99987000I135000J0D01*
G01*
X117058000Y-99987000D01*
G75*
G02*
X117193000Y-100122000I0J-135000D01*
G01*
G37*
%TD*%
%TO.C,R13*%
G36*
G01*
X116300000Y-95423000D02*
X116300000Y-95793000D01*
G75*
G02*
X116165000Y-95928000I-135000J0D01*
G01*
X115895000Y-95928000D01*
G75*
G02*
X115760000Y-95793000I0J135000D01*
G01*
X115760000Y-95423000D01*
G75*
G02*
X115895000Y-95288000I135000J0D01*
G01*
X116165000Y-95288000D01*
G75*
G02*
X116300000Y-95423000I0J-135000D01*
G01*
G37*
G36*
G01*
X117320000Y-95423000D02*
X117320000Y-95793000D01*
G75*
G02*
X117185000Y-95928000I-135000J0D01*
G01*
X116915000Y-95928000D01*
G75*
G02*
X116780000Y-95793000I0J135000D01*
G01*
X116780000Y-95423000D01*
G75*
G02*
X116915000Y-95288000I135000J0D01*
G01*
X117185000Y-95288000D01*
G75*
G02*
X117320000Y-95423000I0J-135000D01*
G01*
G37*
%TD*%
%TO.C,R12*%
G36*
G01*
X116780000Y-94396000D02*
X116780000Y-94026000D01*
G75*
G02*
X116915000Y-93891000I135000J0D01*
G01*
X117185000Y-93891000D01*
G75*
G02*
X117320000Y-94026000I0J-135000D01*
G01*
X117320000Y-94396000D01*
G75*
G02*
X117185000Y-94531000I-135000J0D01*
G01*
X116915000Y-94531000D01*
G75*
G02*
X116780000Y-94396000I0J135000D01*
G01*
G37*
G36*
G01*
X115760000Y-94396000D02*
X115760000Y-94026000D01*
G75*
G02*
X115895000Y-93891000I135000J0D01*
G01*
X116165000Y-93891000D01*
G75*
G02*
X116300000Y-94026000I0J-135000D01*
G01*
X116300000Y-94396000D01*
G75*
G02*
X116165000Y-94531000I-135000J0D01*
G01*
X115895000Y-94531000D01*
G75*
G02*
X115760000Y-94396000I0J135000D01*
G01*
G37*
%TD*%
%TO.C,R11*%
G36*
G01*
X116300000Y-92629000D02*
X116300000Y-92999000D01*
G75*
G02*
X116165000Y-93134000I-135000J0D01*
G01*
X115895000Y-93134000D01*
G75*
G02*
X115760000Y-92999000I0J135000D01*
G01*
X115760000Y-92629000D01*
G75*
G02*
X115895000Y-92494000I135000J0D01*
G01*
X116165000Y-92494000D01*
G75*
G02*
X116300000Y-92629000I0J-135000D01*
G01*
G37*
G36*
G01*
X117320000Y-92629000D02*
X117320000Y-92999000D01*
G75*
G02*
X117185000Y-93134000I-135000J0D01*
G01*
X116915000Y-93134000D01*
G75*
G02*
X116780000Y-92999000I0J135000D01*
G01*
X116780000Y-92629000D01*
G75*
G02*
X116915000Y-92494000I135000J0D01*
G01*
X117185000Y-92494000D01*
G75*
G02*
X117320000Y-92629000I0J-135000D01*
G01*
G37*
%TD*%
%TO.C,R10*%
G36*
G01*
X116173000Y-98852000D02*
X116173000Y-99222000D01*
G75*
G02*
X116038000Y-99357000I-135000J0D01*
G01*
X115768000Y-99357000D01*
G75*
G02*
X115633000Y-99222000I0J135000D01*
G01*
X115633000Y-98852000D01*
G75*
G02*
X115768000Y-98717000I135000J0D01*
G01*
X116038000Y-98717000D01*
G75*
G02*
X116173000Y-98852000I0J-135000D01*
G01*
G37*
G36*
G01*
X117193000Y-98852000D02*
X117193000Y-99222000D01*
G75*
G02*
X117058000Y-99357000I-135000J0D01*
G01*
X116788000Y-99357000D01*
G75*
G02*
X116653000Y-99222000I0J135000D01*
G01*
X116653000Y-98852000D01*
G75*
G02*
X116788000Y-98717000I135000J0D01*
G01*
X117058000Y-98717000D01*
G75*
G02*
X117193000Y-98852000I0J-135000D01*
G01*
G37*
%TD*%
%TO.C,R1*%
G36*
G01*
X138344600Y-92592600D02*
X138344600Y-92222600D01*
G75*
G02*
X138479600Y-92087600I135000J0D01*
G01*
X138749600Y-92087600D01*
G75*
G02*
X138884600Y-92222600I0J-135000D01*
G01*
X138884600Y-92592600D01*
G75*
G02*
X138749600Y-92727600I-135000J0D01*
G01*
X138479600Y-92727600D01*
G75*
G02*
X138344600Y-92592600I0J135000D01*
G01*
G37*
G36*
G01*
X137324600Y-92592600D02*
X137324600Y-92222600D01*
G75*
G02*
X137459600Y-92087600I135000J0D01*
G01*
X137729600Y-92087600D01*
G75*
G02*
X137864600Y-92222600I0J-135000D01*
G01*
X137864600Y-92592600D01*
G75*
G02*
X137729600Y-92727600I-135000J0D01*
G01*
X137459600Y-92727600D01*
G75*
G02*
X137324600Y-92592600I0J135000D01*
G01*
G37*
%TD*%
D13*
%TO.C,D21*%
X150391600Y-103329600D03*
X146391600Y-103329600D03*
%TD*%
%TO.C,U2*%
G36*
G01*
X121343000Y-110316000D02*
X121643000Y-110316000D01*
G75*
G02*
X121793000Y-110466000I0J-150000D01*
G01*
X121793000Y-112116000D01*
G75*
G02*
X121643000Y-112266000I-150000J0D01*
G01*
X121343000Y-112266000D01*
G75*
G02*
X121193000Y-112116000I0J150000D01*
G01*
X121193000Y-110466000D01*
G75*
G02*
X121343000Y-110316000I150000J0D01*
G01*
G37*
G36*
G01*
X120073000Y-110316000D02*
X120373000Y-110316000D01*
G75*
G02*
X120523000Y-110466000I0J-150000D01*
G01*
X120523000Y-112116000D01*
G75*
G02*
X120373000Y-112266000I-150000J0D01*
G01*
X120073000Y-112266000D01*
G75*
G02*
X119923000Y-112116000I0J150000D01*
G01*
X119923000Y-110466000D01*
G75*
G02*
X120073000Y-110316000I150000J0D01*
G01*
G37*
G36*
G01*
X118803000Y-110316000D02*
X119103000Y-110316000D01*
G75*
G02*
X119253000Y-110466000I0J-150000D01*
G01*
X119253000Y-112116000D01*
G75*
G02*
X119103000Y-112266000I-150000J0D01*
G01*
X118803000Y-112266000D01*
G75*
G02*
X118653000Y-112116000I0J150000D01*
G01*
X118653000Y-110466000D01*
G75*
G02*
X118803000Y-110316000I150000J0D01*
G01*
G37*
G36*
G01*
X117533000Y-110316000D02*
X117833000Y-110316000D01*
G75*
G02*
X117983000Y-110466000I0J-150000D01*
G01*
X117983000Y-112116000D01*
G75*
G02*
X117833000Y-112266000I-150000J0D01*
G01*
X117533000Y-112266000D01*
G75*
G02*
X117383000Y-112116000I0J150000D01*
G01*
X117383000Y-110466000D01*
G75*
G02*
X117533000Y-110316000I150000J0D01*
G01*
G37*
G36*
G01*
X117533000Y-105366000D02*
X117833000Y-105366000D01*
G75*
G02*
X117983000Y-105516000I0J-150000D01*
G01*
X117983000Y-107166000D01*
G75*
G02*
X117833000Y-107316000I-150000J0D01*
G01*
X117533000Y-107316000D01*
G75*
G02*
X117383000Y-107166000I0J150000D01*
G01*
X117383000Y-105516000D01*
G75*
G02*
X117533000Y-105366000I150000J0D01*
G01*
G37*
G36*
G01*
X118803000Y-105366000D02*
X119103000Y-105366000D01*
G75*
G02*
X119253000Y-105516000I0J-150000D01*
G01*
X119253000Y-107166000D01*
G75*
G02*
X119103000Y-107316000I-150000J0D01*
G01*
X118803000Y-107316000D01*
G75*
G02*
X118653000Y-107166000I0J150000D01*
G01*
X118653000Y-105516000D01*
G75*
G02*
X118803000Y-105366000I150000J0D01*
G01*
G37*
G36*
G01*
X120073000Y-105366000D02*
X120373000Y-105366000D01*
G75*
G02*
X120523000Y-105516000I0J-150000D01*
G01*
X120523000Y-107166000D01*
G75*
G02*
X120373000Y-107316000I-150000J0D01*
G01*
X120073000Y-107316000D01*
G75*
G02*
X119923000Y-107166000I0J150000D01*
G01*
X119923000Y-105516000D01*
G75*
G02*
X120073000Y-105366000I150000J0D01*
G01*
G37*
G36*
G01*
X121343000Y-105366000D02*
X121643000Y-105366000D01*
G75*
G02*
X121793000Y-105516000I0J-150000D01*
G01*
X121793000Y-107166000D01*
G75*
G02*
X121643000Y-107316000I-150000J0D01*
G01*
X121343000Y-107316000D01*
G75*
G02*
X121193000Y-107166000I0J150000D01*
G01*
X121193000Y-105516000D01*
G75*
G02*
X121343000Y-105366000I150000J0D01*
G01*
G37*
%TD*%
M02*
