%TF.GenerationSoftware,KiCad,Pcbnew,(5.1.10)-1*%
%TF.CreationDate,2022-01-29T15:25:58-05:00*%
%TF.ProjectId,CAN_Gauge,43414e5f-4761-4756-9765-2e6b69636164,rev?*%
%TF.SameCoordinates,Original*%
%TF.FileFunction,Legend,Top*%
%TF.FilePolarity,Positive*%
%FSLAX46Y46*%
G04 Gerber Fmt 4.6, Leading zero omitted, Abs format (unit mm)*
G04 Created by KiCad (PCBNEW (5.1.10)-1) date 2022-01-29 15:25:58*
%MOMM*%
%LPD*%
G01*
G04 APERTURE LIST*
%ADD10C,0.250000*%
%ADD11C,0.200000*%
%ADD12C,0.120000*%
%ADD13C,0.125000*%
%ADD14C,0.150000*%
G04 APERTURE END LIST*
D10*
X118184304Y-77284028D02*
X118124780Y-77343552D01*
X117946209Y-77403076D01*
X117827161Y-77403076D01*
X117648590Y-77343552D01*
X117529542Y-77224504D01*
X117470019Y-77105457D01*
X117410495Y-76867361D01*
X117410495Y-76688790D01*
X117470019Y-76450695D01*
X117529542Y-76331647D01*
X117648590Y-76212600D01*
X117827161Y-76153076D01*
X117946209Y-76153076D01*
X118124780Y-76212600D01*
X118184304Y-76272123D01*
X118660495Y-77045933D02*
X119255733Y-77045933D01*
X118541447Y-77403076D02*
X118958114Y-76153076D01*
X119374780Y-77403076D01*
X119791447Y-77403076D02*
X119791447Y-76153076D01*
X120505733Y-77403076D01*
X120505733Y-76153076D01*
X122708114Y-76212600D02*
X122589066Y-76153076D01*
X122410495Y-76153076D01*
X122231923Y-76212600D01*
X122112876Y-76331647D01*
X122053352Y-76450695D01*
X121993828Y-76688790D01*
X121993828Y-76867361D01*
X122053352Y-77105457D01*
X122112876Y-77224504D01*
X122231923Y-77343552D01*
X122410495Y-77403076D01*
X122529542Y-77403076D01*
X122708114Y-77343552D01*
X122767638Y-77284028D01*
X122767638Y-76867361D01*
X122529542Y-76867361D01*
X123839066Y-77403076D02*
X123839066Y-76748314D01*
X123779542Y-76629266D01*
X123660495Y-76569742D01*
X123422400Y-76569742D01*
X123303352Y-76629266D01*
X123839066Y-77343552D02*
X123720019Y-77403076D01*
X123422400Y-77403076D01*
X123303352Y-77343552D01*
X123243828Y-77224504D01*
X123243828Y-77105457D01*
X123303352Y-76986409D01*
X123422400Y-76926885D01*
X123720019Y-76926885D01*
X123839066Y-76867361D01*
X124970019Y-76569742D02*
X124970019Y-77403076D01*
X124434304Y-76569742D02*
X124434304Y-77224504D01*
X124493828Y-77343552D01*
X124612876Y-77403076D01*
X124791447Y-77403076D01*
X124910495Y-77343552D01*
X124970019Y-77284028D01*
X126100971Y-76569742D02*
X126100971Y-77581647D01*
X126041447Y-77700695D01*
X125981923Y-77760219D01*
X125862876Y-77819742D01*
X125684304Y-77819742D01*
X125565257Y-77760219D01*
X126100971Y-77343552D02*
X125981923Y-77403076D01*
X125743828Y-77403076D01*
X125624780Y-77343552D01*
X125565257Y-77284028D01*
X125505733Y-77164980D01*
X125505733Y-76807838D01*
X125565257Y-76688790D01*
X125624780Y-76629266D01*
X125743828Y-76569742D01*
X125981923Y-76569742D01*
X126100971Y-76629266D01*
X127172400Y-77343552D02*
X127053352Y-77403076D01*
X126815257Y-77403076D01*
X126696209Y-77343552D01*
X126636685Y-77224504D01*
X126636685Y-76748314D01*
X126696209Y-76629266D01*
X126815257Y-76569742D01*
X127053352Y-76569742D01*
X127172400Y-76629266D01*
X127231923Y-76748314D01*
X127231923Y-76867361D01*
X126636685Y-76986409D01*
X117886685Y-78873314D02*
X117470019Y-78873314D01*
X117470019Y-79528076D02*
X117470019Y-78278076D01*
X118065257Y-78278076D01*
X119196209Y-79528076D02*
X118481923Y-79528076D01*
X118839066Y-79528076D02*
X118839066Y-78278076D01*
X118720019Y-78456647D01*
X118600971Y-78575695D01*
X118481923Y-78635219D01*
X119970019Y-78278076D02*
X120089066Y-78278076D01*
X120208114Y-78337600D01*
X120267638Y-78397123D01*
X120327161Y-78516171D01*
X120386685Y-78754266D01*
X120386685Y-79051885D01*
X120327161Y-79289980D01*
X120267638Y-79409028D01*
X120208114Y-79468552D01*
X120089066Y-79528076D01*
X119970019Y-79528076D01*
X119850971Y-79468552D01*
X119791447Y-79409028D01*
X119731923Y-79289980D01*
X119672400Y-79051885D01*
X119672400Y-78754266D01*
X119731923Y-78516171D01*
X119791447Y-78397123D01*
X119850971Y-78337600D01*
X119970019Y-78278076D01*
X120803352Y-78278076D02*
X121577161Y-78278076D01*
X121160495Y-78754266D01*
X121339066Y-78754266D01*
X121458114Y-78813790D01*
X121517638Y-78873314D01*
X121577161Y-78992361D01*
X121577161Y-79289980D01*
X121517638Y-79409028D01*
X121458114Y-79468552D01*
X121339066Y-79528076D01*
X120981923Y-79528076D01*
X120862876Y-79468552D01*
X120803352Y-79409028D01*
X123779542Y-79528076D02*
X123362876Y-78932838D01*
X123065257Y-79528076D02*
X123065257Y-78278076D01*
X123541447Y-78278076D01*
X123660495Y-78337600D01*
X123720019Y-78397123D01*
X123779542Y-78516171D01*
X123779542Y-78694742D01*
X123720019Y-78813790D01*
X123660495Y-78873314D01*
X123541447Y-78932838D01*
X123065257Y-78932838D01*
X124791447Y-79468552D02*
X124672400Y-79528076D01*
X124434304Y-79528076D01*
X124315257Y-79468552D01*
X124255733Y-79349504D01*
X124255733Y-78873314D01*
X124315257Y-78754266D01*
X124434304Y-78694742D01*
X124672400Y-78694742D01*
X124791447Y-78754266D01*
X124850971Y-78873314D01*
X124850971Y-78992361D01*
X124255733Y-79111409D01*
X125267638Y-78694742D02*
X125565257Y-79528076D01*
X125862876Y-78694742D01*
X126279542Y-79170933D02*
X126874780Y-79170933D01*
X126160495Y-79528076D02*
X126577161Y-78278076D01*
X126993828Y-79528076D01*
D11*
X126623876Y-115324800D02*
X126547685Y-115286704D01*
X126433400Y-115286704D01*
X126319114Y-115324800D01*
X126242923Y-115400990D01*
X126204828Y-115477180D01*
X126166733Y-115629561D01*
X126166733Y-115743847D01*
X126204828Y-115896228D01*
X126242923Y-115972419D01*
X126319114Y-116048609D01*
X126433400Y-116086704D01*
X126509590Y-116086704D01*
X126623876Y-116048609D01*
X126661971Y-116010514D01*
X126661971Y-115743847D01*
X126509590Y-115743847D01*
X127004828Y-116086704D02*
X127004828Y-115286704D01*
X127461971Y-116086704D01*
X127461971Y-115286704D01*
X127842923Y-116086704D02*
X127842923Y-115286704D01*
X128033400Y-115286704D01*
X128147685Y-115324800D01*
X128223876Y-115400990D01*
X128261971Y-115477180D01*
X128300066Y-115629561D01*
X128300066Y-115743847D01*
X128261971Y-115896228D01*
X128223876Y-115972419D01*
X128147685Y-116048609D01*
X128033400Y-116086704D01*
X127842923Y-116086704D01*
X128401923Y-116353504D02*
X128897161Y-116353504D01*
X128630495Y-116658266D01*
X128744780Y-116658266D01*
X128820971Y-116696361D01*
X128859066Y-116734457D01*
X128897161Y-116810647D01*
X128897161Y-117001123D01*
X128859066Y-117077314D01*
X128820971Y-117115409D01*
X128744780Y-117153504D01*
X128516209Y-117153504D01*
X128440019Y-117115409D01*
X128401923Y-117077314D01*
X129125733Y-116353504D02*
X129392400Y-117153504D01*
X129659066Y-116353504D01*
X129849542Y-116353504D02*
X130344780Y-116353504D01*
X130078114Y-116658266D01*
X130192400Y-116658266D01*
X130268590Y-116696361D01*
X130306685Y-116734457D01*
X130344780Y-116810647D01*
X130344780Y-117001123D01*
X130306685Y-117077314D01*
X130268590Y-117115409D01*
X130192400Y-117153504D01*
X129963828Y-117153504D01*
X129887638Y-117115409D01*
X129849542Y-117077314D01*
X144886461Y-98421004D02*
X144429319Y-98421004D01*
X144657890Y-98421004D02*
X144657890Y-97621004D01*
X144581700Y-97735290D01*
X144505509Y-97811480D01*
X144429319Y-97849576D01*
X145191223Y-97697195D02*
X145229319Y-97659100D01*
X145305509Y-97621004D01*
X145495985Y-97621004D01*
X145572176Y-97659100D01*
X145610271Y-97697195D01*
X145648366Y-97773385D01*
X145648366Y-97849576D01*
X145610271Y-97963861D01*
X145153128Y-98421004D01*
X145648366Y-98421004D01*
X145876938Y-97621004D02*
X146143604Y-98421004D01*
X146410271Y-97621004D01*
D12*
X151414200Y-98198800D02*
X152328600Y-98198800D01*
X151414200Y-98198800D02*
X150525200Y-99113200D01*
X150550600Y-99113200D02*
X152303200Y-99113200D01*
X152303200Y-99113200D02*
X151414200Y-98198800D01*
X151414200Y-98198800D02*
X150499800Y-98198800D01*
X147934400Y-103405800D02*
X147934400Y-102516800D01*
X147883600Y-103431200D02*
X148798000Y-104320200D01*
X148798000Y-104294800D02*
X148798000Y-102542200D01*
X148798000Y-102542200D02*
X147883600Y-103431200D01*
X147934400Y-103431200D02*
X147934400Y-104345600D01*
X144810200Y-110441600D02*
X145724600Y-110441600D01*
X144810200Y-110441600D02*
X143921200Y-111356000D01*
X143946600Y-111356000D02*
X145699200Y-111356000D01*
X145699200Y-111356000D02*
X144810200Y-110441600D01*
X144810200Y-110441600D02*
X143895800Y-110441600D01*
D13*
X111063350Y-87164185D02*
X111063350Y-87771328D01*
X111027635Y-87842757D01*
X110991921Y-87878471D01*
X110920492Y-87914185D01*
X110813350Y-87914185D01*
X110741921Y-87878471D01*
X111063350Y-87628471D02*
X110991921Y-87664185D01*
X110849064Y-87664185D01*
X110777635Y-87628471D01*
X110741921Y-87592757D01*
X110706207Y-87521328D01*
X110706207Y-87307042D01*
X110741921Y-87235614D01*
X110777635Y-87199900D01*
X110849064Y-87164185D01*
X110991921Y-87164185D01*
X111063350Y-87199900D01*
X111420492Y-87664185D02*
X111420492Y-87164185D01*
X111420492Y-86914185D02*
X111384778Y-86949900D01*
X111420492Y-86985614D01*
X111456207Y-86949900D01*
X111420492Y-86914185D01*
X111420492Y-86985614D01*
X111670492Y-87164185D02*
X111956207Y-87164185D01*
X111777635Y-86914185D02*
X111777635Y-87557042D01*
X111813350Y-87628471D01*
X111884778Y-87664185D01*
X111956207Y-87664185D01*
X112206207Y-87664185D02*
X112206207Y-86914185D01*
X112527635Y-87664185D02*
X112527635Y-87271328D01*
X112491921Y-87199900D01*
X112420492Y-87164185D01*
X112313350Y-87164185D01*
X112241921Y-87199900D01*
X112206207Y-87235614D01*
X113206207Y-87164185D02*
X113206207Y-87664185D01*
X112884778Y-87164185D02*
X112884778Y-87557042D01*
X112920492Y-87628471D01*
X112991921Y-87664185D01*
X113099064Y-87664185D01*
X113170492Y-87628471D01*
X113206207Y-87592757D01*
X113563350Y-87664185D02*
X113563350Y-86914185D01*
X113563350Y-87199900D02*
X113634778Y-87164185D01*
X113777635Y-87164185D01*
X113849064Y-87199900D01*
X113884778Y-87235614D01*
X113920492Y-87307042D01*
X113920492Y-87521328D01*
X113884778Y-87592757D01*
X113849064Y-87628471D01*
X113777635Y-87664185D01*
X113634778Y-87664185D01*
X113563350Y-87628471D01*
X114241921Y-87592757D02*
X114277635Y-87628471D01*
X114241921Y-87664185D01*
X114206207Y-87628471D01*
X114241921Y-87592757D01*
X114241921Y-87664185D01*
X114920492Y-87628471D02*
X114849064Y-87664185D01*
X114706207Y-87664185D01*
X114634778Y-87628471D01*
X114599064Y-87592757D01*
X114563350Y-87521328D01*
X114563350Y-87307042D01*
X114599064Y-87235614D01*
X114634778Y-87199900D01*
X114706207Y-87164185D01*
X114849064Y-87164185D01*
X114920492Y-87199900D01*
X115349064Y-87664185D02*
X115277635Y-87628471D01*
X115241921Y-87592757D01*
X115206207Y-87521328D01*
X115206207Y-87307042D01*
X115241921Y-87235614D01*
X115277635Y-87199900D01*
X115349064Y-87164185D01*
X115456207Y-87164185D01*
X115527635Y-87199900D01*
X115563350Y-87235614D01*
X115599064Y-87307042D01*
X115599064Y-87521328D01*
X115563350Y-87592757D01*
X115527635Y-87628471D01*
X115456207Y-87664185D01*
X115349064Y-87664185D01*
X115920492Y-87664185D02*
X115920492Y-87164185D01*
X115920492Y-87235614D02*
X115956207Y-87199900D01*
X116027635Y-87164185D01*
X116134778Y-87164185D01*
X116206207Y-87199900D01*
X116241921Y-87271328D01*
X116241921Y-87664185D01*
X116241921Y-87271328D02*
X116277635Y-87199900D01*
X116349064Y-87164185D01*
X116456207Y-87164185D01*
X116527635Y-87199900D01*
X116563350Y-87271328D01*
X116563350Y-87664185D01*
X110741921Y-88914185D02*
X110741921Y-88164185D01*
X111170492Y-88914185D02*
X110849064Y-88485614D01*
X111170492Y-88164185D02*
X110741921Y-88592757D01*
X111777635Y-88878471D02*
X111706207Y-88914185D01*
X111563350Y-88914185D01*
X111491921Y-88878471D01*
X111456207Y-88807042D01*
X111456207Y-88521328D01*
X111491921Y-88449900D01*
X111563350Y-88414185D01*
X111706207Y-88414185D01*
X111777635Y-88449900D01*
X111813350Y-88521328D01*
X111813350Y-88592757D01*
X111456207Y-88664185D01*
X112134778Y-88914185D02*
X112134778Y-88414185D01*
X112134778Y-88164185D02*
X112099064Y-88199900D01*
X112134778Y-88235614D01*
X112170492Y-88199900D01*
X112134778Y-88164185D01*
X112134778Y-88235614D01*
X112384778Y-88414185D02*
X112670492Y-88414185D01*
X112491921Y-88164185D02*
X112491921Y-88807042D01*
X112527635Y-88878471D01*
X112599064Y-88914185D01*
X112670492Y-88914185D01*
X112920492Y-88914185D02*
X112920492Y-88164185D01*
X113241921Y-88914185D02*
X113241921Y-88521328D01*
X113206207Y-88449900D01*
X113134778Y-88414185D01*
X113027635Y-88414185D01*
X112956207Y-88449900D01*
X112920492Y-88485614D01*
X113599064Y-88628471D02*
X114170492Y-88628471D01*
X114527635Y-88914185D02*
X114527635Y-88164185D01*
X114956207Y-88914185D01*
X114956207Y-88164185D01*
X115849064Y-88128471D02*
X115206207Y-89092757D01*
X116063350Y-88878471D02*
X116170492Y-88914185D01*
X116349064Y-88914185D01*
X116420492Y-88878471D01*
X116456207Y-88842757D01*
X116491921Y-88771328D01*
X116491921Y-88699900D01*
X116456207Y-88628471D01*
X116420492Y-88592757D01*
X116349064Y-88557042D01*
X116206207Y-88521328D01*
X116134778Y-88485614D01*
X116099064Y-88449900D01*
X116063350Y-88378471D01*
X116063350Y-88307042D01*
X116099064Y-88235614D01*
X116134778Y-88199900D01*
X116206207Y-88164185D01*
X116384778Y-88164185D01*
X116491921Y-88199900D01*
X116706207Y-88164185D02*
X117134778Y-88164185D01*
X116920492Y-88914185D02*
X116920492Y-88164185D01*
X117384778Y-88914185D02*
X117384778Y-88164185D01*
X117634778Y-88699900D01*
X117884778Y-88164185D01*
X117884778Y-88914185D01*
X118241921Y-88628471D02*
X118813350Y-88628471D01*
X119599064Y-88842757D02*
X119563350Y-88878471D01*
X119456207Y-88914185D01*
X119384778Y-88914185D01*
X119277635Y-88878471D01*
X119206207Y-88807042D01*
X119170492Y-88735614D01*
X119134778Y-88592757D01*
X119134778Y-88485614D01*
X119170492Y-88342757D01*
X119206207Y-88271328D01*
X119277635Y-88199900D01*
X119384778Y-88164185D01*
X119456207Y-88164185D01*
X119563350Y-88199900D01*
X119599064Y-88235614D01*
X119884778Y-88699900D02*
X120241921Y-88699900D01*
X119813350Y-88914185D02*
X120063350Y-88164185D01*
X120313350Y-88914185D01*
X120563350Y-88914185D02*
X120563350Y-88164185D01*
X120991921Y-88914185D01*
X120991921Y-88164185D01*
X121349064Y-88628471D02*
X121920492Y-88628471D01*
X122670492Y-88199900D02*
X122599064Y-88164185D01*
X122491921Y-88164185D01*
X122384778Y-88199900D01*
X122313350Y-88271328D01*
X122277635Y-88342757D01*
X122241921Y-88485614D01*
X122241921Y-88592757D01*
X122277635Y-88735614D01*
X122313350Y-88807042D01*
X122384778Y-88878471D01*
X122491921Y-88914185D01*
X122563350Y-88914185D01*
X122670492Y-88878471D01*
X122706207Y-88842757D01*
X122706207Y-88592757D01*
X122563350Y-88592757D01*
X123349064Y-88914185D02*
X123349064Y-88521328D01*
X123313350Y-88449900D01*
X123241921Y-88414185D01*
X123099064Y-88414185D01*
X123027635Y-88449900D01*
X123349064Y-88878471D02*
X123277635Y-88914185D01*
X123099064Y-88914185D01*
X123027635Y-88878471D01*
X122991921Y-88807042D01*
X122991921Y-88735614D01*
X123027635Y-88664185D01*
X123099064Y-88628471D01*
X123277635Y-88628471D01*
X123349064Y-88592757D01*
X124027635Y-88414185D02*
X124027635Y-88914185D01*
X123706207Y-88414185D02*
X123706207Y-88807042D01*
X123741921Y-88878471D01*
X123813350Y-88914185D01*
X123920492Y-88914185D01*
X123991921Y-88878471D01*
X124027635Y-88842757D01*
X124706207Y-88414185D02*
X124706207Y-89021328D01*
X124670492Y-89092757D01*
X124634778Y-89128471D01*
X124563350Y-89164185D01*
X124456207Y-89164185D01*
X124384778Y-89128471D01*
X124706207Y-88878471D02*
X124634778Y-88914185D01*
X124491921Y-88914185D01*
X124420492Y-88878471D01*
X124384778Y-88842757D01*
X124349064Y-88771328D01*
X124349064Y-88557042D01*
X124384778Y-88485614D01*
X124420492Y-88449900D01*
X124491921Y-88414185D01*
X124634778Y-88414185D01*
X124706207Y-88449900D01*
X125349064Y-88878471D02*
X125277635Y-88914185D01*
X125134778Y-88914185D01*
X125063350Y-88878471D01*
X125027635Y-88807042D01*
X125027635Y-88521328D01*
X125063350Y-88449900D01*
X125134778Y-88414185D01*
X125277635Y-88414185D01*
X125349064Y-88449900D01*
X125384778Y-88521328D01*
X125384778Y-88592757D01*
X125027635Y-88664185D01*
D12*
%TO.C,TP7*%
X139693600Y-95176200D02*
G75*
G03*
X139693600Y-95176200I-700000J0D01*
G01*
%TO.C,TP2*%
X133940500Y-95519100D02*
G75*
G03*
X133940500Y-95519100I-700000J0D01*
G01*
%TO.C,U1*%
X139860400Y-87947600D02*
X141150400Y-87947600D01*
X139860400Y-88397600D02*
X139860400Y-87947600D01*
X139410400Y-88397600D02*
X139860400Y-88397600D01*
X132640400Y-88397600D02*
X132640400Y-87947600D01*
X133090400Y-88397600D02*
X132640400Y-88397600D01*
X139860400Y-81177600D02*
X139860400Y-81627600D01*
X139410400Y-81177600D02*
X139860400Y-81177600D01*
X132640400Y-81177600D02*
X132640400Y-81627600D01*
X133090400Y-81177600D02*
X132640400Y-81177600D01*
%TO.C,TP8*%
X128784300Y-95455600D02*
G75*
G03*
X128784300Y-95455600I-700000J0D01*
G01*
%TO.C,C10*%
X147061058Y-99104900D02*
X148731542Y-99104900D01*
X147061058Y-100924900D02*
X148731542Y-100924900D01*
%TO.C,J1*%
X122737600Y-82730200D02*
X123372600Y-82730200D01*
X123372600Y-82730200D02*
X123372600Y-83365200D01*
%TO.C,TP6*%
X128936700Y-97601900D02*
G75*
G03*
X128936700Y-97601900I-700000J0D01*
G01*
%TO.C,C17*%
X123520600Y-96414564D02*
X123520600Y-96630236D01*
X124240600Y-96414564D02*
X124240600Y-96630236D01*
%TO.C,R24*%
X130711959Y-97054800D02*
X131019241Y-97054800D01*
X130711959Y-96294800D02*
X131019241Y-96294800D01*
%TO.C,TP1*%
X127603200Y-93360100D02*
G75*
G03*
X127603200Y-93360100I-700000J0D01*
G01*
%TO.C,TP5*%
X125850600Y-116766200D02*
G75*
G03*
X125850600Y-116766200I-700000J0D01*
G01*
%TO.C,TP4*%
X127933400Y-117604400D02*
G75*
G03*
X127933400Y-117604400I-700000J0D01*
G01*
%TO.C,TP3*%
X148240700Y-97716200D02*
G75*
G03*
X148240700Y-97716200I-700000J0D01*
G01*
%TO.C,U4*%
X122734000Y-98699000D02*
X122734000Y-104033000D01*
X144344000Y-104023000D02*
X144344000Y-98689000D01*
X144332000Y-104027000D02*
X144332000Y-104027000D01*
%TO.C,R20*%
X123600200Y-112573959D02*
X123600200Y-112881241D01*
X122840200Y-112573959D02*
X122840200Y-112881241D01*
%TO.C,L1*%
X152177400Y-93823222D02*
X152177400Y-93023978D01*
X151057400Y-93823222D02*
X151057400Y-93023978D01*
%TO.C,C11*%
X150499852Y-86570000D02*
X149077348Y-86570000D01*
X150499852Y-88390000D02*
X149077348Y-88390000D01*
%TO.C,D12*%
X152439600Y-96558400D02*
X150439600Y-96558400D01*
X150439600Y-96558400D02*
X150439600Y-100458400D01*
X152439600Y-96558400D02*
X152439600Y-100458400D01*
%TO.C,U3*%
X144612400Y-92915600D02*
X144612400Y-94865600D01*
X144612400Y-92915600D02*
X144612400Y-90965600D01*
X149732400Y-92915600D02*
X149732400Y-94865600D01*
X149732400Y-92915600D02*
X149732400Y-89465600D01*
%TO.C,J2*%
X141057000Y-107418000D02*
X141057000Y-107108000D01*
X141057000Y-107108000D02*
X125187000Y-107108000D01*
X125187000Y-107108000D02*
X125187000Y-107418000D01*
X141057000Y-108938000D02*
X141057000Y-114698000D01*
X141057000Y-114698000D02*
X139637000Y-114698000D01*
X139637000Y-114698000D02*
X139637000Y-114198000D01*
X139637000Y-114198000D02*
X126607000Y-114198000D01*
X126607000Y-114198000D02*
X126607000Y-114698000D01*
X126607000Y-114698000D02*
X125187000Y-114698000D01*
X125187000Y-114698000D02*
X125187000Y-108938000D01*
%TO.C,R30*%
X114837200Y-104829441D02*
X114837200Y-104522159D01*
X114077200Y-104829441D02*
X114077200Y-104522159D01*
%TO.C,R29*%
X111969000Y-93422359D02*
X111969000Y-93729641D01*
X112729000Y-93422359D02*
X112729000Y-93729641D01*
%TO.C,R21*%
X134206700Y-75210559D02*
X134206700Y-75517841D01*
X134966700Y-75210559D02*
X134966700Y-75517841D01*
%TO.C,D22*%
X146884000Y-107425000D02*
X146884000Y-113125000D01*
X142584000Y-107425000D02*
X142584000Y-113125000D01*
X146884000Y-107425000D02*
X142584000Y-107425000D01*
%TO.C,C9*%
X149708000Y-107523558D02*
X149708000Y-109194042D01*
X147888000Y-107523558D02*
X147888000Y-109194042D01*
%TO.C,R26*%
X126040600Y-96368759D02*
X126040600Y-96676041D01*
X126800600Y-96368759D02*
X126800600Y-96676041D01*
%TO.C,R25*%
X130943041Y-94872400D02*
X130635759Y-94872400D01*
X130943041Y-95632400D02*
X130635759Y-95632400D01*
%TO.C,C18*%
X141806764Y-95752100D02*
X142022436Y-95752100D01*
X141806764Y-95032100D02*
X142022436Y-95032100D01*
%TO.C,C16*%
X140244664Y-96933200D02*
X140460336Y-96933200D01*
X140244664Y-96213200D02*
X140460336Y-96213200D01*
%TO.C,C15*%
X124785600Y-96414564D02*
X124785600Y-96630236D01*
X125505600Y-96414564D02*
X125505600Y-96630236D01*
%TO.C,C14*%
X134950600Y-95677964D02*
X134950600Y-95893636D01*
X135670600Y-95677964D02*
X135670600Y-95893636D01*
%TO.C,C13*%
X136817500Y-95677964D02*
X136817500Y-95893636D01*
X137537500Y-95677964D02*
X137537500Y-95893636D01*
%TO.C,C8*%
X123226436Y-115195800D02*
X123010764Y-115195800D01*
X123226436Y-114475800D02*
X123010764Y-114475800D01*
%TO.C,C7*%
X124545400Y-110460764D02*
X124545400Y-110676436D01*
X123825400Y-110460764D02*
X123825400Y-110676436D01*
%TO.C,C5*%
X119480164Y-103884000D02*
X119695836Y-103884000D01*
X119480164Y-104604000D02*
X119695836Y-104604000D01*
%TO.C,C4*%
X143279964Y-84529200D02*
X143495636Y-84529200D01*
X143279964Y-85249200D02*
X143495636Y-85249200D01*
%TO.C,C3*%
X143279964Y-85672200D02*
X143495636Y-85672200D01*
X143279964Y-86392200D02*
X143495636Y-86392200D01*
%TO.C,C2*%
X140826800Y-90369364D02*
X140826800Y-90585036D01*
X140106800Y-90369364D02*
X140106800Y-90585036D01*
%TO.C,C1*%
X130490836Y-80296200D02*
X130275164Y-80296200D01*
X130490836Y-79576200D02*
X130275164Y-79576200D01*
%TO.C,R19*%
X136605000Y-75210559D02*
X136605000Y-75517841D01*
X135845000Y-75210559D02*
X135845000Y-75517841D01*
%TO.C,R18*%
X137483300Y-75210559D02*
X137483300Y-75517841D01*
X138243300Y-75210559D02*
X138243300Y-75517841D01*
%TO.C,R17*%
X141519900Y-75210559D02*
X141519900Y-75517841D01*
X140759900Y-75210559D02*
X140759900Y-75517841D01*
%TO.C,R16*%
X139881600Y-75210559D02*
X139881600Y-75517841D01*
X139121600Y-75210559D02*
X139121600Y-75517841D01*
%TO.C,R15*%
X116566641Y-101957000D02*
X116259359Y-101957000D01*
X116566641Y-101197000D02*
X116259359Y-101197000D01*
%TO.C,R14*%
X116566641Y-100687000D02*
X116259359Y-100687000D01*
X116566641Y-99927000D02*
X116259359Y-99927000D01*
%TO.C,R13*%
X116693641Y-95988000D02*
X116386359Y-95988000D01*
X116693641Y-95228000D02*
X116386359Y-95228000D01*
%TO.C,R12*%
X116386359Y-93831000D02*
X116693641Y-93831000D01*
X116386359Y-94591000D02*
X116693641Y-94591000D01*
%TO.C,R11*%
X116693641Y-93194000D02*
X116386359Y-93194000D01*
X116693641Y-92434000D02*
X116386359Y-92434000D01*
%TO.C,R10*%
X116566641Y-99417000D02*
X116259359Y-99417000D01*
X116566641Y-98657000D02*
X116259359Y-98657000D01*
%TO.C,R1*%
X137950959Y-92027600D02*
X138258241Y-92027600D01*
X137950959Y-92787600D02*
X138258241Y-92787600D01*
%TO.C,D21*%
X144991600Y-101679600D02*
X144991600Y-104979600D01*
X144991600Y-104979600D02*
X150391600Y-104979600D01*
X144991600Y-101679600D02*
X150391600Y-101679600D01*
%TO.C,R9*%
X115525000Y-107800759D02*
X115525000Y-108108041D01*
X116285000Y-107800759D02*
X116285000Y-108108041D01*
%TO.C,R8*%
X143643041Y-81054800D02*
X143335759Y-81054800D01*
X143643041Y-81814800D02*
X143335759Y-81814800D01*
%TO.C,R7*%
X143643041Y-79683200D02*
X143335759Y-79683200D01*
X143643041Y-80443200D02*
X143335759Y-80443200D01*
%TO.C,R3*%
X115116600Y-97412641D02*
X115116600Y-97105359D01*
X114356600Y-97412641D02*
X114356600Y-97105359D01*
%TO.C,R2*%
X143643041Y-82426400D02*
X143335759Y-82426400D01*
X143643041Y-83186400D02*
X143335759Y-83186400D01*
%TO.C,U2*%
X122148000Y-108816000D02*
X122148000Y-105366000D01*
X122148000Y-108816000D02*
X122148000Y-110766000D01*
X117028000Y-108816000D02*
X117028000Y-106866000D01*
X117028000Y-108816000D02*
X117028000Y-110766000D01*
%TO.C,U1*%
D14*
X135488495Y-90089980D02*
X135488495Y-90899504D01*
X135536114Y-90994742D01*
X135583733Y-91042361D01*
X135678971Y-91089980D01*
X135869447Y-91089980D01*
X135964685Y-91042361D01*
X136012304Y-90994742D01*
X136059923Y-90899504D01*
X136059923Y-90089980D01*
X137059923Y-91089980D02*
X136488495Y-91089980D01*
X136774209Y-91089980D02*
X136774209Y-90089980D01*
X136678971Y-90232838D01*
X136583733Y-90328076D01*
X136488495Y-90375695D01*
%TO.C,C10*%
X145319742Y-100797457D02*
X145367361Y-100845076D01*
X145414980Y-100987933D01*
X145414980Y-101083171D01*
X145367361Y-101226028D01*
X145272123Y-101321266D01*
X145176885Y-101368885D01*
X144986409Y-101416504D01*
X144843552Y-101416504D01*
X144653076Y-101368885D01*
X144557838Y-101321266D01*
X144462600Y-101226028D01*
X144414980Y-101083171D01*
X144414980Y-100987933D01*
X144462600Y-100845076D01*
X144510219Y-100797457D01*
X145414980Y-99845076D02*
X145414980Y-100416504D01*
X145414980Y-100130790D02*
X144414980Y-100130790D01*
X144557838Y-100226028D01*
X144653076Y-100321266D01*
X144700695Y-100416504D01*
X144414980Y-99226028D02*
X144414980Y-99130790D01*
X144462600Y-99035552D01*
X144510219Y-98987933D01*
X144605457Y-98940314D01*
X144795933Y-98892695D01*
X145034028Y-98892695D01*
X145224504Y-98940314D01*
X145319742Y-98987933D01*
X145367361Y-99035552D01*
X145414980Y-99130790D01*
X145414980Y-99226028D01*
X145367361Y-99321266D01*
X145319742Y-99368885D01*
X145224504Y-99416504D01*
X145034028Y-99464123D01*
X144795933Y-99464123D01*
X144605457Y-99416504D01*
X144510219Y-99368885D01*
X144462600Y-99321266D01*
X144414980Y-99226028D01*
%TO.C,J1*%
X121134266Y-80752580D02*
X121134266Y-81466866D01*
X121086647Y-81609723D01*
X120991409Y-81704961D01*
X120848552Y-81752580D01*
X120753314Y-81752580D01*
X122134266Y-81752580D02*
X121562838Y-81752580D01*
X121848552Y-81752580D02*
X121848552Y-80752580D01*
X121753314Y-80895438D01*
X121658076Y-80990676D01*
X121562838Y-81038295D01*
%TO.C,C17*%
X122955042Y-93812457D02*
X123002661Y-93860076D01*
X123050280Y-94002933D01*
X123050280Y-94098171D01*
X123002661Y-94241028D01*
X122907423Y-94336266D01*
X122812185Y-94383885D01*
X122621709Y-94431504D01*
X122478852Y-94431504D01*
X122288376Y-94383885D01*
X122193138Y-94336266D01*
X122097900Y-94241028D01*
X122050280Y-94098171D01*
X122050280Y-94002933D01*
X122097900Y-93860076D01*
X122145519Y-93812457D01*
X123050280Y-92860076D02*
X123050280Y-93431504D01*
X123050280Y-93145790D02*
X122050280Y-93145790D01*
X122193138Y-93241028D01*
X122288376Y-93336266D01*
X122335995Y-93431504D01*
X122050280Y-92526742D02*
X122050280Y-91860076D01*
X123050280Y-92288647D01*
%TO.C,R24*%
X130133842Y-94447480D02*
X129800509Y-93971290D01*
X129562414Y-94447480D02*
X129562414Y-93447480D01*
X129943366Y-93447480D01*
X130038604Y-93495100D01*
X130086223Y-93542719D01*
X130133842Y-93637957D01*
X130133842Y-93780814D01*
X130086223Y-93876052D01*
X130038604Y-93923671D01*
X129943366Y-93971290D01*
X129562414Y-93971290D01*
X130514795Y-93542719D02*
X130562414Y-93495100D01*
X130657652Y-93447480D01*
X130895747Y-93447480D01*
X130990985Y-93495100D01*
X131038604Y-93542719D01*
X131086223Y-93637957D01*
X131086223Y-93733195D01*
X131038604Y-93876052D01*
X130467176Y-94447480D01*
X131086223Y-94447480D01*
X131943366Y-93780814D02*
X131943366Y-94447480D01*
X131705271Y-93399861D02*
X131467176Y-94114147D01*
X132086223Y-94114147D01*
%TO.C,U4*%
X121529580Y-103634304D02*
X122339104Y-103634304D01*
X122434342Y-103586685D01*
X122481961Y-103539066D01*
X122529580Y-103443828D01*
X122529580Y-103253352D01*
X122481961Y-103158114D01*
X122434342Y-103110495D01*
X122339104Y-103062876D01*
X121529580Y-103062876D01*
X121862914Y-102158114D02*
X122529580Y-102158114D01*
X121481961Y-102396209D02*
X122196247Y-102634304D01*
X122196247Y-102015257D01*
%TO.C,R20*%
X119986542Y-113941980D02*
X119653209Y-113465790D01*
X119415114Y-113941980D02*
X119415114Y-112941980D01*
X119796066Y-112941980D01*
X119891304Y-112989600D01*
X119938923Y-113037219D01*
X119986542Y-113132457D01*
X119986542Y-113275314D01*
X119938923Y-113370552D01*
X119891304Y-113418171D01*
X119796066Y-113465790D01*
X119415114Y-113465790D01*
X120367495Y-113037219D02*
X120415114Y-112989600D01*
X120510352Y-112941980D01*
X120748447Y-112941980D01*
X120843685Y-112989600D01*
X120891304Y-113037219D01*
X120938923Y-113132457D01*
X120938923Y-113227695D01*
X120891304Y-113370552D01*
X120319876Y-113941980D01*
X120938923Y-113941980D01*
X121557971Y-112941980D02*
X121653209Y-112941980D01*
X121748447Y-112989600D01*
X121796066Y-113037219D01*
X121843685Y-113132457D01*
X121891304Y-113322933D01*
X121891304Y-113561028D01*
X121843685Y-113751504D01*
X121796066Y-113846742D01*
X121748447Y-113894361D01*
X121653209Y-113941980D01*
X121557971Y-113941980D01*
X121462733Y-113894361D01*
X121415114Y-113846742D01*
X121367495Y-113751504D01*
X121319876Y-113561028D01*
X121319876Y-113322933D01*
X121367495Y-113132457D01*
X121415114Y-113037219D01*
X121462733Y-112989600D01*
X121557971Y-112941980D01*
%TO.C,L1*%
X153923980Y-93488666D02*
X153923980Y-93964857D01*
X152923980Y-93964857D01*
X153923980Y-92631523D02*
X153923980Y-93202952D01*
X153923980Y-92917238D02*
X152923980Y-92917238D01*
X153066838Y-93012476D01*
X153162076Y-93107714D01*
X153209695Y-93202952D01*
%TO.C,C11*%
X150417542Y-85347942D02*
X150369923Y-85395561D01*
X150227066Y-85443180D01*
X150131828Y-85443180D01*
X149988971Y-85395561D01*
X149893733Y-85300323D01*
X149846114Y-85205085D01*
X149798495Y-85014609D01*
X149798495Y-84871752D01*
X149846114Y-84681276D01*
X149893733Y-84586038D01*
X149988971Y-84490800D01*
X150131828Y-84443180D01*
X150227066Y-84443180D01*
X150369923Y-84490800D01*
X150417542Y-84538419D01*
X151369923Y-85443180D02*
X150798495Y-85443180D01*
X151084209Y-85443180D02*
X151084209Y-84443180D01*
X150988971Y-84586038D01*
X150893733Y-84681276D01*
X150798495Y-84728895D01*
X152322304Y-85443180D02*
X151750876Y-85443180D01*
X152036590Y-85443180D02*
X152036590Y-84443180D01*
X151941352Y-84586038D01*
X151846114Y-84681276D01*
X151750876Y-84728895D01*
%TO.C,D12*%
X154050980Y-100175085D02*
X153050980Y-100175085D01*
X153050980Y-99936990D01*
X153098600Y-99794133D01*
X153193838Y-99698895D01*
X153289076Y-99651276D01*
X153479552Y-99603657D01*
X153622409Y-99603657D01*
X153812885Y-99651276D01*
X153908123Y-99698895D01*
X154003361Y-99794133D01*
X154050980Y-99936990D01*
X154050980Y-100175085D01*
X154050980Y-98651276D02*
X154050980Y-99222704D01*
X154050980Y-98936990D02*
X153050980Y-98936990D01*
X153193838Y-99032228D01*
X153289076Y-99127466D01*
X153336695Y-99222704D01*
X153146219Y-98270323D02*
X153098600Y-98222704D01*
X153050980Y-98127466D01*
X153050980Y-97889371D01*
X153098600Y-97794133D01*
X153146219Y-97746514D01*
X153241457Y-97698895D01*
X153336695Y-97698895D01*
X153479552Y-97746514D01*
X154050980Y-98317942D01*
X154050980Y-97698895D01*
%TO.C,U3*%
X150296695Y-89497780D02*
X150296695Y-90307304D01*
X150344314Y-90402542D01*
X150391933Y-90450161D01*
X150487171Y-90497780D01*
X150677647Y-90497780D01*
X150772885Y-90450161D01*
X150820504Y-90402542D01*
X150868123Y-90307304D01*
X150868123Y-89497780D01*
X151249076Y-89497780D02*
X151868123Y-89497780D01*
X151534790Y-89878733D01*
X151677647Y-89878733D01*
X151772885Y-89926352D01*
X151820504Y-89973971D01*
X151868123Y-90069209D01*
X151868123Y-90307304D01*
X151820504Y-90402542D01*
X151772885Y-90450161D01*
X151677647Y-90497780D01*
X151391933Y-90497780D01*
X151296695Y-90450161D01*
X151249076Y-90402542D01*
%TO.C,L2*%
X146040533Y-88326080D02*
X145564342Y-88326080D01*
X145564342Y-87326080D01*
X146326247Y-87421319D02*
X146373866Y-87373700D01*
X146469104Y-87326080D01*
X146707200Y-87326080D01*
X146802438Y-87373700D01*
X146850057Y-87421319D01*
X146897676Y-87516557D01*
X146897676Y-87611795D01*
X146850057Y-87754652D01*
X146278628Y-88326080D01*
X146897676Y-88326080D01*
%TO.C,J2*%
X139828666Y-105728380D02*
X139828666Y-106442666D01*
X139781047Y-106585523D01*
X139685809Y-106680761D01*
X139542952Y-106728380D01*
X139447714Y-106728380D01*
X140257238Y-105823619D02*
X140304857Y-105776000D01*
X140400095Y-105728380D01*
X140638190Y-105728380D01*
X140733428Y-105776000D01*
X140781047Y-105823619D01*
X140828666Y-105918857D01*
X140828666Y-106014095D01*
X140781047Y-106156952D01*
X140209619Y-106728380D01*
X140828666Y-106728380D01*
%TO.C,R30*%
X113385580Y-105191657D02*
X112909390Y-105524990D01*
X113385580Y-105763085D02*
X112385580Y-105763085D01*
X112385580Y-105382133D01*
X112433200Y-105286895D01*
X112480819Y-105239276D01*
X112576057Y-105191657D01*
X112718914Y-105191657D01*
X112814152Y-105239276D01*
X112861771Y-105286895D01*
X112909390Y-105382133D01*
X112909390Y-105763085D01*
X112385580Y-104858323D02*
X112385580Y-104239276D01*
X112766533Y-104572609D01*
X112766533Y-104429752D01*
X112814152Y-104334514D01*
X112861771Y-104286895D01*
X112957009Y-104239276D01*
X113195104Y-104239276D01*
X113290342Y-104286895D01*
X113337961Y-104334514D01*
X113385580Y-104429752D01*
X113385580Y-104715466D01*
X113337961Y-104810704D01*
X113290342Y-104858323D01*
X112385580Y-103620228D02*
X112385580Y-103524990D01*
X112433200Y-103429752D01*
X112480819Y-103382133D01*
X112576057Y-103334514D01*
X112766533Y-103286895D01*
X113004628Y-103286895D01*
X113195104Y-103334514D01*
X113290342Y-103382133D01*
X113337961Y-103429752D01*
X113385580Y-103524990D01*
X113385580Y-103620228D01*
X113337961Y-103715466D01*
X113290342Y-103763085D01*
X113195104Y-103810704D01*
X113004628Y-103858323D01*
X112766533Y-103858323D01*
X112576057Y-103810704D01*
X112480819Y-103763085D01*
X112433200Y-103715466D01*
X112385580Y-103620228D01*
%TO.C,R29*%
X111302780Y-94142657D02*
X110826590Y-94475990D01*
X111302780Y-94714085D02*
X110302780Y-94714085D01*
X110302780Y-94333133D01*
X110350400Y-94237895D01*
X110398019Y-94190276D01*
X110493257Y-94142657D01*
X110636114Y-94142657D01*
X110731352Y-94190276D01*
X110778971Y-94237895D01*
X110826590Y-94333133D01*
X110826590Y-94714085D01*
X110398019Y-93761704D02*
X110350400Y-93714085D01*
X110302780Y-93618847D01*
X110302780Y-93380752D01*
X110350400Y-93285514D01*
X110398019Y-93237895D01*
X110493257Y-93190276D01*
X110588495Y-93190276D01*
X110731352Y-93237895D01*
X111302780Y-93809323D01*
X111302780Y-93190276D01*
X111302780Y-92714085D02*
X111302780Y-92523609D01*
X111255161Y-92428371D01*
X111207542Y-92380752D01*
X111064685Y-92285514D01*
X110874209Y-92237895D01*
X110493257Y-92237895D01*
X110398019Y-92285514D01*
X110350400Y-92333133D01*
X110302780Y-92428371D01*
X110302780Y-92618847D01*
X110350400Y-92714085D01*
X110398019Y-92761704D01*
X110493257Y-92809323D01*
X110731352Y-92809323D01*
X110826590Y-92761704D01*
X110874209Y-92714085D01*
X110921828Y-92618847D01*
X110921828Y-92428371D01*
X110874209Y-92333133D01*
X110826590Y-92285514D01*
X110731352Y-92237895D01*
%TO.C,R21*%
X135102580Y-78521657D02*
X134626390Y-78854990D01*
X135102580Y-79093085D02*
X134102580Y-79093085D01*
X134102580Y-78712133D01*
X134150200Y-78616895D01*
X134197819Y-78569276D01*
X134293057Y-78521657D01*
X134435914Y-78521657D01*
X134531152Y-78569276D01*
X134578771Y-78616895D01*
X134626390Y-78712133D01*
X134626390Y-79093085D01*
X134197819Y-78140704D02*
X134150200Y-78093085D01*
X134102580Y-77997847D01*
X134102580Y-77759752D01*
X134150200Y-77664514D01*
X134197819Y-77616895D01*
X134293057Y-77569276D01*
X134388295Y-77569276D01*
X134531152Y-77616895D01*
X135102580Y-78188323D01*
X135102580Y-77569276D01*
X135102580Y-76616895D02*
X135102580Y-77188323D01*
X135102580Y-76902609D02*
X134102580Y-76902609D01*
X134245438Y-76997847D01*
X134340676Y-77093085D01*
X134388295Y-77188323D01*
%TO.C,D22*%
X143418114Y-106931580D02*
X143418114Y-105931580D01*
X143656209Y-105931580D01*
X143799066Y-105979200D01*
X143894304Y-106074438D01*
X143941923Y-106169676D01*
X143989542Y-106360152D01*
X143989542Y-106503009D01*
X143941923Y-106693485D01*
X143894304Y-106788723D01*
X143799066Y-106883961D01*
X143656209Y-106931580D01*
X143418114Y-106931580D01*
X144370495Y-106026819D02*
X144418114Y-105979200D01*
X144513352Y-105931580D01*
X144751447Y-105931580D01*
X144846685Y-105979200D01*
X144894304Y-106026819D01*
X144941923Y-106122057D01*
X144941923Y-106217295D01*
X144894304Y-106360152D01*
X144322876Y-106931580D01*
X144941923Y-106931580D01*
X145322876Y-106026819D02*
X145370495Y-105979200D01*
X145465733Y-105931580D01*
X145703828Y-105931580D01*
X145799066Y-105979200D01*
X145846685Y-106026819D01*
X145894304Y-106122057D01*
X145894304Y-106217295D01*
X145846685Y-106360152D01*
X145275257Y-106931580D01*
X145894304Y-106931580D01*
%TO.C,C9*%
X148707533Y-111954442D02*
X148659914Y-112002061D01*
X148517057Y-112049680D01*
X148421819Y-112049680D01*
X148278961Y-112002061D01*
X148183723Y-111906823D01*
X148136104Y-111811585D01*
X148088485Y-111621109D01*
X148088485Y-111478252D01*
X148136104Y-111287776D01*
X148183723Y-111192538D01*
X148278961Y-111097300D01*
X148421819Y-111049680D01*
X148517057Y-111049680D01*
X148659914Y-111097300D01*
X148707533Y-111144919D01*
X149183723Y-112049680D02*
X149374200Y-112049680D01*
X149469438Y-112002061D01*
X149517057Y-111954442D01*
X149612295Y-111811585D01*
X149659914Y-111621109D01*
X149659914Y-111240157D01*
X149612295Y-111144919D01*
X149564676Y-111097300D01*
X149469438Y-111049680D01*
X149278961Y-111049680D01*
X149183723Y-111097300D01*
X149136104Y-111144919D01*
X149088485Y-111240157D01*
X149088485Y-111478252D01*
X149136104Y-111573490D01*
X149183723Y-111621109D01*
X149278961Y-111668728D01*
X149469438Y-111668728D01*
X149564676Y-111621109D01*
X149612295Y-111573490D01*
X149659914Y-111478252D01*
%TO.C,R26*%
X125768080Y-93710857D02*
X125291890Y-94044190D01*
X125768080Y-94282285D02*
X124768080Y-94282285D01*
X124768080Y-93901333D01*
X124815700Y-93806095D01*
X124863319Y-93758476D01*
X124958557Y-93710857D01*
X125101414Y-93710857D01*
X125196652Y-93758476D01*
X125244271Y-93806095D01*
X125291890Y-93901333D01*
X125291890Y-94282285D01*
X124863319Y-93329904D02*
X124815700Y-93282285D01*
X124768080Y-93187047D01*
X124768080Y-92948952D01*
X124815700Y-92853714D01*
X124863319Y-92806095D01*
X124958557Y-92758476D01*
X125053795Y-92758476D01*
X125196652Y-92806095D01*
X125768080Y-93377523D01*
X125768080Y-92758476D01*
X124768080Y-91901333D02*
X124768080Y-92091809D01*
X124815700Y-92187047D01*
X124863319Y-92234666D01*
X125006176Y-92329904D01*
X125196652Y-92377523D01*
X125577604Y-92377523D01*
X125672842Y-92329904D01*
X125720461Y-92282285D01*
X125768080Y-92187047D01*
X125768080Y-91996571D01*
X125720461Y-91901333D01*
X125672842Y-91853714D01*
X125577604Y-91806095D01*
X125339509Y-91806095D01*
X125244271Y-91853714D01*
X125196652Y-91901333D01*
X125149033Y-91996571D01*
X125149033Y-92187047D01*
X125196652Y-92282285D01*
X125244271Y-92329904D01*
X125339509Y-92377523D01*
%TO.C,R25*%
X130171942Y-93063180D02*
X129838609Y-92586990D01*
X129600514Y-93063180D02*
X129600514Y-92063180D01*
X129981466Y-92063180D01*
X130076704Y-92110800D01*
X130124323Y-92158419D01*
X130171942Y-92253657D01*
X130171942Y-92396514D01*
X130124323Y-92491752D01*
X130076704Y-92539371D01*
X129981466Y-92586990D01*
X129600514Y-92586990D01*
X130552895Y-92158419D02*
X130600514Y-92110800D01*
X130695752Y-92063180D01*
X130933847Y-92063180D01*
X131029085Y-92110800D01*
X131076704Y-92158419D01*
X131124323Y-92253657D01*
X131124323Y-92348895D01*
X131076704Y-92491752D01*
X130505276Y-93063180D01*
X131124323Y-93063180D01*
X132029085Y-92063180D02*
X131552895Y-92063180D01*
X131505276Y-92539371D01*
X131552895Y-92491752D01*
X131648133Y-92444133D01*
X131886228Y-92444133D01*
X131981466Y-92491752D01*
X132029085Y-92539371D01*
X132076704Y-92634609D01*
X132076704Y-92872704D01*
X132029085Y-92967942D01*
X131981466Y-93015561D01*
X131886228Y-93063180D01*
X131648133Y-93063180D01*
X131552895Y-93015561D01*
X131505276Y-92967942D01*
%TO.C,C18*%
X142046442Y-93031442D02*
X141998823Y-93079061D01*
X141855966Y-93126680D01*
X141760728Y-93126680D01*
X141617871Y-93079061D01*
X141522633Y-92983823D01*
X141475014Y-92888585D01*
X141427395Y-92698109D01*
X141427395Y-92555252D01*
X141475014Y-92364776D01*
X141522633Y-92269538D01*
X141617871Y-92174300D01*
X141760728Y-92126680D01*
X141855966Y-92126680D01*
X141998823Y-92174300D01*
X142046442Y-92221919D01*
X142998823Y-93126680D02*
X142427395Y-93126680D01*
X142713109Y-93126680D02*
X142713109Y-92126680D01*
X142617871Y-92269538D01*
X142522633Y-92364776D01*
X142427395Y-92412395D01*
X143570252Y-92555252D02*
X143475014Y-92507633D01*
X143427395Y-92460014D01*
X143379776Y-92364776D01*
X143379776Y-92317157D01*
X143427395Y-92221919D01*
X143475014Y-92174300D01*
X143570252Y-92126680D01*
X143760728Y-92126680D01*
X143855966Y-92174300D01*
X143903585Y-92221919D01*
X143951204Y-92317157D01*
X143951204Y-92364776D01*
X143903585Y-92460014D01*
X143855966Y-92507633D01*
X143760728Y-92555252D01*
X143570252Y-92555252D01*
X143475014Y-92602871D01*
X143427395Y-92650490D01*
X143379776Y-92745728D01*
X143379776Y-92936204D01*
X143427395Y-93031442D01*
X143475014Y-93079061D01*
X143570252Y-93126680D01*
X143760728Y-93126680D01*
X143855966Y-93079061D01*
X143903585Y-93031442D01*
X143951204Y-92936204D01*
X143951204Y-92745728D01*
X143903585Y-92650490D01*
X143855966Y-92602871D01*
X143760728Y-92555252D01*
%TO.C,C16*%
X141068542Y-94377642D02*
X141020923Y-94425261D01*
X140878066Y-94472880D01*
X140782828Y-94472880D01*
X140639971Y-94425261D01*
X140544733Y-94330023D01*
X140497114Y-94234785D01*
X140449495Y-94044309D01*
X140449495Y-93901452D01*
X140497114Y-93710976D01*
X140544733Y-93615738D01*
X140639971Y-93520500D01*
X140782828Y-93472880D01*
X140878066Y-93472880D01*
X141020923Y-93520500D01*
X141068542Y-93568119D01*
X142020923Y-94472880D02*
X141449495Y-94472880D01*
X141735209Y-94472880D02*
X141735209Y-93472880D01*
X141639971Y-93615738D01*
X141544733Y-93710976D01*
X141449495Y-93758595D01*
X142878066Y-93472880D02*
X142687590Y-93472880D01*
X142592352Y-93520500D01*
X142544733Y-93568119D01*
X142449495Y-93710976D01*
X142401876Y-93901452D01*
X142401876Y-94282404D01*
X142449495Y-94377642D01*
X142497114Y-94425261D01*
X142592352Y-94472880D01*
X142782828Y-94472880D01*
X142878066Y-94425261D01*
X142925685Y-94377642D01*
X142973304Y-94282404D01*
X142973304Y-94044309D01*
X142925685Y-93949071D01*
X142878066Y-93901452D01*
X142782828Y-93853833D01*
X142592352Y-93853833D01*
X142497114Y-93901452D01*
X142449495Y-93949071D01*
X142401876Y-94044309D01*
%TO.C,C15*%
X124377442Y-93761657D02*
X124425061Y-93809276D01*
X124472680Y-93952133D01*
X124472680Y-94047371D01*
X124425061Y-94190228D01*
X124329823Y-94285466D01*
X124234585Y-94333085D01*
X124044109Y-94380704D01*
X123901252Y-94380704D01*
X123710776Y-94333085D01*
X123615538Y-94285466D01*
X123520300Y-94190228D01*
X123472680Y-94047371D01*
X123472680Y-93952133D01*
X123520300Y-93809276D01*
X123567919Y-93761657D01*
X124472680Y-92809276D02*
X124472680Y-93380704D01*
X124472680Y-93094990D02*
X123472680Y-93094990D01*
X123615538Y-93190228D01*
X123710776Y-93285466D01*
X123758395Y-93380704D01*
X123472680Y-91904514D02*
X123472680Y-92380704D01*
X123948871Y-92428323D01*
X123901252Y-92380704D01*
X123853633Y-92285466D01*
X123853633Y-92047371D01*
X123901252Y-91952133D01*
X123948871Y-91904514D01*
X124044109Y-91856895D01*
X124282204Y-91856895D01*
X124377442Y-91904514D01*
X124425061Y-91952133D01*
X124472680Y-92047371D01*
X124472680Y-92285466D01*
X124425061Y-92380704D01*
X124377442Y-92428323D01*
%TO.C,C14*%
X135324842Y-94002957D02*
X135372461Y-94050576D01*
X135420080Y-94193433D01*
X135420080Y-94288671D01*
X135372461Y-94431528D01*
X135277223Y-94526766D01*
X135181985Y-94574385D01*
X134991509Y-94622004D01*
X134848652Y-94622004D01*
X134658176Y-94574385D01*
X134562938Y-94526766D01*
X134467700Y-94431528D01*
X134420080Y-94288671D01*
X134420080Y-94193433D01*
X134467700Y-94050576D01*
X134515319Y-94002957D01*
X135420080Y-93050576D02*
X135420080Y-93622004D01*
X135420080Y-93336290D02*
X134420080Y-93336290D01*
X134562938Y-93431528D01*
X134658176Y-93526766D01*
X134705795Y-93622004D01*
X134753414Y-92193433D02*
X135420080Y-92193433D01*
X134372461Y-92431528D02*
X135086747Y-92669623D01*
X135086747Y-92050576D01*
%TO.C,C13*%
X136950442Y-93952157D02*
X136998061Y-93999776D01*
X137045680Y-94142633D01*
X137045680Y-94237871D01*
X136998061Y-94380728D01*
X136902823Y-94475966D01*
X136807585Y-94523585D01*
X136617109Y-94571204D01*
X136474252Y-94571204D01*
X136283776Y-94523585D01*
X136188538Y-94475966D01*
X136093300Y-94380728D01*
X136045680Y-94237871D01*
X136045680Y-94142633D01*
X136093300Y-93999776D01*
X136140919Y-93952157D01*
X137045680Y-92999776D02*
X137045680Y-93571204D01*
X137045680Y-93285490D02*
X136045680Y-93285490D01*
X136188538Y-93380728D01*
X136283776Y-93475966D01*
X136331395Y-93571204D01*
X136045680Y-92666442D02*
X136045680Y-92047395D01*
X136426633Y-92380728D01*
X136426633Y-92237871D01*
X136474252Y-92142633D01*
X136521871Y-92095014D01*
X136617109Y-92047395D01*
X136855204Y-92047395D01*
X136950442Y-92095014D01*
X136998061Y-92142633D01*
X137045680Y-92237871D01*
X137045680Y-92523585D01*
X136998061Y-92618823D01*
X136950442Y-92666442D01*
%TO.C,C8*%
X120792933Y-115319942D02*
X120745314Y-115367561D01*
X120602457Y-115415180D01*
X120507219Y-115415180D01*
X120364361Y-115367561D01*
X120269123Y-115272323D01*
X120221504Y-115177085D01*
X120173885Y-114986609D01*
X120173885Y-114843752D01*
X120221504Y-114653276D01*
X120269123Y-114558038D01*
X120364361Y-114462800D01*
X120507219Y-114415180D01*
X120602457Y-114415180D01*
X120745314Y-114462800D01*
X120792933Y-114510419D01*
X121364361Y-114843752D02*
X121269123Y-114796133D01*
X121221504Y-114748514D01*
X121173885Y-114653276D01*
X121173885Y-114605657D01*
X121221504Y-114510419D01*
X121269123Y-114462800D01*
X121364361Y-114415180D01*
X121554838Y-114415180D01*
X121650076Y-114462800D01*
X121697695Y-114510419D01*
X121745314Y-114605657D01*
X121745314Y-114653276D01*
X121697695Y-114748514D01*
X121650076Y-114796133D01*
X121554838Y-114843752D01*
X121364361Y-114843752D01*
X121269123Y-114891371D01*
X121221504Y-114938990D01*
X121173885Y-115034228D01*
X121173885Y-115224704D01*
X121221504Y-115319942D01*
X121269123Y-115367561D01*
X121364361Y-115415180D01*
X121554838Y-115415180D01*
X121650076Y-115367561D01*
X121697695Y-115319942D01*
X121745314Y-115224704D01*
X121745314Y-115034228D01*
X121697695Y-114938990D01*
X121650076Y-114891371D01*
X121554838Y-114843752D01*
%TO.C,C7*%
X124390142Y-108675266D02*
X124437761Y-108722885D01*
X124485380Y-108865742D01*
X124485380Y-108960980D01*
X124437761Y-109103838D01*
X124342523Y-109199076D01*
X124247285Y-109246695D01*
X124056809Y-109294314D01*
X123913952Y-109294314D01*
X123723476Y-109246695D01*
X123628238Y-109199076D01*
X123533000Y-109103838D01*
X123485380Y-108960980D01*
X123485380Y-108865742D01*
X123533000Y-108722885D01*
X123580619Y-108675266D01*
X123485380Y-108341933D02*
X123485380Y-107675266D01*
X124485380Y-108103838D01*
%TO.C,C5*%
X117363933Y-104397942D02*
X117316314Y-104445561D01*
X117173457Y-104493180D01*
X117078219Y-104493180D01*
X116935361Y-104445561D01*
X116840123Y-104350323D01*
X116792504Y-104255085D01*
X116744885Y-104064609D01*
X116744885Y-103921752D01*
X116792504Y-103731276D01*
X116840123Y-103636038D01*
X116935361Y-103540800D01*
X117078219Y-103493180D01*
X117173457Y-103493180D01*
X117316314Y-103540800D01*
X117363933Y-103588419D01*
X118268695Y-103493180D02*
X117792504Y-103493180D01*
X117744885Y-103969371D01*
X117792504Y-103921752D01*
X117887742Y-103874133D01*
X118125838Y-103874133D01*
X118221076Y-103921752D01*
X118268695Y-103969371D01*
X118316314Y-104064609D01*
X118316314Y-104302704D01*
X118268695Y-104397942D01*
X118221076Y-104445561D01*
X118125838Y-104493180D01*
X117887742Y-104493180D01*
X117792504Y-104445561D01*
X117744885Y-104397942D01*
%TO.C,C4*%
X145989733Y-85538442D02*
X145942114Y-85586061D01*
X145799257Y-85633680D01*
X145704019Y-85633680D01*
X145561161Y-85586061D01*
X145465923Y-85490823D01*
X145418304Y-85395585D01*
X145370685Y-85205109D01*
X145370685Y-85062252D01*
X145418304Y-84871776D01*
X145465923Y-84776538D01*
X145561161Y-84681300D01*
X145704019Y-84633680D01*
X145799257Y-84633680D01*
X145942114Y-84681300D01*
X145989733Y-84728919D01*
X146846876Y-84967014D02*
X146846876Y-85633680D01*
X146608780Y-84586061D02*
X146370685Y-85300347D01*
X146989733Y-85300347D01*
%TO.C,C3*%
X145977033Y-86910042D02*
X145929414Y-86957661D01*
X145786557Y-87005280D01*
X145691319Y-87005280D01*
X145548461Y-86957661D01*
X145453223Y-86862423D01*
X145405604Y-86767185D01*
X145357985Y-86576709D01*
X145357985Y-86433852D01*
X145405604Y-86243376D01*
X145453223Y-86148138D01*
X145548461Y-86052900D01*
X145691319Y-86005280D01*
X145786557Y-86005280D01*
X145929414Y-86052900D01*
X145977033Y-86100519D01*
X146310366Y-86005280D02*
X146929414Y-86005280D01*
X146596080Y-86386233D01*
X146738938Y-86386233D01*
X146834176Y-86433852D01*
X146881795Y-86481471D01*
X146929414Y-86576709D01*
X146929414Y-86814804D01*
X146881795Y-86910042D01*
X146834176Y-86957661D01*
X146738938Y-87005280D01*
X146453223Y-87005280D01*
X146357985Y-86957661D01*
X146310366Y-86910042D01*
%TO.C,C2*%
X142284442Y-90669266D02*
X142332061Y-90716885D01*
X142379680Y-90859742D01*
X142379680Y-90954980D01*
X142332061Y-91097838D01*
X142236823Y-91193076D01*
X142141585Y-91240695D01*
X141951109Y-91288314D01*
X141808252Y-91288314D01*
X141617776Y-91240695D01*
X141522538Y-91193076D01*
X141427300Y-91097838D01*
X141379680Y-90954980D01*
X141379680Y-90859742D01*
X141427300Y-90716885D01*
X141474919Y-90669266D01*
X141474919Y-90288314D02*
X141427300Y-90240695D01*
X141379680Y-90145457D01*
X141379680Y-89907361D01*
X141427300Y-89812123D01*
X141474919Y-89764504D01*
X141570157Y-89716885D01*
X141665395Y-89716885D01*
X141808252Y-89764504D01*
X142379680Y-90335933D01*
X142379680Y-89716885D01*
%TO.C,C1*%
X129403533Y-81804642D02*
X129355914Y-81852261D01*
X129213057Y-81899880D01*
X129117819Y-81899880D01*
X128974961Y-81852261D01*
X128879723Y-81757023D01*
X128832104Y-81661785D01*
X128784485Y-81471309D01*
X128784485Y-81328452D01*
X128832104Y-81137976D01*
X128879723Y-81042738D01*
X128974961Y-80947500D01*
X129117819Y-80899880D01*
X129213057Y-80899880D01*
X129355914Y-80947500D01*
X129403533Y-80995119D01*
X130355914Y-81899880D02*
X129784485Y-81899880D01*
X130070200Y-81899880D02*
X130070200Y-80899880D01*
X129974961Y-81042738D01*
X129879723Y-81137976D01*
X129784485Y-81185595D01*
%TO.C,R19*%
X136753580Y-78597857D02*
X136277390Y-78931190D01*
X136753580Y-79169285D02*
X135753580Y-79169285D01*
X135753580Y-78788333D01*
X135801200Y-78693095D01*
X135848819Y-78645476D01*
X135944057Y-78597857D01*
X136086914Y-78597857D01*
X136182152Y-78645476D01*
X136229771Y-78693095D01*
X136277390Y-78788333D01*
X136277390Y-79169285D01*
X136753580Y-77645476D02*
X136753580Y-78216904D01*
X136753580Y-77931190D02*
X135753580Y-77931190D01*
X135896438Y-78026428D01*
X135991676Y-78121666D01*
X136039295Y-78216904D01*
X136753580Y-77169285D02*
X136753580Y-76978809D01*
X136705961Y-76883571D01*
X136658342Y-76835952D01*
X136515485Y-76740714D01*
X136325009Y-76693095D01*
X135944057Y-76693095D01*
X135848819Y-76740714D01*
X135801200Y-76788333D01*
X135753580Y-76883571D01*
X135753580Y-77074047D01*
X135801200Y-77169285D01*
X135848819Y-77216904D01*
X135944057Y-77264523D01*
X136182152Y-77264523D01*
X136277390Y-77216904D01*
X136325009Y-77169285D01*
X136372628Y-77074047D01*
X136372628Y-76883571D01*
X136325009Y-76788333D01*
X136277390Y-76740714D01*
X136182152Y-76693095D01*
%TO.C,R18*%
X138379180Y-78559757D02*
X137902990Y-78893090D01*
X138379180Y-79131185D02*
X137379180Y-79131185D01*
X137379180Y-78750233D01*
X137426800Y-78654995D01*
X137474419Y-78607376D01*
X137569657Y-78559757D01*
X137712514Y-78559757D01*
X137807752Y-78607376D01*
X137855371Y-78654995D01*
X137902990Y-78750233D01*
X137902990Y-79131185D01*
X138379180Y-77607376D02*
X138379180Y-78178804D01*
X138379180Y-77893090D02*
X137379180Y-77893090D01*
X137522038Y-77988328D01*
X137617276Y-78083566D01*
X137664895Y-78178804D01*
X137807752Y-77035947D02*
X137760133Y-77131185D01*
X137712514Y-77178804D01*
X137617276Y-77226423D01*
X137569657Y-77226423D01*
X137474419Y-77178804D01*
X137426800Y-77131185D01*
X137379180Y-77035947D01*
X137379180Y-76845471D01*
X137426800Y-76750233D01*
X137474419Y-76702614D01*
X137569657Y-76654995D01*
X137617276Y-76654995D01*
X137712514Y-76702614D01*
X137760133Y-76750233D01*
X137807752Y-76845471D01*
X137807752Y-77035947D01*
X137855371Y-77131185D01*
X137902990Y-77178804D01*
X137998228Y-77226423D01*
X138188704Y-77226423D01*
X138283942Y-77178804D01*
X138331561Y-77131185D01*
X138379180Y-77035947D01*
X138379180Y-76845471D01*
X138331561Y-76750233D01*
X138283942Y-76702614D01*
X138188704Y-76654995D01*
X137998228Y-76654995D01*
X137902990Y-76702614D01*
X137855371Y-76750233D01*
X137807752Y-76845471D01*
%TO.C,R17*%
X141846280Y-78458157D02*
X141370090Y-78791490D01*
X141846280Y-79029585D02*
X140846280Y-79029585D01*
X140846280Y-78648633D01*
X140893900Y-78553395D01*
X140941519Y-78505776D01*
X141036757Y-78458157D01*
X141179614Y-78458157D01*
X141274852Y-78505776D01*
X141322471Y-78553395D01*
X141370090Y-78648633D01*
X141370090Y-79029585D01*
X141846280Y-77505776D02*
X141846280Y-78077204D01*
X141846280Y-77791490D02*
X140846280Y-77791490D01*
X140989138Y-77886728D01*
X141084376Y-77981966D01*
X141131995Y-78077204D01*
X140846280Y-77172442D02*
X140846280Y-76505776D01*
X141846280Y-76934347D01*
%TO.C,R16*%
X139979380Y-78458157D02*
X139503190Y-78791490D01*
X139979380Y-79029585D02*
X138979380Y-79029585D01*
X138979380Y-78648633D01*
X139027000Y-78553395D01*
X139074619Y-78505776D01*
X139169857Y-78458157D01*
X139312714Y-78458157D01*
X139407952Y-78505776D01*
X139455571Y-78553395D01*
X139503190Y-78648633D01*
X139503190Y-79029585D01*
X139979380Y-77505776D02*
X139979380Y-78077204D01*
X139979380Y-77791490D02*
X138979380Y-77791490D01*
X139122238Y-77886728D01*
X139217476Y-77981966D01*
X139265095Y-78077204D01*
X138979380Y-76648633D02*
X138979380Y-76839109D01*
X139027000Y-76934347D01*
X139074619Y-76981966D01*
X139217476Y-77077204D01*
X139407952Y-77124823D01*
X139788904Y-77124823D01*
X139884142Y-77077204D01*
X139931761Y-77029585D01*
X139979380Y-76934347D01*
X139979380Y-76743871D01*
X139931761Y-76648633D01*
X139884142Y-76601014D01*
X139788904Y-76553395D01*
X139550809Y-76553395D01*
X139455571Y-76601014D01*
X139407952Y-76648633D01*
X139360333Y-76743871D01*
X139360333Y-76934347D01*
X139407952Y-77029585D01*
X139455571Y-77077204D01*
X139550809Y-77124823D01*
%TO.C,R15*%
X118566142Y-102029380D02*
X118232809Y-101553190D01*
X117994714Y-102029380D02*
X117994714Y-101029380D01*
X118375666Y-101029380D01*
X118470904Y-101077000D01*
X118518523Y-101124619D01*
X118566142Y-101219857D01*
X118566142Y-101362714D01*
X118518523Y-101457952D01*
X118470904Y-101505571D01*
X118375666Y-101553190D01*
X117994714Y-101553190D01*
X119518523Y-102029380D02*
X118947095Y-102029380D01*
X119232809Y-102029380D02*
X119232809Y-101029380D01*
X119137571Y-101172238D01*
X119042333Y-101267476D01*
X118947095Y-101315095D01*
X120423285Y-101029380D02*
X119947095Y-101029380D01*
X119899476Y-101505571D01*
X119947095Y-101457952D01*
X120042333Y-101410333D01*
X120280428Y-101410333D01*
X120375666Y-101457952D01*
X120423285Y-101505571D01*
X120470904Y-101600809D01*
X120470904Y-101838904D01*
X120423285Y-101934142D01*
X120375666Y-101981761D01*
X120280428Y-102029380D01*
X120042333Y-102029380D01*
X119947095Y-101981761D01*
X119899476Y-101934142D01*
%TO.C,R14*%
X118564142Y-100759380D02*
X118230809Y-100283190D01*
X117992714Y-100759380D02*
X117992714Y-99759380D01*
X118373666Y-99759380D01*
X118468904Y-99807000D01*
X118516523Y-99854619D01*
X118564142Y-99949857D01*
X118564142Y-100092714D01*
X118516523Y-100187952D01*
X118468904Y-100235571D01*
X118373666Y-100283190D01*
X117992714Y-100283190D01*
X119516523Y-100759380D02*
X118945095Y-100759380D01*
X119230809Y-100759380D02*
X119230809Y-99759380D01*
X119135571Y-99902238D01*
X119040333Y-99997476D01*
X118945095Y-100045095D01*
X120373666Y-100092714D02*
X120373666Y-100759380D01*
X120135571Y-99711761D02*
X119897476Y-100426047D01*
X120516523Y-100426047D01*
%TO.C,R13*%
X118691142Y-95933380D02*
X118357809Y-95457190D01*
X118119714Y-95933380D02*
X118119714Y-94933380D01*
X118500666Y-94933380D01*
X118595904Y-94981000D01*
X118643523Y-95028619D01*
X118691142Y-95123857D01*
X118691142Y-95266714D01*
X118643523Y-95361952D01*
X118595904Y-95409571D01*
X118500666Y-95457190D01*
X118119714Y-95457190D01*
X119643523Y-95933380D02*
X119072095Y-95933380D01*
X119357809Y-95933380D02*
X119357809Y-94933380D01*
X119262571Y-95076238D01*
X119167333Y-95171476D01*
X119072095Y-95219095D01*
X119976857Y-94933380D02*
X120595904Y-94933380D01*
X120262571Y-95314333D01*
X120405428Y-95314333D01*
X120500666Y-95361952D01*
X120548285Y-95409571D01*
X120595904Y-95504809D01*
X120595904Y-95742904D01*
X120548285Y-95838142D01*
X120500666Y-95885761D01*
X120405428Y-95933380D01*
X120119714Y-95933380D01*
X120024476Y-95885761D01*
X119976857Y-95838142D01*
%TO.C,R12*%
X118691142Y-94663380D02*
X118357809Y-94187190D01*
X118119714Y-94663380D02*
X118119714Y-93663380D01*
X118500666Y-93663380D01*
X118595904Y-93711000D01*
X118643523Y-93758619D01*
X118691142Y-93853857D01*
X118691142Y-93996714D01*
X118643523Y-94091952D01*
X118595904Y-94139571D01*
X118500666Y-94187190D01*
X118119714Y-94187190D01*
X119643523Y-94663380D02*
X119072095Y-94663380D01*
X119357809Y-94663380D02*
X119357809Y-93663380D01*
X119262571Y-93806238D01*
X119167333Y-93901476D01*
X119072095Y-93949095D01*
X120024476Y-93758619D02*
X120072095Y-93711000D01*
X120167333Y-93663380D01*
X120405428Y-93663380D01*
X120500666Y-93711000D01*
X120548285Y-93758619D01*
X120595904Y-93853857D01*
X120595904Y-93949095D01*
X120548285Y-94091952D01*
X119976857Y-94663380D01*
X120595904Y-94663380D01*
%TO.C,R11*%
X118691142Y-93139380D02*
X118357809Y-92663190D01*
X118119714Y-93139380D02*
X118119714Y-92139380D01*
X118500666Y-92139380D01*
X118595904Y-92187000D01*
X118643523Y-92234619D01*
X118691142Y-92329857D01*
X118691142Y-92472714D01*
X118643523Y-92567952D01*
X118595904Y-92615571D01*
X118500666Y-92663190D01*
X118119714Y-92663190D01*
X119643523Y-93139380D02*
X119072095Y-93139380D01*
X119357809Y-93139380D02*
X119357809Y-92139380D01*
X119262571Y-92282238D01*
X119167333Y-92377476D01*
X119072095Y-92425095D01*
X120595904Y-93139380D02*
X120024476Y-93139380D01*
X120310190Y-93139380D02*
X120310190Y-92139380D01*
X120214952Y-92282238D01*
X120119714Y-92377476D01*
X120024476Y-92425095D01*
%TO.C,R10*%
X118564142Y-99489380D02*
X118230809Y-99013190D01*
X117992714Y-99489380D02*
X117992714Y-98489380D01*
X118373666Y-98489380D01*
X118468904Y-98537000D01*
X118516523Y-98584619D01*
X118564142Y-98679857D01*
X118564142Y-98822714D01*
X118516523Y-98917952D01*
X118468904Y-98965571D01*
X118373666Y-99013190D01*
X117992714Y-99013190D01*
X119516523Y-99489380D02*
X118945095Y-99489380D01*
X119230809Y-99489380D02*
X119230809Y-98489380D01*
X119135571Y-98632238D01*
X119040333Y-98727476D01*
X118945095Y-98775095D01*
X120135571Y-98489380D02*
X120230809Y-98489380D01*
X120326047Y-98537000D01*
X120373666Y-98584619D01*
X120421285Y-98679857D01*
X120468904Y-98870333D01*
X120468904Y-99108428D01*
X120421285Y-99298904D01*
X120373666Y-99394142D01*
X120326047Y-99441761D01*
X120230809Y-99489380D01*
X120135571Y-99489380D01*
X120040333Y-99441761D01*
X119992714Y-99394142D01*
X119945095Y-99298904D01*
X119897476Y-99108428D01*
X119897476Y-98870333D01*
X119945095Y-98679857D01*
X119992714Y-98584619D01*
X120040333Y-98537000D01*
X120135571Y-98489380D01*
%TO.C,R1*%
X138153833Y-94053780D02*
X137820500Y-93577590D01*
X137582404Y-94053780D02*
X137582404Y-93053780D01*
X137963357Y-93053780D01*
X138058595Y-93101400D01*
X138106214Y-93149019D01*
X138153833Y-93244257D01*
X138153833Y-93387114D01*
X138106214Y-93482352D01*
X138058595Y-93529971D01*
X137963357Y-93577590D01*
X137582404Y-93577590D01*
X139106214Y-94053780D02*
X138534785Y-94053780D01*
X138820500Y-94053780D02*
X138820500Y-93053780D01*
X138725261Y-93196638D01*
X138630023Y-93291876D01*
X138534785Y-93339495D01*
%TO.C,D21*%
X153466780Y-104899485D02*
X152466780Y-104899485D01*
X152466780Y-104661390D01*
X152514400Y-104518533D01*
X152609638Y-104423295D01*
X152704876Y-104375676D01*
X152895352Y-104328057D01*
X153038209Y-104328057D01*
X153228685Y-104375676D01*
X153323923Y-104423295D01*
X153419161Y-104518533D01*
X153466780Y-104661390D01*
X153466780Y-104899485D01*
X152562019Y-103947104D02*
X152514400Y-103899485D01*
X152466780Y-103804247D01*
X152466780Y-103566152D01*
X152514400Y-103470914D01*
X152562019Y-103423295D01*
X152657257Y-103375676D01*
X152752495Y-103375676D01*
X152895352Y-103423295D01*
X153466780Y-103994723D01*
X153466780Y-103375676D01*
X153466780Y-102423295D02*
X153466780Y-102994723D01*
X153466780Y-102709009D02*
X152466780Y-102709009D01*
X152609638Y-102804247D01*
X152704876Y-102899485D01*
X152752495Y-102994723D01*
%TO.C,R9*%
X115061980Y-107814266D02*
X114585790Y-108147600D01*
X115061980Y-108385695D02*
X114061980Y-108385695D01*
X114061980Y-108004742D01*
X114109600Y-107909504D01*
X114157219Y-107861885D01*
X114252457Y-107814266D01*
X114395314Y-107814266D01*
X114490552Y-107861885D01*
X114538171Y-107909504D01*
X114585790Y-108004742D01*
X114585790Y-108385695D01*
X115061980Y-107338076D02*
X115061980Y-107147600D01*
X115014361Y-107052361D01*
X114966742Y-107004742D01*
X114823885Y-106909504D01*
X114633409Y-106861885D01*
X114252457Y-106861885D01*
X114157219Y-106909504D01*
X114109600Y-106957123D01*
X114061980Y-107052361D01*
X114061980Y-107242838D01*
X114109600Y-107338076D01*
X114157219Y-107385695D01*
X114252457Y-107433314D01*
X114490552Y-107433314D01*
X114585790Y-107385695D01*
X114633409Y-107338076D01*
X114681028Y-107242838D01*
X114681028Y-107052361D01*
X114633409Y-106957123D01*
X114585790Y-106909504D01*
X114490552Y-106861885D01*
%TO.C,R8*%
X145888133Y-81963380D02*
X145554800Y-81487190D01*
X145316704Y-81963380D02*
X145316704Y-80963380D01*
X145697657Y-80963380D01*
X145792895Y-81011000D01*
X145840514Y-81058619D01*
X145888133Y-81153857D01*
X145888133Y-81296714D01*
X145840514Y-81391952D01*
X145792895Y-81439571D01*
X145697657Y-81487190D01*
X145316704Y-81487190D01*
X146459561Y-81391952D02*
X146364323Y-81344333D01*
X146316704Y-81296714D01*
X146269085Y-81201476D01*
X146269085Y-81153857D01*
X146316704Y-81058619D01*
X146364323Y-81011000D01*
X146459561Y-80963380D01*
X146650038Y-80963380D01*
X146745276Y-81011000D01*
X146792895Y-81058619D01*
X146840514Y-81153857D01*
X146840514Y-81201476D01*
X146792895Y-81296714D01*
X146745276Y-81344333D01*
X146650038Y-81391952D01*
X146459561Y-81391952D01*
X146364323Y-81439571D01*
X146316704Y-81487190D01*
X146269085Y-81582428D01*
X146269085Y-81772904D01*
X146316704Y-81868142D01*
X146364323Y-81915761D01*
X146459561Y-81963380D01*
X146650038Y-81963380D01*
X146745276Y-81915761D01*
X146792895Y-81868142D01*
X146840514Y-81772904D01*
X146840514Y-81582428D01*
X146792895Y-81487190D01*
X146745276Y-81439571D01*
X146650038Y-81391952D01*
%TO.C,R7*%
X145888133Y-80439380D02*
X145554800Y-79963190D01*
X145316704Y-80439380D02*
X145316704Y-79439380D01*
X145697657Y-79439380D01*
X145792895Y-79487000D01*
X145840514Y-79534619D01*
X145888133Y-79629857D01*
X145888133Y-79772714D01*
X145840514Y-79867952D01*
X145792895Y-79915571D01*
X145697657Y-79963190D01*
X145316704Y-79963190D01*
X146221466Y-79439380D02*
X146888133Y-79439380D01*
X146459561Y-80439380D01*
%TO.C,R3*%
X113868180Y-97400266D02*
X113391990Y-97733600D01*
X113868180Y-97971695D02*
X112868180Y-97971695D01*
X112868180Y-97590742D01*
X112915800Y-97495504D01*
X112963419Y-97447885D01*
X113058657Y-97400266D01*
X113201514Y-97400266D01*
X113296752Y-97447885D01*
X113344371Y-97495504D01*
X113391990Y-97590742D01*
X113391990Y-97971695D01*
X112868180Y-97066933D02*
X112868180Y-96447885D01*
X113249133Y-96781219D01*
X113249133Y-96638361D01*
X113296752Y-96543123D01*
X113344371Y-96495504D01*
X113439609Y-96447885D01*
X113677704Y-96447885D01*
X113772942Y-96495504D01*
X113820561Y-96543123D01*
X113868180Y-96638361D01*
X113868180Y-96924076D01*
X113820561Y-97019314D01*
X113772942Y-97066933D01*
%TO.C,R2*%
X145989733Y-83309580D02*
X145656400Y-82833390D01*
X145418304Y-83309580D02*
X145418304Y-82309580D01*
X145799257Y-82309580D01*
X145894495Y-82357200D01*
X145942114Y-82404819D01*
X145989733Y-82500057D01*
X145989733Y-82642914D01*
X145942114Y-82738152D01*
X145894495Y-82785771D01*
X145799257Y-82833390D01*
X145418304Y-82833390D01*
X146370685Y-82404819D02*
X146418304Y-82357200D01*
X146513542Y-82309580D01*
X146751638Y-82309580D01*
X146846876Y-82357200D01*
X146894495Y-82404819D01*
X146942114Y-82500057D01*
X146942114Y-82595295D01*
X146894495Y-82738152D01*
X146323066Y-83309580D01*
X146942114Y-83309580D01*
%TO.C,U2*%
X115662180Y-111101904D02*
X116471704Y-111101904D01*
X116566942Y-111054285D01*
X116614561Y-111006666D01*
X116662180Y-110911428D01*
X116662180Y-110720952D01*
X116614561Y-110625714D01*
X116566942Y-110578095D01*
X116471704Y-110530476D01*
X115662180Y-110530476D01*
X115757419Y-110101904D02*
X115709800Y-110054285D01*
X115662180Y-109959047D01*
X115662180Y-109720952D01*
X115709800Y-109625714D01*
X115757419Y-109578095D01*
X115852657Y-109530476D01*
X115947895Y-109530476D01*
X116090752Y-109578095D01*
X116662180Y-110149523D01*
X116662180Y-109530476D01*
%TD*%
M02*
