%TF.GenerationSoftware,KiCad,Pcbnew,(5.1.10)-1*%
%TF.CreationDate,2022-01-29T15:25:58-05:00*%
%TF.ProjectId,CAN_Gauge,43414e5f-4761-4756-9765-2e6b69636164,rev?*%
%TF.SameCoordinates,Original*%
%TF.FileFunction,Other,Comment*%
%FSLAX46Y46*%
G04 Gerber Fmt 4.6, Leading zero omitted, Abs format (unit mm)*
G04 Created by KiCad (PCBNEW (5.1.10)-1) date 2022-01-29 15:25:58*
%MOMM*%
%LPD*%
G01*
G04 APERTURE LIST*
%ADD10C,0.150000*%
%ADD11C,0.070000*%
G04 APERTURE END LIST*
D10*
%TO.C,H4*%
X135304000Y-71592000D02*
G75*
G03*
X135304000Y-71592000I-2000000J0D01*
G01*
%TO.C,H3*%
X157954578Y-98585908D02*
G75*
G03*
X157954578Y-98585908I-2000000J0D01*
G01*
%TO.C,H2*%
X112653422Y-98585908D02*
G75*
G03*
X112653422Y-98585908I-2000000J0D01*
G01*
%TO.C,H1*%
X135304000Y-117592000D02*
G75*
G03*
X135304000Y-117592000I-2000000J0D01*
G01*
%TD*%
%TO.C,J1*%
D11*
X120229504Y-84181152D02*
X120229504Y-83781152D01*
X120458076Y-84181152D02*
X120286647Y-83952580D01*
X120458076Y-83781152D02*
X120229504Y-84009723D01*
X120629504Y-83971628D02*
X120762838Y-83971628D01*
X120819980Y-84181152D02*
X120629504Y-84181152D01*
X120629504Y-83781152D01*
X120819980Y-83781152D01*
X120991409Y-83971628D02*
X121124742Y-83971628D01*
X121181885Y-84181152D02*
X120991409Y-84181152D01*
X120991409Y-83781152D01*
X121181885Y-83781152D01*
X121353314Y-84181152D02*
X121353314Y-83781152D01*
X121505695Y-83781152D01*
X121543790Y-83800200D01*
X121562838Y-83819247D01*
X121581885Y-83857342D01*
X121581885Y-83914485D01*
X121562838Y-83952580D01*
X121543790Y-83971628D01*
X121505695Y-83990676D01*
X121353314Y-83990676D01*
X121829504Y-83781152D02*
X121905695Y-83781152D01*
X121943790Y-83800200D01*
X121981885Y-83838295D01*
X122000933Y-83914485D01*
X122000933Y-84047819D01*
X121981885Y-84124009D01*
X121943790Y-84162104D01*
X121905695Y-84181152D01*
X121829504Y-84181152D01*
X121791409Y-84162104D01*
X121753314Y-84124009D01*
X121734266Y-84047819D01*
X121734266Y-83914485D01*
X121753314Y-83838295D01*
X121791409Y-83800200D01*
X121829504Y-83781152D01*
X122172361Y-83781152D02*
X122172361Y-84104961D01*
X122191409Y-84143057D01*
X122210457Y-84162104D01*
X122248552Y-84181152D01*
X122324742Y-84181152D01*
X122362838Y-84162104D01*
X122381885Y-84143057D01*
X122400933Y-84104961D01*
X122400933Y-83781152D01*
X122534266Y-83781152D02*
X122762838Y-83781152D01*
X122648552Y-84181152D02*
X122648552Y-83781152D01*
%TD*%
M02*
