M48
; DRILL file {KiCad (5.1.10)-1} date 01/29/22 15:25:55
; FORMAT={2:4/ absolute / inch / keep zeros}
; #@! TF.CreationDate,2022-01-29T15:25:55-05:00
; #@! TF.GenerationSoftware,Kicad,Pcbnew,(5.1.10)-1
; #@! TF.FileFunction,Plated,1,2,PTH
FMAT,2
INCH
T1C0.0157
T2C0.0197
T3C0.0394
%
G90
G05
T1
X043832Y-036511
X044137Y-037581
X044322Y-040321
X045052Y-037671
X045072Y-038951
X045282Y-035741
X045282Y-037141
X045302Y-042931
X045462Y-041151
X046033Y-040390
X046132Y-038441
X046532Y-036562
X046532Y-037091
X046601Y-035776
X046632Y-039541
X047192Y-032191
X047432Y-040751
X047822Y-032361
X048132Y-030781
X048244Y-043653
X048322Y-035741
X048392Y-045721
X048734Y-038593
X049282Y-037451
X049432Y-035401
X049812Y-034826
X049882Y-034141
X050318Y-035155
X050655Y-034127
X050708Y-031565
X050732Y-035391
X050982Y-035766
X050997Y-029026
X051332Y-037126
X051417Y-034881
X051642Y-036226
X051807Y-030456
X051872Y-038421
X052202Y-030106
X052312Y-038321
X052347Y-036256
X052522Y-031026
X052698Y-038424
X052862Y-036311
X053387Y-038501
X053432Y-029081
X053622Y-037106
X053977Y-038371
X054482Y-046531
X054628Y-038397
X054707Y-035726
X054942Y-029006
X055877Y-033681
X055917Y-033181
X056097Y-029486
X056212Y-045981
X056554Y-038418
X057142Y-032161
X057182Y-032741
X057242Y-031681
X057252Y-033691
X057442Y-038281
X058592Y-044261
X060302Y-042401
X060337Y-039231
X060602Y-040061
X060742Y-037591
X061962Y-037861
T2
X058242Y-033771
T3
X050639Y-042960
X050639Y-044141
X051820Y-042960
X051820Y-044141
X053001Y-042960
X053001Y-044141
X054182Y-042960
X054182Y-044141
T0
M30
