M48
; DRILL file {KiCad (5.1.10)-1} date 02/14/22 20:34:44
; FORMAT={2:4/ absolute / inch / keep zeros}
; #@! TF.CreationDate,2022-02-14T20:34:44-05:00
; #@! TF.GenerationSoftware,Kicad,Pcbnew,(5.1.10)-1
; #@! TF.FileFunction,Plated,1,2,PTH
FMAT,2
INCH
T1C0.0157
T2C0.0197
T3C0.0394
%
G90
G05
T1
X043847Y-036626
X044232Y-037426
X044322Y-040321
X045052Y-037671
X045072Y-038951
X045282Y-035741
X045332Y-037091
X045462Y-041151
X045652Y-043056
X046033Y-040390
X046132Y-038441
X046407Y-039491
X046532Y-036562
X046532Y-037091
X046601Y-035776
X046632Y-030811
X047322Y-032366
X047432Y-040751
X047872Y-032351
X048244Y-043653
X048322Y-035741
X048392Y-045721
X048647Y-031826
X048734Y-038593
X049282Y-037451
X049432Y-035401
X049812Y-034826
X049882Y-034141
X050318Y-035155
X050655Y-034127
X050771Y-031502
X050827Y-035106
X050982Y-035766
X050997Y-029026
X051332Y-037126
X051444Y-034653
X051642Y-036226
X051807Y-030456
X051872Y-038421
X052202Y-030106
X052312Y-038321
X052347Y-036256
X052532Y-031056
X052698Y-038424
X052862Y-036311
X053372Y-038597
X053427Y-028996
X053632Y-037511
X054017Y-038506
X054482Y-046531
X054707Y-035726
X054707Y-038561
X054922Y-029106
X055877Y-033681
X055917Y-033181
X055992Y-029486
X056127Y-035786
X056212Y-045981
X056557Y-038566
X056987Y-033651
X057077Y-032596
X057087Y-032091
X057127Y-031521
X057442Y-038281
X058592Y-044261
X060302Y-042401
X060337Y-039231
X060602Y-040061
X060742Y-037591
X061962Y-037861
T2
X057872Y-034446
T3
X050639Y-042960
X050639Y-044141
X051820Y-042960
X051820Y-044141
X053001Y-042960
X053001Y-044141
X054182Y-042960
X054182Y-044141
T0
M30
