%TF.GenerationSoftware,KiCad,Pcbnew,(5.1.10)-1*%
%TF.CreationDate,2022-02-14T20:34:47-05:00*%
%TF.ProjectId,CAN_Gauge,43414e5f-4761-4756-9765-2e6b69636164,rev?*%
%TF.SameCoordinates,Original*%
%TF.FileFunction,Other,User*%
%FSLAX46Y46*%
G04 Gerber Fmt 4.6, Leading zero omitted, Abs format (unit mm)*
G04 Created by KiCad (PCBNEW (5.1.10)-1) date 2022-02-14 20:34:47*
%MOMM*%
%LPD*%
G01*
G04 APERTURE LIST*
%ADD10C,0.050000*%
G04 APERTURE END LIST*
D10*
%TO.C,JP3*%
X127029200Y-75206400D02*
X123729200Y-75206400D01*
X127029200Y-75206400D02*
X127029200Y-77706400D01*
X123729200Y-77706400D02*
X123729200Y-75206400D01*
X123729200Y-77706400D02*
X127029200Y-77706400D01*
%TO.C,JP2*%
X127615400Y-77706400D02*
X130915400Y-77706400D01*
X127615400Y-77706400D02*
X127615400Y-75206400D01*
X130915400Y-75206400D02*
X130915400Y-77706400D01*
X130915400Y-75206400D02*
X127615400Y-75206400D01*
%TO.C,SW1*%
X143953763Y-116275231D02*
X139357569Y-111679037D01*
X146428637Y-104607969D02*
X151024831Y-109204163D01*
X151024831Y-109204163D02*
X143953763Y-116275231D01*
X146428637Y-104607969D02*
X139357569Y-111679037D01*
%TO.C,JP1*%
X131990500Y-98926000D02*
X131990500Y-102226000D01*
X131990500Y-98926000D02*
X134490500Y-98926000D01*
X134490500Y-102226000D02*
X131990500Y-102226000D01*
X134490500Y-102226000D02*
X134490500Y-98926000D01*
%TO.C,D11*%
X111849229Y-106046158D02*
X113309229Y-106046158D01*
X113309229Y-106046158D02*
X113309229Y-103086158D01*
X113309229Y-103086158D02*
X111849229Y-103086158D01*
X111849229Y-103086158D02*
X111849229Y-106046158D01*
%TO.C,D9*%
X111034000Y-93112000D02*
X109574000Y-93112000D01*
X109574000Y-93112000D02*
X109574000Y-96072000D01*
X109574000Y-96072000D02*
X111034000Y-96072000D01*
X111034000Y-96072000D02*
X111034000Y-93112000D01*
%TO.C,D8*%
X111849229Y-86097842D02*
X113309229Y-86097842D01*
X113309229Y-86097842D02*
X113309229Y-83137842D01*
X113309229Y-83137842D02*
X111849229Y-83137842D01*
X111849229Y-83137842D02*
X111849229Y-86097842D01*
%TO.C,D3*%
X154758771Y-83137842D02*
X153298771Y-83137842D01*
X153298771Y-83137842D02*
X153298771Y-86097842D01*
X153298771Y-86097842D02*
X154758771Y-86097842D01*
X154758771Y-86097842D02*
X154758771Y-83137842D01*
%TO.C,D1*%
X152957500Y-106105000D02*
X154417500Y-106105000D01*
X154417500Y-106105000D02*
X154417500Y-103145000D01*
X154417500Y-103145000D02*
X152957500Y-103145000D01*
X152957500Y-103145000D02*
X152957500Y-106105000D01*
%TO.C,D10*%
X120102600Y-112531200D02*
X121562600Y-112531200D01*
X121562600Y-112531200D02*
X121562600Y-109571200D01*
X121562600Y-109571200D02*
X120102600Y-109571200D01*
X120102600Y-109571200D02*
X120102600Y-112531200D01*
%TO.C,D7*%
X122020500Y-75887030D02*
X119060500Y-75887030D01*
X122020500Y-77347030D02*
X122020500Y-75887030D01*
X119060500Y-77347030D02*
X122020500Y-77347030D01*
X119060500Y-75887030D02*
X119060500Y-77347030D01*
%TO.C,D6*%
X126689248Y-71442493D02*
X126689248Y-72902493D01*
X126689248Y-72902493D02*
X129649248Y-72902493D01*
X129649248Y-72902493D02*
X129649248Y-71442493D01*
X129649248Y-71442493D02*
X126689248Y-71442493D01*
%TO.C,D4*%
X144587500Y-77351500D02*
X147547500Y-77351500D01*
X144587500Y-75891500D02*
X144587500Y-77351500D01*
X147547500Y-75891500D02*
X144587500Y-75891500D01*
X147547500Y-77351500D02*
X147547500Y-75891500D01*
%TO.C,D5*%
X139292500Y-71573500D02*
X136332500Y-71573500D01*
X139292500Y-73033500D02*
X139292500Y-71573500D01*
X136332500Y-73033500D02*
X139292500Y-73033500D01*
X136332500Y-71573500D02*
X136332500Y-73033500D01*
%TO.C,D2*%
X155574000Y-96072000D02*
X157034000Y-96072000D01*
X157034000Y-96072000D02*
X157034000Y-93112000D01*
X157034000Y-93112000D02*
X155574000Y-93112000D01*
X155574000Y-93112000D02*
X155574000Y-96072000D01*
%TD*%
M02*
