%TF.GenerationSoftware,KiCad,Pcbnew,(5.1.10)-1*%
%TF.CreationDate,2022-02-14T20:34:47-05:00*%
%TF.ProjectId,CAN_Gauge,43414e5f-4761-4756-9765-2e6b69636164,rev?*%
%TF.SameCoordinates,Original*%
%TF.FileFunction,Copper,L2,Bot*%
%TF.FilePolarity,Positive*%
%FSLAX46Y46*%
G04 Gerber Fmt 4.6, Leading zero omitted, Abs format (unit mm)*
G04 Created by KiCad (PCBNEW (5.1.10)-1) date 2022-02-14 20:34:47*
%MOMM*%
%LPD*%
G01*
G04 APERTURE LIST*
%TA.AperFunction,SMDPad,CuDef*%
%ADD10R,1.000000X1.500000*%
%TD*%
%TA.AperFunction,SMDPad,CuDef*%
%ADD11C,0.100000*%
%TD*%
%TA.AperFunction,SMDPad,CuDef*%
%ADD12R,1.500000X1.000000*%
%TD*%
%TA.AperFunction,ComponentPad*%
%ADD13C,1.500000*%
%TD*%
%TA.AperFunction,ViaPad*%
%ADD14C,0.800000*%
%TD*%
%TA.AperFunction,ViaPad*%
%ADD15C,1.000000*%
%TD*%
%TA.AperFunction,Conductor*%
%ADD16C,0.250000*%
%TD*%
%TA.AperFunction,Conductor*%
%ADD17C,0.254000*%
%TD*%
%TA.AperFunction,Conductor*%
%ADD18C,0.100000*%
%TD*%
G04 APERTURE END LIST*
D10*
%TO.P,JP3,1*%
%TO.N,/STM/CONFIG_2*%
X124729200Y-76456400D03*
%TO.P,JP3,2*%
%TO.N,GND*%
X126029200Y-76456400D03*
%TD*%
%TO.P,JP2,1*%
%TO.N,/STM/CONFIG_1*%
X129915400Y-76456400D03*
%TO.P,JP2,2*%
%TO.N,GND*%
X128615400Y-76456400D03*
%TD*%
%TA.AperFunction,SMDPad,CuDef*%
D11*
%TO.P,SW1,2*%
%TO.N,GND*%
G36*
X144059829Y-113835713D02*
G01*
X144979068Y-114754952D01*
X143883053Y-115850967D01*
X142963814Y-114931728D01*
X144059829Y-113835713D01*
G37*
%TD.AperFunction*%
%TA.AperFunction,SMDPad,CuDef*%
%TO.P,SW1,1*%
%TO.N,BTN_IN*%
G36*
X140877848Y-110653732D02*
G01*
X141797087Y-111572971D01*
X140701072Y-112668986D01*
X139781833Y-111749747D01*
X140877848Y-110653732D01*
G37*
%TD.AperFunction*%
%TA.AperFunction,SMDPad,CuDef*%
G36*
X146499347Y-105032233D02*
G01*
X147418586Y-105951472D01*
X146322571Y-107047487D01*
X145403332Y-106128248D01*
X146499347Y-105032233D01*
G37*
%TD.AperFunction*%
%TA.AperFunction,SMDPad,CuDef*%
%TO.P,SW1,2*%
%TO.N,GND*%
G36*
X149681328Y-108214214D02*
G01*
X150600567Y-109133453D01*
X149504552Y-110229468D01*
X148585313Y-109310229D01*
X149681328Y-108214214D01*
G37*
%TD.AperFunction*%
%TD*%
D12*
%TO.P,JP1,1*%
%TO.N,/OLED/SA0*%
X133240500Y-99926000D03*
%TO.P,JP1,2*%
%TO.N,GND*%
X133240500Y-101226000D03*
%TD*%
D13*
%TO.P,J2,8*%
%TO.N,CANH*%
X128622000Y-109118000D03*
%TO.P,J2,7*%
%TO.N,BTN_IN*%
X131622000Y-109118000D03*
%TO.P,J2,6*%
%TO.N,SPARE_1*%
X134622000Y-109118000D03*
%TO.P,J2,5*%
%TO.N,12V_IN*%
X137622000Y-109118000D03*
%TO.P,J2,4*%
%TO.N,CANL*%
X128622000Y-112118000D03*
%TO.P,J2,3*%
%TO.N,+3V3*%
X131622000Y-112118000D03*
%TO.P,J2,2*%
%TO.N,SPARE_2*%
X134622000Y-112118000D03*
%TO.P,J2,1*%
%TO.N,GND*%
%TA.AperFunction,ComponentPad*%
G36*
G01*
X138372000Y-111618000D02*
X138372000Y-112618000D01*
G75*
G02*
X138122000Y-112868000I-250000J0D01*
G01*
X137122000Y-112868000D01*
G75*
G02*
X136872000Y-112618000I0J250000D01*
G01*
X136872000Y-111618000D01*
G75*
G02*
X137122000Y-111368000I250000J0D01*
G01*
X138122000Y-111368000D01*
G75*
G02*
X138372000Y-111618000I0J-250000D01*
G01*
G37*
%TD.AperFunction*%
%TD*%
%TO.P,D11,2*%
%TO.N,Net-(D11-Pad2)*%
%TA.AperFunction,SMDPad,CuDef*%
G36*
G01*
X112835479Y-104216158D02*
X112322979Y-104216158D01*
G75*
G02*
X112104229Y-103997408I0J218750D01*
G01*
X112104229Y-103559908D01*
G75*
G02*
X112322979Y-103341158I218750J0D01*
G01*
X112835479Y-103341158D01*
G75*
G02*
X113054229Y-103559908I0J-218750D01*
G01*
X113054229Y-103997408D01*
G75*
G02*
X112835479Y-104216158I-218750J0D01*
G01*
G37*
%TD.AperFunction*%
%TO.P,D11,1*%
%TO.N,GND*%
%TA.AperFunction,SMDPad,CuDef*%
G36*
G01*
X112835479Y-105791158D02*
X112322979Y-105791158D01*
G75*
G02*
X112104229Y-105572408I0J218750D01*
G01*
X112104229Y-105134908D01*
G75*
G02*
X112322979Y-104916158I218750J0D01*
G01*
X112835479Y-104916158D01*
G75*
G02*
X113054229Y-105134908I0J-218750D01*
G01*
X113054229Y-105572408D01*
G75*
G02*
X112835479Y-105791158I-218750J0D01*
G01*
G37*
%TD.AperFunction*%
%TD*%
%TO.P,D9,2*%
%TO.N,Net-(D9-Pad2)*%
%TA.AperFunction,SMDPad,CuDef*%
G36*
G01*
X110047750Y-94942000D02*
X110560250Y-94942000D01*
G75*
G02*
X110779000Y-95160750I0J-218750D01*
G01*
X110779000Y-95598250D01*
G75*
G02*
X110560250Y-95817000I-218750J0D01*
G01*
X110047750Y-95817000D01*
G75*
G02*
X109829000Y-95598250I0J218750D01*
G01*
X109829000Y-95160750D01*
G75*
G02*
X110047750Y-94942000I218750J0D01*
G01*
G37*
%TD.AperFunction*%
%TO.P,D9,1*%
%TO.N,GND*%
%TA.AperFunction,SMDPad,CuDef*%
G36*
G01*
X110047750Y-93367000D02*
X110560250Y-93367000D01*
G75*
G02*
X110779000Y-93585750I0J-218750D01*
G01*
X110779000Y-94023250D01*
G75*
G02*
X110560250Y-94242000I-218750J0D01*
G01*
X110047750Y-94242000D01*
G75*
G02*
X109829000Y-94023250I0J218750D01*
G01*
X109829000Y-93585750D01*
G75*
G02*
X110047750Y-93367000I218750J0D01*
G01*
G37*
%TD.AperFunction*%
%TD*%
%TO.P,D8,2*%
%TO.N,Net-(D8-Pad2)*%
%TA.AperFunction,SMDPad,CuDef*%
G36*
G01*
X112835479Y-84267842D02*
X112322979Y-84267842D01*
G75*
G02*
X112104229Y-84049092I0J218750D01*
G01*
X112104229Y-83611592D01*
G75*
G02*
X112322979Y-83392842I218750J0D01*
G01*
X112835479Y-83392842D01*
G75*
G02*
X113054229Y-83611592I0J-218750D01*
G01*
X113054229Y-84049092D01*
G75*
G02*
X112835479Y-84267842I-218750J0D01*
G01*
G37*
%TD.AperFunction*%
%TO.P,D8,1*%
%TO.N,GND*%
%TA.AperFunction,SMDPad,CuDef*%
G36*
G01*
X112835479Y-85842842D02*
X112322979Y-85842842D01*
G75*
G02*
X112104229Y-85624092I0J218750D01*
G01*
X112104229Y-85186592D01*
G75*
G02*
X112322979Y-84967842I218750J0D01*
G01*
X112835479Y-84967842D01*
G75*
G02*
X113054229Y-85186592I0J-218750D01*
G01*
X113054229Y-85624092D01*
G75*
G02*
X112835479Y-85842842I-218750J0D01*
G01*
G37*
%TD.AperFunction*%
%TD*%
%TO.P,D3,2*%
%TO.N,Net-(D3-Pad2)*%
%TA.AperFunction,SMDPad,CuDef*%
G36*
G01*
X153772521Y-84967842D02*
X154285021Y-84967842D01*
G75*
G02*
X154503771Y-85186592I0J-218750D01*
G01*
X154503771Y-85624092D01*
G75*
G02*
X154285021Y-85842842I-218750J0D01*
G01*
X153772521Y-85842842D01*
G75*
G02*
X153553771Y-85624092I0J218750D01*
G01*
X153553771Y-85186592D01*
G75*
G02*
X153772521Y-84967842I218750J0D01*
G01*
G37*
%TD.AperFunction*%
%TO.P,D3,1*%
%TO.N,GND*%
%TA.AperFunction,SMDPad,CuDef*%
G36*
G01*
X153772521Y-83392842D02*
X154285021Y-83392842D01*
G75*
G02*
X154503771Y-83611592I0J-218750D01*
G01*
X154503771Y-84049092D01*
G75*
G02*
X154285021Y-84267842I-218750J0D01*
G01*
X153772521Y-84267842D01*
G75*
G02*
X153553771Y-84049092I0J218750D01*
G01*
X153553771Y-83611592D01*
G75*
G02*
X153772521Y-83392842I218750J0D01*
G01*
G37*
%TD.AperFunction*%
%TD*%
%TO.P,D1,2*%
%TO.N,Net-(D1-Pad2)*%
%TA.AperFunction,SMDPad,CuDef*%
G36*
G01*
X153943750Y-104275000D02*
X153431250Y-104275000D01*
G75*
G02*
X153212500Y-104056250I0J218750D01*
G01*
X153212500Y-103618750D01*
G75*
G02*
X153431250Y-103400000I218750J0D01*
G01*
X153943750Y-103400000D01*
G75*
G02*
X154162500Y-103618750I0J-218750D01*
G01*
X154162500Y-104056250D01*
G75*
G02*
X153943750Y-104275000I-218750J0D01*
G01*
G37*
%TD.AperFunction*%
%TO.P,D1,1*%
%TO.N,GND*%
%TA.AperFunction,SMDPad,CuDef*%
G36*
G01*
X153943750Y-105850000D02*
X153431250Y-105850000D01*
G75*
G02*
X153212500Y-105631250I0J218750D01*
G01*
X153212500Y-105193750D01*
G75*
G02*
X153431250Y-104975000I218750J0D01*
G01*
X153943750Y-104975000D01*
G75*
G02*
X154162500Y-105193750I0J-218750D01*
G01*
X154162500Y-105631250D01*
G75*
G02*
X153943750Y-105850000I-218750J0D01*
G01*
G37*
%TD.AperFunction*%
%TD*%
%TO.P,D10,2*%
%TO.N,Net-(D10-Pad2)*%
%TA.AperFunction,SMDPad,CuDef*%
G36*
G01*
X121088850Y-110701200D02*
X120576350Y-110701200D01*
G75*
G02*
X120357600Y-110482450I0J218750D01*
G01*
X120357600Y-110044950D01*
G75*
G02*
X120576350Y-109826200I218750J0D01*
G01*
X121088850Y-109826200D01*
G75*
G02*
X121307600Y-110044950I0J-218750D01*
G01*
X121307600Y-110482450D01*
G75*
G02*
X121088850Y-110701200I-218750J0D01*
G01*
G37*
%TD.AperFunction*%
%TO.P,D10,1*%
%TO.N,GND*%
%TA.AperFunction,SMDPad,CuDef*%
G36*
G01*
X121088850Y-112276200D02*
X120576350Y-112276200D01*
G75*
G02*
X120357600Y-112057450I0J218750D01*
G01*
X120357600Y-111619950D01*
G75*
G02*
X120576350Y-111401200I218750J0D01*
G01*
X121088850Y-111401200D01*
G75*
G02*
X121307600Y-111619950I0J-218750D01*
G01*
X121307600Y-112057450D01*
G75*
G02*
X121088850Y-112276200I-218750J0D01*
G01*
G37*
%TD.AperFunction*%
%TD*%
%TO.P,D7,2*%
%TO.N,Net-(D7-Pad2)*%
%TA.AperFunction,SMDPad,CuDef*%
G36*
G01*
X120890500Y-76873280D02*
X120890500Y-76360780D01*
G75*
G02*
X121109250Y-76142030I218750J0D01*
G01*
X121546750Y-76142030D01*
G75*
G02*
X121765500Y-76360780I0J-218750D01*
G01*
X121765500Y-76873280D01*
G75*
G02*
X121546750Y-77092030I-218750J0D01*
G01*
X121109250Y-77092030D01*
G75*
G02*
X120890500Y-76873280I0J218750D01*
G01*
G37*
%TD.AperFunction*%
%TO.P,D7,1*%
%TO.N,GND*%
%TA.AperFunction,SMDPad,CuDef*%
G36*
G01*
X119315500Y-76873280D02*
X119315500Y-76360780D01*
G75*
G02*
X119534250Y-76142030I218750J0D01*
G01*
X119971750Y-76142030D01*
G75*
G02*
X120190500Y-76360780I0J-218750D01*
G01*
X120190500Y-76873280D01*
G75*
G02*
X119971750Y-77092030I-218750J0D01*
G01*
X119534250Y-77092030D01*
G75*
G02*
X119315500Y-76873280I0J218750D01*
G01*
G37*
%TD.AperFunction*%
%TD*%
%TO.P,D6,1*%
%TO.N,GND*%
%TA.AperFunction,SMDPad,CuDef*%
G36*
G01*
X126944248Y-72428743D02*
X126944248Y-71916243D01*
G75*
G02*
X127162998Y-71697493I218750J0D01*
G01*
X127600498Y-71697493D01*
G75*
G02*
X127819248Y-71916243I0J-218750D01*
G01*
X127819248Y-72428743D01*
G75*
G02*
X127600498Y-72647493I-218750J0D01*
G01*
X127162998Y-72647493D01*
G75*
G02*
X126944248Y-72428743I0J218750D01*
G01*
G37*
%TD.AperFunction*%
%TO.P,D6,2*%
%TO.N,Net-(D6-Pad2)*%
%TA.AperFunction,SMDPad,CuDef*%
G36*
G01*
X128519248Y-72428743D02*
X128519248Y-71916243D01*
G75*
G02*
X128737998Y-71697493I218750J0D01*
G01*
X129175498Y-71697493D01*
G75*
G02*
X129394248Y-71916243I0J-218750D01*
G01*
X129394248Y-72428743D01*
G75*
G02*
X129175498Y-72647493I-218750J0D01*
G01*
X128737998Y-72647493D01*
G75*
G02*
X128519248Y-72428743I0J218750D01*
G01*
G37*
%TD.AperFunction*%
%TD*%
%TO.P,D4,2*%
%TO.N,Net-(D4-Pad2)*%
%TA.AperFunction,SMDPad,CuDef*%
G36*
G01*
X145717500Y-76365250D02*
X145717500Y-76877750D01*
G75*
G02*
X145498750Y-77096500I-218750J0D01*
G01*
X145061250Y-77096500D01*
G75*
G02*
X144842500Y-76877750I0J218750D01*
G01*
X144842500Y-76365250D01*
G75*
G02*
X145061250Y-76146500I218750J0D01*
G01*
X145498750Y-76146500D01*
G75*
G02*
X145717500Y-76365250I0J-218750D01*
G01*
G37*
%TD.AperFunction*%
%TO.P,D4,1*%
%TO.N,GND*%
%TA.AperFunction,SMDPad,CuDef*%
G36*
G01*
X147292500Y-76365250D02*
X147292500Y-76877750D01*
G75*
G02*
X147073750Y-77096500I-218750J0D01*
G01*
X146636250Y-77096500D01*
G75*
G02*
X146417500Y-76877750I0J218750D01*
G01*
X146417500Y-76365250D01*
G75*
G02*
X146636250Y-76146500I218750J0D01*
G01*
X147073750Y-76146500D01*
G75*
G02*
X147292500Y-76365250I0J-218750D01*
G01*
G37*
%TD.AperFunction*%
%TD*%
%TO.P,D5,2*%
%TO.N,Net-(D5-Pad2)*%
%TA.AperFunction,SMDPad,CuDef*%
G36*
G01*
X138162500Y-72559750D02*
X138162500Y-72047250D01*
G75*
G02*
X138381250Y-71828500I218750J0D01*
G01*
X138818750Y-71828500D01*
G75*
G02*
X139037500Y-72047250I0J-218750D01*
G01*
X139037500Y-72559750D01*
G75*
G02*
X138818750Y-72778500I-218750J0D01*
G01*
X138381250Y-72778500D01*
G75*
G02*
X138162500Y-72559750I0J218750D01*
G01*
G37*
%TD.AperFunction*%
%TO.P,D5,1*%
%TO.N,GND*%
%TA.AperFunction,SMDPad,CuDef*%
G36*
G01*
X136587500Y-72559750D02*
X136587500Y-72047250D01*
G75*
G02*
X136806250Y-71828500I218750J0D01*
G01*
X137243750Y-71828500D01*
G75*
G02*
X137462500Y-72047250I0J-218750D01*
G01*
X137462500Y-72559750D01*
G75*
G02*
X137243750Y-72778500I-218750J0D01*
G01*
X136806250Y-72778500D01*
G75*
G02*
X136587500Y-72559750I0J218750D01*
G01*
G37*
%TD.AperFunction*%
%TD*%
%TO.P,D2,2*%
%TO.N,Net-(D2-Pad2)*%
%TA.AperFunction,SMDPad,CuDef*%
G36*
G01*
X156560250Y-94242000D02*
X156047750Y-94242000D01*
G75*
G02*
X155829000Y-94023250I0J218750D01*
G01*
X155829000Y-93585750D01*
G75*
G02*
X156047750Y-93367000I218750J0D01*
G01*
X156560250Y-93367000D01*
G75*
G02*
X156779000Y-93585750I0J-218750D01*
G01*
X156779000Y-94023250D01*
G75*
G02*
X156560250Y-94242000I-218750J0D01*
G01*
G37*
%TD.AperFunction*%
%TO.P,D2,1*%
%TO.N,GND*%
%TA.AperFunction,SMDPad,CuDef*%
G36*
G01*
X156560250Y-95817000D02*
X156047750Y-95817000D01*
G75*
G02*
X155829000Y-95598250I0J218750D01*
G01*
X155829000Y-95160750D01*
G75*
G02*
X156047750Y-94942000I218750J0D01*
G01*
X156560250Y-94942000D01*
G75*
G02*
X156779000Y-95160750I0J-218750D01*
G01*
X156779000Y-95598250D01*
G75*
G02*
X156560250Y-95817000I-218750J0D01*
G01*
G37*
%TD.AperFunction*%
%TD*%
D14*
%TO.N,GND*%
X142028900Y-84279600D03*
X157383200Y-96166800D03*
X122915400Y-116131200D03*
X136225000Y-95277800D03*
X125176000Y-95125400D03*
X154284400Y-95481000D03*
X120477000Y-103507400D03*
X144746700Y-85473400D03*
X122540740Y-110879740D03*
X145902400Y-97233600D03*
X138384000Y-118188600D03*
X142778200Y-116791600D03*
X148823400Y-112422800D03*
X153166800Y-107698400D03*
X153255700Y-99646600D03*
X153928800Y-101754800D03*
X123785350Y-98027350D03*
X132872200Y-97335200D03*
X138955496Y-90743900D03*
X142562300Y-90896300D03*
D15*
X146994600Y-87492700D03*
D14*
X128957275Y-80015518D03*
X120197600Y-82209496D03*
X115142981Y-94211019D03*
X117873508Y-100307000D03*
X137202900Y-97805100D03*
X135565153Y-98037113D03*
X138955500Y-97944800D03*
X143654000Y-97957000D03*
X130668474Y-88019474D03*
X133431000Y-78882100D03*
X123563100Y-80837900D03*
%TO.N,Net-(D2-Pad2)*%
X145000702Y-81511000D03*
%TO.N,Net-(D4-Pad2)*%
X142219400Y-74894300D03*
%TO.N,Net-(D6-Pad2)*%
X135704300Y-73649700D03*
%TO.N,Net-(D7-Pad2)*%
X129532100Y-73725900D03*
%TO.N,Net-(D3-Pad2)*%
X145101499Y-80063200D03*
%TO.N,Net-(D5-Pad2)*%
X139501600Y-73929106D03*
%TO.N,Net-(D10-Pad2)*%
X115955800Y-109362100D03*
%TO.N,Net-(D1-Pad2)*%
X144975294Y-82793700D03*
%TO.N,Net-(D8-Pad2)*%
X118445000Y-78259800D03*
%TO.N,Net-(D9-Pad2)*%
X111371100Y-93029900D03*
%TO.N,Net-(D11-Pad2)*%
X112577600Y-102415200D03*
%TO.N,/OLED/SA0*%
X133853991Y-97598009D03*
%TO.N,SWCLK*%
X129494000Y-90845500D03*
X122737600Y-90782000D03*
%TO.N,NRST*%
X141927300Y-85549600D03*
X121594600Y-82171400D03*
%TO.N,SWDIO*%
X125557000Y-89919510D03*
X129100302Y-89169100D03*
%TO.N,BTN_IN*%
X114482600Y-98935400D03*
%TO.N,SPARE_1*%
X117175000Y-97640000D03*
%TO.N,SPARE_2*%
X116923000Y-102591000D03*
%TO.N,USER_INPUT*%
X114431800Y-95684200D03*
X131170400Y-92013900D03*
%TO.N,SPARE_2_IN*%
X118191000Y-94211000D03*
X134269200Y-92229800D03*
%TO.N,SPARE_1_IN*%
X118191000Y-92867011D03*
X132961100Y-92090100D03*
%TO.N,I2C1_SCL*%
X131754000Y-97588600D03*
X130383000Y-94301010D03*
%TO.N,LED9*%
X126700000Y-86718000D03*
X112349000Y-95061904D03*
%TO.N,LED10*%
X115473200Y-104523400D03*
X128663905Y-86683610D03*
%TO.N,CAN_TX*%
X118367376Y-90869790D03*
X127807535Y-89293747D03*
%TO.N,CAN_RX*%
X115016000Y-90782000D03*
X126522200Y-88457900D03*
%TO.N,/STM/CONFIG_1*%
X132592800Y-76469100D03*
%TO.N,/STM/CONFIG_2*%
X131589498Y-77358100D03*
%TD*%
D16*
%TO.N,Net-(D2-Pad2)*%
X156316400Y-93855400D02*
X156316400Y-92826698D01*
X145400701Y-81910999D02*
X145000702Y-81511000D01*
X156316400Y-92826698D02*
X145400701Y-81910999D01*
D17*
%TO.N,Net-(D4-Pad2)*%
X145280000Y-76621500D02*
X143946600Y-76621500D01*
X143946600Y-76621500D02*
X142219400Y-74894300D01*
D16*
%TO.N,Net-(D6-Pad2)*%
X128956748Y-72172493D02*
X129394248Y-72172493D01*
X129394248Y-72172493D02*
X131271454Y-74049699D01*
X131271454Y-74049699D02*
X135304301Y-74049699D01*
X135304301Y-74049699D02*
X135704300Y-73649700D01*
%TO.N,Net-(D7-Pad2)*%
X125495521Y-73725900D02*
X129532100Y-73725900D01*
X122604391Y-76617030D02*
X125495521Y-73725900D01*
X121328000Y-76617030D02*
X122604391Y-76617030D01*
%TO.N,Net-(D3-Pad2)*%
X154028771Y-85405342D02*
X150443641Y-85405342D01*
X150443641Y-85405342D02*
X145101499Y-80063200D01*
%TO.N,Net-(D5-Pad2)*%
X138600000Y-72303500D02*
X138600000Y-73027506D01*
X138600000Y-73027506D02*
X139501600Y-73929106D01*
%TO.N,Net-(D10-Pad2)*%
X120845300Y-110289200D02*
X119918200Y-109362100D01*
X119918200Y-109362100D02*
X115955800Y-109362100D01*
%TO.N,Net-(D1-Pad2)*%
X154653801Y-99246133D02*
X154629577Y-99221909D01*
X155339601Y-96133801D02*
X155339601Y-93158007D01*
X153687500Y-103837500D02*
X154653801Y-102871199D01*
X154653801Y-102871199D02*
X154653801Y-99246133D01*
X154629577Y-99221909D02*
X154629577Y-96843825D01*
X154629577Y-96843825D02*
X155339601Y-96133801D01*
X155339601Y-93158007D02*
X144975294Y-82793700D01*
%TO.N,Net-(D8-Pad2)*%
X117712271Y-78259800D02*
X118445000Y-78259800D01*
X112579229Y-83830342D02*
X112579229Y-83392842D01*
X112579229Y-83392842D02*
X117712271Y-78259800D01*
D17*
%TO.N,Net-(D9-Pad2)*%
X111333000Y-92737800D02*
X111333000Y-92737800D01*
X111371100Y-94312400D02*
X111371100Y-93029900D01*
X110304000Y-95379500D02*
X111371100Y-94312400D01*
D16*
%TO.N,Net-(D11-Pad2)*%
X112665571Y-103865000D02*
X112579229Y-103778658D01*
X112579229Y-102416829D02*
X112577600Y-102415200D01*
X112579229Y-103778658D02*
X112579229Y-102416829D01*
%TO.N,/OLED/SA0*%
X133240500Y-99926000D02*
X133240500Y-98211500D01*
X133240500Y-98211500D02*
X133853991Y-97598009D01*
%TO.N,SWCLK*%
X123303285Y-90782000D02*
X122737600Y-90782000D01*
X129240000Y-90782000D02*
X123303285Y-90782000D01*
X129367000Y-90655000D02*
X129240000Y-90782000D01*
D17*
%TO.N,NRST*%
X126763500Y-84546300D02*
X124414002Y-82196802D01*
X141227628Y-84546300D02*
X126763500Y-84546300D01*
X141927300Y-85245972D02*
X141227628Y-84546300D01*
X141927300Y-85549600D02*
X141927300Y-85245972D01*
D16*
X121620002Y-82196802D02*
X121594600Y-82171400D01*
X124414002Y-82196802D02*
X121620002Y-82196802D01*
%TO.N,SWDIO*%
X125557000Y-89893000D02*
X125557000Y-89893000D01*
X127949893Y-90319509D02*
X129100302Y-89169100D01*
X125956999Y-90319509D02*
X127949893Y-90319509D01*
X125557000Y-89919510D02*
X125956999Y-90319509D01*
%TO.N,BTN_IN*%
X145623000Y-106834800D02*
X146486600Y-105971200D01*
X144340721Y-106834800D02*
X145623000Y-106834800D01*
X140492200Y-111457600D02*
X141584955Y-109577445D01*
X139614924Y-111926524D02*
X140492200Y-111457600D01*
X141584955Y-109577445D02*
X144327045Y-106835355D01*
X138028400Y-110340000D02*
X139614924Y-111926524D01*
X133456400Y-110340000D02*
X138028400Y-110340000D01*
X132234400Y-109118000D02*
X133456400Y-110340000D01*
X131622000Y-109118000D02*
X132234400Y-109118000D01*
X117648001Y-102100801D02*
X114482600Y-98935400D01*
X117648001Y-102480391D02*
X117648001Y-102100801D01*
X121545210Y-106377600D02*
X117648001Y-102480391D01*
X128881600Y-106377600D02*
X121545210Y-106377600D01*
X131622000Y-109118000D02*
X128881600Y-106377600D01*
%TO.N,SPARE_1*%
X131139010Y-105635010D02*
X134622000Y-109118000D01*
X121439030Y-105635010D02*
X131139010Y-105635010D01*
X119486400Y-103682380D02*
X121439030Y-105635010D01*
X119486400Y-99951400D02*
X119486400Y-103682380D01*
X117175000Y-97640000D02*
X119486400Y-99951400D01*
%TO.N,SPARE_2*%
X133862800Y-112118000D02*
X134622000Y-112118000D01*
X132338800Y-110594000D02*
X133862800Y-112118000D01*
X130827500Y-110594000D02*
X132338800Y-110594000D01*
X130129000Y-109895500D02*
X130827500Y-110594000D01*
X128668500Y-107165000D02*
X130129000Y-108625500D01*
X121696200Y-107165000D02*
X128668500Y-107165000D01*
X116923000Y-102591000D02*
X117122200Y-102591000D01*
X130129000Y-108625500D02*
X130129000Y-109895500D01*
X117122200Y-102591000D02*
X121696200Y-107165000D01*
%TO.N,USER_INPUT*%
X129563998Y-92052000D02*
X123431013Y-92052000D01*
X129844499Y-92332501D02*
X129563998Y-92052000D01*
X121993387Y-92052000D02*
X115574800Y-92052000D01*
X115574800Y-92052000D02*
X114031801Y-93594999D01*
X114031801Y-93594999D02*
X114031801Y-95284201D01*
X122050799Y-92109412D02*
X121993387Y-92052000D01*
X114031801Y-95284201D02*
X114431800Y-95684200D01*
X131145000Y-92052000D02*
X130864499Y-92332501D01*
X130864499Y-92332501D02*
X129844499Y-92332501D01*
X123373601Y-92109412D02*
X122050799Y-92109412D01*
X123431013Y-92052000D02*
X123373601Y-92109412D01*
%TO.N,SPARE_2_IN*%
X119969000Y-94185600D02*
X120578600Y-93576000D01*
X118216400Y-94185600D02*
X119969000Y-94185600D01*
X118191000Y-94211000D02*
X118216400Y-94185600D01*
X120578600Y-93576000D02*
X132732494Y-93576000D01*
D17*
X132732494Y-93576000D02*
X132923000Y-93576000D01*
X132923000Y-93576000D02*
X134269200Y-92229800D01*
X134269200Y-92229800D02*
X134269200Y-92229800D01*
D16*
%TO.N,SPARE_1_IN*%
X131970500Y-92814000D02*
X131769935Y-92814000D01*
X131970500Y-92814000D02*
X118244011Y-92814000D01*
X118244011Y-92814000D02*
X118191000Y-92867011D01*
D17*
X131970500Y-92814000D02*
X132237200Y-92814000D01*
X132237200Y-92814000D02*
X132961100Y-92090100D01*
X132961100Y-92090100D02*
X132961100Y-92090100D01*
D16*
%TO.N,I2C1_SCL*%
X130383000Y-96217600D02*
X130383000Y-94301010D01*
X131754000Y-97588600D02*
X130383000Y-96217600D01*
%TO.N,LED9*%
X125557000Y-87861000D02*
X116863998Y-87861000D01*
X126700000Y-86718000D02*
X125557000Y-87861000D01*
X116863998Y-87861000D02*
X112504649Y-92220349D01*
D17*
X112504649Y-92220349D02*
X112349000Y-92375998D01*
X112349000Y-92375998D02*
X112349000Y-95061904D01*
D16*
%TO.N,LED10*%
X123251802Y-91594800D02*
X123187201Y-91659401D01*
X113314200Y-102364400D02*
X115473200Y-104523400D01*
X115320800Y-91594800D02*
X113314200Y-93601400D01*
X122172598Y-91594800D02*
X115320800Y-91594800D01*
X130129000Y-91544000D02*
X130078200Y-91594800D01*
X130078200Y-91594800D02*
X123251802Y-91594800D01*
X113314200Y-93601400D02*
X113314200Y-102364400D01*
X122237199Y-91659401D02*
X122172598Y-91594800D01*
X123187201Y-91659401D02*
X122237199Y-91659401D01*
D17*
X130129000Y-91544000D02*
X130319500Y-91353500D01*
X128663905Y-87249295D02*
X128663905Y-86683610D01*
X130319500Y-91353500D02*
X130319500Y-88904890D01*
X130319500Y-88904890D02*
X128663905Y-87249295D01*
D16*
%TO.N,CAN_TX*%
X118429766Y-90807400D02*
X118367376Y-90869790D01*
X120407004Y-90807400D02*
X118429766Y-90807400D01*
X122019904Y-89194500D02*
X120407004Y-90807400D01*
X127525500Y-89194500D02*
X122019904Y-89194500D01*
%TO.N,CAN_RX*%
X115016000Y-90782000D02*
X115016000Y-90782000D01*
X115879600Y-89918400D02*
X115415999Y-90382001D01*
X120397395Y-89918400D02*
X115879600Y-89918400D01*
X121888805Y-88426990D02*
X120397395Y-89918400D01*
X115415999Y-90382001D02*
X115016000Y-90782000D01*
X126642010Y-88426990D02*
X121888805Y-88426990D01*
X126700000Y-88369000D02*
X126611100Y-88369000D01*
X126611100Y-88369000D02*
X126522200Y-88457900D01*
D17*
%TO.N,/STM/CONFIG_1*%
X132192801Y-76069101D02*
X132592800Y-76469100D01*
X130302699Y-76069101D02*
X132192801Y-76069101D01*
X129915400Y-76456400D02*
X130302699Y-76069101D01*
%TO.N,/STM/CONFIG_2*%
X131259298Y-77688300D02*
X131589498Y-77358100D01*
X124729200Y-77460400D02*
X124957100Y-77688300D01*
X124957100Y-77688300D02*
X131259298Y-77688300D01*
X124729200Y-76456400D02*
X124729200Y-77460400D01*
%TD*%
%TO.N,GND*%
X132261748Y-70322013D02*
X132034013Y-70549748D01*
X131855082Y-70817537D01*
X131731832Y-71115088D01*
X131669000Y-71430967D01*
X131669000Y-71753033D01*
X131731832Y-72068912D01*
X131855082Y-72366463D01*
X132034013Y-72634252D01*
X132261748Y-72861987D01*
X132529537Y-73040918D01*
X132827088Y-73164168D01*
X133142967Y-73227000D01*
X133465033Y-73227000D01*
X133780912Y-73164168D01*
X134078463Y-73040918D01*
X134346252Y-72861987D01*
X134573987Y-72634252D01*
X134752918Y-72366463D01*
X134876168Y-72068912D01*
X134923988Y-71828500D01*
X136208676Y-71828500D01*
X136210500Y-72086250D01*
X136304750Y-72180500D01*
X136902000Y-72180500D01*
X136902000Y-71545750D01*
X137148000Y-71545750D01*
X137148000Y-72180500D01*
X137168000Y-72180500D01*
X137168000Y-72426500D01*
X137148000Y-72426500D01*
X137148000Y-73061250D01*
X137242250Y-73155500D01*
X137462500Y-73157324D01*
X137536405Y-73150045D01*
X137607470Y-73128488D01*
X137672963Y-73093481D01*
X137698791Y-73072284D01*
X137775385Y-73165615D01*
X137871667Y-73244631D01*
X137894454Y-73319752D01*
X137965026Y-73451782D01*
X138012557Y-73509698D01*
X138060000Y-73567507D01*
X138088998Y-73591305D01*
X138466600Y-73968907D01*
X138466600Y-74031045D01*
X138506374Y-74231004D01*
X138584395Y-74419362D01*
X138697663Y-74588880D01*
X138841826Y-74733043D01*
X139011344Y-74846311D01*
X139199702Y-74924332D01*
X139399661Y-74964106D01*
X139603539Y-74964106D01*
X139803498Y-74924332D01*
X139991856Y-74846311D01*
X140072598Y-74792361D01*
X141184400Y-74792361D01*
X141184400Y-74996239D01*
X141224174Y-75196198D01*
X141302195Y-75384556D01*
X141415463Y-75554074D01*
X141559626Y-75698237D01*
X141729144Y-75811505D01*
X141917502Y-75889526D01*
X142117461Y-75929300D01*
X142176770Y-75929300D01*
X143381316Y-77133846D01*
X143405178Y-77162922D01*
X143459342Y-77207373D01*
X143521207Y-77258145D01*
X143562666Y-77280305D01*
X143653585Y-77328902D01*
X143797222Y-77372474D01*
X143909174Y-77383500D01*
X143909177Y-77383500D01*
X143946600Y-77387186D01*
X143984023Y-77383500D01*
X144373223Y-77383500D01*
X144455385Y-77483615D01*
X144585225Y-77590171D01*
X144733358Y-77669350D01*
X144894092Y-77718108D01*
X145061250Y-77734572D01*
X145498750Y-77734572D01*
X145665908Y-77718108D01*
X145826642Y-77669350D01*
X145974775Y-77590171D01*
X146104615Y-77483615D01*
X146181209Y-77390284D01*
X146207037Y-77411481D01*
X146272530Y-77446488D01*
X146343595Y-77468045D01*
X146417500Y-77475324D01*
X146637750Y-77473500D01*
X146732000Y-77379250D01*
X146732000Y-76744500D01*
X146978000Y-76744500D01*
X146978000Y-77379250D01*
X147072250Y-77473500D01*
X147292500Y-77475324D01*
X147366405Y-77468045D01*
X147437470Y-77446488D01*
X147502963Y-77411481D01*
X147560369Y-77364369D01*
X147607481Y-77306963D01*
X147642488Y-77241470D01*
X147664045Y-77170405D01*
X147671324Y-77096500D01*
X147669500Y-76838750D01*
X147575250Y-76744500D01*
X146978000Y-76744500D01*
X146732000Y-76744500D01*
X146712000Y-76744500D01*
X146712000Y-76498500D01*
X146732000Y-76498500D01*
X146732000Y-75863750D01*
X146978000Y-75863750D01*
X146978000Y-76498500D01*
X147575250Y-76498500D01*
X147669500Y-76404250D01*
X147671324Y-76146500D01*
X147664045Y-76072595D01*
X147642488Y-76001530D01*
X147607481Y-75936037D01*
X147560369Y-75878631D01*
X147502963Y-75831519D01*
X147437470Y-75796512D01*
X147366405Y-75774955D01*
X147292500Y-75767676D01*
X147072250Y-75769500D01*
X146978000Y-75863750D01*
X146732000Y-75863750D01*
X146637750Y-75769500D01*
X146417500Y-75767676D01*
X146343595Y-75774955D01*
X146272530Y-75796512D01*
X146207037Y-75831519D01*
X146181209Y-75852716D01*
X146104615Y-75759385D01*
X145974775Y-75652829D01*
X145826642Y-75573650D01*
X145665908Y-75524892D01*
X145498750Y-75508428D01*
X145061250Y-75508428D01*
X144894092Y-75524892D01*
X144733358Y-75573650D01*
X144585225Y-75652829D01*
X144455385Y-75759385D01*
X144373223Y-75859500D01*
X144262230Y-75859500D01*
X143254400Y-74851670D01*
X143254400Y-74792361D01*
X143214626Y-74592402D01*
X143136605Y-74404044D01*
X143023337Y-74234526D01*
X142879174Y-74090363D01*
X142709656Y-73977095D01*
X142521298Y-73899074D01*
X142321339Y-73859300D01*
X142117461Y-73859300D01*
X141917502Y-73899074D01*
X141729144Y-73977095D01*
X141559626Y-74090363D01*
X141415463Y-74234526D01*
X141302195Y-74404044D01*
X141224174Y-74592402D01*
X141184400Y-74792361D01*
X140072598Y-74792361D01*
X140161374Y-74733043D01*
X140305537Y-74588880D01*
X140418805Y-74419362D01*
X140496826Y-74231004D01*
X140536600Y-74031045D01*
X140536600Y-73827167D01*
X140496826Y-73627208D01*
X140418805Y-73438850D01*
X140305537Y-73269332D01*
X140161374Y-73125169D01*
X139991856Y-73011901D01*
X139803498Y-72933880D01*
X139606572Y-72894709D01*
X139610350Y-72887642D01*
X139659108Y-72726908D01*
X139675572Y-72559750D01*
X139675572Y-72047250D01*
X139659108Y-71880092D01*
X139610350Y-71719358D01*
X139531171Y-71571225D01*
X139424615Y-71441385D01*
X139294775Y-71334829D01*
X139146642Y-71255650D01*
X138985908Y-71206892D01*
X138818750Y-71190428D01*
X138381250Y-71190428D01*
X138214092Y-71206892D01*
X138053358Y-71255650D01*
X137905225Y-71334829D01*
X137775385Y-71441385D01*
X137698791Y-71534716D01*
X137672963Y-71513519D01*
X137607470Y-71478512D01*
X137536405Y-71456955D01*
X137462500Y-71449676D01*
X137242250Y-71451500D01*
X137148000Y-71545750D01*
X136902000Y-71545750D01*
X136807750Y-71451500D01*
X136587500Y-71449676D01*
X136513595Y-71456955D01*
X136442530Y-71478512D01*
X136377037Y-71513519D01*
X136319631Y-71560631D01*
X136272519Y-71618037D01*
X136237512Y-71683530D01*
X136215955Y-71754595D01*
X136208676Y-71828500D01*
X134923988Y-71828500D01*
X134939000Y-71753033D01*
X134939000Y-71430967D01*
X134876168Y-71115088D01*
X134752918Y-70817537D01*
X134573987Y-70549748D01*
X134346252Y-70322013D01*
X134293893Y-70287028D01*
X135719837Y-70372187D01*
X137636469Y-70640689D01*
X139525709Y-71060618D01*
X141375613Y-71629320D01*
X143174486Y-72343200D01*
X144910955Y-73197744D01*
X146574041Y-74187549D01*
X148153229Y-75306358D01*
X149638536Y-76547097D01*
X151020570Y-77901921D01*
X152290595Y-79362265D01*
X153440580Y-80918897D01*
X154463255Y-82561975D01*
X154741622Y-83100338D01*
X154714234Y-83077861D01*
X154648741Y-83042854D01*
X154577676Y-83021297D01*
X154503771Y-83014018D01*
X154246021Y-83015842D01*
X154151771Y-83110092D01*
X154151771Y-83707342D01*
X154786521Y-83707342D01*
X154880771Y-83613092D01*
X154882595Y-83392842D01*
X154880178Y-83368306D01*
X155352155Y-84281110D01*
X156101659Y-86065434D01*
X156707029Y-87903666D01*
X157164438Y-89784183D01*
X157470993Y-91695097D01*
X157624757Y-93624326D01*
X157624757Y-95559674D01*
X157470993Y-97488903D01*
X157414852Y-97838860D01*
X157403496Y-97811445D01*
X157224565Y-97543656D01*
X156996830Y-97315921D01*
X156729041Y-97136990D01*
X156431490Y-97013740D01*
X156115611Y-96950908D01*
X155793545Y-96950908D01*
X155548566Y-96999637D01*
X155850605Y-96697599D01*
X155879602Y-96673802D01*
X155974575Y-96558077D01*
X156045147Y-96426048D01*
X156088604Y-96282787D01*
X156098507Y-96182243D01*
X156181000Y-96099750D01*
X156181000Y-95502500D01*
X156427000Y-95502500D01*
X156427000Y-96099750D01*
X156521250Y-96194000D01*
X156779000Y-96195824D01*
X156852905Y-96188545D01*
X156923970Y-96166988D01*
X156989463Y-96131981D01*
X157046869Y-96084869D01*
X157093981Y-96027463D01*
X157128988Y-95961970D01*
X157150545Y-95890905D01*
X157157824Y-95817000D01*
X157156000Y-95596750D01*
X157061750Y-95502500D01*
X156427000Y-95502500D01*
X156181000Y-95502500D01*
X156161000Y-95502500D01*
X156161000Y-95256500D01*
X156181000Y-95256500D01*
X156181000Y-95236500D01*
X156427000Y-95236500D01*
X156427000Y-95256500D01*
X157061750Y-95256500D01*
X157156000Y-95162250D01*
X157157824Y-94942000D01*
X157150545Y-94868095D01*
X157128988Y-94797030D01*
X157093981Y-94731537D01*
X157072784Y-94705709D01*
X157166115Y-94629115D01*
X157272671Y-94499275D01*
X157351850Y-94351142D01*
X157400608Y-94190408D01*
X157417072Y-94023250D01*
X157417072Y-93585750D01*
X157400608Y-93418592D01*
X157351850Y-93257858D01*
X157272671Y-93109725D01*
X157166115Y-92979885D01*
X157076400Y-92906258D01*
X157076400Y-92864031D01*
X157080077Y-92826698D01*
X157065403Y-92677712D01*
X157021946Y-92534451D01*
X156951374Y-92402422D01*
X156903266Y-92343802D01*
X156856401Y-92286697D01*
X156827403Y-92262899D01*
X150729845Y-86165342D01*
X153113628Y-86165342D01*
X153166656Y-86229957D01*
X153296496Y-86336513D01*
X153444629Y-86415692D01*
X153605363Y-86464450D01*
X153772521Y-86480914D01*
X154285021Y-86480914D01*
X154452179Y-86464450D01*
X154612913Y-86415692D01*
X154761046Y-86336513D01*
X154890886Y-86229957D01*
X154997442Y-86100117D01*
X155076621Y-85951984D01*
X155125379Y-85791250D01*
X155141843Y-85624092D01*
X155141843Y-85186592D01*
X155125379Y-85019434D01*
X155076621Y-84858700D01*
X154997442Y-84710567D01*
X154890886Y-84580727D01*
X154797555Y-84504133D01*
X154818752Y-84478305D01*
X154853759Y-84412812D01*
X154875316Y-84341747D01*
X154882595Y-84267842D01*
X154880771Y-84047592D01*
X154786521Y-83953342D01*
X154151771Y-83953342D01*
X154151771Y-83973342D01*
X153905771Y-83973342D01*
X153905771Y-83953342D01*
X153271021Y-83953342D01*
X153176771Y-84047592D01*
X153174947Y-84267842D01*
X153182226Y-84341747D01*
X153203783Y-84412812D01*
X153238790Y-84478305D01*
X153259987Y-84504133D01*
X153166656Y-84580727D01*
X153113628Y-84645342D01*
X150758443Y-84645342D01*
X149505943Y-83392842D01*
X153174947Y-83392842D01*
X153176771Y-83613092D01*
X153271021Y-83707342D01*
X153905771Y-83707342D01*
X153905771Y-83110092D01*
X153811521Y-83015842D01*
X153553771Y-83014018D01*
X153479866Y-83021297D01*
X153408801Y-83042854D01*
X153343308Y-83077861D01*
X153285902Y-83124973D01*
X153238790Y-83182379D01*
X153203783Y-83247872D01*
X153182226Y-83318937D01*
X153174947Y-83392842D01*
X149505943Y-83392842D01*
X146136499Y-80023399D01*
X146136499Y-79961261D01*
X146096725Y-79761302D01*
X146018704Y-79572944D01*
X145905436Y-79403426D01*
X145761273Y-79259263D01*
X145591755Y-79145995D01*
X145403397Y-79067974D01*
X145203438Y-79028200D01*
X144999560Y-79028200D01*
X144799601Y-79067974D01*
X144611243Y-79145995D01*
X144441725Y-79259263D01*
X144297562Y-79403426D01*
X144184294Y-79572944D01*
X144106273Y-79761302D01*
X144066499Y-79961261D01*
X144066499Y-80165139D01*
X144106273Y-80365098D01*
X144184294Y-80553456D01*
X144297562Y-80722974D01*
X144311290Y-80736702D01*
X144196765Y-80851226D01*
X144083497Y-81020744D01*
X144005476Y-81209102D01*
X143965702Y-81409061D01*
X143965702Y-81612939D01*
X144005476Y-81812898D01*
X144083497Y-82001256D01*
X144171829Y-82133454D01*
X144171357Y-82133926D01*
X144058089Y-82303444D01*
X143980068Y-82491802D01*
X143940294Y-82691761D01*
X143940294Y-82895639D01*
X143980068Y-83095598D01*
X144058089Y-83283956D01*
X144171357Y-83453474D01*
X144315520Y-83597637D01*
X144485038Y-83710905D01*
X144673396Y-83788926D01*
X144873355Y-83828700D01*
X144935493Y-83828700D01*
X154579602Y-93472810D01*
X154579601Y-95818999D01*
X154118575Y-96280026D01*
X154089577Y-96303824D01*
X154065779Y-96332822D01*
X154065778Y-96332823D01*
X153994603Y-96419549D01*
X153924031Y-96551579D01*
X153908917Y-96601405D01*
X153884833Y-96680804D01*
X153880575Y-96694840D01*
X153865901Y-96843825D01*
X153869578Y-96881157D01*
X153869577Y-99184586D01*
X153865901Y-99221909D01*
X153869577Y-99259231D01*
X153869577Y-99259241D01*
X153880574Y-99370894D01*
X153893802Y-99414501D01*
X153893801Y-102556397D01*
X153688270Y-102761928D01*
X153431250Y-102761928D01*
X153264092Y-102778392D01*
X153103358Y-102827150D01*
X152955225Y-102906329D01*
X152825385Y-103012885D01*
X152718829Y-103142725D01*
X152639650Y-103290858D01*
X152590892Y-103451592D01*
X152574428Y-103618750D01*
X152574428Y-104056250D01*
X152590892Y-104223408D01*
X152639650Y-104384142D01*
X152718829Y-104532275D01*
X152825385Y-104662115D01*
X152918716Y-104738709D01*
X152897519Y-104764537D01*
X152862512Y-104830030D01*
X152840955Y-104901095D01*
X152833676Y-104975000D01*
X152835500Y-105195250D01*
X152929750Y-105289500D01*
X153564500Y-105289500D01*
X153564500Y-105269500D01*
X153810500Y-105269500D01*
X153810500Y-105289500D01*
X154445250Y-105289500D01*
X154539500Y-105195250D01*
X154541324Y-104975000D01*
X154534045Y-104901095D01*
X154512488Y-104830030D01*
X154477481Y-104764537D01*
X154456284Y-104738709D01*
X154549615Y-104662115D01*
X154656171Y-104532275D01*
X154735350Y-104384142D01*
X154784108Y-104223408D01*
X154800572Y-104056250D01*
X154800572Y-103799230D01*
X155164805Y-103434997D01*
X155193802Y-103411200D01*
X155220133Y-103379116D01*
X155288775Y-103295476D01*
X155359347Y-103163446D01*
X155359347Y-103163445D01*
X155402804Y-103020185D01*
X155413801Y-102908532D01*
X155413801Y-102908522D01*
X155417477Y-102871199D01*
X155413801Y-102833877D01*
X155413801Y-100131622D01*
X155477666Y-100158076D01*
X155793545Y-100220908D01*
X156115611Y-100220908D01*
X156431490Y-100158076D01*
X156729041Y-100034826D01*
X156996830Y-99855895D01*
X157071719Y-99781006D01*
X156707029Y-101280334D01*
X156101659Y-103118566D01*
X155352155Y-104902890D01*
X154463255Y-106622025D01*
X153440580Y-108265103D01*
X152290595Y-109821735D01*
X151020570Y-111282079D01*
X149638536Y-112636903D01*
X148153229Y-113877642D01*
X146574041Y-114996451D01*
X144910955Y-115986256D01*
X143174486Y-116840800D01*
X141375613Y-117554680D01*
X139525709Y-118123382D01*
X137636469Y-118543311D01*
X135719837Y-118811813D01*
X134293893Y-118896972D01*
X134346252Y-118861987D01*
X134573987Y-118634252D01*
X134752918Y-118366463D01*
X134876168Y-118068912D01*
X134939000Y-117753033D01*
X134939000Y-117430967D01*
X134876168Y-117115088D01*
X134752918Y-116817537D01*
X134573987Y-116549748D01*
X134346252Y-116322013D01*
X134078463Y-116143082D01*
X133780912Y-116019832D01*
X133465033Y-115957000D01*
X133142967Y-115957000D01*
X132827088Y-116019832D01*
X132529537Y-116143082D01*
X132261748Y-116322013D01*
X132034013Y-116549748D01*
X131855082Y-116817537D01*
X131731832Y-117115088D01*
X131669000Y-117430967D01*
X131669000Y-117753033D01*
X131731832Y-118068912D01*
X131855082Y-118366463D01*
X132034013Y-118634252D01*
X132261748Y-118861987D01*
X132315508Y-118897908D01*
X131852968Y-118888710D01*
X129927177Y-118696619D01*
X128022736Y-118352131D01*
X126151684Y-117857425D01*
X124325852Y-117215626D01*
X122556783Y-116430794D01*
X121169684Y-115678256D01*
X143310473Y-115678256D01*
X143310473Y-115811546D01*
X143615184Y-116118836D01*
X143672589Y-116165948D01*
X143738083Y-116200955D01*
X143809147Y-116222512D01*
X143883053Y-116229791D01*
X143956958Y-116222512D01*
X144028022Y-116200955D01*
X144093516Y-116165948D01*
X144150922Y-116118836D01*
X144544021Y-115723158D01*
X144544021Y-115589868D01*
X143971441Y-115017288D01*
X143310473Y-115678256D01*
X121169684Y-115678256D01*
X120855660Y-115507890D01*
X119969735Y-114931728D01*
X142584990Y-114931728D01*
X142592269Y-115005634D01*
X142613826Y-115076698D01*
X142648833Y-115142192D01*
X142695945Y-115199597D01*
X143003235Y-115504308D01*
X143136525Y-115504308D01*
X143797493Y-114843340D01*
X144145389Y-114843340D01*
X144717969Y-115415920D01*
X144851259Y-115415920D01*
X145246937Y-115022821D01*
X145294049Y-114965415D01*
X145329056Y-114899921D01*
X145350613Y-114828857D01*
X145357892Y-114754952D01*
X145350613Y-114681046D01*
X145329056Y-114609982D01*
X145294049Y-114544488D01*
X145246937Y-114487083D01*
X144939647Y-114182372D01*
X144806357Y-114182372D01*
X144145389Y-114843340D01*
X143797493Y-114843340D01*
X143224913Y-114270760D01*
X143091623Y-114270760D01*
X142695945Y-114663859D01*
X142648833Y-114721265D01*
X142613826Y-114786759D01*
X142592269Y-114857823D01*
X142584990Y-114931728D01*
X119969735Y-114931728D01*
X119233241Y-114452749D01*
X118597852Y-113963522D01*
X143398861Y-113963522D01*
X143398861Y-114096812D01*
X143971441Y-114669392D01*
X144632409Y-114008424D01*
X144632409Y-113875134D01*
X144327698Y-113567844D01*
X144270293Y-113520732D01*
X144204799Y-113485725D01*
X144133735Y-113464168D01*
X144059829Y-113456889D01*
X143985924Y-113464168D01*
X143914860Y-113485725D01*
X143849366Y-113520732D01*
X143791960Y-113567844D01*
X143398861Y-113963522D01*
X118597852Y-113963522D01*
X117699781Y-113272041D01*
X116599667Y-112276200D01*
X119978776Y-112276200D01*
X119986055Y-112350105D01*
X120007612Y-112421170D01*
X120042619Y-112486663D01*
X120089731Y-112544069D01*
X120147137Y-112591181D01*
X120212630Y-112626188D01*
X120283695Y-112647745D01*
X120357600Y-112655024D01*
X120615350Y-112653200D01*
X120709600Y-112558950D01*
X120709600Y-111961700D01*
X120955600Y-111961700D01*
X120955600Y-112558950D01*
X121049850Y-112653200D01*
X121307600Y-112655024D01*
X121381505Y-112647745D01*
X121452570Y-112626188D01*
X121518063Y-112591181D01*
X121575469Y-112544069D01*
X121622581Y-112486663D01*
X121657588Y-112421170D01*
X121679145Y-112350105D01*
X121686424Y-112276200D01*
X121684600Y-112055950D01*
X121610239Y-111981589D01*
X127237000Y-111981589D01*
X127237000Y-112254411D01*
X127290225Y-112521989D01*
X127394629Y-112774043D01*
X127546201Y-113000886D01*
X127739114Y-113193799D01*
X127965957Y-113345371D01*
X128218011Y-113449775D01*
X128485589Y-113503000D01*
X128758411Y-113503000D01*
X129025989Y-113449775D01*
X129278043Y-113345371D01*
X129504886Y-113193799D01*
X129697799Y-113000886D01*
X129849371Y-112774043D01*
X129953775Y-112521989D01*
X130007000Y-112254411D01*
X130007000Y-111981589D01*
X129953775Y-111714011D01*
X129849371Y-111461957D01*
X129697799Y-111235114D01*
X129504886Y-111042201D01*
X129278043Y-110890629D01*
X129025989Y-110786225D01*
X128758411Y-110733000D01*
X128485589Y-110733000D01*
X128218011Y-110786225D01*
X127965957Y-110890629D01*
X127739114Y-111042201D01*
X127546201Y-111235114D01*
X127394629Y-111461957D01*
X127290225Y-111714011D01*
X127237000Y-111981589D01*
X121610239Y-111981589D01*
X121590350Y-111961700D01*
X120955600Y-111961700D01*
X120709600Y-111961700D01*
X120074850Y-111961700D01*
X119980600Y-112055950D01*
X119978776Y-112276200D01*
X116599667Y-112276200D01*
X116264976Y-111973233D01*
X114937897Y-110564535D01*
X113891619Y-109260161D01*
X114920800Y-109260161D01*
X114920800Y-109464039D01*
X114960574Y-109663998D01*
X115038595Y-109852356D01*
X115151863Y-110021874D01*
X115296026Y-110166037D01*
X115465544Y-110279305D01*
X115653902Y-110357326D01*
X115853861Y-110397100D01*
X116057739Y-110397100D01*
X116257698Y-110357326D01*
X116446056Y-110279305D01*
X116615574Y-110166037D01*
X116659511Y-110122100D01*
X119603398Y-110122100D01*
X119719528Y-110238230D01*
X119719528Y-110482450D01*
X119735992Y-110649608D01*
X119784750Y-110810342D01*
X119863929Y-110958475D01*
X119970485Y-111088315D01*
X120063816Y-111164909D01*
X120042619Y-111190737D01*
X120007612Y-111256230D01*
X119986055Y-111327295D01*
X119978776Y-111401200D01*
X119980600Y-111621450D01*
X120074850Y-111715700D01*
X120709600Y-111715700D01*
X120709600Y-111695700D01*
X120955600Y-111695700D01*
X120955600Y-111715700D01*
X121590350Y-111715700D01*
X121684600Y-111621450D01*
X121686424Y-111401200D01*
X121679145Y-111327295D01*
X121657588Y-111256230D01*
X121622581Y-111190737D01*
X121601384Y-111164909D01*
X121694715Y-111088315D01*
X121801271Y-110958475D01*
X121880450Y-110810342D01*
X121929208Y-110649608D01*
X121945672Y-110482450D01*
X121945672Y-110044950D01*
X121929208Y-109877792D01*
X121880450Y-109717058D01*
X121801271Y-109568925D01*
X121694715Y-109439085D01*
X121564875Y-109332529D01*
X121416742Y-109253350D01*
X121256008Y-109204592D01*
X121088850Y-109188128D01*
X120819030Y-109188128D01*
X120482003Y-108851102D01*
X120458201Y-108822099D01*
X120342476Y-108727126D01*
X120210447Y-108656554D01*
X120067186Y-108613097D01*
X119955533Y-108602100D01*
X119955522Y-108602100D01*
X119918200Y-108598424D01*
X119880878Y-108602100D01*
X116659511Y-108602100D01*
X116615574Y-108558163D01*
X116446056Y-108444895D01*
X116257698Y-108366874D01*
X116057739Y-108327100D01*
X115853861Y-108327100D01*
X115653902Y-108366874D01*
X115465544Y-108444895D01*
X115296026Y-108558163D01*
X115151863Y-108702326D01*
X115038595Y-108871844D01*
X114960574Y-109060202D01*
X114920800Y-109260161D01*
X113891619Y-109260161D01*
X113726935Y-109054853D01*
X112639745Y-107453733D01*
X111855913Y-106075074D01*
X111893766Y-106106139D01*
X111959259Y-106141146D01*
X112030324Y-106162703D01*
X112104229Y-106169982D01*
X112361979Y-106168158D01*
X112456229Y-106073908D01*
X112456229Y-105476658D01*
X112702229Y-105476658D01*
X112702229Y-106073908D01*
X112796479Y-106168158D01*
X113054229Y-106169982D01*
X113128134Y-106162703D01*
X113199199Y-106141146D01*
X113264692Y-106106139D01*
X113322098Y-106059027D01*
X113369210Y-106001621D01*
X113404217Y-105936128D01*
X113425774Y-105865063D01*
X113433053Y-105791158D01*
X113431229Y-105570908D01*
X113336979Y-105476658D01*
X112702229Y-105476658D01*
X112456229Y-105476658D01*
X111821479Y-105476658D01*
X111727229Y-105570908D01*
X111725405Y-105791158D01*
X111731882Y-105856919D01*
X111683201Y-105771296D01*
X110863351Y-104018180D01*
X110185378Y-102205469D01*
X109653568Y-100344624D01*
X109540939Y-99785664D01*
X109611170Y-99855895D01*
X109878959Y-100034826D01*
X110176510Y-100158076D01*
X110492389Y-100220908D01*
X110814455Y-100220908D01*
X111130334Y-100158076D01*
X111427885Y-100034826D01*
X111695674Y-99855895D01*
X111923409Y-99628160D01*
X112102340Y-99360371D01*
X112225590Y-99062820D01*
X112288422Y-98746941D01*
X112288422Y-98424875D01*
X112225590Y-98108996D01*
X112102340Y-97811445D01*
X111923409Y-97543656D01*
X111695674Y-97315921D01*
X111427885Y-97136990D01*
X111130334Y-97013740D01*
X110814455Y-96950908D01*
X110492389Y-96950908D01*
X110176510Y-97013740D01*
X109878959Y-97136990D01*
X109611170Y-97315921D01*
X109383435Y-97543656D01*
X109204504Y-97811445D01*
X109197173Y-97829144D01*
X109040943Y-96525817D01*
X108986630Y-95160750D01*
X109190928Y-95160750D01*
X109190928Y-95598250D01*
X109207392Y-95765408D01*
X109256150Y-95926142D01*
X109335329Y-96074275D01*
X109441885Y-96204115D01*
X109571725Y-96310671D01*
X109719858Y-96389850D01*
X109880592Y-96438608D01*
X110047750Y-96455072D01*
X110560250Y-96455072D01*
X110727408Y-96438608D01*
X110888142Y-96389850D01*
X111036275Y-96310671D01*
X111166115Y-96204115D01*
X111272671Y-96074275D01*
X111351850Y-95926142D01*
X111400608Y-95765408D01*
X111417072Y-95598250D01*
X111417072Y-95516616D01*
X111431795Y-95552160D01*
X111545063Y-95721678D01*
X111689226Y-95865841D01*
X111858744Y-95979109D01*
X112047102Y-96057130D01*
X112247061Y-96096904D01*
X112450939Y-96096904D01*
X112554200Y-96076364D01*
X112554201Y-101380200D01*
X112475661Y-101380200D01*
X112275702Y-101419974D01*
X112087344Y-101497995D01*
X111917826Y-101611263D01*
X111773663Y-101755426D01*
X111660395Y-101924944D01*
X111582374Y-102113302D01*
X111542600Y-102313261D01*
X111542600Y-102517139D01*
X111582374Y-102717098D01*
X111660395Y-102905456D01*
X111703745Y-102970334D01*
X111610558Y-103083883D01*
X111531379Y-103232016D01*
X111482621Y-103392750D01*
X111466157Y-103559908D01*
X111466157Y-103997408D01*
X111482621Y-104164566D01*
X111531379Y-104325300D01*
X111610558Y-104473433D01*
X111717114Y-104603273D01*
X111810445Y-104679867D01*
X111789248Y-104705695D01*
X111754241Y-104771188D01*
X111732684Y-104842253D01*
X111725405Y-104916158D01*
X111727229Y-105136408D01*
X111821479Y-105230658D01*
X112456229Y-105230658D01*
X112456229Y-105210658D01*
X112702229Y-105210658D01*
X112702229Y-105230658D01*
X113336979Y-105230658D01*
X113431229Y-105136408D01*
X113433053Y-104916158D01*
X113425774Y-104842253D01*
X113404217Y-104771188D01*
X113369210Y-104705695D01*
X113348013Y-104679867D01*
X113441344Y-104603273D01*
X113547900Y-104473433D01*
X113627079Y-104325300D01*
X113675837Y-104164566D01*
X113692301Y-103997408D01*
X113692301Y-103817302D01*
X114438200Y-104563202D01*
X114438200Y-104625339D01*
X114477974Y-104825298D01*
X114555995Y-105013656D01*
X114669263Y-105183174D01*
X114813426Y-105327337D01*
X114982944Y-105440605D01*
X115171302Y-105518626D01*
X115371261Y-105558400D01*
X115575139Y-105558400D01*
X115775098Y-105518626D01*
X115963456Y-105440605D01*
X116132974Y-105327337D01*
X116277137Y-105183174D01*
X116390405Y-105013656D01*
X116468426Y-104825298D01*
X116508200Y-104625339D01*
X116508200Y-104421461D01*
X116468426Y-104221502D01*
X116390405Y-104033144D01*
X116277137Y-103863626D01*
X116132974Y-103719463D01*
X115963456Y-103606195D01*
X115775098Y-103528174D01*
X115575139Y-103488400D01*
X115513002Y-103488400D01*
X114074200Y-102049599D01*
X114074200Y-99886511D01*
X114180702Y-99930626D01*
X114380661Y-99970400D01*
X114442799Y-99970400D01*
X116261344Y-101788945D01*
X116119063Y-101931226D01*
X116005795Y-102100744D01*
X115927774Y-102289102D01*
X115888000Y-102489061D01*
X115888000Y-102692939D01*
X115927774Y-102892898D01*
X116005795Y-103081256D01*
X116119063Y-103250774D01*
X116263226Y-103394937D01*
X116432744Y-103508205D01*
X116621102Y-103586226D01*
X116821061Y-103626000D01*
X117024939Y-103626000D01*
X117072866Y-103616467D01*
X121132400Y-107676002D01*
X121156199Y-107705001D01*
X121271924Y-107799974D01*
X121403953Y-107870546D01*
X121547214Y-107914003D01*
X121658867Y-107925000D01*
X121658877Y-107925000D01*
X121696200Y-107928676D01*
X121733523Y-107925000D01*
X124515089Y-107925000D01*
X124487000Y-108066212D01*
X124487000Y-108289788D01*
X124530617Y-108509067D01*
X124616176Y-108715624D01*
X124740388Y-108901520D01*
X124898480Y-109059612D01*
X125084376Y-109183824D01*
X125290933Y-109269383D01*
X125510212Y-109313000D01*
X125733788Y-109313000D01*
X125953067Y-109269383D01*
X126159624Y-109183824D01*
X126345520Y-109059612D01*
X126503612Y-108901520D01*
X126627824Y-108715624D01*
X126713383Y-108509067D01*
X126757000Y-108289788D01*
X126757000Y-108066212D01*
X126728911Y-107925000D01*
X127914517Y-107925000D01*
X127739114Y-108042201D01*
X127546201Y-108235114D01*
X127394629Y-108461957D01*
X127290225Y-108714011D01*
X127237000Y-108981589D01*
X127237000Y-109254411D01*
X127290225Y-109521989D01*
X127394629Y-109774043D01*
X127546201Y-110000886D01*
X127739114Y-110193799D01*
X127965957Y-110345371D01*
X128218011Y-110449775D01*
X128485589Y-110503000D01*
X128758411Y-110503000D01*
X129025989Y-110449775D01*
X129278043Y-110345371D01*
X129447268Y-110232298D01*
X129494026Y-110319776D01*
X129510624Y-110340000D01*
X129589000Y-110435501D01*
X129617998Y-110459299D01*
X130263701Y-111105002D01*
X130287499Y-111134001D01*
X130403224Y-111228974D01*
X130511597Y-111286902D01*
X130394629Y-111461957D01*
X130290225Y-111714011D01*
X130237000Y-111981589D01*
X130237000Y-112254411D01*
X130290225Y-112521989D01*
X130394629Y-112774043D01*
X130546201Y-113000886D01*
X130739114Y-113193799D01*
X130965957Y-113345371D01*
X131218011Y-113449775D01*
X131485589Y-113503000D01*
X131758411Y-113503000D01*
X132025989Y-113449775D01*
X132278043Y-113345371D01*
X132504886Y-113193799D01*
X132697799Y-113000886D01*
X132849371Y-112774043D01*
X132953775Y-112521989D01*
X132993297Y-112323300D01*
X133299005Y-112629008D01*
X133322799Y-112658001D01*
X133351792Y-112681795D01*
X133351796Y-112681799D01*
X133358802Y-112687548D01*
X133394629Y-112774043D01*
X133546201Y-113000886D01*
X133739114Y-113193799D01*
X133965957Y-113345371D01*
X134218011Y-113449775D01*
X134485589Y-113503000D01*
X134758411Y-113503000D01*
X135025989Y-113449775D01*
X135278043Y-113345371D01*
X135504886Y-113193799D01*
X135697799Y-113000886D01*
X135786590Y-112868000D01*
X136493176Y-112868000D01*
X136500455Y-112941905D01*
X136522012Y-113012970D01*
X136557019Y-113078463D01*
X136604131Y-113135869D01*
X136661537Y-113182981D01*
X136727030Y-113217988D01*
X136798095Y-113239545D01*
X136872000Y-113246824D01*
X137404750Y-113245000D01*
X137499000Y-113150750D01*
X137499000Y-112241000D01*
X136589250Y-112241000D01*
X136495000Y-112335250D01*
X136493176Y-112868000D01*
X135786590Y-112868000D01*
X135849371Y-112774043D01*
X135953775Y-112521989D01*
X136007000Y-112254411D01*
X136007000Y-111981589D01*
X135953775Y-111714011D01*
X135849371Y-111461957D01*
X135697799Y-111235114D01*
X135562685Y-111100000D01*
X136604291Y-111100000D01*
X136604131Y-111100131D01*
X136557019Y-111157537D01*
X136522012Y-111223030D01*
X136500455Y-111294095D01*
X136493176Y-111368000D01*
X136495000Y-111900750D01*
X136589250Y-111995000D01*
X137499000Y-111995000D01*
X137499000Y-111975000D01*
X137745000Y-111975000D01*
X137745000Y-111995000D01*
X137765000Y-111995000D01*
X137765000Y-112241000D01*
X137745000Y-112241000D01*
X137745000Y-113150750D01*
X137839250Y-113245000D01*
X138372000Y-113246824D01*
X138445905Y-113239545D01*
X138516970Y-113217988D01*
X138582463Y-113182981D01*
X138639869Y-113135869D01*
X138686981Y-113078463D01*
X138721988Y-113012970D01*
X138743545Y-112941905D01*
X138750824Y-112868000D01*
X138749000Y-112335250D01*
X138654752Y-112241002D01*
X138749000Y-112241002D01*
X138749000Y-112135402D01*
X139103921Y-112490323D01*
X139103927Y-112490328D01*
X139130458Y-112516859D01*
X139161650Y-112537700D01*
X139190648Y-112561498D01*
X139223747Y-112579190D01*
X139254936Y-112600029D01*
X139289579Y-112614379D01*
X139322677Y-112632070D01*
X139358592Y-112642965D01*
X139393247Y-112657319D01*
X139430036Y-112664636D01*
X139465938Y-112675527D01*
X139503279Y-112679205D01*
X139540078Y-112686524D01*
X139577596Y-112686524D01*
X139614924Y-112690200D01*
X139652257Y-112686523D01*
X139689784Y-112686523D01*
X139726579Y-112679204D01*
X139763910Y-112675527D01*
X139795623Y-112665907D01*
X140249887Y-113120171D01*
X140346578Y-113199523D01*
X140456892Y-113258488D01*
X140576590Y-113294798D01*
X140701072Y-113307058D01*
X140825554Y-113294798D01*
X140945252Y-113258488D01*
X141055566Y-113199523D01*
X141152257Y-113120171D01*
X142248272Y-112024156D01*
X142327624Y-111927465D01*
X142386589Y-111817151D01*
X142422899Y-111697453D01*
X142435159Y-111572971D01*
X142422899Y-111448489D01*
X142386589Y-111328791D01*
X142327624Y-111218477D01*
X142248272Y-111121786D01*
X141817047Y-110690561D01*
X142185416Y-110056757D01*
X148931972Y-110056757D01*
X148931972Y-110190047D01*
X149236683Y-110497337D01*
X149294088Y-110544449D01*
X149359582Y-110579456D01*
X149430646Y-110601013D01*
X149504552Y-110608292D01*
X149578457Y-110601013D01*
X149649521Y-110579456D01*
X149715015Y-110544449D01*
X149772421Y-110497337D01*
X150165520Y-110101659D01*
X150165520Y-109968369D01*
X149592940Y-109395789D01*
X148931972Y-110056757D01*
X142185416Y-110056757D01*
X142192318Y-110044883D01*
X142926972Y-109310229D01*
X148206489Y-109310229D01*
X148213768Y-109384135D01*
X148235325Y-109455199D01*
X148270332Y-109520693D01*
X148317444Y-109578098D01*
X148624734Y-109882809D01*
X148758024Y-109882809D01*
X149418992Y-109221841D01*
X149766888Y-109221841D01*
X150339468Y-109794421D01*
X150472758Y-109794421D01*
X150868436Y-109401322D01*
X150915548Y-109343916D01*
X150950555Y-109278422D01*
X150972112Y-109207358D01*
X150979391Y-109133453D01*
X150972112Y-109059547D01*
X150950555Y-108988483D01*
X150915548Y-108922989D01*
X150868436Y-108865584D01*
X150561146Y-108560873D01*
X150427856Y-108560873D01*
X149766888Y-109221841D01*
X149418992Y-109221841D01*
X148846412Y-108649261D01*
X148713122Y-108649261D01*
X148317444Y-109042360D01*
X148270332Y-109099766D01*
X148235325Y-109165260D01*
X148213768Y-109236324D01*
X148206489Y-109310229D01*
X142926972Y-109310229D01*
X143895178Y-108342023D01*
X149020360Y-108342023D01*
X149020360Y-108475313D01*
X149592940Y-109047893D01*
X150253908Y-108386925D01*
X150253908Y-108253635D01*
X149949197Y-107946345D01*
X149891792Y-107899233D01*
X149826298Y-107864226D01*
X149755234Y-107842669D01*
X149681328Y-107835390D01*
X149607423Y-107842669D01*
X149536359Y-107864226D01*
X149470865Y-107899233D01*
X149413459Y-107946345D01*
X149020360Y-108342023D01*
X143895178Y-108342023D01*
X144642402Y-107594800D01*
X145585678Y-107594800D01*
X145623000Y-107598476D01*
X145660322Y-107594800D01*
X145660333Y-107594800D01*
X145771986Y-107583803D01*
X145915247Y-107540346D01*
X145919437Y-107538106D01*
X145968077Y-107578024D01*
X146078391Y-107636989D01*
X146198089Y-107673299D01*
X146322571Y-107685559D01*
X146447053Y-107673299D01*
X146566751Y-107636989D01*
X146677065Y-107578024D01*
X146773756Y-107498672D01*
X147869771Y-106402657D01*
X147949123Y-106305966D01*
X148008088Y-106195652D01*
X148044398Y-106075954D01*
X148056658Y-105951472D01*
X148046665Y-105850000D01*
X152833676Y-105850000D01*
X152840955Y-105923905D01*
X152862512Y-105994970D01*
X152897519Y-106060463D01*
X152944631Y-106117869D01*
X153002037Y-106164981D01*
X153067530Y-106199988D01*
X153138595Y-106221545D01*
X153212500Y-106228824D01*
X153470250Y-106227000D01*
X153564500Y-106132750D01*
X153564500Y-105535500D01*
X153810500Y-105535500D01*
X153810500Y-106132750D01*
X153904750Y-106227000D01*
X154162500Y-106228824D01*
X154236405Y-106221545D01*
X154307470Y-106199988D01*
X154372963Y-106164981D01*
X154430369Y-106117869D01*
X154477481Y-106060463D01*
X154512488Y-105994970D01*
X154534045Y-105923905D01*
X154541324Y-105850000D01*
X154539500Y-105629750D01*
X154445250Y-105535500D01*
X153810500Y-105535500D01*
X153564500Y-105535500D01*
X152929750Y-105535500D01*
X152835500Y-105629750D01*
X152833676Y-105850000D01*
X148046665Y-105850000D01*
X148044398Y-105826990D01*
X148008088Y-105707292D01*
X147949123Y-105596978D01*
X147869771Y-105500287D01*
X146950532Y-104581048D01*
X146853841Y-104501696D01*
X146743527Y-104442731D01*
X146623829Y-104406421D01*
X146499347Y-104394161D01*
X146374865Y-104406421D01*
X146255167Y-104442731D01*
X146144853Y-104501696D01*
X146048162Y-104581048D01*
X144952147Y-105677063D01*
X144872795Y-105773754D01*
X144813830Y-105884068D01*
X144777520Y-106003766D01*
X144770524Y-106074800D01*
X144358733Y-106074800D01*
X144327045Y-106071679D01*
X144178059Y-106086353D01*
X144034798Y-106129809D01*
X143902769Y-106200381D01*
X143816042Y-106271556D01*
X141746867Y-108340732D01*
X141757000Y-108289788D01*
X141757000Y-108066212D01*
X141713383Y-107846933D01*
X141627824Y-107640376D01*
X141503612Y-107454480D01*
X141345520Y-107296388D01*
X141159624Y-107172176D01*
X140953067Y-107086617D01*
X140733788Y-107043000D01*
X140510212Y-107043000D01*
X140290933Y-107086617D01*
X140084376Y-107172176D01*
X139898480Y-107296388D01*
X139740388Y-107454480D01*
X139616176Y-107640376D01*
X139530617Y-107846933D01*
X139487000Y-108066212D01*
X139487000Y-108289788D01*
X139530617Y-108509067D01*
X139616176Y-108715624D01*
X139740388Y-108901520D01*
X139898480Y-109059612D01*
X140084376Y-109183824D01*
X140290933Y-109269383D01*
X140510212Y-109313000D01*
X140733788Y-109313000D01*
X140876059Y-109284701D01*
X140225944Y-110403266D01*
X139696206Y-110933004D01*
X138724350Y-109961149D01*
X138849371Y-109774043D01*
X138953775Y-109521989D01*
X139007000Y-109254411D01*
X139007000Y-108981589D01*
X138953775Y-108714011D01*
X138849371Y-108461957D01*
X138697799Y-108235114D01*
X138504886Y-108042201D01*
X138278043Y-107890629D01*
X138025989Y-107786225D01*
X137758411Y-107733000D01*
X137485589Y-107733000D01*
X137218011Y-107786225D01*
X136965957Y-107890629D01*
X136739114Y-108042201D01*
X136546201Y-108235114D01*
X136394629Y-108461957D01*
X136290225Y-108714011D01*
X136237000Y-108981589D01*
X136237000Y-109254411D01*
X136290225Y-109521989D01*
X136314254Y-109580000D01*
X135929746Y-109580000D01*
X135953775Y-109521989D01*
X136007000Y-109254411D01*
X136007000Y-108981589D01*
X135953775Y-108714011D01*
X135849371Y-108461957D01*
X135697799Y-108235114D01*
X135504886Y-108042201D01*
X135278043Y-107890629D01*
X135025989Y-107786225D01*
X134758411Y-107733000D01*
X134485589Y-107733000D01*
X134340635Y-107761833D01*
X132523801Y-105945000D01*
X144319353Y-105945000D01*
X144353000Y-105948314D01*
X144487283Y-105935088D01*
X144616406Y-105895919D01*
X144735407Y-105832312D01*
X144839711Y-105746711D01*
X144925312Y-105642407D01*
X144988919Y-105523406D01*
X145028088Y-105394283D01*
X145038000Y-105293647D01*
X145038000Y-105293646D01*
X145041314Y-105260000D01*
X145038000Y-105226353D01*
X145038000Y-104277647D01*
X145041314Y-104244000D01*
X145028088Y-104109717D01*
X144988919Y-103980594D01*
X144925312Y-103861593D01*
X144839711Y-103757289D01*
X144735407Y-103671688D01*
X144616406Y-103608081D01*
X144487283Y-103568912D01*
X144386647Y-103559000D01*
X144353000Y-103555686D01*
X144319353Y-103559000D01*
X122796647Y-103559000D01*
X122763000Y-103555686D01*
X122729353Y-103559000D01*
X122628717Y-103568912D01*
X122499594Y-103608081D01*
X122380593Y-103671688D01*
X122276289Y-103757289D01*
X122190688Y-103861593D01*
X122127081Y-103980594D01*
X122087912Y-104109717D01*
X122074686Y-104244000D01*
X122078001Y-104277656D01*
X122078000Y-104875010D01*
X121753832Y-104875010D01*
X120246400Y-103367579D01*
X120246400Y-101726000D01*
X132111676Y-101726000D01*
X132118955Y-101799905D01*
X132140512Y-101870970D01*
X132175519Y-101936463D01*
X132222631Y-101993869D01*
X132280037Y-102040981D01*
X132345530Y-102075988D01*
X132416595Y-102097545D01*
X132490500Y-102104824D01*
X133023250Y-102103000D01*
X133117500Y-102008750D01*
X133117500Y-101349000D01*
X133363500Y-101349000D01*
X133363500Y-102008750D01*
X133457750Y-102103000D01*
X133990500Y-102104824D01*
X134064405Y-102097545D01*
X134135470Y-102075988D01*
X134200963Y-102040981D01*
X134258369Y-101993869D01*
X134305481Y-101936463D01*
X134340488Y-101870970D01*
X134362045Y-101799905D01*
X134369324Y-101726000D01*
X134367500Y-101443250D01*
X134273250Y-101349000D01*
X133363500Y-101349000D01*
X133117500Y-101349000D01*
X132207750Y-101349000D01*
X132113500Y-101443250D01*
X132111676Y-101726000D01*
X120246400Y-101726000D01*
X120246400Y-99988722D01*
X120250076Y-99951399D01*
X120246400Y-99914076D01*
X120246400Y-99914067D01*
X120235403Y-99802414D01*
X120191946Y-99659153D01*
X120121374Y-99527124D01*
X120026401Y-99411399D01*
X119997404Y-99387602D01*
X118210000Y-97600199D01*
X118210000Y-97538061D01*
X118170226Y-97338102D01*
X118092205Y-97149744D01*
X117978937Y-96980226D01*
X117834774Y-96836063D01*
X117665256Y-96722795D01*
X117476898Y-96644774D01*
X117276939Y-96605000D01*
X117073061Y-96605000D01*
X116873102Y-96644774D01*
X116684744Y-96722795D01*
X116515226Y-96836063D01*
X116371063Y-96980226D01*
X116257795Y-97149744D01*
X116179774Y-97338102D01*
X116140000Y-97538061D01*
X116140000Y-97741939D01*
X116179774Y-97941898D01*
X116257795Y-98130256D01*
X116371063Y-98299774D01*
X116515226Y-98443937D01*
X116684744Y-98557205D01*
X116873102Y-98635226D01*
X117073061Y-98675000D01*
X117135199Y-98675000D01*
X118726400Y-100266202D01*
X118726401Y-102483990D01*
X118408001Y-102165590D01*
X118408001Y-102138123D01*
X118411677Y-102100800D01*
X118408001Y-102063477D01*
X118408001Y-102063469D01*
X118397004Y-101951815D01*
X118353547Y-101808554D01*
X118311252Y-101729426D01*
X118282975Y-101676524D01*
X118211800Y-101589798D01*
X118188002Y-101560800D01*
X118159004Y-101537002D01*
X115517600Y-98895599D01*
X115517600Y-98833461D01*
X115477826Y-98633502D01*
X115399805Y-98445144D01*
X115286537Y-98275626D01*
X115142374Y-98131463D01*
X114972856Y-98018195D01*
X114784498Y-97940174D01*
X114584539Y-97900400D01*
X114380661Y-97900400D01*
X114180702Y-97940174D01*
X114074200Y-97984289D01*
X114074200Y-96656353D01*
X114129902Y-96679426D01*
X114329861Y-96719200D01*
X114533739Y-96719200D01*
X114733698Y-96679426D01*
X114922056Y-96601405D01*
X115091574Y-96488137D01*
X115235737Y-96343974D01*
X115349005Y-96174456D01*
X115427026Y-95986098D01*
X115466800Y-95786139D01*
X115466800Y-95582261D01*
X115427026Y-95382302D01*
X115349005Y-95193944D01*
X115235737Y-95024426D01*
X115091574Y-94880263D01*
X114922056Y-94766995D01*
X114791801Y-94713041D01*
X114791801Y-93909800D01*
X115889602Y-92812000D01*
X117156000Y-92812000D01*
X117156000Y-92968950D01*
X117195774Y-93168909D01*
X117273795Y-93357267D01*
X117387063Y-93526785D01*
X117399284Y-93539006D01*
X117387063Y-93551226D01*
X117273795Y-93720744D01*
X117195774Y-93909102D01*
X117156000Y-94109061D01*
X117156000Y-94312939D01*
X117195774Y-94512898D01*
X117273795Y-94701256D01*
X117387063Y-94870774D01*
X117531226Y-95014937D01*
X117700744Y-95128205D01*
X117889102Y-95206226D01*
X118089061Y-95246000D01*
X118292939Y-95246000D01*
X118492898Y-95206226D01*
X118681256Y-95128205D01*
X118850774Y-95014937D01*
X118920111Y-94945600D01*
X119931678Y-94945600D01*
X119969000Y-94949276D01*
X120006322Y-94945600D01*
X120006333Y-94945600D01*
X120117986Y-94934603D01*
X120261247Y-94891146D01*
X120393276Y-94820574D01*
X120509001Y-94725601D01*
X120532803Y-94696598D01*
X120893402Y-94336000D01*
X129348000Y-94336000D01*
X129348000Y-94402949D01*
X129387774Y-94602908D01*
X129465795Y-94791266D01*
X129579063Y-94960784D01*
X129623001Y-95004722D01*
X129623000Y-96180277D01*
X129619324Y-96217600D01*
X129623000Y-96254922D01*
X129623000Y-96254932D01*
X129633997Y-96366585D01*
X129652035Y-96426048D01*
X129677454Y-96509846D01*
X129748026Y-96641876D01*
X129778843Y-96679426D01*
X129842999Y-96757601D01*
X129872003Y-96781404D01*
X130719000Y-97628402D01*
X130719000Y-97690539D01*
X130758774Y-97890498D01*
X130836795Y-98078856D01*
X130950063Y-98248374D01*
X131094226Y-98392537D01*
X131263744Y-98505805D01*
X131452102Y-98583826D01*
X131652061Y-98623600D01*
X131855939Y-98623600D01*
X132055898Y-98583826D01*
X132244256Y-98505805D01*
X132413774Y-98392537D01*
X132480501Y-98325810D01*
X132480501Y-98788913D01*
X132366018Y-98800188D01*
X132246320Y-98836498D01*
X132136006Y-98895463D01*
X132039315Y-98974815D01*
X131959963Y-99071506D01*
X131900998Y-99181820D01*
X131864688Y-99301518D01*
X131852428Y-99426000D01*
X131852428Y-100426000D01*
X131864688Y-100550482D01*
X131900998Y-100670180D01*
X131959963Y-100780494D01*
X132039315Y-100877185D01*
X132113042Y-100937691D01*
X132113500Y-101008750D01*
X132207750Y-101103000D01*
X133117500Y-101103000D01*
X133117500Y-101083000D01*
X133363500Y-101083000D01*
X133363500Y-101103000D01*
X134273250Y-101103000D01*
X134367500Y-101008750D01*
X134367958Y-100937691D01*
X134441685Y-100877185D01*
X134521037Y-100780494D01*
X134580002Y-100670180D01*
X134616312Y-100550482D01*
X134628572Y-100426000D01*
X134628572Y-99426000D01*
X134616312Y-99301518D01*
X134580002Y-99181820D01*
X134521037Y-99071506D01*
X134441685Y-98974815D01*
X134344994Y-98895463D01*
X134234680Y-98836498D01*
X134114982Y-98800188D01*
X134000500Y-98788913D01*
X134000500Y-98624144D01*
X134155889Y-98593235D01*
X134344247Y-98515214D01*
X134513765Y-98401946D01*
X134657928Y-98257783D01*
X134771196Y-98088265D01*
X134849217Y-97899907D01*
X134888991Y-97699948D01*
X134888991Y-97496070D01*
X134849217Y-97296111D01*
X134771196Y-97107753D01*
X134657928Y-96938235D01*
X134513765Y-96794072D01*
X134344247Y-96680804D01*
X134155889Y-96602783D01*
X133955930Y-96563009D01*
X133752052Y-96563009D01*
X133552093Y-96602783D01*
X133363735Y-96680804D01*
X133194217Y-96794072D01*
X133050054Y-96938235D01*
X132936786Y-97107753D01*
X132858765Y-97296111D01*
X132818991Y-97496070D01*
X132818991Y-97558208D01*
X132789000Y-97588199D01*
X132789000Y-97486661D01*
X132749226Y-97286702D01*
X132671205Y-97098344D01*
X132557937Y-96928826D01*
X132413774Y-96784663D01*
X132244256Y-96671395D01*
X132055898Y-96593374D01*
X131855939Y-96553600D01*
X131793802Y-96553600D01*
X131143000Y-95902799D01*
X131143000Y-95004721D01*
X131186937Y-94960784D01*
X131300205Y-94791266D01*
X131378226Y-94602908D01*
X131418000Y-94402949D01*
X131418000Y-94336000D01*
X132674761Y-94336000D01*
X132695068Y-94338000D01*
X132885577Y-94338000D01*
X132923000Y-94341686D01*
X132960423Y-94338000D01*
X132960426Y-94338000D01*
X133072378Y-94326974D01*
X133216015Y-94283402D01*
X133348392Y-94212645D01*
X133464422Y-94117422D01*
X133488284Y-94088346D01*
X134311831Y-93264800D01*
X134371139Y-93264800D01*
X134571098Y-93225026D01*
X134759456Y-93147005D01*
X134928974Y-93033737D01*
X135073137Y-92889574D01*
X135186405Y-92720056D01*
X135264426Y-92531698D01*
X135304200Y-92331739D01*
X135304200Y-92127861D01*
X135264426Y-91927902D01*
X135186405Y-91739544D01*
X135073137Y-91570026D01*
X134928974Y-91425863D01*
X134759456Y-91312595D01*
X134571098Y-91234574D01*
X134371139Y-91194800D01*
X134167261Y-91194800D01*
X133967302Y-91234574D01*
X133778944Y-91312595D01*
X133700033Y-91365322D01*
X133620874Y-91286163D01*
X133451356Y-91172895D01*
X133262998Y-91094874D01*
X133063039Y-91055100D01*
X132859161Y-91055100D01*
X132659202Y-91094874D01*
X132470844Y-91172895D01*
X132301326Y-91286163D01*
X132157163Y-91430326D01*
X132090362Y-91530301D01*
X132087605Y-91523644D01*
X131974337Y-91354126D01*
X131830174Y-91209963D01*
X131660656Y-91096695D01*
X131472298Y-91018674D01*
X131272339Y-90978900D01*
X131081500Y-90978900D01*
X131081500Y-88942313D01*
X131085186Y-88904890D01*
X131081474Y-88867202D01*
X131070474Y-88755512D01*
X131026902Y-88611875D01*
X130979224Y-88522675D01*
X130956145Y-88479497D01*
X130884779Y-88392538D01*
X130860922Y-88363468D01*
X130831852Y-88339611D01*
X129606005Y-87113765D01*
X129659131Y-86985508D01*
X129698905Y-86785549D01*
X129698905Y-86581671D01*
X129659131Y-86381712D01*
X129581110Y-86193354D01*
X129467842Y-86023836D01*
X129323679Y-85879673D01*
X129154161Y-85766405D01*
X128965803Y-85688384D01*
X128765844Y-85648610D01*
X128561966Y-85648610D01*
X128362007Y-85688384D01*
X128173649Y-85766405D01*
X128004131Y-85879673D01*
X127859968Y-86023836D01*
X127746700Y-86193354D01*
X127674830Y-86366862D01*
X127617205Y-86227744D01*
X127503937Y-86058226D01*
X127359774Y-85914063D01*
X127190256Y-85800795D01*
X127001898Y-85722774D01*
X126801939Y-85683000D01*
X126598061Y-85683000D01*
X126398102Y-85722774D01*
X126209744Y-85800795D01*
X126040226Y-85914063D01*
X125896063Y-86058226D01*
X125782795Y-86227744D01*
X125704774Y-86416102D01*
X125665000Y-86616061D01*
X125665000Y-86678198D01*
X125242199Y-87101000D01*
X116901320Y-87101000D01*
X116863997Y-87097324D01*
X116826674Y-87101000D01*
X116826665Y-87101000D01*
X116715012Y-87111997D01*
X116571751Y-87155454D01*
X116439722Y-87226026D01*
X116439720Y-87226027D01*
X116439721Y-87226027D01*
X116352994Y-87297201D01*
X116352990Y-87297205D01*
X116323997Y-87320999D01*
X116300203Y-87349992D01*
X112008075Y-91642122D01*
X111992298Y-91655070D01*
X111836654Y-91810714D01*
X111807578Y-91834576D01*
X111777042Y-91871785D01*
X111712355Y-91950606D01*
X111692282Y-91988161D01*
X111667956Y-92033671D01*
X111577475Y-92015673D01*
X111482378Y-91986826D01*
X111370426Y-91975800D01*
X111295574Y-91975800D01*
X111183622Y-91986826D01*
X111039985Y-92030398D01*
X110907608Y-92101155D01*
X110906491Y-92102071D01*
X110880844Y-92112695D01*
X110711326Y-92225963D01*
X110567163Y-92370126D01*
X110453895Y-92539644D01*
X110375874Y-92728002D01*
X110336100Y-92927961D01*
X110336100Y-93131839D01*
X110375874Y-93331798D01*
X110427000Y-93455226D01*
X110427000Y-93681500D01*
X110447000Y-93681500D01*
X110447000Y-93927500D01*
X110427000Y-93927500D01*
X110427000Y-93947500D01*
X110181000Y-93947500D01*
X110181000Y-93927500D01*
X109546250Y-93927500D01*
X109452000Y-94021750D01*
X109450176Y-94242000D01*
X109457455Y-94315905D01*
X109479012Y-94386970D01*
X109514019Y-94452463D01*
X109535216Y-94478291D01*
X109441885Y-94554885D01*
X109335329Y-94684725D01*
X109256150Y-94832858D01*
X109207392Y-94993592D01*
X109190928Y-95160750D01*
X108986630Y-95160750D01*
X108964000Y-94592000D01*
X109012740Y-93367000D01*
X109450176Y-93367000D01*
X109452000Y-93587250D01*
X109546250Y-93681500D01*
X110181000Y-93681500D01*
X110181000Y-93084250D01*
X110086750Y-92990000D01*
X109829000Y-92988176D01*
X109755095Y-92995455D01*
X109684030Y-93017012D01*
X109618537Y-93052019D01*
X109561131Y-93099131D01*
X109514019Y-93156537D01*
X109479012Y-93222030D01*
X109457455Y-93293095D01*
X109450176Y-93367000D01*
X109012740Y-93367000D01*
X109040943Y-92658183D01*
X109271284Y-90736592D01*
X109653568Y-88839376D01*
X110185378Y-86978531D01*
X110610137Y-85842842D01*
X111725405Y-85842842D01*
X111732684Y-85916747D01*
X111754241Y-85987812D01*
X111789248Y-86053305D01*
X111836360Y-86110711D01*
X111893766Y-86157823D01*
X111959259Y-86192830D01*
X112030324Y-86214387D01*
X112104229Y-86221666D01*
X112361979Y-86219842D01*
X112456229Y-86125592D01*
X112456229Y-85528342D01*
X112702229Y-85528342D01*
X112702229Y-86125592D01*
X112796479Y-86219842D01*
X113054229Y-86221666D01*
X113128134Y-86214387D01*
X113199199Y-86192830D01*
X113264692Y-86157823D01*
X113322098Y-86110711D01*
X113369210Y-86053305D01*
X113404217Y-85987812D01*
X113425774Y-85916747D01*
X113433053Y-85842842D01*
X113431229Y-85622592D01*
X113336979Y-85528342D01*
X112702229Y-85528342D01*
X112456229Y-85528342D01*
X111821479Y-85528342D01*
X111727229Y-85622592D01*
X111725405Y-85842842D01*
X110610137Y-85842842D01*
X110863351Y-85165820D01*
X111466157Y-83876817D01*
X111466157Y-84049092D01*
X111482621Y-84216250D01*
X111531379Y-84376984D01*
X111610558Y-84525117D01*
X111717114Y-84654957D01*
X111810445Y-84731551D01*
X111789248Y-84757379D01*
X111754241Y-84822872D01*
X111732684Y-84893937D01*
X111725405Y-84967842D01*
X111727229Y-85188092D01*
X111821479Y-85282342D01*
X112456229Y-85282342D01*
X112456229Y-85262342D01*
X112702229Y-85262342D01*
X112702229Y-85282342D01*
X113336979Y-85282342D01*
X113431229Y-85188092D01*
X113433053Y-84967842D01*
X113425774Y-84893937D01*
X113404217Y-84822872D01*
X113369210Y-84757379D01*
X113348013Y-84731551D01*
X113441344Y-84654957D01*
X113547900Y-84525117D01*
X113627079Y-84376984D01*
X113675837Y-84216250D01*
X113692301Y-84049092D01*
X113692301Y-83611592D01*
X113675837Y-83444434D01*
X113658754Y-83388118D01*
X114173997Y-82872875D01*
X117797300Y-82872875D01*
X117797300Y-83095525D01*
X117840737Y-83313896D01*
X117925941Y-83519598D01*
X118049639Y-83704724D01*
X118207076Y-83862161D01*
X118392202Y-83985859D01*
X118426824Y-84000200D01*
X118392202Y-84014541D01*
X118207076Y-84138239D01*
X118049639Y-84295676D01*
X117925941Y-84480802D01*
X117840737Y-84686504D01*
X117797300Y-84904875D01*
X117797300Y-85127525D01*
X117840737Y-85345896D01*
X117925941Y-85551598D01*
X118049639Y-85736724D01*
X118207076Y-85894161D01*
X118392202Y-86017859D01*
X118597904Y-86103063D01*
X118816275Y-86146500D01*
X119038925Y-86146500D01*
X119257296Y-86103063D01*
X119462998Y-86017859D01*
X119648124Y-85894161D01*
X119805561Y-85736724D01*
X119929259Y-85551598D01*
X120014463Y-85345896D01*
X120057900Y-85127525D01*
X120057900Y-84904875D01*
X120014463Y-84686504D01*
X119929259Y-84480802D01*
X119805561Y-84295676D01*
X119648124Y-84138239D01*
X119462998Y-84014541D01*
X119428376Y-84000200D01*
X119462998Y-83985859D01*
X119648124Y-83862161D01*
X119805561Y-83704724D01*
X119929259Y-83519598D01*
X120014463Y-83313896D01*
X120057900Y-83095525D01*
X120057900Y-82872875D01*
X120014463Y-82654504D01*
X119929259Y-82448802D01*
X119805561Y-82263676D01*
X119648124Y-82106239D01*
X119593083Y-82069461D01*
X120559600Y-82069461D01*
X120559600Y-82273339D01*
X120599374Y-82473298D01*
X120677395Y-82661656D01*
X120790663Y-82831174D01*
X120934826Y-82975337D01*
X121104344Y-83088605D01*
X121292702Y-83166626D01*
X121492661Y-83206400D01*
X121696539Y-83206400D01*
X121896498Y-83166626D01*
X122084856Y-83088605D01*
X122254374Y-82975337D01*
X122272909Y-82956802D01*
X123572970Y-82956802D01*
X123472202Y-82998541D01*
X123287076Y-83122239D01*
X123129639Y-83279676D01*
X123005941Y-83464802D01*
X122920737Y-83670504D01*
X122877300Y-83888875D01*
X122877300Y-84111525D01*
X122920737Y-84329896D01*
X123005941Y-84535598D01*
X123129639Y-84720724D01*
X123287076Y-84878161D01*
X123472202Y-85001859D01*
X123677904Y-85087063D01*
X123896275Y-85130500D01*
X124118925Y-85130500D01*
X124337296Y-85087063D01*
X124542998Y-85001859D01*
X124728124Y-84878161D01*
X124885561Y-84720724D01*
X125009259Y-84535598D01*
X125094463Y-84329896D01*
X125137900Y-84111525D01*
X125137900Y-83998331D01*
X126198220Y-85058651D01*
X126222078Y-85087722D01*
X126251148Y-85111579D01*
X126338107Y-85182945D01*
X126386004Y-85208546D01*
X126470485Y-85253702D01*
X126614122Y-85297274D01*
X126726074Y-85308300D01*
X126726077Y-85308300D01*
X126763500Y-85311986D01*
X126800923Y-85308300D01*
X140911998Y-85308300D01*
X140918689Y-85314991D01*
X140892300Y-85447661D01*
X140892300Y-85651539D01*
X140932074Y-85851498D01*
X141010095Y-86039856D01*
X141123363Y-86209374D01*
X141267526Y-86353537D01*
X141437044Y-86466805D01*
X141625402Y-86544826D01*
X141825361Y-86584600D01*
X142029239Y-86584600D01*
X142229198Y-86544826D01*
X142417556Y-86466805D01*
X142587074Y-86353537D01*
X142731237Y-86209374D01*
X142844505Y-86039856D01*
X142922526Y-85851498D01*
X142962300Y-85651539D01*
X142962300Y-85447661D01*
X142922526Y-85247702D01*
X142844505Y-85059344D01*
X142731237Y-84889826D01*
X142587074Y-84745663D01*
X142417556Y-84632395D01*
X142372824Y-84613866D01*
X141792912Y-84033954D01*
X141769050Y-84004878D01*
X141653020Y-83909655D01*
X141520643Y-83838898D01*
X141377006Y-83795326D01*
X141265054Y-83784300D01*
X141265051Y-83784300D01*
X141227628Y-83780614D01*
X141190205Y-83784300D01*
X127079131Y-83784300D01*
X124964859Y-81670029D01*
X124954003Y-81656801D01*
X124940775Y-81645945D01*
X124926353Y-81631523D01*
X124839394Y-81560157D01*
X124707017Y-81489401D01*
X124563380Y-81445829D01*
X124414002Y-81431116D01*
X124356273Y-81436802D01*
X122323713Y-81436802D01*
X122254374Y-81367463D01*
X122084856Y-81254195D01*
X121896498Y-81176174D01*
X121696539Y-81136400D01*
X121492661Y-81136400D01*
X121292702Y-81176174D01*
X121104344Y-81254195D01*
X120934826Y-81367463D01*
X120790663Y-81511626D01*
X120677395Y-81681144D01*
X120599374Y-81869502D01*
X120559600Y-82069461D01*
X119593083Y-82069461D01*
X119462998Y-81982541D01*
X119257296Y-81897337D01*
X119038925Y-81853900D01*
X118816275Y-81853900D01*
X118597904Y-81897337D01*
X118392202Y-81982541D01*
X118207076Y-82106239D01*
X118049639Y-82263676D01*
X117925941Y-82448802D01*
X117840737Y-82654504D01*
X117797300Y-82872875D01*
X114173997Y-82872875D01*
X117903864Y-79143008D01*
X117954744Y-79177005D01*
X118143102Y-79255026D01*
X118343061Y-79294800D01*
X118546939Y-79294800D01*
X118746898Y-79255026D01*
X118935256Y-79177005D01*
X119104774Y-79063737D01*
X119248937Y-78919574D01*
X119362205Y-78750056D01*
X119440226Y-78561698D01*
X119480000Y-78361739D01*
X119480000Y-78157861D01*
X119440226Y-77957902D01*
X119362205Y-77769544D01*
X119248937Y-77600026D01*
X119104774Y-77455863D01*
X118935256Y-77342595D01*
X118746898Y-77264574D01*
X118546939Y-77224800D01*
X118343061Y-77224800D01*
X118143102Y-77264574D01*
X117954744Y-77342595D01*
X117785226Y-77455863D01*
X117742035Y-77499054D01*
X117712271Y-77496123D01*
X117674938Y-77499800D01*
X117563285Y-77510797D01*
X117420024Y-77554254D01*
X117287995Y-77624826D01*
X117172270Y-77719799D01*
X117148472Y-77748797D01*
X112113067Y-82784203D01*
X112025416Y-82810792D01*
X112639745Y-81730267D01*
X113726935Y-80129147D01*
X114937897Y-78619465D01*
X116264976Y-77210767D01*
X116396145Y-77092030D01*
X118936676Y-77092030D01*
X118943955Y-77165935D01*
X118965512Y-77237000D01*
X119000519Y-77302493D01*
X119047631Y-77359899D01*
X119105037Y-77407011D01*
X119170530Y-77442018D01*
X119241595Y-77463575D01*
X119315500Y-77470854D01*
X119535750Y-77469030D01*
X119630000Y-77374780D01*
X119630000Y-76740030D01*
X119032750Y-76740030D01*
X118938500Y-76834280D01*
X118936676Y-77092030D01*
X116396145Y-77092030D01*
X117445619Y-76142030D01*
X118936676Y-76142030D01*
X118938500Y-76399780D01*
X119032750Y-76494030D01*
X119630000Y-76494030D01*
X119630000Y-75859280D01*
X119876000Y-75859280D01*
X119876000Y-76494030D01*
X119896000Y-76494030D01*
X119896000Y-76740030D01*
X119876000Y-76740030D01*
X119876000Y-77374780D01*
X119970250Y-77469030D01*
X120190500Y-77470854D01*
X120264405Y-77463575D01*
X120335470Y-77442018D01*
X120400963Y-77407011D01*
X120426791Y-77385814D01*
X120503385Y-77479145D01*
X120633225Y-77585701D01*
X120781358Y-77664880D01*
X120942092Y-77713638D01*
X121109250Y-77730102D01*
X121546750Y-77730102D01*
X121713908Y-77713638D01*
X121874642Y-77664880D01*
X122022775Y-77585701D01*
X122152615Y-77479145D01*
X122236418Y-77377030D01*
X122567069Y-77377030D01*
X122604391Y-77380706D01*
X122641713Y-77377030D01*
X122641724Y-77377030D01*
X122753377Y-77366033D01*
X122896638Y-77322576D01*
X123028667Y-77252004D01*
X123144392Y-77157031D01*
X123168195Y-77128027D01*
X123591128Y-76705094D01*
X123591128Y-77206400D01*
X123603388Y-77330882D01*
X123639698Y-77450580D01*
X123698663Y-77560894D01*
X123778015Y-77657585D01*
X123874706Y-77736937D01*
X123985020Y-77795902D01*
X124056020Y-77817440D01*
X124092555Y-77885792D01*
X124151735Y-77957902D01*
X124187779Y-78001822D01*
X124216849Y-78025679D01*
X124391816Y-78200646D01*
X124415678Y-78229722D01*
X124531708Y-78324945D01*
X124664085Y-78395702D01*
X124807722Y-78439274D01*
X124919674Y-78450300D01*
X124919676Y-78450300D01*
X124957099Y-78453986D01*
X124994522Y-78450300D01*
X131221875Y-78450300D01*
X131259298Y-78453986D01*
X131296721Y-78450300D01*
X131296724Y-78450300D01*
X131408676Y-78439274D01*
X131552313Y-78395702D01*
X131557181Y-78393100D01*
X131691437Y-78393100D01*
X131891396Y-78353326D01*
X132079754Y-78275305D01*
X132249272Y-78162037D01*
X132393435Y-78017874D01*
X132506703Y-77848356D01*
X132584724Y-77659998D01*
X132615734Y-77504100D01*
X132694739Y-77504100D01*
X132894698Y-77464326D01*
X133083056Y-77386305D01*
X133252574Y-77273037D01*
X133396737Y-77128874D01*
X133510005Y-76959356D01*
X133588026Y-76770998D01*
X133627800Y-76571039D01*
X133627800Y-76367161D01*
X133588026Y-76167202D01*
X133510005Y-75978844D01*
X133396737Y-75809326D01*
X133252574Y-75665163D01*
X133083056Y-75551895D01*
X132894698Y-75473874D01*
X132694739Y-75434100D01*
X132620196Y-75434100D01*
X132618193Y-75432456D01*
X132485816Y-75361699D01*
X132342179Y-75318127D01*
X132230227Y-75307101D01*
X132230224Y-75307101D01*
X132192801Y-75303415D01*
X132155378Y-75307101D01*
X130909167Y-75307101D01*
X130866585Y-75255215D01*
X130769894Y-75175863D01*
X130659580Y-75116898D01*
X130539882Y-75080588D01*
X130415400Y-75068328D01*
X129415400Y-75068328D01*
X129290918Y-75080588D01*
X129171220Y-75116898D01*
X129060906Y-75175863D01*
X128964215Y-75255215D01*
X128903709Y-75328942D01*
X128832650Y-75329400D01*
X128738400Y-75423650D01*
X128738400Y-76333400D01*
X128758400Y-76333400D01*
X128758400Y-76579400D01*
X128738400Y-76579400D01*
X128738400Y-76599400D01*
X128492400Y-76599400D01*
X128492400Y-76579400D01*
X127832650Y-76579400D01*
X127738400Y-76673650D01*
X127737535Y-76926300D01*
X126907065Y-76926300D01*
X126906200Y-76673650D01*
X126811950Y-76579400D01*
X126152200Y-76579400D01*
X126152200Y-76599400D01*
X125906200Y-76599400D01*
X125906200Y-76579400D01*
X125886200Y-76579400D01*
X125886200Y-76333400D01*
X125906200Y-76333400D01*
X125906200Y-75423650D01*
X126152200Y-75423650D01*
X126152200Y-76333400D01*
X126811950Y-76333400D01*
X126906200Y-76239150D01*
X126908024Y-75706400D01*
X127736576Y-75706400D01*
X127738400Y-76239150D01*
X127832650Y-76333400D01*
X128492400Y-76333400D01*
X128492400Y-75423650D01*
X128398150Y-75329400D01*
X128115400Y-75327576D01*
X128041495Y-75334855D01*
X127970430Y-75356412D01*
X127904937Y-75391419D01*
X127847531Y-75438531D01*
X127800419Y-75495937D01*
X127765412Y-75561430D01*
X127743855Y-75632495D01*
X127736576Y-75706400D01*
X126908024Y-75706400D01*
X126900745Y-75632495D01*
X126879188Y-75561430D01*
X126844181Y-75495937D01*
X126797069Y-75438531D01*
X126739663Y-75391419D01*
X126674170Y-75356412D01*
X126603105Y-75334855D01*
X126529200Y-75327576D01*
X126246450Y-75329400D01*
X126152200Y-75423650D01*
X125906200Y-75423650D01*
X125811950Y-75329400D01*
X125740891Y-75328942D01*
X125680385Y-75255215D01*
X125583694Y-75175863D01*
X125473380Y-75116898D01*
X125353682Y-75080588D01*
X125229200Y-75068328D01*
X125227895Y-75068328D01*
X125810323Y-74485900D01*
X128828389Y-74485900D01*
X128872326Y-74529837D01*
X129041844Y-74643105D01*
X129230202Y-74721126D01*
X129430161Y-74760900D01*
X129634039Y-74760900D01*
X129833998Y-74721126D01*
X130022356Y-74643105D01*
X130191874Y-74529837D01*
X130336037Y-74385674D01*
X130414780Y-74267827D01*
X130707655Y-74560702D01*
X130731453Y-74589700D01*
X130847178Y-74684673D01*
X130979207Y-74755245D01*
X131122468Y-74798702D01*
X131234121Y-74809699D01*
X131234130Y-74809699D01*
X131271453Y-74813375D01*
X131308776Y-74809699D01*
X135266979Y-74809699D01*
X135304301Y-74813375D01*
X135341623Y-74809699D01*
X135341634Y-74809699D01*
X135453287Y-74798702D01*
X135596548Y-74755245D01*
X135728526Y-74684700D01*
X135806239Y-74684700D01*
X136006198Y-74644926D01*
X136194556Y-74566905D01*
X136364074Y-74453637D01*
X136508237Y-74309474D01*
X136621505Y-74139956D01*
X136699526Y-73951598D01*
X136739300Y-73751639D01*
X136739300Y-73547761D01*
X136699526Y-73347802D01*
X136621505Y-73159444D01*
X136619909Y-73157056D01*
X136807750Y-73155500D01*
X136902000Y-73061250D01*
X136902000Y-72426500D01*
X136304750Y-72426500D01*
X136210500Y-72520750D01*
X136208934Y-72742102D01*
X136194556Y-72732495D01*
X136006198Y-72654474D01*
X135806239Y-72614700D01*
X135602361Y-72614700D01*
X135402402Y-72654474D01*
X135214044Y-72732495D01*
X135044526Y-72845763D01*
X134900363Y-72989926D01*
X134787095Y-73159444D01*
X134733141Y-73289699D01*
X131586256Y-73289699D01*
X130002887Y-71706331D01*
X129967098Y-71588351D01*
X129887919Y-71440218D01*
X129781363Y-71310378D01*
X129651523Y-71203822D01*
X129503390Y-71124643D01*
X129342656Y-71075885D01*
X129175498Y-71059421D01*
X128737998Y-71059421D01*
X128570840Y-71075885D01*
X128410106Y-71124643D01*
X128261973Y-71203822D01*
X128132133Y-71310378D01*
X128055539Y-71403709D01*
X128029711Y-71382512D01*
X127964218Y-71347505D01*
X127893153Y-71325948D01*
X127819248Y-71318669D01*
X127598998Y-71320493D01*
X127504748Y-71414743D01*
X127504748Y-72049493D01*
X127524748Y-72049493D01*
X127524748Y-72295493D01*
X127504748Y-72295493D01*
X127504748Y-72315493D01*
X127258748Y-72315493D01*
X127258748Y-72295493D01*
X126661498Y-72295493D01*
X126567248Y-72389743D01*
X126565424Y-72647493D01*
X126572703Y-72721398D01*
X126594260Y-72792463D01*
X126629267Y-72857956D01*
X126676379Y-72915362D01*
X126733785Y-72962474D01*
X126740195Y-72965900D01*
X125532843Y-72965900D01*
X125495520Y-72962224D01*
X125458197Y-72965900D01*
X125458188Y-72965900D01*
X125346535Y-72976897D01*
X125203274Y-73020354D01*
X125071245Y-73090926D01*
X124955520Y-73185899D01*
X124931722Y-73214897D01*
X122289590Y-75857030D01*
X122236418Y-75857030D01*
X122152615Y-75754915D01*
X122022775Y-75648359D01*
X121874642Y-75569180D01*
X121713908Y-75520422D01*
X121546750Y-75503958D01*
X121109250Y-75503958D01*
X120942092Y-75520422D01*
X120781358Y-75569180D01*
X120633225Y-75648359D01*
X120503385Y-75754915D01*
X120426791Y-75848246D01*
X120400963Y-75827049D01*
X120335470Y-75792042D01*
X120264405Y-75770485D01*
X120190500Y-75763206D01*
X119970250Y-75765030D01*
X119876000Y-75859280D01*
X119630000Y-75859280D01*
X119535750Y-75765030D01*
X119315500Y-75763206D01*
X119241595Y-75770485D01*
X119170530Y-75792042D01*
X119105037Y-75827049D01*
X119047631Y-75874161D01*
X119000519Y-75931567D01*
X118965512Y-75997060D01*
X118943955Y-76068125D01*
X118936676Y-76142030D01*
X117445619Y-76142030D01*
X117699781Y-75911959D01*
X119233241Y-74731251D01*
X120855660Y-73676110D01*
X122556783Y-72753206D01*
X124325852Y-71968374D01*
X125096472Y-71697493D01*
X126565424Y-71697493D01*
X126567248Y-71955243D01*
X126661498Y-72049493D01*
X127258748Y-72049493D01*
X127258748Y-71414743D01*
X127164498Y-71320493D01*
X126944248Y-71318669D01*
X126870343Y-71325948D01*
X126799278Y-71347505D01*
X126733785Y-71382512D01*
X126676379Y-71429624D01*
X126629267Y-71487030D01*
X126594260Y-71552523D01*
X126572703Y-71623588D01*
X126565424Y-71697493D01*
X125096472Y-71697493D01*
X126151684Y-71326575D01*
X128022736Y-70831869D01*
X129927177Y-70487381D01*
X131852968Y-70295290D01*
X132315508Y-70286092D01*
X132261748Y-70322013D01*
%TA.AperFunction,Conductor*%
D18*
G36*
X132261748Y-70322013D02*
G01*
X132034013Y-70549748D01*
X131855082Y-70817537D01*
X131731832Y-71115088D01*
X131669000Y-71430967D01*
X131669000Y-71753033D01*
X131731832Y-72068912D01*
X131855082Y-72366463D01*
X132034013Y-72634252D01*
X132261748Y-72861987D01*
X132529537Y-73040918D01*
X132827088Y-73164168D01*
X133142967Y-73227000D01*
X133465033Y-73227000D01*
X133780912Y-73164168D01*
X134078463Y-73040918D01*
X134346252Y-72861987D01*
X134573987Y-72634252D01*
X134752918Y-72366463D01*
X134876168Y-72068912D01*
X134923988Y-71828500D01*
X136208676Y-71828500D01*
X136210500Y-72086250D01*
X136304750Y-72180500D01*
X136902000Y-72180500D01*
X136902000Y-71545750D01*
X137148000Y-71545750D01*
X137148000Y-72180500D01*
X137168000Y-72180500D01*
X137168000Y-72426500D01*
X137148000Y-72426500D01*
X137148000Y-73061250D01*
X137242250Y-73155500D01*
X137462500Y-73157324D01*
X137536405Y-73150045D01*
X137607470Y-73128488D01*
X137672963Y-73093481D01*
X137698791Y-73072284D01*
X137775385Y-73165615D01*
X137871667Y-73244631D01*
X137894454Y-73319752D01*
X137965026Y-73451782D01*
X138012557Y-73509698D01*
X138060000Y-73567507D01*
X138088998Y-73591305D01*
X138466600Y-73968907D01*
X138466600Y-74031045D01*
X138506374Y-74231004D01*
X138584395Y-74419362D01*
X138697663Y-74588880D01*
X138841826Y-74733043D01*
X139011344Y-74846311D01*
X139199702Y-74924332D01*
X139399661Y-74964106D01*
X139603539Y-74964106D01*
X139803498Y-74924332D01*
X139991856Y-74846311D01*
X140072598Y-74792361D01*
X141184400Y-74792361D01*
X141184400Y-74996239D01*
X141224174Y-75196198D01*
X141302195Y-75384556D01*
X141415463Y-75554074D01*
X141559626Y-75698237D01*
X141729144Y-75811505D01*
X141917502Y-75889526D01*
X142117461Y-75929300D01*
X142176770Y-75929300D01*
X143381316Y-77133846D01*
X143405178Y-77162922D01*
X143459342Y-77207373D01*
X143521207Y-77258145D01*
X143562666Y-77280305D01*
X143653585Y-77328902D01*
X143797222Y-77372474D01*
X143909174Y-77383500D01*
X143909177Y-77383500D01*
X143946600Y-77387186D01*
X143984023Y-77383500D01*
X144373223Y-77383500D01*
X144455385Y-77483615D01*
X144585225Y-77590171D01*
X144733358Y-77669350D01*
X144894092Y-77718108D01*
X145061250Y-77734572D01*
X145498750Y-77734572D01*
X145665908Y-77718108D01*
X145826642Y-77669350D01*
X145974775Y-77590171D01*
X146104615Y-77483615D01*
X146181209Y-77390284D01*
X146207037Y-77411481D01*
X146272530Y-77446488D01*
X146343595Y-77468045D01*
X146417500Y-77475324D01*
X146637750Y-77473500D01*
X146732000Y-77379250D01*
X146732000Y-76744500D01*
X146978000Y-76744500D01*
X146978000Y-77379250D01*
X147072250Y-77473500D01*
X147292500Y-77475324D01*
X147366405Y-77468045D01*
X147437470Y-77446488D01*
X147502963Y-77411481D01*
X147560369Y-77364369D01*
X147607481Y-77306963D01*
X147642488Y-77241470D01*
X147664045Y-77170405D01*
X147671324Y-77096500D01*
X147669500Y-76838750D01*
X147575250Y-76744500D01*
X146978000Y-76744500D01*
X146732000Y-76744500D01*
X146712000Y-76744500D01*
X146712000Y-76498500D01*
X146732000Y-76498500D01*
X146732000Y-75863750D01*
X146978000Y-75863750D01*
X146978000Y-76498500D01*
X147575250Y-76498500D01*
X147669500Y-76404250D01*
X147671324Y-76146500D01*
X147664045Y-76072595D01*
X147642488Y-76001530D01*
X147607481Y-75936037D01*
X147560369Y-75878631D01*
X147502963Y-75831519D01*
X147437470Y-75796512D01*
X147366405Y-75774955D01*
X147292500Y-75767676D01*
X147072250Y-75769500D01*
X146978000Y-75863750D01*
X146732000Y-75863750D01*
X146637750Y-75769500D01*
X146417500Y-75767676D01*
X146343595Y-75774955D01*
X146272530Y-75796512D01*
X146207037Y-75831519D01*
X146181209Y-75852716D01*
X146104615Y-75759385D01*
X145974775Y-75652829D01*
X145826642Y-75573650D01*
X145665908Y-75524892D01*
X145498750Y-75508428D01*
X145061250Y-75508428D01*
X144894092Y-75524892D01*
X144733358Y-75573650D01*
X144585225Y-75652829D01*
X144455385Y-75759385D01*
X144373223Y-75859500D01*
X144262230Y-75859500D01*
X143254400Y-74851670D01*
X143254400Y-74792361D01*
X143214626Y-74592402D01*
X143136605Y-74404044D01*
X143023337Y-74234526D01*
X142879174Y-74090363D01*
X142709656Y-73977095D01*
X142521298Y-73899074D01*
X142321339Y-73859300D01*
X142117461Y-73859300D01*
X141917502Y-73899074D01*
X141729144Y-73977095D01*
X141559626Y-74090363D01*
X141415463Y-74234526D01*
X141302195Y-74404044D01*
X141224174Y-74592402D01*
X141184400Y-74792361D01*
X140072598Y-74792361D01*
X140161374Y-74733043D01*
X140305537Y-74588880D01*
X140418805Y-74419362D01*
X140496826Y-74231004D01*
X140536600Y-74031045D01*
X140536600Y-73827167D01*
X140496826Y-73627208D01*
X140418805Y-73438850D01*
X140305537Y-73269332D01*
X140161374Y-73125169D01*
X139991856Y-73011901D01*
X139803498Y-72933880D01*
X139606572Y-72894709D01*
X139610350Y-72887642D01*
X139659108Y-72726908D01*
X139675572Y-72559750D01*
X139675572Y-72047250D01*
X139659108Y-71880092D01*
X139610350Y-71719358D01*
X139531171Y-71571225D01*
X139424615Y-71441385D01*
X139294775Y-71334829D01*
X139146642Y-71255650D01*
X138985908Y-71206892D01*
X138818750Y-71190428D01*
X138381250Y-71190428D01*
X138214092Y-71206892D01*
X138053358Y-71255650D01*
X137905225Y-71334829D01*
X137775385Y-71441385D01*
X137698791Y-71534716D01*
X137672963Y-71513519D01*
X137607470Y-71478512D01*
X137536405Y-71456955D01*
X137462500Y-71449676D01*
X137242250Y-71451500D01*
X137148000Y-71545750D01*
X136902000Y-71545750D01*
X136807750Y-71451500D01*
X136587500Y-71449676D01*
X136513595Y-71456955D01*
X136442530Y-71478512D01*
X136377037Y-71513519D01*
X136319631Y-71560631D01*
X136272519Y-71618037D01*
X136237512Y-71683530D01*
X136215955Y-71754595D01*
X136208676Y-71828500D01*
X134923988Y-71828500D01*
X134939000Y-71753033D01*
X134939000Y-71430967D01*
X134876168Y-71115088D01*
X134752918Y-70817537D01*
X134573987Y-70549748D01*
X134346252Y-70322013D01*
X134293893Y-70287028D01*
X135719837Y-70372187D01*
X137636469Y-70640689D01*
X139525709Y-71060618D01*
X141375613Y-71629320D01*
X143174486Y-72343200D01*
X144910955Y-73197744D01*
X146574041Y-74187549D01*
X148153229Y-75306358D01*
X149638536Y-76547097D01*
X151020570Y-77901921D01*
X152290595Y-79362265D01*
X153440580Y-80918897D01*
X154463255Y-82561975D01*
X154741622Y-83100338D01*
X154714234Y-83077861D01*
X154648741Y-83042854D01*
X154577676Y-83021297D01*
X154503771Y-83014018D01*
X154246021Y-83015842D01*
X154151771Y-83110092D01*
X154151771Y-83707342D01*
X154786521Y-83707342D01*
X154880771Y-83613092D01*
X154882595Y-83392842D01*
X154880178Y-83368306D01*
X155352155Y-84281110D01*
X156101659Y-86065434D01*
X156707029Y-87903666D01*
X157164438Y-89784183D01*
X157470993Y-91695097D01*
X157624757Y-93624326D01*
X157624757Y-95559674D01*
X157470993Y-97488903D01*
X157414852Y-97838860D01*
X157403496Y-97811445D01*
X157224565Y-97543656D01*
X156996830Y-97315921D01*
X156729041Y-97136990D01*
X156431490Y-97013740D01*
X156115611Y-96950908D01*
X155793545Y-96950908D01*
X155548566Y-96999637D01*
X155850605Y-96697599D01*
X155879602Y-96673802D01*
X155974575Y-96558077D01*
X156045147Y-96426048D01*
X156088604Y-96282787D01*
X156098507Y-96182243D01*
X156181000Y-96099750D01*
X156181000Y-95502500D01*
X156427000Y-95502500D01*
X156427000Y-96099750D01*
X156521250Y-96194000D01*
X156779000Y-96195824D01*
X156852905Y-96188545D01*
X156923970Y-96166988D01*
X156989463Y-96131981D01*
X157046869Y-96084869D01*
X157093981Y-96027463D01*
X157128988Y-95961970D01*
X157150545Y-95890905D01*
X157157824Y-95817000D01*
X157156000Y-95596750D01*
X157061750Y-95502500D01*
X156427000Y-95502500D01*
X156181000Y-95502500D01*
X156161000Y-95502500D01*
X156161000Y-95256500D01*
X156181000Y-95256500D01*
X156181000Y-95236500D01*
X156427000Y-95236500D01*
X156427000Y-95256500D01*
X157061750Y-95256500D01*
X157156000Y-95162250D01*
X157157824Y-94942000D01*
X157150545Y-94868095D01*
X157128988Y-94797030D01*
X157093981Y-94731537D01*
X157072784Y-94705709D01*
X157166115Y-94629115D01*
X157272671Y-94499275D01*
X157351850Y-94351142D01*
X157400608Y-94190408D01*
X157417072Y-94023250D01*
X157417072Y-93585750D01*
X157400608Y-93418592D01*
X157351850Y-93257858D01*
X157272671Y-93109725D01*
X157166115Y-92979885D01*
X157076400Y-92906258D01*
X157076400Y-92864031D01*
X157080077Y-92826698D01*
X157065403Y-92677712D01*
X157021946Y-92534451D01*
X156951374Y-92402422D01*
X156903266Y-92343802D01*
X156856401Y-92286697D01*
X156827403Y-92262899D01*
X150729845Y-86165342D01*
X153113628Y-86165342D01*
X153166656Y-86229957D01*
X153296496Y-86336513D01*
X153444629Y-86415692D01*
X153605363Y-86464450D01*
X153772521Y-86480914D01*
X154285021Y-86480914D01*
X154452179Y-86464450D01*
X154612913Y-86415692D01*
X154761046Y-86336513D01*
X154890886Y-86229957D01*
X154997442Y-86100117D01*
X155076621Y-85951984D01*
X155125379Y-85791250D01*
X155141843Y-85624092D01*
X155141843Y-85186592D01*
X155125379Y-85019434D01*
X155076621Y-84858700D01*
X154997442Y-84710567D01*
X154890886Y-84580727D01*
X154797555Y-84504133D01*
X154818752Y-84478305D01*
X154853759Y-84412812D01*
X154875316Y-84341747D01*
X154882595Y-84267842D01*
X154880771Y-84047592D01*
X154786521Y-83953342D01*
X154151771Y-83953342D01*
X154151771Y-83973342D01*
X153905771Y-83973342D01*
X153905771Y-83953342D01*
X153271021Y-83953342D01*
X153176771Y-84047592D01*
X153174947Y-84267842D01*
X153182226Y-84341747D01*
X153203783Y-84412812D01*
X153238790Y-84478305D01*
X153259987Y-84504133D01*
X153166656Y-84580727D01*
X153113628Y-84645342D01*
X150758443Y-84645342D01*
X149505943Y-83392842D01*
X153174947Y-83392842D01*
X153176771Y-83613092D01*
X153271021Y-83707342D01*
X153905771Y-83707342D01*
X153905771Y-83110092D01*
X153811521Y-83015842D01*
X153553771Y-83014018D01*
X153479866Y-83021297D01*
X153408801Y-83042854D01*
X153343308Y-83077861D01*
X153285902Y-83124973D01*
X153238790Y-83182379D01*
X153203783Y-83247872D01*
X153182226Y-83318937D01*
X153174947Y-83392842D01*
X149505943Y-83392842D01*
X146136499Y-80023399D01*
X146136499Y-79961261D01*
X146096725Y-79761302D01*
X146018704Y-79572944D01*
X145905436Y-79403426D01*
X145761273Y-79259263D01*
X145591755Y-79145995D01*
X145403397Y-79067974D01*
X145203438Y-79028200D01*
X144999560Y-79028200D01*
X144799601Y-79067974D01*
X144611243Y-79145995D01*
X144441725Y-79259263D01*
X144297562Y-79403426D01*
X144184294Y-79572944D01*
X144106273Y-79761302D01*
X144066499Y-79961261D01*
X144066499Y-80165139D01*
X144106273Y-80365098D01*
X144184294Y-80553456D01*
X144297562Y-80722974D01*
X144311290Y-80736702D01*
X144196765Y-80851226D01*
X144083497Y-81020744D01*
X144005476Y-81209102D01*
X143965702Y-81409061D01*
X143965702Y-81612939D01*
X144005476Y-81812898D01*
X144083497Y-82001256D01*
X144171829Y-82133454D01*
X144171357Y-82133926D01*
X144058089Y-82303444D01*
X143980068Y-82491802D01*
X143940294Y-82691761D01*
X143940294Y-82895639D01*
X143980068Y-83095598D01*
X144058089Y-83283956D01*
X144171357Y-83453474D01*
X144315520Y-83597637D01*
X144485038Y-83710905D01*
X144673396Y-83788926D01*
X144873355Y-83828700D01*
X144935493Y-83828700D01*
X154579602Y-93472810D01*
X154579601Y-95818999D01*
X154118575Y-96280026D01*
X154089577Y-96303824D01*
X154065779Y-96332822D01*
X154065778Y-96332823D01*
X153994603Y-96419549D01*
X153924031Y-96551579D01*
X153908917Y-96601405D01*
X153884833Y-96680804D01*
X153880575Y-96694840D01*
X153865901Y-96843825D01*
X153869578Y-96881157D01*
X153869577Y-99184586D01*
X153865901Y-99221909D01*
X153869577Y-99259231D01*
X153869577Y-99259241D01*
X153880574Y-99370894D01*
X153893802Y-99414501D01*
X153893801Y-102556397D01*
X153688270Y-102761928D01*
X153431250Y-102761928D01*
X153264092Y-102778392D01*
X153103358Y-102827150D01*
X152955225Y-102906329D01*
X152825385Y-103012885D01*
X152718829Y-103142725D01*
X152639650Y-103290858D01*
X152590892Y-103451592D01*
X152574428Y-103618750D01*
X152574428Y-104056250D01*
X152590892Y-104223408D01*
X152639650Y-104384142D01*
X152718829Y-104532275D01*
X152825385Y-104662115D01*
X152918716Y-104738709D01*
X152897519Y-104764537D01*
X152862512Y-104830030D01*
X152840955Y-104901095D01*
X152833676Y-104975000D01*
X152835500Y-105195250D01*
X152929750Y-105289500D01*
X153564500Y-105289500D01*
X153564500Y-105269500D01*
X153810500Y-105269500D01*
X153810500Y-105289500D01*
X154445250Y-105289500D01*
X154539500Y-105195250D01*
X154541324Y-104975000D01*
X154534045Y-104901095D01*
X154512488Y-104830030D01*
X154477481Y-104764537D01*
X154456284Y-104738709D01*
X154549615Y-104662115D01*
X154656171Y-104532275D01*
X154735350Y-104384142D01*
X154784108Y-104223408D01*
X154800572Y-104056250D01*
X154800572Y-103799230D01*
X155164805Y-103434997D01*
X155193802Y-103411200D01*
X155220133Y-103379116D01*
X155288775Y-103295476D01*
X155359347Y-103163446D01*
X155359347Y-103163445D01*
X155402804Y-103020185D01*
X155413801Y-102908532D01*
X155413801Y-102908522D01*
X155417477Y-102871199D01*
X155413801Y-102833877D01*
X155413801Y-100131622D01*
X155477666Y-100158076D01*
X155793545Y-100220908D01*
X156115611Y-100220908D01*
X156431490Y-100158076D01*
X156729041Y-100034826D01*
X156996830Y-99855895D01*
X157071719Y-99781006D01*
X156707029Y-101280334D01*
X156101659Y-103118566D01*
X155352155Y-104902890D01*
X154463255Y-106622025D01*
X153440580Y-108265103D01*
X152290595Y-109821735D01*
X151020570Y-111282079D01*
X149638536Y-112636903D01*
X148153229Y-113877642D01*
X146574041Y-114996451D01*
X144910955Y-115986256D01*
X143174486Y-116840800D01*
X141375613Y-117554680D01*
X139525709Y-118123382D01*
X137636469Y-118543311D01*
X135719837Y-118811813D01*
X134293893Y-118896972D01*
X134346252Y-118861987D01*
X134573987Y-118634252D01*
X134752918Y-118366463D01*
X134876168Y-118068912D01*
X134939000Y-117753033D01*
X134939000Y-117430967D01*
X134876168Y-117115088D01*
X134752918Y-116817537D01*
X134573987Y-116549748D01*
X134346252Y-116322013D01*
X134078463Y-116143082D01*
X133780912Y-116019832D01*
X133465033Y-115957000D01*
X133142967Y-115957000D01*
X132827088Y-116019832D01*
X132529537Y-116143082D01*
X132261748Y-116322013D01*
X132034013Y-116549748D01*
X131855082Y-116817537D01*
X131731832Y-117115088D01*
X131669000Y-117430967D01*
X131669000Y-117753033D01*
X131731832Y-118068912D01*
X131855082Y-118366463D01*
X132034013Y-118634252D01*
X132261748Y-118861987D01*
X132315508Y-118897908D01*
X131852968Y-118888710D01*
X129927177Y-118696619D01*
X128022736Y-118352131D01*
X126151684Y-117857425D01*
X124325852Y-117215626D01*
X122556783Y-116430794D01*
X121169684Y-115678256D01*
X143310473Y-115678256D01*
X143310473Y-115811546D01*
X143615184Y-116118836D01*
X143672589Y-116165948D01*
X143738083Y-116200955D01*
X143809147Y-116222512D01*
X143883053Y-116229791D01*
X143956958Y-116222512D01*
X144028022Y-116200955D01*
X144093516Y-116165948D01*
X144150922Y-116118836D01*
X144544021Y-115723158D01*
X144544021Y-115589868D01*
X143971441Y-115017288D01*
X143310473Y-115678256D01*
X121169684Y-115678256D01*
X120855660Y-115507890D01*
X119969735Y-114931728D01*
X142584990Y-114931728D01*
X142592269Y-115005634D01*
X142613826Y-115076698D01*
X142648833Y-115142192D01*
X142695945Y-115199597D01*
X143003235Y-115504308D01*
X143136525Y-115504308D01*
X143797493Y-114843340D01*
X144145389Y-114843340D01*
X144717969Y-115415920D01*
X144851259Y-115415920D01*
X145246937Y-115022821D01*
X145294049Y-114965415D01*
X145329056Y-114899921D01*
X145350613Y-114828857D01*
X145357892Y-114754952D01*
X145350613Y-114681046D01*
X145329056Y-114609982D01*
X145294049Y-114544488D01*
X145246937Y-114487083D01*
X144939647Y-114182372D01*
X144806357Y-114182372D01*
X144145389Y-114843340D01*
X143797493Y-114843340D01*
X143224913Y-114270760D01*
X143091623Y-114270760D01*
X142695945Y-114663859D01*
X142648833Y-114721265D01*
X142613826Y-114786759D01*
X142592269Y-114857823D01*
X142584990Y-114931728D01*
X119969735Y-114931728D01*
X119233241Y-114452749D01*
X118597852Y-113963522D01*
X143398861Y-113963522D01*
X143398861Y-114096812D01*
X143971441Y-114669392D01*
X144632409Y-114008424D01*
X144632409Y-113875134D01*
X144327698Y-113567844D01*
X144270293Y-113520732D01*
X144204799Y-113485725D01*
X144133735Y-113464168D01*
X144059829Y-113456889D01*
X143985924Y-113464168D01*
X143914860Y-113485725D01*
X143849366Y-113520732D01*
X143791960Y-113567844D01*
X143398861Y-113963522D01*
X118597852Y-113963522D01*
X117699781Y-113272041D01*
X116599667Y-112276200D01*
X119978776Y-112276200D01*
X119986055Y-112350105D01*
X120007612Y-112421170D01*
X120042619Y-112486663D01*
X120089731Y-112544069D01*
X120147137Y-112591181D01*
X120212630Y-112626188D01*
X120283695Y-112647745D01*
X120357600Y-112655024D01*
X120615350Y-112653200D01*
X120709600Y-112558950D01*
X120709600Y-111961700D01*
X120955600Y-111961700D01*
X120955600Y-112558950D01*
X121049850Y-112653200D01*
X121307600Y-112655024D01*
X121381505Y-112647745D01*
X121452570Y-112626188D01*
X121518063Y-112591181D01*
X121575469Y-112544069D01*
X121622581Y-112486663D01*
X121657588Y-112421170D01*
X121679145Y-112350105D01*
X121686424Y-112276200D01*
X121684600Y-112055950D01*
X121610239Y-111981589D01*
X127237000Y-111981589D01*
X127237000Y-112254411D01*
X127290225Y-112521989D01*
X127394629Y-112774043D01*
X127546201Y-113000886D01*
X127739114Y-113193799D01*
X127965957Y-113345371D01*
X128218011Y-113449775D01*
X128485589Y-113503000D01*
X128758411Y-113503000D01*
X129025989Y-113449775D01*
X129278043Y-113345371D01*
X129504886Y-113193799D01*
X129697799Y-113000886D01*
X129849371Y-112774043D01*
X129953775Y-112521989D01*
X130007000Y-112254411D01*
X130007000Y-111981589D01*
X129953775Y-111714011D01*
X129849371Y-111461957D01*
X129697799Y-111235114D01*
X129504886Y-111042201D01*
X129278043Y-110890629D01*
X129025989Y-110786225D01*
X128758411Y-110733000D01*
X128485589Y-110733000D01*
X128218011Y-110786225D01*
X127965957Y-110890629D01*
X127739114Y-111042201D01*
X127546201Y-111235114D01*
X127394629Y-111461957D01*
X127290225Y-111714011D01*
X127237000Y-111981589D01*
X121610239Y-111981589D01*
X121590350Y-111961700D01*
X120955600Y-111961700D01*
X120709600Y-111961700D01*
X120074850Y-111961700D01*
X119980600Y-112055950D01*
X119978776Y-112276200D01*
X116599667Y-112276200D01*
X116264976Y-111973233D01*
X114937897Y-110564535D01*
X113891619Y-109260161D01*
X114920800Y-109260161D01*
X114920800Y-109464039D01*
X114960574Y-109663998D01*
X115038595Y-109852356D01*
X115151863Y-110021874D01*
X115296026Y-110166037D01*
X115465544Y-110279305D01*
X115653902Y-110357326D01*
X115853861Y-110397100D01*
X116057739Y-110397100D01*
X116257698Y-110357326D01*
X116446056Y-110279305D01*
X116615574Y-110166037D01*
X116659511Y-110122100D01*
X119603398Y-110122100D01*
X119719528Y-110238230D01*
X119719528Y-110482450D01*
X119735992Y-110649608D01*
X119784750Y-110810342D01*
X119863929Y-110958475D01*
X119970485Y-111088315D01*
X120063816Y-111164909D01*
X120042619Y-111190737D01*
X120007612Y-111256230D01*
X119986055Y-111327295D01*
X119978776Y-111401200D01*
X119980600Y-111621450D01*
X120074850Y-111715700D01*
X120709600Y-111715700D01*
X120709600Y-111695700D01*
X120955600Y-111695700D01*
X120955600Y-111715700D01*
X121590350Y-111715700D01*
X121684600Y-111621450D01*
X121686424Y-111401200D01*
X121679145Y-111327295D01*
X121657588Y-111256230D01*
X121622581Y-111190737D01*
X121601384Y-111164909D01*
X121694715Y-111088315D01*
X121801271Y-110958475D01*
X121880450Y-110810342D01*
X121929208Y-110649608D01*
X121945672Y-110482450D01*
X121945672Y-110044950D01*
X121929208Y-109877792D01*
X121880450Y-109717058D01*
X121801271Y-109568925D01*
X121694715Y-109439085D01*
X121564875Y-109332529D01*
X121416742Y-109253350D01*
X121256008Y-109204592D01*
X121088850Y-109188128D01*
X120819030Y-109188128D01*
X120482003Y-108851102D01*
X120458201Y-108822099D01*
X120342476Y-108727126D01*
X120210447Y-108656554D01*
X120067186Y-108613097D01*
X119955533Y-108602100D01*
X119955522Y-108602100D01*
X119918200Y-108598424D01*
X119880878Y-108602100D01*
X116659511Y-108602100D01*
X116615574Y-108558163D01*
X116446056Y-108444895D01*
X116257698Y-108366874D01*
X116057739Y-108327100D01*
X115853861Y-108327100D01*
X115653902Y-108366874D01*
X115465544Y-108444895D01*
X115296026Y-108558163D01*
X115151863Y-108702326D01*
X115038595Y-108871844D01*
X114960574Y-109060202D01*
X114920800Y-109260161D01*
X113891619Y-109260161D01*
X113726935Y-109054853D01*
X112639745Y-107453733D01*
X111855913Y-106075074D01*
X111893766Y-106106139D01*
X111959259Y-106141146D01*
X112030324Y-106162703D01*
X112104229Y-106169982D01*
X112361979Y-106168158D01*
X112456229Y-106073908D01*
X112456229Y-105476658D01*
X112702229Y-105476658D01*
X112702229Y-106073908D01*
X112796479Y-106168158D01*
X113054229Y-106169982D01*
X113128134Y-106162703D01*
X113199199Y-106141146D01*
X113264692Y-106106139D01*
X113322098Y-106059027D01*
X113369210Y-106001621D01*
X113404217Y-105936128D01*
X113425774Y-105865063D01*
X113433053Y-105791158D01*
X113431229Y-105570908D01*
X113336979Y-105476658D01*
X112702229Y-105476658D01*
X112456229Y-105476658D01*
X111821479Y-105476658D01*
X111727229Y-105570908D01*
X111725405Y-105791158D01*
X111731882Y-105856919D01*
X111683201Y-105771296D01*
X110863351Y-104018180D01*
X110185378Y-102205469D01*
X109653568Y-100344624D01*
X109540939Y-99785664D01*
X109611170Y-99855895D01*
X109878959Y-100034826D01*
X110176510Y-100158076D01*
X110492389Y-100220908D01*
X110814455Y-100220908D01*
X111130334Y-100158076D01*
X111427885Y-100034826D01*
X111695674Y-99855895D01*
X111923409Y-99628160D01*
X112102340Y-99360371D01*
X112225590Y-99062820D01*
X112288422Y-98746941D01*
X112288422Y-98424875D01*
X112225590Y-98108996D01*
X112102340Y-97811445D01*
X111923409Y-97543656D01*
X111695674Y-97315921D01*
X111427885Y-97136990D01*
X111130334Y-97013740D01*
X110814455Y-96950908D01*
X110492389Y-96950908D01*
X110176510Y-97013740D01*
X109878959Y-97136990D01*
X109611170Y-97315921D01*
X109383435Y-97543656D01*
X109204504Y-97811445D01*
X109197173Y-97829144D01*
X109040943Y-96525817D01*
X108986630Y-95160750D01*
X109190928Y-95160750D01*
X109190928Y-95598250D01*
X109207392Y-95765408D01*
X109256150Y-95926142D01*
X109335329Y-96074275D01*
X109441885Y-96204115D01*
X109571725Y-96310671D01*
X109719858Y-96389850D01*
X109880592Y-96438608D01*
X110047750Y-96455072D01*
X110560250Y-96455072D01*
X110727408Y-96438608D01*
X110888142Y-96389850D01*
X111036275Y-96310671D01*
X111166115Y-96204115D01*
X111272671Y-96074275D01*
X111351850Y-95926142D01*
X111400608Y-95765408D01*
X111417072Y-95598250D01*
X111417072Y-95516616D01*
X111431795Y-95552160D01*
X111545063Y-95721678D01*
X111689226Y-95865841D01*
X111858744Y-95979109D01*
X112047102Y-96057130D01*
X112247061Y-96096904D01*
X112450939Y-96096904D01*
X112554200Y-96076364D01*
X112554201Y-101380200D01*
X112475661Y-101380200D01*
X112275702Y-101419974D01*
X112087344Y-101497995D01*
X111917826Y-101611263D01*
X111773663Y-101755426D01*
X111660395Y-101924944D01*
X111582374Y-102113302D01*
X111542600Y-102313261D01*
X111542600Y-102517139D01*
X111582374Y-102717098D01*
X111660395Y-102905456D01*
X111703745Y-102970334D01*
X111610558Y-103083883D01*
X111531379Y-103232016D01*
X111482621Y-103392750D01*
X111466157Y-103559908D01*
X111466157Y-103997408D01*
X111482621Y-104164566D01*
X111531379Y-104325300D01*
X111610558Y-104473433D01*
X111717114Y-104603273D01*
X111810445Y-104679867D01*
X111789248Y-104705695D01*
X111754241Y-104771188D01*
X111732684Y-104842253D01*
X111725405Y-104916158D01*
X111727229Y-105136408D01*
X111821479Y-105230658D01*
X112456229Y-105230658D01*
X112456229Y-105210658D01*
X112702229Y-105210658D01*
X112702229Y-105230658D01*
X113336979Y-105230658D01*
X113431229Y-105136408D01*
X113433053Y-104916158D01*
X113425774Y-104842253D01*
X113404217Y-104771188D01*
X113369210Y-104705695D01*
X113348013Y-104679867D01*
X113441344Y-104603273D01*
X113547900Y-104473433D01*
X113627079Y-104325300D01*
X113675837Y-104164566D01*
X113692301Y-103997408D01*
X113692301Y-103817302D01*
X114438200Y-104563202D01*
X114438200Y-104625339D01*
X114477974Y-104825298D01*
X114555995Y-105013656D01*
X114669263Y-105183174D01*
X114813426Y-105327337D01*
X114982944Y-105440605D01*
X115171302Y-105518626D01*
X115371261Y-105558400D01*
X115575139Y-105558400D01*
X115775098Y-105518626D01*
X115963456Y-105440605D01*
X116132974Y-105327337D01*
X116277137Y-105183174D01*
X116390405Y-105013656D01*
X116468426Y-104825298D01*
X116508200Y-104625339D01*
X116508200Y-104421461D01*
X116468426Y-104221502D01*
X116390405Y-104033144D01*
X116277137Y-103863626D01*
X116132974Y-103719463D01*
X115963456Y-103606195D01*
X115775098Y-103528174D01*
X115575139Y-103488400D01*
X115513002Y-103488400D01*
X114074200Y-102049599D01*
X114074200Y-99886511D01*
X114180702Y-99930626D01*
X114380661Y-99970400D01*
X114442799Y-99970400D01*
X116261344Y-101788945D01*
X116119063Y-101931226D01*
X116005795Y-102100744D01*
X115927774Y-102289102D01*
X115888000Y-102489061D01*
X115888000Y-102692939D01*
X115927774Y-102892898D01*
X116005795Y-103081256D01*
X116119063Y-103250774D01*
X116263226Y-103394937D01*
X116432744Y-103508205D01*
X116621102Y-103586226D01*
X116821061Y-103626000D01*
X117024939Y-103626000D01*
X117072866Y-103616467D01*
X121132400Y-107676002D01*
X121156199Y-107705001D01*
X121271924Y-107799974D01*
X121403953Y-107870546D01*
X121547214Y-107914003D01*
X121658867Y-107925000D01*
X121658877Y-107925000D01*
X121696200Y-107928676D01*
X121733523Y-107925000D01*
X124515089Y-107925000D01*
X124487000Y-108066212D01*
X124487000Y-108289788D01*
X124530617Y-108509067D01*
X124616176Y-108715624D01*
X124740388Y-108901520D01*
X124898480Y-109059612D01*
X125084376Y-109183824D01*
X125290933Y-109269383D01*
X125510212Y-109313000D01*
X125733788Y-109313000D01*
X125953067Y-109269383D01*
X126159624Y-109183824D01*
X126345520Y-109059612D01*
X126503612Y-108901520D01*
X126627824Y-108715624D01*
X126713383Y-108509067D01*
X126757000Y-108289788D01*
X126757000Y-108066212D01*
X126728911Y-107925000D01*
X127914517Y-107925000D01*
X127739114Y-108042201D01*
X127546201Y-108235114D01*
X127394629Y-108461957D01*
X127290225Y-108714011D01*
X127237000Y-108981589D01*
X127237000Y-109254411D01*
X127290225Y-109521989D01*
X127394629Y-109774043D01*
X127546201Y-110000886D01*
X127739114Y-110193799D01*
X127965957Y-110345371D01*
X128218011Y-110449775D01*
X128485589Y-110503000D01*
X128758411Y-110503000D01*
X129025989Y-110449775D01*
X129278043Y-110345371D01*
X129447268Y-110232298D01*
X129494026Y-110319776D01*
X129510624Y-110340000D01*
X129589000Y-110435501D01*
X129617998Y-110459299D01*
X130263701Y-111105002D01*
X130287499Y-111134001D01*
X130403224Y-111228974D01*
X130511597Y-111286902D01*
X130394629Y-111461957D01*
X130290225Y-111714011D01*
X130237000Y-111981589D01*
X130237000Y-112254411D01*
X130290225Y-112521989D01*
X130394629Y-112774043D01*
X130546201Y-113000886D01*
X130739114Y-113193799D01*
X130965957Y-113345371D01*
X131218011Y-113449775D01*
X131485589Y-113503000D01*
X131758411Y-113503000D01*
X132025989Y-113449775D01*
X132278043Y-113345371D01*
X132504886Y-113193799D01*
X132697799Y-113000886D01*
X132849371Y-112774043D01*
X132953775Y-112521989D01*
X132993297Y-112323300D01*
X133299005Y-112629008D01*
X133322799Y-112658001D01*
X133351792Y-112681795D01*
X133351796Y-112681799D01*
X133358802Y-112687548D01*
X133394629Y-112774043D01*
X133546201Y-113000886D01*
X133739114Y-113193799D01*
X133965957Y-113345371D01*
X134218011Y-113449775D01*
X134485589Y-113503000D01*
X134758411Y-113503000D01*
X135025989Y-113449775D01*
X135278043Y-113345371D01*
X135504886Y-113193799D01*
X135697799Y-113000886D01*
X135786590Y-112868000D01*
X136493176Y-112868000D01*
X136500455Y-112941905D01*
X136522012Y-113012970D01*
X136557019Y-113078463D01*
X136604131Y-113135869D01*
X136661537Y-113182981D01*
X136727030Y-113217988D01*
X136798095Y-113239545D01*
X136872000Y-113246824D01*
X137404750Y-113245000D01*
X137499000Y-113150750D01*
X137499000Y-112241000D01*
X136589250Y-112241000D01*
X136495000Y-112335250D01*
X136493176Y-112868000D01*
X135786590Y-112868000D01*
X135849371Y-112774043D01*
X135953775Y-112521989D01*
X136007000Y-112254411D01*
X136007000Y-111981589D01*
X135953775Y-111714011D01*
X135849371Y-111461957D01*
X135697799Y-111235114D01*
X135562685Y-111100000D01*
X136604291Y-111100000D01*
X136604131Y-111100131D01*
X136557019Y-111157537D01*
X136522012Y-111223030D01*
X136500455Y-111294095D01*
X136493176Y-111368000D01*
X136495000Y-111900750D01*
X136589250Y-111995000D01*
X137499000Y-111995000D01*
X137499000Y-111975000D01*
X137745000Y-111975000D01*
X137745000Y-111995000D01*
X137765000Y-111995000D01*
X137765000Y-112241000D01*
X137745000Y-112241000D01*
X137745000Y-113150750D01*
X137839250Y-113245000D01*
X138372000Y-113246824D01*
X138445905Y-113239545D01*
X138516970Y-113217988D01*
X138582463Y-113182981D01*
X138639869Y-113135869D01*
X138686981Y-113078463D01*
X138721988Y-113012970D01*
X138743545Y-112941905D01*
X138750824Y-112868000D01*
X138749000Y-112335250D01*
X138654752Y-112241002D01*
X138749000Y-112241002D01*
X138749000Y-112135402D01*
X139103921Y-112490323D01*
X139103927Y-112490328D01*
X139130458Y-112516859D01*
X139161650Y-112537700D01*
X139190648Y-112561498D01*
X139223747Y-112579190D01*
X139254936Y-112600029D01*
X139289579Y-112614379D01*
X139322677Y-112632070D01*
X139358592Y-112642965D01*
X139393247Y-112657319D01*
X139430036Y-112664636D01*
X139465938Y-112675527D01*
X139503279Y-112679205D01*
X139540078Y-112686524D01*
X139577596Y-112686524D01*
X139614924Y-112690200D01*
X139652257Y-112686523D01*
X139689784Y-112686523D01*
X139726579Y-112679204D01*
X139763910Y-112675527D01*
X139795623Y-112665907D01*
X140249887Y-113120171D01*
X140346578Y-113199523D01*
X140456892Y-113258488D01*
X140576590Y-113294798D01*
X140701072Y-113307058D01*
X140825554Y-113294798D01*
X140945252Y-113258488D01*
X141055566Y-113199523D01*
X141152257Y-113120171D01*
X142248272Y-112024156D01*
X142327624Y-111927465D01*
X142386589Y-111817151D01*
X142422899Y-111697453D01*
X142435159Y-111572971D01*
X142422899Y-111448489D01*
X142386589Y-111328791D01*
X142327624Y-111218477D01*
X142248272Y-111121786D01*
X141817047Y-110690561D01*
X142185416Y-110056757D01*
X148931972Y-110056757D01*
X148931972Y-110190047D01*
X149236683Y-110497337D01*
X149294088Y-110544449D01*
X149359582Y-110579456D01*
X149430646Y-110601013D01*
X149504552Y-110608292D01*
X149578457Y-110601013D01*
X149649521Y-110579456D01*
X149715015Y-110544449D01*
X149772421Y-110497337D01*
X150165520Y-110101659D01*
X150165520Y-109968369D01*
X149592940Y-109395789D01*
X148931972Y-110056757D01*
X142185416Y-110056757D01*
X142192318Y-110044883D01*
X142926972Y-109310229D01*
X148206489Y-109310229D01*
X148213768Y-109384135D01*
X148235325Y-109455199D01*
X148270332Y-109520693D01*
X148317444Y-109578098D01*
X148624734Y-109882809D01*
X148758024Y-109882809D01*
X149418992Y-109221841D01*
X149766888Y-109221841D01*
X150339468Y-109794421D01*
X150472758Y-109794421D01*
X150868436Y-109401322D01*
X150915548Y-109343916D01*
X150950555Y-109278422D01*
X150972112Y-109207358D01*
X150979391Y-109133453D01*
X150972112Y-109059547D01*
X150950555Y-108988483D01*
X150915548Y-108922989D01*
X150868436Y-108865584D01*
X150561146Y-108560873D01*
X150427856Y-108560873D01*
X149766888Y-109221841D01*
X149418992Y-109221841D01*
X148846412Y-108649261D01*
X148713122Y-108649261D01*
X148317444Y-109042360D01*
X148270332Y-109099766D01*
X148235325Y-109165260D01*
X148213768Y-109236324D01*
X148206489Y-109310229D01*
X142926972Y-109310229D01*
X143895178Y-108342023D01*
X149020360Y-108342023D01*
X149020360Y-108475313D01*
X149592940Y-109047893D01*
X150253908Y-108386925D01*
X150253908Y-108253635D01*
X149949197Y-107946345D01*
X149891792Y-107899233D01*
X149826298Y-107864226D01*
X149755234Y-107842669D01*
X149681328Y-107835390D01*
X149607423Y-107842669D01*
X149536359Y-107864226D01*
X149470865Y-107899233D01*
X149413459Y-107946345D01*
X149020360Y-108342023D01*
X143895178Y-108342023D01*
X144642402Y-107594800D01*
X145585678Y-107594800D01*
X145623000Y-107598476D01*
X145660322Y-107594800D01*
X145660333Y-107594800D01*
X145771986Y-107583803D01*
X145915247Y-107540346D01*
X145919437Y-107538106D01*
X145968077Y-107578024D01*
X146078391Y-107636989D01*
X146198089Y-107673299D01*
X146322571Y-107685559D01*
X146447053Y-107673299D01*
X146566751Y-107636989D01*
X146677065Y-107578024D01*
X146773756Y-107498672D01*
X147869771Y-106402657D01*
X147949123Y-106305966D01*
X148008088Y-106195652D01*
X148044398Y-106075954D01*
X148056658Y-105951472D01*
X148046665Y-105850000D01*
X152833676Y-105850000D01*
X152840955Y-105923905D01*
X152862512Y-105994970D01*
X152897519Y-106060463D01*
X152944631Y-106117869D01*
X153002037Y-106164981D01*
X153067530Y-106199988D01*
X153138595Y-106221545D01*
X153212500Y-106228824D01*
X153470250Y-106227000D01*
X153564500Y-106132750D01*
X153564500Y-105535500D01*
X153810500Y-105535500D01*
X153810500Y-106132750D01*
X153904750Y-106227000D01*
X154162500Y-106228824D01*
X154236405Y-106221545D01*
X154307470Y-106199988D01*
X154372963Y-106164981D01*
X154430369Y-106117869D01*
X154477481Y-106060463D01*
X154512488Y-105994970D01*
X154534045Y-105923905D01*
X154541324Y-105850000D01*
X154539500Y-105629750D01*
X154445250Y-105535500D01*
X153810500Y-105535500D01*
X153564500Y-105535500D01*
X152929750Y-105535500D01*
X152835500Y-105629750D01*
X152833676Y-105850000D01*
X148046665Y-105850000D01*
X148044398Y-105826990D01*
X148008088Y-105707292D01*
X147949123Y-105596978D01*
X147869771Y-105500287D01*
X146950532Y-104581048D01*
X146853841Y-104501696D01*
X146743527Y-104442731D01*
X146623829Y-104406421D01*
X146499347Y-104394161D01*
X146374865Y-104406421D01*
X146255167Y-104442731D01*
X146144853Y-104501696D01*
X146048162Y-104581048D01*
X144952147Y-105677063D01*
X144872795Y-105773754D01*
X144813830Y-105884068D01*
X144777520Y-106003766D01*
X144770524Y-106074800D01*
X144358733Y-106074800D01*
X144327045Y-106071679D01*
X144178059Y-106086353D01*
X144034798Y-106129809D01*
X143902769Y-106200381D01*
X143816042Y-106271556D01*
X141746867Y-108340732D01*
X141757000Y-108289788D01*
X141757000Y-108066212D01*
X141713383Y-107846933D01*
X141627824Y-107640376D01*
X141503612Y-107454480D01*
X141345520Y-107296388D01*
X141159624Y-107172176D01*
X140953067Y-107086617D01*
X140733788Y-107043000D01*
X140510212Y-107043000D01*
X140290933Y-107086617D01*
X140084376Y-107172176D01*
X139898480Y-107296388D01*
X139740388Y-107454480D01*
X139616176Y-107640376D01*
X139530617Y-107846933D01*
X139487000Y-108066212D01*
X139487000Y-108289788D01*
X139530617Y-108509067D01*
X139616176Y-108715624D01*
X139740388Y-108901520D01*
X139898480Y-109059612D01*
X140084376Y-109183824D01*
X140290933Y-109269383D01*
X140510212Y-109313000D01*
X140733788Y-109313000D01*
X140876059Y-109284701D01*
X140225944Y-110403266D01*
X139696206Y-110933004D01*
X138724350Y-109961149D01*
X138849371Y-109774043D01*
X138953775Y-109521989D01*
X139007000Y-109254411D01*
X139007000Y-108981589D01*
X138953775Y-108714011D01*
X138849371Y-108461957D01*
X138697799Y-108235114D01*
X138504886Y-108042201D01*
X138278043Y-107890629D01*
X138025989Y-107786225D01*
X137758411Y-107733000D01*
X137485589Y-107733000D01*
X137218011Y-107786225D01*
X136965957Y-107890629D01*
X136739114Y-108042201D01*
X136546201Y-108235114D01*
X136394629Y-108461957D01*
X136290225Y-108714011D01*
X136237000Y-108981589D01*
X136237000Y-109254411D01*
X136290225Y-109521989D01*
X136314254Y-109580000D01*
X135929746Y-109580000D01*
X135953775Y-109521989D01*
X136007000Y-109254411D01*
X136007000Y-108981589D01*
X135953775Y-108714011D01*
X135849371Y-108461957D01*
X135697799Y-108235114D01*
X135504886Y-108042201D01*
X135278043Y-107890629D01*
X135025989Y-107786225D01*
X134758411Y-107733000D01*
X134485589Y-107733000D01*
X134340635Y-107761833D01*
X132523801Y-105945000D01*
X144319353Y-105945000D01*
X144353000Y-105948314D01*
X144487283Y-105935088D01*
X144616406Y-105895919D01*
X144735407Y-105832312D01*
X144839711Y-105746711D01*
X144925312Y-105642407D01*
X144988919Y-105523406D01*
X145028088Y-105394283D01*
X145038000Y-105293647D01*
X145038000Y-105293646D01*
X145041314Y-105260000D01*
X145038000Y-105226353D01*
X145038000Y-104277647D01*
X145041314Y-104244000D01*
X145028088Y-104109717D01*
X144988919Y-103980594D01*
X144925312Y-103861593D01*
X144839711Y-103757289D01*
X144735407Y-103671688D01*
X144616406Y-103608081D01*
X144487283Y-103568912D01*
X144386647Y-103559000D01*
X144353000Y-103555686D01*
X144319353Y-103559000D01*
X122796647Y-103559000D01*
X122763000Y-103555686D01*
X122729353Y-103559000D01*
X122628717Y-103568912D01*
X122499594Y-103608081D01*
X122380593Y-103671688D01*
X122276289Y-103757289D01*
X122190688Y-103861593D01*
X122127081Y-103980594D01*
X122087912Y-104109717D01*
X122074686Y-104244000D01*
X122078001Y-104277656D01*
X122078000Y-104875010D01*
X121753832Y-104875010D01*
X120246400Y-103367579D01*
X120246400Y-101726000D01*
X132111676Y-101726000D01*
X132118955Y-101799905D01*
X132140512Y-101870970D01*
X132175519Y-101936463D01*
X132222631Y-101993869D01*
X132280037Y-102040981D01*
X132345530Y-102075988D01*
X132416595Y-102097545D01*
X132490500Y-102104824D01*
X133023250Y-102103000D01*
X133117500Y-102008750D01*
X133117500Y-101349000D01*
X133363500Y-101349000D01*
X133363500Y-102008750D01*
X133457750Y-102103000D01*
X133990500Y-102104824D01*
X134064405Y-102097545D01*
X134135470Y-102075988D01*
X134200963Y-102040981D01*
X134258369Y-101993869D01*
X134305481Y-101936463D01*
X134340488Y-101870970D01*
X134362045Y-101799905D01*
X134369324Y-101726000D01*
X134367500Y-101443250D01*
X134273250Y-101349000D01*
X133363500Y-101349000D01*
X133117500Y-101349000D01*
X132207750Y-101349000D01*
X132113500Y-101443250D01*
X132111676Y-101726000D01*
X120246400Y-101726000D01*
X120246400Y-99988722D01*
X120250076Y-99951399D01*
X120246400Y-99914076D01*
X120246400Y-99914067D01*
X120235403Y-99802414D01*
X120191946Y-99659153D01*
X120121374Y-99527124D01*
X120026401Y-99411399D01*
X119997404Y-99387602D01*
X118210000Y-97600199D01*
X118210000Y-97538061D01*
X118170226Y-97338102D01*
X118092205Y-97149744D01*
X117978937Y-96980226D01*
X117834774Y-96836063D01*
X117665256Y-96722795D01*
X117476898Y-96644774D01*
X117276939Y-96605000D01*
X117073061Y-96605000D01*
X116873102Y-96644774D01*
X116684744Y-96722795D01*
X116515226Y-96836063D01*
X116371063Y-96980226D01*
X116257795Y-97149744D01*
X116179774Y-97338102D01*
X116140000Y-97538061D01*
X116140000Y-97741939D01*
X116179774Y-97941898D01*
X116257795Y-98130256D01*
X116371063Y-98299774D01*
X116515226Y-98443937D01*
X116684744Y-98557205D01*
X116873102Y-98635226D01*
X117073061Y-98675000D01*
X117135199Y-98675000D01*
X118726400Y-100266202D01*
X118726401Y-102483990D01*
X118408001Y-102165590D01*
X118408001Y-102138123D01*
X118411677Y-102100800D01*
X118408001Y-102063477D01*
X118408001Y-102063469D01*
X118397004Y-101951815D01*
X118353547Y-101808554D01*
X118311252Y-101729426D01*
X118282975Y-101676524D01*
X118211800Y-101589798D01*
X118188002Y-101560800D01*
X118159004Y-101537002D01*
X115517600Y-98895599D01*
X115517600Y-98833461D01*
X115477826Y-98633502D01*
X115399805Y-98445144D01*
X115286537Y-98275626D01*
X115142374Y-98131463D01*
X114972856Y-98018195D01*
X114784498Y-97940174D01*
X114584539Y-97900400D01*
X114380661Y-97900400D01*
X114180702Y-97940174D01*
X114074200Y-97984289D01*
X114074200Y-96656353D01*
X114129902Y-96679426D01*
X114329861Y-96719200D01*
X114533739Y-96719200D01*
X114733698Y-96679426D01*
X114922056Y-96601405D01*
X115091574Y-96488137D01*
X115235737Y-96343974D01*
X115349005Y-96174456D01*
X115427026Y-95986098D01*
X115466800Y-95786139D01*
X115466800Y-95582261D01*
X115427026Y-95382302D01*
X115349005Y-95193944D01*
X115235737Y-95024426D01*
X115091574Y-94880263D01*
X114922056Y-94766995D01*
X114791801Y-94713041D01*
X114791801Y-93909800D01*
X115889602Y-92812000D01*
X117156000Y-92812000D01*
X117156000Y-92968950D01*
X117195774Y-93168909D01*
X117273795Y-93357267D01*
X117387063Y-93526785D01*
X117399284Y-93539006D01*
X117387063Y-93551226D01*
X117273795Y-93720744D01*
X117195774Y-93909102D01*
X117156000Y-94109061D01*
X117156000Y-94312939D01*
X117195774Y-94512898D01*
X117273795Y-94701256D01*
X117387063Y-94870774D01*
X117531226Y-95014937D01*
X117700744Y-95128205D01*
X117889102Y-95206226D01*
X118089061Y-95246000D01*
X118292939Y-95246000D01*
X118492898Y-95206226D01*
X118681256Y-95128205D01*
X118850774Y-95014937D01*
X118920111Y-94945600D01*
X119931678Y-94945600D01*
X119969000Y-94949276D01*
X120006322Y-94945600D01*
X120006333Y-94945600D01*
X120117986Y-94934603D01*
X120261247Y-94891146D01*
X120393276Y-94820574D01*
X120509001Y-94725601D01*
X120532803Y-94696598D01*
X120893402Y-94336000D01*
X129348000Y-94336000D01*
X129348000Y-94402949D01*
X129387774Y-94602908D01*
X129465795Y-94791266D01*
X129579063Y-94960784D01*
X129623001Y-95004722D01*
X129623000Y-96180277D01*
X129619324Y-96217600D01*
X129623000Y-96254922D01*
X129623000Y-96254932D01*
X129633997Y-96366585D01*
X129652035Y-96426048D01*
X129677454Y-96509846D01*
X129748026Y-96641876D01*
X129778843Y-96679426D01*
X129842999Y-96757601D01*
X129872003Y-96781404D01*
X130719000Y-97628402D01*
X130719000Y-97690539D01*
X130758774Y-97890498D01*
X130836795Y-98078856D01*
X130950063Y-98248374D01*
X131094226Y-98392537D01*
X131263744Y-98505805D01*
X131452102Y-98583826D01*
X131652061Y-98623600D01*
X131855939Y-98623600D01*
X132055898Y-98583826D01*
X132244256Y-98505805D01*
X132413774Y-98392537D01*
X132480501Y-98325810D01*
X132480501Y-98788913D01*
X132366018Y-98800188D01*
X132246320Y-98836498D01*
X132136006Y-98895463D01*
X132039315Y-98974815D01*
X131959963Y-99071506D01*
X131900998Y-99181820D01*
X131864688Y-99301518D01*
X131852428Y-99426000D01*
X131852428Y-100426000D01*
X131864688Y-100550482D01*
X131900998Y-100670180D01*
X131959963Y-100780494D01*
X132039315Y-100877185D01*
X132113042Y-100937691D01*
X132113500Y-101008750D01*
X132207750Y-101103000D01*
X133117500Y-101103000D01*
X133117500Y-101083000D01*
X133363500Y-101083000D01*
X133363500Y-101103000D01*
X134273250Y-101103000D01*
X134367500Y-101008750D01*
X134367958Y-100937691D01*
X134441685Y-100877185D01*
X134521037Y-100780494D01*
X134580002Y-100670180D01*
X134616312Y-100550482D01*
X134628572Y-100426000D01*
X134628572Y-99426000D01*
X134616312Y-99301518D01*
X134580002Y-99181820D01*
X134521037Y-99071506D01*
X134441685Y-98974815D01*
X134344994Y-98895463D01*
X134234680Y-98836498D01*
X134114982Y-98800188D01*
X134000500Y-98788913D01*
X134000500Y-98624144D01*
X134155889Y-98593235D01*
X134344247Y-98515214D01*
X134513765Y-98401946D01*
X134657928Y-98257783D01*
X134771196Y-98088265D01*
X134849217Y-97899907D01*
X134888991Y-97699948D01*
X134888991Y-97496070D01*
X134849217Y-97296111D01*
X134771196Y-97107753D01*
X134657928Y-96938235D01*
X134513765Y-96794072D01*
X134344247Y-96680804D01*
X134155889Y-96602783D01*
X133955930Y-96563009D01*
X133752052Y-96563009D01*
X133552093Y-96602783D01*
X133363735Y-96680804D01*
X133194217Y-96794072D01*
X133050054Y-96938235D01*
X132936786Y-97107753D01*
X132858765Y-97296111D01*
X132818991Y-97496070D01*
X132818991Y-97558208D01*
X132789000Y-97588199D01*
X132789000Y-97486661D01*
X132749226Y-97286702D01*
X132671205Y-97098344D01*
X132557937Y-96928826D01*
X132413774Y-96784663D01*
X132244256Y-96671395D01*
X132055898Y-96593374D01*
X131855939Y-96553600D01*
X131793802Y-96553600D01*
X131143000Y-95902799D01*
X131143000Y-95004721D01*
X131186937Y-94960784D01*
X131300205Y-94791266D01*
X131378226Y-94602908D01*
X131418000Y-94402949D01*
X131418000Y-94336000D01*
X132674761Y-94336000D01*
X132695068Y-94338000D01*
X132885577Y-94338000D01*
X132923000Y-94341686D01*
X132960423Y-94338000D01*
X132960426Y-94338000D01*
X133072378Y-94326974D01*
X133216015Y-94283402D01*
X133348392Y-94212645D01*
X133464422Y-94117422D01*
X133488284Y-94088346D01*
X134311831Y-93264800D01*
X134371139Y-93264800D01*
X134571098Y-93225026D01*
X134759456Y-93147005D01*
X134928974Y-93033737D01*
X135073137Y-92889574D01*
X135186405Y-92720056D01*
X135264426Y-92531698D01*
X135304200Y-92331739D01*
X135304200Y-92127861D01*
X135264426Y-91927902D01*
X135186405Y-91739544D01*
X135073137Y-91570026D01*
X134928974Y-91425863D01*
X134759456Y-91312595D01*
X134571098Y-91234574D01*
X134371139Y-91194800D01*
X134167261Y-91194800D01*
X133967302Y-91234574D01*
X133778944Y-91312595D01*
X133700033Y-91365322D01*
X133620874Y-91286163D01*
X133451356Y-91172895D01*
X133262998Y-91094874D01*
X133063039Y-91055100D01*
X132859161Y-91055100D01*
X132659202Y-91094874D01*
X132470844Y-91172895D01*
X132301326Y-91286163D01*
X132157163Y-91430326D01*
X132090362Y-91530301D01*
X132087605Y-91523644D01*
X131974337Y-91354126D01*
X131830174Y-91209963D01*
X131660656Y-91096695D01*
X131472298Y-91018674D01*
X131272339Y-90978900D01*
X131081500Y-90978900D01*
X131081500Y-88942313D01*
X131085186Y-88904890D01*
X131081474Y-88867202D01*
X131070474Y-88755512D01*
X131026902Y-88611875D01*
X130979224Y-88522675D01*
X130956145Y-88479497D01*
X130884779Y-88392538D01*
X130860922Y-88363468D01*
X130831852Y-88339611D01*
X129606005Y-87113765D01*
X129659131Y-86985508D01*
X129698905Y-86785549D01*
X129698905Y-86581671D01*
X129659131Y-86381712D01*
X129581110Y-86193354D01*
X129467842Y-86023836D01*
X129323679Y-85879673D01*
X129154161Y-85766405D01*
X128965803Y-85688384D01*
X128765844Y-85648610D01*
X128561966Y-85648610D01*
X128362007Y-85688384D01*
X128173649Y-85766405D01*
X128004131Y-85879673D01*
X127859968Y-86023836D01*
X127746700Y-86193354D01*
X127674830Y-86366862D01*
X127617205Y-86227744D01*
X127503937Y-86058226D01*
X127359774Y-85914063D01*
X127190256Y-85800795D01*
X127001898Y-85722774D01*
X126801939Y-85683000D01*
X126598061Y-85683000D01*
X126398102Y-85722774D01*
X126209744Y-85800795D01*
X126040226Y-85914063D01*
X125896063Y-86058226D01*
X125782795Y-86227744D01*
X125704774Y-86416102D01*
X125665000Y-86616061D01*
X125665000Y-86678198D01*
X125242199Y-87101000D01*
X116901320Y-87101000D01*
X116863997Y-87097324D01*
X116826674Y-87101000D01*
X116826665Y-87101000D01*
X116715012Y-87111997D01*
X116571751Y-87155454D01*
X116439722Y-87226026D01*
X116439720Y-87226027D01*
X116439721Y-87226027D01*
X116352994Y-87297201D01*
X116352990Y-87297205D01*
X116323997Y-87320999D01*
X116300203Y-87349992D01*
X112008075Y-91642122D01*
X111992298Y-91655070D01*
X111836654Y-91810714D01*
X111807578Y-91834576D01*
X111777042Y-91871785D01*
X111712355Y-91950606D01*
X111692282Y-91988161D01*
X111667956Y-92033671D01*
X111577475Y-92015673D01*
X111482378Y-91986826D01*
X111370426Y-91975800D01*
X111295574Y-91975800D01*
X111183622Y-91986826D01*
X111039985Y-92030398D01*
X110907608Y-92101155D01*
X110906491Y-92102071D01*
X110880844Y-92112695D01*
X110711326Y-92225963D01*
X110567163Y-92370126D01*
X110453895Y-92539644D01*
X110375874Y-92728002D01*
X110336100Y-92927961D01*
X110336100Y-93131839D01*
X110375874Y-93331798D01*
X110427000Y-93455226D01*
X110427000Y-93681500D01*
X110447000Y-93681500D01*
X110447000Y-93927500D01*
X110427000Y-93927500D01*
X110427000Y-93947500D01*
X110181000Y-93947500D01*
X110181000Y-93927500D01*
X109546250Y-93927500D01*
X109452000Y-94021750D01*
X109450176Y-94242000D01*
X109457455Y-94315905D01*
X109479012Y-94386970D01*
X109514019Y-94452463D01*
X109535216Y-94478291D01*
X109441885Y-94554885D01*
X109335329Y-94684725D01*
X109256150Y-94832858D01*
X109207392Y-94993592D01*
X109190928Y-95160750D01*
X108986630Y-95160750D01*
X108964000Y-94592000D01*
X109012740Y-93367000D01*
X109450176Y-93367000D01*
X109452000Y-93587250D01*
X109546250Y-93681500D01*
X110181000Y-93681500D01*
X110181000Y-93084250D01*
X110086750Y-92990000D01*
X109829000Y-92988176D01*
X109755095Y-92995455D01*
X109684030Y-93017012D01*
X109618537Y-93052019D01*
X109561131Y-93099131D01*
X109514019Y-93156537D01*
X109479012Y-93222030D01*
X109457455Y-93293095D01*
X109450176Y-93367000D01*
X109012740Y-93367000D01*
X109040943Y-92658183D01*
X109271284Y-90736592D01*
X109653568Y-88839376D01*
X110185378Y-86978531D01*
X110610137Y-85842842D01*
X111725405Y-85842842D01*
X111732684Y-85916747D01*
X111754241Y-85987812D01*
X111789248Y-86053305D01*
X111836360Y-86110711D01*
X111893766Y-86157823D01*
X111959259Y-86192830D01*
X112030324Y-86214387D01*
X112104229Y-86221666D01*
X112361979Y-86219842D01*
X112456229Y-86125592D01*
X112456229Y-85528342D01*
X112702229Y-85528342D01*
X112702229Y-86125592D01*
X112796479Y-86219842D01*
X113054229Y-86221666D01*
X113128134Y-86214387D01*
X113199199Y-86192830D01*
X113264692Y-86157823D01*
X113322098Y-86110711D01*
X113369210Y-86053305D01*
X113404217Y-85987812D01*
X113425774Y-85916747D01*
X113433053Y-85842842D01*
X113431229Y-85622592D01*
X113336979Y-85528342D01*
X112702229Y-85528342D01*
X112456229Y-85528342D01*
X111821479Y-85528342D01*
X111727229Y-85622592D01*
X111725405Y-85842842D01*
X110610137Y-85842842D01*
X110863351Y-85165820D01*
X111466157Y-83876817D01*
X111466157Y-84049092D01*
X111482621Y-84216250D01*
X111531379Y-84376984D01*
X111610558Y-84525117D01*
X111717114Y-84654957D01*
X111810445Y-84731551D01*
X111789248Y-84757379D01*
X111754241Y-84822872D01*
X111732684Y-84893937D01*
X111725405Y-84967842D01*
X111727229Y-85188092D01*
X111821479Y-85282342D01*
X112456229Y-85282342D01*
X112456229Y-85262342D01*
X112702229Y-85262342D01*
X112702229Y-85282342D01*
X113336979Y-85282342D01*
X113431229Y-85188092D01*
X113433053Y-84967842D01*
X113425774Y-84893937D01*
X113404217Y-84822872D01*
X113369210Y-84757379D01*
X113348013Y-84731551D01*
X113441344Y-84654957D01*
X113547900Y-84525117D01*
X113627079Y-84376984D01*
X113675837Y-84216250D01*
X113692301Y-84049092D01*
X113692301Y-83611592D01*
X113675837Y-83444434D01*
X113658754Y-83388118D01*
X114173997Y-82872875D01*
X117797300Y-82872875D01*
X117797300Y-83095525D01*
X117840737Y-83313896D01*
X117925941Y-83519598D01*
X118049639Y-83704724D01*
X118207076Y-83862161D01*
X118392202Y-83985859D01*
X118426824Y-84000200D01*
X118392202Y-84014541D01*
X118207076Y-84138239D01*
X118049639Y-84295676D01*
X117925941Y-84480802D01*
X117840737Y-84686504D01*
X117797300Y-84904875D01*
X117797300Y-85127525D01*
X117840737Y-85345896D01*
X117925941Y-85551598D01*
X118049639Y-85736724D01*
X118207076Y-85894161D01*
X118392202Y-86017859D01*
X118597904Y-86103063D01*
X118816275Y-86146500D01*
X119038925Y-86146500D01*
X119257296Y-86103063D01*
X119462998Y-86017859D01*
X119648124Y-85894161D01*
X119805561Y-85736724D01*
X119929259Y-85551598D01*
X120014463Y-85345896D01*
X120057900Y-85127525D01*
X120057900Y-84904875D01*
X120014463Y-84686504D01*
X119929259Y-84480802D01*
X119805561Y-84295676D01*
X119648124Y-84138239D01*
X119462998Y-84014541D01*
X119428376Y-84000200D01*
X119462998Y-83985859D01*
X119648124Y-83862161D01*
X119805561Y-83704724D01*
X119929259Y-83519598D01*
X120014463Y-83313896D01*
X120057900Y-83095525D01*
X120057900Y-82872875D01*
X120014463Y-82654504D01*
X119929259Y-82448802D01*
X119805561Y-82263676D01*
X119648124Y-82106239D01*
X119593083Y-82069461D01*
X120559600Y-82069461D01*
X120559600Y-82273339D01*
X120599374Y-82473298D01*
X120677395Y-82661656D01*
X120790663Y-82831174D01*
X120934826Y-82975337D01*
X121104344Y-83088605D01*
X121292702Y-83166626D01*
X121492661Y-83206400D01*
X121696539Y-83206400D01*
X121896498Y-83166626D01*
X122084856Y-83088605D01*
X122254374Y-82975337D01*
X122272909Y-82956802D01*
X123572970Y-82956802D01*
X123472202Y-82998541D01*
X123287076Y-83122239D01*
X123129639Y-83279676D01*
X123005941Y-83464802D01*
X122920737Y-83670504D01*
X122877300Y-83888875D01*
X122877300Y-84111525D01*
X122920737Y-84329896D01*
X123005941Y-84535598D01*
X123129639Y-84720724D01*
X123287076Y-84878161D01*
X123472202Y-85001859D01*
X123677904Y-85087063D01*
X123896275Y-85130500D01*
X124118925Y-85130500D01*
X124337296Y-85087063D01*
X124542998Y-85001859D01*
X124728124Y-84878161D01*
X124885561Y-84720724D01*
X125009259Y-84535598D01*
X125094463Y-84329896D01*
X125137900Y-84111525D01*
X125137900Y-83998331D01*
X126198220Y-85058651D01*
X126222078Y-85087722D01*
X126251148Y-85111579D01*
X126338107Y-85182945D01*
X126386004Y-85208546D01*
X126470485Y-85253702D01*
X126614122Y-85297274D01*
X126726074Y-85308300D01*
X126726077Y-85308300D01*
X126763500Y-85311986D01*
X126800923Y-85308300D01*
X140911998Y-85308300D01*
X140918689Y-85314991D01*
X140892300Y-85447661D01*
X140892300Y-85651539D01*
X140932074Y-85851498D01*
X141010095Y-86039856D01*
X141123363Y-86209374D01*
X141267526Y-86353537D01*
X141437044Y-86466805D01*
X141625402Y-86544826D01*
X141825361Y-86584600D01*
X142029239Y-86584600D01*
X142229198Y-86544826D01*
X142417556Y-86466805D01*
X142587074Y-86353537D01*
X142731237Y-86209374D01*
X142844505Y-86039856D01*
X142922526Y-85851498D01*
X142962300Y-85651539D01*
X142962300Y-85447661D01*
X142922526Y-85247702D01*
X142844505Y-85059344D01*
X142731237Y-84889826D01*
X142587074Y-84745663D01*
X142417556Y-84632395D01*
X142372824Y-84613866D01*
X141792912Y-84033954D01*
X141769050Y-84004878D01*
X141653020Y-83909655D01*
X141520643Y-83838898D01*
X141377006Y-83795326D01*
X141265054Y-83784300D01*
X141265051Y-83784300D01*
X141227628Y-83780614D01*
X141190205Y-83784300D01*
X127079131Y-83784300D01*
X124964859Y-81670029D01*
X124954003Y-81656801D01*
X124940775Y-81645945D01*
X124926353Y-81631523D01*
X124839394Y-81560157D01*
X124707017Y-81489401D01*
X124563380Y-81445829D01*
X124414002Y-81431116D01*
X124356273Y-81436802D01*
X122323713Y-81436802D01*
X122254374Y-81367463D01*
X122084856Y-81254195D01*
X121896498Y-81176174D01*
X121696539Y-81136400D01*
X121492661Y-81136400D01*
X121292702Y-81176174D01*
X121104344Y-81254195D01*
X120934826Y-81367463D01*
X120790663Y-81511626D01*
X120677395Y-81681144D01*
X120599374Y-81869502D01*
X120559600Y-82069461D01*
X119593083Y-82069461D01*
X119462998Y-81982541D01*
X119257296Y-81897337D01*
X119038925Y-81853900D01*
X118816275Y-81853900D01*
X118597904Y-81897337D01*
X118392202Y-81982541D01*
X118207076Y-82106239D01*
X118049639Y-82263676D01*
X117925941Y-82448802D01*
X117840737Y-82654504D01*
X117797300Y-82872875D01*
X114173997Y-82872875D01*
X117903864Y-79143008D01*
X117954744Y-79177005D01*
X118143102Y-79255026D01*
X118343061Y-79294800D01*
X118546939Y-79294800D01*
X118746898Y-79255026D01*
X118935256Y-79177005D01*
X119104774Y-79063737D01*
X119248937Y-78919574D01*
X119362205Y-78750056D01*
X119440226Y-78561698D01*
X119480000Y-78361739D01*
X119480000Y-78157861D01*
X119440226Y-77957902D01*
X119362205Y-77769544D01*
X119248937Y-77600026D01*
X119104774Y-77455863D01*
X118935256Y-77342595D01*
X118746898Y-77264574D01*
X118546939Y-77224800D01*
X118343061Y-77224800D01*
X118143102Y-77264574D01*
X117954744Y-77342595D01*
X117785226Y-77455863D01*
X117742035Y-77499054D01*
X117712271Y-77496123D01*
X117674938Y-77499800D01*
X117563285Y-77510797D01*
X117420024Y-77554254D01*
X117287995Y-77624826D01*
X117172270Y-77719799D01*
X117148472Y-77748797D01*
X112113067Y-82784203D01*
X112025416Y-82810792D01*
X112639745Y-81730267D01*
X113726935Y-80129147D01*
X114937897Y-78619465D01*
X116264976Y-77210767D01*
X116396145Y-77092030D01*
X118936676Y-77092030D01*
X118943955Y-77165935D01*
X118965512Y-77237000D01*
X119000519Y-77302493D01*
X119047631Y-77359899D01*
X119105037Y-77407011D01*
X119170530Y-77442018D01*
X119241595Y-77463575D01*
X119315500Y-77470854D01*
X119535750Y-77469030D01*
X119630000Y-77374780D01*
X119630000Y-76740030D01*
X119032750Y-76740030D01*
X118938500Y-76834280D01*
X118936676Y-77092030D01*
X116396145Y-77092030D01*
X117445619Y-76142030D01*
X118936676Y-76142030D01*
X118938500Y-76399780D01*
X119032750Y-76494030D01*
X119630000Y-76494030D01*
X119630000Y-75859280D01*
X119876000Y-75859280D01*
X119876000Y-76494030D01*
X119896000Y-76494030D01*
X119896000Y-76740030D01*
X119876000Y-76740030D01*
X119876000Y-77374780D01*
X119970250Y-77469030D01*
X120190500Y-77470854D01*
X120264405Y-77463575D01*
X120335470Y-77442018D01*
X120400963Y-77407011D01*
X120426791Y-77385814D01*
X120503385Y-77479145D01*
X120633225Y-77585701D01*
X120781358Y-77664880D01*
X120942092Y-77713638D01*
X121109250Y-77730102D01*
X121546750Y-77730102D01*
X121713908Y-77713638D01*
X121874642Y-77664880D01*
X122022775Y-77585701D01*
X122152615Y-77479145D01*
X122236418Y-77377030D01*
X122567069Y-77377030D01*
X122604391Y-77380706D01*
X122641713Y-77377030D01*
X122641724Y-77377030D01*
X122753377Y-77366033D01*
X122896638Y-77322576D01*
X123028667Y-77252004D01*
X123144392Y-77157031D01*
X123168195Y-77128027D01*
X123591128Y-76705094D01*
X123591128Y-77206400D01*
X123603388Y-77330882D01*
X123639698Y-77450580D01*
X123698663Y-77560894D01*
X123778015Y-77657585D01*
X123874706Y-77736937D01*
X123985020Y-77795902D01*
X124056020Y-77817440D01*
X124092555Y-77885792D01*
X124151735Y-77957902D01*
X124187779Y-78001822D01*
X124216849Y-78025679D01*
X124391816Y-78200646D01*
X124415678Y-78229722D01*
X124531708Y-78324945D01*
X124664085Y-78395702D01*
X124807722Y-78439274D01*
X124919674Y-78450300D01*
X124919676Y-78450300D01*
X124957099Y-78453986D01*
X124994522Y-78450300D01*
X131221875Y-78450300D01*
X131259298Y-78453986D01*
X131296721Y-78450300D01*
X131296724Y-78450300D01*
X131408676Y-78439274D01*
X131552313Y-78395702D01*
X131557181Y-78393100D01*
X131691437Y-78393100D01*
X131891396Y-78353326D01*
X132079754Y-78275305D01*
X132249272Y-78162037D01*
X132393435Y-78017874D01*
X132506703Y-77848356D01*
X132584724Y-77659998D01*
X132615734Y-77504100D01*
X132694739Y-77504100D01*
X132894698Y-77464326D01*
X133083056Y-77386305D01*
X133252574Y-77273037D01*
X133396737Y-77128874D01*
X133510005Y-76959356D01*
X133588026Y-76770998D01*
X133627800Y-76571039D01*
X133627800Y-76367161D01*
X133588026Y-76167202D01*
X133510005Y-75978844D01*
X133396737Y-75809326D01*
X133252574Y-75665163D01*
X133083056Y-75551895D01*
X132894698Y-75473874D01*
X132694739Y-75434100D01*
X132620196Y-75434100D01*
X132618193Y-75432456D01*
X132485816Y-75361699D01*
X132342179Y-75318127D01*
X132230227Y-75307101D01*
X132230224Y-75307101D01*
X132192801Y-75303415D01*
X132155378Y-75307101D01*
X130909167Y-75307101D01*
X130866585Y-75255215D01*
X130769894Y-75175863D01*
X130659580Y-75116898D01*
X130539882Y-75080588D01*
X130415400Y-75068328D01*
X129415400Y-75068328D01*
X129290918Y-75080588D01*
X129171220Y-75116898D01*
X129060906Y-75175863D01*
X128964215Y-75255215D01*
X128903709Y-75328942D01*
X128832650Y-75329400D01*
X128738400Y-75423650D01*
X128738400Y-76333400D01*
X128758400Y-76333400D01*
X128758400Y-76579400D01*
X128738400Y-76579400D01*
X128738400Y-76599400D01*
X128492400Y-76599400D01*
X128492400Y-76579400D01*
X127832650Y-76579400D01*
X127738400Y-76673650D01*
X127737535Y-76926300D01*
X126907065Y-76926300D01*
X126906200Y-76673650D01*
X126811950Y-76579400D01*
X126152200Y-76579400D01*
X126152200Y-76599400D01*
X125906200Y-76599400D01*
X125906200Y-76579400D01*
X125886200Y-76579400D01*
X125886200Y-76333400D01*
X125906200Y-76333400D01*
X125906200Y-75423650D01*
X126152200Y-75423650D01*
X126152200Y-76333400D01*
X126811950Y-76333400D01*
X126906200Y-76239150D01*
X126908024Y-75706400D01*
X127736576Y-75706400D01*
X127738400Y-76239150D01*
X127832650Y-76333400D01*
X128492400Y-76333400D01*
X128492400Y-75423650D01*
X128398150Y-75329400D01*
X128115400Y-75327576D01*
X128041495Y-75334855D01*
X127970430Y-75356412D01*
X127904937Y-75391419D01*
X127847531Y-75438531D01*
X127800419Y-75495937D01*
X127765412Y-75561430D01*
X127743855Y-75632495D01*
X127736576Y-75706400D01*
X126908024Y-75706400D01*
X126900745Y-75632495D01*
X126879188Y-75561430D01*
X126844181Y-75495937D01*
X126797069Y-75438531D01*
X126739663Y-75391419D01*
X126674170Y-75356412D01*
X126603105Y-75334855D01*
X126529200Y-75327576D01*
X126246450Y-75329400D01*
X126152200Y-75423650D01*
X125906200Y-75423650D01*
X125811950Y-75329400D01*
X125740891Y-75328942D01*
X125680385Y-75255215D01*
X125583694Y-75175863D01*
X125473380Y-75116898D01*
X125353682Y-75080588D01*
X125229200Y-75068328D01*
X125227895Y-75068328D01*
X125810323Y-74485900D01*
X128828389Y-74485900D01*
X128872326Y-74529837D01*
X129041844Y-74643105D01*
X129230202Y-74721126D01*
X129430161Y-74760900D01*
X129634039Y-74760900D01*
X129833998Y-74721126D01*
X130022356Y-74643105D01*
X130191874Y-74529837D01*
X130336037Y-74385674D01*
X130414780Y-74267827D01*
X130707655Y-74560702D01*
X130731453Y-74589700D01*
X130847178Y-74684673D01*
X130979207Y-74755245D01*
X131122468Y-74798702D01*
X131234121Y-74809699D01*
X131234130Y-74809699D01*
X131271453Y-74813375D01*
X131308776Y-74809699D01*
X135266979Y-74809699D01*
X135304301Y-74813375D01*
X135341623Y-74809699D01*
X135341634Y-74809699D01*
X135453287Y-74798702D01*
X135596548Y-74755245D01*
X135728526Y-74684700D01*
X135806239Y-74684700D01*
X136006198Y-74644926D01*
X136194556Y-74566905D01*
X136364074Y-74453637D01*
X136508237Y-74309474D01*
X136621505Y-74139956D01*
X136699526Y-73951598D01*
X136739300Y-73751639D01*
X136739300Y-73547761D01*
X136699526Y-73347802D01*
X136621505Y-73159444D01*
X136619909Y-73157056D01*
X136807750Y-73155500D01*
X136902000Y-73061250D01*
X136902000Y-72426500D01*
X136304750Y-72426500D01*
X136210500Y-72520750D01*
X136208934Y-72742102D01*
X136194556Y-72732495D01*
X136006198Y-72654474D01*
X135806239Y-72614700D01*
X135602361Y-72614700D01*
X135402402Y-72654474D01*
X135214044Y-72732495D01*
X135044526Y-72845763D01*
X134900363Y-72989926D01*
X134787095Y-73159444D01*
X134733141Y-73289699D01*
X131586256Y-73289699D01*
X130002887Y-71706331D01*
X129967098Y-71588351D01*
X129887919Y-71440218D01*
X129781363Y-71310378D01*
X129651523Y-71203822D01*
X129503390Y-71124643D01*
X129342656Y-71075885D01*
X129175498Y-71059421D01*
X128737998Y-71059421D01*
X128570840Y-71075885D01*
X128410106Y-71124643D01*
X128261973Y-71203822D01*
X128132133Y-71310378D01*
X128055539Y-71403709D01*
X128029711Y-71382512D01*
X127964218Y-71347505D01*
X127893153Y-71325948D01*
X127819248Y-71318669D01*
X127598998Y-71320493D01*
X127504748Y-71414743D01*
X127504748Y-72049493D01*
X127524748Y-72049493D01*
X127524748Y-72295493D01*
X127504748Y-72295493D01*
X127504748Y-72315493D01*
X127258748Y-72315493D01*
X127258748Y-72295493D01*
X126661498Y-72295493D01*
X126567248Y-72389743D01*
X126565424Y-72647493D01*
X126572703Y-72721398D01*
X126594260Y-72792463D01*
X126629267Y-72857956D01*
X126676379Y-72915362D01*
X126733785Y-72962474D01*
X126740195Y-72965900D01*
X125532843Y-72965900D01*
X125495520Y-72962224D01*
X125458197Y-72965900D01*
X125458188Y-72965900D01*
X125346535Y-72976897D01*
X125203274Y-73020354D01*
X125071245Y-73090926D01*
X124955520Y-73185899D01*
X124931722Y-73214897D01*
X122289590Y-75857030D01*
X122236418Y-75857030D01*
X122152615Y-75754915D01*
X122022775Y-75648359D01*
X121874642Y-75569180D01*
X121713908Y-75520422D01*
X121546750Y-75503958D01*
X121109250Y-75503958D01*
X120942092Y-75520422D01*
X120781358Y-75569180D01*
X120633225Y-75648359D01*
X120503385Y-75754915D01*
X120426791Y-75848246D01*
X120400963Y-75827049D01*
X120335470Y-75792042D01*
X120264405Y-75770485D01*
X120190500Y-75763206D01*
X119970250Y-75765030D01*
X119876000Y-75859280D01*
X119630000Y-75859280D01*
X119535750Y-75765030D01*
X119315500Y-75763206D01*
X119241595Y-75770485D01*
X119170530Y-75792042D01*
X119105037Y-75827049D01*
X119047631Y-75874161D01*
X119000519Y-75931567D01*
X118965512Y-75997060D01*
X118943955Y-76068125D01*
X118936676Y-76142030D01*
X117445619Y-76142030D01*
X117699781Y-75911959D01*
X119233241Y-74731251D01*
X120855660Y-73676110D01*
X122556783Y-72753206D01*
X124325852Y-71968374D01*
X125096472Y-71697493D01*
X126565424Y-71697493D01*
X126567248Y-71955243D01*
X126661498Y-72049493D01*
X127258748Y-72049493D01*
X127258748Y-71414743D01*
X127164498Y-71320493D01*
X126944248Y-71318669D01*
X126870343Y-71325948D01*
X126799278Y-71347505D01*
X126733785Y-71382512D01*
X126676379Y-71429624D01*
X126629267Y-71487030D01*
X126594260Y-71552523D01*
X126572703Y-71623588D01*
X126565424Y-71697493D01*
X125096472Y-71697493D01*
X126151684Y-71326575D01*
X128022736Y-70831869D01*
X129927177Y-70487381D01*
X131852968Y-70295290D01*
X132315508Y-70286092D01*
X132261748Y-70322013D01*
G37*
%TD.AperFunction*%
%TD*%
M02*
